<?xml version="1.0" encoding="UTF-8" standalone="no"?>
<!DOCTYPE svg PUBLIC "-//W3C//DTD SVG 1.1//EN"
"http://www.w3.org/Graphics/SVG/1.1/DTD/svg11.dtd">
<svg viewBox="0 0 909 1286" version="1.1" xmlns="http://www.w3.org/2000/svg" xmlns:xlink="http://www.w3.org/1999/xlink">
<defs>
<clipPath id="c0_10"><path d="M0,1286.2V.2H909.3v1286Z" /></clipPath>
<style type="text/css"><![CDATA[
.g0_10{
fill: #00FF00;
}
.g1_10{
fill: none;
stroke: #0000FF;
stroke-width: 1.0694444;
stroke-linecap: butt;
stroke-linejoin: miter;
}
]]></style>
</defs>
<g clip-path="url(#c0_10)">
<g fill="#000000" >
<use xlink:href="#f0_19" transform="matrix(12,0,0,12,86.8,500.2)" />
<use xlink:href="#f0_e" transform="matrix(12,0,0,12,92.1,500.2)" />
<use xlink:href="#f0_6" transform="matrix(12,0,0,12,109.7,500.2)" />
<use xlink:href="#f0_7" transform="matrix(12,0,0,12,116.9,500.2)" />
<use xlink:href="#f0_c" transform="matrix(12,0,0,12,128.5,500.2)" />
<use xlink:href="#f0_9" transform="matrix(12,0,0,12,133.5,500.2)" />
<use xlink:href="#f0_a" transform="matrix(12,0,0,12,148.9,500.2)" />
<use xlink:href="#f0_1h" transform="matrix(12,0,0,12,159.9,500.2)" />
<use xlink:href="#f0_8" transform="matrix(12,0,0,12,170.6,500.2)" />
<use xlink:href="#f0_u" transform="matrix(12,0,0,12,181.9,500.2)" />
<use xlink:href="#f0_s" transform="matrix(12,0,0,12,199.8,500.2)" />
<use xlink:href="#f0_o" transform="matrix(12,0,0,12,211.4,500.2)" />
<use xlink:href="#f0_a" transform="matrix(12,0,0,12,216.4,500.2)" />
<use xlink:href="#f0_4" transform="matrix(12,0,0,12,227.7,500.2)" />
<use xlink:href="#f0_6" transform="matrix(12,0,0,12,239.5,500.2)" />
<use xlink:href="#f0_7" transform="matrix(12,0,0,12,246.7,500.2)" />
<use xlink:href="#f0_a" transform="matrix(12,0,0,12,258.3,500.2)" />
<use xlink:href="#f0_m" transform="matrix(12,0,0,12,275.4,500.2)" />
<use xlink:href="#f0_k" transform="matrix(12,0,0,12,287.9,500.2)" />
<use xlink:href="#f0_e" transform="matrix(12,0,0,12,299.5,500.2)" />
<use xlink:href="#f0_f" transform="matrix(12,0,0,12,311.1,500.2)" />
<use xlink:href="#f0_o" transform="matrix(12,0,0,12,322.9,500.2)" />
<use xlink:href="#f0_a" transform="matrix(12,0,0,12,327.9,500.2)" />
<use xlink:href="#f0_19" transform="matrix(12,0,0,12,345,500.2)" />
<use xlink:href="#f0_15" transform="matrix(12,0,0,12,350.4,500.2)" />
<use xlink:href="#f0_7" transform="matrix(12,0,0,12,370.4,500.2)" />
<use xlink:href="#f0_8" transform="matrix(12,0,0,12,382,500.2)" />
<use xlink:href="#f0_f" transform="matrix(12,0,0,12,393.3,500.2)" />
<use xlink:href="#f0_x" transform="matrix(12,0,0,12,410.7,500.2)" />
<use xlink:href="#f0_a" transform="matrix(12,0,0,12,422.3,500.2)" />
<use xlink:href="#f0_a" transform="matrix(12,0,0,12,433.6,500.2)" />
<use xlink:href="#f0_e" transform="matrix(12,0,0,12,444.9,500.2)" />
<use xlink:href="#f0_8" transform="matrix(12,0,0,12,462.3,500.2)" />
<use xlink:href="#f0_b" transform="matrix(12,0,0,12,473.6,500.2)" />
<use xlink:href="#f0_b" transform="matrix(12,0,0,12,483.6,500.2)" />
<use xlink:href="#f0_c" transform="matrix(12,0,0,12,493.7,500.2)" />
<use xlink:href="#f0_f" transform="matrix(12,0,0,12,498.7,500.2)" />
<use xlink:href="#f0_a" transform="matrix(12,0,0,12,510.4,500.2)" />
<use xlink:href="#f0_e" transform="matrix(12,0,0,12,521.6,500.2)" />
<use xlink:href="#f0_6" transform="matrix(12,0,0,12,533.2,500.2)" />
<use xlink:href="#f0_8" transform="matrix(12,0,0,12,540.4,500.2)" />
<use xlink:href="#f0_o" transform="matrix(12,0,0,12,551.7,500.2)" />
<use xlink:href="#f0_o" transform="matrix(12,0,0,12,556.8,500.2)" />
<use xlink:href="#f0_p" transform="matrix(12,0,0,12,561.8,500.2)" />
<use xlink:href="#f0_u" transform="matrix(12,0,0,12,578.5,500.2)" />
<use xlink:href="#f0_c" transform="matrix(12,0,0,12,596.3,500.2)" />
<use xlink:href="#f0_9" transform="matrix(12,0,0,12,601.4,500.2)" />
<use xlink:href="#f0_j" transform="matrix(12,0,0,12,611,500.2)" />
<use xlink:href="#f0_6" transform="matrix(12,0,0,12,617.7,500.2)" />
<use xlink:href="#f0_p" transform="matrix(12,0,0,12,624.9,500.2)" />
<use xlink:href="#f0_s" transform="matrix(12,0,0,12,635.7,500.2)" />
<use xlink:href="#f0_a" transform="matrix(12,0,0,12,647.3,500.2)" />
<use xlink:href="#f0_f" transform="matrix(12,0,0,12,658.6,500.2)" />
<use xlink:href="#f0_l" transform="matrix(12,0,0,12,670.2,500.2)" />
<use xlink:href="#f0_z" transform="matrix(12,0,0,12,681.8,500.2)" />
<use xlink:href="#f0_b" transform="matrix(12,0,0,12,694.3,500.2)" />
<use xlink:href="#f0_d" transform="matrix(12,0,0,12,704.4,500.2)" />
<use xlink:href="#f0_f" transform="matrix(12,0,0,12,715.6,500.2)" />
<use xlink:href="#f0_a" transform="matrix(12,0,0,12,727.2,500.2)" />
<use xlink:href="#f0_n" transform="matrix(12,0,0,12,744.4,500.2)" />
<use xlink:href="#f0_c" transform="matrix(12,0,0,12,759.4,500.2)" />
<use xlink:href="#f0_o" transform="matrix(12,0,0,12,764.4,500.2)" />
<use xlink:href="#f0_o" transform="matrix(12,0,0,12,769.6,500.2)" />
<use xlink:href="#f0_q" transform="matrix(12,0,0,12,86.8,528.8)" />
<use xlink:href="#f0_o" transform="matrix(12,0,0,12,98.4,528.8)" />
<use xlink:href="#f0_8" transform="matrix(12,0,0,12,103.4,528.8)" />
<use xlink:href="#f0_f" transform="matrix(12,0,0,12,114.7,528.8)" />
<use xlink:href="#f0_o" transform="matrix(12,0,0,12,126.3,528.8)" />
<use xlink:href="#f0_p" transform="matrix(12,0,0,12,131.4,528.8)" />
<use xlink:href="#f0_q" transform="matrix(12,0,0,12,148.2,528.8)" />
<use xlink:href="#f0_d" transform="matrix(12,0,0,12,159.8,528.8)" />
<use xlink:href="#f0_u" transform="matrix(12,0,0,12,176.9,528.8)" />
<use xlink:href="#f0_8" transform="matrix(12,0,0,12,194.6,528.8)" />
<use xlink:href="#f0_i" transform="matrix(12,0,0,12,205.9,528.8)" />
<use xlink:href="#f0_a" transform="matrix(12,0,0,12,215.8,528.8)" />
<use xlink:href="#f0_p" transform="matrix(12,0,0,12,232.9,528.8)" />
<use xlink:href="#f0_d" transform="matrix(12,0,0,12,243.8,528.8)" />
<use xlink:href="#f0_k" transform="matrix(12,0,0,12,254.9,528.8)" />
<use xlink:href="#f0_8" transform="matrix(12,0,0,12,272.5,528.8)" />
<use xlink:href="#f0_e" transform="matrix(12,0,0,12,289.6,528.8)" />
<use xlink:href="#f0_a" transform="matrix(12,0,0,12,301.2,528.8)" />
<use xlink:href="#f0_n" transform="matrix(12,0,0,12,312.5,528.8)" />
<use xlink:href="#f0_s" transform="matrix(12,0,0,12,333.3,528.8)" />
<use xlink:href="#f0_g" transform="matrix(12,0,0,12,344.9,528.8)" />
<use xlink:href="#f0_d" transform="matrix(12,0,0,12,352.1,528.8)" />
<use xlink:href="#f0_h" transform="matrix(12,0,0,12,363.2,528.8)" />
<use xlink:href="#f0_c" transform="matrix(12,0,0,12,369.6,528.8)" />
<use xlink:href="#f0_o" transform="matrix(12,0,0,12,374.8,528.8)" />
<use xlink:href="#f0_a" transform="matrix(12,0,0,12,379.8,528.8)" />
<use xlink:href="#f0_h" transform="matrix(12,0,0,12,396.9,528.8)" />
<use xlink:href="#f0_d" transform="matrix(12,0,0,12,403.4,528.8)" />
<use xlink:href="#f0_g" transform="matrix(12,0,0,12,414.7,528.8)" />
<use xlink:href="#f0_p" transform="matrix(12,0,0,12,427.9,528.8)" />
<use xlink:href="#f0_d" transform="matrix(12,0,0,12,438.8,528.8)" />
<use xlink:href="#f0_k" transform="matrix(12,0,0,12,449.9,528.8)" />
<use xlink:href="#f0_1a" transform="matrix(12,0,0,12,467.5,528.8)" />
<use xlink:href="#f0_x" transform="matrix(12,0,0,12,491.6,528.8)" />
<use xlink:href="#f0_k" transform="matrix(12,0,0,12,503.2,528.8)" />
<use xlink:href="#f0_6" transform="matrix(12,0,0,12,514.8,528.8)" />
<use xlink:href="#f0_p" transform="matrix(12,0,0,12,528,528.8)" />
<use xlink:href="#f0_d" transform="matrix(12,0,0,12,538.8,528.8)" />
<use xlink:href="#f0_k" transform="matrix(12,0,0,12,550,528.8)" />
<use xlink:href="#f1_c" transform="matrix(12,0,0,12,567.6,528.8)" />
<use xlink:href="#f1_g" transform="matrix(12,0,0,12,580.7,528.8)" />
<use xlink:href="#f1_6" transform="matrix(12,0,0,12,599.6,528.8)" />
<use xlink:href="#f1_g" transform="matrix(12,0,0,12,612.8,528.8)" />
<use xlink:href="#f1_4" transform="matrix(12,0,0,12,625.3,528.8)" />
<use xlink:href="#f0_n" transform="matrix(12,0,0,12,640.4,528.8)" />
<use xlink:href="#f0_8" transform="matrix(12,0,0,12,655.4,528.8)" />
<use xlink:href="#f0_e" transform="matrix(12,0,0,12,666.7,528.8)" />
<use xlink:href="#f0_6" transform="matrix(12,0,0,12,678.3,528.8)" />
<use xlink:href="#f0_6" transform="matrix(12,0,0,12,691.3,528.8)" />
<use xlink:href="#f0_7" transform="matrix(12,0,0,12,698.5,528.8)" />
<use xlink:href="#f0_8" transform="matrix(12,0,0,12,710.1,528.8)" />
<use xlink:href="#f0_6" transform="matrix(12,0,0,12,721.4,528.8)" />
<use xlink:href="#f0_9" transform="matrix(12,0,0,12,734.4,528.8)" />
<use xlink:href="#f0_d" transform="matrix(12,0,0,12,744,528.8)" />
<use xlink:href="#f1_c" transform="matrix(12,0,0,12,761,528.8)" />
<use xlink:href="#f1_g" transform="matrix(12,0,0,12,774.1,528.8)" />
<use xlink:href="#f1_6" transform="matrix(12,0,0,12,786.8,528.8)" />
<use xlink:href="#f1_14" transform="matrix(12,0,0,12,799.8,528.8)" />
<use xlink:href="#f1_4" transform="matrix(12,0,0,12,806.8,528.8)" />
<use xlink:href="#f0_7" transform="matrix(12,0,0,12,86.8,557.5)" />
<use xlink:href="#f0_c" transform="matrix(12,0,0,12,98.4,557.5)" />
<use xlink:href="#f0_6" transform="matrix(12,0,0,12,103.4,557.5)" />
</g>
<g fill="#0000FF" >
<use xlink:href="#f1_15" transform="matrix(12,0,0,12,116.6,557.5)" />
<use xlink:href="#f1_5" transform="matrix(12,0,0,12,129.1,557.5)" />
<use xlink:href="#f1_16" transform="matrix(12,0,0,12,135.4,557.5)" />
<use xlink:href="#f1_s" transform="matrix(12,0,0,12,153.5,557.5)" />
<use xlink:href="#f1_k" transform="matrix(12,0,0,12,160.4,557.5)" />
<use xlink:href="#f1_k" transform="matrix(12,0,0,12,171.2,557.5)" />
<use xlink:href="#f1_o" transform="matrix(12,0,0,12,182.2,557.5)" />
<use xlink:href="#f1_3" transform="matrix(12,0,0,12,195.2,557.5)" />
</g>
<g fill="#000000" >
<use xlink:href="#f0_1a" transform="matrix(12,0,0,12,214,557.5)" />
<use xlink:href="#f0_9" transform="matrix(12,0,0,12,238.2,557.5)" />
<use xlink:href="#f0_a" transform="matrix(12,0,0,12,247.8,557.5)" />
<use xlink:href="#f0_o" transform="matrix(12,0,0,12,259.1,557.5)" />
<use xlink:href="#f0_a" transform="matrix(12,0,0,12,264.1,557.5)" />
<use xlink:href="#f0_b" transform="matrix(12,0,0,12,275.4,557.5)" />
<use xlink:href="#f0_6" transform="matrix(12,0,0,12,285.5,557.5)" />
</g>
<g fill="#0000FF" >
<use xlink:href="#f1_12" transform="matrix(12,0,0,12,298.5,557.5)" />
<use xlink:href="#f1_a" transform="matrix(12,0,0,12,312,557.5)" />
<use xlink:href="#f1_6" transform="matrix(12,0,0,12,324.3,557.5)" />
<use xlink:href="#f1_f" transform="matrix(12,0,0,12,337.3,557.5)" />
<use xlink:href="#f1_3" transform="matrix(12,0,0,12,348.3,557.5)" />
<use xlink:href="#f1_r" transform="matrix(12,0,0,12,360.7,557.5)" />
</g>
<g fill="#000000" >
<use xlink:href="#f0_c" transform="matrix(12,0,0,12,373.5,557.5)" />
<use xlink:href="#f0_e" transform="matrix(12,0,0,12,378.6,557.5)" />
<use xlink:href="#f0_9" transform="matrix(12,0,0,12,390.2,557.5)" />
<use xlink:href="#f0_6" transform="matrix(12,0,0,12,399.8,557.5)" />
<use xlink:href="#f0_a" transform="matrix(12,0,0,12,407,557.5)" />
<use xlink:href="#f0_8" transform="matrix(12,0,0,12,418.1,557.5)" />
<use xlink:href="#f0_f" transform="matrix(12,0,0,12,429.4,557.5)" />
<use xlink:href="#f0_8" transform="matrix(12,0,0,12,446.8,557.5)" />
<use xlink:href="#f0_e" transform="matrix(12,0,0,12,458.1,557.5)" />
<use xlink:href="#f0_f" transform="matrix(12,0,0,12,469.7,557.5)" />
<use xlink:href="#f0_q" transform="matrix(12,0,0,12,487.2,557.5)" />
<use xlink:href="#f0_d" transform="matrix(12,0,0,12,498.8,557.5)" />
<use xlink:href="#f0_x" transform="matrix(12,0,0,12,515.9,557.5)" />
<use xlink:href="#f0_8" transform="matrix(12,0,0,12,527.5,557.5)" />
<use xlink:href="#f0_b" transform="matrix(12,0,0,12,538.8,557.5)" />
<use xlink:href="#f0_i" transform="matrix(12,0,0,12,548.7,557.5)" />
<use xlink:href="#f0_8" transform="matrix(12,0,0,12,565.2,557.5)" />
<use xlink:href="#f0_e" transform="matrix(12,0,0,12,576.5,557.5)" />
<use xlink:href="#f0_f" transform="matrix(12,0,0,12,588.1,557.5)" />
<use xlink:href="#f0_b" transform="matrix(12,0,0,12,605.5,557.5)" />
<use xlink:href="#f0_d" transform="matrix(12,0,0,12,615.6,557.5)" />
<use xlink:href="#f0_g" transform="matrix(12,0,0,12,626.9,557.5)" />
<use xlink:href="#f0_g" transform="matrix(12,0,0,12,634,557.5)" />
<use xlink:href="#f0_a" transform="matrix(12,0,0,12,641.1,557.5)" />
<use xlink:href="#f0_b" transform="matrix(12,0,0,12,652.4,557.5)" />
<use xlink:href="#f0_6" transform="matrix(12,0,0,12,662.4,557.5)" />
<use xlink:href="#f0_6" transform="matrix(12,0,0,12,675.5,557.5)" />
<use xlink:href="#f0_7" transform="matrix(12,0,0,12,682.7,557.5)" />
<use xlink:href="#f0_a" transform="matrix(12,0,0,12,694.3,557.5)" />
<use xlink:href="#f0_m" transform="matrix(12,0,0,12,711.4,557.5)" />
<use xlink:href="#f0_k" transform="matrix(12,0,0,12,724,557.5)" />
<use xlink:href="#f0_e" transform="matrix(12,0,0,12,735.6,557.5)" />
<use xlink:href="#f0_f" transform="matrix(12,0,0,12,747.2,557.5)" />
<use xlink:href="#f0_o" transform="matrix(12,0,0,12,758.8,557.5)" />
<use xlink:href="#f0_a" transform="matrix(12,0,0,12,763.8,557.5)" />
<use xlink:href="#f0_19" transform="matrix(12,0,0,12,781.1,557.5)" />
<use xlink:href="#f0_15" transform="matrix(12,0,0,12,786.4,557.5)" />
<use xlink:href="#f0_u" transform="matrix(12,0,0,12,86.8,586.1)" />
<use xlink:href="#f0_8" transform="matrix(12,0,0,12,104.6,586.1)" />
<use xlink:href="#f0_e" transform="matrix(12,0,0,12,115.9,586.1)" />
<use xlink:href="#f0_k" transform="matrix(12,0,0,12,127.5,586.1)" />
<use xlink:href="#f0_8" transform="matrix(12,0,0,12,139,586.1)" />
<use xlink:href="#f0_o" transform="matrix(12,0,0,12,150.3,586.1)" />
<use xlink:href="#f0_o" transform="matrix(12,0,0,12,155.5,586.1)" />
<use xlink:href="#f0_p" transform="matrix(12,0,0,12,160.5,586.1)" />
<use xlink:href="#f0_l" transform="matrix(12,0,0,12,168.7,586.1)" />
<use xlink:href="#f0_1t" transform="matrix(12,0,0,12,86.8,614.8)" />
<use xlink:href="#f0_c" transform="matrix(12,0,0,12,100.5,614.8)" />
<use xlink:href="#f0_6" transform="matrix(12,0,0,12,105.6,614.8)" />
</g>
<g fill="#0000FF" >
<use xlink:href="#f0_17" transform="matrix(12,0,0,12,118.7,614.8)" />
<use xlink:href="#f1_11" transform="matrix(12,0,0,12,137,614.8)" />
</g>
<g fill="#000000" >
<use xlink:href="#f0_6" transform="matrix(12,0,0,12,157.5,614.8)" />
<use xlink:href="#f0_d" transform="matrix(12,0,0,12,164.7,614.8)" />
<use xlink:href="#f0_x" transform="matrix(12,0,0,12,181.7,614.8)" />
<use xlink:href="#f0_k" transform="matrix(12,0,0,12,193.3,614.8)" />
<use xlink:href="#f0_c" transform="matrix(12,0,0,12,205,614.8)" />
<use xlink:href="#f0_o" transform="matrix(12,0,0,12,210.1,614.8)" />
<use xlink:href="#f0_f" transform="matrix(12,0,0,12,215.1,614.8)" />
<use xlink:href="#f0_8" transform="matrix(12,0,0,12,232.7,614.8)" />
<use xlink:href="#f0_q" transform="matrix(12,0,0,12,243.8,614.8)" />
<use xlink:href="#f0_8" transform="matrix(12,0,0,12,255.4,614.8)" />
<use xlink:href="#f0_c" transform="matrix(12,0,0,12,266.7,614.8)" />
<use xlink:href="#f0_e" transform="matrix(12,0,0,12,271.7,614.8)" />
<use xlink:href="#f0_l" transform="matrix(12,0,0,12,283.4,614.8)" />
<use xlink:href="#f0_10" transform="matrix(12,0,0,12,295.1,614.8)" />
<use xlink:href="#f0_d" transform="matrix(12,0,0,12,308.8,614.8)" />
<use xlink:href="#f0_n" transform="matrix(12,0,0,12,320,614.8)" />
<use xlink:href="#f0_a" transform="matrix(12,0,0,12,340.8,614.8)" />
<use xlink:href="#f0_t" transform="matrix(12,0,0,12,352.1,614.8)" />
<use xlink:href="#f0_a" transform="matrix(12,0,0,12,362.9,614.8)" />
<use xlink:href="#f0_g" transform="matrix(12,0,0,12,374.2,614.8)" />
<use xlink:href="#f0_p" transform="matrix(12,0,0,12,381.7,614.8)" />
<use xlink:href="#f0_6" transform="matrix(12,0,0,12,392.5,614.8)" />
<use xlink:href="#f0_7" transform="matrix(12,0,0,12,399.7,614.8)" />
<use xlink:href="#f0_c" transform="matrix(12,0,0,12,411.3,614.8)" />
<use xlink:href="#f0_e" transform="matrix(12,0,0,12,416.3,614.8)" />
<use xlink:href="#f0_q" transform="matrix(12,0,0,12,427.9,614.8)" />
<use xlink:href="#f0_9" transform="matrix(12,0,0,12,445.5,614.8)" />
<use xlink:href="#f0_7" transform="matrix(12,0,0,12,455.1,614.8)" />
<use xlink:href="#f0_d" transform="matrix(12,0,0,12,466.7,614.8)" />
<use xlink:href="#f0_k" transform="matrix(12,0,0,12,477.9,614.8)" />
<use xlink:href="#f0_o" transform="matrix(12,0,0,12,489.5,614.8)" />
<use xlink:href="#f0_f" transform="matrix(12,0,0,12,494.5,614.8)" />
<use xlink:href="#f0_x" transform="matrix(12,0,0,12,512.1,614.8)" />
<use xlink:href="#f0_a" transform="matrix(12,0,0,12,523.7,614.8)" />
<use xlink:href="#f0_2" transform="matrix(12,0,0,12,540.8,614.8)" />
<use xlink:href="#f0_3" transform="matrix(12,0,0,12,555.1,614.8)" />
<use xlink:href="#f0_1e" transform="matrix(12,0,0,12,567.2,614.8)" />
<use xlink:href="#f0_1t" transform="matrix(12,0,0,12,86.8,714.4)" />
<use xlink:href="#f0_c" transform="matrix(12,0,0,12,100.5,714.4)" />
<use xlink:href="#f0_6" transform="matrix(12,0,0,12,105.6,714.4)" />
</g>
<g fill="#0000FF" >
<use xlink:href="#f0_17" transform="matrix(12,0,0,12,118.7,714.4)" />
<use xlink:href="#f1_w" transform="matrix(12,0,0,12,137,714.4)" />
</g>
<g fill="#000000" >
<use xlink:href="#f0_6" transform="matrix(12,0,0,12,157.7,714.4)" />
<use xlink:href="#f0_d" transform="matrix(12,0,0,12,164.9,714.4)" />
<use xlink:href="#f0_g" transform="matrix(12,0,0,12,181.8,714.4)" />
<use xlink:href="#f0_k" transform="matrix(12,0,0,12,189.3,714.4)" />
<use xlink:href="#f0_e" transform="matrix(12,0,0,12,200.9,714.4)" />
<use xlink:href="#f0_6" transform="matrix(12,0,0,12,218.5,714.4)" />
<use xlink:href="#f0_7" transform="matrix(12,0,0,12,225.6,714.4)" />
<use xlink:href="#f0_a" transform="matrix(12,0,0,12,237.3,714.4)" />
<use xlink:href="#f0_8" transform="matrix(12,0,0,12,254.4,714.4)" />
<use xlink:href="#f0_s" transform="matrix(12,0,0,12,265.7,714.4)" />
<use xlink:href="#f0_s" transform="matrix(12,0,0,12,277.3,714.4)" />
<use xlink:href="#f0_l" transform="matrix(12,0,0,12,288.9,714.4)" />
<use xlink:href="#f0_19" transform="matrix(12,0,0,12,300.5,714.4)" />
<use xlink:href="#f0_e" transform="matrix(12,0,0,12,305.8,714.4)" />
<use xlink:href="#f0_8" transform="matrix(12,0,0,12,323.4,714.4)" />
<use xlink:href="#f0_h" transform="matrix(12,0,0,12,340.5,714.4)" />
<use xlink:href="#f0_a" transform="matrix(12,0,0,12,346.9,714.4)" />
<use xlink:href="#f0_n" transform="matrix(12,0,0,12,358.2,714.4)" />
<use xlink:href="#f0_u" transform="matrix(12,0,0,12,379,714.4)" />
<use xlink:href="#f0_d" transform="matrix(12,0,0,12,396.9,714.4)" />
<use xlink:href="#f0_u" transform="matrix(12,0,0,12,408,714.4)" />
<use xlink:href="#f0_a" transform="matrix(12,0,0,12,425.9,714.4)" />
<use xlink:href="#f0_e" transform="matrix(12,0,0,12,437.2,714.4)" />
<use xlink:href="#f0_6" transform="matrix(12,0,0,12,448.8,714.4)" />
<use xlink:href="#f0_9" transform="matrix(12,0,0,12,455.9,714.4)" />
<use xlink:href="#f0_p" transform="matrix(12,0,0,12,471.4,714.4)" />
<use xlink:href="#f0_d" transform="matrix(12,0,0,12,482.2,714.4)" />
<use xlink:href="#f0_k" transform="matrix(12,0,0,12,493.3,714.4)" />
<use xlink:href="#f0_9" transform="matrix(12,0,0,12,510.9,714.4)" />
<use xlink:href="#f0_7" transform="matrix(12,0,0,12,520.4,714.4)" />
<use xlink:href="#f0_d" transform="matrix(12,0,0,12,532,714.4)" />
<use xlink:href="#f0_k" transform="matrix(12,0,0,12,543.1,714.4)" />
<use xlink:href="#f0_o" transform="matrix(12,0,0,12,554.9,714.4)" />
<use xlink:href="#f0_f" transform="matrix(12,0,0,12,559.9,714.4)" />
<use xlink:href="#f0_9" transform="matrix(12,0,0,12,577.5,714.4)" />
<use xlink:href="#f0_a" transform="matrix(12,0,0,12,587,714.4)" />
<use xlink:href="#f0_a" transform="matrix(12,0,0,12,598.3,714.4)" />
<use xlink:href="#f0_p" transform="matrix(12,0,0,12,615.4,714.4)" />
<use xlink:href="#f0_d" transform="matrix(12,0,0,12,626.2,714.4)" />
<use xlink:href="#f0_k" transform="matrix(12,0,0,12,637.3,714.4)" />
<use xlink:href="#f0_g" transform="matrix(12,0,0,12,648.9,714.4)" />
<use xlink:href="#f0_8" transform="matrix(12,0,0,12,662.4,714.4)" />
<use xlink:href="#f0_s" transform="matrix(12,0,0,12,673.7,714.4)" />
<use xlink:href="#f0_s" transform="matrix(12,0,0,12,685.3,714.4)" />
<use xlink:href="#f0_g" transform="matrix(12,0,0,12,702.7,714.4)" />
<use xlink:href="#f0_k" transform="matrix(12,0,0,12,710.2,714.4)" />
<use xlink:href="#f0_e" transform="matrix(12,0,0,12,721.8,714.4)" />
<use xlink:href="#f0_e" transform="matrix(12,0,0,12,733.4,714.4)" />
<use xlink:href="#f0_c" transform="matrix(12,0,0,12,745,714.4)" />
<use xlink:href="#f0_e" transform="matrix(12,0,0,12,750,714.4)" />
<use xlink:href="#f0_q" transform="matrix(12,0,0,12,761.8,714.4)" />
<use xlink:href="#f0_d" transform="matrix(12,0,0,12,779.2,714.4)" />
<use xlink:href="#f0_e" transform="matrix(12,0,0,12,790.3,714.4)" />
<use xlink:href="#f0_p" transform="matrix(12,0,0,12,86.8,743.1)" />
<use xlink:href="#f0_d" transform="matrix(12,0,0,12,97.6,743.1)" />
<use xlink:href="#f0_k" transform="matrix(12,0,0,12,108.8,743.1)" />
<use xlink:href="#f0_g" transform="matrix(12,0,0,12,120.5,743.1)" />
<use xlink:href="#f0_f" transform="matrix(12,0,0,12,133.8,743.1)" />
<use xlink:href="#f0_a" transform="matrix(12,0,0,12,145.4,743.1)" />
<use xlink:href="#f0_t" transform="matrix(12,0,0,12,156.7,743.1)" />
<use xlink:href="#f0_c" transform="matrix(12,0,0,12,167.5,743.1)" />
<use xlink:href="#f0_b" transform="matrix(12,0,0,12,172.6,743.1)" />
<use xlink:href="#f0_a" transform="matrix(12,0,0,12,182.6,743.1)" />
<use xlink:href="#f0_1q" transform="matrix(12,0,0,12,193.9,743.1)" />
<use xlink:href="#f0_10" transform="matrix(12,0,0,12,86.8,771.7)" />
<use xlink:href="#f0_a" transform="matrix(12,0,0,12,100.5,771.7)" />
<use xlink:href="#f0_1h" transform="matrix(12,0,0,12,111.5,771.7)" />
<use xlink:href="#f0_6" transform="matrix(12,0,0,12,122.3,771.7)" />
<use xlink:href="#f0_4" transform="matrix(12,0,0,12,129.5,771.7)" />
<use xlink:href="#f0_p" transform="matrix(12,0,0,12,141.2,771.7)" />
<use xlink:href="#f0_d" transform="matrix(12,0,0,12,152,771.7)" />
<use xlink:href="#f0_k" transform="matrix(12,0,0,12,163.1,771.7)" />
<use xlink:href="#f0_e" transform="matrix(12,0,0,12,180.7,771.7)" />
<use xlink:href="#f0_a" transform="matrix(12,0,0,12,192.3,771.7)" />
<use xlink:href="#f0_a" transform="matrix(12,0,0,12,203.6,771.7)" />
<use xlink:href="#f0_f" transform="matrix(12,0,0,12,214.9,771.7)" />
<use xlink:href="#f0_6" transform="matrix(12,0,0,12,232.3,771.7)" />
<use xlink:href="#f0_d" transform="matrix(12,0,0,12,239.5,771.7)" />
<use xlink:href="#f0_i" transform="matrix(12,0,0,12,256.6,771.7)" />
<use xlink:href="#f0_e" transform="matrix(12,0,0,12,267.1,771.7)" />
<use xlink:href="#f0_d" transform="matrix(12,0,0,12,278.7,771.7)" />
<use xlink:href="#f0_n" transform="matrix(12,0,0,12,289.9,771.7)" />
<use xlink:href="#f0_7" transform="matrix(12,0,0,12,310.8,771.7)" />
<use xlink:href="#f0_d" transform="matrix(12,0,0,12,322.4,771.7)" />
<use xlink:href="#f0_n" transform="matrix(12,0,0,12,333.5,771.7)" />
<use xlink:href="#f0_6" transform="matrix(12,0,0,12,354.5,771.7)" />
<use xlink:href="#f0_d" transform="matrix(12,0,0,12,361.6,771.7)" />
<use xlink:href="#f0_9" transform="matrix(12,0,0,12,378.6,771.7)" />
<use xlink:href="#f0_k" transform="matrix(12,0,0,12,388.2,771.7)" />
<use xlink:href="#f0_x" transform="matrix(12,0,0,12,399.8,771.7)" />
<use xlink:href="#f0_u" transform="matrix(12,0,0,12,411.4,771.7)" />
<use xlink:href="#f0_c" transform="matrix(12,0,0,12,429.3,771.7)" />
<use xlink:href="#f0_6" transform="matrix(12,0,0,12,434.3,771.7)" />
<use xlink:href="#f0_8" transform="matrix(12,0,0,12,447.4,771.7)" />
<use xlink:href="#f0_e" transform="matrix(12,0,0,12,458.6,771.7)" />
<use xlink:href="#f0_8" transform="matrix(12,0,0,12,476,771.7)" />
<use xlink:href="#f0_s" transform="matrix(12,0,0,12,487.3,771.7)" />
<use xlink:href="#f0_s" transform="matrix(12,0,0,12,498.9,771.7)" />
<use xlink:href="#f0_6" transform="matrix(12,0,0,12,516.3,771.7)" />
<use xlink:href="#f0_d" transform="matrix(12,0,0,12,523.5,771.7)" />
<use xlink:href="#f0_1k" transform="matrix(12,0,0,12,540.6,771.7)" />
<use xlink:href="#f0_s" transform="matrix(12,0,0,12,553.1,771.7)" />
<use xlink:href="#f0_s" transform="matrix(12,0,0,12,564.7,771.7)" />
<use xlink:href="#f0_o" transform="matrix(12,0,0,12,576.4,771.7)" />
<use xlink:href="#f0_a" transform="matrix(12,0,0,12,581.4,771.7)" />
<use xlink:href="#f0_h" transform="matrix(12,0,0,12,598.6,771.7)" />
<use xlink:href="#f0_d" transform="matrix(12,0,0,12,605.1,771.7)" />
<use xlink:href="#f0_g" transform="matrix(12,0,0,12,616.2,771.7)" />
<use xlink:href="#f0_8" transform="matrix(12,0,0,12,629.6,771.7)" />
<use xlink:href="#f0_s" transform="matrix(12,0,0,12,640.9,771.7)" />
<use xlink:href="#f0_s" transform="matrix(12,0,0,12,652.5,771.7)" />
<use xlink:href="#f0_g" transform="matrix(12,0,0,12,664.1,771.7)" />
<use xlink:href="#f0_d" transform="matrix(12,0,0,12,671.2,771.7)" />
<use xlink:href="#f0_t" transform="matrix(12,0,0,12,682.3,771.7)" />
<use xlink:href="#f0_8" transform="matrix(12,0,0,12,693.2,771.7)" />
<use xlink:href="#f0_o" transform="matrix(12,0,0,12,704.4,771.7)" />
<use xlink:href="#f0_l" transform="matrix(12,0,0,12,709.5,771.7)" />
<use xlink:href="#f0_1u" transform="matrix(12,0,0,12,721.2,771.7)" />
<use xlink:href="#f0_d" transform="matrix(12,0,0,12,731.2,771.7)" />
<use xlink:href="#f0_g" transform="matrix(12,0,0,12,742.3,771.7)" />
<use xlink:href="#f0_6" transform="matrix(12,0,0,12,755.8,771.7)" />
<use xlink:href="#f0_7" transform="matrix(12,0,0,12,762.9,771.7)" />
<use xlink:href="#f0_c" transform="matrix(12,0,0,12,774.6,771.7)" />
<use xlink:href="#f0_9" transform="matrix(12,0,0,12,779.6,771.7)" />
<use xlink:href="#f0_4" transform="matrix(12,0,0,12,789.2,771.7)" />
<use xlink:href="#f0_p" transform="matrix(12,0,0,12,86.8,800.4)" />
<use xlink:href="#f0_d" transform="matrix(12,0,0,12,97.6,800.4)" />
<use xlink:href="#f0_k" transform="matrix(12,0,0,12,108.8,800.4)" />
<use xlink:href="#f0_r" transform="matrix(12,0,0,12,120.4,800.4)" />
<use xlink:href="#f0_o" transform="matrix(12,0,0,12,126.3,800.4)" />
<use xlink:href="#f0_o" transform="matrix(12,0,0,12,131.3,800.4)" />
<use xlink:href="#f0_7" transform="matrix(12,0,0,12,142.3,800.4)" />
<use xlink:href="#f0_8" transform="matrix(12,0,0,12,153.8,800.4)" />
<use xlink:href="#f0_t" transform="matrix(12,0,0,12,165.1,800.4)" />
<use xlink:href="#f0_a" transform="matrix(12,0,0,12,175.9,800.4)" />
<use xlink:href="#f0_6" transform="matrix(12,0,0,12,193,800.4)" />
<use xlink:href="#f0_d" transform="matrix(12,0,0,12,200.2,800.4)" />
<use xlink:href="#f0_k" transform="matrix(12,0,0,12,217.3,800.4)" />
<use xlink:href="#f0_9" transform="matrix(12,0,0,12,228.9,800.4)" />
<use xlink:href="#f0_a" transform="matrix(12,0,0,12,238.4,800.4)" />
<use xlink:href="#f0_c" transform="matrix(12,0,0,12,255.6,800.4)" />
<use xlink:href="#f0_w" transform="matrix(12,0,0,12,260.7,800.4)" />
<use xlink:href="#f0_k" transform="matrix(12,0,0,12,269.1,800.4)" />
<use xlink:href="#f0_e" transform="matrix(12,0,0,12,280.7,800.4)" />
<use xlink:href="#f0_a" transform="matrix(12,0,0,12,292.3,800.4)" />
<use xlink:href="#f0_9" transform="matrix(12,0,0,12,303.6,800.4)" />
<use xlink:href="#f0_1f" transform="matrix(12,0,0,12,319,800.4)" />
<use xlink:href="#f0_d" transform="matrix(12,0,0,12,331.8,800.4)" />
<use xlink:href="#f0_e" transform="matrix(12,0,0,12,342.9,800.4)" />
<use xlink:href="#f0_e" transform="matrix(12,0,0,12,354.6,800.4)" />
<use xlink:href="#f0_a" transform="matrix(12,0,0,12,366.2,800.4)" />
<use xlink:href="#f0_b" transform="matrix(12,0,0,12,377.5,800.4)" />
<use xlink:href="#f0_6" transform="matrix(12,0,0,12,387.5,800.4)" />
<use xlink:href="#f0_l" transform="matrix(12,0,0,12,394.7,800.4)" />
</g>
</g>
<path fill-rule="evenodd" d="M86.6,899.9H341.5V865.2H86.6v34.7Z" class="g0_10" />
<g clip-path="url(#c0_10)">
<g fill="#006837" >
<use xlink:href="#f1_5" transform="matrix(19.5,0,0,19.5,86.8,892.8)" />
<use xlink:href="#f1_10" transform="matrix(19.5,0,0,19.5,97,892.8)" />
<use xlink:href="#f1_o" transform="matrix(19.5,0,0,19.5,114.1,892.8)" />
<use xlink:href="#f1_6" transform="matrix(19.5,0,0,19.5,135.2,892.8)" />
<use xlink:href="#f1_3" transform="matrix(19.5,0,0,19.5,156.4,892.8)" />
<use xlink:href="#f1_k" transform="matrix(19.5,0,0,19.5,176.6,892.8)" />
<use xlink:href="#f1_12" transform="matrix(19.5,0,0,19.5,204.8,892.8)" />
<use xlink:href="#f1_g" transform="matrix(19.5,0,0,19.5,226.6,892.8)" />
<use xlink:href="#f1_6" transform="matrix(19.5,0,0,19.5,247.1,892.8)" />
<use xlink:href="#f1_6" transform="matrix(19.5,0,0,19.5,268.2,892.8)" />
<use xlink:href="#f1_3" transform="matrix(19.5,0,0,19.5,289.4,892.8)" />
<use xlink:href="#f1_f" transform="matrix(19.5,0,0,19.5,309.6,892.8)" />
<use xlink:href="#f1_4" transform="matrix(19.5,0,0,19.5,327.3,892.8)" />
</g>
<g fill="#000000" >
<use xlink:href="#f0_10" transform="matrix(12,0,0,12,86.8,933.3)" />
<use xlink:href="#f0_d" transform="matrix(12,0,0,12,100.5,933.3)" />
<use xlink:href="#f0_n" transform="matrix(12,0,0,12,111.7,933.3)" />
<use xlink:href="#f0_c" transform="matrix(12,0,0,12,132.6,933.3)" />
<use xlink:href="#f0_6" transform="matrix(12,0,0,12,137.6,933.3)" />
<use xlink:href="#f0_r" transform="matrix(12,0,0,12,144.8,933.3)" />
<use xlink:href="#f0_9" transform="matrix(12,0,0,12,150.6,933.3)" />
<use xlink:href="#f0_6" transform="matrix(12,0,0,12,166,933.3)" />
<use xlink:href="#f0_c" transform="matrix(12,0,0,12,173.2,933.3)" />
<use xlink:href="#f0_u" transform="matrix(12,0,0,12,178.3,933.3)" />
<use xlink:href="#f0_a" transform="matrix(12,0,0,12,196.1,933.3)" />
<use xlink:href="#f0_6" transform="matrix(12,0,0,12,213.2,933.3)" />
<use xlink:href="#f0_d" transform="matrix(12,0,0,12,220.4,933.3)" />
<use xlink:href="#f0_q" transform="matrix(12,0,0,12,237.5,933.3)" />
<use xlink:href="#f0_a" transform="matrix(12,0,0,12,249.1,933.3)" />
<use xlink:href="#f0_6" transform="matrix(12,0,0,12,260.4,933.3)" />
<use xlink:href="#f0_6" transform="matrix(12,0,0,12,273.4,933.3)" />
<use xlink:href="#f0_d" transform="matrix(12,0,0,12,280.6,933.3)" />
<use xlink:href="#f0_i" transform="matrix(12,0,0,12,297.7,933.3)" />
<use xlink:href="#f0_e" transform="matrix(12,0,0,12,308.4,933.3)" />
<use xlink:href="#f0_d" transform="matrix(12,0,0,12,320,933.3)" />
<use xlink:href="#f0_n" transform="matrix(12,0,0,12,331.1,933.3)" />
<use xlink:href="#f0_c" transform="matrix(12,0,0,12,351.9,933.3)" />
<use xlink:href="#f0_w" transform="matrix(12,0,0,12,357,933.3)" />
<use xlink:href="#f0_k" transform="matrix(12,0,0,12,365.4,933.3)" />
<use xlink:href="#f0_e" transform="matrix(12,0,0,12,377,933.3)" />
<use xlink:href="#f0_a" transform="matrix(12,0,0,12,388.6,933.3)" />
<use xlink:href="#f0_9" transform="matrix(12,0,0,12,399.9,933.3)" />
<use xlink:href="#f0_1f" transform="matrix(12,0,0,12,415.3,933.3)" />
<use xlink:href="#f0_d" transform="matrix(12,0,0,12,428.1,933.3)" />
<use xlink:href="#f0_e" transform="matrix(12,0,0,12,439.2,933.3)" />
<use xlink:href="#f0_e" transform="matrix(12,0,0,12,450.8,933.3)" />
<use xlink:href="#f0_a" transform="matrix(12,0,0,12,462.4,933.3)" />
<use xlink:href="#f0_b" transform="matrix(12,0,0,12,473.7,933.3)" />
<use xlink:href="#f0_6" transform="matrix(12,0,0,12,483.8,933.3)" />
<use xlink:href="#f0_l" transform="matrix(12,0,0,12,491,933.3)" />
<use xlink:href="#f0_1v" transform="matrix(12,0,0,12,502.7,933.3)" />
<use xlink:href="#f0_d" transform="matrix(12,0,0,12,516.9,933.3)" />
<use xlink:href="#f0_6" transform="matrix(12,0,0,12,534,933.3)" />
<use xlink:href="#f0_d" transform="matrix(12,0,0,12,541.2,933.3)" />
<use xlink:href="#f0_1e" transform="matrix(12,0,0,12,552.4,933.3)" />
</g>
<g fill="#0000FF" >
<use xlink:href="#f0_7" transform="matrix(12,0,0,12,86.8,962)" />
<use xlink:href="#f0_6" transform="matrix(12,0,0,12,98.4,962)" />
<use xlink:href="#f0_6" transform="matrix(12,0,0,12,105.6,962)" />
<use xlink:href="#f0_s" transform="matrix(12,0,0,12,112.8,962)" />
<use xlink:href="#f0_9" transform="matrix(12,0,0,12,124.4,962)" />
<use xlink:href="#f0_1e" transform="matrix(12,0,0,12,134,962)" />
<use xlink:href="#f0_1w" transform="matrix(12,0,0,12,140.2,962)" />
<use xlink:href="#f0_1w" transform="matrix(12,0,0,12,146.3,962)" />
<use xlink:href="#f0_f" transform="matrix(12,0,0,12,152.4,962)" />
<use xlink:href="#f0_a" transform="matrix(12,0,0,12,164,962)" />
<use xlink:href="#f0_t" transform="matrix(12,0,0,12,175.3,962)" />
<use xlink:href="#f0_a" transform="matrix(12,0,0,12,186.2,962)" />
<use xlink:href="#f0_o" transform="matrix(12,0,0,12,197.5,962)" />
<use xlink:href="#f0_d" transform="matrix(12,0,0,12,202.6,962)" />
<use xlink:href="#f0_s" transform="matrix(12,0,0,12,213.8,962)" />
<use xlink:href="#f0_a" transform="matrix(12,0,0,12,225.4,962)" />
<use xlink:href="#f0_g" transform="matrix(12,0,0,12,236.7,962)" />
<use xlink:href="#f0_l" transform="matrix(12,0,0,12,242.5,962)" />
<use xlink:href="#f0_8" transform="matrix(12,0,0,12,248.3,962)" />
<use xlink:href="#f0_s" transform="matrix(12,0,0,12,259.6,962)" />
<use xlink:href="#f0_s" transform="matrix(12,0,0,12,271.2,962)" />
<use xlink:href="#f0_o" transform="matrix(12,0,0,12,282.8,962)" />
<use xlink:href="#f0_a" transform="matrix(12,0,0,12,287.8,962)" />
<use xlink:href="#f0_l" transform="matrix(12,0,0,12,299.1,962)" />
<use xlink:href="#f0_b" transform="matrix(12,0,0,12,304.9,962)" />
<use xlink:href="#f0_d" transform="matrix(12,0,0,12,315.2,962)" />
<use xlink:href="#f0_u" transform="matrix(12,0,0,12,326.3,962)" />
<use xlink:href="#f0_1w" transform="matrix(12,0,0,12,344.2,962)" />
<use xlink:href="#f0_u" transform="matrix(12,0,0,12,350.3,962)" />
<use xlink:href="#f0_a" transform="matrix(12,0,0,12,368.1,962)" />
<use xlink:href="#f0_u" transform="matrix(12,0,0,12,379.4,962)" />
<use xlink:href="#f0_x" transform="matrix(12,0,0,12,397.3,962)" />
<use xlink:href="#f0_a" transform="matrix(12,0,0,12,408.9,962)" />
<use xlink:href="#f0_g" transform="matrix(12,0,0,12,420.2,962)" />
<use xlink:href="#f0_b" transform="matrix(12,0,0,12,427.2,962)" />
<use xlink:href="#f0_a" transform="matrix(12,0,0,12,437.3,962)" />
<use xlink:href="#f0_e" transform="matrix(12,0,0,12,448.5,962)" />
<use xlink:href="#f0_6" transform="matrix(12,0,0,12,460.2,962)" />
<use xlink:href="#f0_a" transform="matrix(12,0,0,12,467.3,962)" />
<use xlink:href="#f0_g" transform="matrix(12,0,0,12,478.6,962)" />
</g>
</g>
<path d="M86.6,963.9H486.3m.1,0h5.8" class="g1_10" />
<g clip-path="url(#c0_10)">
<g fill="#000000" >
<use xlink:href="#f0_8" transform="matrix(12,0,0,12,492.4,962)" />
<use xlink:href="#f0_e" transform="matrix(12,0,0,12,503.5,962)" />
<use xlink:href="#f0_f" transform="matrix(12,0,0,12,515.2,962)" />
<use xlink:href="#f0_o" transform="matrix(12,0,0,12,532.7,962)" />
<use xlink:href="#f0_d" transform="matrix(12,0,0,12,537.8,962)" />
<use xlink:href="#f0_q" transform="matrix(12,0,0,12,548.9,962)" />
<use xlink:href="#f0_c" transform="matrix(12,0,0,12,566.5,962)" />
<use xlink:href="#f0_e" transform="matrix(12,0,0,12,571.5,962)" />
<use xlink:href="#f0_n" transform="matrix(12,0,0,12,588.9,962)" />
<use xlink:href="#f0_c" transform="matrix(12,0,0,12,603.9,962)" />
<use xlink:href="#f0_6" transform="matrix(12,0,0,12,608.9,962)" />
<use xlink:href="#f0_7" transform="matrix(12,0,0,12,616.3,962)" />
<use xlink:href="#f0_p" transform="matrix(12,0,0,12,633.7,962)" />
<use xlink:href="#f0_d" transform="matrix(12,0,0,12,644.5,962)" />
<use xlink:href="#f0_k" transform="matrix(12,0,0,12,655.7,962)" />
<use xlink:href="#f0_g" transform="matrix(12,0,0,12,667.4,962)" />
<use xlink:href="#f0_c" transform="matrix(12,0,0,12,680.7,962)" />
<use xlink:href="#f0_2" transform="matrix(12,0,0,12,685.7,962)" />
<use xlink:href="#f0_18" transform="matrix(12,0,0,12,700.2,962)" />
<use xlink:href="#f0_15" transform="matrix(12,0,0,12,717.7,962)" />
<use xlink:href="#f0_a" transform="matrix(12,0,0,12,731.7,962)" />
<use xlink:href="#f0_t" transform="matrix(12,0,0,12,743,962)" />
<use xlink:href="#f0_a" transform="matrix(12,0,0,12,753.9,962)" />
<use xlink:href="#f0_o" transform="matrix(12,0,0,12,765.1,962)" />
<use xlink:href="#f0_d" transform="matrix(12,0,0,12,770.3,962)" />
<use xlink:href="#f0_s" transform="matrix(12,0,0,12,781.5,962)" />
<use xlink:href="#f0_a" transform="matrix(12,0,0,12,793.1,962)" />
<use xlink:href="#f0_g" transform="matrix(12,0,0,12,804.4,962)" />
<use xlink:href="#f0_b" transform="matrix(12,0,0,12,86.8,990.6)" />
<use xlink:href="#f0_g" transform="matrix(12,0,0,12,96.8,990.6)" />
<use xlink:href="#f0_a" transform="matrix(12,0,0,12,103.9,990.6)" />
<use xlink:href="#f0_f" transform="matrix(12,0,0,12,115.2,990.6)" />
<use xlink:href="#f0_a" transform="matrix(12,0,0,12,126.8,990.6)" />
<use xlink:href="#f0_e" transform="matrix(12,0,0,12,138.1,990.6)" />
<use xlink:href="#f0_6" transform="matrix(12,0,0,12,149.7,990.6)" />
<use xlink:href="#f0_c" transform="matrix(12,0,0,12,157,990.6)" />
<use xlink:href="#f0_8" transform="matrix(12,0,0,12,162,990.6)" />
<use xlink:href="#f0_o" transform="matrix(12,0,0,12,173.3,990.6)" />
<use xlink:href="#f0_9" transform="matrix(12,0,0,12,178.4,990.6)" />
<use xlink:href="#f0_l" transform="matrix(12,0,0,12,188,990.6)" />
<use xlink:href="#f0_1f" transform="matrix(12,0,0,12,86.8,1019.3)" />
<use xlink:href="#f0_o" transform="matrix(12,0,0,12,99.6,1019.3)" />
<use xlink:href="#f0_c" transform="matrix(12,0,0,12,104.6,1019.3)" />
<use xlink:href="#f0_b" transform="matrix(12,0,0,12,109.7,1019.3)" />
<use xlink:href="#f0_i" transform="matrix(12,0,0,12,119.7,1019.3)" />
</g>
<g fill="#0000FF" >
<use xlink:href="#f1_5" transform="matrix(12,0,0,12,136.3,1019.3)" />
<use xlink:href="#f1_10" transform="matrix(12,0,0,12,142.5,1019.3)" />
<use xlink:href="#f1_o" transform="matrix(12,0,0,12,153.1,1019.3)" />
<use xlink:href="#f1_6" transform="matrix(12,0,0,12,166.1,1019.3)" />
<use xlink:href="#f1_3" transform="matrix(12,0,0,12,179.2,1019.3)" />
<use xlink:href="#f1_k" transform="matrix(12,0,0,12,191.6,1019.3)" />
<use xlink:href="#f1_12" transform="matrix(12,0,0,12,209,1019.3)" />
<use xlink:href="#f1_g" transform="matrix(12,0,0,12,222.4,1019.3)" />
<use xlink:href="#f1_6" transform="matrix(12,0,0,12,234.9,1019.3)" />
<use xlink:href="#f1_6" transform="matrix(12,0,0,12,247.9,1019.3)" />
<use xlink:href="#f1_3" transform="matrix(12,0,0,12,261,1019.3)" />
<use xlink:href="#f1_f" transform="matrix(12,0,0,12,273.4,1019.3)" />
<use xlink:href="#f1_4" transform="matrix(12,0,0,12,284.2,1019.3)" />
</g>
<g fill="#000000" >
<use xlink:href="#f0_1e" transform="matrix(12,0,0,12,293.2,1019.3)" />
</g>
</g>
<image preserveAspectRatio="none" x="110" y="87" width="690" height="368" xlink:href="img/1.png" />
<image preserveAspectRatio="none" x="87" y="619" width="736" height="50" xlink:href="img/2.png" />
<defs>
<path d="M150,0V1114H300V0Z" 
id="f0_19"
transform="scale(0.001,-0.001)" />

<path d="M139,0V836H277V706c0,0,49,75,116,112c0,0,67,38,154,38c0,0,144,0,218,-90c0,0,74,-89,74,-262V0H702V500c0,0,0,119,-46,177c0,0,-47,59,-139,59c0,0,-112,0,-176,-71c0,0,-64,-70,-64,-193V0Z" 
id="f0_e"
transform="scale(0.001,-0.001)" />

<path d="M421,0C421,0,263,0,202,59c0,0,-60,60,-60,217V729H41V836H142v238H280V836H562V729H280V276c0,0,0,-102,28,-132c0,0,28,-29,113,-29H562V0Z" 
id="f0_6"
transform="scale(0.001,-0.001)" />

<path d="M139,0V1161H277V706c0,0,49,75,116,112c0,0,67,38,154,38c0,0,144,0,218,-90c0,0,74,-89,74,-262V0H702V500c0,0,0,119,-46,177c0,0,-47,59,-139,59c0,0,-112,0,-176,-71c0,0,-64,-70,-64,-193V0Z" 
id="f0_7"
transform="scale(0.001,-0.001)" />

<path d="M144,0V836H281V0Zm0,987v174H281V987Z" 
id="f0_c"
transform="scale(0.001,-0.001)" />

<path d="M376,-20c0,0,-67,0,-140,12C236,-8,164,4,83,30V172c0,0,76,-40,150,-59c0,0,74,-20,146,-20c0,0,97,0,150,33c0,0,52,33,52,94c0,0,0,56,-38,85c0,0,-38,30,-165,58l-48,11c0,0,-128,27,-184,83c0,0,-57,55,-57,152c0,0,0,118,83,182c0,0,84,65,238,65c0,0,76,0,143,-12c0,0,67,-11,124,-33V681c0,0,-58,29,-121,44c0,0,-63,15,-130,15c0,0,-102,0,-153,-31c0,0,-51,-31,-51,-94c0,0,0,-48,37,-75c0,0,36,-27,147,-52l46,-10c0,0,147,-32,208,-89c0,0,62,-57,62,-159c0,0,0,-116,-93,-184c0,0,-92,-66,-253,-66Z" 
id="f0_9"
transform="scale(0.001,-0.001)" />

<path d="M231,492l491,1c0,0,-2,112,-64,179c0,0,-61,67,-163,67c0,0,-115,0,-184,-65c0,0,-69,-64,-80,-182ZM517,-20c0,0,-199,0,-316,115C201,95,84,211,84,410c0,0,0,205,111,325c0,0,111,121,299,121c0,0,168,0,266,-109c0,0,98,-108,98,-295V385H227c0,0,9,-142,85,-216c0,0,77,-74,213,-74c0,0,80,0,154,19c0,0,74,19,147,58V42C826,42,752,11,675,-4c0,0,-78,-16,-158,-16Z" 
id="f0_a"
transform="scale(0.001,-0.001)" />

<path d="M44,0L369,437L71,836H233L455,538L677,836H839L537,429L855,0H693L449,328L206,0Z" 
id="f0_1h"
transform="scale(0.001,-0.001)" />

<path d="M408,93c0,0,115,0,184,81c0,0,69,81,69,215v30H524c0,0,-167,0,-231,-38c0,0,-64,-38,-64,-129c0,0,0,-73,48,-116c0,0,48,-43,131,-43ZM372,-20c0,0,-128,0,-204,70c0,0,-76,72,-76,193c0,0,0,141,94,212c0,0,95,72,282,72H661v13c0,0,0,95,-62,147c0,0,-63,52,-175,52c0,0,-72,0,-140,-17c0,0,-68,-17,-130,-51V798c0,0,75,29,146,43c0,0,71,15,138,15c0,0,181,0,270,-95c0,0,90,-94,90,-285V0H661V127C661,127,614,51,544,15c0,0,-70,-35,-172,-35Z" 
id="f0_8"
transform="scale(0.001,-0.001)" />

<path d="M139,0V836H277V706c0,0,47,77,112,113c0,0,66,37,156,37c0,0,91,0,155,-47c0,0,64,-46,94,-134c0,0,52,93,123,137c0,0,72,44,169,44c0,0,130,0,201,-92c0,0,71,-91,71,-260V0H1220V500c0,0,0,120,-42,178c0,0,-43,58,-130,58c0,0,-107,0,-169,-71c0,0,-62,-70,-62,-193V0H680V500c0,0,0,121,-43,179c0,0,-42,57,-131,57c0,0,-105,0,-167,-71c0,0,-62,-71,-62,-193V0Z" 
id="f0_u"
transform="scale(0.001,-0.001)" />

<path d="M510,93c0,0,109,0,171,86c0,0,62,86,62,238c0,0,0,151,-62,237c0,0,-62,86,-171,86c0,0,-109,0,-171,-86c0,0,-62,-86,-62,-237c0,0,0,-152,62,-238c0,0,62,-86,171,-86ZM139,-317V836H277V709c0,0,43,74,109,110c0,0,66,37,158,37c0,0,152,0,247,-121c0,0,95,-121,95,-318c0,0,0,-197,-95,-318C791,99,696,-20,544,-20c0,0,-92,0,-158,35c0,0,-66,36,-109,110V-317Z" 
id="f0_s"
transform="scale(0.001,-0.001)" />

<path d="M144,0V1161H281V0Z" 
id="f0_o"
transform="scale(0.001,-0.001)" />

<path d="M117,-176L179,62V190H336V62L213,-176Z" 
id="f0_4"
transform="scale(0.001,-0.001)" />

<path d="M542,124c0,0,121,0,180,50c0,0,58,51,58,154c0,0,0,105,-58,154c0,0,-59,50,-180,50H300V124ZM523,654c0,0,111,0,165,41c0,0,54,42,54,127c0,0,0,84,-54,126c0,0,-54,42,-165,42H300V654ZM150,0V1114H535c0,0,172,0,265,-72c0,0,94,-72,94,-204c0,0,0,-102,-48,-162c0,0,-48,-61,-140,-76c0,0,111,-23,172,-99c0,0,62,-76,62,-189c0,0,0,-149,-102,-231C838,81,737,0,550,0Z" 
id="f0_m"
transform="scale(0.001,-0.001)" />

<path d="M424,-20c0,0,-145,0,-219,88c0,0,-75,89,-75,262V836H267V335c0,0,0,-119,46,-178c0,0,47,-59,139,-59c0,0,112,0,177,71c0,0,64,71,64,193V836H830V0H693V128C693,128,643,52,577,15c0,0,-66,-35,-153,-35Z" 
id="f0_k"
transform="scale(0.001,-0.001)" />

<path d="M460,93c0,0,109,0,171,86c0,0,63,86,63,238c0,0,0,151,-63,237c0,0,-62,86,-171,86c0,0,-109,0,-172,-86c0,0,-62,-86,-62,-237c0,0,0,-152,62,-238c0,0,63,-86,172,-86ZM426,-20c0,0,-151,0,-247,119c0,0,-95,121,-95,318c0,0,0,197,95,318c0,0,96,121,247,121c0,0,93,0,159,-37c0,0,66,-36,109,-110v452H831V0H694V125C694,125,651,51,585,15c0,0,-66,-35,-159,-35Z" 
id="f0_f"
transform="scale(0.001,-0.001)" />

<path d="M482,124c0,0,231,0,338,105c0,0,107,104,107,329c0,0,0,224,-107,328c0,0,-107,104,-338,104H300V124ZM150,0V1114H459c0,0,324,0,476,-135c0,0,151,-135,151,-421c0,0,0,-288,-152,-423C934,135,782,0,459,0Z" 
id="f0_15"
transform="scale(0.001,-0.001)" />

<path d="M510,93c0,0,109,0,171,86c0,0,62,86,62,238c0,0,0,151,-62,237c0,0,-62,86,-171,86c0,0,-109,0,-171,-86c0,0,-62,-86,-62,-237c0,0,0,-152,62,-238c0,0,62,-86,171,-86ZM544,-20c0,0,-92,0,-158,35c0,0,-66,36,-109,110V0H139V1161H277V709c0,0,43,74,109,110c0,0,66,37,158,37c0,0,152,0,247,-121c0,0,95,-121,95,-318c0,0,0,-197,-95,-318C791,99,696,-20,544,-20Z" 
id="f0_x"
transform="scale(0.001,-0.001)" />

<path d="M495,-20c0,0,-189,0,-300,117C195,97,84,216,84,417c0,0,0,204,112,321c0,0,113,118,308,118c0,0,64,0,124,-14c0,0,60,-13,117,-39V675c0,0,-58,32,-117,48c0,0,-58,16,-118,16c0,0,-133,0,-207,-84c0,0,-74,-85,-74,-238c0,0,0,-153,74,-238c0,0,74,-84,207,-84c0,0,60,0,118,16c0,0,59,16,117,48V32C745,32,688,5,626,-7c0,0,-61,-13,-131,-13Z" 
id="f0_b"
transform="scale(0.001,-0.001)" />

<path d="M121,-317v116h81c0,0,57,0,88,26c0,0,31,27,69,127l25,62L46,836H191L453,182L714,836H859L492,-76c0,0,-58,-150,-113,-195c0,0,-55,-46,-148,-46Z" 
id="f0_p"
transform="scale(0.001,-0.001)" />

<path d="M74,357V479H476V357Z" 
id="f0_j"
transform="scale(0.001,-0.001)" />

<path d="M163,0V190H321V0Z" 
id="f0_l"
transform="scale(0.001,-0.001)" />

<path d="M46,0L444,595L97,1114H259L536,700l278,414H976L618,579L999,0H837L524,474L209,0Z" 
id="f0_z"
transform="scale(0.001,-0.001)" />

<path d="M467,95c0,0,110,0,174,86c0,0,64,87,64,236c0,0,0,148,-64,235c0,0,-64,87,-174,87c0,0,-110,0,-174,-86c0,0,-64,-86,-64,-236c0,0,0,-150,64,-236c0,0,63,-86,174,-86Zm0,-115c0,0,-179,0,-281,115C186,95,84,212,84,417c0,0,0,206,102,322c0,0,102,117,281,117c0,0,179,0,282,-117c0,0,102,-116,102,-322c0,0,0,-205,-102,-322C749,95,646,-20,467,-20Z" 
id="f0_d"
transform="scale(0.001,-0.001)" />

<path d="M283,0L65,836H202L373,184L544,836H706L878,184l171,652h137L967,0H806L626,685L445,0Z" 
id="f0_n"
transform="scale(0.001,-0.001)" />

<path d="M460,115c0,0,111,0,173,82c0,0,61,82,61,230c0,0,0,149,-61,231c0,0,-62,82,-173,82c0,0,-111,0,-173,-82c0,0,-61,-82,-61,-231c0,0,0,-148,61,-230c0,0,62,-82,173,-82ZM446,-317c0,0,-72,0,-137,11c0,0,-64,11,-124,33v134c0,0,60,-33,119,-49c0,0,59,-15,121,-15c0,0,135,0,202,70c0,0,67,71,67,212v68C694,147,652,73,585,36C585,36,519,0,426,0C426,0,272,0,178,117c0,0,-94,117,-94,310c0,0,0,194,94,311c0,0,94,118,248,118c0,0,93,0,159,-37c0,0,67,-36,109,-110V836H831V104c0,0,0,-212,-95,-317c0,0,-94,-104,-290,-104Z" 
id="f0_q"
transform="scale(0.001,-0.001)" />

<path d="M139,0V1161H277V475L686,836H861L418,445L880,0H701L277,408V0Z" 
id="f0_i"
transform="scale(0.001,-0.001)" />

<path d="M139,0V836H277V706c0,0,43,76,112,113c0,0,70,37,169,37c0,0,14,0,31,-2c0,0,17,-2,38,-6l1,-141c0,0,-23,14,-51,20c0,0,-27,6,-60,6c0,0,-116,0,-178,-75c0,0,-62,-76,-62,-218V0Z" 
id="f0_g"
transform="scale(0.001,-0.001)" />

<path d="M166,0V729H35V836H166v58c0,0,0,139,65,203c0,0,65,64,206,64H567V1046H435c0,0,-74,0,-102,-29c0,0,-29,-30,-29,-107V836H530V729H304V0Z" 
id="f0_h"
transform="scale(0.001,-0.001)" />

<path d="M74,365V472H1453V365Z" 
id="f0_1a"
transform="scale(0.001,-0.001)" />

<path d="M520,172c0,0,86,0,131,63c0,0,45,63,45,182c0,0,0,119,-45,182c0,0,-45,63,-131,63c0,0,-85,0,-130,-63c0,0,-45,-63,-45,-182c0,0,0,-119,45,-182c0,0,45,-63,130,-63ZM421,-20c0,0,-154,0,-253,121C168,101,68,224,68,417c0,0,0,193,100,316c0,0,99,123,253,123c0,0,87,0,153,-35c0,0,67,-35,122,-108v448H965V0H696V121C696,121,641,47,575,13c0,0,-67,-33,-154,-33Z" 
id="f1_c"
transform="scale(0.001,-0.001)" />

<path d="M526,169c0,0,87,0,133,64c0,0,46,64,46,184c0,0,0,120,-46,184c0,0,-46,64,-133,64c0,0,-89,0,-135,-64c0,0,-47,-64,-47,-184c0,0,0,-120,47,-184c0,0,46,-64,135,-64Zm0,-189c0,0,-217,0,-339,115C187,95,66,211,66,417c0,0,0,206,121,322c0,0,122,117,339,117c0,0,215,0,336,-117c0,0,122,-116,122,-322c0,0,0,-206,-122,-322C862,95,741,-20,526,-20Z" 
id="f1_g"
transform="scale(0.001,-0.001)" />

<path d="M128,0V836H395V713c0,0,60,73,128,108c0,0,68,35,150,35c0,0,145,0,220,-89c0,0,75,-89,75,-258V0H699V389c0,0,0,109,-5,150c0,0,-5,41,-16,60c0,0,-16,26,-43,41c0,0,-27,14,-61,14c0,0,-84,0,-131,-64c0,0,-48,-65,-48,-179V0Z" 
id="f1_6"
transform="scale(0.001,-0.001)" />

<path d="M443,0C443,0,285,0,219,66c0,0,-66,66,-66,224V645H20V836H153v237H419V836H695V645H419V290c0,0,0,-58,24,-79c0,0,23,-20,91,-20H672V0Z" 
id="f1_4"
transform="scale(0.001,-0.001)" />

<path d="M97,639l74,262v213H424V901L256,639Z" 
id="f1_14"
transform="scale(0.001,-0.001)" />

<path d="M140,0V1114H915V897H427V689H886V472H427V0Z" 
id="f1_15"
transform="scale(0.001,-0.001)" />

<path d="M128,0V836H395V0Zm0,944v217H395V944Z" 
id="f1_5"
transform="scale(0.001,-0.001)" />

<path d="M23,0L340,428L38,836H321L492,588L665,836H948L647,429L963,0H680L492,264L306,0Z" 
id="f1_16"
transform="scale(0.001,-0.001)" />

<path d="M140,0V1114H427V0Z" 
id="f1_s"
transform="scale(0.001,-0.001)" />

<path d="M445,-20c0,0,-83,0,-171,12C274,-8,185,4,92,30V234c0,0,80,-39,164,-58c0,0,84,-20,170,-20c0,0,79,0,118,22c0,0,40,22,40,64c0,0,0,36,-28,53c0,0,-27,18,-108,27l-47,6c0,0,-179,23,-250,83c0,0,-72,61,-72,184c0,0,0,132,91,196c0,0,91,65,279,65c0,0,74,0,155,-12c0,0,82,-11,177,-34V606c0,0,-86,36,-165,54c0,0,-80,18,-151,18c0,0,-76,0,-113,-19c0,0,-37,-19,-37,-59c0,0,0,-32,28,-49c0,0,28,-17,100,-25l47,-7c0,0,205,-26,276,-86c0,0,71,-59,71,-187c0,0,0,-133,-98,-200c0,0,-99,-66,-294,-66Z" 
id="f1_k"
transform="scale(0.001,-0.001)" />

<path d="M415,-20c0,0,-144,0,-220,87c0,0,-76,89,-76,259V836H388V752c0,0,0,-67,-1,-170c0,0,0,-103,0,-137c0,0,0,-101,5,-145c0,0,5,-44,18,-65c0,0,16,-26,43,-40c0,0,26,-14,60,-14c0,0,84,0,132,64c0,0,47,64,47,178V836H959V0H692V121C692,121,632,48,564,13c0,0,-67,-33,-149,-33Z" 
id="f1_o"
transform="scale(0.001,-0.001)" />

<path d="M687,509c0,0,0,76,-44,122c0,0,-44,47,-116,47c0,0,-78,0,-126,-44c0,0,-49,-43,-61,-125ZM544,-20c0,0,-227,0,-353,114C191,94,66,209,66,417c0,0,0,204,123,321c0,0,123,118,340,118c0,0,197,0,315,-119c0,0,118,-118,118,-317V344H337c0,0,10,-94,68,-141c0,0,59,-47,163,-47c0,0,85,0,173,25c0,0,89,25,182,76V51C923,51,828,15,733,-2c0,0,-94,-18,-189,-18Z" 
id="f1_3"
transform="scale(0.001,-0.001)" />

<path d="M680,-20c0,0,-278,0,-441,154C239,134,76,290,76,556c0,0,0,267,163,423c0,0,163,155,441,155c0,0,93,0,179,-21c0,0,86,-21,165,-62V820c0,0,-80,55,-158,81c0,0,-77,25,-163,25c0,0,-154,0,-241,-98c0,0,-88,-99,-88,-272c0,0,0,-172,87,-271c0,0,88,-98,242,-98c0,0,86,0,163,25c0,0,78,26,158,80V61C1024,61,945,20,859,0c0,0,-86,-20,-179,-20Z" 
id="f1_12"
transform="scale(0.001,-0.001)" />

<path d="M463,156c0,0,75,0,127,54c0,0,51,54,51,135v30H502c0,0,-83,0,-125,-28c0,0,-43,-28,-43,-83c0,0,0,-50,34,-79c0,0,34,-29,95,-29ZM357,-20c0,0,-130,0,-211,74c0,0,-80,76,-80,197c0,0,0,147,101,215c0,0,101,69,317,69H641v21c0,0,0,63,-50,92c0,0,-49,30,-155,30c0,0,-86,0,-160,-17c0,0,-74,-18,-137,-52V813c0,0,86,21,172,32c0,0,86,11,173,11c0,0,226,0,326,-90c0,0,100,-89,100,-290V0H641V124C641,124,588,48,521,13c0,0,-68,-33,-164,-33Z" 
id="f1_a"
transform="scale(0.001,-0.001)" />

<path d="M547,-20c0,0,-226,0,-354,114C193,94,66,210,66,417c0,0,0,207,127,323c0,0,128,116,354,116c0,0,66,0,129,-12c0,0,64,-11,128,-34V592c0,0,-55,37,-110,55c0,0,-54,18,-113,18c0,0,-112,0,-175,-65c0,0,-62,-66,-62,-183c0,0,0,-117,62,-183c0,0,63,-65,175,-65c0,0,62,0,119,19c0,0,56,19,104,55V24C804,24,741,1,676,-9c0,0,-64,-11,-129,-11Z" 
id="f1_f"
transform="scale(0.001,-0.001)" />

<path d="M128,0V1161H395V0Z" 
id="f1_r"
transform="scale(0.001,-0.001)" />

<path d="M150,0V1114H300V657H848v457H998V0H848V530H300V0Z" 
id="f0_1t"
transform="scale(0.001,-0.001)" />

<path d="M419,111c0,0,51,0,88,37c0,0,36,36,36,87V360H419c0,0,-51,0,-88,-37c0,0,-36,-37,-36,-87c0,0,0,-52,36,-88c0,0,37,-37,88,-37Zm690,0c0,0,52,0,88,37c0,0,36,36,36,88c0,0,0,50,-36,87c0,0,-37,37,-88,37H985V235c0,0,0,-51,36,-87c0,0,37,-37,88,-37ZM874,470V691H653V470ZM543,801V926c0,0,0,51,-36,87c0,0,-37,37,-88,37c0,0,-51,0,-88,-37c0,0,-36,-36,-36,-87c0,0,0,-52,36,-88c0,0,37,-37,88,-37Zm566,0c0,0,51,0,88,37c0,0,36,36,36,88c0,0,0,51,-36,87c0,0,-36,37,-88,37c0,0,-51,0,-88,-37c0,0,-36,-36,-36,-87V801ZM419,1c0,0,-97,0,-166,68c0,0,-69,69,-69,167c0,0,0,95,69,165c0,0,69,69,163,69H543V691H416c0,0,-94,0,-163,69c0,0,-69,70,-69,166c0,0,0,97,69,165c0,0,69,69,165,69c0,0,97,0,166,-68c0,0,69,-69,69,-164V801H874V928c0,0,0,95,69,164c0,0,69,68,166,68c0,0,98,0,166,-69c0,0,69,-68,69,-165c0,0,0,-96,-69,-166c0,0,-68,-69,-163,-69H985V470h127c0,0,95,0,163,-69c0,0,69,-70,69,-165c0,0,0,-98,-69,-167c0,0,-68,-68,-166,-68c0,0,-97,0,-166,68c0,0,-69,68,-69,164V360H653V233c0,0,0,-96,-69,-164C584,69,515,1,419,1Z" 
id="f0_17"
transform="scale(0.001,-0.001)" />

<path d="M596,196c0,0,86,0,130,36c0,0,44,37,44,110c0,0,0,73,-44,109c0,0,-43,36,-130,36H427V196ZM586,683c0,0,68,0,103,29c0,0,35,30,35,88c0,0,0,58,-35,88c0,0,-35,30,-103,30H427V683ZM140,0V1114H571c0,0,232,0,336,-70c0,0,104,-71,104,-225c0,0,0,-81,-38,-138c0,0,-38,-57,-110,-85c0,0,92,-27,143,-99c0,0,51,-73,51,-178c0,0,0,-161,-109,-240C948,79,839,0,616,0Z" 
id="f1_11"
transform="scale(0.001,-0.001)" />

<path d="M150,0V1114H353L846,182v932H992V0H789L296,932V0Z" 
id="f0_10"
transform="scale(0.001,-0.001)" />

<path d="M359,0L46,836H191L453,134L714,836H859L546,0Z" 
id="f0_t"
transform="scale(0.001,-0.001)" />

<path d="M602,101c0,0,164,0,260,122c0,0,95,123,95,333c0,0,0,211,-95,334c0,0,-96,122,-260,122c0,0,-164,0,-260,-122c0,0,-97,-123,-97,-334c0,0,0,-210,97,-333c0,0,96,-122,260,-122Zm0,-121c0,0,-235,0,-375,155C227,135,86,292,86,556c0,0,0,264,141,421c0,0,140,157,375,157c0,0,234,0,374,-157c0,0,141,-157,141,-421c0,0,0,-263,-141,-420C976,136,836,-20,602,-20Z" 
id="f0_2"
transform="scale(0.001,-0.001)" />

<path d="M150,0V1114H300V643l500,471H994L441,595L1034,0H835L300,536V0Z" 
id="f0_3"
transform="scale(0.001,-0.001)" />

<path d="M179,0V190H336V0Zm0,600V790H336V600Z" 
id="f0_1e"
transform="scale(0.001,-0.001)" />

<path d="M548,620c0,0,90,0,129,33c0,0,39,34,39,111c0,0,0,76,-39,109c0,0,-39,32,-129,32H427V620ZM140,0V1114H578c0,0,220,0,323,-74c0,0,102,-74,102,-234c0,0,0,-110,-53,-181c0,0,-54,-71,-161,-104c0,0,59,-14,106,-61c0,0,46,-47,94,-144L1145,0H839L703,277c0,0,-41,83,-83,114c0,0,-42,30,-112,30H427V0Z" 
id="f1_w"
transform="scale(0.001,-0.001)" />

<path d="M231,0V190H382V0Zm15,359L231,625v489H382V625L367,359Z" 
id="f0_1q"
transform="scale(0.001,-0.001)" />

<path d="M727,411L522,965L318,411ZM12,0L437,1114H608L1033,0H876L774,286H272L171,0Z" 
id="f0_1k"
transform="scale(0.001,-0.001)" />

<path d="M150,0V1114H790V987H300V659H742V532H300V0Z" 
id="f0_1u"
transform="scale(0.001,-0.001)" />

<path d="M132,763l62,237v114H351V1000L228,763Z" 
id="f0_r"
transform="scale(0.001,-0.001)" />

<path d="M391,0V987H-3v127H938V987H543V0Z" 
id="f0_w"
transform="scale(0.001,-0.001)" />

<path d="M630,-20c0,0,-253,0,-398,153C232,133,86,288,86,556c0,0,0,269,146,423c0,0,145,155,398,155c0,0,100,0,189,-26c0,0,88,-27,166,-79V869c0,0,-76,71,-163,106c0,0,-86,35,-183,35c0,0,-191,0,-292,-117C347,893,245,777,245,556c0,0,0,-220,102,-337c0,0,101,-116,292,-116c0,0,97,0,183,35c0,0,87,35,163,105V86C985,86,906,32,817,5c0,0,-88,-25,-187,-25Z" 
id="f0_1f"
transform="scale(0.001,-0.001)" />

<path d="M377,0V897H8v217H1034V897H665V0Z" 
id="f1_10"
transform="scale(0.001,-0.001)" />

<path d="M642,-20c0,0,-261,0,-409,151C233,131,86,284,86,556c0,0,0,273,147,426c0,0,148,152,409,152c0,0,109,0,207,-27c0,0,98,-26,181,-78V868c0,0,-84,71,-178,106c0,0,-94,36,-197,36c0,0,-205,0,-307,-114C348,896,245,782,245,556c0,0,0,-225,103,-339c0,0,102,-114,307,-114c0,0,79,0,142,13c0,0,62,14,112,43V459H663V583h396V104c0,0,-87,-62,-193,-94c0,0,-105,-30,-224,-30Z" 
id="f0_1v"
transform="scale(0.001,-0.001)" />

<path d="M0,-141L388,1114H514L127,-141Z" 
id="f0_1w"
transform="scale(0.001,-0.001)" />

<path d="M458,-20c0,0,-79,0,-168,17c0,0,-89,17,-184,52V204c0,0,91,-51,179,-77c0,0,88,-26,173,-26c0,0,129,0,199,50c0,0,70,51,70,145c0,0,0,82,-50,129c0,0,-50,46,-165,69l-92,18c0,0,-169,34,-244,105c0,0,-75,72,-75,199c0,0,0,148,104,233c0,0,104,85,287,85c0,0,78,0,159,-14c0,0,81,-14,166,-42V931c0,0,-85,41,-161,61c0,0,-76,20,-147,20c0,0,-123,0,-190,-48c0,0,-67,-48,-67,-136c0,0,0,-73,45,-111c0,0,44,-38,168,-61l91,-19c0,0,168,-32,249,-113c0,0,80,-81,80,-216c0,0,0,-162,-109,-246c0,0,-108,-82,-318,-82Z" 
id="f0_18"
transform="scale(0.001,-0.001)" />


</defs>
</svg>