<?xml version="1.0" encoding="UTF-8" standalone="no"?>
<!DOCTYPE svg PUBLIC "-//W3C//DTD SVG 1.1//EN"
"http://www.w3.org/Graphics/SVG/1.1/DTD/svg11.dtd">
<svg viewBox="0 0 909 1286" version="1.1" xmlns="http://www.w3.org/2000/svg" xmlns:xlink="http://www.w3.org/1999/xlink">
<defs>
<clipPath id="c0_35"><path d="M0,1286.2V.2H909.3v1286Z" /></clipPath>
<style type="text/css"><![CDATA[
.g0_35{
fill: #00FF00;
}
]]></style>
</defs>
<path fill-rule="evenodd" d="M86.6,115.3H304.9V88.6H86.6v26.7Z" class="g0_35" />
<g clip-path="url(#c0_35)">
<g fill="#0000FF" >
<use xlink:href="#f0_h" transform="matrix(15,0,0,15,86.8,110)" />
<use xlink:href="#f0_b" transform="matrix(15,0,0,15,103.6,110)" />
<use xlink:href="#f0_3" transform="matrix(15,0,0,15,114.9,110)" />
<use xlink:href="#f0_a" transform="matrix(15,0,0,15,130.4,110)" />
<use xlink:href="#f0_4" transform="matrix(15,0,0,15,145.9,110)" />
<use xlink:href="#f0_5" transform="matrix(15,0,0,15,156.8,110)" />
<use xlink:href="#f0_6" transform="matrix(15,0,0,15,164.6,110)" />
<use xlink:href="#f0_7" transform="matrix(15,0,0,15,180.9,110)" />
<use xlink:href="#f0_d" transform="matrix(15,0,0,15,205.4,110)" />
<use xlink:href="#f0_i" transform="matrix(15,0,0,15,223.1,110)" />
<use xlink:href="#f0_i" transform="matrix(15,0,0,15,239.4,110)" />
<use xlink:href="#f0_k" transform="matrix(15,0,0,15,263.9,110)" />
<use xlink:href="#f0_l" transform="matrix(15,0,0,15,272.3,110)" />
<use xlink:href="#f0_v" transform="matrix(15,0,0,15,291.3,110)" />
</g>
<g fill="#000000" >
<use xlink:href="#f1_m" transform="matrix(12,0,0,12,86.8,139.6)" />
<use xlink:href="#f1_c" transform="matrix(12,0,0,12,100.5,139.6)" />
<use xlink:href="#f1_y" transform="matrix(12,0,0,12,111.7,139.6)" />
<use xlink:href="#f1_a" transform="matrix(12,0,0,12,132.6,139.6)" />
<use xlink:href="#f1_3" transform="matrix(12,0,0,12,139.8,139.6)" />
<use xlink:href="#f1_g" transform="matrix(12,0,0,12,151.2,139.6)" />
<use xlink:href="#f1_a" transform="matrix(12,0,0,12,162.5,139.6)" />
<use xlink:href="#f1_t" transform="matrix(12,0,0,12,175.6,139.6)" />
<use xlink:href="#f1_c" transform="matrix(12,0,0,12,186.5,139.6)" />
<use xlink:href="#f1_r" transform="matrix(12,0,0,12,197.6,139.6)" />
<use xlink:href="#f1_8" transform="matrix(12,0,0,12,209.2,139.6)" />
<use xlink:href="#f1_j" transform="matrix(12,0,0,12,222.7,139.6)" />
<use xlink:href="#f1_4" transform="matrix(12,0,0,12,234.3,139.6)" />
<use xlink:href="#f1_k" transform="matrix(12,0,0,12,245.6,139.6)" />
<use xlink:href="#f1_7" transform="matrix(12,0,0,12,256.4,139.6)" />
<use xlink:href="#f1_o" transform="matrix(12,0,0,12,261.4,139.6)" />
<use xlink:href="#f1_4" transform="matrix(12,0,0,12,271.5,139.6)" />
<use xlink:href="#f1_7" transform="matrix(12,0,0,12,288.6,139.6)" />
<use xlink:href="#f1_9" transform="matrix(12,0,0,12,293.7,139.6)" />
<use xlink:href="#f1_8" transform="matrix(12,0,0,12,309.1,139.6)" />
<use xlink:href="#f1_4" transform="matrix(12,0,0,12,316.1,139.6)" />
<use xlink:href="#f1_f" transform="matrix(12,0,0,12,327.4,139.6)" />
<use xlink:href="#f1_7" transform="matrix(12,0,0,12,339.1,139.6)" />
<use xlink:href="#f1_9" transform="matrix(12,0,0,12,344.2,139.6)" />
<use xlink:href="#f1_a" transform="matrix(12,0,0,12,353.8,139.6)" />
<use xlink:href="#f1_4" transform="matrix(12,0,0,12,360.8,139.6)" />
<use xlink:href="#f1_8" transform="matrix(12,0,0,12,372.2,139.6)" />
<use xlink:href="#f1_4" transform="matrix(12,0,0,12,379.3,139.6)" />
<use xlink:href="#f1_j" transform="matrix(12,0,0,12,390.6,139.6)" />
<use xlink:href="#f1_q" transform="matrix(12,0,0,12,402.2,139.6)" />
<use xlink:href="#f1_t" transform="matrix(12,0,0,12,413.8,139.6)" />
<use xlink:href="#f1_c" transform="matrix(12,0,0,12,424.6,139.6)" />
<use xlink:href="#f1_r" transform="matrix(12,0,0,12,435.8,139.6)" />
<use xlink:href="#f1_h" transform="matrix(12,0,0,12,453.3,139.6)" />
<use xlink:href="#f1_4" transform="matrix(12,0,0,12,464.9,139.6)" />
<use xlink:href="#f1_4" transform="matrix(12,0,0,12,476.2,139.6)" />
<use xlink:href="#f1_j" transform="matrix(12,0,0,12,487.5,139.6)" />
<use xlink:href="#f1_a" transform="matrix(12,0,0,12,504.9,139.6)" />
<use xlink:href="#f1_c" transform="matrix(12,0,0,12,512.1,139.6)" />
<use xlink:href="#f1_o" transform="matrix(12,0,0,12,529.2,139.6)" />
<use xlink:href="#f1_8" transform="matrix(12,0,0,12,539.3,139.6)" />
<use xlink:href="#f1_4" transform="matrix(12,0,0,12,546.3,139.6)" />
<use xlink:href="#f1_g" transform="matrix(12,0,0,12,557.6,139.6)" />
<use xlink:href="#f1_a" transform="matrix(12,0,0,12,568.9,139.6)" />
<use xlink:href="#f1_4" transform="matrix(12,0,0,12,576.1,139.6)" />
<use xlink:href="#f1_g" transform="matrix(12,0,0,12,593.2,139.6)" />
<use xlink:href="#f1_h" transform="matrix(12,0,0,12,604.5,139.6)" />
</g>
<g fill="#0000FF" >
<use xlink:href="#f0_d" transform="matrix(12,0,0,12,622.3,139.6)" />
<use xlink:href="#f0_i" transform="matrix(12,0,0,12,636.5,139.6)" />
<use xlink:href="#f0_i" transform="matrix(12,0,0,12,649.4,139.6)" />
<use xlink:href="#f0_k" transform="matrix(12,0,0,12,669,139.6)" />
<use xlink:href="#f0_l" transform="matrix(12,0,0,12,675.8,139.6)" />
</g>
<g fill="#000000" >
<use xlink:href="#f1_l" transform="matrix(12,0,0,12,691,139.6)" />
<use xlink:href="#f1_1h" transform="matrix(12,0,0,12,702.8,139.6)" />
<use xlink:href="#f1_k" transform="matrix(12,0,0,12,714.2,139.6)" />
<use xlink:href="#f1_4" transform="matrix(12,0,0,12,725.1,139.6)" />
<use xlink:href="#f1_8" transform="matrix(12,0,0,12,736.4,139.6)" />
<use xlink:href="#f1_t" transform="matrix(12,0,0,12,743.8,139.6)" />
<use xlink:href="#f1_g" transform="matrix(12,0,0,12,760.6,139.6)" />
<use xlink:href="#f1_b" transform="matrix(12,0,0,12,771.8,139.6)" />
<use xlink:href="#f1_b" transform="matrix(12,0,0,12,783.4,139.6)" />
<use xlink:href="#f1_t" transform="matrix(12,0,0,12,86.8,168.2)" />
<use xlink:href="#f1_c" transform="matrix(12,0,0,12,97.6,168.2)" />
<use xlink:href="#f1_r" transform="matrix(12,0,0,12,108.8,168.2)" />
<use xlink:href="#f1_n" transform="matrix(12,0,0,12,126.3,168.2)" />
<use xlink:href="#f1_r" transform="matrix(12,0,0,12,137.9,168.2)" />
<use xlink:href="#f1_7" transform="matrix(12,0,0,12,149.5,168.2)" />
<use xlink:href="#f1_i" transform="matrix(12,0,0,12,154.6,168.2)" />
<use xlink:href="#f1_j" transform="matrix(12,0,0,12,159.7,168.2)" />
<use xlink:href="#f1_y" transform="matrix(12,0,0,12,177.2,168.2)" />
<use xlink:href="#f1_7" transform="matrix(12,0,0,12,192.1,168.2)" />
<use xlink:href="#f1_i" transform="matrix(12,0,0,12,197.3,168.2)" />
<use xlink:href="#f1_i" transform="matrix(12,0,0,12,202.4,168.2)" />
<use xlink:href="#f1_h" transform="matrix(12,0,0,12,213.3,168.2)" />
<use xlink:href="#f1_4" transform="matrix(12,0,0,12,224.8,168.2)" />
<use xlink:href="#f1_4" transform="matrix(12,0,0,12,236.1,168.2)" />
<use xlink:href="#f1_j" transform="matrix(12,0,0,12,247.4,168.2)" />
<use xlink:href="#f1_7" transform="matrix(12,0,0,12,264.9,168.2)" />
<use xlink:href="#f1_a" transform="matrix(12,0,0,12,270,168.2)" />
<use xlink:href="#f1_9" transform="matrix(12,0,0,12,277.2,168.2)" />
<use xlink:href="#f1_c" transform="matrix(12,0,0,12,292.6,168.2)" />
<use xlink:href="#f1_y" transform="matrix(12,0,0,12,303.7,168.2)" />
<use xlink:href="#f1_h" transform="matrix(12,0,0,12,318.7,168.2)" />
<use xlink:href="#f1_d" transform="matrix(12,0,0,12,336.2,168.2)" />
<use xlink:href="#f1_b" transform="matrix(12,0,0,12,348.8,168.2)" />
<use xlink:href="#f1_b" transform="matrix(12,0,0,12,360.4,168.2)" />
<use xlink:href="#f1_z" transform="matrix(12,0,0,12,377.8,168.2)" />
<use xlink:href="#f1_15" transform="matrix(12,0,0,12,383.1,168.2)" />
<use xlink:href="#f1_l" transform="matrix(12,0,0,12,397.3,168.2)" />
<use xlink:href="#f1_13" transform="matrix(12,0,0,12,408.9,168.2)" />
<use xlink:href="#f1_h" transform="matrix(12,0,0,12,423.3,168.2)" />
<use xlink:href="#f1_a" transform="matrix(12,0,0,12,440.9,168.2)" />
<use xlink:href="#f1_3" transform="matrix(12,0,0,12,448.1,168.2)" />
<use xlink:href="#f1_4" transform="matrix(12,0,0,12,459.7,168.2)" />
<use xlink:href="#f1_9" transform="matrix(12,0,0,12,476.8,168.2)" />
<use xlink:href="#f1_7" transform="matrix(12,0,0,12,486.4,168.2)" />
<use xlink:href="#f1_j" transform="matrix(12,0,0,12,491.4,168.2)" />
<use xlink:href="#f1_4" transform="matrix(12,0,0,12,503,168.2)" />
<use xlink:href="#f1_p" transform="matrix(12,0,0,12,520.1,168.2)" />
<use xlink:href="#f1_4" transform="matrix(12,0,0,12,538,168.2)" />
<use xlink:href="#f1_h" transform="matrix(12,0,0,12,549.3,168.2)" />
<use xlink:href="#f1_r" transform="matrix(12,0,0,12,560.9,168.2)" />
<use xlink:href="#f1_q" transform="matrix(12,0,0,12,572.5,168.2)" />
<use xlink:href="#f1_o" transform="matrix(12,0,0,12,584.1,168.2)" />
<use xlink:href="#f1_i" transform="matrix(12,0,0,12,594.2,168.2)" />
<use xlink:href="#f1_7" transform="matrix(12,0,0,12,599.3,168.2)" />
<use xlink:href="#f1_o" transform="matrix(12,0,0,12,604.4,168.2)" />
<use xlink:href="#f1_10" transform="matrix(12,0,0,12,614.4,168.2)" />
</g>
<g fill="#0000FF" >
<use xlink:href="#f0_k" transform="matrix(12,0,0,12,631.3,168.2)" />
<use xlink:href="#f0_c" transform="matrix(12,0,0,12,638,168.2)" />
<use xlink:href="#f0_3" transform="matrix(12,0,0,12,651.1,168.2)" />
<use xlink:href="#f0_6" transform="matrix(12,0,0,12,663.6,168.2)" />
<use xlink:href="#f0_4" transform="matrix(12,0,0,12,676.6,168.2)" />
<use xlink:href="#f0_5" transform="matrix(12,0,0,12,685.3,168.2)" />
<use xlink:href="#f0_o" transform="matrix(12,0,0,12,691.6,168.2)" />
<use xlink:href="#f0_5" transform="matrix(12,0,0,12,699.7,168.2)" />
<use xlink:href="#f0_3" transform="matrix(12,0,0,12,705.9,168.2)" />
<use xlink:href="#f0_b" transform="matrix(12,0,0,12,718.3,168.2)" />
<use xlink:href="#f0_v" transform="matrix(12,0,0,12,727.5,168.2)" />
<use xlink:href="#f0_1c" transform="matrix(12,0,0,12,738.3,168.2)" />
<use xlink:href="#f0_d" transform="matrix(12,0,0,12,745,168.2)" />
<use xlink:href="#f0_i" transform="matrix(12,0,0,12,759.2,168.2)" />
<use xlink:href="#f0_i" transform="matrix(12,0,0,12,772.4,168.2)" />
<use xlink:href="#f0_k" transform="matrix(12,0,0,12,86.8,196.9)" />
<use xlink:href="#f0_l" transform="matrix(12,0,0,12,93.6,196.9)" />
<use xlink:href="#f0_v" transform="matrix(12,0,0,12,108.9,196.9)" />
<use xlink:href="#f1_12" transform="matrix(12,0,0,12,119.8,196.9)" />
</g>
<g fill="#000000" >
<use xlink:href="#f1_x" transform="matrix(12,0,0,12,86.8,670.4)" />
<use xlink:href="#f1_c" transform="matrix(12,0,0,12,95.6,670.4)" />
<use xlink:href="#f1_r" transform="matrix(12,0,0,12,106.8,670.4)" />
<use xlink:href="#f1_11" transform="matrix(12,0,0,12,118.4,670.4)" />
<use xlink:href="#f1_i" transform="matrix(12,0,0,12,124.2,670.4)" />
<use xlink:href="#f1_i" transform="matrix(12,0,0,12,129.4,670.4)" />
<use xlink:href="#f1_9" transform="matrix(12,0,0,12,140.2,670.4)" />
<use xlink:href="#f1_4" transform="matrix(12,0,0,12,149.8,670.4)" />
<use xlink:href="#f1_4" transform="matrix(12,0,0,12,161,670.4)" />
<use xlink:href="#f1_g" transform="matrix(12,0,0,12,178.2,670.4)" />
<use xlink:href="#f1_n" transform="matrix(12,0,0,12,195.2,670.4)" />
<use xlink:href="#f1_8" transform="matrix(12,0,0,12,206.8,670.4)" />
<use xlink:href="#f1_7" transform="matrix(12,0,0,12,214.4,670.4)" />
<use xlink:href="#f1_4" transform="matrix(12,0,0,12,219.4,670.4)" />
<use xlink:href="#f1_6" transform="matrix(12,0,0,12,230.7,670.4)" />
<use xlink:href="#f1_4" transform="matrix(12,0,0,12,243,670.4)" />
<use xlink:href="#f1_14" transform="matrix(12,0,0,12,254,670.4)" />
<use xlink:href="#f1_b" transform="matrix(12,0,0,12,264.8,670.4)" />
<use xlink:href="#f1_i" transform="matrix(12,0,0,12,276.4,670.4)" />
<use xlink:href="#f1_g" transform="matrix(12,0,0,12,281.4,670.4)" />
<use xlink:href="#f1_h" transform="matrix(12,0,0,12,292.7,670.4)" />
<use xlink:href="#f1_g" transform="matrix(12,0,0,12,304.3,670.4)" />
<use xlink:href="#f1_a" transform="matrix(12,0,0,12,315.6,670.4)" />
<use xlink:href="#f1_7" transform="matrix(12,0,0,12,322.8,670.4)" />
<use xlink:href="#f1_c" transform="matrix(12,0,0,12,327.9,670.4)" />
<use xlink:href="#f1_h" transform="matrix(12,0,0,12,339,670.4)" />
<use xlink:href="#f1_c" transform="matrix(12,0,0,12,356.6,670.4)" />
<use xlink:href="#f1_6" transform="matrix(12,0,0,12,367.7,670.4)" />
<use xlink:href="#f1_a" transform="matrix(12,0,0,12,380.1,670.4)" />
<use xlink:href="#f1_3" transform="matrix(12,0,0,12,387.3,670.4)" />
<use xlink:href="#f1_4" transform="matrix(12,0,0,12,398.9,670.4)" />
<use xlink:href="#f1_d" transform="matrix(12,0,0,12,416,670.4)" />
<use xlink:href="#f1_b" transform="matrix(12,0,0,12,428.5,670.4)" />
<use xlink:href="#f1_b" transform="matrix(12,0,0,12,440.1,670.4)" />
<use xlink:href="#f1_z" transform="matrix(12,0,0,12,457.5,670.4)" />
<use xlink:href="#f1_15" transform="matrix(12,0,0,12,463,670.4)" />
<use xlink:href="#f1_o" transform="matrix(12,0,0,12,482.9,670.4)" />
<use xlink:href="#f1_c" transform="matrix(12,0,0,12,492.9,670.4)" />
<use xlink:href="#f1_h" transform="matrix(12,0,0,12,504.1,670.4)" />
<use xlink:href="#f1_o" transform="matrix(12,0,0,12,515.7,670.4)" />
<use xlink:href="#f1_4" transform="matrix(12,0,0,12,525.8,670.4)" />
<use xlink:href="#f1_b" transform="matrix(12,0,0,12,537,670.4)" />
<use xlink:href="#f1_a" transform="matrix(12,0,0,12,548.6,670.4)" />
<use xlink:href="#f1_l" transform="matrix(12,0,0,12,556,670.4)" />
<use xlink:href="#f1_z" transform="matrix(12,0,0,12,567.6,670.4)" />
<use xlink:href="#f1_h" transform="matrix(12,0,0,12,572.9,670.4)" />
<use xlink:href="#f1_g" transform="matrix(12,0,0,12,590.5,670.4)" />
<use xlink:href="#f1_h" transform="matrix(12,0,0,12,607.6,670.4)" />
<use xlink:href="#f1_r" transform="matrix(12,0,0,12,619.2,670.4)" />
<use xlink:href="#f1_a" transform="matrix(12,0,0,12,630.8,670.4)" />
<use xlink:href="#f1_9" transform="matrix(12,0,0,12,637.8,670.4)" />
<use xlink:href="#f1_3" transform="matrix(12,0,0,12,647.4,670.4)" />
<use xlink:href="#f1_4" transform="matrix(12,0,0,12,659,670.4)" />
<use xlink:href="#f1_i" transform="matrix(12,0,0,12,670.3,670.4)" />
<use xlink:href="#f1_i" transform="matrix(12,0,0,12,675.4,670.4)" />
<use xlink:href="#f1_q" transform="matrix(12,0,0,12,680.5,670.4)" />
<use xlink:href="#f1_g" transform="matrix(12,0,0,12,692.2,670.4)" />
<use xlink:href="#f1_h" transform="matrix(12,0,0,12,703.5,670.4)" />
<use xlink:href="#f1_d" transform="matrix(12,0,0,12,720.9,670.4)" />
<use xlink:href="#f1_b" transform="matrix(12,0,0,12,733.4,670.4)" />
<use xlink:href="#f1_b" transform="matrix(12,0,0,12,745,670.4)" />
<use xlink:href="#f1_z" transform="matrix(12,0,0,12,762.5,670.4)" />
<use xlink:href="#f1_15" transform="matrix(12,0,0,12,767.9,670.4)" />
<use xlink:href="#f1_7" transform="matrix(12,0,0,12,787.9,670.4)" />
<use xlink:href="#f1_9" transform="matrix(12,0,0,12,792.8,670.4)" />
<use xlink:href="#f1_g" transform="matrix(12,0,0,12,808.3,670.4)" />
<use xlink:href="#f1_o" transform="matrix(12,0,0,12,86.8,699.1)" />
<use xlink:href="#f1_c" transform="matrix(12,0,0,12,96.8,699.1)" />
<use xlink:href="#f1_p" transform="matrix(12,0,0,12,108,699.1)" />
<use xlink:href="#f1_n" transform="matrix(12,0,0,12,125.8,699.1)" />
<use xlink:href="#f1_7" transform="matrix(12,0,0,12,137.6,699.1)" />
<use xlink:href="#f1_h" transform="matrix(12,0,0,12,142.6,699.1)" />
<use xlink:href="#f1_g" transform="matrix(12,0,0,12,154.2,699.1)" />
<use xlink:href="#f1_a" transform="matrix(12,0,0,12,165.5,699.1)" />
<use xlink:href="#f1_7" transform="matrix(12,0,0,12,172.7,699.1)" />
<use xlink:href="#f1_c" transform="matrix(12,0,0,12,177.8,699.1)" />
<use xlink:href="#f1_h" transform="matrix(12,0,0,12,188.9,699.1)" />
<use xlink:href="#f1_c" transform="matrix(12,0,0,12,206.5,699.1)" />
<use xlink:href="#f1_6" transform="matrix(12,0,0,12,217.6,699.1)" />
<use xlink:href="#f1_g" transform="matrix(12,0,0,12,230,699.1)" />
<use xlink:href="#f1_1u" transform="matrix(12,0,0,12,246.9,699.1)" />
<use xlink:href="#f1_1v" transform="matrix(12,0,0,12,258.5,699.1)" />
<use xlink:href="#f1_1n" transform="matrix(12,0,0,12,270.3,699.1)" />
<use xlink:href="#f1_o" transform="matrix(12,0,0,12,276.9,699.1)" />
<use xlink:href="#f1_3" transform="matrix(12,0,0,12,286.9,699.1)" />
<use xlink:href="#f1_g" transform="matrix(12,0,0,12,298.5,699.1)" />
<use xlink:href="#f1_8" transform="matrix(12,0,0,12,309.8,699.1)" />
<use xlink:href="#f1_g" transform="matrix(12,0,0,12,317.3,699.1)" />
<use xlink:href="#f1_o" transform="matrix(12,0,0,12,328.6,699.1)" />
<use xlink:href="#f1_a" transform="matrix(12,0,0,12,338.7,699.1)" />
<use xlink:href="#f1_4" transform="matrix(12,0,0,12,345.8,699.1)" />
<use xlink:href="#f1_8" transform="matrix(12,0,0,12,357.1,699.1)" />
<use xlink:href="#f1_1j" transform="matrix(12,0,0,12,370.4,699.1)" />
<use xlink:href="#f1_9" transform="matrix(12,0,0,12,379.9,699.1)" />
<use xlink:href="#f1_4" transform="matrix(12,0,0,12,389.5,699.1)" />
<use xlink:href="#f1_4" transform="matrix(12,0,0,12,400.7,699.1)" />
<use xlink:href="#f1_j" transform="matrix(12,0,0,12,412,699.1)" />
<use xlink:href="#f1_1k" transform="matrix(12,0,0,12,423.6,699.1)" />
<use xlink:href="#f1_b" transform="matrix(12,0,0,12,439,699.1)" />
<use xlink:href="#f1_8" transform="matrix(12,0,0,12,450.6,699.1)" />
<use xlink:href="#f1_4" transform="matrix(12,0,0,12,457.6,699.1)" />
<use xlink:href="#f1_6" transform="matrix(12,0,0,12,468.9,699.1)" />
<use xlink:href="#f1_7" transform="matrix(12,0,0,12,475.4,699.1)" />
<use xlink:href="#f1_14" transform="matrix(12,0,0,12,480.5,699.1)" />
<use xlink:href="#f1_f" transform="matrix(12,0,0,12,497.1,699.1)" />
<use xlink:href="#f1_4" transform="matrix(12,0,0,12,508.7,699.1)" />
<use xlink:href="#f1_h" transform="matrix(12,0,0,12,520,699.1)" />
<use xlink:href="#f1_4" transform="matrix(12,0,0,12,531.6,699.1)" />
<use xlink:href="#f1_8" transform="matrix(12,0,0,12,542.9,699.1)" />
<use xlink:href="#f1_g" transform="matrix(12,0,0,12,550.4,699.1)" />
<use xlink:href="#f1_a" transform="matrix(12,0,0,12,561.7,699.1)" />
<use xlink:href="#f1_4" transform="matrix(12,0,0,12,568.9,699.1)" />
<use xlink:href="#f1_j" transform="matrix(12,0,0,12,580.2,699.1)" />
<use xlink:href="#f1_n" transform="matrix(12,0,0,12,597.6,699.1)" />
<use xlink:href="#f1_t" transform="matrix(12,0,0,12,609.2,699.1)" />
<use xlink:href="#f1_d" transform="matrix(12,0,0,12,626,699.1)" />
<use xlink:href="#f1_b" transform="matrix(12,0,0,12,638.5,699.1)" />
<use xlink:href="#f1_b" transform="matrix(12,0,0,12,650.1,699.1)" />
<use xlink:href="#f1_i" transform="matrix(12,0,0,12,661.7,699.1)" />
<use xlink:href="#f1_4" transform="matrix(12,0,0,12,666.8,699.1)" />
<use xlink:href="#f1_q" transform="matrix(12,0,0,12,678.1,699.1)" />
<use xlink:href="#f1_g" transform="matrix(12,0,0,12,689.8,699.1)" />
<use xlink:href="#f1_h" transform="matrix(12,0,0,12,701,699.1)" />
<use xlink:href="#f1_j" transform="matrix(12,0,0,12,712.6,699.1)" />
<use xlink:href="#f1_g" transform="matrix(12,0,0,12,730.1,699.1)" />
<use xlink:href="#f1_9" transform="matrix(12,0,0,12,747.1,699.1)" />
<use xlink:href="#f1_r" transform="matrix(12,0,0,12,756.7,699.1)" />
<use xlink:href="#f1_6" transform="matrix(12,0,0,12,768.3,699.1)" />
<use xlink:href="#f1_6" transform="matrix(12,0,0,12,774.7,699.1)" />
<use xlink:href="#f1_7" transform="matrix(12,0,0,12,781.1,699.1)" />
<use xlink:href="#f1_14" transform="matrix(12,0,0,12,786.2,699.1)" />
<use xlink:href="#f1_o" transform="matrix(12,0,0,12,86.8,727.7)" />
<use xlink:href="#f1_8" transform="matrix(12,0,0,12,96.8,727.7)" />
<use xlink:href="#f1_4" transform="matrix(12,0,0,12,103.9,727.7)" />
<use xlink:href="#f1_g" transform="matrix(12,0,0,12,115.2,727.7)" />
<use xlink:href="#f1_a" transform="matrix(12,0,0,12,126.5,727.7)" />
<use xlink:href="#f1_4" transform="matrix(12,0,0,12,133.6,727.7)" />
<use xlink:href="#f1_j" transform="matrix(12,0,0,12,144.9,727.7)" />
<use xlink:href="#f1_n" transform="matrix(12,0,0,12,162.5,727.7)" />
<use xlink:href="#f1_t" transform="matrix(12,0,0,12,174.1,727.7)" />
<use xlink:href="#f1_t" transform="matrix(12,0,0,12,190.7,727.7)" />
<use xlink:href="#f1_c" transform="matrix(12,0,0,12,201.6,727.7)" />
<use xlink:href="#f1_r" transform="matrix(12,0,0,12,212.7,727.7)" />
<use xlink:href="#f1_q" transform="matrix(12,0,0,12,224.3,727.7)" />
<use xlink:href="#f1_j" transform="matrix(12,0,0,12,236.1,727.7)" />
<use xlink:href="#f1_4" transform="matrix(12,0,0,12,247.7,727.7)" />
<use xlink:href="#f1_6" transform="matrix(12,0,0,12,259,727.7)" />
<use xlink:href="#f1_7" transform="matrix(12,0,0,12,265.4,727.7)" />
<use xlink:href="#f1_h" transform="matrix(12,0,0,12,270.4,727.7)" />
<use xlink:href="#f1_4" transform="matrix(12,0,0,12,282,727.7)" />
<use xlink:href="#f1_j" transform="matrix(12,0,0,12,293.3,727.7)" />
<use xlink:href="#f1_g" transform="matrix(12,0,0,12,310.9,727.7)" />
<use xlink:href="#f1_9" transform="matrix(12,0,0,12,322,727.7)" />
<use xlink:href="#f1_g" transform="matrix(12,0,0,12,337.4,727.7)" />
<use xlink:href="#f1_1c" transform="matrix(12,0,0,12,354.4,727.7)" />
<use xlink:href="#f1_r" transform="matrix(12,0,0,12,366.9,727.7)" />
<use xlink:href="#f1_h" transform="matrix(12,0,0,12,378.5,727.7)" />
<use xlink:href="#f1_j" transform="matrix(12,0,0,12,390.3,727.7)" />
<use xlink:href="#f1_i" transform="matrix(12,0,0,12,401.9,727.7)" />
<use xlink:href="#f1_4" transform="matrix(12,0,0,12,406.9,727.7)" />
<use xlink:href="#f1_z" transform="matrix(12,0,0,12,424,727.7)" />
<use xlink:href="#f1_15" transform="matrix(12,0,0,12,429.5,727.7)" />
<use xlink:href="#f1_9" transform="matrix(12,0,0,12,449.4,727.7)" />
<use xlink:href="#f1_4" transform="matrix(12,0,0,12,459,727.7)" />
<use xlink:href="#f1_g" transform="matrix(12,0,0,12,470.1,727.7)" />
<use xlink:href="#f1_8" transform="matrix(12,0,0,12,481.4,727.7)" />
<use xlink:href="#f1_o" transform="matrix(12,0,0,12,488.4,727.7)" />
<use xlink:href="#f1_3" transform="matrix(12,0,0,12,498.5,727.7)" />
<use xlink:href="#f1_9" transform="matrix(12,0,0,12,516.1,727.7)" />
<use xlink:href="#f1_a" transform="matrix(12,0,0,12,525.7,727.7)" />
<use xlink:href="#f1_8" transform="matrix(12,0,0,12,532.9,727.7)" />
<use xlink:href="#f1_7" transform="matrix(12,0,0,12,540.3,727.7)" />
<use xlink:href="#f1_h" transform="matrix(12,0,0,12,545.4,727.7)" />
<use xlink:href="#f1_f" transform="matrix(12,0,0,12,557,727.7)" />
<use xlink:href="#f1_l" transform="matrix(12,0,0,12,568.6,727.7)" />
<use xlink:href="#f1_2" transform="matrix(12,0,0,12,580.3,727.7)" />
<use xlink:href="#f1_c" transform="matrix(12,0,0,12,588.5,727.7)" />
<use xlink:href="#f1_f" transform="matrix(12,0,0,12,599.6,727.7)" />
<use xlink:href="#f1_4" transform="matrix(12,0,0,12,611.2,727.7)" />
<use xlink:href="#f1_a" transform="matrix(12,0,0,12,622.5,727.7)" />
<use xlink:href="#f1_3" transform="matrix(12,0,0,12,629.7,727.7)" />
<use xlink:href="#f1_4" transform="matrix(12,0,0,12,641.3,727.7)" />
<use xlink:href="#f1_8" transform="matrix(12,0,0,12,652.6,727.7)" />
<use xlink:href="#f1_a" transform="matrix(12,0,0,12,666,727.7)" />
<use xlink:href="#f1_3" transform="matrix(12,0,0,12,673.2,727.7)" />
<use xlink:href="#f1_4" transform="matrix(12,0,0,12,684.8,727.7)" />
<use xlink:href="#f1_t" transform="matrix(12,0,0,12,696.1,727.7)" />
<use xlink:href="#f1_o" transform="matrix(12,0,0,12,712.8,727.7)" />
<use xlink:href="#f1_8" transform="matrix(12,0,0,12,722.8,727.7)" />
<use xlink:href="#f1_4" transform="matrix(12,0,0,12,729.8,727.7)" />
<use xlink:href="#f1_g" transform="matrix(12,0,0,12,741.1,727.7)" />
<use xlink:href="#f1_a" transform="matrix(12,0,0,12,752.4,727.7)" />
<use xlink:href="#f1_4" transform="matrix(12,0,0,12,759.6,727.7)" />
<use xlink:href="#f1_g" transform="matrix(12,0,0,12,776.7,727.7)" />
<use xlink:href="#f1_r" transform="matrix(12,0,0,12,86.8,756.4)" />
<use xlink:href="#f1_h" transform="matrix(12,0,0,12,98.4,756.4)" />
<use xlink:href="#f1_7" transform="matrix(12,0,0,12,110,756.4)" />
<use xlink:href="#f1_17" transform="matrix(12,0,0,12,115,756.4)" />
<use xlink:href="#f1_r" transform="matrix(12,0,0,12,126.8,756.4)" />
<use xlink:href="#f1_4" transform="matrix(12,0,0,12,138.4,756.4)" />
<use xlink:href="#f1_7" transform="matrix(12,0,0,12,155.5,756.4)" />
<use xlink:href="#f1_j" transform="matrix(12,0,0,12,160.5,756.4)" />
<use xlink:href="#f1_4" transform="matrix(12,0,0,12,172.1,756.4)" />
<use xlink:href="#f1_h" transform="matrix(12,0,0,12,183.4,756.4)" />
<use xlink:href="#f1_a" transform="matrix(12,0,0,12,195,756.4)" />
<use xlink:href="#f1_7" transform="matrix(12,0,0,12,202.2,756.4)" />
<use xlink:href="#f1_6" transform="matrix(12,0,0,12,207.4,756.4)" />
<use xlink:href="#f1_7" transform="matrix(12,0,0,12,213.8,756.4)" />
<use xlink:href="#f1_4" transform="matrix(12,0,0,12,218.9,756.4)" />
<use xlink:href="#f1_8" transform="matrix(12,0,0,12,230.1,756.4)" />
<use xlink:href="#f1_6" transform="matrix(12,0,0,12,243.6,756.4)" />
<use xlink:href="#f1_c" transform="matrix(12,0,0,12,250,756.4)" />
<use xlink:href="#f1_8" transform="matrix(12,0,0,12,261.1,756.4)" />
<use xlink:href="#f1_t" transform="matrix(12,0,0,12,274.6,756.4)" />
<use xlink:href="#f1_c" transform="matrix(12,0,0,12,285.4,756.4)" />
<use xlink:href="#f1_r" transform="matrix(12,0,0,12,296.6,756.4)" />
<use xlink:href="#f1_8" transform="matrix(12,0,0,12,308.2,756.4)" />
<use xlink:href="#f1_g" transform="matrix(12,0,0,12,321.6,756.4)" />
<use xlink:href="#f1_b" transform="matrix(12,0,0,12,332.9,756.4)" />
<use xlink:href="#f1_b" transform="matrix(12,0,0,12,344.5,756.4)" />
<use xlink:href="#f1_l" transform="matrix(12,0,0,12,356.1,756.4)" />
<use xlink:href="#f1_1t" transform="matrix(12,0,0,12,86.8,785)" />
<use xlink:href="#f1_4" transform="matrix(12,0,0,12,100.5,785)" />
<use xlink:href="#f1_8" transform="matrix(12,0,0,12,112,785)" />
<use xlink:href="#f1_4" transform="matrix(12,0,0,12,119,785)" />
<use xlink:href="#f1_g" transform="matrix(12,0,0,12,136.1,785)" />
<use xlink:href="#f1_8" transform="matrix(12,0,0,12,147.4,785)" />
<use xlink:href="#f1_4" transform="matrix(12,0,0,12,154.4,785)" />
<use xlink:href="#f1_9" transform="matrix(12,0,0,12,171.5,785)" />
<use xlink:href="#f1_c" transform="matrix(12,0,0,12,181.1,785)" />
<use xlink:href="#f1_p" transform="matrix(12,0,0,12,192.3,785)" />
<use xlink:href="#f1_4" transform="matrix(12,0,0,12,210.1,785)" />
<use xlink:href="#f1_7" transform="matrix(12,0,0,12,227.2,785)" />
<use xlink:href="#f1_p" transform="matrix(12,0,0,12,232.3,785)" />
<use xlink:href="#f1_b" transform="matrix(12,0,0,12,250.1,785)" />
<use xlink:href="#f1_c" transform="matrix(12,0,0,12,261.7,785)" />
<use xlink:href="#f1_8" transform="matrix(12,0,0,12,273,785)" />
<use xlink:href="#f1_a" transform="matrix(12,0,0,12,280.5,785)" />
<use xlink:href="#f1_g" transform="matrix(12,0,0,12,287.7,785)" />
<use xlink:href="#f1_h" transform="matrix(12,0,0,12,299,785)" />
<use xlink:href="#f1_a" transform="matrix(12,0,0,12,310.6,785)" />
<use xlink:href="#f1_a" transform="matrix(12,0,0,12,323.6,785)" />
<use xlink:href="#f1_3" transform="matrix(12,0,0,12,330.8,785)" />
<use xlink:href="#f1_7" transform="matrix(12,0,0,12,342.4,785)" />
<use xlink:href="#f1_h" transform="matrix(12,0,0,12,347.4,785)" />
<use xlink:href="#f1_f" transform="matrix(12,0,0,12,359,785)" />
<use xlink:href="#f1_9" transform="matrix(12,0,0,12,370.6,785)" />
<use xlink:href="#f1_a" transform="matrix(12,0,0,12,386.2,785)" />
<use xlink:href="#f1_c" transform="matrix(12,0,0,12,393.4,785)" />
<use xlink:href="#f1_10" transform="matrix(12,0,0,12,410.3,785)" />
<use xlink:href="#f1_h" transform="matrix(12,0,0,12,421,785)" />
<use xlink:href="#f1_c" transform="matrix(12,0,0,12,432.6,785)" />
<use xlink:href="#f1_y" transform="matrix(12,0,0,12,443.7,785)" />
<use xlink:href="#f1_g" transform="matrix(12,0,0,12,464.7,785)" />
<use xlink:href="#f1_n" transform="matrix(12,0,0,12,475.8,785)" />
<use xlink:href="#f1_c" transform="matrix(12,0,0,12,487.4,785)" />
<use xlink:href="#f1_r" transform="matrix(12,0,0,12,498.6,785)" />
<use xlink:href="#f1_a" transform="matrix(12,0,0,12,510.2,785)" />
<use xlink:href="#f1_d" transform="matrix(12,0,0,12,523.3,785)" />
<use xlink:href="#f1_b" transform="matrix(12,0,0,12,535.8,785)" />
<use xlink:href="#f1_b" transform="matrix(12,0,0,12,547.4,785)" />
<use xlink:href="#f1_z" transform="matrix(12,0,0,12,565,785)" />
<use xlink:href="#f1_15" transform="matrix(12,0,0,12,570.3,785)" />
<use xlink:href="#f1_9" transform="matrix(12,0,0,12,584.4,785)" />
<use xlink:href="#f1_12" transform="matrix(12,0,0,12,594,785)" />
<use xlink:href="#f2_2" transform="matrix(12,0,0,12,121.2,813.7)" />
<use xlink:href="#f1_x" transform="matrix(12,0,0,12,127.7,813.7)" />
<use xlink:href="#f1_c" transform="matrix(12,0,0,12,136.6,813.7)" />
<use xlink:href="#f1_r" transform="matrix(12,0,0,12,147.7,813.7)" />
<use xlink:href="#f1_o" transform="matrix(12,0,0,12,165.1,813.7)" />
<use xlink:href="#f1_g" transform="matrix(12,0,0,12,175.2,813.7)" />
<use xlink:href="#f1_h" transform="matrix(12,0,0,12,186.5,813.7)" />
<use xlink:href="#f1_4" transform="matrix(12,0,0,12,203.9,813.7)" />
<use xlink:href="#f1_i" transform="matrix(12,0,0,12,215.2,813.7)" />
<use xlink:href="#f1_4" transform="matrix(12,0,0,12,220.3,813.7)" />
<use xlink:href="#f1_o" transform="matrix(12,0,0,12,231.5,813.7)" />
<use xlink:href="#f1_a" transform="matrix(12,0,0,12,241.6,813.7)" />
<use xlink:href="#f1_a" transform="matrix(12,0,0,12,254.6,813.7)" />
<use xlink:href="#f1_c" transform="matrix(12,0,0,12,261.8,813.7)" />
<use xlink:href="#f1_3" transform="matrix(12,0,0,12,278.9,813.7)" />
<use xlink:href="#f1_g" transform="matrix(12,0,0,12,290.5,813.7)" />
<use xlink:href="#f1_k" transform="matrix(12,0,0,12,301.8,813.7)" />
<use xlink:href="#f1_4" transform="matrix(12,0,0,12,312.5,813.7)" />
<use xlink:href="#f1_g" transform="matrix(12,0,0,12,329.7,813.7)" />
<use xlink:href="#f1_i" transform="matrix(12,0,0,12,340.9,813.7)" />
<use xlink:href="#f1_i" transform="matrix(12,0,0,12,345.9,813.7)" />
<use xlink:href="#f1_c" transform="matrix(12,0,0,12,356.9,813.7)" />
<use xlink:href="#f1_6" transform="matrix(12,0,0,12,368,813.7)" />
<use xlink:href="#f1_t" transform="matrix(12,0,0,12,380.4,813.7)" />
<use xlink:href="#f1_c" transform="matrix(12,0,0,12,391.2,813.7)" />
<use xlink:href="#f1_r" transform="matrix(12,0,0,12,402.4,813.7)" />
<use xlink:href="#f1_8" transform="matrix(12,0,0,12,414,813.7)" />
<use xlink:href="#f1_g" transform="matrix(12,0,0,12,427.4,813.7)" />
<use xlink:href="#f1_b" transform="matrix(12,0,0,12,438.6,813.7)" />
<use xlink:href="#f1_b" transform="matrix(12,0,0,12,450.2,813.7)" />
<use xlink:href="#f1_9" transform="matrix(12,0,0,12,461.8,813.7)" />
<use xlink:href="#f1_9" transform="matrix(12,0,0,12,477.2,813.7)" />
<use xlink:href="#f1_3" transform="matrix(12,0,0,12,486.8,813.7)" />
<use xlink:href="#f1_g" transform="matrix(12,0,0,12,498.3,813.7)" />
<use xlink:href="#f1_8" transform="matrix(12,0,0,12,509.7,813.7)" />
<use xlink:href="#f1_4" transform="matrix(12,0,0,12,516.7,813.7)" />
<use xlink:href="#f1_a" transform="matrix(12,0,0,12,533.8,813.7)" />
<use xlink:href="#f1_3" transform="matrix(12,0,0,12,541,813.7)" />
<use xlink:href="#f1_4" transform="matrix(12,0,0,12,552.6,813.7)" />
<use xlink:href="#f1_9" transform="matrix(12,0,0,12,569.7,813.7)" />
<use xlink:href="#f1_g" transform="matrix(12,0,0,12,579.3,813.7)" />
<use xlink:href="#f1_p" transform="matrix(12,0,0,12,590.5,813.7)" />
<use xlink:href="#f1_4" transform="matrix(12,0,0,12,608.3,813.7)" />
<use xlink:href="#f1_9" transform="matrix(12,0,0,12,625.4,813.7)" />
<use xlink:href="#f1_4" transform="matrix(12,0,0,12,635,813.7)" />
<use xlink:href="#f1_4" transform="matrix(12,0,0,12,646.2,813.7)" />
<use xlink:href="#f1_j" transform="matrix(12,0,0,12,657.5,813.7)" />
<use xlink:href="#f1_b" transform="matrix(12,0,0,12,675,813.7)" />
<use xlink:href="#f1_8" transform="matrix(12,0,0,12,686.6,813.7)" />
<use xlink:href="#f1_4" transform="matrix(12,0,0,12,693.7,813.7)" />
<use xlink:href="#f1_6" transform="matrix(12,0,0,12,704.9,813.7)" />
<use xlink:href="#f1_7" transform="matrix(12,0,0,12,711.4,813.7)" />
<use xlink:href="#f1_14" transform="matrix(12,0,0,12,716.4,813.7)" />
<use xlink:href="#f1_q" transform="matrix(12,0,0,12,727.4,813.7)" />
<use xlink:href="#f1_7" transform="matrix(12,0,0,12,739,813.7)" />
<use xlink:href="#f1_6" transform="matrix(12,0,0,12,744.1,813.7)" />
<use xlink:href="#f1_t" transform="matrix(12,0,0,12,756.4,813.7)" />
<use xlink:href="#f1_c" transform="matrix(12,0,0,12,767.2,813.7)" />
<use xlink:href="#f1_r" transform="matrix(12,0,0,12,778.4,813.7)" />
<use xlink:href="#f1_y" transform="matrix(12,0,0,12,121.2,842.3)" />
<use xlink:href="#f1_g" transform="matrix(12,0,0,12,136.1,842.3)" />
<use xlink:href="#f1_h" transform="matrix(12,0,0,12,147.4,842.3)" />
<use xlink:href="#f1_a" transform="matrix(12,0,0,12,159,842.3)" />
<use xlink:href="#f1_a" transform="matrix(12,0,0,12,172,842.3)" />
<use xlink:href="#f1_c" transform="matrix(12,0,0,12,179.2,842.3)" />
<use xlink:href="#f1_9" transform="matrix(12,0,0,12,196.3,842.3)" />
<use xlink:href="#f1_3" transform="matrix(12,0,0,12,205.9,842.3)" />
<use xlink:href="#f1_g" transform="matrix(12,0,0,12,217.4,842.3)" />
<use xlink:href="#f1_8" transform="matrix(12,0,0,12,228.7,842.3)" />
<use xlink:href="#f1_4" transform="matrix(12,0,0,12,235.7,842.3)" />
<use xlink:href="#f1_10" transform="matrix(12,0,0,12,253,842.3)" />
<use xlink:href="#f1_4" transform="matrix(12,0,0,12,262.9,842.3)" />
<use xlink:href="#f1_t" transform="matrix(12,0,0,12,274.2,842.3)" />
<use xlink:href="#f1_o" transform="matrix(12,0,0,12,285,842.3)" />
<use xlink:href="#f1_3" transform="matrix(12,0,0,12,295.1,842.3)" />
<use xlink:href="#f1_g" transform="matrix(12,0,0,12,306.5,842.3)" />
<use xlink:href="#f1_7" transform="matrix(12,0,0,12,317.8,842.3)" />
<use xlink:href="#f1_h" transform="matrix(12,0,0,12,322.9,842.3)" />
<use xlink:href="#f1_7" transform="matrix(12,0,0,12,340.4,842.3)" />
<use xlink:href="#f1_h" transform="matrix(12,0,0,12,345.5,842.3)" />
<use xlink:href="#f1_6" transform="matrix(12,0,0,12,357.1,842.3)" />
<use xlink:href="#f1_c" transform="matrix(12,0,0,12,363.6,842.3)" />
<use xlink:href="#f1_8" transform="matrix(12,0,0,12,374.8,842.3)" />
<use xlink:href="#f1_p" transform="matrix(12,0,0,12,382,842.3)" />
<use xlink:href="#f1_g" transform="matrix(12,0,0,12,399.8,842.3)" />
<use xlink:href="#f1_a" transform="matrix(12,0,0,12,411.1,842.3)" />
<use xlink:href="#f1_7" transform="matrix(12,0,0,12,418.3,842.3)" />
<use xlink:href="#f1_c" transform="matrix(12,0,0,12,423.3,842.3)" />
<use xlink:href="#f1_h" transform="matrix(12,0,0,12,434.5,842.3)" />
<use xlink:href="#f1_n" transform="matrix(12,0,0,12,452.1,842.3)" />
<use xlink:href="#f1_4" transform="matrix(12,0,0,12,463.7,842.3)" />
<use xlink:href="#f1_a" transform="matrix(12,0,0,12,474.9,842.3)" />
<use xlink:href="#f1_y" transform="matrix(12,0,0,12,482.1,842.3)" />
<use xlink:href="#f1_4" transform="matrix(12,0,0,12,497.1,842.3)" />
<use xlink:href="#f1_4" transform="matrix(12,0,0,12,508.4,842.3)" />
<use xlink:href="#f1_h" transform="matrix(12,0,0,12,519.7,842.3)" />
<use xlink:href="#f1_a" transform="matrix(12,0,0,12,537.1,842.3)" />
<use xlink:href="#f1_3" transform="matrix(12,0,0,12,544.3,842.3)" />
<use xlink:href="#f1_4" transform="matrix(12,0,0,12,555.9,842.3)" />
<use xlink:href="#f1_p" transform="matrix(12,0,0,12,567.2,842.3)" />
<use xlink:href="#f1_l" transform="matrix(12,0,0,12,585.1,842.3)" />
<use xlink:href="#f1_e" transform="matrix(12,0,0,12,596.7,842.3)" />
<use xlink:href="#f1_g" transform="matrix(12,0,0,12,608.3,842.3)" />
<use xlink:href="#f1_t" transform="matrix(12,0,0,12,619.6,842.3)" />
<use xlink:href="#f1_t" transform="matrix(12,0,0,12,636.2,842.3)" />
<use xlink:href="#f1_c" transform="matrix(12,0,0,12,647.1,842.3)" />
<use xlink:href="#f1_r" transform="matrix(12,0,0,12,658.2,842.3)" />
<use xlink:href="#f1_3" transform="matrix(12,0,0,12,675.8,842.3)" />
<use xlink:href="#f1_g" transform="matrix(12,0,0,12,687.2,842.3)" />
<use xlink:href="#f1_k" transform="matrix(12,0,0,12,698.5,842.3)" />
<use xlink:href="#f1_4" transform="matrix(12,0,0,12,709.4,842.3)" />
<use xlink:href="#f1_g" transform="matrix(12,0,0,12,726.5,842.3)" />
<use xlink:href="#f1_9" transform="matrix(12,0,0,12,743.6,842.3)" />
<use xlink:href="#f1_r" transform="matrix(12,0,0,12,753.2,842.3)" />
<use xlink:href="#f1_7" transform="matrix(12,0,0,12,764.8,842.3)" />
<use xlink:href="#f1_a" transform="matrix(12,0,0,12,769.8,842.3)" />
<use xlink:href="#f1_4" transform="matrix(12,0,0,12,777,842.3)" />
<use xlink:href="#f1_c" transform="matrix(12,0,0,12,794.1,842.3)" />
<use xlink:href="#f1_6" transform="matrix(12,0,0,12,805.3,842.3)" />
<use xlink:href="#f1_g" transform="matrix(12,0,0,12,121.2,871)" />
<use xlink:href="#f1_b" transform="matrix(12,0,0,12,132.4,871)" />
<use xlink:href="#f1_b" transform="matrix(12,0,0,12,144.1,871)" />
<use xlink:href="#f1_9" transform="matrix(12,0,0,12,155.7,871)" />
<use xlink:href="#f1_a" transform="matrix(12,0,0,12,171.1,871)" />
<use xlink:href="#f1_3" transform="matrix(12,0,0,12,178.3,871)" />
<use xlink:href="#f1_g" transform="matrix(12,0,0,12,189.7,871)" />
<use xlink:href="#f1_a" transform="matrix(12,0,0,12,201,871)" />
<use xlink:href="#f1_g" transform="matrix(12,0,0,12,214.1,871)" />
<use xlink:href="#f1_i" transform="matrix(12,0,0,12,225.4,871)" />
<use xlink:href="#f1_i" transform="matrix(12,0,0,12,230.5,871)" />
<use xlink:href="#f1_p" transform="matrix(12,0,0,12,241.3,871)" />
<use xlink:href="#f1_g" transform="matrix(12,0,0,12,259.2,871)" />
<use xlink:href="#f1_10" transform="matrix(12,0,0,12,270.3,871)" />
<use xlink:href="#f1_4" transform="matrix(12,0,0,12,280.4,871)" />
<use xlink:href="#f1_r" transform="matrix(12,0,0,12,297.5,871)" />
<use xlink:href="#f1_9" transform="matrix(12,0,0,12,309,871)" />
<use xlink:href="#f1_4" transform="matrix(12,0,0,12,318.6,871)" />
<use xlink:href="#f1_c" transform="matrix(12,0,0,12,335.7,871)" />
<use xlink:href="#f1_6" transform="matrix(12,0,0,12,346.8,871)" />
<use xlink:href="#f1_a" transform="matrix(12,0,0,12,359.2,871)" />
<use xlink:href="#f1_3" transform="matrix(12,0,0,12,366.4,871)" />
<use xlink:href="#f1_4" transform="matrix(12,0,0,12,378,871)" />
<use xlink:href="#f1_9" transform="matrix(12,0,0,12,395.1,871)" />
<use xlink:href="#f1_g" transform="matrix(12,0,0,12,404.7,871)" />
<use xlink:href="#f1_p" transform="matrix(12,0,0,12,415.8,871)" />
<use xlink:href="#f1_4" transform="matrix(12,0,0,12,433.7,871)" />
<use xlink:href="#f1_y" transform="matrix(12,0,0,12,450.8,871)" />
<use xlink:href="#f1_4" transform="matrix(12,0,0,12,465.8,871)" />
<use xlink:href="#f1_n" transform="matrix(12,0,0,12,477.1,871)" />
<use xlink:href="#f1_9" transform="matrix(12,0,0,12,488.7,871)" />
<use xlink:href="#f1_7" transform="matrix(12,0,0,12,498.3,871)" />
<use xlink:href="#f1_a" transform="matrix(12,0,0,12,503.3,871)" />
<use xlink:href="#f1_4" transform="matrix(12,0,0,12,510.5,871)" />
<use xlink:href="#f1_k" transform="matrix(12,0,0,12,527.6,871)" />
<use xlink:href="#f1_7" transform="matrix(12,0,0,12,538.5,871)" />
<use xlink:href="#f1_g" transform="matrix(12,0,0,12,543.5,871)" />
<use xlink:href="#f1_g" transform="matrix(12,0,0,12,560.6,871)" />
<use xlink:href="#f1_i" transform="matrix(12,0,0,12,577.7,871)" />
<use xlink:href="#f1_c" transform="matrix(12,0,0,12,582.7,871)" />
<use xlink:href="#f1_f" transform="matrix(12,0,0,12,593.9,871)" />
<use xlink:href="#f1_7" transform="matrix(12,0,0,12,605.6,871)" />
<use xlink:href="#f1_h" transform="matrix(12,0,0,12,610.7,871)" />
<use xlink:href="#f1_l" transform="matrix(12,0,0,12,622.3,871)" />
<use xlink:href="#f1_z" transform="matrix(12,0,0,12,634,871)" />
<use xlink:href="#f1_6" transform="matrix(12,0,0,12,639.4,871)" />
<use xlink:href="#f1_a" transform="matrix(12,0,0,12,651.6,871)" />
<use xlink:href="#f1_3" transform="matrix(12,0,0,12,658.8,871)" />
<use xlink:href="#f1_4" transform="matrix(12,0,0,12,670.4,871)" />
<use xlink:href="#f1_g" transform="matrix(12,0,0,12,687.7,871)" />
<use xlink:href="#f1_b" transform="matrix(12,0,0,12,698.8,871)" />
<use xlink:href="#f1_b" transform="matrix(12,0,0,12,710.4,871)" />
<use xlink:href="#f1_9" transform="matrix(12,0,0,12,722,871)" />
<use xlink:href="#f1_9" transform="matrix(12,0,0,12,737.4,871)" />
<use xlink:href="#f1_3" transform="matrix(12,0,0,12,747,871)" />
<use xlink:href="#f1_g" transform="matrix(12,0,0,12,758.5,871)" />
<use xlink:href="#f1_8" transform="matrix(12,0,0,12,769.8,871)" />
<use xlink:href="#f1_4" transform="matrix(12,0,0,12,776.8,871)" />
<use xlink:href="#f1_a" transform="matrix(12,0,0,12,121.2,899.6)" />
<use xlink:href="#f1_3" transform="matrix(12,0,0,12,128.3,899.6)" />
<use xlink:href="#f1_4" transform="matrix(12,0,0,12,139.9,899.6)" />
<use xlink:href="#f1_9" transform="matrix(12,0,0,12,157,899.6)" />
<use xlink:href="#f1_g" transform="matrix(12,0,0,12,166.7,899.6)" />
<use xlink:href="#f1_p" transform="matrix(12,0,0,12,177.8,899.6)" />
<use xlink:href="#f1_4" transform="matrix(12,0,0,12,195.7,899.6)" />
<use xlink:href="#f1_9" transform="matrix(12,0,0,12,212.8,899.6)" />
<use xlink:href="#f1_4" transform="matrix(12,0,0,12,222.4,899.6)" />
<use xlink:href="#f1_4" transform="matrix(12,0,0,12,233.7,899.6)" />
<use xlink:href="#f1_j" transform="matrix(12,0,0,12,245,899.6)" />
<use xlink:href="#f1_b" transform="matrix(12,0,0,12,262.4,899.6)" />
<use xlink:href="#f1_8" transform="matrix(12,0,0,12,274,899.6)" />
<use xlink:href="#f1_4" transform="matrix(12,0,0,12,281,899.6)" />
<use xlink:href="#f1_6" transform="matrix(12,0,0,12,292.3,899.6)" />
<use xlink:href="#f1_7" transform="matrix(12,0,0,12,298.8,899.6)" />
<use xlink:href="#f1_14" transform="matrix(12,0,0,12,303.9,899.6)" />
<use xlink:href="#f1_q" transform="matrix(12,0,0,12,314.7,899.6)" />
<use xlink:href="#f1_g" transform="matrix(12,0,0,12,326.3,899.6)" />
<use xlink:href="#f1_h" transform="matrix(12,0,0,12,337.6,899.6)" />
<use xlink:href="#f1_j" transform="matrix(12,0,0,12,349.2,899.6)" />
<use xlink:href="#f1_c" transform="matrix(12,0,0,12,366.7,899.6)" />
<use xlink:href="#f1_h" transform="matrix(12,0,0,12,377.8,899.6)" />
<use xlink:href="#f1_4" transform="matrix(12,0,0,12,389.4,899.6)" />
<use xlink:href="#f1_g" transform="matrix(12,0,0,12,406.7,899.6)" />
<use xlink:href="#f1_b" transform="matrix(12,0,0,12,418,899.6)" />
<use xlink:href="#f1_b" transform="matrix(12,0,0,12,429.6,899.6)" />
<use xlink:href="#f1_9" transform="matrix(12,0,0,12,447,899.6)" />
<use xlink:href="#f1_g" transform="matrix(12,0,0,12,456.5,899.6)" />
<use xlink:href="#f1_k" transform="matrix(12,0,0,12,467.7,899.6)" />
<use xlink:href="#f1_4" transform="matrix(12,0,0,12,478.6,899.6)" />
<use xlink:href="#f1_9" transform="matrix(12,0,0,12,489.7,899.6)" />
<use xlink:href="#f1_a" transform="matrix(12,0,0,12,505.1,899.6)" />
<use xlink:href="#f1_3" transform="matrix(12,0,0,12,512.3,899.6)" />
<use xlink:href="#f1_4" transform="matrix(12,0,0,12,523.9,899.6)" />
<use xlink:href="#f1_r" transform="matrix(12,0,0,12,541.2,899.6)" />
<use xlink:href="#f1_9" transform="matrix(12,0,0,12,552.6,899.6)" />
<use xlink:href="#f1_4" transform="matrix(12,0,0,12,562.2,899.6)" />
<use xlink:href="#f1_8" transform="matrix(12,0,0,12,573.5,899.6)" />
<use xlink:href="#f1_11" transform="matrix(12,0,0,12,581,899.6)" />
<use xlink:href="#f1_9" transform="matrix(12,0,0,12,586.8,899.6)" />
<use xlink:href="#f1_i" transform="matrix(12,0,0,12,602.2,899.6)" />
<use xlink:href="#f1_c" transform="matrix(12,0,0,12,607.3,899.6)" />
<use xlink:href="#f1_f" transform="matrix(12,0,0,12,618.6,899.6)" />
<use xlink:href="#f1_7" transform="matrix(12,0,0,12,630.2,899.6)" />
<use xlink:href="#f1_h" transform="matrix(12,0,0,12,635.2,899.6)" />
<use xlink:href="#f1_7" transform="matrix(12,0,0,12,652.8,899.6)" />
<use xlink:href="#f1_h" transform="matrix(12,0,0,12,657.8,899.6)" />
<use xlink:href="#f1_6" transform="matrix(12,0,0,12,669.4,899.6)" />
<use xlink:href="#f1_c" transform="matrix(12,0,0,12,675.8,899.6)" />
<use xlink:href="#f1_8" transform="matrix(12,0,0,12,687,899.6)" />
<use xlink:href="#f1_p" transform="matrix(12,0,0,12,694.2,899.6)" />
<use xlink:href="#f1_g" transform="matrix(12,0,0,12,712,899.6)" />
<use xlink:href="#f1_a" transform="matrix(12,0,0,12,723.3,899.6)" />
<use xlink:href="#f1_7" transform="matrix(12,0,0,12,730.5,899.6)" />
<use xlink:href="#f1_c" transform="matrix(12,0,0,12,735.7,899.6)" />
<use xlink:href="#f1_h" transform="matrix(12,0,0,12,746.8,899.6)" />
<use xlink:href="#f1_a" transform="matrix(12,0,0,12,764.2,899.6)" />
<use xlink:href="#f1_c" transform="matrix(12,0,0,12,771.4,899.6)" />
<use xlink:href="#f1_a" transform="matrix(12,0,0,12,788.5,899.6)" />
<use xlink:href="#f1_3" transform="matrix(12,0,0,12,795.7,899.6)" />
<use xlink:href="#f1_4" transform="matrix(12,0,0,12,807.3,899.6)" />
<use xlink:href="#f1_7" transform="matrix(12,0,0,12,121.2,928.3)" />
<use xlink:href="#f1_13" transform="matrix(12,0,0,12,126.3,928.3)" />
<use xlink:href="#f1_e" transform="matrix(12,0,0,12,140.7,928.3)" />
<use xlink:href="#f1_10" transform="matrix(12,0,0,12,158.1,928.3)" />
<use xlink:href="#f1_4" transform="matrix(12,0,0,12,168.2,928.3)" />
<use xlink:href="#f1_t" transform="matrix(12,0,0,12,179.3,928.3)" />
<use xlink:href="#f1_o" transform="matrix(12,0,0,12,190.2,928.3)" />
<use xlink:href="#f1_3" transform="matrix(12,0,0,12,200.2,928.3)" />
<use xlink:href="#f1_g" transform="matrix(12,0,0,12,211.8,928.3)" />
<use xlink:href="#f1_7" transform="matrix(12,0,0,12,223.1,928.3)" />
<use xlink:href="#f1_h" transform="matrix(12,0,0,12,228.2,928.3)" />
<use xlink:href="#f1_q" transform="matrix(12,0,0,12,239.8,928.3)" />
<use xlink:href="#f1_g" transform="matrix(12,0,0,12,251.5,928.3)" />
<use xlink:href="#f1_h" transform="matrix(12,0,0,12,262.7,928.3)" />
<use xlink:href="#f1_t" transform="matrix(12,0,0,12,274.3,928.3)" />
<use xlink:href="#f1_c" transform="matrix(12,0,0,12,291,928.3)" />
<use xlink:href="#f1_a" transform="matrix(12,0,0,12,302.2,928.3)" />
<use xlink:href="#f1_3" transform="matrix(12,0,0,12,309.4,928.3)" />
<use xlink:href="#f1_4" transform="matrix(12,0,0,12,321,928.3)" />
<use xlink:href="#f1_8" transform="matrix(12,0,0,12,332.3,928.3)" />
<use xlink:href="#f1_g" transform="matrix(12,0,0,12,345.6,928.3)" />
<use xlink:href="#f1_b" transform="matrix(12,0,0,12,356.9,928.3)" />
<use xlink:href="#f1_b" transform="matrix(12,0,0,12,368.5,928.3)" />
<use xlink:href="#f1_7" transform="matrix(12,0,0,12,385.9,928.3)" />
<use xlink:href="#f1_h" transform="matrix(12,0,0,12,390.9,928.3)" />
<use xlink:href="#f1_a" transform="matrix(12,0,0,12,408.5,928.3)" />
<use xlink:href="#f1_3" transform="matrix(12,0,0,12,415.7,928.3)" />
<use xlink:href="#f1_4" transform="matrix(12,0,0,12,427.3,928.3)" />
<use xlink:href="#f1_9" transform="matrix(12,0,0,12,444.4,928.3)" />
<use xlink:href="#f1_r" transform="matrix(12,0,0,12,454,928.3)" />
<use xlink:href="#f1_7" transform="matrix(12,0,0,12,465.6,928.3)" />
<use xlink:href="#f1_a" transform="matrix(12,0,0,12,470.6,928.3)" />
<use xlink:href="#f1_4" transform="matrix(12,0,0,12,477.8,928.3)" />
<use xlink:href="#f1_o" transform="matrix(12,0,0,12,494.9,928.3)" />
<use xlink:href="#f1_g" transform="matrix(12,0,0,12,505,928.3)" />
<use xlink:href="#f1_h" transform="matrix(12,0,0,12,516.3,928.3)" />
<use xlink:href="#f1_f" transform="matrix(12,0,0,12,533.7,928.3)" />
<use xlink:href="#f1_4" transform="matrix(12,0,0,12,545.3,928.3)" />
<use xlink:href="#f1_a" transform="matrix(12,0,0,12,556.6,928.3)" />
<use xlink:href="#f1_a" transform="matrix(12,0,0,12,569.6,928.3)" />
<use xlink:href="#f1_3" transform="matrix(12,0,0,12,576.8,928.3)" />
<use xlink:href="#f1_7" transform="matrix(12,0,0,12,588.4,928.3)" />
<use xlink:href="#f1_9" transform="matrix(12,0,0,12,593.4,928.3)" />
<use xlink:href="#f1_i" transform="matrix(12,0,0,12,608.9,928.3)" />
<use xlink:href="#f1_c" transform="matrix(12,0,0,12,614,928.3)" />
<use xlink:href="#f1_f" transform="matrix(12,0,0,12,625.2,928.3)" />
<use xlink:href="#f1_7" transform="matrix(12,0,0,12,636.8,928.3)" />
<use xlink:href="#f1_h" transform="matrix(12,0,0,12,641.8,928.3)" />
<use xlink:href="#f1_7" transform="matrix(12,0,0,12,659.4,928.3)" />
<use xlink:href="#f1_h" transform="matrix(12,0,0,12,664.4,928.3)" />
<use xlink:href="#f1_6" transform="matrix(12,0,0,12,676,928.3)" />
<use xlink:href="#f1_c" transform="matrix(12,0,0,12,682.4,928.3)" />
<use xlink:href="#f1_8" transform="matrix(12,0,0,12,693.7,928.3)" />
<use xlink:href="#f1_p" transform="matrix(12,0,0,12,700.9,928.3)" />
<use xlink:href="#f1_g" transform="matrix(12,0,0,12,718.8,928.3)" />
<use xlink:href="#f1_a" transform="matrix(12,0,0,12,730.1,928.3)" />
<use xlink:href="#f1_7" transform="matrix(12,0,0,12,737.3,928.3)" />
<use xlink:href="#f1_c" transform="matrix(12,0,0,12,742.3,928.3)" />
<use xlink:href="#f1_h" transform="matrix(12,0,0,12,753.5,928.3)" />
<use xlink:href="#f1_6" transform="matrix(12,0,0,12,771,928.3)" />
<use xlink:href="#f1_8" transform="matrix(12,0,0,12,777.4,928.3)" />
<use xlink:href="#f1_c" transform="matrix(12,0,0,12,784.6,928.3)" />
<use xlink:href="#f1_p" transform="matrix(12,0,0,12,795.8,928.3)" />
<use xlink:href="#f1_a" transform="matrix(12,0,0,12,121.2,956.8)" />
<use xlink:href="#f1_3" transform="matrix(12,0,0,12,128.3,956.8)" />
<use xlink:href="#f1_4" transform="matrix(12,0,0,12,139.9,956.8)" />
<use xlink:href="#f1_10" transform="matrix(12,0,0,12,157,956.8)" />
<use xlink:href="#f1_4" transform="matrix(12,0,0,12,167.1,956.8)" />
<use xlink:href="#f1_t" transform="matrix(12,0,0,12,178.4,956.8)" />
<use xlink:href="#f1_o" transform="matrix(12,0,0,12,189.3,956.8)" />
<use xlink:href="#f1_3" transform="matrix(12,0,0,12,199.3,956.8)" />
<use xlink:href="#f1_g" transform="matrix(12,0,0,12,210.8,956.8)" />
<use xlink:href="#f1_7" transform="matrix(12,0,0,12,222.1,956.8)" />
<use xlink:href="#f1_h" transform="matrix(12,0,0,12,227.1,956.8)" />
<use xlink:href="#f1_l" transform="matrix(12,0,0,12,238.7,956.8)" />
<use xlink:href="#f2_2" transform="matrix(12,0,0,12,121.2,997)" />
<use xlink:href="#f1_x" transform="matrix(12,0,0,12,127.7,997)" />
<use xlink:href="#f1_c" transform="matrix(12,0,0,12,136.6,997)" />
<use xlink:href="#f1_r" transform="matrix(12,0,0,12,147.7,997)" />
<use xlink:href="#f1_o" transform="matrix(12,0,0,12,165.1,997)" />
<use xlink:href="#f1_g" transform="matrix(12,0,0,12,175.2,997)" />
<use xlink:href="#f1_h" transform="matrix(12,0,0,12,186.5,997)" />
<use xlink:href="#f1_o" transform="matrix(12,0,0,12,203.9,997)" />
<use xlink:href="#f1_8" transform="matrix(12,0,0,12,214,997)" />
<use xlink:href="#f1_4" transform="matrix(12,0,0,12,221,997)" />
<use xlink:href="#f1_g" transform="matrix(12,0,0,12,232.3,997)" />
<use xlink:href="#f1_a" transform="matrix(12,0,0,12,243.6,997)" />
<use xlink:href="#f1_4" transform="matrix(12,0,0,12,250.8,997)" />
<use xlink:href="#f1_a" transform="matrix(12,0,0,12,267.9,997)" />
<use xlink:href="#f1_y" transform="matrix(12,0,0,12,275.1,997)" />
<use xlink:href="#f1_c" transform="matrix(12,0,0,12,290,997)" />
<use xlink:href="#f1_j" transform="matrix(12,0,0,12,307.2,997)" />
<use xlink:href="#f1_7" transform="matrix(12,0,0,12,318.8,997)" />
<use xlink:href="#f1_6" transform="matrix(12,0,0,12,323.8,997)" />
<use xlink:href="#f1_6" transform="matrix(12,0,0,12,330.3,997)" />
<use xlink:href="#f1_4" transform="matrix(12,0,0,12,336.8,997)" />
<use xlink:href="#f1_8" transform="matrix(12,0,0,12,348.1,997)" />
<use xlink:href="#f1_4" transform="matrix(12,0,0,12,355.1,997)" />
<use xlink:href="#f1_h" transform="matrix(12,0,0,12,366.4,997)" />
<use xlink:href="#f1_a" transform="matrix(12,0,0,12,378,997)" />
<use xlink:href="#f1_a" transform="matrix(12,0,0,12,391.1,997)" />
<use xlink:href="#f1_t" transform="matrix(12,0,0,12,398.3,997)" />
<use xlink:href="#f1_b" transform="matrix(12,0,0,12,409.1,997)" />
<use xlink:href="#f1_4" transform="matrix(12,0,0,12,420.7,997)" />
<use xlink:href="#f1_9" transform="matrix(12,0,0,12,431.9,997)" />
<use xlink:href="#f1_c" transform="matrix(12,0,0,12,447.3,997)" />
<use xlink:href="#f1_6" transform="matrix(12,0,0,12,458.6,997)" />
<use xlink:href="#f1_d" transform="matrix(12,0,0,12,470.8,997)" />
<use xlink:href="#f1_b" transform="matrix(12,0,0,12,483.3,997)" />
<use xlink:href="#f1_b" transform="matrix(12,0,0,12,494.9,997)" />
<use xlink:href="#f1_z" transform="matrix(12,0,0,12,512.5,997)" />
<use xlink:href="#f1_15" transform="matrix(12,0,0,12,517.9,997)" />
<use xlink:href="#f1_12" transform="matrix(12,0,0,12,532,997)" />
<use xlink:href="#f1_g" transform="matrix(12,0,0,12,544,997)" />
<use xlink:href="#f1_h" transform="matrix(12,0,0,12,555.3,997)" />
</g>
<g fill="#0000FF" >
<use xlink:href="#f0_w" transform="matrix(12,0,0,12,572.9,997)" />
<use xlink:href="#f0_15" transform="matrix(12,0,0,12,585.4,997)" />
<use xlink:href="#f0_i" transform="matrix(12,0,0,12,597.2,997)" />
<use xlink:href="#f0_j" transform="matrix(12,0,0,12,610.3,997)" />
<use xlink:href="#f0_5" transform="matrix(12,0,0,12,616.6,997)" />
<use xlink:href="#f0_e" transform="matrix(12,0,0,12,623,997)" />
<use xlink:href="#f0_5" transform="matrix(12,0,0,12,633.9,997)" />
<use xlink:href="#f0_4" transform="matrix(12,0,0,12,640.1,997)" />
<use xlink:href="#f0_d" transform="matrix(12,0,0,12,655.2,997)" />
<use xlink:href="#f0_i" transform="matrix(12,0,0,12,669.4,997)" />
<use xlink:href="#f0_i" transform="matrix(12,0,0,12,682.6,997)" />
<use xlink:href="#f0_k" transform="matrix(12,0,0,12,702.1,997)" />
<use xlink:href="#f0_l" transform="matrix(12,0,0,12,708.8,997)" />
</g>
<g fill="#000000" >
<use xlink:href="#f1_q" transform="matrix(12,0,0,12,724.2,997)" />
<use xlink:href="#f1_c" transform="matrix(12,0,0,12,735.9,997)" />
<use xlink:href="#f1_8" transform="matrix(12,0,0,12,747.1,997)" />
<use xlink:href="#f1_g" transform="matrix(12,0,0,12,760.5,997)" />
</g>
<g fill="#0000FF" >
<use xlink:href="#f0_1i" transform="matrix(12,0,0,12,121.2,1025.6)" />
<use xlink:href="#f0_5" transform="matrix(12,0,0,12,141.3,1025.6)" />
<use xlink:href="#f0_j" transform="matrix(12,0,0,12,147.6,1025.6)" />
<use xlink:href="#f0_c" transform="matrix(12,0,0,12,153.9,1025.6)" />
<use xlink:href="#f0_e" transform="matrix(12,0,0,12,167.1,1025.6)" />
<use xlink:href="#f0_a" transform="matrix(12,0,0,12,178,1025.6)" />
<use xlink:href="#f0_b" transform="matrix(12,0,0,12,190.3,1025.6)" />
<use xlink:href="#f0_c" transform="matrix(12,0,0,12,199.4,1025.6)" />
<use xlink:href="#f0_d" transform="matrix(12,0,0,12,218.9,1025.6)" />
<use xlink:href="#f0_i" transform="matrix(12,0,0,12,233.1,1025.6)" />
<use xlink:href="#f0_i" transform="matrix(12,0,0,12,246.2,1025.6)" />
<use xlink:href="#f0_k" transform="matrix(12,0,0,12,265.6,1025.6)" />
<use xlink:href="#f0_l" transform="matrix(12,0,0,12,272.5,1025.6)" />
</g>
<g fill="#000000" >
<use xlink:href="#f1_l" transform="matrix(12,0,0,12,287.8,1025.6)" />
<use xlink:href="#f1_1h" transform="matrix(12,0,0,12,299.5,1025.6)" />
<use xlink:href="#f1_14" transform="matrix(12,0,0,12,311,1025.6)" />
<use xlink:href="#f1_b" transform="matrix(12,0,0,12,321.9,1025.6)" />
<use xlink:href="#f1_i" transform="matrix(12,0,0,12,333.5,1025.6)" />
<use xlink:href="#f1_7" transform="matrix(12,0,0,12,338.5,1025.6)" />
<use xlink:href="#f1_o" transform="matrix(12,0,0,12,343.6,1025.6)" />
<use xlink:href="#f1_7" transform="matrix(12,0,0,12,353.8,1025.6)" />
<use xlink:href="#f1_a" transform="matrix(12,0,0,12,358.8,1025.6)" />
<use xlink:href="#f1_d" transform="matrix(12,0,0,12,371.8,1025.6)" />
<use xlink:href="#f1_b" transform="matrix(12,0,0,12,384.3,1025.6)" />
<use xlink:href="#f1_b" transform="matrix(12,0,0,12,395.9,1025.6)" />
<use xlink:href="#f1_z" transform="matrix(12,0,0,12,413.5,1025.6)" />
<use xlink:href="#f1_15" transform="matrix(12,0,0,12,418.9,1025.6)" />
<use xlink:href="#f1_9" transform="matrix(12,0,0,12,432.9,1025.6)" />
<use xlink:href="#f1_p" transform="matrix(12,0,0,12,448.3,1025.6)" />
<use xlink:href="#f1_r" transform="matrix(12,0,0,12,466.2,1025.6)" />
<use xlink:href="#f1_9" transform="matrix(12,0,0,12,477.8,1025.6)" />
<use xlink:href="#f1_a" transform="matrix(12,0,0,12,487.4,1025.6)" />
<use xlink:href="#f1_n" transform="matrix(12,0,0,12,500.4,1025.6)" />
<use xlink:href="#f1_4" transform="matrix(12,0,0,12,512,1025.6)" />
<use xlink:href="#f1_r" transform="matrix(12,0,0,12,529.1,1025.6)" />
<use xlink:href="#f1_9" transform="matrix(12,0,0,12,540.7,1025.6)" />
<use xlink:href="#f1_4" transform="matrix(12,0,0,12,550.3,1025.6)" />
<use xlink:href="#f1_j" transform="matrix(12,0,0,12,561.6,1025.6)" />
<use xlink:href="#f1_y" transform="matrix(12,0,0,12,579,1025.6)" />
<use xlink:href="#f1_3" transform="matrix(12,0,0,12,594,1025.6)" />
<use xlink:href="#f1_4" transform="matrix(12,0,0,12,605.6,1025.6)" />
<use xlink:href="#f1_h" transform="matrix(12,0,0,12,616.9,1025.6)" />
<use xlink:href="#f1_t" transform="matrix(12,0,0,12,634.3,1025.6)" />
<use xlink:href="#f1_c" transform="matrix(12,0,0,12,645.2,1025.6)" />
<use xlink:href="#f1_r" transform="matrix(12,0,0,12,656.3,1025.6)" />
<use xlink:href="#f1_y" transform="matrix(12,0,0,12,673.9,1025.6)" />
<use xlink:href="#f1_7" transform="matrix(12,0,0,12,688.9,1025.6)" />
<use xlink:href="#f1_9" transform="matrix(12,0,0,12,693.9,1025.6)" />
<use xlink:href="#f1_3" transform="matrix(12,0,0,12,703.5,1025.6)" />
<use xlink:href="#f1_a" transform="matrix(12,0,0,12,720.9,1025.6)" />
<use xlink:href="#f1_c" transform="matrix(12,0,0,12,728.1,1025.6)" />
<use xlink:href="#f1_7" transform="matrix(12,0,0,12,121.2,1054.3)" />
<use xlink:href="#f1_h" transform="matrix(12,0,0,12,126.2,1054.3)" />
<use xlink:href="#f1_o" transform="matrix(12,0,0,12,137.8,1054.3)" />
<use xlink:href="#f1_c" transform="matrix(12,0,0,12,148,1054.3)" />
<use xlink:href="#f1_8" transform="matrix(12,0,0,12,159.2,1054.3)" />
<use xlink:href="#f1_b" transform="matrix(12,0,0,12,166.6,1054.3)" />
<use xlink:href="#f1_c" transform="matrix(12,0,0,12,178.4,1054.3)" />
<use xlink:href="#f1_8" transform="matrix(12,0,0,12,189.5,1054.3)" />
<use xlink:href="#f1_g" transform="matrix(12,0,0,12,197,1054.3)" />
<use xlink:href="#f1_a" transform="matrix(12,0,0,12,208.3,1054.3)" />
<use xlink:href="#f1_4" transform="matrix(12,0,0,12,215.5,1054.3)" />
<use xlink:href="#f1_9" transform="matrix(12,0,0,12,232.6,1054.3)" />
<use xlink:href="#f1_4" transform="matrix(12,0,0,12,242.1,1054.3)" />
<use xlink:href="#f1_8" transform="matrix(12,0,0,12,253.4,1054.3)" />
<use xlink:href="#f1_k" transform="matrix(12,0,0,12,260.9,1054.3)" />
<use xlink:href="#f1_7" transform="matrix(12,0,0,12,271.7,1054.3)" />
<use xlink:href="#f1_o" transform="matrix(12,0,0,12,276.7,1054.3)" />
<use xlink:href="#f1_4" transform="matrix(12,0,0,12,286.8,1054.3)" />
<use xlink:href="#f1_9" transform="matrix(12,0,0,12,298.1,1054.3)" />
<use xlink:href="#f1_9" transform="matrix(12,0,0,12,313.5,1054.3)" />
<use xlink:href="#f1_r" transform="matrix(12,0,0,12,323.1,1054.3)" />
<use xlink:href="#f1_o" transform="matrix(12,0,0,12,334.7,1054.3)" />
<use xlink:href="#f1_3" transform="matrix(12,0,0,12,344.8,1054.3)" />
<use xlink:href="#f1_g" transform="matrix(12,0,0,12,362.2,1054.3)" />
<use xlink:href="#f1_9" transform="matrix(12,0,0,12,373.5,1054.3)" />
<use xlink:href="#f1_7" transform="matrix(12,0,0,12,388.8,1054.3)" />
<use xlink:href="#f1_h" transform="matrix(12,0,0,12,393.8,1054.3)" />
<use xlink:href="#f1_1n" transform="matrix(12,0,0,12,405.6,1054.3)" />
<use xlink:href="#f1_g" transform="matrix(12,0,0,12,412.1,1054.3)" />
<use xlink:href="#f1_b" transform="matrix(12,0,0,12,423.4,1054.3)" />
<use xlink:href="#f1_b" transform="matrix(12,0,0,12,435,1054.3)" />
<use xlink:href="#f1_b" transform="matrix(12,0,0,12,452.5,1054.3)" />
<use xlink:href="#f1_r" transform="matrix(12,0,0,12,464.1,1054.3)" />
<use xlink:href="#f1_8" transform="matrix(12,0,0,12,475.8,1054.3)" />
<use xlink:href="#f1_o" transform="matrix(12,0,0,12,482.8,1054.3)" />
<use xlink:href="#f1_3" transform="matrix(12,0,0,12,492.9,1054.3)" />
<use xlink:href="#f1_g" transform="matrix(12,0,0,12,504.5,1054.3)" />
<use xlink:href="#f1_9" transform="matrix(12,0,0,12,515.6,1054.3)" />
<use xlink:href="#f1_4" transform="matrix(12,0,0,12,525.3,1054.3)" />
<use xlink:href="#f1_9" transform="matrix(12,0,0,12,536.5,1054.3)" />
<use xlink:href="#f1_c" transform="matrix(12,0,0,12,552,1054.3)" />
<use xlink:href="#f1_8" transform="matrix(12,0,0,12,563.1,1054.3)" />
<use xlink:href="#f1_7" transform="matrix(12,0,0,12,576.5,1054.3)" />
<use xlink:href="#f1_18" transform="matrix(12,0,0,12,581.6,1054.3)" />
<use xlink:href="#f1_i" transform="matrix(12,0,0,12,594.4,1054.3)" />
<use xlink:href="#f1_c" transform="matrix(12,0,0,12,599.4,1054.3)" />
<use xlink:href="#f1_r" transform="matrix(12,0,0,12,610.6,1054.3)" />
<use xlink:href="#f1_j" transform="matrix(12,0,0,12,622.2,1054.3)" />
<use xlink:href="#f1_l" transform="matrix(12,0,0,12,633.8,1054.3)" />
<use xlink:href="#f1_1s" transform="matrix(12,0,0,12,645.5,1054.3)" />
<use xlink:href="#f1_7" transform="matrix(12,0,0,12,663.3,1054.3)" />
<use xlink:href="#f1_i" transform="matrix(12,0,0,12,668.3,1054.3)" />
<use xlink:href="#f1_j" transform="matrix(12,0,0,12,673.4,1054.3)" />
<use xlink:href="#f1_o" transform="matrix(12,0,0,12,685,1054.3)" />
<use xlink:href="#f1_g" transform="matrix(12,0,0,12,695,1054.3)" />
<use xlink:href="#f1_8" transform="matrix(12,0,0,12,706.3,1054.3)" />
<use xlink:href="#f1_j" transform="matrix(12,0,0,12,713.5,1054.3)" />
<use xlink:href="#f1_d" transform="matrix(12,0,0,12,731.1,1054.3)" />
<use xlink:href="#f1_b" transform="matrix(12,0,0,12,743.6,1054.3)" />
<use xlink:href="#f1_b" transform="matrix(12,0,0,12,755.2,1054.3)" />
<use xlink:href="#f1_z" transform="matrix(12,0,0,12,772.7,1054.3)" />
<use xlink:href="#f1_15" transform="matrix(12,0,0,12,778.1,1054.3)" />
<use xlink:href="#f1_9" transform="matrix(12,0,0,12,792.2,1054.3)" />
<use xlink:href="#f1_9" transform="matrix(12,0,0,12,121.2,1082.9)" />
<use xlink:href="#f1_3" transform="matrix(12,0,0,12,130.8,1082.9)" />
<use xlink:href="#f1_c" transform="matrix(12,0,0,12,142.4,1082.9)" />
<use xlink:href="#f1_r" transform="matrix(12,0,0,12,153.5,1082.9)" />
<use xlink:href="#f1_i" transform="matrix(12,0,0,12,165.1,1082.9)" />
<use xlink:href="#f1_j" transform="matrix(12,0,0,12,170.2,1082.9)" />
<use xlink:href="#f1_n" transform="matrix(12,0,0,12,187.7,1082.9)" />
<use xlink:href="#f1_4" transform="matrix(12,0,0,12,199.3,1082.9)" />
<use xlink:href="#f1_r" transform="matrix(12,0,0,12,216.4,1082.9)" />
<use xlink:href="#f1_9" transform="matrix(12,0,0,12,228,1082.9)" />
<use xlink:href="#f1_4" transform="matrix(12,0,0,12,237.6,1082.9)" />
<use xlink:href="#f1_j" transform="matrix(12,0,0,12,248.9,1082.9)" />
<use xlink:href="#f1_y" transform="matrix(12,0,0,12,266.4,1082.9)" />
<use xlink:href="#f1_3" transform="matrix(12,0,0,12,281.3,1082.9)" />
<use xlink:href="#f1_4" transform="matrix(12,0,0,12,292.9,1082.9)" />
<use xlink:href="#f1_h" transform="matrix(12,0,0,12,304.2,1082.9)" />
<use xlink:href="#f1_t" transform="matrix(12,0,0,12,321.6,1082.9)" />
<use xlink:href="#f1_c" transform="matrix(12,0,0,12,332.5,1082.9)" />
<use xlink:href="#f1_r" transform="matrix(12,0,0,12,343.6,1082.9)" />
<use xlink:href="#f1_y" transform="matrix(12,0,0,12,361.2,1082.9)" />
<use xlink:href="#f1_g" transform="matrix(12,0,0,12,376.2,1082.9)" />
<use xlink:href="#f1_h" transform="matrix(12,0,0,12,387.5,1082.9)" />
<use xlink:href="#f1_a" transform="matrix(12,0,0,12,399.1,1082.9)" />
<use xlink:href="#f1_a" transform="matrix(12,0,0,12,412.1,1082.9)" />
<use xlink:href="#f1_c" transform="matrix(12,0,0,12,419.3,1082.9)" />
<use xlink:href="#f1_r" transform="matrix(12,0,0,12,436.3,1082.9)" />
<use xlink:href="#f1_9" transform="matrix(12,0,0,12,447.8,1082.9)" />
<use xlink:href="#f1_4" transform="matrix(12,0,0,12,457.4,1082.9)" />
<use xlink:href="#f1_a" transform="matrix(12,0,0,12,474.5,1082.9)" />
<use xlink:href="#f1_3" transform="matrix(12,0,0,12,481.7,1082.9)" />
<use xlink:href="#f1_4" transform="matrix(12,0,0,12,493.3,1082.9)" />
<use xlink:href="#f1_9" transform="matrix(12,0,0,12,510.4,1082.9)" />
<use xlink:href="#f1_g" transform="matrix(12,0,0,12,520,1082.9)" />
<use xlink:href="#f1_p" transform="matrix(12,0,0,12,531.2,1082.9)" />
<use xlink:href="#f1_4" transform="matrix(12,0,0,12,549,1082.9)" />
<use xlink:href="#f1_d" transform="matrix(12,0,0,12,566.1,1082.9)" />
<use xlink:href="#f1_b" transform="matrix(12,0,0,12,578.6,1082.9)" />
<use xlink:href="#f1_b" transform="matrix(12,0,0,12,590.2,1082.9)" />
<use xlink:href="#f1_z" transform="matrix(12,0,0,12,607.8,1082.9)" />
<use xlink:href="#f1_15" transform="matrix(12,0,0,12,613.2,1082.9)" />
<use xlink:href="#f1_6" transform="matrix(12,0,0,12,633.2,1082.9)" />
<use xlink:href="#f1_c" transform="matrix(12,0,0,12,639.6,1082.9)" />
<use xlink:href="#f1_8" transform="matrix(12,0,0,12,650.7,1082.9)" />
<use xlink:href="#f1_p" transform="matrix(12,0,0,12,664.2,1082.9)" />
<use xlink:href="#f1_r" transform="matrix(12,0,0,12,682,1082.9)" />
<use xlink:href="#f1_i" transform="matrix(12,0,0,12,693.6,1082.9)" />
<use xlink:href="#f1_a" transform="matrix(12,0,0,12,698.7,1082.9)" />
<use xlink:href="#f1_7" transform="matrix(12,0,0,12,705.9,1082.9)" />
<use xlink:href="#f1_b" transform="matrix(12,0,0,12,710.9,1082.9)" />
<use xlink:href="#f1_i" transform="matrix(12,0,0,12,722.7,1082.9)" />
<use xlink:href="#f1_4" transform="matrix(12,0,0,12,727.7,1082.9)" />
<use xlink:href="#f1_g" transform="matrix(12,0,0,12,744.8,1082.9)" />
<use xlink:href="#f1_b" transform="matrix(12,0,0,12,756.1,1082.9)" />
<use xlink:href="#f1_b" transform="matrix(12,0,0,12,767.7,1082.9)" />
<use xlink:href="#f1_9" transform="matrix(12,0,0,12,779.3,1082.9)" />
<use xlink:href="#f1_l" transform="matrix(12,0,0,12,788.9,1082.9)" />
<use xlink:href="#f2_2" transform="matrix(12,0,0,12,121.2,1111.6)" />
<use xlink:href="#f1_z" transform="matrix(12,0,0,12,127.7,1111.6)" />
<use xlink:href="#f1_h" transform="matrix(12,0,0,12,133.1,1111.6)" />
<use xlink:href="#f1_g" transform="matrix(12,0,0,12,150.6,1111.6)" />
<use xlink:href="#f1_h" transform="matrix(12,0,0,12,161.9,1111.6)" />
<use xlink:href="#f1_1h" transform="matrix(12,0,0,12,179.3,1111.6)" />
<use xlink:href="#f1_14" transform="matrix(12,0,0,12,190.9,1111.6)" />
<use xlink:href="#f1_b" transform="matrix(12,0,0,12,201.8,1111.6)" />
<use xlink:href="#f1_i" transform="matrix(12,0,0,12,213.4,1111.6)" />
<use xlink:href="#f1_7" transform="matrix(12,0,0,12,218.4,1111.6)" />
<use xlink:href="#f1_o" transform="matrix(12,0,0,12,223.5,1111.6)" />
<use xlink:href="#f1_7" transform="matrix(12,0,0,12,233.5,1111.6)" />
<use xlink:href="#f1_a" transform="matrix(12,0,0,12,238.6,1111.6)" />
<use xlink:href="#f1_d" transform="matrix(12,0,0,12,251.7,1111.6)" />
<use xlink:href="#f1_b" transform="matrix(12,0,0,12,264.2,1111.6)" />
<use xlink:href="#f1_b" transform="matrix(12,0,0,12,275.8,1111.6)" />
<use xlink:href="#f1_z" transform="matrix(12,0,0,12,293.4,1111.6)" />
<use xlink:href="#f1_15" transform="matrix(12,0,0,12,298.7,1111.6)" />
<use xlink:href="#f1_q" transform="matrix(12,0,0,12,312.8,1111.6)" />
<use xlink:href="#f1_a" transform="matrix(12,0,0,12,324.5,1111.6)" />
<use xlink:href="#f1_3" transform="matrix(12,0,0,12,331.7,1111.6)" />
<use xlink:href="#f1_4" transform="matrix(12,0,0,12,343.3,1111.6)" />
<use xlink:href="#f1_1c" transform="matrix(12,0,0,12,360.4,1111.6)" />
<use xlink:href="#f1_r" transform="matrix(12,0,0,12,372.9,1111.6)" />
<use xlink:href="#f1_h" transform="matrix(12,0,0,12,384.6,1111.6)" />
<use xlink:href="#f1_j" transform="matrix(12,0,0,12,396.2,1111.6)" />
<use xlink:href="#f1_i" transform="matrix(12,0,0,12,407.8,1111.6)" />
<use xlink:href="#f1_4" transform="matrix(12,0,0,12,412.8,1111.6)" />
<use xlink:href="#f1_z" transform="matrix(12,0,0,12,430.1,1111.6)" />
<use xlink:href="#f1_15" transform="matrix(12,0,0,12,435.4,1111.6)" />
<use xlink:href="#f1_9" transform="matrix(12,0,0,12,455.4,1111.6)" />
<use xlink:href="#f1_4" transform="matrix(12,0,0,12,464.9,1111.6)" />
<use xlink:href="#f1_g" transform="matrix(12,0,0,12,476.2,1111.6)" />
<use xlink:href="#f1_8" transform="matrix(12,0,0,12,487.5,1111.6)" />
<use xlink:href="#f1_o" transform="matrix(12,0,0,12,494.5,1111.6)" />
<use xlink:href="#f1_3" transform="matrix(12,0,0,12,504.6,1111.6)" />
<use xlink:href="#f1_9" transform="matrix(12,0,0,12,522.1,1111.6)" />
<use xlink:href="#f1_a" transform="matrix(12,0,0,12,531.6,1111.6)" />
<use xlink:href="#f1_8" transform="matrix(12,0,0,12,538.8,1111.6)" />
<use xlink:href="#f1_7" transform="matrix(12,0,0,12,546.3,1111.6)" />
<use xlink:href="#f1_h" transform="matrix(12,0,0,12,551.3,1111.6)" />
<use xlink:href="#f1_f" transform="matrix(12,0,0,12,563,1111.6)" />
<use xlink:href="#f1_3" transform="matrix(12,0,0,12,580.5,1111.6)" />
<use xlink:href="#f1_g" transform="matrix(12,0,0,12,592.1,1111.6)" />
<use xlink:href="#f1_9" transform="matrix(12,0,0,12,603.2,1111.6)" />
<use xlink:href="#f1_a" transform="matrix(12,0,0,12,618.8,1111.6)" />
<use xlink:href="#f1_c" transform="matrix(12,0,0,12,625.9,1111.6)" />
<use xlink:href="#f1_n" transform="matrix(12,0,0,12,642.9,1111.6)" />
<use xlink:href="#f1_4" transform="matrix(12,0,0,12,654.5,1111.6)" />
<use xlink:href="#f1_r" transform="matrix(12,0,0,12,671.6,1111.6)" />
<use xlink:href="#f1_h" transform="matrix(12,0,0,12,683.2,1111.6)" />
<use xlink:href="#f1_7" transform="matrix(12,0,0,12,694.8,1111.6)" />
<use xlink:href="#f1_17" transform="matrix(12,0,0,12,700,1111.6)" />
<use xlink:href="#f1_r" transform="matrix(12,0,0,12,711.6,1111.6)" />
<use xlink:href="#f1_4" transform="matrix(12,0,0,12,723.2,1111.6)" />
<use xlink:href="#f1_6" transform="matrix(12,0,0,12,740.3,1111.6)" />
<use xlink:href="#f1_c" transform="matrix(12,0,0,12,746.7,1111.6)" />
<use xlink:href="#f1_8" transform="matrix(12,0,0,12,758,1111.6)" />
<use xlink:href="#f1_4" transform="matrix(12,0,0,12,771.3,1111.6)" />
<use xlink:href="#f1_g" transform="matrix(12,0,0,12,782.6,1111.6)" />
<use xlink:href="#f1_o" transform="matrix(12,0,0,12,793.9,1111.6)" />
<use xlink:href="#f1_3" transform="matrix(12,0,0,12,804,1111.6)" />
<use xlink:href="#f1_c" transform="matrix(12,0,0,12,121.2,1140.2)" />
<use xlink:href="#f1_6" transform="matrix(12,0,0,12,132.3,1140.2)" />
<use xlink:href="#f1_t" transform="matrix(12,0,0,12,144.7,1140.2)" />
<use xlink:href="#f1_c" transform="matrix(12,0,0,12,155.5,1140.2)" />
<use xlink:href="#f1_r" transform="matrix(12,0,0,12,166.6,1140.2)" />
<use xlink:href="#f1_8" transform="matrix(12,0,0,12,178.2,1140.2)" />
<use xlink:href="#f1_g" transform="matrix(12,0,0,12,191.7,1140.2)" />
<use xlink:href="#f1_b" transform="matrix(12,0,0,12,203,1140.2)" />
<use xlink:href="#f1_b" transform="matrix(12,0,0,12,214.6,1140.2)" />
<use xlink:href="#f1_9" transform="matrix(12,0,0,12,226,1140.2)" />
<use xlink:href="#f1_l" transform="matrix(12,0,0,12,235.6,1140.2)" />
<use xlink:href="#f1_z" transform="matrix(12,0,0,12,247.4,1140.2)" />
<use xlink:href="#f1_a" transform="matrix(12,0,0,12,252.7,1140.2)" />
<use xlink:href="#f1_y" transform="matrix(12,0,0,12,265.7,1140.2)" />
<use xlink:href="#f1_7" transform="matrix(12,0,0,12,280.7,1140.2)" />
<use xlink:href="#f1_i" transform="matrix(12,0,0,12,285.9,1140.2)" />
<use xlink:href="#f1_i" transform="matrix(12,0,0,12,290.9,1140.2)" />
<use xlink:href="#f1_n" transform="matrix(12,0,0,12,301.9,1140.2)" />
<use xlink:href="#f1_4" transform="matrix(12,0,0,12,313.5,1140.2)" />
<use xlink:href="#f1_r" transform="matrix(12,0,0,12,330.6,1140.2)" />
<use xlink:href="#f1_9" transform="matrix(12,0,0,12,342.2,1140.2)" />
<use xlink:href="#f1_4" transform="matrix(12,0,0,12,351.7,1140.2)" />
<use xlink:href="#f1_j" transform="matrix(12,0,0,12,363,1140.2)" />
<use xlink:href="#f1_n" transform="matrix(12,0,0,12,380.6,1140.2)" />
<use xlink:href="#f1_t" transform="matrix(12,0,0,12,392.2,1140.2)" />
<use xlink:href="#f1_d" transform="matrix(12,0,0,12,408.8,1140.2)" />
<use xlink:href="#f1_b" transform="matrix(12,0,0,12,421.3,1140.2)" />
<use xlink:href="#f1_b" transform="matrix(12,0,0,12,432.9,1140.2)" />
<use xlink:href="#f1_i" transform="matrix(12,0,0,12,444.6,1140.2)" />
<use xlink:href="#f1_4" transform="matrix(12,0,0,12,449.6,1140.2)" />
<use xlink:href="#f1_11" transform="matrix(12,0,0,12,460.9,1140.2)" />
<use xlink:href="#f1_9" transform="matrix(12,0,0,12,466.7,1140.2)" />
<use xlink:href="#f1_b" transform="matrix(12,0,0,12,482.1,1140.2)" />
<use xlink:href="#f1_r" transform="matrix(12,0,0,12,493.7,1140.2)" />
<use xlink:href="#f1_9" transform="matrix(12,0,0,12,505.3,1140.2)" />
<use xlink:href="#f1_3" transform="matrix(12,0,0,12,514.9,1140.2)" />
<use xlink:href="#f1_h" transform="matrix(12,0,0,12,532.4,1140.2)" />
<use xlink:href="#f1_c" transform="matrix(12,0,0,12,544,1140.2)" />
<use xlink:href="#f1_a" transform="matrix(12,0,0,12,555.2,1140.2)" />
<use xlink:href="#f1_7" transform="matrix(12,0,0,12,562.4,1140.2)" />
<use xlink:href="#f1_6" transform="matrix(12,0,0,12,567.5,1140.2)" />
<use xlink:href="#f1_7" transform="matrix(12,0,0,12,573.9,1140.2)" />
<use xlink:href="#f1_o" transform="matrix(12,0,0,12,578.9,1140.2)" />
<use xlink:href="#f1_g" transform="matrix(12,0,0,12,589,1140.2)" />
<use xlink:href="#f1_a" transform="matrix(12,0,0,12,600.3,1140.2)" />
<use xlink:href="#f1_7" transform="matrix(12,0,0,12,607.5,1140.2)" />
<use xlink:href="#f1_c" transform="matrix(12,0,0,12,612.7,1140.2)" />
<use xlink:href="#f1_h" transform="matrix(12,0,0,12,623.8,1140.2)" />
<use xlink:href="#f1_9" transform="matrix(12,0,0,12,635.4,1140.2)" />
<use xlink:href="#f1_9" transform="matrix(12,0,0,12,650.8,1140.2)" />
<use xlink:href="#f1_4" transform="matrix(12,0,0,12,660.4,1140.2)" />
<use xlink:href="#f1_8" transform="matrix(12,0,0,12,671.7,1140.2)" />
<use xlink:href="#f1_k" transform="matrix(12,0,0,12,679.2,1140.2)" />
<use xlink:href="#f1_7" transform="matrix(12,0,0,12,690,1140.2)" />
<use xlink:href="#f1_o" transform="matrix(12,0,0,12,695.1,1140.2)" />
<use xlink:href="#f1_4" transform="matrix(12,0,0,12,705.1,1140.2)" />
<use xlink:href="#f1_q" transform="matrix(12,0,0,12,716.4,1140.2)" />
<use xlink:href="#f1_6" transform="matrix(12,0,0,12,728.1,1140.2)" />
<use xlink:href="#f1_c" transform="matrix(12,0,0,12,734.5,1140.2)" />
<use xlink:href="#f1_8" transform="matrix(12,0,0,12,745.8,1140.2)" />
<use xlink:href="#f1_7" transform="matrix(12,0,0,12,759.1,1140.2)" />
<use xlink:href="#f1_h" transform="matrix(12,0,0,12,764.1,1140.2)" />
<use xlink:href="#f1_1n" transform="matrix(12,0,0,12,775.9,1140.2)" />
<use xlink:href="#f1_g" transform="matrix(12,0,0,12,782.4,1140.2)" />
<use xlink:href="#f1_b" transform="matrix(12,0,0,12,793.7,1140.2)" />
<use xlink:href="#f1_b" transform="matrix(12,0,0,12,805.3,1140.2)" />
<use xlink:href="#f1_b" transform="matrix(12,0,0,12,121.2,1168.9)" />
<use xlink:href="#f1_r" transform="matrix(12,0,0,12,132.8,1168.9)" />
<use xlink:href="#f1_8" transform="matrix(12,0,0,12,144.5,1168.9)" />
<use xlink:href="#f1_o" transform="matrix(12,0,0,12,151.5,1168.9)" />
<use xlink:href="#f1_3" transform="matrix(12,0,0,12,161.6,1168.9)" />
<use xlink:href="#f1_g" transform="matrix(12,0,0,12,173.2,1168.9)" />
<use xlink:href="#f1_9" transform="matrix(12,0,0,12,184.3,1168.9)" />
<use xlink:href="#f1_4" transform="matrix(12,0,0,12,194,1168.9)" />
<use xlink:href="#f1_9" transform="matrix(12,0,0,12,205.2,1168.9)" />
<use xlink:href="#f1_g" transform="matrix(12,0,0,12,220.7,1168.9)" />
<use xlink:href="#f1_h" transform="matrix(12,0,0,12,231.8,1168.9)" />
<use xlink:href="#f1_j" transform="matrix(12,0,0,12,243.4,1168.9)" />
<use xlink:href="#f1_6" transform="matrix(12,0,0,12,261,1168.9)" />
<use xlink:href="#f1_c" transform="matrix(12,0,0,12,267.4,1168.9)" />
<use xlink:href="#f1_8" transform="matrix(12,0,0,12,278.5,1168.9)" />
<use xlink:href="#f1_c" transform="matrix(12,0,0,12,292,1168.9)" />
<use xlink:href="#f1_a" transform="matrix(12,0,0,12,303.1,1168.9)" />
<use xlink:href="#f1_3" transform="matrix(12,0,0,12,310.3,1168.9)" />
<use xlink:href="#f1_4" transform="matrix(12,0,0,12,321.9,1168.9)" />
<use xlink:href="#f1_8" transform="matrix(12,0,0,12,333.2,1168.9)" />
<use xlink:href="#f1_9" transform="matrix(12,0,0,12,346.7,1168.9)" />
<use xlink:href="#f1_4" transform="matrix(12,0,0,12,356.1,1168.9)" />
<use xlink:href="#f1_8" transform="matrix(12,0,0,12,367.4,1168.9)" />
<use xlink:href="#f1_k" transform="matrix(12,0,0,12,374.9,1168.9)" />
<use xlink:href="#f1_7" transform="matrix(12,0,0,12,385.7,1168.9)" />
<use xlink:href="#f1_o" transform="matrix(12,0,0,12,390.8,1168.9)" />
<use xlink:href="#f1_4" transform="matrix(12,0,0,12,400.8,1168.9)" />
<use xlink:href="#f1_9" transform="matrix(12,0,0,12,412.1,1168.9)" />
<use xlink:href="#f1_9" transform="matrix(12,0,0,12,427.6,1168.9)" />
<use xlink:href="#f1_r" transform="matrix(12,0,0,12,437.2,1168.9)" />
<use xlink:href="#f1_o" transform="matrix(12,0,0,12,448.8,1168.9)" />
<use xlink:href="#f1_3" transform="matrix(12,0,0,12,458.8,1168.9)" />
<use xlink:href="#f1_g" transform="matrix(12,0,0,12,476.3,1168.9)" />
<use xlink:href="#f1_9" transform="matrix(12,0,0,12,487.5,1168.9)" />
<use xlink:href="#f1_7" transform="matrix(12,0,0,12,502.8,1168.9)" />
<use xlink:href="#f1_18" transform="matrix(12,0,0,12,507.9,1168.9)" />
<use xlink:href="#f1_i" transform="matrix(12,0,0,12,520.7,1168.9)" />
<use xlink:href="#f1_c" transform="matrix(12,0,0,12,525.9,1168.9)" />
<use xlink:href="#f1_r" transform="matrix(12,0,0,12,537,1168.9)" />
<use xlink:href="#f1_j" transform="matrix(12,0,0,12,548.6,1168.9)" />
<use xlink:href="#f1_9" transform="matrix(12,0,0,12,566.2,1168.9)" />
<use xlink:href="#f1_a" transform="matrix(12,0,0,12,575.6,1168.9)" />
<use xlink:href="#f1_c" transform="matrix(12,0,0,12,582.8,1168.9)" />
<use xlink:href="#f1_8" transform="matrix(12,0,0,12,594,1168.9)" />
<use xlink:href="#f1_g" transform="matrix(12,0,0,12,601.4,1168.9)" />
<use xlink:href="#f1_f" transform="matrix(12,0,0,12,612.7,1168.9)" />
<use xlink:href="#f1_4" transform="matrix(12,0,0,12,624.3,1168.9)" />
<use xlink:href="#f1_l" transform="matrix(12,0,0,12,635.6,1168.9)" />
</g>
</g>
<image preserveAspectRatio="none" x="87" y="201" width="736" height="424" xlink:href="img/1.png" />
<defs>
<path d="M680,-20c0,0,-278,0,-441,154C239,134,76,290,76,556c0,0,0,267,163,423c0,0,163,155,441,155c0,0,93,0,179,-21c0,0,86,-21,165,-62V820c0,0,-80,55,-158,81c0,0,-77,25,-163,25c0,0,-154,0,-241,-98c0,0,-88,-99,-88,-272c0,0,0,-172,87,-271c0,0,88,-98,242,-98c0,0,86,0,163,25c0,0,78,26,158,80V61C1024,61,945,20,859,0c0,0,-86,-20,-179,-20Z" 
id="f0_h"
transform="scale(0.001,-0.001)" />

<path d="M128,0V836H395V698c0,0,52,82,118,120c0,0,67,38,161,38c0,0,13,0,29,-2c0,0,15,-1,45,-4l1,-242c0,0,-35,17,-70,25c0,0,-35,7,-70,7c0,0,-103,0,-158,-66c0,0,-56,-66,-56,-189V0Z" 
id="f0_b"
transform="scale(0.001,-0.001)" />

<path d="M687,509c0,0,0,76,-44,122c0,0,-44,47,-116,47c0,0,-78,0,-126,-44c0,0,-49,-43,-61,-125ZM544,-20c0,0,-227,0,-353,114C191,94,66,209,66,417c0,0,0,204,123,321c0,0,123,118,340,118c0,0,197,0,315,-119c0,0,118,-118,118,-317V344H337c0,0,10,-94,68,-141c0,0,59,-47,163,-47c0,0,85,0,173,25c0,0,89,25,182,76V51C923,51,828,15,733,-2c0,0,-94,-18,-189,-18Z" 
id="f0_3"
transform="scale(0.001,-0.001)" />

<path d="M463,156c0,0,75,0,127,54c0,0,51,54,51,135v30H502c0,0,-83,0,-125,-28c0,0,-43,-28,-43,-83c0,0,0,-50,34,-79c0,0,34,-29,95,-29ZM357,-20c0,0,-130,0,-211,74c0,0,-80,76,-80,197c0,0,0,147,101,215c0,0,101,69,317,69H641v21c0,0,0,63,-50,92c0,0,-49,30,-155,30c0,0,-86,0,-160,-17c0,0,-74,-18,-137,-52V813c0,0,86,21,172,32c0,0,86,11,173,11c0,0,226,0,326,-90c0,0,100,-89,100,-290V0H641V124C641,124,588,48,521,13c0,0,-68,-33,-164,-33Z" 
id="f0_a"
transform="scale(0.001,-0.001)" />

<path d="M443,0C443,0,285,0,219,66c0,0,-66,66,-66,224V645H20V836H153v237H419V836H695V645H419V290c0,0,0,-58,24,-79c0,0,23,-20,91,-20H672V0Z" 
id="f0_4"
transform="scale(0.001,-0.001)" />

<path d="M128,0V836H395V0Zm0,944v217H395V944Z" 
id="f0_5"
transform="scale(0.001,-0.001)" />

<path d="M128,0V836H395V713c0,0,60,73,128,108c0,0,68,35,150,35c0,0,145,0,220,-89c0,0,75,-89,75,-258V0H699V389c0,0,0,109,-5,150c0,0,-5,41,-16,60c0,0,-16,26,-43,41c0,0,-27,14,-61,14c0,0,-84,0,-131,-64c0,0,-48,-65,-48,-179V0Z" 
id="f0_6"
transform="scale(0.001,-0.001)" />

<path d="M520,194c0,0,84,0,130,61c0,0,46,61,46,172c0,0,0,112,-46,174c0,0,-46,61,-130,61c0,0,-82,0,-129,-61c0,0,-46,-62,-46,-174c0,0,0,-115,45,-174c0,0,45,-59,130,-59ZM469,-328c0,0,-78,0,-151,12c0,0,-73,12,-147,36V-71c0,0,70,-41,137,-61c0,0,67,-20,135,-20c0,0,131,0,192,58c0,0,61,57,61,178v58C696,142,641,69,575,34C575,34,508,0,421,0C421,0,268,0,168,121C168,121,68,241,68,428c0,0,0,187,100,307c0,0,100,120,253,120c0,0,87,0,154,-35c0,0,66,-34,121,-108V836H965V84c0,0,0,-200,-127,-306c0,0,-127,-106,-369,-106Z" 
id="f0_7"
transform="scale(0.001,-0.001)" />

<path d="M744,410L592,853L439,410ZM8,0L420,1114H763L1175,0H887L816,203H367L297,0Z" 
id="f0_d"
transform="scale(0.001,-0.001)" />

<path d="M573,172c0,0,86,0,131,63c0,0,45,63,45,182c0,0,0,119,-45,182c0,0,-45,63,-131,63c0,0,-86,0,-132,-63c0,0,-46,-63,-46,-182c0,0,0,-119,46,-182c0,0,46,-63,132,-63ZM128,-317V836H395V713c0,0,55,73,122,108c0,0,68,35,155,35c0,0,154,0,253,-123c0,0,100,-123,100,-316c0,0,0,-193,-100,-316c0,0,-99,-121,-253,-121c0,0,-87,0,-155,33c0,0,-67,35,-122,108V-317Z" 
id="f0_i"
transform="scale(0.001,-0.001)" />

<path d="M140,0V1114H427V0Z" 
id="f0_k"
transform="scale(0.001,-0.001)" />

<path d="M530,217c0,0,176,0,269,87c0,0,93,88,93,254c0,0,0,166,-93,252c0,0,-92,87,-269,87H427V217ZM140,0V1114H443c0,0,253,0,378,-36c0,0,124,-37,213,-123c0,0,78,-76,116,-174c0,0,38,-98,38,-223c0,0,0,-126,-38,-225c0,0,-38,-99,-116,-174c0,0,-90,-87,-215,-123C819,36,694,0,443,0Z" 
id="f0_l"
transform="scale(0.001,-0.001)" />

<path d="M445,-20c0,0,-83,0,-171,12C274,-8,185,4,92,30V234c0,0,80,-39,164,-58c0,0,84,-20,170,-20c0,0,79,0,118,22c0,0,40,22,40,64c0,0,0,36,-28,53c0,0,-27,18,-108,27l-47,6c0,0,-179,23,-250,83c0,0,-72,61,-72,184c0,0,0,132,91,196c0,0,91,65,279,65c0,0,74,0,155,-12c0,0,82,-11,177,-34V606c0,0,-86,36,-165,54c0,0,-80,18,-151,18c0,0,-76,0,-113,-19c0,0,-37,-19,-37,-59c0,0,0,-32,28,-49c0,0,28,-17,100,-25l47,-7c0,0,205,-26,276,-86c0,0,71,-59,71,-187c0,0,0,-133,-98,-200c0,0,-99,-66,-294,-66Z" 
id="f0_v"
transform="scale(0.001,-0.001)" />

<path d="M150,0V1114H353L846,182v932H992V0H789L296,932V0Z" 
id="f1_m"
transform="scale(0.001,-0.001)" />

<path d="M467,95c0,0,110,0,174,86c0,0,64,87,64,236c0,0,0,148,-64,235c0,0,-64,87,-174,87c0,0,-110,0,-174,-86c0,0,-64,-86,-64,-236c0,0,0,-150,64,-236c0,0,63,-86,174,-86Zm0,-115c0,0,-179,0,-281,115C186,95,84,212,84,417c0,0,0,206,102,322c0,0,102,117,281,117c0,0,179,0,282,-117c0,0,102,-116,102,-322c0,0,0,-205,-102,-322C749,95,646,-20,467,-20Z" 
id="f1_c"
transform="scale(0.001,-0.001)" />

<path d="M283,0L65,836H202L373,184L544,836H706L878,184l171,652h137L967,0H806L626,685L445,0Z" 
id="f1_y"
transform="scale(0.001,-0.001)" />

<path d="M421,0C421,0,263,0,202,59c0,0,-60,60,-60,217V729H41V836H142v238H280V836H562V729H280V276c0,0,0,-102,28,-132c0,0,28,-29,113,-29H562V0Z" 
id="f1_a"
transform="scale(0.001,-0.001)" />

<path d="M139,0V1161H277V706c0,0,49,75,116,112c0,0,67,38,154,38c0,0,144,0,218,-90c0,0,74,-89,74,-262V0H702V500c0,0,0,119,-46,177c0,0,-47,59,-139,59c0,0,-112,0,-176,-71c0,0,-64,-70,-64,-193V0Z" 
id="f1_3"
transform="scale(0.001,-0.001)" />

<path d="M408,93c0,0,115,0,184,81c0,0,69,81,69,215v30H524c0,0,-167,0,-231,-38c0,0,-64,-38,-64,-129c0,0,0,-73,48,-116c0,0,48,-43,131,-43ZM372,-20c0,0,-128,0,-204,70c0,0,-76,72,-76,193c0,0,0,141,94,212c0,0,95,72,282,72H661v13c0,0,0,95,-62,147c0,0,-63,52,-175,52c0,0,-72,0,-140,-17c0,0,-68,-17,-130,-51V798c0,0,75,29,146,43c0,0,71,15,138,15c0,0,181,0,270,-95c0,0,90,-94,90,-285V0H661V127C661,127,614,51,544,15c0,0,-70,-35,-172,-35Z" 
id="f1_g"
transform="scale(0.001,-0.001)" />

<path d="M121,-317v116h81c0,0,57,0,88,26c0,0,31,27,69,127l25,62L46,836H191L453,182L714,836H859L492,-76c0,0,-58,-150,-113,-195c0,0,-55,-46,-148,-46Z" 
id="f1_t"
transform="scale(0.001,-0.001)" />

<path d="M424,-20c0,0,-145,0,-219,88c0,0,-75,89,-75,262V836H267V335c0,0,0,-119,46,-178c0,0,47,-59,139,-59c0,0,112,0,177,71c0,0,64,71,64,193V836H830V0H693V128C693,128,643,52,577,15c0,0,-66,-35,-153,-35Z" 
id="f1_r"
transform="scale(0.001,-0.001)" />

<path d="M139,0V836H277V706c0,0,43,76,112,113c0,0,70,37,169,37c0,0,14,0,31,-2c0,0,17,-2,38,-6l1,-141c0,0,-23,14,-51,20c0,0,-27,6,-60,6c0,0,-116,0,-178,-75c0,0,-62,-76,-62,-218V0Z" 
id="f1_8"
transform="scale(0.001,-0.001)" />

<path d="M460,93c0,0,109,0,171,86c0,0,63,86,63,238c0,0,0,151,-63,237c0,0,-62,86,-171,86c0,0,-109,0,-172,-86c0,0,-62,-86,-62,-237c0,0,0,-152,62,-238c0,0,63,-86,172,-86ZM426,-20c0,0,-151,0,-247,119c0,0,-95,121,-95,318c0,0,0,197,95,318c0,0,96,121,247,121c0,0,93,0,159,-37c0,0,66,-36,109,-110v452H831V0H694V125C694,125,651,51,585,15c0,0,-66,-35,-159,-35Z" 
id="f1_j"
transform="scale(0.001,-0.001)" />

<path d="M231,492l491,1c0,0,-2,112,-64,179c0,0,-61,67,-163,67c0,0,-115,0,-184,-65c0,0,-69,-64,-80,-182ZM517,-20c0,0,-199,0,-316,115C201,95,84,211,84,410c0,0,0,205,111,325c0,0,111,121,299,121c0,0,168,0,266,-109c0,0,98,-108,98,-295V385H227c0,0,9,-142,85,-216c0,0,77,-74,213,-74c0,0,80,0,154,19c0,0,74,19,147,58V42C826,42,752,11,675,-4c0,0,-78,-16,-158,-16Z" 
id="f1_4"
transform="scale(0.001,-0.001)" />

<path d="M359,0L46,836H191L453,134L714,836H859L546,0Z" 
id="f1_k"
transform="scale(0.001,-0.001)" />

<path d="M144,0V836H281V0Zm0,987v174H281V987Z" 
id="f1_7"
transform="scale(0.001,-0.001)" />

<path d="M495,-20c0,0,-189,0,-300,117C195,97,84,216,84,417c0,0,0,204,112,321c0,0,113,118,308,118c0,0,64,0,124,-14c0,0,60,-13,117,-39V675c0,0,-58,32,-117,48c0,0,-58,16,-118,16c0,0,-133,0,-207,-84c0,0,-74,-85,-74,-238c0,0,0,-153,74,-238c0,0,74,-84,207,-84c0,0,60,0,118,16c0,0,59,16,117,48V32C745,32,688,5,626,-7c0,0,-61,-13,-131,-13Z" 
id="f1_o"
transform="scale(0.001,-0.001)" />

<path d="M376,-20c0,0,-67,0,-140,12C236,-8,164,4,83,30V172c0,0,76,-40,150,-59c0,0,74,-20,146,-20c0,0,97,0,150,33c0,0,52,33,52,94c0,0,0,56,-38,85c0,0,-38,30,-165,58l-48,11c0,0,-128,27,-184,83c0,0,-57,55,-57,152c0,0,0,118,83,182c0,0,84,65,238,65c0,0,76,0,143,-12c0,0,67,-11,124,-33V681c0,0,-58,29,-121,44c0,0,-63,15,-130,15c0,0,-102,0,-153,-31c0,0,-51,-31,-51,-94c0,0,0,-48,37,-75c0,0,36,-27,147,-52l46,-10c0,0,147,-32,208,-89c0,0,62,-57,62,-159c0,0,0,-116,-93,-184c0,0,-92,-66,-253,-66Z" 
id="f1_9"
transform="scale(0.001,-0.001)" />

<path d="M460,115c0,0,111,0,173,82c0,0,61,82,61,230c0,0,0,149,-61,231c0,0,-62,82,-173,82c0,0,-111,0,-173,-82c0,0,-61,-82,-61,-231c0,0,0,-148,61,-230c0,0,62,-82,173,-82ZM446,-317c0,0,-72,0,-137,11c0,0,-64,11,-124,33v134c0,0,60,-33,119,-49c0,0,59,-15,121,-15c0,0,135,0,202,70c0,0,67,71,67,212v68C694,147,652,73,585,36C585,36,519,0,426,0C426,0,272,0,178,117c0,0,-94,117,-94,310c0,0,0,194,94,311c0,0,94,118,248,118c0,0,93,0,159,-37c0,0,67,-36,109,-110V836H831V104c0,0,0,-212,-95,-317c0,0,-94,-104,-290,-104Z" 
id="f1_f"
transform="scale(0.001,-0.001)" />

<path d="M117,-176L179,62V190H336V62L213,-176Z" 
id="f1_q"
transform="scale(0.001,-0.001)" />

<path d="M139,0V836H277V706c0,0,49,75,116,112c0,0,67,38,154,38c0,0,144,0,218,-90c0,0,74,-89,74,-262V0H702V500c0,0,0,119,-46,177c0,0,-47,59,-139,59c0,0,-112,0,-176,-71c0,0,-64,-70,-64,-193V0Z" 
id="f1_h"
transform="scale(0.001,-0.001)" />

<path d="M163,0V190H321V0Z" 
id="f1_l"
transform="scale(0.001,-0.001)" />

<path d="M150,0V1114H854V987H300V657H831V530H300V127H867V0Z" 
id="f1_1h"
transform="scale(0.001,-0.001)" />

<path d="M510,93c0,0,109,0,171,86c0,0,62,86,62,238c0,0,0,151,-62,237c0,0,-62,86,-171,86c0,0,-109,0,-171,-86c0,0,-62,-86,-62,-237c0,0,0,-152,62,-238c0,0,62,-86,171,-86ZM139,-317V836H277V709c0,0,43,74,109,110c0,0,66,37,158,37c0,0,152,0,247,-121c0,0,95,-121,95,-318c0,0,0,-197,-95,-318C791,99,696,-20,544,-20c0,0,-92,0,-158,35c0,0,-66,36,-109,110V-317Z" 
id="f1_b"
transform="scale(0.001,-0.001)" />

<path d="M510,93c0,0,109,0,171,86c0,0,62,86,62,238c0,0,0,151,-62,237c0,0,-62,86,-171,86c0,0,-109,0,-171,-86c0,0,-62,-86,-62,-237c0,0,0,-152,62,-238c0,0,62,-86,171,-86ZM544,-20c0,0,-92,0,-158,35c0,0,-66,36,-109,110V0H139V1161H277V709c0,0,43,74,109,110c0,0,66,37,158,37c0,0,152,0,247,-121c0,0,95,-121,95,-318c0,0,0,-197,-95,-318C791,99,696,-20,544,-20Z" 
id="f1_n"
transform="scale(0.001,-0.001)" />

<path d="M144,0V1161H281V0Z" 
id="f1_i"
transform="scale(0.001,-0.001)" />

<path d="M727,411L522,965L318,411ZM12,0L437,1114H608L1033,0H876L774,286H272L171,0Z" 
id="f1_d"
transform="scale(0.001,-0.001)" />

<path d="M150,0V1114H300V0Z" 
id="f1_z"
transform="scale(0.001,-0.001)" />

<path d="M482,124c0,0,231,0,338,105c0,0,107,104,107,329c0,0,0,224,-107,328c0,0,-107,104,-338,104H300V124ZM150,0V1114H459c0,0,324,0,476,-135c0,0,151,-135,151,-421c0,0,0,-288,-152,-423C934,135,782,0,459,0Z" 
id="f1_15"
transform="scale(0.001,-0.001)" />

<path d="M602,101c0,0,164,0,260,122c0,0,95,123,95,333c0,0,0,211,-95,334c0,0,-96,122,-260,122c0,0,-164,0,-260,-122c0,0,-97,-123,-97,-334c0,0,0,-210,97,-333c0,0,96,-122,260,-122Zm0,-121c0,0,-235,0,-375,155C227,135,86,292,86,556c0,0,0,264,141,421c0,0,140,157,375,157c0,0,234,0,374,-157c0,0,141,-157,141,-421c0,0,0,-263,-141,-420C976,136,836,-20,602,-20Z" 
id="f1_13"
transform="scale(0.001,-0.001)" />

<path d="M139,0V836H277V706c0,0,47,77,112,113c0,0,66,37,156,37c0,0,91,0,155,-47c0,0,64,-46,94,-134c0,0,52,93,123,137c0,0,72,44,169,44c0,0,130,0,201,-92c0,0,71,-91,71,-260V0H1220V500c0,0,0,120,-42,178c0,0,-43,58,-130,58c0,0,-107,0,-169,-71c0,0,-62,-70,-62,-193V0H680V500c0,0,0,121,-43,179c0,0,-42,57,-131,57c0,0,-105,0,-167,-71c0,0,-62,-71,-62,-193V0Z" 
id="f1_p"
transform="scale(0.001,-0.001)" />

<path d="M139,0V1161H277V475L686,836H861L418,445L880,0H701L277,408V0Z" 
id="f1_10"
transform="scale(0.001,-0.001)" />

<path d="M520,172c0,0,86,0,131,63c0,0,45,63,45,182c0,0,0,119,-45,182c0,0,-45,63,-131,63c0,0,-85,0,-130,-63c0,0,-45,-63,-45,-182c0,0,0,-119,45,-182c0,0,45,-63,130,-63ZM421,-20c0,0,-154,0,-253,121C168,101,68,224,68,417c0,0,0,193,100,316c0,0,99,123,253,123c0,0,87,0,153,-35c0,0,67,-35,122,-108v448H965V0H696V121C696,121,641,47,575,13c0,0,-67,-33,-154,-33Z" 
id="f0_c"
transform="scale(0.001,-0.001)" />

<path d="M162,0V645H29V836H162v58c0,0,0,136,76,201c0,0,76,66,236,66H679V986H531c0,0,-57,0,-79,-21c0,0,-23,-20,-23,-71V836H657V645H429V0Z" 
id="f0_o"
transform="scale(0.001,-0.001)" />

<path d="M393,-141L0,1114H165L558,-141Z" 
id="f0_1c"
transform="scale(0.001,-0.001)" />

<path d="M179,0V190H336V0Zm0,600V790H336V600Z" 
id="f1_12"
transform="scale(0.001,-0.001)" />

<path d="M391,0V530L-2,1114H159L468,656l307,458H937L543,530V0Z" 
id="f1_x"
transform="scale(0.001,-0.001)" />

<path d="M132,763l62,237v114H351V1000L228,763Z" 
id="f1_11"
transform="scale(0.001,-0.001)" />

<path d="M166,0V729H35V836H166v58c0,0,0,139,65,203c0,0,65,64,206,64H567V1046H435c0,0,-74,0,-102,-29c0,0,-29,-30,-29,-107V836H530V729H304V0Z" 
id="f1_6"
transform="scale(0.001,-0.001)" />

<path d="M44,0L369,437L71,836H233L455,538L677,836H839L537,429L855,0H693L449,328L206,0Z" 
id="f1_14"
transform="scale(0.001,-0.001)" />

<path d="M190,0V127H436V977L168,923v137l267,54H586V127H832V0Z" 
id="f1_1u"
transform="scale(0.001,-0.001)" />

<path d="M486,98c0,0,117,0,175,114c0,0,59,115,59,344c0,0,0,230,-59,344c0,0,-58,115,-175,115c0,0,-117,0,-175,-115c0,0,-59,-114,-59,-344c0,0,0,-229,59,-344c0,0,58,-114,175,-114ZM485,-20c0,0,-187,0,-285,147c0,0,-99,148,-99,429c0,0,0,282,98,430c0,0,99,148,286,148c0,0,188,0,286,-148c0,0,99,-148,99,-430c0,0,0,-281,-99,-429c0,0,-98,-147,-286,-147Z" 
id="f1_1v"
transform="scale(0.001,-0.001)" />

<path d="M74,357V479H476V357Z" 
id="f1_1n"
transform="scale(0.001,-0.001)" />

<path d="M130,747V876l123,238h96L287,876V747Zm306,0V876l123,238h96L594,876V747Z" 
id="f1_1j"
transform="scale(0.001,-0.001)" />

<path d="M129,747l62,239v128H348V986L225,747Zm306,0l62,239v128H654V986L531,747Z" 
id="f1_1k"
transform="scale(0.001,-0.001)" />

<path d="M542,124c0,0,121,0,180,50c0,0,58,51,58,154c0,0,0,105,-58,154c0,0,-59,50,-180,50H300V124ZM523,654c0,0,111,0,165,41c0,0,54,42,54,127c0,0,0,84,-54,126c0,0,-54,42,-165,42H300V654ZM150,0V1114H535c0,0,172,0,265,-72c0,0,94,-72,94,-204c0,0,0,-102,-48,-162c0,0,-48,-61,-140,-76c0,0,111,-23,172,-99c0,0,62,-76,62,-189c0,0,0,-149,-102,-231C838,81,737,0,550,0Z" 
id="f1_1c"
transform="scale(0.001,-0.001)" />

<path d="M391,0V987H-3v127H938V987H543V0Z" 
id="f1_2"
transform="scale(0.001,-0.001)" />

<path d="M460,93c0,0,109,0,171,86c0,0,63,86,63,238c0,0,0,151,-63,237c0,0,-62,86,-171,86c0,0,-109,0,-172,-86c0,0,-62,-86,-62,-237c0,0,0,-152,62,-238c0,0,63,-86,172,-86ZM694,-317V125C694,125,651,51,585,15c0,0,-66,-35,-159,-35c0,0,-151,0,-247,119c0,0,-95,121,-95,318c0,0,0,197,95,318c0,0,96,121,247,121c0,0,93,0,159,-37c0,0,66,-36,109,-110V836H831V-317Z" 
id="f1_17"
transform="scale(0.001,-0.001)" />

<path d="M150,0V1114H300V657H848v457H998V0H848V530H300V0Z" 
id="f1_1t"
transform="scale(0.001,-0.001)" />

<path d="M257,341c0,0,-82,0,-142,58c0,0,-60,58,-60,141c0,0,0,82,60,140c0,0,60,58,142,58c0,0,82,0,138,-59c0,0,58,-57,58,-139c0,0,0,-84,-57,-141c0,0,-56,-58,-139,-58Z" 
id="f2_2"
transform="scale(0.001,-0.001)" />

<path d="M458,-20c0,0,-79,0,-168,17c0,0,-89,17,-184,52V204c0,0,91,-51,179,-77c0,0,88,-26,173,-26c0,0,129,0,199,50c0,0,70,51,70,145c0,0,0,82,-50,129c0,0,-50,46,-165,69l-92,18c0,0,-169,34,-244,105c0,0,-75,72,-75,199c0,0,0,148,104,233c0,0,104,85,287,85c0,0,78,0,159,-14c0,0,81,-14,166,-42V931c0,0,-85,41,-161,61c0,0,-76,20,-147,20c0,0,-123,0,-190,-48c0,0,-67,-48,-67,-136c0,0,0,-73,45,-111c0,0,44,-38,168,-61l91,-19c0,0,168,-32,249,-113c0,0,80,-81,80,-216c0,0,0,-162,-109,-246c0,0,-108,-82,-318,-82Z" 
id="f1_e"
transform="scale(0.001,-0.001)" />

<path d="M140,0V1114H914V897H427V689H885V472H427V217H931V0Z" 
id="f0_w"
transform="scale(0.001,-0.001)" />

<path d="M23,0L340,428L38,836H321L492,588L665,836H948L647,429L963,0H680L492,264L306,0Z" 
id="f0_15"
transform="scale(0.001,-0.001)" />

<path d="M128,0V1161H395V0Z" 
id="f0_j"
transform="scale(0.001,-0.001)" />

<path d="M547,-20c0,0,-226,0,-354,114C193,94,66,210,66,417c0,0,0,207,127,323c0,0,128,116,354,116c0,0,66,0,129,-12c0,0,64,-11,128,-34V592c0,0,-55,37,-110,55c0,0,-54,18,-113,18c0,0,-112,0,-175,-65c0,0,-62,-66,-62,-183c0,0,0,-117,62,-183c0,0,63,-65,175,-65c0,0,62,0,119,19c0,0,56,19,104,55V24C804,24,741,1,676,-9c0,0,-64,-11,-129,-11Z" 
id="f0_e"
transform="scale(0.001,-0.001)" />

<path d="M311,0L46,1114H321L514,304l191,810H981L1172,304l193,810h273L1375,0H1044L842,847L642,0Z" 
id="f0_1i"
transform="scale(0.001,-0.001)" />

<path d="M630,-20c0,0,-253,0,-398,153C232,133,86,288,86,556c0,0,0,269,146,423c0,0,145,155,398,155c0,0,100,0,189,-26c0,0,88,-27,166,-79V869c0,0,-76,71,-163,106c0,0,-86,35,-183,35c0,0,-191,0,-292,-117C347,893,245,777,245,556c0,0,0,-220,102,-337c0,0,101,-116,292,-116c0,0,97,0,183,35c0,0,87,35,163,105V86C985,86,906,32,817,5c0,0,-88,-25,-187,-25Z" 
id="f1_18"
transform="scale(0.001,-0.001)" />

<path d="M330,0L51,1114H203L437,172l234,942H840L1074,172l234,942h153L1181,0H992L757,967L519,0Z" 
id="f1_1s"
transform="scale(0.001,-0.001)" />


</defs>
</svg>