<?xml version="1.0" encoding="UTF-8" standalone="no"?>
<!DOCTYPE svg PUBLIC "-//W3C//DTD SVG 1.1//EN"
"http://www.w3.org/Graphics/SVG/1.1/DTD/svg11.dtd">
<svg viewBox="0 0 909 1286" version="1.1" xmlns="http://www.w3.org/2000/svg" xmlns:xlink="http://www.w3.org/1999/xlink">
<defs>
<clipPath id="c0_13"><path d="M0,1286.2V.2H909.3v1286Z" /></clipPath>
</defs>
<g clip-path="url(#c0_13)">
<g fill="#000000" >
<use xlink:href="#f0_x" transform="matrix(12,0,0,12,86.8,665.8)" />
<use xlink:href="#f0_c" transform="matrix(12,0,0,12,95.6,665.8)" />
<use xlink:href="#f0_r" transform="matrix(12,0,0,12,106.8,665.8)" />
<use xlink:href="#f0_11" transform="matrix(12,0,0,12,118.4,665.8)" />
<use xlink:href="#f0_i" transform="matrix(12,0,0,12,124.2,665.8)" />
<use xlink:href="#f0_i" transform="matrix(12,0,0,12,129.4,665.8)" />
<use xlink:href="#f0_h" transform="matrix(12,0,0,12,140.2,665.8)" />
<use xlink:href="#f0_c" transform="matrix(12,0,0,12,151.8,665.8)" />
<use xlink:href="#f0_y" transform="matrix(12,0,0,12,163,665.8)" />
<use xlink:href="#f0_3" transform="matrix(12,0,0,12,183.9,665.8)" />
<use xlink:href="#f0_g" transform="matrix(12,0,0,12,195.5,665.8)" />
<use xlink:href="#f0_k" transform="matrix(12,0,0,12,206.8,665.8)" />
<use xlink:href="#f0_4" transform="matrix(12,0,0,12,217.5,665.8)" />
<use xlink:href="#f0_a" transform="matrix(12,0,0,12,234.7,665.8)" />
<use xlink:href="#f0_c" transform="matrix(12,0,0,12,241.9,665.8)" />
<use xlink:href="#f0_i" transform="matrix(12,0,0,12,258.9,665.8)" />
<use xlink:href="#f0_c" transform="matrix(12,0,0,12,264,665.8)" />
<use xlink:href="#f0_f" transform="matrix(12,0,0,12,275.2,665.8)" />
<use xlink:href="#f0_7" transform="matrix(12,0,0,12,292.6,665.8)" />
<use xlink:href="#f0_h" transform="matrix(12,0,0,12,297.6,665.8)" />
<use xlink:href="#f0_t" transform="matrix(12,0,0,12,315.2,665.8)" />
<use xlink:href="#f0_4" transform="matrix(12,0,0,12,326,665.8)" />
<use xlink:href="#f0_a" transform="matrix(12,0,0,12,337.3,665.8)" />
<use xlink:href="#f0_g" transform="matrix(12,0,0,12,350.3,665.8)" />
<use xlink:href="#f0_f" transform="matrix(12,0,0,12,361.6,665.8)" />
<use xlink:href="#f0_g" transform="matrix(12,0,0,12,373.1,665.8)" />
<use xlink:href="#f0_7" transform="matrix(12,0,0,12,384.4,665.8)" />
<use xlink:href="#f0_h" transform="matrix(12,0,0,12,389.4,665.8)" />
<use xlink:href="#f0_l" transform="matrix(12,0,0,12,401,665.8)" />
<use xlink:href="#f0_u" transform="matrix(12,0,0,12,412.8,665.8)" />
<use xlink:href="#f0_9" transform="matrix(12,0,0,12,426.1,665.8)" />
<use xlink:href="#f0_4" transform="matrix(12,0,0,12,435.7,665.8)" />
<use xlink:href="#f0_t" transform="matrix(12,0,0,12,452.8,665.8)" />
<use xlink:href="#f0_c" transform="matrix(12,0,0,12,463.6,665.8)" />
<use xlink:href="#f0_r" transform="matrix(12,0,0,12,474.7,665.8)" />
<use xlink:href="#f0_8" transform="matrix(12,0,0,12,486.5,665.8)" />
<use xlink:href="#f0_h" transform="matrix(12,0,0,12,499.8,665.8)" />
<use xlink:href="#f0_4" transform="matrix(12,0,0,12,511.4,665.8)" />
<use xlink:href="#f0_y" transform="matrix(12,0,0,12,522.7,665.8)" />
<use xlink:href="#f0_i" transform="matrix(12,0,0,12,537.7,665.8)" />
<use xlink:href="#f0_t" transform="matrix(12,0,0,12,542.7,665.8)" />
<use xlink:href="#f0_o" transform="matrix(12,0,0,12,559.5,665.8)" />
<use xlink:href="#f0_8" transform="matrix(12,0,0,12,569.6,665.8)" />
<use xlink:href="#f0_4" transform="matrix(12,0,0,12,576.6,665.8)" />
<use xlink:href="#f0_g" transform="matrix(12,0,0,12,587.9,665.8)" />
<use xlink:href="#f0_a" transform="matrix(12,0,0,12,599.2,665.8)" />
<use xlink:href="#f0_4" transform="matrix(12,0,0,12,606.4,665.8)" />
<use xlink:href="#f0_j" transform="matrix(12,0,0,12,617.7,665.8)" />
<use xlink:href="#f0_d" transform="matrix(12,0,0,12,635.1,665.8)" />
<use xlink:href="#f0_b" transform="matrix(12,0,0,12,647.6,665.8)" />
<use xlink:href="#f0_b" transform="matrix(12,0,0,12,659.2,665.8)" />
<use xlink:href="#f0_i" transform="matrix(12,0,0,12,670.8,665.8)" />
<use xlink:href="#f0_4" transform="matrix(12,0,0,12,675.8,665.8)" />
<use xlink:href="#f0_z" transform="matrix(12,0,0,12,693.1,665.8)" />
<use xlink:href="#f0_15" transform="matrix(12,0,0,12,698.5,665.8)" />
<use xlink:href="#f0_l" transform="matrix(12,0,0,12,712.5,665.8)" />
</g>
</g>
<image preserveAspectRatio="none" x="87" y="87" width="736" height="476" xlink:href="img/1.png" />
<image preserveAspectRatio="none" x="87" y="670" width="736" height="471" xlink:href="img/2.png" />
<defs>
<path d="M391,0V530L-2,1114H159L468,656l307,458H937L543,530V0Z" 
id="f0_x"
transform="scale(0.001,-0.001)" />

<path d="M467,95c0,0,110,0,174,86c0,0,64,87,64,236c0,0,0,148,-64,235c0,0,-64,87,-174,87c0,0,-110,0,-174,-86c0,0,-64,-86,-64,-236c0,0,0,-150,64,-236c0,0,63,-86,174,-86Zm0,-115c0,0,-179,0,-281,115C186,95,84,212,84,417c0,0,0,206,102,322c0,0,102,117,281,117c0,0,179,0,282,-117c0,0,102,-116,102,-322c0,0,0,-205,-102,-322C749,95,646,-20,467,-20Z" 
id="f0_c"
transform="scale(0.001,-0.001)" />

<path d="M424,-20c0,0,-145,0,-219,88c0,0,-75,89,-75,262V836H267V335c0,0,0,-119,46,-178c0,0,47,-59,139,-59c0,0,112,0,177,71c0,0,64,71,64,193V836H830V0H693V128C693,128,643,52,577,15c0,0,-66,-35,-153,-35Z" 
id="f0_r"
transform="scale(0.001,-0.001)" />

<path d="M132,763l62,237v114H351V1000L228,763Z" 
id="f0_11"
transform="scale(0.001,-0.001)" />

<path d="M144,0V1161H281V0Z" 
id="f0_i"
transform="scale(0.001,-0.001)" />

<path d="M139,0V836H277V706c0,0,49,75,116,112c0,0,67,38,154,38c0,0,144,0,218,-90c0,0,74,-89,74,-262V0H702V500c0,0,0,119,-46,177c0,0,-47,59,-139,59c0,0,-112,0,-176,-71c0,0,-64,-70,-64,-193V0Z" 
id="f0_h"
transform="scale(0.001,-0.001)" />

<path d="M283,0L65,836H202L373,184L544,836H706L878,184l171,652h137L967,0H806L626,685L445,0Z" 
id="f0_y"
transform="scale(0.001,-0.001)" />

<path d="M139,0V1161H277V706c0,0,49,75,116,112c0,0,67,38,154,38c0,0,144,0,218,-90c0,0,74,-89,74,-262V0H702V500c0,0,0,119,-46,177c0,0,-47,59,-139,59c0,0,-112,0,-176,-71c0,0,-64,-70,-64,-193V0Z" 
id="f0_3"
transform="scale(0.001,-0.001)" />

<path d="M408,93c0,0,115,0,184,81c0,0,69,81,69,215v30H524c0,0,-167,0,-231,-38c0,0,-64,-38,-64,-129c0,0,0,-73,48,-116c0,0,48,-43,131,-43ZM372,-20c0,0,-128,0,-204,70c0,0,-76,72,-76,193c0,0,0,141,94,212c0,0,95,72,282,72H661v13c0,0,0,95,-62,147c0,0,-63,52,-175,52c0,0,-72,0,-140,-17c0,0,-68,-17,-130,-51V798c0,0,75,29,146,43c0,0,71,15,138,15c0,0,181,0,270,-95c0,0,90,-94,90,-285V0H661V127C661,127,614,51,544,15c0,0,-70,-35,-172,-35Z" 
id="f0_g"
transform="scale(0.001,-0.001)" />

<path d="M359,0L46,836H191L453,134L714,836H859L546,0Z" 
id="f0_k"
transform="scale(0.001,-0.001)" />

<path d="M231,492l491,1c0,0,-2,112,-64,179c0,0,-61,67,-163,67c0,0,-115,0,-184,-65c0,0,-69,-64,-80,-182ZM517,-20c0,0,-199,0,-316,115C201,95,84,211,84,410c0,0,0,205,111,325c0,0,111,121,299,121c0,0,168,0,266,-109c0,0,98,-108,98,-295V385H227c0,0,9,-142,85,-216c0,0,77,-74,213,-74c0,0,80,0,154,19c0,0,74,19,147,58V42C826,42,752,11,675,-4c0,0,-78,-16,-158,-16Z" 
id="f0_4"
transform="scale(0.001,-0.001)" />

<path d="M421,0C421,0,263,0,202,59c0,0,-60,60,-60,217V729H41V836H142v238H280V836H562V729H280V276c0,0,0,-102,28,-132c0,0,28,-29,113,-29H562V0Z" 
id="f0_a"
transform="scale(0.001,-0.001)" />

<path d="M460,115c0,0,111,0,173,82c0,0,61,82,61,230c0,0,0,149,-61,231c0,0,-62,82,-173,82c0,0,-111,0,-173,-82c0,0,-61,-82,-61,-231c0,0,0,-148,61,-230c0,0,62,-82,173,-82ZM446,-317c0,0,-72,0,-137,11c0,0,-64,11,-124,33v134c0,0,60,-33,119,-49c0,0,59,-15,121,-15c0,0,135,0,202,70c0,0,67,71,67,212v68C694,147,652,73,585,36C585,36,519,0,426,0C426,0,272,0,178,117c0,0,-94,117,-94,310c0,0,0,194,94,311c0,0,94,118,248,118c0,0,93,0,159,-37c0,0,67,-36,109,-110V836H831V104c0,0,0,-212,-95,-317c0,0,-94,-104,-290,-104Z" 
id="f0_f"
transform="scale(0.001,-0.001)" />

<path d="M144,0V836H281V0Zm0,987v174H281V987Z" 
id="f0_7"
transform="scale(0.001,-0.001)" />

<path d="M121,-317v116h81c0,0,57,0,88,26c0,0,31,27,69,127l25,62L46,836H191L453,182L714,836H859L492,-76c0,0,-58,-150,-113,-195c0,0,-55,-46,-148,-46Z" 
id="f0_t"
transform="scale(0.001,-0.001)" />

<path d="M163,0V190H321V0Z" 
id="f0_l"
transform="scale(0.001,-0.001)" />

<path d="M560,-20c0,0,-211,0,-319,110c0,0,-108,111,-108,328v696H285V437c0,0,0,-179,64,-258c0,0,65,-78,211,-78c0,0,144,0,209,78c0,0,65,79,65,258v677H986V418c0,0,0,-217,-108,-328C878,90,770,-20,560,-20Z" 
id="f0_u"
transform="scale(0.001,-0.001)" />

<path d="M376,-20c0,0,-67,0,-140,12C236,-8,164,4,83,30V172c0,0,76,-40,150,-59c0,0,74,-20,146,-20c0,0,97,0,150,33c0,0,52,33,52,94c0,0,0,56,-38,85c0,0,-38,30,-165,58l-48,11c0,0,-128,27,-184,83c0,0,-57,55,-57,152c0,0,0,118,83,182c0,0,84,65,238,65c0,0,76,0,143,-12c0,0,67,-11,124,-33V681c0,0,-58,29,-121,44c0,0,-63,15,-130,15c0,0,-102,0,-153,-31c0,0,-51,-31,-51,-94c0,0,0,-48,37,-75c0,0,36,-27,147,-52l46,-10c0,0,147,-32,208,-89c0,0,62,-57,62,-159c0,0,0,-116,-93,-184c0,0,-92,-66,-253,-66Z" 
id="f0_9"
transform="scale(0.001,-0.001)" />

<path d="M139,0V836H277V706c0,0,43,76,112,113c0,0,70,37,169,37c0,0,14,0,31,-2c0,0,17,-2,38,-6l1,-141c0,0,-23,14,-51,20c0,0,-27,6,-60,6c0,0,-116,0,-178,-75c0,0,-62,-76,-62,-218V0Z" 
id="f0_8"
transform="scale(0.001,-0.001)" />

<path d="M495,-20c0,0,-189,0,-300,117C195,97,84,216,84,417c0,0,0,204,112,321c0,0,113,118,308,118c0,0,64,0,124,-14c0,0,60,-13,117,-39V675c0,0,-58,32,-117,48c0,0,-58,16,-118,16c0,0,-133,0,-207,-84c0,0,-74,-85,-74,-238c0,0,0,-153,74,-238c0,0,74,-84,207,-84c0,0,60,0,118,16c0,0,59,16,117,48V32C745,32,688,5,626,-7c0,0,-61,-13,-131,-13Z" 
id="f0_o"
transform="scale(0.001,-0.001)" />

<path d="M460,93c0,0,109,0,171,86c0,0,63,86,63,238c0,0,0,151,-63,237c0,0,-62,86,-171,86c0,0,-109,0,-172,-86c0,0,-62,-86,-62,-237c0,0,0,-152,62,-238c0,0,63,-86,172,-86ZM426,-20c0,0,-151,0,-247,119c0,0,-95,121,-95,318c0,0,0,197,95,318c0,0,96,121,247,121c0,0,93,0,159,-37c0,0,66,-36,109,-110v452H831V0H694V125C694,125,651,51,585,15c0,0,-66,-35,-159,-35Z" 
id="f0_j"
transform="scale(0.001,-0.001)" />

<path d="M727,411L522,965L318,411ZM12,0L437,1114H608L1033,0H876L774,286H272L171,0Z" 
id="f0_d"
transform="scale(0.001,-0.001)" />

<path d="M510,93c0,0,109,0,171,86c0,0,62,86,62,238c0,0,0,151,-62,237c0,0,-62,86,-171,86c0,0,-109,0,-171,-86c0,0,-62,-86,-62,-237c0,0,0,-152,62,-238c0,0,62,-86,171,-86ZM139,-317V836H277V709c0,0,43,74,109,110c0,0,66,37,158,37c0,0,152,0,247,-121c0,0,95,-121,95,-318c0,0,0,-197,-95,-318C791,99,696,-20,544,-20c0,0,-92,0,-158,35c0,0,-66,36,-109,110V-317Z" 
id="f0_b"
transform="scale(0.001,-0.001)" />

<path d="M150,0V1114H300V0Z" 
id="f0_z"
transform="scale(0.001,-0.001)" />

<path d="M482,124c0,0,231,0,338,105c0,0,107,104,107,329c0,0,0,224,-107,328c0,0,-107,104,-338,104H300V124ZM150,0V1114H459c0,0,324,0,476,-135c0,0,151,-135,151,-421c0,0,0,-288,-152,-423C934,135,782,0,459,0Z" 
id="f0_15"
transform="scale(0.001,-0.001)" />


</defs>
</svg>