<?xml version="1.0" encoding="UTF-8" standalone="no"?>
<!DOCTYPE svg PUBLIC "-//W3C//DTD SVG 1.1//EN"
"http://www.w3.org/Graphics/SVG/1.1/DTD/svg11.dtd">
<svg viewBox="0 0 909 1286" version="1.1" xmlns="http://www.w3.org/2000/svg" xmlns:xlink="http://www.w3.org/1999/xlink">
<defs>
<clipPath id="c0_39"><path d="M0,1286.2V.2H909.3v1286Z" /></clipPath>
</defs>
<g clip-path="url(#c0_39)">
<g fill="#000000" >
<use xlink:href="#f0_2" transform="matrix(12,0,0,12,86.8,712.6)" />
<use xlink:href="#f0_3" transform="matrix(12,0,0,12,97.9,712.6)" />
<use xlink:href="#f0_4" transform="matrix(12,0,0,12,109.5,712.6)" />
<use xlink:href="#f0_h" transform="matrix(12,0,0,12,126.8,712.6)" />
<use xlink:href="#f0_4" transform="matrix(12,0,0,12,138.4,712.6)" />
<use xlink:href="#f0_14" transform="matrix(12,0,0,12,149.4,712.6)" />
<use xlink:href="#f0_a" transform="matrix(12,0,0,12,160.2,712.6)" />
<use xlink:href="#f0_9" transform="matrix(12,0,0,12,173.2,712.6)" />
<use xlink:href="#f0_o" transform="matrix(12,0,0,12,182.7,712.6)" />
<use xlink:href="#f0_8" transform="matrix(12,0,0,12,192.8,712.6)" />
<use xlink:href="#f0_4" transform="matrix(12,0,0,12,199.8,712.6)" />
<use xlink:href="#f0_4" transform="matrix(12,0,0,12,211.1,712.6)" />
<use xlink:href="#f0_h" transform="matrix(12,0,0,12,222.4,712.6)" />
<use xlink:href="#f0_g" transform="matrix(12,0,0,12,239.9,712.6)" />
<use xlink:href="#f0_9" transform="matrix(12,0,0,12,251.1,712.6)" />
<use xlink:href="#f0_10" transform="matrix(12,0,0,12,260.7,712.6)" />
<use xlink:href="#f0_9" transform="matrix(12,0,0,12,271.2,712.6)" />
<use xlink:href="#f0_t" transform="matrix(12,0,0,12,286.6,712.6)" />
<use xlink:href="#f0_c" transform="matrix(12,0,0,12,297.5,712.6)" />
<use xlink:href="#f0_r" transform="matrix(12,0,0,12,308.6,712.6)" />
<use xlink:href="#f0_a" transform="matrix(12,0,0,12,326.2,712.6)" />
<use xlink:href="#f0_c" transform="matrix(12,0,0,12,333.4,712.6)" />
<use xlink:href="#f0_9" transform="matrix(12,0,0,12,350.3,712.6)" />
<use xlink:href="#f0_4" transform="matrix(12,0,0,12,359.9,712.6)" />
<use xlink:href="#f0_i" transform="matrix(12,0,0,12,371.2,712.6)" />
<use xlink:href="#f0_4" transform="matrix(12,0,0,12,376.3,712.6)" />
<use xlink:href="#f0_o" transform="matrix(12,0,0,12,387.6,712.6)" />
<use xlink:href="#f0_a" transform="matrix(12,0,0,12,397.6,712.6)" />
<use xlink:href="#f0_g" transform="matrix(12,0,0,12,410.6,712.6)" />
<use xlink:href="#f0_h" transform="matrix(12,0,0,12,421.9,712.6)" />
<use xlink:href="#f0_d" transform="matrix(12,0,0,12,439.3,712.6)" />
<use xlink:href="#f0_b" transform="matrix(12,0,0,12,451.9,712.6)" />
<use xlink:href="#f0_b" transform="matrix(12,0,0,12,463.5,712.6)" />
<use xlink:href="#f0_z" transform="matrix(12,0,0,12,480.9,712.6)" />
<use xlink:href="#f0_15" transform="matrix(12,0,0,12,486.4,712.6)" />
<use xlink:href="#f0_6" transform="matrix(12,0,0,12,506.2,712.6)" />
<use xlink:href="#f0_c" transform="matrix(12,0,0,12,512.8,712.6)" />
<use xlink:href="#f0_8" transform="matrix(12,0,0,12,523.9,712.6)" />
<use xlink:href="#f0_a" transform="matrix(12,0,0,12,537.4,712.6)" />
<use xlink:href="#f0_3" transform="matrix(12,0,0,12,544.5,712.6)" />
<use xlink:href="#f0_7" transform="matrix(12,0,0,12,556.1,712.6)" />
<use xlink:href="#f0_9" transform="matrix(12,0,0,12,561.2,712.6)" />
<use xlink:href="#f0_h" transform="matrix(12,0,0,12,576.6,712.6)" />
<use xlink:href="#f0_4" transform="matrix(12,0,0,12,588.2,712.6)" />
<use xlink:href="#f0_y" transform="matrix(12,0,0,12,599.5,712.6)" />
<use xlink:href="#f0_b" transform="matrix(12,0,0,12,620.3,712.6)" />
<use xlink:href="#f0_8" transform="matrix(12,0,0,12,631.9,712.6)" />
<use xlink:href="#f0_c" transform="matrix(12,0,0,12,639.1,712.6)" />
<use xlink:href="#f0_6" transform="matrix(12,0,0,12,650.2,712.6)" />
<use xlink:href="#f0_7" transform="matrix(12,0,0,12,656.7,712.6)" />
<use xlink:href="#f0_i" transform="matrix(12,0,0,12,661.8,712.6)" />
<use xlink:href="#f0_4" transform="matrix(12,0,0,12,666.9,712.6)" />
<use xlink:href="#f0_l" transform="matrix(12,0,0,12,678.2,712.6)" />
<use xlink:href="#f0_e" transform="matrix(12,0,0,12,689.8,712.6)" />
<use xlink:href="#f0_7" transform="matrix(12,0,0,12,701.4,712.6)" />
<use xlink:href="#f0_h" transform="matrix(12,0,0,12,706.4,712.6)" />
<use xlink:href="#f0_o" transform="matrix(12,0,0,12,718,712.6)" />
<use xlink:href="#f0_4" transform="matrix(12,0,0,12,728.1,712.6)" />
<use xlink:href="#f0_t" transform="matrix(12,0,0,12,745.3,712.6)" />
<use xlink:href="#f0_c" transform="matrix(12,0,0,12,756.2,712.6)" />
<use xlink:href="#f0_r" transform="matrix(12,0,0,12,767.3,712.6)" />
<use xlink:href="#f0_11" transform="matrix(12,0,0,12,778.9,712.6)" />
<use xlink:href="#f0_k" transform="matrix(12,0,0,12,784.7,712.6)" />
<use xlink:href="#f0_4" transform="matrix(12,0,0,12,795.6,712.6)" />
<use xlink:href="#f0_c" transform="matrix(12,0,0,12,86.8,741.1)" />
<use xlink:href="#f0_h" transform="matrix(12,0,0,12,97.9,741.1)" />
<use xlink:href="#f0_i" transform="matrix(12,0,0,12,109.7,741.1)" />
<use xlink:href="#f0_t" transform="matrix(12,0,0,12,114.7,741.1)" />
<use xlink:href="#f0_f" transform="matrix(12,0,0,12,131.4,741.1)" />
<use xlink:href="#f0_4" transform="matrix(12,0,0,12,143,741.1)" />
<use xlink:href="#f0_h" transform="matrix(12,0,0,12,154.3,741.1)" />
<use xlink:href="#f0_4" transform="matrix(12,0,0,12,165.9,741.1)" />
<use xlink:href="#f0_8" transform="matrix(12,0,0,12,177.2,741.1)" />
<use xlink:href="#f0_g" transform="matrix(12,0,0,12,184.6,741.1)" />
<use xlink:href="#f0_a" transform="matrix(12,0,0,12,195.9,741.1)" />
<use xlink:href="#f0_4" transform="matrix(12,0,0,12,203.1,741.1)" />
<use xlink:href="#f0_j" transform="matrix(12,0,0,12,214.4,741.1)" />
<use xlink:href="#f0_c" transform="matrix(12,0,0,12,231.8,741.1)" />
<use xlink:href="#f0_h" transform="matrix(12,0,0,12,243,741.1)" />
<use xlink:href="#f0_4" transform="matrix(12,0,0,12,254.6,741.1)" />
<use xlink:href="#f0_9" transform="matrix(12,0,0,12,271.8,741.1)" />
<use xlink:href="#f0_c" transform="matrix(12,0,0,12,281.4,741.1)" />
<use xlink:href="#f0_6" transform="matrix(12,0,0,12,298.4,741.1)" />
<use xlink:href="#f0_g" transform="matrix(12,0,0,12,304.8,741.1)" />
<use xlink:href="#f0_8" transform="matrix(12,0,0,12,316.1,741.1)" />
<use xlink:href="#f0_q" transform="matrix(12,0,0,12,323.6,741.1)" />
<use xlink:href="#f0_a" transform="matrix(12,0,0,12,335.2,741.1)" />
<use xlink:href="#f0_3" transform="matrix(12,0,0,12,342.4,741.1)" />
<use xlink:href="#f0_4" transform="matrix(12,0,0,12,354,741.1)" />
<use xlink:href="#f0_j" transform="matrix(12,0,0,12,371.1,741.1)" />
<use xlink:href="#f0_8" transform="matrix(12,0,0,12,382.9,741.1)" />
<use xlink:href="#f0_c" transform="matrix(12,0,0,12,389.9,741.1)" />
<use xlink:href="#f0_b" transform="matrix(12,0,0,12,401,741.1)" />
<use xlink:href="#f0_j" transform="matrix(12,0,0,12,418.6,741.1)" />
<use xlink:href="#f0_c" transform="matrix(12,0,0,12,430.2,741.1)" />
<use xlink:href="#f0_y" transform="matrix(12,0,0,12,441.3,741.1)" />
<use xlink:href="#f0_h" transform="matrix(12,0,0,12,456.3,741.1)" />
<use xlink:href="#f0_p" transform="matrix(12,0,0,12,473.9,741.1)" />
<use xlink:href="#f0_4" transform="matrix(12,0,0,12,491.7,741.1)" />
<use xlink:href="#f0_h" transform="matrix(12,0,0,12,503,741.1)" />
<use xlink:href="#f0_r" transform="matrix(12,0,0,12,514.6,741.1)" />
<use xlink:href="#f0_o" transform="matrix(12,0,0,12,532.1,741.1)" />
<use xlink:href="#f0_c" transform="matrix(12,0,0,12,542.1,741.1)" />
<use xlink:href="#f0_h" transform="matrix(12,0,0,12,553.3,741.1)" />
<use xlink:href="#f0_a" transform="matrix(12,0,0,12,564.9,741.1)" />
<use xlink:href="#f0_g" transform="matrix(12,0,0,12,572.1,741.1)" />
<use xlink:href="#f0_7" transform="matrix(12,0,0,12,583.4,741.1)" />
<use xlink:href="#f0_h" transform="matrix(12,0,0,12,588.4,741.1)" />
<use xlink:href="#f0_9" transform="matrix(12,0,0,12,600,741.1)" />
<use xlink:href="#f0_19" transform="matrix(12,0,0,12,615.4,741.1)" />
<use xlink:href="#f0_r" transform="matrix(12,0,0,12,620.5,741.1)" />
<use xlink:href="#f0_9" transform="matrix(12,0,0,12,632.1,741.1)" />
<use xlink:href="#f0_a" transform="matrix(12,0,0,12,641.7,741.1)" />
<use xlink:href="#f0_a" transform="matrix(12,0,0,12,654.7,741.1)" />
<use xlink:href="#f0_3" transform="matrix(12,0,0,12,661.9,741.1)" />
<use xlink:href="#f0_7" transform="matrix(12,0,0,12,673.5,741.1)" />
<use xlink:href="#f0_9" transform="matrix(12,0,0,12,678.5,741.1)" />
<use xlink:href="#f0_c" transform="matrix(12,0,0,12,694.1,741.1)" />
<use xlink:href="#f0_h" transform="matrix(12,0,0,12,705.2,741.1)" />
<use xlink:href="#f0_4" transform="matrix(12,0,0,12,716.8,741.1)" />
<use xlink:href="#f0_l" transform="matrix(12,0,0,12,728.1,741.1)" />
<use xlink:href="#f0_18" transform="matrix(12,0,0,12,739.7,741.1)" />
<use xlink:href="#f0_i" transform="matrix(12,0,0,12,752.5,741.1)" />
<use xlink:href="#f0_7" transform="matrix(12,0,0,12,757.6,741.1)" />
<use xlink:href="#f0_o" transform="matrix(12,0,0,12,762.6,741.1)" />
<use xlink:href="#f0_10" transform="matrix(12,0,0,12,772.7,741.1)" />
</g>
<g fill="#0000FF" >
<use xlink:href="#f1_h" transform="matrix(12,0,0,12,86.8,769.8)" />
<use xlink:href="#f1_f" transform="matrix(12,0,0,12,100.2,769.8)" />
<use xlink:href="#f1_6" transform="matrix(12,0,0,12,112.9,769.8)" />
<use xlink:href="#f1_4" transform="matrix(12,0,0,12,125.9,769.8)" />
<use xlink:href="#f1_5" transform="matrix(12,0,0,12,134.6,769.8)" />
<use xlink:href="#f1_6" transform="matrix(12,0,0,12,141,769.8)" />
<use xlink:href="#f1_g" transform="matrix(12,0,0,12,154,769.8)" />
<use xlink:href="#f1_3" transform="matrix(12,0,0,12,166.9,769.8)" />
</g>
<g fill="#000000" >
<use xlink:href="#f0_12" transform="matrix(12,0,0,12,179.5,769.8)" />
</g>
</g>
<image preserveAspectRatio="none" x="215" y="87" width="479" height="573" xlink:href="img/1.png" />
<defs>
<path d="M391,0V987H-3v127H938V987H543V0Z" 
id="f0_2"
transform="scale(0.001,-0.001)" />

<path d="M139,0V1161H277V706c0,0,49,75,116,112c0,0,67,38,154,38c0,0,144,0,218,-90c0,0,74,-89,74,-262V0H702V500c0,0,0,119,-46,177c0,0,-47,59,-139,59c0,0,-112,0,-176,-71c0,0,-64,-70,-64,-193V0Z" 
id="f0_3"
transform="scale(0.001,-0.001)" />

<path d="M231,492l491,1c0,0,-2,112,-64,179c0,0,-61,67,-163,67c0,0,-115,0,-184,-65c0,0,-69,-64,-80,-182ZM517,-20c0,0,-199,0,-316,115C201,95,84,211,84,410c0,0,0,205,111,325c0,0,111,121,299,121c0,0,168,0,266,-109c0,0,98,-108,98,-295V385H227c0,0,9,-142,85,-216c0,0,77,-74,213,-74c0,0,80,0,154,19c0,0,74,19,147,58V42C826,42,752,11,675,-4c0,0,-78,-16,-158,-16Z" 
id="f0_4"
transform="scale(0.001,-0.001)" />

<path d="M139,0V836H277V706c0,0,49,75,116,112c0,0,67,38,154,38c0,0,144,0,218,-90c0,0,74,-89,74,-262V0H702V500c0,0,0,119,-46,177c0,0,-47,59,-139,59c0,0,-112,0,-176,-71c0,0,-64,-70,-64,-193V0Z" 
id="f0_h"
transform="scale(0.001,-0.001)" />

<path d="M44,0L369,437L71,836H233L455,538L677,836H839L537,429L855,0H693L449,328L206,0Z" 
id="f0_14"
transform="scale(0.001,-0.001)" />

<path d="M421,0C421,0,263,0,202,59c0,0,-60,60,-60,217V729H41V836H142v238H280V836H562V729H280V276c0,0,0,-102,28,-132c0,0,28,-29,113,-29H562V0Z" 
id="f0_a"
transform="scale(0.001,-0.001)" />

<path d="M376,-20c0,0,-67,0,-140,12C236,-8,164,4,83,30V172c0,0,76,-40,150,-59c0,0,74,-20,146,-20c0,0,97,0,150,33c0,0,52,33,52,94c0,0,0,56,-38,85c0,0,-38,30,-165,58l-48,11c0,0,-128,27,-184,83c0,0,-57,55,-57,152c0,0,0,118,83,182c0,0,84,65,238,65c0,0,76,0,143,-12c0,0,67,-11,124,-33V681c0,0,-58,29,-121,44c0,0,-63,15,-130,15c0,0,-102,0,-153,-31c0,0,-51,-31,-51,-94c0,0,0,-48,37,-75c0,0,36,-27,147,-52l46,-10c0,0,147,-32,208,-89c0,0,62,-57,62,-159c0,0,0,-116,-93,-184c0,0,-92,-66,-253,-66Z" 
id="f0_9"
transform="scale(0.001,-0.001)" />

<path d="M495,-20c0,0,-189,0,-300,117C195,97,84,216,84,417c0,0,0,204,112,321c0,0,113,118,308,118c0,0,64,0,124,-14c0,0,60,-13,117,-39V675c0,0,-58,32,-117,48c0,0,-58,16,-118,16c0,0,-133,0,-207,-84c0,0,-74,-85,-74,-238c0,0,0,-153,74,-238c0,0,74,-84,207,-84c0,0,60,0,118,16c0,0,59,16,117,48V32C745,32,688,5,626,-7c0,0,-61,-13,-131,-13Z" 
id="f0_o"
transform="scale(0.001,-0.001)" />

<path d="M139,0V836H277V706c0,0,43,76,112,113c0,0,70,37,169,37c0,0,14,0,31,-2c0,0,17,-2,38,-6l1,-141c0,0,-23,14,-51,20c0,0,-27,6,-60,6c0,0,-116,0,-178,-75c0,0,-62,-76,-62,-218V0Z" 
id="f0_8"
transform="scale(0.001,-0.001)" />

<path d="M408,93c0,0,115,0,184,81c0,0,69,81,69,215v30H524c0,0,-167,0,-231,-38c0,0,-64,-38,-64,-129c0,0,0,-73,48,-116c0,0,48,-43,131,-43ZM372,-20c0,0,-128,0,-204,70c0,0,-76,72,-76,193c0,0,0,141,94,212c0,0,95,72,282,72H661v13c0,0,0,95,-62,147c0,0,-63,52,-175,52c0,0,-72,0,-140,-17c0,0,-68,-17,-130,-51V798c0,0,75,29,146,43c0,0,71,15,138,15c0,0,181,0,270,-95c0,0,90,-94,90,-285V0H661V127C661,127,614,51,544,15c0,0,-70,-35,-172,-35Z" 
id="f0_g"
transform="scale(0.001,-0.001)" />

<path d="M139,0V1161H277V475L686,836H861L418,445L880,0H701L277,408V0Z" 
id="f0_10"
transform="scale(0.001,-0.001)" />

<path d="M121,-317v116h81c0,0,57,0,88,26c0,0,31,27,69,127l25,62L46,836H191L453,182L714,836H859L492,-76c0,0,-58,-150,-113,-195c0,0,-55,-46,-148,-46Z" 
id="f0_t"
transform="scale(0.001,-0.001)" />

<path d="M467,95c0,0,110,0,174,86c0,0,64,87,64,236c0,0,0,148,-64,235c0,0,-64,87,-174,87c0,0,-110,0,-174,-86c0,0,-64,-86,-64,-236c0,0,0,-150,64,-236c0,0,63,-86,174,-86Zm0,-115c0,0,-179,0,-281,115C186,95,84,212,84,417c0,0,0,206,102,322c0,0,102,117,281,117c0,0,179,0,282,-117c0,0,102,-116,102,-322c0,0,0,-205,-102,-322C749,95,646,-20,467,-20Z" 
id="f0_c"
transform="scale(0.001,-0.001)" />

<path d="M424,-20c0,0,-145,0,-219,88c0,0,-75,89,-75,262V836H267V335c0,0,0,-119,46,-178c0,0,47,-59,139,-59c0,0,112,0,177,71c0,0,64,71,64,193V836H830V0H693V128C693,128,643,52,577,15c0,0,-66,-35,-153,-35Z" 
id="f0_r"
transform="scale(0.001,-0.001)" />

<path d="M144,0V1161H281V0Z" 
id="f0_i"
transform="scale(0.001,-0.001)" />

<path d="M727,411L522,965L318,411ZM12,0L437,1114H608L1033,0H876L774,286H272L171,0Z" 
id="f0_d"
transform="scale(0.001,-0.001)" />

<path d="M510,93c0,0,109,0,171,86c0,0,62,86,62,238c0,0,0,151,-62,237c0,0,-62,86,-171,86c0,0,-109,0,-171,-86c0,0,-62,-86,-62,-237c0,0,0,-152,62,-238c0,0,62,-86,171,-86ZM139,-317V836H277V709c0,0,43,74,109,110c0,0,66,37,158,37c0,0,152,0,247,-121c0,0,95,-121,95,-318c0,0,0,-197,-95,-318C791,99,696,-20,544,-20c0,0,-92,0,-158,35c0,0,-66,36,-109,110V-317Z" 
id="f0_b"
transform="scale(0.001,-0.001)" />

<path d="M150,0V1114H300V0Z" 
id="f0_z"
transform="scale(0.001,-0.001)" />

<path d="M482,124c0,0,231,0,338,105c0,0,107,104,107,329c0,0,0,224,-107,328c0,0,-107,104,-338,104H300V124ZM150,0V1114H459c0,0,324,0,476,-135c0,0,151,-135,151,-421c0,0,0,-288,-152,-423C934,135,782,0,459,0Z" 
id="f0_15"
transform="scale(0.001,-0.001)" />

<path d="M166,0V729H35V836H166v58c0,0,0,139,65,203c0,0,65,64,206,64H567V1046H435c0,0,-74,0,-102,-29c0,0,-29,-30,-29,-107V836H530V729H304V0Z" 
id="f0_6"
transform="scale(0.001,-0.001)" />

<path d="M144,0V836H281V0Zm0,987v174H281V987Z" 
id="f0_7"
transform="scale(0.001,-0.001)" />

<path d="M283,0L65,836H202L373,184L544,836H706L878,184l171,652h137L967,0H806L626,685L445,0Z" 
id="f0_y"
transform="scale(0.001,-0.001)" />

<path d="M163,0V190H321V0Z" 
id="f0_l"
transform="scale(0.001,-0.001)" />

<path d="M458,-20c0,0,-79,0,-168,17c0,0,-89,17,-184,52V204c0,0,91,-51,179,-77c0,0,88,-26,173,-26c0,0,129,0,199,50c0,0,70,51,70,145c0,0,0,82,-50,129c0,0,-50,46,-165,69l-92,18c0,0,-169,34,-244,105c0,0,-75,72,-75,199c0,0,0,148,104,233c0,0,104,85,287,85c0,0,78,0,159,-14c0,0,81,-14,166,-42V931c0,0,-85,41,-161,61c0,0,-76,20,-147,20c0,0,-123,0,-190,-48c0,0,-67,-48,-67,-136c0,0,0,-73,45,-111c0,0,44,-38,168,-61l91,-19c0,0,168,-32,249,-113c0,0,80,-81,80,-216c0,0,0,-162,-109,-246c0,0,-108,-82,-318,-82Z" 
id="f0_e"
transform="scale(0.001,-0.001)" />

<path d="M132,763l62,237v114H351V1000L228,763Z" 
id="f0_11"
transform="scale(0.001,-0.001)" />

<path d="M359,0L46,836H191L453,134L714,836H859L546,0Z" 
id="f0_k"
transform="scale(0.001,-0.001)" />

<path d="M460,115c0,0,111,0,173,82c0,0,61,82,61,230c0,0,0,149,-61,231c0,0,-62,82,-173,82c0,0,-111,0,-173,-82c0,0,-61,-82,-61,-231c0,0,0,-148,61,-230c0,0,62,-82,173,-82ZM446,-317c0,0,-72,0,-137,11c0,0,-64,11,-124,33v134c0,0,60,-33,119,-49c0,0,59,-15,121,-15c0,0,135,0,202,70c0,0,67,71,67,212v68C694,147,652,73,585,36C585,36,519,0,426,0C426,0,272,0,178,117c0,0,-94,117,-94,310c0,0,0,194,94,311c0,0,94,118,248,118c0,0,93,0,159,-37c0,0,67,-36,109,-110V836H831V104c0,0,0,-212,-95,-317c0,0,-94,-104,-290,-104Z" 
id="f0_f"
transform="scale(0.001,-0.001)" />

<path d="M460,93c0,0,109,0,171,86c0,0,63,86,63,238c0,0,0,151,-63,237c0,0,-62,86,-171,86c0,0,-109,0,-172,-86c0,0,-62,-86,-62,-237c0,0,0,-152,62,-238c0,0,63,-86,172,-86ZM426,-20c0,0,-151,0,-247,119c0,0,-95,121,-95,318c0,0,0,197,95,318c0,0,96,121,247,121c0,0,93,0,159,-37c0,0,66,-36,109,-110v452H831V0H694V125C694,125,651,51,585,15c0,0,-66,-35,-159,-35Z" 
id="f0_j"
transform="scale(0.001,-0.001)" />

<path d="M117,-176L179,62V190H336V62L213,-176Z" 
id="f0_q"
transform="scale(0.001,-0.001)" />

<path d="M139,0V836H277V706c0,0,47,77,112,113c0,0,66,37,156,37c0,0,91,0,155,-47c0,0,64,-46,94,-134c0,0,52,93,123,137c0,0,72,44,169,44c0,0,130,0,201,-92c0,0,71,-91,71,-260V0H1220V500c0,0,0,120,-42,178c0,0,-43,58,-130,58c0,0,-107,0,-169,-71c0,0,-62,-70,-62,-193V0H680V500c0,0,0,121,-43,179c0,0,-42,57,-131,57c0,0,-105,0,-167,-71c0,0,-62,-71,-62,-193V0Z" 
id="f0_p"
transform="scale(0.001,-0.001)" />

<path d="M-26,-317v117H9c0,0,78,0,106,36c0,0,29,36,29,150V836H281V-14c0,0,0,-160,-61,-231c0,0,-61,-72,-195,-72ZM144,987v174H281V987Z" 
id="f0_19"
transform="scale(0.001,-0.001)" />

<path d="M630,-20c0,0,-253,0,-398,153C232,133,86,288,86,556c0,0,0,269,146,423c0,0,145,155,398,155c0,0,100,0,189,-26c0,0,88,-27,166,-79V869c0,0,-76,71,-163,106c0,0,-86,35,-183,35c0,0,-191,0,-292,-117C347,893,245,777,245,556c0,0,0,-220,102,-337c0,0,101,-116,292,-116c0,0,97,0,183,35c0,0,87,35,163,105V86C985,86,906,32,817,5c0,0,-88,-25,-187,-25Z" 
id="f0_18"
transform="scale(0.001,-0.001)" />

<path d="M680,-20c0,0,-278,0,-441,154C239,134,76,290,76,556c0,0,0,267,163,423c0,0,163,155,441,155c0,0,93,0,179,-21c0,0,86,-21,165,-62V820c0,0,-80,55,-158,81c0,0,-77,25,-163,25c0,0,-154,0,-241,-98c0,0,-88,-99,-88,-272c0,0,0,-172,87,-271c0,0,88,-98,242,-98c0,0,86,0,163,25c0,0,78,26,158,80V61C1024,61,945,20,859,0c0,0,-86,-20,-179,-20Z" 
id="f1_h"
transform="scale(0.001,-0.001)" />

<path d="M526,169c0,0,87,0,133,64c0,0,46,64,46,184c0,0,0,120,-46,184c0,0,-46,64,-133,64c0,0,-89,0,-135,-64c0,0,-47,-64,-47,-184c0,0,0,-120,47,-184c0,0,46,-64,135,-64Zm0,-189c0,0,-217,0,-339,115C187,95,66,211,66,417c0,0,0,206,121,322c0,0,122,117,339,117c0,0,215,0,336,-117c0,0,122,-116,122,-322c0,0,0,-206,-122,-322C862,95,741,-20,526,-20Z" 
id="f1_f"
transform="scale(0.001,-0.001)" />

<path d="M128,0V836H395V713c0,0,60,73,128,108c0,0,68,35,150,35c0,0,145,0,220,-89c0,0,75,-89,75,-258V0H699V389c0,0,0,109,-5,150c0,0,-5,41,-16,60c0,0,-16,26,-43,41c0,0,-27,14,-61,14c0,0,-84,0,-131,-64c0,0,-48,-65,-48,-179V0Z" 
id="f1_6"
transform="scale(0.001,-0.001)" />

<path d="M443,0C443,0,285,0,219,66c0,0,-66,66,-66,224V645H20V836H153v237H419V836H695V645H419V290c0,0,0,-58,24,-79c0,0,23,-20,91,-20H672V0Z" 
id="f1_4"
transform="scale(0.001,-0.001)" />

<path d="M128,0V836H395V0Zm0,944v217H395V944Z" 
id="f1_5"
transform="scale(0.001,-0.001)" />

<path d="M415,-20c0,0,-144,0,-220,87c0,0,-76,89,-76,259V836H388V752c0,0,0,-67,-1,-170c0,0,0,-103,0,-137c0,0,0,-101,5,-145c0,0,5,-44,18,-65c0,0,16,-26,43,-40c0,0,26,-14,60,-14c0,0,84,0,132,64c0,0,47,64,47,178V836H959V0H692V121C692,121,632,48,564,13c0,0,-67,-33,-149,-33Z" 
id="f1_g"
transform="scale(0.001,-0.001)" />

<path d="M687,509c0,0,0,76,-44,122c0,0,-44,47,-116,47c0,0,-78,0,-126,-44c0,0,-49,-43,-61,-125ZM544,-20c0,0,-227,0,-353,114C191,94,66,209,66,417c0,0,0,204,123,321c0,0,123,118,340,118c0,0,197,0,315,-119c0,0,118,-118,118,-317V344H337c0,0,10,-94,68,-141c0,0,59,-47,163,-47c0,0,85,0,173,25c0,0,89,25,182,76V51C923,51,828,15,733,-2c0,0,-94,-18,-189,-18Z" 
id="f1_3"
transform="scale(0.001,-0.001)" />

<path d="M179,0V190H336V0Zm0,600V790H336V600Z" 
id="f0_12"
transform="scale(0.001,-0.001)" />


</defs>
</svg>