<?xml version="1.0" encoding="UTF-8" standalone="no"?>
<!DOCTYPE svg PUBLIC "-//W3C//DTD SVG 1.1//EN"
"http://www.w3.org/Graphics/SVG/1.1/DTD/svg11.dtd">
<svg viewBox="0 0 909 1286" version="1.1" xmlns="http://www.w3.org/2000/svg" xmlns:xlink="http://www.w3.org/1999/xlink">
<defs>
<clipPath id="c0_38"><path d="M0,1286.2V.2H909.3v1286Z" /></clipPath>
</defs>
<g clip-path="url(#c0_38)">
<g fill="#000000" >
<use xlink:href="#f0_18" transform="matrix(12,0,0,12,86.8,665.5)" />
<use xlink:href="#f0_b" transform="matrix(12,0,0,12,98.4,665.5)" />
<use xlink:href="#f0_g" transform="matrix(12,0,0,12,108.6,665.5)" />
<use xlink:href="#f0_d" transform="matrix(12,0,0,12,115.6,665.5)" />
<use xlink:href="#f0_o" transform="matrix(12,0,0,12,126.8,665.5)" />
<use xlink:href="#f0_o" transform="matrix(12,0,0,12,131.9,665.5)" />
<use xlink:href="#f0_f" transform="matrix(12,0,0,12,142.8,665.5)" />
<use xlink:href="#f0_d" transform="matrix(12,0,0,12,154.4,665.5)" />
<use xlink:href="#f0_n" transform="matrix(12,0,0,12,165.7,665.5)" />
<use xlink:href="#f0_e" transform="matrix(12,0,0,12,180.7,665.5)" />
<use xlink:href="#f0_8" transform="matrix(12,0,0,12,198.1,665.5)" />
<use xlink:href="#f0_e" transform="matrix(12,0,0,12,209.4,665.5)" />
<use xlink:href="#f0_f" transform="matrix(12,0,0,12,221,665.5)" />
<use xlink:href="#f0_b" transform="matrix(12,0,0,12,238.4,665.5)" />
<use xlink:href="#f0_d" transform="matrix(12,0,0,12,248.5,665.5)" />
<use xlink:href="#f0_u" transform="matrix(12,0,0,12,259.6,665.5)" />
<use xlink:href="#f0_s" transform="matrix(12,0,0,12,277.5,665.5)" />
<use xlink:href="#f0_o" transform="matrix(12,0,0,12,289.2,665.5)" />
<use xlink:href="#f0_a" transform="matrix(12,0,0,12,294.3,665.5)" />
<use xlink:href="#f0_6" transform="matrix(12,0,0,12,305.5,665.5)" />
<use xlink:href="#f0_a" transform="matrix(12,0,0,12,312.7,665.5)" />
<use xlink:href="#f0_6" transform="matrix(12,0,0,12,329.8,665.5)" />
<use xlink:href="#f0_7" transform="matrix(12,0,0,12,337,665.5)" />
<use xlink:href="#f0_a" transform="matrix(12,0,0,12,348.6,665.5)" />
<use xlink:href="#f0_6" transform="matrix(12,0,0,12,365.7,665.5)" />
<use xlink:href="#f0_7" transform="matrix(12,0,0,12,372.9,665.5)" />
<use xlink:href="#f0_a" transform="matrix(12,0,0,12,384.5,665.5)" />
<use xlink:href="#f0_f" transform="matrix(12,0,0,12,401.6,665.5)" />
<use xlink:href="#f0_a" transform="matrix(12,0,0,12,413.2,665.5)" />
<use xlink:href="#f0_9" transform="matrix(12,0,0,12,424.5,665.5)" />
<use xlink:href="#f0_b" transform="matrix(12,0,0,12,434.1,665.5)" />
<use xlink:href="#f0_g" transform="matrix(12,0,0,12,444.2,665.5)" />
<use xlink:href="#f0_c" transform="matrix(12,0,0,12,451.7,665.5)" />
<use xlink:href="#f0_s" transform="matrix(12,0,0,12,456.7,665.5)" />
<use xlink:href="#f0_6" transform="matrix(12,0,0,12,468.3,665.5)" />
<use xlink:href="#f0_c" transform="matrix(12,0,0,12,475.6,665.5)" />
<use xlink:href="#f0_d" transform="matrix(12,0,0,12,480.7,665.5)" />
<use xlink:href="#f0_e" transform="matrix(12,0,0,12,491.8,665.5)" />
<use xlink:href="#f0_13" transform="matrix(12,0,0,12,509.4,665.5)" />
<use xlink:href="#f0_6" transform="matrix(12,0,0,12,516.6,665.5)" />
<use xlink:href="#f0_7" transform="matrix(12,0,0,12,523.8,665.5)" />
<use xlink:href="#f0_c" transform="matrix(12,0,0,12,535.4,665.5)" />
<use xlink:href="#f0_9" transform="matrix(12,0,0,12,540.4,665.5)" />
<use xlink:href="#f0_c" transform="matrix(12,0,0,12,555.8,665.5)" />
<use xlink:href="#f0_9" transform="matrix(12,0,0,12,560.9,665.5)" />
<use xlink:href="#f0_n" transform="matrix(12,0,0,12,576.3,665.5)" />
<use xlink:href="#f0_7" transform="matrix(12,0,0,12,591.3,665.5)" />
<use xlink:href="#f0_8" transform="matrix(12,0,0,12,602.9,665.5)" />
<use xlink:href="#f0_6" transform="matrix(12,0,0,12,614.2,665.5)" />
<use xlink:href="#f0_6" transform="matrix(12,0,0,12,627.2,665.5)" />
<use xlink:href="#f0_7" transform="matrix(12,0,0,12,634.3,665.5)" />
<use xlink:href="#f0_a" transform="matrix(12,0,0,12,645.9,665.5)" />
<use xlink:href="#f0_k" transform="matrix(12,0,0,12,663,665.5)" />
<use xlink:href="#f0_9" transform="matrix(12,0,0,12,674.7,665.5)" />
<use xlink:href="#f0_a" transform="matrix(12,0,0,12,684.1,665.5)" />
<use xlink:href="#f0_g" transform="matrix(12,0,0,12,695.4,665.5)" />
<use xlink:href="#f0_9" transform="matrix(12,0,0,12,702.9,665.5)" />
<use xlink:href="#f0_n" transform="matrix(12,0,0,12,718.3,665.5)" />
<use xlink:href="#f0_c" transform="matrix(12,0,0,12,733.3,665.5)" />
<use xlink:href="#f0_o" transform="matrix(12,0,0,12,738.5,665.5)" />
<use xlink:href="#f0_o" transform="matrix(12,0,0,12,743.5,665.5)" />
<use xlink:href="#f0_9" transform="matrix(12,0,0,12,754.5,665.5)" />
<use xlink:href="#f0_a" transform="matrix(12,0,0,12,764,665.5)" />
<use xlink:href="#f0_a" transform="matrix(12,0,0,12,775.3,665.5)" />
<use xlink:href="#f0_c" transform="matrix(12,0,0,12,792.4,665.5)" />
<use xlink:href="#f0_e" transform="matrix(12,0,0,12,797.4,665.5)" />
<use xlink:href="#f0_6" transform="matrix(12,0,0,12,86.8,694.2)" />
<use xlink:href="#f0_7" transform="matrix(12,0,0,12,94,694.2)" />
<use xlink:href="#f0_a" transform="matrix(12,0,0,12,105.6,694.2)" />
<use xlink:href="#f0_8" transform="matrix(12,0,0,12,122.7,694.2)" />
<use xlink:href="#f0_s" transform="matrix(12,0,0,12,134,694.2)" />
<use xlink:href="#f0_s" transform="matrix(12,0,0,12,145.6,694.2)" />
<use xlink:href="#f0_9" transform="matrix(12,0,0,12,163,694.2)" />
<use xlink:href="#f0_6" transform="matrix(12,0,0,12,172.6,694.2)" />
<use xlink:href="#f0_d" transform="matrix(12,0,0,12,179.8,694.2)" />
<use xlink:href="#f0_g" transform="matrix(12,0,0,12,191.1,694.2)" />
<use xlink:href="#f0_a" transform="matrix(12,0,0,12,198.1,694.2)" />
<use xlink:href="#f0_14" transform="matrix(12,0,0,12,209.4,694.2)" />
<use xlink:href="#f0_8" transform="matrix(12,0,0,12,222.4,694.2)" />
<use xlink:href="#f0_e" transform="matrix(12,0,0,12,233.7,694.2)" />
<use xlink:href="#f0_f" transform="matrix(12,0,0,12,245.3,694.2)" />
<use xlink:href="#f0_i" transform="matrix(12,0,0,12,262.7,694.2)" />
<use xlink:href="#f0_a" transform="matrix(12,0,0,12,272.6,694.2)" />
<use xlink:href="#f0_p" transform="matrix(12,0,0,12,283.9,694.2)" />
<use xlink:href="#f0_n" transform="matrix(12,0,0,12,294.8,694.2)" />
<use xlink:href="#f0_d" transform="matrix(12,0,0,12,309.7,694.2)" />
<use xlink:href="#f0_g" transform="matrix(12,0,0,12,320.9,694.2)" />
<use xlink:href="#f0_f" transform="matrix(12,0,0,12,328.1,694.2)" />
<use xlink:href="#f0_9" transform="matrix(12,0,0,12,339.7,694.2)" />
<use xlink:href="#f0_l" transform="matrix(12,0,0,12,349.3,694.2)" />
<use xlink:href="#f0_1f" transform="matrix(12,0,0,12,86.8,722.8)" />
<use xlink:href="#f0_d" transform="matrix(12,0,0,12,99.6,722.8)" />
<use xlink:href="#f0_e" transform="matrix(12,0,0,12,110.7,722.8)" />
<use xlink:href="#f0_9" transform="matrix(12,0,0,12,122.3,722.8)" />
<use xlink:href="#f0_c" transform="matrix(12,0,0,12,132,722.8)" />
<use xlink:href="#f0_f" transform="matrix(12,0,0,12,137,722.8)" />
<use xlink:href="#f0_a" transform="matrix(12,0,0,12,148.6,722.8)" />
<use xlink:href="#f0_g" transform="matrix(12,0,0,12,159.9,722.8)" />
<use xlink:href="#f0_6" transform="matrix(12,0,0,12,173.3,722.8)" />
<use xlink:href="#f0_7" transform="matrix(12,0,0,12,180.5,722.8)" />
<use xlink:href="#f0_a" transform="matrix(12,0,0,12,192.1,722.8)" />
<use xlink:href="#f0_i" transform="matrix(12,0,0,12,209.2,722.8)" />
<use xlink:href="#f0_a" transform="matrix(12,0,0,12,219.3,722.8)" />
<use xlink:href="#f0_p" transform="matrix(12,0,0,12,230.5,722.8)" />
<use xlink:href="#f0_n" transform="matrix(12,0,0,12,241.3,722.8)" />
<use xlink:href="#f0_d" transform="matrix(12,0,0,12,256.3,722.8)" />
<use xlink:href="#f0_g" transform="matrix(12,0,0,12,267.4,722.8)" />
<use xlink:href="#f0_f" transform="matrix(12,0,0,12,274.7,722.8)" />
<use xlink:href="#f0_9" transform="matrix(12,0,0,12,286.4,722.8)" />
<use xlink:href="#f0_1a" transform="matrix(12,0,0,12,301.8,722.8)" />
<use xlink:href="#f0_6" transform="matrix(12,0,0,12,325.9,722.8)" />
<use xlink:href="#f0_7" transform="matrix(12,0,0,12,333.1,722.8)" />
<use xlink:href="#f0_a" transform="matrix(12,0,0,12,344.7,722.8)" />
<use xlink:href="#f0_9" transform="matrix(12,0,0,12,355.9,722.8)" />
<use xlink:href="#f0_a" transform="matrix(12,0,0,12,365.5,722.8)" />
<use xlink:href="#f0_8" transform="matrix(12,0,0,12,382.6,722.8)" />
<use xlink:href="#f0_g" transform="matrix(12,0,0,12,393.9,722.8)" />
<use xlink:href="#f0_a" transform="matrix(12,0,0,12,400.9,722.8)" />
<use xlink:href="#f0_t" transform="matrix(12,0,0,12,418.1,722.8)" />
<use xlink:href="#f0_a" transform="matrix(12,0,0,12,428.8,722.8)" />
<use xlink:href="#f0_g" transform="matrix(12,0,0,12,440.1,722.8)" />
<use xlink:href="#f0_p" transform="matrix(12,0,0,12,447.6,722.8)" />
<use xlink:href="#f0_c" transform="matrix(12,0,0,12,464.4,722.8)" />
<use xlink:href="#f0_u" transform="matrix(12,0,0,12,469.4,722.8)" />
<use xlink:href="#f0_s" transform="matrix(12,0,0,12,487.3,722.8)" />
<use xlink:href="#f0_d" transform="matrix(12,0,0,12,498.9,722.8)" />
<use xlink:href="#f0_g" transform="matrix(12,0,0,12,510.2,722.8)" />
<use xlink:href="#f0_6" transform="matrix(12,0,0,12,517.6,722.8)" />
<use xlink:href="#f0_8" transform="matrix(12,0,0,12,524.8,722.8)" />
<use xlink:href="#f0_e" transform="matrix(12,0,0,12,536.1,722.8)" />
<use xlink:href="#f0_6" transform="matrix(12,0,0,12,547.7,722.8)" />
<use xlink:href="#f0_l" transform="matrix(12,0,0,12,554.9,722.8)" />
<use xlink:href="#f0_2" transform="matrix(12,0,0,12,566.5,722.8)" />
<use xlink:href="#f0_e" transform="matrix(12,0,0,12,580.9,722.8)" />
<use xlink:href="#f0_o" transform="matrix(12,0,0,12,592.6,722.8)" />
<use xlink:href="#f0_p" transform="matrix(12,0,0,12,597.7,722.8)" />
<use xlink:href="#f0_p" transform="matrix(12,0,0,12,614.3,722.8)" />
<use xlink:href="#f0_d" transform="matrix(12,0,0,12,625.2,722.8)" />
<use xlink:href="#f0_k" transform="matrix(12,0,0,12,636.3,722.8)" />
<use xlink:href="#f0_g" transform="matrix(12,0,0,12,648.1,722.8)" />
<use xlink:href="#f0_8" transform="matrix(12,0,0,12,661.4,722.8)" />
<use xlink:href="#f0_s" transform="matrix(12,0,0,12,672.7,722.8)" />
<use xlink:href="#f0_s" transform="matrix(12,0,0,12,684.3,722.8)" />
<use xlink:href="#f0_r" transform="matrix(12,0,0,12,695.9,722.8)" />
<use xlink:href="#f0_9" transform="matrix(12,0,0,12,701.7,722.8)" />
<use xlink:href="#f0_e" transform="matrix(12,0,0,12,717.1,722.8)" />
<use xlink:href="#f0_8" transform="matrix(12,0,0,12,728.6,722.8)" />
<use xlink:href="#f0_u" transform="matrix(12,0,0,12,739.8,722.8)" />
<use xlink:href="#f0_a" transform="matrix(12,0,0,12,757.7,722.8)" />
<use xlink:href="#f0_8" transform="matrix(12,0,0,12,774.8,722.8)" />
<use xlink:href="#f0_e" transform="matrix(12,0,0,12,786.1,722.8)" />
<use xlink:href="#f0_f" transform="matrix(12,0,0,12,797.7,722.8)" />
<use xlink:href="#f0_i" transform="matrix(12,0,0,12,86.8,751.5)" />
<use xlink:href="#f0_a" transform="matrix(12,0,0,12,96.9,751.5)" />
<use xlink:href="#f0_p" transform="matrix(12,0,0,12,108,751.5)" />
<use xlink:href="#f0_n" transform="matrix(12,0,0,12,118.8,751.5)" />
<use xlink:href="#f0_d" transform="matrix(12,0,0,12,133.8,751.5)" />
<use xlink:href="#f0_g" transform="matrix(12,0,0,12,145.1,751.5)" />
<use xlink:href="#f0_f" transform="matrix(12,0,0,12,152.3,751.5)" />
<use xlink:href="#f0_9" transform="matrix(12,0,0,12,163.9,751.5)" />
<use xlink:href="#f0_8" transform="matrix(12,0,0,12,179.3,751.5)" />
<use xlink:href="#f0_g" transform="matrix(12,0,0,12,190.6,751.5)" />
<use xlink:href="#f0_a" transform="matrix(12,0,0,12,197.6,751.5)" />
<use xlink:href="#f0_c" transform="matrix(12,0,0,12,214.7,751.5)" />
<use xlink:href="#f0_e" transform="matrix(12,0,0,12,219.8,751.5)" />
<use xlink:href="#f0_f" transform="matrix(12,0,0,12,231.4,751.5)" />
<use xlink:href="#f0_a" transform="matrix(12,0,0,12,243,751.5)" />
<use xlink:href="#f0_1h" transform="matrix(12,0,0,12,254,751.5)" />
<use xlink:href="#f0_a" transform="matrix(12,0,0,12,264.2,751.5)" />
<use xlink:href="#f0_f" transform="matrix(12,0,0,12,275.5,751.5)" />
<use xlink:href="#f0_c" transform="matrix(12,0,0,12,293.1,751.5)" />
<use xlink:href="#f0_e" transform="matrix(12,0,0,12,298.1,751.5)" />
<use xlink:href="#f0_c" transform="matrix(12,0,0,12,315.7,751.5)" />
<use xlink:href="#f0_w" transform="matrix(12,0,0,12,320.7,751.5)" />
<use xlink:href="#f0_k" transform="matrix(12,0,0,12,329.1,751.5)" />
<use xlink:href="#f0_e" transform="matrix(12,0,0,12,340.7,751.5)" />
<use xlink:href="#f0_a" transform="matrix(12,0,0,12,352.3,751.5)" />
<use xlink:href="#f0_9" transform="matrix(12,0,0,12,363.6,751.5)" />
<use xlink:href="#f0_r" transform="matrix(12,0,0,12,373.2,751.5)" />
<use xlink:href="#f0_9" transform="matrix(12,0,0,12,384.8,751.5)" />
<use xlink:href="#f0_a" transform="matrix(12,0,0,12,394.3,751.5)" />
<use xlink:href="#f0_8" transform="matrix(12,0,0,12,405.6,751.5)" />
<use xlink:href="#f0_g" transform="matrix(12,0,0,12,416.9,751.5)" />
<use xlink:href="#f0_b" transform="matrix(12,0,0,12,423.9,751.5)" />
<use xlink:href="#f0_7" transform="matrix(12,0,0,12,434,751.5)" />
<use xlink:href="#f0_a" transform="matrix(12,0,0,12,451.5,751.5)" />
<use xlink:href="#f0_e" transform="matrix(12,0,0,12,462.8,751.5)" />
<use xlink:href="#f0_q" transform="matrix(12,0,0,12,474.4,751.5)" />
<use xlink:href="#f0_c" transform="matrix(12,0,0,12,486,751.5)" />
<use xlink:href="#f0_e" transform="matrix(12,0,0,12,491.1,751.5)" />
<use xlink:href="#f0_a" transform="matrix(12,0,0,12,502.7,751.5)" />
<use xlink:href="#f0_4" transform="matrix(12,0,0,12,514,751.5)" />
<use xlink:href="#f0_9" transform="matrix(12,0,0,12,525.6,751.5)" />
<use xlink:href="#f0_d" transform="matrix(12,0,0,12,535.2,751.5)" />
<use xlink:href="#f0_x" transform="matrix(12,0,0,12,552.2,751.5)" />
<use xlink:href="#f0_g" transform="matrix(12,0,0,12,563.8,751.5)" />
<use xlink:href="#f0_8" transform="matrix(12,0,0,12,571.3,751.5)" />
<use xlink:href="#f0_c" transform="matrix(12,0,0,12,582.5,751.5)" />
<use xlink:href="#f0_e" transform="matrix(12,0,0,12,587.6,751.5)" />
<use xlink:href="#f0_9" transform="matrix(12,0,0,12,599.2,751.5)" />
<use xlink:href="#f0_6" transform="matrix(12,0,0,12,608.8,751.5)" />
<use xlink:href="#f0_d" transform="matrix(12,0,0,12,616,751.5)" />
<use xlink:href="#f0_g" transform="matrix(12,0,0,12,627.3,751.5)" />
<use xlink:href="#f0_u" transform="matrix(12,0,0,12,634.5,751.5)" />
<use xlink:href="#f0_n" transform="matrix(12,0,0,12,658.1,751.5)" />
<use xlink:href="#f0_d" transform="matrix(12,0,0,12,673.1,751.5)" />
<use xlink:href="#f0_g" transform="matrix(12,0,0,12,684.3,751.5)" />
<use xlink:href="#f0_f" transform="matrix(12,0,0,12,691.6,751.5)" />
<use xlink:href="#f0_9" transform="matrix(12,0,0,12,703.2,751.5)" />
<use xlink:href="#f0_6" transform="matrix(12,0,0,12,718.6,751.5)" />
<use xlink:href="#f0_7" transform="matrix(12,0,0,12,725.8,751.5)" />
<use xlink:href="#f0_8" transform="matrix(12,0,0,12,737.3,751.5)" />
<use xlink:href="#f0_6" transform="matrix(12,0,0,12,748.6,751.5)" />
<use xlink:href="#f0_s" transform="matrix(12,0,0,12,86.8,780.1)" />
<use xlink:href="#f0_d" transform="matrix(12,0,0,12,98.4,780.1)" />
<use xlink:href="#f0_6" transform="matrix(12,0,0,12,109.5,780.1)" />
<use xlink:href="#f0_a" transform="matrix(12,0,0,12,116.7,780.1)" />
<use xlink:href="#f0_e" transform="matrix(12,0,0,12,128,780.1)" />
<use xlink:href="#f0_6" transform="matrix(12,0,0,12,139.6,780.1)" />
<use xlink:href="#f0_c" transform="matrix(12,0,0,12,146.9,780.1)" />
<use xlink:href="#f0_8" transform="matrix(12,0,0,12,152,780.1)" />
<use xlink:href="#f0_o" transform="matrix(12,0,0,12,163.3,780.1)" />
<use xlink:href="#f0_k" transform="matrix(12,0,0,12,174.1,780.1)" />
<use xlink:href="#f0_9" transform="matrix(12,0,0,12,185.7,780.1)" />
<use xlink:href="#f0_a" transform="matrix(12,0,0,12,195.3,780.1)" />
<use xlink:href="#f0_g" transform="matrix(12,0,0,12,206.6,780.1)" />
<use xlink:href="#f0_9" transform="matrix(12,0,0,12,214.1,780.1)" />
<use xlink:href="#f0_u" transform="matrix(12,0,0,12,229.5,780.1)" />
<use xlink:href="#f0_c" transform="matrix(12,0,0,12,247.4,780.1)" />
<use xlink:href="#f0_q" transform="matrix(12,0,0,12,252.4,780.1)" />
<use xlink:href="#f0_7" transform="matrix(12,0,0,12,264,780.1)" />
<use xlink:href="#f0_6" transform="matrix(12,0,0,12,275.6,780.1)" />
<use xlink:href="#f0_6" transform="matrix(12,0,0,12,288.6,780.1)" />
<use xlink:href="#f0_7" transform="matrix(12,0,0,12,295.8,780.1)" />
<use xlink:href="#f0_c" transform="matrix(12,0,0,12,307.4,780.1)" />
<use xlink:href="#f0_e" transform="matrix(12,0,0,12,312.6,780.1)" />
<use xlink:href="#f0_i" transform="matrix(12,0,0,12,324.2,780.1)" />
<use xlink:href="#f0_d" transform="matrix(12,0,0,12,340.7,780.1)" />
<use xlink:href="#f0_h" transform="matrix(12,0,0,12,351.8,780.1)" />
<use xlink:href="#f0_k" transform="matrix(12,0,0,12,364.2,780.1)" />
<use xlink:href="#f0_9" transform="matrix(12,0,0,12,375.6,780.1)" />
<use xlink:href="#f0_c" transform="matrix(12,0,0,12,385.2,780.1)" />
<use xlink:href="#f0_e" transform="matrix(12,0,0,12,390.3,780.1)" />
<use xlink:href="#f0_q" transform="matrix(12,0,0,12,401.9,780.1)" />
<use xlink:href="#f0_6" transform="matrix(12,0,0,12,419.5,780.1)" />
<use xlink:href="#f0_d" transform="matrix(12,0,0,12,426.6,780.1)" />
<use xlink:href="#f0_h" transform="matrix(12,0,0,12,443.7,780.1)" />
<use xlink:href="#f0_c" transform="matrix(12,0,0,12,450.1,780.1)" />
<use xlink:href="#f0_e" transform="matrix(12,0,0,12,455.2,780.1)" />
<use xlink:href="#f0_f" transform="matrix(12,0,0,12,466.8,780.1)" />
<use xlink:href="#f0_p" transform="matrix(12,0,0,12,484.3,780.1)" />
<use xlink:href="#f0_d" transform="matrix(12,0,0,12,495.2,780.1)" />
<use xlink:href="#f0_k" transform="matrix(12,0,0,12,506.3,780.1)" />
<use xlink:href="#f0_g" transform="matrix(12,0,0,12,517.9,780.1)" />
<use xlink:href="#f0_8" transform="matrix(12,0,0,12,531.3,780.1)" />
<use xlink:href="#f0_s" transform="matrix(12,0,0,12,542.5,780.1)" />
<use xlink:href="#f0_s" transform="matrix(12,0,0,12,554.1,780.1)" />
<use xlink:href="#f0_d" transform="matrix(12,0,0,12,571.6,780.1)" />
<use xlink:href="#f0_g" transform="matrix(12,0,0,12,582.8,780.1)" />
<use xlink:href="#f0_p" transform="matrix(12,0,0,12,596.1,780.1)" />
<use xlink:href="#f0_d" transform="matrix(12,0,0,12,606.9,780.1)" />
<use xlink:href="#f0_k" transform="matrix(12,0,0,12,618.1,780.1)" />
<use xlink:href="#f0_g" transform="matrix(12,0,0,12,629.8,780.1)" />
<use xlink:href="#f0_b" transform="matrix(12,0,0,12,643.1,780.1)" />
<use xlink:href="#f0_d" transform="matrix(12,0,0,12,653.2,780.1)" />
<use xlink:href="#f0_u" transform="matrix(12,0,0,12,664.3,780.1)" />
<use xlink:href="#f0_s" transform="matrix(12,0,0,12,682.2,780.1)" />
<use xlink:href="#f0_a" transform="matrix(12,0,0,12,693.8,780.1)" />
<use xlink:href="#f0_6" transform="matrix(12,0,0,12,705.1,780.1)" />
<use xlink:href="#f0_c" transform="matrix(12,0,0,12,712.4,780.1)" />
<use xlink:href="#f0_6" transform="matrix(12,0,0,12,717.4,780.1)" />
<use xlink:href="#f0_d" transform="matrix(12,0,0,12,724.6,780.1)" />
<use xlink:href="#f0_g" transform="matrix(12,0,0,12,735.9,780.1)" />
<use xlink:href="#f0_r" transform="matrix(12,0,0,12,743.4,780.1)" />
<use xlink:href="#f0_9" transform="matrix(12,0,0,12,749.2,780.1)" />
<use xlink:href="#f0_8" transform="matrix(12,0,0,12,764.6,780.1)" />
<use xlink:href="#f0_s" transform="matrix(12,0,0,12,775.9,780.1)" />
<use xlink:href="#f0_s" transform="matrix(12,0,0,12,787.5,780.1)" />
<use xlink:href="#f0_9" transform="matrix(12,0,0,12,799,780.1)" />
<use xlink:href="#f0_l" transform="matrix(12,0,0,12,808.6,780.1)" />
<use xlink:href="#f0_1r" transform="matrix(12,0,0,12,86.8,808.8)" />
<use xlink:href="#f0_d" transform="matrix(12,0,0,12,95.6,808.8)" />
<use xlink:href="#f0_k" transform="matrix(12,0,0,12,106.8,808.8)" />
<use xlink:href="#f0_b" transform="matrix(12,0,0,12,124.2,808.8)" />
<use xlink:href="#f0_8" transform="matrix(12,0,0,12,134.3,808.8)" />
<use xlink:href="#f0_e" transform="matrix(12,0,0,12,145.6,808.8)" />
<use xlink:href="#f0_d" transform="matrix(12,0,0,12,163,808.8)" />
<use xlink:href="#f0_e" transform="matrix(12,0,0,12,174.1,808.8)" />
<use xlink:href="#f0_o" transform="matrix(12,0,0,12,185.7,808.8)" />
<use xlink:href="#f0_p" transform="matrix(12,0,0,12,190.8,808.8)" />
<use xlink:href="#f0_b" transform="matrix(12,0,0,12,207.6,808.8)" />
<use xlink:href="#f0_7" transform="matrix(12,0,0,12,217.6,808.8)" />
<use xlink:href="#f0_8" transform="matrix(12,0,0,12,229.2,808.8)" />
<use xlink:href="#f0_e" transform="matrix(12,0,0,12,240.5,808.8)" />
<use xlink:href="#f0_q" transform="matrix(12,0,0,12,252.1,808.8)" />
<use xlink:href="#f0_a" transform="matrix(12,0,0,12,263.7,808.8)" />
<use xlink:href="#f0_i" transform="matrix(12,0,0,12,280.8,808.8)" />
<use xlink:href="#f0_a" transform="matrix(12,0,0,12,290.8,808.8)" />
<use xlink:href="#f0_p" transform="matrix(12,0,0,12,302.1,808.8)" />
<use xlink:href="#f0_n" transform="matrix(12,0,0,12,312.9,808.8)" />
<use xlink:href="#f0_d" transform="matrix(12,0,0,12,327.9,808.8)" />
<use xlink:href="#f0_g" transform="matrix(12,0,0,12,339,808.8)" />
<use xlink:href="#f0_f" transform="matrix(12,0,0,12,346.4,808.8)" />
<use xlink:href="#f0_9" transform="matrix(12,0,0,12,358,808.8)" />
<use xlink:href="#f0_n" transform="matrix(12,0,0,12,373.4,808.8)" />
<use xlink:href="#f0_7" transform="matrix(12,0,0,12,388.4,808.8)" />
<use xlink:href="#f0_a" transform="matrix(12,0,0,12,400,808.8)" />
<use xlink:href="#f0_e" transform="matrix(12,0,0,12,411.3,808.8)" />
<use xlink:href="#f0_9" transform="matrix(12,0,0,12,428.7,808.8)" />
<use xlink:href="#f0_k" transform="matrix(12,0,0,12,438.3,808.8)" />
<use xlink:href="#f0_x" transform="matrix(12,0,0,12,449.9,808.8)" />
<use xlink:href="#f0_u" transform="matrix(12,0,0,12,461.5,808.8)" />
<use xlink:href="#f0_c" transform="matrix(12,0,0,12,479.3,808.8)" />
<use xlink:href="#f0_6" transform="matrix(12,0,0,12,484.4,808.8)" />
<use xlink:href="#f0_6" transform="matrix(12,0,0,12,491.6,808.8)" />
<use xlink:href="#f0_c" transform="matrix(12,0,0,12,498.8,808.8)" />
<use xlink:href="#f0_e" transform="matrix(12,0,0,12,503.8,808.8)" />
<use xlink:href="#f0_q" transform="matrix(12,0,0,12,515.4,808.8)" />
<use xlink:href="#f0_k" transform="matrix(12,0,0,12,533,808.8)" />
<use xlink:href="#f0_s" transform="matrix(12,0,0,12,544.6,808.8)" />
<use xlink:href="#f0_f" transform="matrix(12,0,0,12,556.2,808.8)" />
<use xlink:href="#f0_8" transform="matrix(12,0,0,12,567.8,808.8)" />
<use xlink:href="#f0_6" transform="matrix(12,0,0,12,579.1,808.8)" />
<use xlink:href="#f0_a" transform="matrix(12,0,0,12,586.3,808.8)" />
<use xlink:href="#f0_9" transform="matrix(12,0,0,12,597.4,808.8)" />
<use xlink:href="#f0_4" transform="matrix(12,0,0,12,607,808.8)" />
<use xlink:href="#f0_9" transform="matrix(12,0,0,12,618.8,808.8)" />
<use xlink:href="#f0_d" transform="matrix(12,0,0,12,628.4,808.8)" />
<use xlink:href="#f0_b" transform="matrix(12,0,0,12,645.3,808.8)" />
<use xlink:href="#f0_7" transform="matrix(12,0,0,12,655.4,808.8)" />
<use xlink:href="#f0_d" transform="matrix(12,0,0,12,667,808.8)" />
<use xlink:href="#f0_d" transform="matrix(12,0,0,12,678.2,808.8)" />
<use xlink:href="#f0_9" transform="matrix(12,0,0,12,689.3,808.8)" />
<use xlink:href="#f0_a" transform="matrix(12,0,0,12,698.9,808.8)" />
<use xlink:href="#f0_n" transform="matrix(12,0,0,12,716,808.8)" />
<use xlink:href="#f0_c" transform="matrix(12,0,0,12,731,808.8)" />
<use xlink:href="#f0_9" transform="matrix(12,0,0,12,736,808.8)" />
<use xlink:href="#f0_a" transform="matrix(12,0,0,12,745.6,808.8)" />
<use xlink:href="#f0_o" transform="matrix(12,0,0,12,756.9,808.8)" />
<use xlink:href="#f0_p" transform="matrix(12,0,0,12,762,808.8)" />
<use xlink:href="#f0_l" transform="matrix(12,0,0,12,770.2,808.8)" />
<use xlink:href="#f0_1d" transform="matrix(12,0,0,12,86.8,837.4)" />
<use xlink:href="#f0_e" transform="matrix(12,0,0,12,98.4,837.4)" />
<use xlink:href="#f0_6" transform="matrix(12,0,0,12,110,837.4)" />
<use xlink:href="#f0_a" transform="matrix(12,0,0,12,117.2,837.4)" />
<use xlink:href="#f0_g" transform="matrix(12,0,0,12,128.4,837.4)" />
<use xlink:href="#f0_6" transform="matrix(12,0,0,12,141.9,837.4)" />
<use xlink:href="#f0_7" transform="matrix(12,0,0,12,149.1,837.4)" />
<use xlink:href="#f0_a" transform="matrix(12,0,0,12,160.7,837.4)" />
<use xlink:href="#f0_1y" transform="matrix(12,0,0,12,177.8,837.4)" />
<use xlink:href="#f0_1i" transform="matrix(12,0,0,12,191.2,837.4)" />
<use xlink:href="#f0_1z" transform="matrix(12,0,0,12,203.9,837.4)" />
<use xlink:href="#f0_h" transform="matrix(12,0,0,12,219.9,837.4)" />
<use xlink:href="#f0_d" transform="matrix(12,0,0,12,226.3,837.4)" />
<use xlink:href="#f0_g" transform="matrix(12,0,0,12,237.6,837.4)" />
<use xlink:href="#f0_p" transform="matrix(12,0,0,12,250.9,837.4)" />
<use xlink:href="#f0_d" transform="matrix(12,0,0,12,261.7,837.4)" />
<use xlink:href="#f0_k" transform="matrix(12,0,0,12,272.9,837.4)" />
<use xlink:href="#f0_g" transform="matrix(12,0,0,12,284.6,837.4)" />
<use xlink:href="#f0_n" transform="matrix(12,0,0,12,297.9,837.4)" />
<use xlink:href="#f0_a" transform="matrix(12,0,0,12,312.9,837.4)" />
<use xlink:href="#f0_x" transform="matrix(12,0,0,12,324.2,837.4)" />
<use xlink:href="#f0_9" transform="matrix(12,0,0,12,335.8,837.4)" />
<use xlink:href="#f0_c" transform="matrix(12,0,0,12,345.4,837.4)" />
<use xlink:href="#f0_6" transform="matrix(12,0,0,12,350.4,837.4)" />
<use xlink:href="#f0_a" transform="matrix(12,0,0,12,357.6,837.4)" />
<use xlink:href="#f0_9" transform="matrix(12,0,0,12,374.7,837.4)" />
<use xlink:href="#f0_k" transform="matrix(12,0,0,12,384.3,837.4)" />
<use xlink:href="#f0_s" transform="matrix(12,0,0,12,396,837.4)" />
<use xlink:href="#f0_s" transform="matrix(12,0,0,12,407.6,837.4)" />
<use xlink:href="#f0_d" transform="matrix(12,0,0,12,419.2,837.4)" />
<use xlink:href="#f0_g" transform="matrix(12,0,0,12,430.3,837.4)" />
<use xlink:href="#f0_6" transform="matrix(12,0,0,12,437.9,837.4)" />
<use xlink:href="#f0_s" transform="matrix(12,0,0,12,450.9,837.4)" />
<use xlink:href="#f0_8" transform="matrix(12,0,0,12,462.5,837.4)" />
<use xlink:href="#f0_q" transform="matrix(12,0,0,12,473.8,837.4)" />
<use xlink:href="#f0_a" transform="matrix(12,0,0,12,485.4,837.4)" />
<use xlink:href="#f0_l" transform="matrix(12,0,0,12,496.7,837.4)" />
<use xlink:href="#f0_19" transform="matrix(12,0,0,12,508.4,837.4)" />
<use xlink:href="#f0_6" transform="matrix(12,0,0,12,513.7,837.4)" />
<use xlink:href="#f0_b" transform="matrix(12,0,0,12,526.8,837.4)" />
<use xlink:href="#f0_8" transform="matrix(12,0,0,12,536.8,837.4)" />
<use xlink:href="#f0_e" transform="matrix(12,0,0,12,548.1,837.4)" />
<use xlink:href="#f0_x" transform="matrix(12,0,0,12,565.6,837.4)" />
<use xlink:href="#f0_a" transform="matrix(12,0,0,12,577.2,837.4)" />
<use xlink:href="#f0_8" transform="matrix(12,0,0,12,594.3,837.4)" />
<use xlink:href="#f0_9" transform="matrix(12,0,0,12,611.3,837.4)" />
<use xlink:href="#f0_c" transform="matrix(12,0,0,12,620.9,837.4)" />
<use xlink:href="#f0_u" transform="matrix(12,0,0,12,625.9,837.4)" />
<use xlink:href="#f0_s" transform="matrix(12,0,0,12,643.8,837.4)" />
<use xlink:href="#f0_o" transform="matrix(12,0,0,12,655.4,837.4)" />
<use xlink:href="#f0_a" transform="matrix(12,0,0,12,660.4,837.4)" />
<use xlink:href="#f0_s" transform="matrix(12,0,0,12,677.7,837.4)" />
<use xlink:href="#f0_8" transform="matrix(12,0,0,12,689.1,837.4)" />
<use xlink:href="#f0_q" transform="matrix(12,0,0,12,700.4,837.4)" />
<use xlink:href="#f0_a" transform="matrix(12,0,0,12,712,837.4)" />
<use xlink:href="#f0_6" transform="matrix(12,0,0,12,729.3,837.4)" />
<use xlink:href="#f0_7" transform="matrix(12,0,0,12,736.5,837.4)" />
<use xlink:href="#f0_8" transform="matrix(12,0,0,12,747.9,837.4)" />
<use xlink:href="#f0_6" transform="matrix(12,0,0,12,759.2,837.4)" />
<use xlink:href="#f0_8" transform="matrix(12,0,0,12,86.8,866.1)" />
<use xlink:href="#f0_o" transform="matrix(12,0,0,12,98.1,866.1)" />
<use xlink:href="#f0_o" transform="matrix(12,0,0,12,103.1,866.1)" />
<use xlink:href="#f0_d" transform="matrix(12,0,0,12,108.2,866.1)" />
<use xlink:href="#f0_n" transform="matrix(12,0,0,12,119.4,866.1)" />
<use xlink:href="#f0_9" transform="matrix(12,0,0,12,134.4,866.1)" />
<use xlink:href="#f0_k" transform="matrix(12,0,0,12,149.8,866.1)" />
<use xlink:href="#f0_9" transform="matrix(12,0,0,12,161.3,866.1)" />
<use xlink:href="#f0_a" transform="matrix(12,0,0,12,170.9,866.1)" />
<use xlink:href="#f0_g" transform="matrix(12,0,0,12,182.2,866.1)" />
<use xlink:href="#f0_9" transform="matrix(12,0,0,12,189.7,866.1)" />
<use xlink:href="#f0_6" transform="matrix(12,0,0,12,205.1,866.1)" />
<use xlink:href="#f0_d" transform="matrix(12,0,0,12,212.3,866.1)" />
<use xlink:href="#f0_a" transform="matrix(12,0,0,12,229.4,866.1)" />
<use xlink:href="#f0_u" transform="matrix(12,0,0,12,240.7,866.1)" />
<use xlink:href="#f0_8" transform="matrix(12,0,0,12,258.4,866.1)" />
<use xlink:href="#f0_c" transform="matrix(12,0,0,12,269.7,866.1)" />
<use xlink:href="#f0_o" transform="matrix(12,0,0,12,274.7,866.1)" />
<use xlink:href="#f0_p" transform="matrix(12,0,0,12,285.7,866.1)" />
<use xlink:href="#f0_d" transform="matrix(12,0,0,12,296.6,866.1)" />
<use xlink:href="#f0_k" transform="matrix(12,0,0,12,307.7,866.1)" />
<use xlink:href="#f0_c" transform="matrix(12,0,0,12,325.3,866.1)" />
<use xlink:href="#f0_h" transform="matrix(12,0,0,12,330.3,866.1)" />
<use xlink:href="#f0_6" transform="matrix(12,0,0,12,342.5,866.1)" />
<use xlink:href="#f0_7" transform="matrix(12,0,0,12,349.7,866.1)" />
<use xlink:href="#f0_a" transform="matrix(12,0,0,12,361.3,866.1)" />
<use xlink:href="#f0_p" transform="matrix(12,0,0,12,372.6,866.1)" />
<use xlink:href="#f0_n" transform="matrix(12,0,0,12,389.3,866.1)" />
<use xlink:href="#f0_8" transform="matrix(12,0,0,12,404.2,866.1)" />
<use xlink:href="#f0_e" transform="matrix(12,0,0,12,415.5,866.1)" />
<use xlink:href="#f0_6" transform="matrix(12,0,0,12,427.1,866.1)" />
<use xlink:href="#f0_6" transform="matrix(12,0,0,12,440.1,866.1)" />
<use xlink:href="#f0_d" transform="matrix(12,0,0,12,447.3,866.1)" />
<use xlink:href="#f0_b" transform="matrix(12,0,0,12,464.4,866.1)" />
<use xlink:href="#f0_d" transform="matrix(12,0,0,12,474.5,866.1)" />
<use xlink:href="#f0_u" transform="matrix(12,0,0,12,485.6,866.1)" />
<use xlink:href="#f0_s" transform="matrix(12,0,0,12,503.5,866.1)" />
<use xlink:href="#f0_o" transform="matrix(12,0,0,12,515.1,866.1)" />
<use xlink:href="#f0_c" transform="matrix(12,0,0,12,520.3,866.1)" />
<use xlink:href="#f0_u" transform="matrix(12,0,0,12,525.3,866.1)" />
<use xlink:href="#f0_a" transform="matrix(12,0,0,12,543.2,866.1)" />
<use xlink:href="#f0_e" transform="matrix(12,0,0,12,554.5,866.1)" />
<use xlink:href="#f0_6" transform="matrix(12,0,0,12,566.1,866.1)" />
<use xlink:href="#f0_p" transform="matrix(12,0,0,12,579.1,866.1)" />
<use xlink:href="#f0_d" transform="matrix(12,0,0,12,589.9,866.1)" />
<use xlink:href="#f0_k" transform="matrix(12,0,0,12,601,866.1)" />
<use xlink:href="#f0_d" transform="matrix(12,0,0,12,618.6,866.1)" />
<use xlink:href="#f0_e" transform="matrix(12,0,0,12,629.8,866.1)" />
<use xlink:href="#f0_p" transform="matrix(12,0,0,12,647.3,866.1)" />
<use xlink:href="#f0_d" transform="matrix(12,0,0,12,658.2,866.1)" />
<use xlink:href="#f0_k" transform="matrix(12,0,0,12,669.3,866.1)" />
<use xlink:href="#f0_g" transform="matrix(12,0,0,12,680.9,866.1)" />
<use xlink:href="#f0_n" transform="matrix(12,0,0,12,700.2,866.1)" />
<use xlink:href="#f0_d" transform="matrix(12,0,0,12,715.1,866.1)" />
<use xlink:href="#f0_g" transform="matrix(12,0,0,12,726.3,866.1)" />
<use xlink:href="#f0_i" transform="matrix(12,0,0,12,733.8,866.1)" />
<use xlink:href="#f0_l" transform="matrix(12,0,0,12,744.4,866.1)" />
</g>
</g>
<image preserveAspectRatio="none" x="87" y="87" width="736" height="533" xlink:href="img/1.png" />
<defs>
<path d="M458,-20c0,0,-79,0,-168,17c0,0,-89,17,-184,52V204c0,0,91,-51,179,-77c0,0,88,-26,173,-26c0,0,129,0,199,50c0,0,70,51,70,145c0,0,0,82,-50,129c0,0,-50,46,-165,69l-92,18c0,0,-169,34,-244,105c0,0,-75,72,-75,199c0,0,0,148,104,233c0,0,104,85,287,85c0,0,78,0,159,-14c0,0,81,-14,166,-42V931c0,0,-85,41,-161,61c0,0,-76,20,-147,20c0,0,-123,0,-190,-48c0,0,-67,-48,-67,-136c0,0,0,-73,45,-111c0,0,44,-38,168,-61l91,-19c0,0,168,-32,249,-113c0,0,80,-81,80,-216c0,0,0,-162,-109,-246c0,0,-108,-82,-318,-82Z" 
id="f0_18"
transform="scale(0.001,-0.001)" />

<path d="M495,-20c0,0,-189,0,-300,117C195,97,84,216,84,417c0,0,0,204,112,321c0,0,113,118,308,118c0,0,64,0,124,-14c0,0,60,-13,117,-39V675c0,0,-58,32,-117,48c0,0,-58,16,-118,16c0,0,-133,0,-207,-84c0,0,-74,-85,-74,-238c0,0,0,-153,74,-238c0,0,74,-84,207,-84c0,0,60,0,118,16c0,0,59,16,117,48V32C745,32,688,5,626,-7c0,0,-61,-13,-131,-13Z" 
id="f0_b"
transform="scale(0.001,-0.001)" />

<path d="M139,0V836H277V706c0,0,43,76,112,113c0,0,70,37,169,37c0,0,14,0,31,-2c0,0,17,-2,38,-6l1,-141c0,0,-23,14,-51,20c0,0,-27,6,-60,6c0,0,-116,0,-178,-75c0,0,-62,-76,-62,-218V0Z" 
id="f0_g"
transform="scale(0.001,-0.001)" />

<path d="M467,95c0,0,110,0,174,86c0,0,64,87,64,236c0,0,0,148,-64,235c0,0,-64,87,-174,87c0,0,-110,0,-174,-86c0,0,-64,-86,-64,-236c0,0,0,-150,64,-236c0,0,63,-86,174,-86Zm0,-115c0,0,-179,0,-281,115C186,95,84,212,84,417c0,0,0,206,102,322c0,0,102,117,281,117c0,0,179,0,282,-117c0,0,102,-116,102,-322c0,0,0,-205,-102,-322C749,95,646,-20,467,-20Z" 
id="f0_d"
transform="scale(0.001,-0.001)" />

<path d="M144,0V1161H281V0Z" 
id="f0_o"
transform="scale(0.001,-0.001)" />

<path d="M460,93c0,0,109,0,171,86c0,0,63,86,63,238c0,0,0,151,-63,237c0,0,-62,86,-171,86c0,0,-109,0,-172,-86c0,0,-62,-86,-62,-237c0,0,0,-152,62,-238c0,0,63,-86,172,-86ZM426,-20c0,0,-151,0,-247,119c0,0,-95,121,-95,318c0,0,0,197,95,318c0,0,96,121,247,121c0,0,93,0,159,-37c0,0,66,-36,109,-110v452H831V0H694V125C694,125,651,51,585,15c0,0,-66,-35,-159,-35Z" 
id="f0_f"
transform="scale(0.001,-0.001)" />

<path d="M283,0L65,836H202L373,184L544,836H706L878,184l171,652h137L967,0H806L626,685L445,0Z" 
id="f0_n"
transform="scale(0.001,-0.001)" />

<path d="M139,0V836H277V706c0,0,49,75,116,112c0,0,67,38,154,38c0,0,144,0,218,-90c0,0,74,-89,74,-262V0H702V500c0,0,0,119,-46,177c0,0,-47,59,-139,59c0,0,-112,0,-176,-71c0,0,-64,-70,-64,-193V0Z" 
id="f0_e"
transform="scale(0.001,-0.001)" />

<path d="M408,93c0,0,115,0,184,81c0,0,69,81,69,215v30H524c0,0,-167,0,-231,-38c0,0,-64,-38,-64,-129c0,0,0,-73,48,-116c0,0,48,-43,131,-43ZM372,-20c0,0,-128,0,-204,70c0,0,-76,72,-76,193c0,0,0,141,94,212c0,0,95,72,282,72H661v13c0,0,0,95,-62,147c0,0,-63,52,-175,52c0,0,-72,0,-140,-17c0,0,-68,-17,-130,-51V798c0,0,75,29,146,43c0,0,71,15,138,15c0,0,181,0,270,-95c0,0,90,-94,90,-285V0H661V127C661,127,614,51,544,15c0,0,-70,-35,-172,-35Z" 
id="f0_8"
transform="scale(0.001,-0.001)" />

<path d="M139,0V836H277V706c0,0,47,77,112,113c0,0,66,37,156,37c0,0,91,0,155,-47c0,0,64,-46,94,-134c0,0,52,93,123,137c0,0,72,44,169,44c0,0,130,0,201,-92c0,0,71,-91,71,-260V0H1220V500c0,0,0,120,-42,178c0,0,-43,58,-130,58c0,0,-107,0,-169,-71c0,0,-62,-70,-62,-193V0H680V500c0,0,0,121,-43,179c0,0,-42,57,-131,57c0,0,-105,0,-167,-71c0,0,-62,-71,-62,-193V0Z" 
id="f0_u"
transform="scale(0.001,-0.001)" />

<path d="M510,93c0,0,109,0,171,86c0,0,62,86,62,238c0,0,0,151,-62,237c0,0,-62,86,-171,86c0,0,-109,0,-171,-86c0,0,-62,-86,-62,-237c0,0,0,-152,62,-238c0,0,62,-86,171,-86ZM139,-317V836H277V709c0,0,43,74,109,110c0,0,66,37,158,37c0,0,152,0,247,-121c0,0,95,-121,95,-318c0,0,0,-197,-95,-318C791,99,696,-20,544,-20c0,0,-92,0,-158,35c0,0,-66,36,-109,110V-317Z" 
id="f0_s"
transform="scale(0.001,-0.001)" />

<path d="M231,492l491,1c0,0,-2,112,-64,179c0,0,-61,67,-163,67c0,0,-115,0,-184,-65c0,0,-69,-64,-80,-182ZM517,-20c0,0,-199,0,-316,115C201,95,84,211,84,410c0,0,0,205,111,325c0,0,111,121,299,121c0,0,168,0,266,-109c0,0,98,-108,98,-295V385H227c0,0,9,-142,85,-216c0,0,77,-74,213,-74c0,0,80,0,154,19c0,0,74,19,147,58V42C826,42,752,11,675,-4c0,0,-78,-16,-158,-16Z" 
id="f0_a"
transform="scale(0.001,-0.001)" />

<path d="M421,0C421,0,263,0,202,59c0,0,-60,60,-60,217V729H41V836H142v238H280V836H562V729H280V276c0,0,0,-102,28,-132c0,0,28,-29,113,-29H562V0Z" 
id="f0_6"
transform="scale(0.001,-0.001)" />

<path d="M139,0V1161H277V706c0,0,49,75,116,112c0,0,67,38,154,38c0,0,144,0,218,-90c0,0,74,-89,74,-262V0H702V500c0,0,0,119,-46,177c0,0,-47,59,-139,59c0,0,-112,0,-176,-71c0,0,-64,-70,-64,-193V0Z" 
id="f0_7"
transform="scale(0.001,-0.001)" />

<path d="M376,-20c0,0,-67,0,-140,12C236,-8,164,4,83,30V172c0,0,76,-40,150,-59c0,0,74,-20,146,-20c0,0,97,0,150,33c0,0,52,33,52,94c0,0,0,56,-38,85c0,0,-38,30,-165,58l-48,11c0,0,-128,27,-184,83c0,0,-57,55,-57,152c0,0,0,118,83,182c0,0,84,65,238,65c0,0,76,0,143,-12c0,0,67,-11,124,-33V681c0,0,-58,29,-121,44c0,0,-63,15,-130,15c0,0,-102,0,-153,-31c0,0,-51,-31,-51,-94c0,0,0,-48,37,-75c0,0,36,-27,147,-52l46,-10c0,0,147,-32,208,-89c0,0,62,-57,62,-159c0,0,0,-116,-93,-184c0,0,-92,-66,-253,-66Z" 
id="f0_9"
transform="scale(0.001,-0.001)" />

<path d="M144,0V836H281V0Zm0,987v174H281V987Z" 
id="f0_c"
transform="scale(0.001,-0.001)" />

<path d="M354,-200c0,0,-112,175,-167,343c0,0,-56,170,-56,337c0,0,0,166,55,335c0,0,55,169,168,345H473c0,0,-100,-172,-148,-340c0,0,-48,-168,-48,-340c0,0,0,-173,48,-342c0,0,49,-168,148,-338Z" 
id="f0_13"
transform="scale(0.001,-0.001)" />

<path d="M424,-20c0,0,-145,0,-219,88c0,0,-75,89,-75,262V836H267V335c0,0,0,-119,46,-178c0,0,47,-59,139,-59c0,0,112,0,177,71c0,0,64,71,64,193V836H830V0H693V128C693,128,643,52,577,15c0,0,-66,-35,-153,-35Z" 
id="f0_k"
transform="scale(0.001,-0.001)" />

<path d="M122,-200c0,0,99,170,148,338c0,0,49,169,49,342c0,0,0,172,-49,340c0,0,-49,168,-148,340H241c0,0,112,-176,168,-345c0,0,55,-169,55,-335c0,0,0,-167,-55,-337c0,0,-56,-168,-168,-343Z" 
id="f0_14"
transform="scale(0.001,-0.001)" />

<path d="M139,0V1161H277V475L686,836H861L418,445L880,0H701L277,408V0Z" 
id="f0_i"
transform="scale(0.001,-0.001)" />

<path d="M121,-317v116h81c0,0,57,0,88,26c0,0,31,27,69,127l25,62L46,836H191L453,182L714,836H859L492,-76c0,0,-58,-150,-113,-195c0,0,-55,-46,-148,-46Z" 
id="f0_p"
transform="scale(0.001,-0.001)" />

<path d="M163,0V190H321V0Z" 
id="f0_l"
transform="scale(0.001,-0.001)" />

<path d="M630,-20c0,0,-253,0,-398,153C232,133,86,288,86,556c0,0,0,269,146,423c0,0,145,155,398,155c0,0,100,0,189,-26c0,0,88,-27,166,-79V869c0,0,-76,71,-163,106c0,0,-86,35,-183,35c0,0,-191,0,-292,-117C347,893,245,777,245,556c0,0,0,-220,102,-337c0,0,101,-116,292,-116c0,0,97,0,183,35c0,0,87,35,163,105V86C985,86,906,32,817,5c0,0,-88,-25,-187,-25Z" 
id="f0_1f"
transform="scale(0.001,-0.001)" />

<path d="M74,365V472H1453V365Z" 
id="f0_1a"
transform="scale(0.001,-0.001)" />

<path d="M359,0L46,836H191L453,134L714,836H859L546,0Z" 
id="f0_t"
transform="scale(0.001,-0.001)" />

<path d="M602,101c0,0,164,0,260,122c0,0,95,123,95,333c0,0,0,211,-95,334c0,0,-96,122,-260,122c0,0,-164,0,-260,-122c0,0,-97,-123,-97,-334c0,0,0,-210,97,-333c0,0,96,-122,260,-122Zm0,-121c0,0,-235,0,-375,155C227,135,86,292,86,556c0,0,0,264,141,421c0,0,140,157,375,157c0,0,234,0,374,-157c0,0,141,-157,141,-421c0,0,0,-263,-141,-420C976,136,836,-20,602,-20Z" 
id="f0_2"
transform="scale(0.001,-0.001)" />

<path d="M132,763l62,237v114H351V1000L228,763Z" 
id="f0_r"
transform="scale(0.001,-0.001)" />

<path d="M44,0L369,437L71,836H233L455,538L677,836H839L537,429L855,0H693L449,328L206,0Z" 
id="f0_1h"
transform="scale(0.001,-0.001)" />

<path d="M391,0V987H-3v127H938V987H543V0Z" 
id="f0_w"
transform="scale(0.001,-0.001)" />

<path d="M460,115c0,0,111,0,173,82c0,0,61,82,61,230c0,0,0,149,-61,231c0,0,-62,82,-173,82c0,0,-111,0,-173,-82c0,0,-61,-82,-61,-231c0,0,0,-148,61,-230c0,0,62,-82,173,-82ZM446,-317c0,0,-72,0,-137,11c0,0,-64,11,-124,33v134c0,0,60,-33,119,-49c0,0,59,-15,121,-15c0,0,135,0,202,70c0,0,67,71,67,212v68C694,147,652,73,585,36C585,36,519,0,426,0C426,0,272,0,178,117c0,0,-94,117,-94,310c0,0,0,194,94,311c0,0,94,118,248,118c0,0,93,0,159,-37c0,0,67,-36,109,-110V836H831V104c0,0,0,-212,-95,-317c0,0,-94,-104,-290,-104Z" 
id="f0_q"
transform="scale(0.001,-0.001)" />

<path d="M117,-176L179,62V190H336V62L213,-176Z" 
id="f0_4"
transform="scale(0.001,-0.001)" />

<path d="M510,93c0,0,109,0,171,86c0,0,62,86,62,238c0,0,0,151,-62,237c0,0,-62,86,-171,86c0,0,-109,0,-171,-86c0,0,-62,-86,-62,-237c0,0,0,-152,62,-238c0,0,62,-86,171,-86ZM544,-20c0,0,-92,0,-158,35c0,0,-66,36,-109,110V0H139V1161H277V709c0,0,43,74,109,110c0,0,66,37,158,37c0,0,152,0,247,-121c0,0,95,-121,95,-318c0,0,0,-197,-95,-318C791,99,696,-20,544,-20Z" 
id="f0_x"
transform="scale(0.001,-0.001)" />

<path d="M166,0V729H35V836H166v58c0,0,0,139,65,203c0,0,65,64,206,64H567V1046H435c0,0,-74,0,-102,-29c0,0,-29,-30,-29,-107V836H530V729H304V0Z" 
id="f0_h"
transform="scale(0.001,-0.001)" />

<path d="M391,0V530L-2,1114H159L468,656l307,458H937L543,530V0Z" 
id="f0_1r"
transform="scale(0.001,-0.001)" />

<path d="M150,0V1114H854V987H300V657H831V530H300V127H867V0Z" 
id="f0_1d"
transform="scale(0.001,-0.001)" />

<path d="M560,-20c0,0,-211,0,-319,110c0,0,-108,111,-108,328v696H285V437c0,0,0,-179,64,-258c0,0,65,-78,211,-78c0,0,144,0,209,78c0,0,65,79,65,258v677H986V418c0,0,0,-217,-108,-328C878,90,770,-20,560,-20Z" 
id="f0_1y"
transform="scale(0.001,-0.001)" />

<path d="M489,595c0,0,109,0,164,50c0,0,56,50,56,148c0,0,0,97,-56,147c0,0,-55,50,-164,50H300V595ZM150,0V1114H489c0,0,191,0,285,-80c0,0,94,-80,94,-241c0,0,0,-105,-49,-175c0,0,-49,-69,-142,-96c0,0,48,-16,94,-70c0,0,46,-54,93,-148L1017,0H855L712,285c0,0,-55,112,-107,149c0,0,-52,36,-141,36H300V0Z" 
id="f0_1i"
transform="scale(0.001,-0.001)" />

<path d="M150,0V1114H300V127H843V0Z" 
id="f0_1z"
transform="scale(0.001,-0.001)" />

<path d="M150,0V1114H300V0Z" 
id="f0_19"
transform="scale(0.001,-0.001)" />


</defs>
</svg>