<?xml version="1.0" encoding="UTF-8" standalone="no"?>
<!DOCTYPE svg PUBLIC "-//W3C//DTD SVG 1.1//EN"
"http://www.w3.org/Graphics/SVG/1.1/DTD/svg11.dtd">
<svg viewBox="0 0 909 1286" version="1.1" xmlns="http://www.w3.org/2000/svg" xmlns:xlink="http://www.w3.org/1999/xlink">
<defs>
<clipPath id="c0_14"><path d="M0,1286.2V.2H909.3v1286Z" /></clipPath>
<style type="text/css"><![CDATA[
.g0_14{
fill: #FFFFCC;
}
]]></style>
</defs>
<path fill-rule="evenodd" d="M86.6,545h40.8V521.4H86.6V545Z" class="g0_14" />
<g clip-path="url(#c0_14)">
<g fill="#0000FF" >
<use xlink:href="#f0_1e" transform="matrix(12,0,0,12,86.8,539.3)" />
<use xlink:href="#f0_2b" transform="matrix(12,0,0,12,100.1,539.3)" />
<use xlink:href="#f0_2g" transform="matrix(12,0,0,12,111.2,539.3)" />
<use xlink:href="#f0_21" transform="matrix(12,0,0,12,117.3,539.3)" />
</g>
</g>
<path fill-rule="evenodd" d="M127.4,545h11.3V521.4H127.4V545Z" class="g0_14" />
<g clip-path="url(#c0_14)">
<g fill="#006837" >
<use xlink:href="#f0_u" transform="matrix(12,0,0,12,127.6,539.3)" />
</g>
</g>
<path fill-rule="evenodd" d="M138.7,543.7H806.4V522.3H138.7v21.4Z" class="g0_14" />
<g clip-path="url(#c0_14)">
<g fill="#000000" >
<use xlink:href="#f1_2" transform="matrix(12,0,0,12,138.9,539.3)" />
<use xlink:href="#f1_3" transform="matrix(12,0,0,12,150,539.3)" />
<use xlink:href="#f1_4" transform="matrix(12,0,0,12,161.6,539.3)" />
<use xlink:href="#f1_6" transform="matrix(12,0,0,12,178.7,539.3)" />
<use xlink:href="#f1_c" transform="matrix(12,0,0,12,185.1,539.3)" />
<use xlink:href="#f1_i" transform="matrix(12,0,0,12,196.4,539.3)" />
<use xlink:href="#f1_i" transform="matrix(12,0,0,12,201.5,539.3)" />
<use xlink:href="#f1_c" transform="matrix(12,0,0,12,206.5,539.3)" />
<use xlink:href="#f1_y" transform="matrix(12,0,0,12,217.8,539.3)" />
<use xlink:href="#f1_7" transform="matrix(12,0,0,12,232.8,539.3)" />
<use xlink:href="#f1_h" transform="matrix(12,0,0,12,237.8,539.3)" />
<use xlink:href="#f1_f" transform="matrix(12,0,0,12,249.4,539.3)" />
<use xlink:href="#f1_9" transform="matrix(12,0,0,12,267,539.3)" />
<use xlink:href="#f1_a" transform="matrix(12,0,0,12,276.5,539.3)" />
<use xlink:href="#f1_4" transform="matrix(12,0,0,12,283.7,539.3)" />
<use xlink:href="#f1_b" transform="matrix(12,0,0,12,295,539.3)" />
<use xlink:href="#f1_9" transform="matrix(12,0,0,12,306.6,539.3)" />
<use xlink:href="#f1_c" transform="matrix(12,0,0,12,322,539.3)" />
<use xlink:href="#f1_h" transform="matrix(12,0,0,12,333.1,539.3)" />
<use xlink:href="#f1_i" transform="matrix(12,0,0,12,344.7,539.3)" />
<use xlink:href="#f1_t" transform="matrix(12,0,0,12,349.8,539.3)" />
<use xlink:href="#f1_g" transform="matrix(12,0,0,12,366.6,539.3)" />
<use xlink:href="#f1_b" transform="matrix(12,0,0,12,377.9,539.3)" />
<use xlink:href="#f1_b" transform="matrix(12,0,0,12,389.5,539.3)" />
<use xlink:href="#f1_i" transform="matrix(12,0,0,12,401.1,539.3)" />
<use xlink:href="#f1_t" transform="matrix(12,0,0,12,406.1,539.3)" />
<use xlink:href="#f1_a" transform="matrix(12,0,0,12,422.8,539.3)" />
<use xlink:href="#f1_c" transform="matrix(12,0,0,12,430,539.3)" />
<use xlink:href="#f1_a" transform="matrix(12,0,0,12,447.1,539.3)" />
<use xlink:href="#f1_3" transform="matrix(12,0,0,12,454.2,539.3)" />
<use xlink:href="#f1_4" transform="matrix(12,0,0,12,465.9,539.3)" />
<use xlink:href="#f1_u" transform="matrix(12,0,0,12,483,539.3)" />
<use xlink:href="#f1_e" transform="matrix(12,0,0,12,496.4,539.3)" />
<use xlink:href="#f1_g" transform="matrix(12,0,0,12,513.8,539.3)" />
<use xlink:href="#f1_h" transform="matrix(12,0,0,12,525.1,539.3)" />
<use xlink:href="#f1_j" transform="matrix(12,0,0,12,536.7,539.3)" />
<use xlink:href="#f1_c" transform="matrix(12,0,0,12,554.1,539.3)" />
<use xlink:href="#f1_a" transform="matrix(12,0,0,12,565.3,539.3)" />
<use xlink:href="#f1_3" transform="matrix(12,0,0,12,572.4,539.3)" />
<use xlink:href="#f1_4" transform="matrix(12,0,0,12,584,539.3)" />
<use xlink:href="#f1_8" transform="matrix(12,0,0,12,595.5,539.3)" />
<use xlink:href="#f1_o" transform="matrix(12,0,0,12,608.8,539.3)" />
<use xlink:href="#f1_c" transform="matrix(12,0,0,12,618.8,539.3)" />
<use xlink:href="#f1_r" transform="matrix(12,0,0,12,630,539.3)" />
<use xlink:href="#f1_h" transform="matrix(12,0,0,12,641.6,539.3)" />
<use xlink:href="#f1_a" transform="matrix(12,0,0,12,653.2,539.3)" />
<use xlink:href="#f1_8" transform="matrix(12,0,0,12,660.5,539.3)" />
<use xlink:href="#f1_7" transform="matrix(12,0,0,12,668,539.3)" />
<use xlink:href="#f1_4" transform="matrix(12,0,0,12,673,539.3)" />
<use xlink:href="#f1_9" transform="matrix(12,0,0,12,684.3,539.3)" />
<use xlink:href="#f1_y" transform="matrix(12,0,0,12,699.7,539.3)" />
<use xlink:href="#f1_7" transform="matrix(12,0,0,12,714.7,539.3)" />
<use xlink:href="#f1_a" transform="matrix(12,0,0,12,719.8,539.3)" />
<use xlink:href="#f1_3" transform="matrix(12,0,0,12,727,539.3)" />
<use xlink:href="#f1_c" transform="matrix(12,0,0,12,744.5,539.3)" />
<use xlink:href="#f1_h" transform="matrix(12,0,0,12,755.7,539.3)" />
<use xlink:href="#f1_i" transform="matrix(12,0,0,12,767.3,539.3)" />
<use xlink:href="#f1_7" transform="matrix(12,0,0,12,772.4,539.3)" />
<use xlink:href="#f1_h" transform="matrix(12,0,0,12,777.5,539.3)" />
<use xlink:href="#f1_4" transform="matrix(12,0,0,12,789.1,539.3)" />
</g>
</g>
<path fill-rule="evenodd" d="M86.6,573.7H781.2V552.3H86.6v21.4Z" class="g0_14" />
<g clip-path="url(#c0_14)">
<g fill="#000000" >
<use xlink:href="#f1_d" transform="matrix(12,0,0,12,86.8,569.3)" />
<use xlink:href="#f1_b" transform="matrix(12,0,0,12,99.3,569.3)" />
<use xlink:href="#f1_b" transform="matrix(12,0,0,12,110.9,569.3)" />
<use xlink:href="#f1_i" transform="matrix(12,0,0,12,122.7,569.3)" />
<use xlink:href="#f1_4" transform="matrix(12,0,0,12,127.7,569.3)" />
<use xlink:href="#f1_e" transform="matrix(12,0,0,12,144.8,569.3)" />
<use xlink:href="#f1_a" transform="matrix(12,0,0,12,156.4,569.3)" />
<use xlink:href="#f1_c" transform="matrix(12,0,0,12,163.6,569.3)" />
<use xlink:href="#f1_8" transform="matrix(12,0,0,12,174.9,569.3)" />
<use xlink:href="#f1_4" transform="matrix(12,0,0,12,181.9,569.3)" />
<use xlink:href="#f1_9" transform="matrix(12,0,0,12,193.2,569.3)" />
<use xlink:href="#f1_l" transform="matrix(12,0,0,12,202.8,569.3)" />
<use xlink:href="#f1_16" transform="matrix(12,0,0,12,214.4,569.3)" />
<use xlink:href="#f1_c" transform="matrix(12,0,0,12,224.4,569.3)" />
<use xlink:href="#f1_8" transform="matrix(12,0,0,12,235.5,569.3)" />
<use xlink:href="#f1_o" transform="matrix(12,0,0,12,249,569.3)" />
<use xlink:href="#f1_c" transform="matrix(12,0,0,12,259,569.3)" />
<use xlink:href="#f1_r" transform="matrix(12,0,0,12,270.2,569.3)" />
<use xlink:href="#f1_h" transform="matrix(12,0,0,12,281.8,569.3)" />
<use xlink:href="#f1_a" transform="matrix(12,0,0,12,293.4,569.3)" />
<use xlink:href="#f1_8" transform="matrix(12,0,0,12,300.6,569.3)" />
<use xlink:href="#f1_7" transform="matrix(12,0,0,12,308.2,569.3)" />
<use xlink:href="#f1_4" transform="matrix(12,0,0,12,313.2,569.3)" />
<use xlink:href="#f1_9" transform="matrix(12,0,0,12,324.4,569.3)" />
<use xlink:href="#f1_y" transform="matrix(12,0,0,12,339.9,569.3)" />
<use xlink:href="#f1_7" transform="matrix(12,0,0,12,354.9,569.3)" />
<use xlink:href="#f1_a" transform="matrix(12,0,0,12,359.9,569.3)" />
<use xlink:href="#f1_3" transform="matrix(12,0,0,12,367.1,569.3)" />
<use xlink:href="#f1_c" transform="matrix(12,0,0,12,378.7,569.3)" />
<use xlink:href="#f1_r" transform="matrix(12,0,0,12,389.9,569.3)" />
<use xlink:href="#f1_a" transform="matrix(12,0,0,12,401.5,569.3)" />
<use xlink:href="#f1_c" transform="matrix(12,0,0,12,414.6,569.3)" />
<use xlink:href="#f1_h" transform="matrix(12,0,0,12,425.8,569.3)" />
<use xlink:href="#f1_i" transform="matrix(12,0,0,12,437.4,569.3)" />
<use xlink:href="#f1_7" transform="matrix(12,0,0,12,442.5,569.3)" />
<use xlink:href="#f1_h" transform="matrix(12,0,0,12,447.6,569.3)" />
<use xlink:href="#f1_4" transform="matrix(12,0,0,12,459.2,569.3)" />
<use xlink:href="#f1_d" transform="matrix(12,0,0,12,476.3,569.3)" />
<use xlink:href="#f1_b" transform="matrix(12,0,0,12,488.8,569.3)" />
<use xlink:href="#f1_b" transform="matrix(12,0,0,12,500.4,569.3)" />
<use xlink:href="#f1_i" transform="matrix(12,0,0,12,512,569.3)" />
<use xlink:href="#f1_4" transform="matrix(12,0,0,12,517.1,569.3)" />
<use xlink:href="#f1_e" transform="matrix(12,0,0,12,534.3,569.3)" />
<use xlink:href="#f1_a" transform="matrix(12,0,0,12,545.9,569.3)" />
<use xlink:href="#f1_c" transform="matrix(12,0,0,12,553.1,569.3)" />
<use xlink:href="#f1_8" transform="matrix(12,0,0,12,564.4,569.3)" />
<use xlink:href="#f1_4" transform="matrix(12,0,0,12,571.4,569.3)" />
<use xlink:href="#f1_9" transform="matrix(12,0,0,12,582.7,569.3)" />
<use xlink:href="#f1_q" transform="matrix(12,0,0,12,592.3,569.3)" />
<use xlink:href="#f1_a" transform="matrix(12,0,0,12,603.9,569.3)" />
<use xlink:href="#f1_3" transform="matrix(12,0,0,12,611.1,569.3)" />
<use xlink:href="#f1_4" transform="matrix(12,0,0,12,622.7,569.3)" />
<use xlink:href="#f1_b" transform="matrix(12,0,0,12,639.8,569.3)" />
<use xlink:href="#f1_8" transform="matrix(12,0,0,12,651.4,569.3)" />
<use xlink:href="#f1_c" transform="matrix(12,0,0,12,658.6,569.3)" />
<use xlink:href="#f1_o" transform="matrix(12,0,0,12,669.8,569.3)" />
<use xlink:href="#f1_4" transform="matrix(12,0,0,12,679.8,569.3)" />
<use xlink:href="#f1_9" transform="matrix(12,0,0,12,691.1,569.3)" />
<use xlink:href="#f1_9" transform="matrix(12,0,0,12,700.6,569.3)" />
<use xlink:href="#f1_y" transform="matrix(12,0,0,12,716,569.3)" />
<use xlink:href="#f1_7" transform="matrix(12,0,0,12,731,569.3)" />
<use xlink:href="#f1_i" transform="matrix(12,0,0,12,736.2,569.3)" />
<use xlink:href="#f1_i" transform="matrix(12,0,0,12,741.2,569.3)" />
<use xlink:href="#f1_n" transform="matrix(12,0,0,12,752.2,569.3)" />
<use xlink:href="#f1_4" transform="matrix(12,0,0,12,763.8,569.3)" />
</g>
</g>
<path fill-rule="evenodd" d="M86.6,602.3H786V580.9H86.6v21.4Z" class="g0_14" />
<g clip-path="url(#c0_14)">
<g fill="#000000" >
<use xlink:href="#f1_9" transform="matrix(12,0,0,12,86.8,598)" />
<use xlink:href="#f1_i" transform="matrix(12,0,0,12,96.4,598)" />
<use xlink:href="#f1_7" transform="matrix(12,0,0,12,101.4,598)" />
<use xlink:href="#f1_f" transform="matrix(12,0,0,12,106.5,598)" />
<use xlink:href="#f1_3" transform="matrix(12,0,0,12,118.1,598)" />
<use xlink:href="#f1_a" transform="matrix(12,0,0,12,129.7,598)" />
<use xlink:href="#f1_i" transform="matrix(12,0,0,12,137,598)" />
<use xlink:href="#f1_t" transform="matrix(12,0,0,12,142,598)" />
<use xlink:href="#f1_j" transform="matrix(12,0,0,12,158.7,598)" />
<use xlink:href="#f1_7" transform="matrix(12,0,0,12,170.3,598)" />
<use xlink:href="#f1_6" transform="matrix(12,0,0,12,175.5,598)" />
<use xlink:href="#f1_6" transform="matrix(12,0,0,12,181.9,598)" />
<use xlink:href="#f1_4" transform="matrix(12,0,0,12,188.3,598)" />
<use xlink:href="#f1_8" transform="matrix(12,0,0,12,199.6,598)" />
<use xlink:href="#f1_4" transform="matrix(12,0,0,12,206.6,598)" />
<use xlink:href="#f1_h" transform="matrix(12,0,0,12,217.9,598)" />
<use xlink:href="#f1_a" transform="matrix(12,0,0,12,229.5,598)" />
<use xlink:href="#f1_q" transform="matrix(12,0,0,12,236.7,598)" />
<use xlink:href="#f1_8" transform="matrix(12,0,0,12,248.4,598)" />
<use xlink:href="#f1_4" transform="matrix(12,0,0,12,255.5,598)" />
<use xlink:href="#f1_17" transform="matrix(12,0,0,12,266.8,598)" />
<use xlink:href="#f1_r" transform="matrix(12,0,0,12,278.4,598)" />
<use xlink:href="#f1_7" transform="matrix(12,0,0,12,290.1,598)" />
<use xlink:href="#f1_8" transform="matrix(12,0,0,12,295.2,598)" />
<use xlink:href="#f1_7" transform="matrix(12,0,0,12,302.6,598)" />
<use xlink:href="#f1_h" transform="matrix(12,0,0,12,307.7,598)" />
<use xlink:href="#f1_f" transform="matrix(12,0,0,12,319.4,598)" />
<use xlink:href="#f1_t" transform="matrix(12,0,0,12,336.8,598)" />
<use xlink:href="#f1_c" transform="matrix(12,0,0,12,347.7,598)" />
<use xlink:href="#f1_r" transform="matrix(12,0,0,12,358.8,598)" />
<use xlink:href="#f1_a" transform="matrix(12,0,0,12,376.4,598)" />
<use xlink:href="#f1_c" transform="matrix(12,0,0,12,383.6,598)" />
<use xlink:href="#f1_6" transform="matrix(12,0,0,12,400.7,598)" />
<use xlink:href="#f1_g" transform="matrix(12,0,0,12,406.9,598)" />
<use xlink:href="#f1_14" transform="matrix(12,0,0,12,418.2,598)" />
<use xlink:href="#f1_t" transform="matrix(12,0,0,12,435,598)" />
<use xlink:href="#f1_c" transform="matrix(12,0,0,12,445.8,598)" />
<use xlink:href="#f1_r" transform="matrix(12,0,0,12,457,598)" />
<use xlink:href="#f1_8" transform="matrix(12,0,0,12,468.6,598)" />
<use xlink:href="#f1_o" transform="matrix(12,0,0,12,482,598)" />
<use xlink:href="#f1_8" transform="matrix(12,0,0,12,492.1,598)" />
<use xlink:href="#f1_4" transform="matrix(12,0,0,12,499.1,598)" />
<use xlink:href="#f1_j" transform="matrix(12,0,0,12,510.4,598)" />
<use xlink:href="#f1_7" transform="matrix(12,0,0,12,522,598)" />
<use xlink:href="#f1_a" transform="matrix(12,0,0,12,527,598)" />
<use xlink:href="#f1_o" transform="matrix(12,0,0,12,540.2,598)" />
<use xlink:href="#f1_g" transform="matrix(12,0,0,12,550.1,598)" />
<use xlink:href="#f1_8" transform="matrix(12,0,0,12,561.4,598)" />
<use xlink:href="#f1_j" transform="matrix(12,0,0,12,568.6,598)" />
<use xlink:href="#f1_7" transform="matrix(12,0,0,12,586.1,598)" />
<use xlink:href="#f1_h" transform="matrix(12,0,0,12,591.2,598)" />
<use xlink:href="#f1_6" transform="matrix(12,0,0,12,602.8,598)" />
<use xlink:href="#f1_c" transform="matrix(12,0,0,12,609.2,598)" />
<use xlink:href="#f1_8" transform="matrix(12,0,0,12,620.5,598)" />
<use xlink:href="#f1_p" transform="matrix(12,0,0,12,627.7,598)" />
<use xlink:href="#f1_g" transform="matrix(12,0,0,12,645.5,598)" />
<use xlink:href="#f1_a" transform="matrix(12,0,0,12,656.8,598)" />
<use xlink:href="#f1_7" transform="matrix(12,0,0,12,664,598)" />
<use xlink:href="#f1_c" transform="matrix(12,0,0,12,669.1,598)" />
<use xlink:href="#f1_h" transform="matrix(12,0,0,12,680.2,598)" />
<use xlink:href="#f1_a" transform="matrix(12,0,0,12,697.8,598)" />
<use xlink:href="#f1_c" transform="matrix(12,0,0,12,705,598)" />
<use xlink:href="#f1_d" transform="matrix(12,0,0,12,721.9,598)" />
<use xlink:href="#f1_b" transform="matrix(12,0,0,12,734.4,598)" />
<use xlink:href="#f1_b" transform="matrix(12,0,0,12,746,598)" />
<use xlink:href="#f1_i" transform="matrix(12,0,0,12,757.8,598)" />
<use xlink:href="#f1_4" transform="matrix(12,0,0,12,762.8,598)" />
<use xlink:href="#f1_l" transform="matrix(12,0,0,12,774.1,598)" />
</g>
</g>
<path fill-rule="evenodd" d="M86.6,631H816V609.6H86.6V631Z" class="g0_14" />
<g clip-path="url(#c0_14)">
<g fill="#000000" >
<use xlink:href="#f1_u" transform="matrix(12,0,0,12,86.8,626.5)" />
<use xlink:href="#f1_h" transform="matrix(12,0,0,12,100.2,626.5)" />
<use xlink:href="#f1_6" transform="matrix(12,0,0,12,111.8,626.5)" />
<use xlink:href="#f1_c" transform="matrix(12,0,0,12,118.2,626.5)" />
<use xlink:href="#f1_8" transform="matrix(12,0,0,12,129.5,626.5)" />
<use xlink:href="#f1_a" transform="matrix(12,0,0,12,137,626.5)" />
<use xlink:href="#f1_r" transform="matrix(12,0,0,12,144.2,626.5)" />
<use xlink:href="#f1_h" transform="matrix(12,0,0,12,155.8,626.5)" />
<use xlink:href="#f1_g" transform="matrix(12,0,0,12,167.4,626.5)" />
<use xlink:href="#f1_a" transform="matrix(12,0,0,12,178.7,626.5)" />
<use xlink:href="#f1_4" transform="matrix(12,0,0,12,185.9,626.5)" />
<use xlink:href="#f1_i" transform="matrix(12,0,0,12,197.2,626.5)" />
<use xlink:href="#f1_t" transform="matrix(12,0,0,12,202.2,626.5)" />
<use xlink:href="#f1_q" transform="matrix(12,0,0,12,213,626.5)" />
<use xlink:href="#f1_7" transform="matrix(12,0,0,12,224.8,626.5)" />
<use xlink:href="#f1_6" transform="matrix(12,0,0,12,229.8,626.5)" />
<use xlink:href="#f1_t" transform="matrix(12,0,0,12,242.1,626.5)" />
<use xlink:href="#f1_c" transform="matrix(12,0,0,12,252.9,626.5)" />
<use xlink:href="#f1_r" transform="matrix(12,0,0,12,264,626.5)" />
<use xlink:href="#f1_11" transform="matrix(12,0,0,12,275.6,626.5)" />
<use xlink:href="#f1_8" transform="matrix(12,0,0,12,281.6,626.5)" />
<use xlink:href="#f1_4" transform="matrix(12,0,0,12,288.6,626.5)" />
<use xlink:href="#f1_7" transform="matrix(12,0,0,12,305.8,626.5)" />
<use xlink:href="#f1_h" transform="matrix(12,0,0,12,310.9,626.5)" />
<use xlink:href="#f1_c" transform="matrix(12,0,0,12,328.3,626.5)" />
<use xlink:href="#f1_h" transform="matrix(12,0,0,12,339.4,626.5)" />
<use xlink:href="#f1_4" transform="matrix(12,0,0,12,351.1,626.5)" />
<use xlink:href="#f1_c" transform="matrix(12,0,0,12,368.3,626.5)" />
<use xlink:href="#f1_6" transform="matrix(12,0,0,12,379.5,626.5)" />
<use xlink:href="#f1_a" transform="matrix(12,0,0,12,391.8,626.5)" />
<use xlink:href="#f1_3" transform="matrix(12,0,0,12,399,626.5)" />
<use xlink:href="#f1_c" transform="matrix(12,0,0,12,410.6,626.5)" />
<use xlink:href="#f1_9" transform="matrix(12,0,0,12,421.7,626.5)" />
<use xlink:href="#f1_4" transform="matrix(12,0,0,12,431.2,626.5)" />
<use xlink:href="#f1_o" transform="matrix(12,0,0,12,448.5,626.5)" />
<use xlink:href="#f1_c" transform="matrix(12,0,0,12,458.5,626.5)" />
<use xlink:href="#f1_r" transform="matrix(12,0,0,12,469.7,626.5)" />
<use xlink:href="#f1_h" transform="matrix(12,0,0,12,481.3,626.5)" />
<use xlink:href="#f1_a" transform="matrix(12,0,0,12,492.9,626.5)" />
<use xlink:href="#f1_8" transform="matrix(12,0,0,12,500.1,626.5)" />
<use xlink:href="#f1_7" transform="matrix(12,0,0,12,507.5,626.5)" />
<use xlink:href="#f1_4" transform="matrix(12,0,0,12,512.6,626.5)" />
<use xlink:href="#f1_9" transform="matrix(12,0,0,12,523.9,626.5)" />
<use xlink:href="#f1_q" transform="matrix(12,0,0,12,533.5,626.5)" />
<use xlink:href="#f1_t" transform="matrix(12,0,0,12,545.2,626.5)" />
<use xlink:href="#f1_c" transform="matrix(12,0,0,12,556.1,626.5)" />
<use xlink:href="#f1_r" transform="matrix(12,0,0,12,567.2,626.5)" />
<use xlink:href="#f1_11" transform="matrix(12,0,0,12,578.8,626.5)" />
<use xlink:href="#f1_i" transform="matrix(12,0,0,12,584.6,626.5)" />
<use xlink:href="#f1_i" transform="matrix(12,0,0,12,589.7,626.5)" />
<use xlink:href="#f1_n" transform="matrix(12,0,0,12,600.7,626.5)" />
<use xlink:href="#f1_4" transform="matrix(12,0,0,12,612.3,626.5)" />
<use xlink:href="#f1_c" transform="matrix(12,0,0,12,629.4,626.5)" />
<use xlink:href="#f1_h" transform="matrix(12,0,0,12,640.5,626.5)" />
<use xlink:href="#f1_t" transform="matrix(12,0,0,12,658.1,626.5)" />
<use xlink:href="#f1_c" transform="matrix(12,0,0,12,668.9,626.5)" />
<use xlink:href="#f1_r" transform="matrix(12,0,0,12,680.1,626.5)" />
<use xlink:href="#f1_8" transform="matrix(12,0,0,12,691.7,626.5)" />
<use xlink:href="#f1_c" transform="matrix(12,0,0,12,705.1,626.5)" />
<use xlink:href="#f1_y" transform="matrix(12,0,0,12,716.3,626.5)" />
<use xlink:href="#f1_h" transform="matrix(12,0,0,12,731.2,626.5)" />
<use xlink:href="#f1_6" transform="matrix(12,0,0,12,748.8,626.5)" />
<use xlink:href="#f1_c" transform="matrix(12,0,0,12,755.2,626.5)" />
<use xlink:href="#f1_8" transform="matrix(12,0,0,12,766.4,626.5)" />
<use xlink:href="#f1_a" transform="matrix(12,0,0,12,779.8,626.5)" />
<use xlink:href="#f1_3" transform="matrix(12,0,0,12,787,626.5)" />
<use xlink:href="#f1_4" transform="matrix(12,0,0,12,798.6,626.5)" />
</g>
</g>
<path fill-rule="evenodd" d="M86.6,659.5H798.4V638.2H86.6v21.3Z" class="g0_14" />
<g clip-path="url(#c0_14)">
<g fill="#000000" >
<use xlink:href="#f1_8" transform="matrix(12,0,0,12,86.8,655.3)" />
<use xlink:href="#f1_4" transform="matrix(12,0,0,12,93.8,655.3)" />
<use xlink:href="#f1_p" transform="matrix(12,0,0,12,105.1,655.3)" />
<use xlink:href="#f1_g" transform="matrix(12,0,0,12,122.9,655.3)" />
<use xlink:href="#f1_7" transform="matrix(12,0,0,12,134.2,655.3)" />
<use xlink:href="#f1_h" transform="matrix(12,0,0,12,139.3,655.3)" />
<use xlink:href="#f1_j" transform="matrix(12,0,0,12,150.9,655.3)" />
<use xlink:href="#f1_4" transform="matrix(12,0,0,12,162.5,655.3)" />
<use xlink:href="#f1_8" transform="matrix(12,0,0,12,173.8,655.3)" />
<use xlink:href="#f1_c" transform="matrix(12,0,0,12,187.2,655.3)" />
<use xlink:href="#f1_6" transform="matrix(12,0,0,12,198.4,655.3)" />
<use xlink:href="#f1_a" transform="matrix(12,0,0,12,210.7,655.3)" />
<use xlink:href="#f1_3" transform="matrix(12,0,0,12,217.9,655.3)" />
<use xlink:href="#f1_7" transform="matrix(12,0,0,12,229.5,655.3)" />
<use xlink:href="#f1_9" transform="matrix(12,0,0,12,234.6,655.3)" />
<use xlink:href="#f1_9" transform="matrix(12,0,0,12,250,655.3)" />
<use xlink:href="#f1_4" transform="matrix(12,0,0,12,259.6,655.3)" />
<use xlink:href="#f1_o" transform="matrix(12,0,0,12,270.7,655.3)" />
<use xlink:href="#f1_a" transform="matrix(12,0,0,12,280.8,655.3)" />
<use xlink:href="#f1_7" transform="matrix(12,0,0,12,288,655.3)" />
<use xlink:href="#f1_c" transform="matrix(12,0,0,12,293.2,655.3)" />
<use xlink:href="#f1_h" transform="matrix(12,0,0,12,304.3,655.3)" />
<use xlink:href="#f1_l" transform="matrix(12,0,0,12,315.9,655.3)" />
<use xlink:href="#f1_e" transform="matrix(12,0,0,12,327.7,655.3)" />
<use xlink:href="#f1_c" transform="matrix(12,0,0,12,339.3,655.3)" />
<use xlink:href="#f1_q" transform="matrix(12,0,0,12,350.4,655.3)" />
<use xlink:href="#f1_6" transform="matrix(12,0,0,12,362.2,655.3)" />
<use xlink:href="#f1_c" transform="matrix(12,0,0,12,368.6,655.3)" />
<use xlink:href="#f1_i" transform="matrix(12,0,0,12,379.7,655.3)" />
<use xlink:href="#f1_i" transform="matrix(12,0,0,12,384.8,655.3)" />
<use xlink:href="#f1_c" transform="matrix(12,0,0,12,389.9,655.3)" />
<use xlink:href="#f1_y" transform="matrix(12,0,0,12,401.1,655.3)" />
<use xlink:href="#f1_d" transform="matrix(12,0,0,12,422,655.3)" />
<use xlink:href="#f1_b" transform="matrix(12,0,0,12,434.5,655.3)" />
<use xlink:href="#f1_b" transform="matrix(12,0,0,12,446.1,655.3)" />
<use xlink:href="#f1_i" transform="matrix(12,0,0,12,457.7,655.3)" />
<use xlink:href="#f1_4" transform="matrix(12,0,0,12,462.8,655.3)" />
<use xlink:href="#f1_11" transform="matrix(12,0,0,12,474.1,655.3)" />
<use xlink:href="#f1_9" transform="matrix(12,0,0,12,479.9,655.3)" />
<use xlink:href="#f1_7" transform="matrix(12,0,0,12,495.3,655.3)" />
<use xlink:href="#f1_h" transform="matrix(12,0,0,12,500.3,655.3)" />
<use xlink:href="#f1_9" transform="matrix(12,0,0,12,511.9,655.3)" />
<use xlink:href="#f1_a" transform="matrix(12,0,0,12,521.6,655.3)" />
<use xlink:href="#f1_8" transform="matrix(12,0,0,12,528.7,655.3)" />
<use xlink:href="#f1_r" transform="matrix(12,0,0,12,536.2,655.3)" />
<use xlink:href="#f1_o" transform="matrix(12,0,0,12,547.8,655.3)" />
<use xlink:href="#f1_a" transform="matrix(12,0,0,12,557.9,655.3)" />
<use xlink:href="#f1_7" transform="matrix(12,0,0,12,565.1,655.3)" />
<use xlink:href="#f1_c" transform="matrix(12,0,0,12,570.2,655.3)" />
<use xlink:href="#f1_h" transform="matrix(12,0,0,12,581.4,655.3)" />
<use xlink:href="#f1_9" transform="matrix(12,0,0,12,593,655.3)" />
<use xlink:href="#f1_g" transform="matrix(12,0,0,12,608.4,655.3)" />
<use xlink:href="#f1_h" transform="matrix(12,0,0,12,619.7,655.3)" />
<use xlink:href="#f1_j" transform="matrix(12,0,0,12,631.3,655.3)" />
<use xlink:href="#f1_9" transform="matrix(12,0,0,12,648.7,655.3)" />
<use xlink:href="#f1_10" transform="matrix(12,0,0,12,658.3,655.3)" />
<use xlink:href="#f1_7" transform="matrix(12,0,0,12,668.9,655.3)" />
<use xlink:href="#f1_b" transform="matrix(12,0,0,12,673.9,655.3)" />
<use xlink:href="#f1_a" transform="matrix(12,0,0,12,691.5,655.3)" />
<use xlink:href="#f1_c" transform="matrix(12,0,0,12,698.7,655.3)" />
<use xlink:href="#f1_a" transform="matrix(12,0,0,12,715.6,655.3)" />
<use xlink:href="#f1_3" transform="matrix(12,0,0,12,722.8,655.3)" />
<use xlink:href="#f1_4" transform="matrix(12,0,0,12,734.4,655.3)" />
<use xlink:href="#f1_h" transform="matrix(12,0,0,12,751.7,655.3)" />
<use xlink:href="#f1_4" transform="matrix(12,0,0,12,763.1,655.3)" />
<use xlink:href="#f1_14" transform="matrix(12,0,0,12,774.1,655.3)" />
<use xlink:href="#f1_a" transform="matrix(12,0,0,12,784.9,655.3)" />
</g>
</g>
<path fill-rule="evenodd" d="M86.6,688.3h72V666.9h-72v21.4Z" class="g0_14" />
<g clip-path="url(#c0_14)">
<g fill="#000000" >
<use xlink:href="#f1_9" transform="matrix(12,0,0,12,86.8,683.8)" />
<use xlink:href="#f1_4" transform="matrix(12,0,0,12,96.4,683.8)" />
<use xlink:href="#f1_o" transform="matrix(12,0,0,12,107.7,683.8)" />
<use xlink:href="#f1_a" transform="matrix(12,0,0,12,117.7,683.8)" />
<use xlink:href="#f1_7" transform="matrix(12,0,0,12,124.9,683.8)" />
<use xlink:href="#f1_c" transform="matrix(12,0,0,12,130,683.8)" />
<use xlink:href="#f1_h" transform="matrix(12,0,0,12,141.1,683.8)" />
<use xlink:href="#f1_l" transform="matrix(12,0,0,12,152.7,683.8)" />
<use xlink:href="#f1_16" transform="matrix(12,0,0,12,86.8,712.6)" />
<use xlink:href="#f1_c" transform="matrix(12,0,0,12,96.7,712.6)" />
<use xlink:href="#f1_8" transform="matrix(12,0,0,12,107.9,712.6)" />
<use xlink:href="#f1_4" transform="matrix(12,0,0,12,121.3,712.6)" />
<use xlink:href="#f1_k" transform="matrix(12,0,0,12,132.6,712.6)" />
<use xlink:href="#f1_4" transform="matrix(12,0,0,12,143.4,712.6)" />
<use xlink:href="#f1_8" transform="matrix(12,0,0,12,154.7,712.6)" />
<use xlink:href="#f1_t" transform="matrix(12,0,0,12,162.2,712.6)" />
<use xlink:href="#f1_c" transform="matrix(12,0,0,12,173,712.6)" />
<use xlink:href="#f1_h" transform="matrix(12,0,0,12,184.2,712.6)" />
<use xlink:href="#f1_4" transform="matrix(12,0,0,12,195.8,712.6)" />
<use xlink:href="#f1_9" transform="matrix(12,0,0,12,212.9,712.6)" />
<use xlink:href="#f1_a" transform="matrix(12,0,0,12,222.5,712.6)" />
<use xlink:href="#f1_7" transform="matrix(12,0,0,12,229.7,712.6)" />
<use xlink:href="#f1_i" transform="matrix(12,0,0,12,234.7,712.6)" />
<use xlink:href="#f1_i" transform="matrix(12,0,0,12,239.9,712.6)" />
<use xlink:href="#f1_6" transform="matrix(12,0,0,12,250.8,712.6)" />
<use xlink:href="#f1_c" transform="matrix(12,0,0,12,257.2,712.6)" />
<use xlink:href="#f1_i" transform="matrix(12,0,0,12,268.5,712.6)" />
<use xlink:href="#f1_i" transform="matrix(12,0,0,12,273.5,712.6)" />
<use xlink:href="#f1_c" transform="matrix(12,0,0,12,278.5,712.6)" />
<use xlink:href="#f1_y" transform="matrix(12,0,0,12,289.8,712.6)" />
<use xlink:href="#f1_7" transform="matrix(12,0,0,12,304.8,712.6)" />
<use xlink:href="#f1_h" transform="matrix(12,0,0,12,309.9,712.6)" />
<use xlink:href="#f1_f" transform="matrix(12,0,0,12,321.5,712.6)" />
<use xlink:href="#f1_g" transform="matrix(12,0,0,12,339,712.6)" />
<use xlink:href="#f1_i" transform="matrix(12,0,0,12,350.3,712.6)" />
<use xlink:href="#f1_c" transform="matrix(12,0,0,12,355.4,712.6)" />
<use xlink:href="#f1_h" transform="matrix(12,0,0,12,366.5,712.6)" />
<use xlink:href="#f1_f" transform="matrix(12,0,0,12,378.1,712.6)" />
<use xlink:href="#f1_q" transform="matrix(12,0,0,12,389.7,712.6)" />
<use xlink:href="#f1_6" transform="matrix(12,0,0,12,401.5,712.6)" />
<use xlink:href="#f1_7" transform="matrix(12,0,0,12,407.9,712.6)" />
<use xlink:href="#f1_i" transform="matrix(12,0,0,12,412.9,712.6)" />
<use xlink:href="#f1_i" transform="matrix(12,0,0,12,418,712.6)" />
<use xlink:href="#f1_c" transform="matrix(12,0,0,12,429,712.6)" />
<use xlink:href="#f1_r" transform="matrix(12,0,0,12,440.1,712.6)" />
<use xlink:href="#f1_a" transform="matrix(12,0,0,12,451.7,712.6)" />
<use xlink:href="#f1_a" transform="matrix(12,0,0,12,464.8,712.6)" />
<use xlink:href="#f1_3" transform="matrix(12,0,0,12,472,712.6)" />
<use xlink:href="#f1_4" transform="matrix(12,0,0,12,483.6,712.6)" />
<use xlink:href="#f1_b" transform="matrix(12,0,0,12,500.7,712.6)" />
<use xlink:href="#f1_g" transform="matrix(12,0,0,12,512.3,712.6)" />
<use xlink:href="#f1_t" transform="matrix(12,0,0,12,523.6,712.6)" />
<use xlink:href="#f1_p" transform="matrix(12,0,0,12,534.5,712.6)" />
<use xlink:href="#f1_4" transform="matrix(12,0,0,12,552.2,712.6)" />
<use xlink:href="#f1_h" transform="matrix(12,0,0,12,563.5,712.6)" />
<use xlink:href="#f1_a" transform="matrix(12,0,0,12,575.1,712.6)" />
<use xlink:href="#f1_9" transform="matrix(12,0,0,12,588.2,712.6)" />
<use xlink:href="#f1_o" transform="matrix(12,0,0,12,597.7,712.6)" />
<use xlink:href="#f1_8" transform="matrix(12,0,0,12,607.8,712.6)" />
<use xlink:href="#f1_4" transform="matrix(12,0,0,12,614.8,712.6)" />
<use xlink:href="#f1_4" transform="matrix(12,0,0,12,626.1,712.6)" />
<use xlink:href="#f1_h" transform="matrix(12,0,0,12,637.4,712.6)" />
<use xlink:href="#f1_1d" transform="matrix(12,0,0,12,654.9,712.6)" />
<use xlink:href="#f1_a" transform="matrix(12,0,0,12,662.1,712.6)" />
<use xlink:href="#f1_3" transform="matrix(12,0,0,12,669.3,712.6)" />
<use xlink:href="#f1_4" transform="matrix(12,0,0,12,680.9,712.6)" />
<use xlink:href="#f1_k" transform="matrix(12,0,0,12,698,712.6)" />
<use xlink:href="#f1_g" transform="matrix(12,0,0,12,708.7,712.6)" />
<use xlink:href="#f1_i" transform="matrix(12,0,0,12,720,712.6)" />
<use xlink:href="#f1_r" transform="matrix(12,0,0,12,725,712.6)" />
<use xlink:href="#f1_4" transform="matrix(12,0,0,12,736.6,712.6)" />
<use xlink:href="#f1_9" transform="matrix(12,0,0,12,747.9,712.6)" />
<use xlink:href="#f1_n" transform="matrix(12,0,0,12,763.3,712.6)" />
<use xlink:href="#f1_4" transform="matrix(12,0,0,12,774.9,712.6)" />
<use xlink:href="#f1_i" transform="matrix(12,0,0,12,786.2,712.6)" />
<use xlink:href="#f1_c" transform="matrix(12,0,0,12,791.4,712.6)" />
<use xlink:href="#f1_y" transform="matrix(12,0,0,12,802.5,712.6)" />
<use xlink:href="#f1_g" transform="matrix(12,0,0,12,86.8,741.1)" />
<use xlink:href="#f1_8" transform="matrix(12,0,0,12,98.1,741.1)" />
<use xlink:href="#f1_4" transform="matrix(12,0,0,12,105.1,741.1)" />
<use xlink:href="#f1_6" transform="matrix(12,0,0,12,122.2,741.1)" />
<use xlink:href="#f1_g" transform="matrix(12,0,0,12,128.6,741.1)" />
<use xlink:href="#f1_10" transform="matrix(12,0,0,12,139.9,741.1)" />
<use xlink:href="#f1_4" transform="matrix(12,0,0,12,149.8,741.1)" />
<use xlink:href="#f1_s" transform="matrix(12,0,0,12,166.9,741.1)" />
<use xlink:href="#f1_r" transform="matrix(12,0,0,12,191.2,741.1)" />
<use xlink:href="#f1_9" transform="matrix(12,0,0,12,202.7,741.1)" />
<use xlink:href="#f1_4" transform="matrix(12,0,0,12,212.3,741.1)" />
<use xlink:href="#f1_a" transform="matrix(12,0,0,12,229.4,741.1)" />
<use xlink:href="#f1_3" transform="matrix(12,0,0,12,236.6,741.1)" />
<use xlink:href="#f1_4" transform="matrix(12,0,0,12,248.2,741.1)" />
<use xlink:href="#f1_8" transform="matrix(12,0,0,12,265.3,741.1)" />
<use xlink:href="#f1_7" transform="matrix(12,0,0,12,272.9,741.1)" />
<use xlink:href="#f1_f" transform="matrix(12,0,0,12,278,741.1)" />
<use xlink:href="#f1_3" transform="matrix(12,0,0,12,289.6,741.1)" />
<use xlink:href="#f1_a" transform="matrix(12,0,0,12,301.2,741.1)" />
<use xlink:href="#f1_k" transform="matrix(12,0,0,12,314.3,741.1)" />
<use xlink:href="#f1_g" transform="matrix(12,0,0,12,325,741.1)" />
<use xlink:href="#f1_i" transform="matrix(12,0,0,12,336.3,741.1)" />
<use xlink:href="#f1_r" transform="matrix(12,0,0,12,341.3,741.1)" />
<use xlink:href="#f1_4" transform="matrix(12,0,0,12,352.9,741.1)" />
<use xlink:href="#f1_9" transform="matrix(12,0,0,12,364.2,741.1)" />
<use xlink:href="#f1_6" transform="matrix(12,0,0,12,379.6,741.1)" />
<use xlink:href="#f1_c" transform="matrix(12,0,0,12,386.1,741.1)" />
<use xlink:href="#f1_8" transform="matrix(12,0,0,12,397.2,741.1)" />
<use xlink:href="#f1_t" transform="matrix(12,0,0,12,410.6,741.1)" />
<use xlink:href="#f1_c" transform="matrix(12,0,0,12,421.5,741.1)" />
<use xlink:href="#f1_r" transform="matrix(12,0,0,12,432.6,741.1)" />
<use xlink:href="#f1_8" transform="matrix(12,0,0,12,444.2,741.1)" />
<use xlink:href="#f1_9" transform="matrix(12,0,0,12,451.7,741.1)" />
<use xlink:href="#f1_4" transform="matrix(12,0,0,12,461.3,741.1)" />
<use xlink:href="#f1_i" transform="matrix(12,0,0,12,472.6,741.1)" />
<use xlink:href="#f1_6" transform="matrix(12,0,0,12,477.6,741.1)" />
<use xlink:href="#f1_1e" transform="matrix(12,0,0,12,484.1,741.1)" />
<use xlink:href="#f1_q" transform="matrix(12,0,0,12,491.2,741.1)" />
<use xlink:href="#f1_g" transform="matrix(12,0,0,12,503,741.1)" />
<use xlink:href="#f1_f" transform="matrix(12,0,0,12,514.3,741.1)" />
<use xlink:href="#f1_g" transform="matrix(12,0,0,12,525.7,741.1)" />
<use xlink:href="#f1_7" transform="matrix(12,0,0,12,537,741.1)" />
<use xlink:href="#f1_h" transform="matrix(12,0,0,12,542.1,741.1)" />
<use xlink:href="#f1_k" transform="matrix(12,0,0,12,559.6,741.1)" />
<use xlink:href="#f1_4" transform="matrix(12,0,0,12,570.5,741.1)" />
<use xlink:href="#f1_8" transform="matrix(12,0,0,12,581.8,741.1)" />
<use xlink:href="#f1_7" transform="matrix(12,0,0,12,589.2,741.1)" />
<use xlink:href="#f1_6" transform="matrix(12,0,0,12,594.3,741.1)" />
<use xlink:href="#f1_t" transform="matrix(12,0,0,12,600.4,741.1)" />
<use xlink:href="#f1_t" transform="matrix(12,0,0,12,617.2,741.1)" />
<use xlink:href="#f1_c" transform="matrix(12,0,0,12,628,741.1)" />
<use xlink:href="#f1_r" transform="matrix(12,0,0,12,639.1,741.1)" />
<use xlink:href="#f1_8" transform="matrix(12,0,0,12,650.7,741.1)" />
<use xlink:href="#f1_n" transform="matrix(12,0,0,12,664.2,741.1)" />
<use xlink:href="#f1_7" transform="matrix(12,0,0,12,675.8,741.1)" />
<use xlink:href="#f1_i" transform="matrix(12,0,0,12,680.8,741.1)" />
<use xlink:href="#f1_i" transform="matrix(12,0,0,12,685.9,741.1)" />
<use xlink:href="#f1_7" transform="matrix(12,0,0,12,691,741.1)" />
<use xlink:href="#f1_h" transform="matrix(12,0,0,12,696.1,741.1)" />
<use xlink:href="#f1_f" transform="matrix(12,0,0,12,707.7,741.1)" />
<use xlink:href="#f1_7" transform="matrix(12,0,0,12,86.8,769.8)" />
<use xlink:href="#f1_h" transform="matrix(12,0,0,12,91.8,769.8)" />
<use xlink:href="#f1_6" transform="matrix(12,0,0,12,103.4,769.8)" />
<use xlink:href="#f1_c" transform="matrix(12,0,0,12,110,769.8)" />
<use xlink:href="#f1_8" transform="matrix(12,0,0,12,121.1,769.8)" />
<use xlink:href="#f1_p" transform="matrix(12,0,0,12,128.3,769.8)" />
<use xlink:href="#f1_g" transform="matrix(12,0,0,12,146.2,769.8)" />
<use xlink:href="#f1_a" transform="matrix(12,0,0,12,157.5,769.8)" />
<use xlink:href="#f1_7" transform="matrix(12,0,0,12,164.6,769.8)" />
<use xlink:href="#f1_c" transform="matrix(12,0,0,12,169.7,769.8)" />
<use xlink:href="#f1_h" transform="matrix(12,0,0,12,180.8,769.8)" />
<use xlink:href="#f1_6" transform="matrix(12,0,0,12,198.4,769.8)" />
<use xlink:href="#f1_c" transform="matrix(12,0,0,12,204.8,769.8)" />
<use xlink:href="#f1_8" transform="matrix(12,0,0,12,216.1,769.8)" />
<use xlink:href="#f1_a" transform="matrix(12,0,0,12,229.4,769.8)" />
<use xlink:href="#f1_3" transform="matrix(12,0,0,12,236.6,769.8)" />
<use xlink:href="#f1_4" transform="matrix(12,0,0,12,248.2,769.8)" />
<use xlink:href="#f1_b" transform="matrix(12,0,0,12,265.3,769.8)" />
<use xlink:href="#f1_r" transform="matrix(12,0,0,12,276.9,769.8)" />
<use xlink:href="#f1_8" transform="matrix(12,0,0,12,288.6,769.8)" />
<use xlink:href="#f1_o" transform="matrix(12,0,0,12,295.7,769.8)" />
<use xlink:href="#f1_3" transform="matrix(12,0,0,12,305.7,769.8)" />
<use xlink:href="#f1_g" transform="matrix(12,0,0,12,317.3,769.8)" />
<use xlink:href="#f1_9" transform="matrix(12,0,0,12,328.5,769.8)" />
<use xlink:href="#f1_4" transform="matrix(12,0,0,12,338.1,769.8)" />
<use xlink:href="#f1_12" transform="matrix(12,0,0,12,349.4,769.8)" />
</g>
</g>
<defs>
<path d="M102,0V1051H354L818,235c0,0,-13,113,-13,205v611h195V0H742L284,809c0,0,14,-117,14,-189V0Z" 
id="f0_1e"
transform="scale(0.001,-0.001)" />

<path d="M461,129c0,0,193,0,193,276c0,0,0,144,-47,209c0,0,-47,65,-136,65c0,0,-191,0,-191,-274c0,0,0,-135,46,-205c0,0,47,-71,135,-71Zm2,-143c0,0,-188,0,-296,111C167,97,60,209,60,405c0,0,0,194,107,306c0,0,108,111,301,111c0,0,197,0,301,-107c0,0,105,-108,105,-310c0,0,0,-197,-109,-308C765,97,656,-14,463,-14Z" 
id="f0_2b"
transform="scale(0.001,-0.001)" />

<path d="M313,-13c0,0,-92,0,-142,50c0,0,-50,50,-50,152V666H19V808H131l66,189H328V808H481V666H328V245c0,0,0,-59,23,-87c0,0,22,-28,69,-28c0,0,25,0,70,10V11c0,0,-77,-24,-177,-24Z" 
id="f0_2g"
transform="scale(0.001,-0.001)" />

<path d="M595,495c0,0,-6,98,-47,147c0,0,-41,49,-111,49c0,0,-74,0,-114,-51c0,0,-40,-52,-42,-145ZM437,-14c0,0,-182,0,-280,107c0,0,-97,108,-97,315c0,0,0,199,99,307c0,0,99,107,281,107c0,0,174,0,266,-115c0,0,91,-115,91,-337v-6H280c0,0,0,-118,43,-179c0,0,44,-60,125,-60c0,0,111,0,140,97L786,205c0,0,-86,-219,-349,-219Z" 
id="f0_21"
transform="scale(0.001,-0.001)" />

<path d="M147,0V209H362V0Zm0,562V771H362V562Z" 
id="f0_u"
transform="scale(0.001,-0.001)" />

<path d="M391,0V987H-3v127H938V987H543V0Z" 
id="f1_2"
transform="scale(0.001,-0.001)" />

<path d="M139,0V1161H277V706c0,0,49,75,116,112c0,0,67,38,154,38c0,0,144,0,218,-90c0,0,74,-89,74,-262V0H702V500c0,0,0,119,-46,177c0,0,-47,59,-139,59c0,0,-112,0,-176,-71c0,0,-64,-70,-64,-193V0Z" 
id="f1_3"
transform="scale(0.001,-0.001)" />

<path d="M231,492l491,1c0,0,-2,112,-64,179c0,0,-61,67,-163,67c0,0,-115,0,-184,-65c0,0,-69,-64,-80,-182ZM517,-20c0,0,-199,0,-316,115C201,95,84,211,84,410c0,0,0,205,111,325c0,0,111,121,299,121c0,0,168,0,266,-109c0,0,98,-108,98,-295V385H227c0,0,9,-142,85,-216c0,0,77,-74,213,-74c0,0,80,0,154,19c0,0,74,19,147,58V42C826,42,752,11,675,-4c0,0,-78,-16,-158,-16Z" 
id="f1_4"
transform="scale(0.001,-0.001)" />

<path d="M166,0V729H35V836H166v58c0,0,0,139,65,203c0,0,65,64,206,64H567V1046H435c0,0,-74,0,-102,-29c0,0,-29,-30,-29,-107V836H530V729H304V0Z" 
id="f1_6"
transform="scale(0.001,-0.001)" />

<path d="M467,95c0,0,110,0,174,86c0,0,64,87,64,236c0,0,0,148,-64,235c0,0,-64,87,-174,87c0,0,-110,0,-174,-86c0,0,-64,-86,-64,-236c0,0,0,-150,64,-236c0,0,63,-86,174,-86Zm0,-115c0,0,-179,0,-281,115C186,95,84,212,84,417c0,0,0,206,102,322c0,0,102,117,281,117c0,0,179,0,282,-117c0,0,102,-116,102,-322c0,0,0,-205,-102,-322C749,95,646,-20,467,-20Z" 
id="f1_c"
transform="scale(0.001,-0.001)" />

<path d="M144,0V1161H281V0Z" 
id="f1_i"
transform="scale(0.001,-0.001)" />

<path d="M283,0L65,836H202L373,184L544,836H706L878,184l171,652h137L967,0H806L626,685L445,0Z" 
id="f1_y"
transform="scale(0.001,-0.001)" />

<path d="M144,0V836H281V0Zm0,987v174H281V987Z" 
id="f1_7"
transform="scale(0.001,-0.001)" />

<path d="M139,0V836H277V706c0,0,49,75,116,112c0,0,67,38,154,38c0,0,144,0,218,-90c0,0,74,-89,74,-262V0H702V500c0,0,0,119,-46,177c0,0,-47,59,-139,59c0,0,-112,0,-176,-71c0,0,-64,-70,-64,-193V0Z" 
id="f1_h"
transform="scale(0.001,-0.001)" />

<path d="M460,115c0,0,111,0,173,82c0,0,61,82,61,230c0,0,0,149,-61,231c0,0,-62,82,-173,82c0,0,-111,0,-173,-82c0,0,-61,-82,-61,-231c0,0,0,-148,61,-230c0,0,62,-82,173,-82ZM446,-317c0,0,-72,0,-137,11c0,0,-64,11,-124,33v134c0,0,60,-33,119,-49c0,0,59,-15,121,-15c0,0,135,0,202,70c0,0,67,71,67,212v68C694,147,652,73,585,36C585,36,519,0,426,0C426,0,272,0,178,117c0,0,-94,117,-94,310c0,0,0,194,94,311c0,0,94,118,248,118c0,0,93,0,159,-37c0,0,67,-36,109,-110V836H831V104c0,0,0,-212,-95,-317c0,0,-94,-104,-290,-104Z" 
id="f1_f"
transform="scale(0.001,-0.001)" />

<path d="M376,-20c0,0,-67,0,-140,12C236,-8,164,4,83,30V172c0,0,76,-40,150,-59c0,0,74,-20,146,-20c0,0,97,0,150,33c0,0,52,33,52,94c0,0,0,56,-38,85c0,0,-38,30,-165,58l-48,11c0,0,-128,27,-184,83c0,0,-57,55,-57,152c0,0,0,118,83,182c0,0,84,65,238,65c0,0,76,0,143,-12c0,0,67,-11,124,-33V681c0,0,-58,29,-121,44c0,0,-63,15,-130,15c0,0,-102,0,-153,-31c0,0,-51,-31,-51,-94c0,0,0,-48,37,-75c0,0,36,-27,147,-52l46,-10c0,0,147,-32,208,-89c0,0,62,-57,62,-159c0,0,0,-116,-93,-184c0,0,-92,-66,-253,-66Z" 
id="f1_9"
transform="scale(0.001,-0.001)" />

<path d="M421,0C421,0,263,0,202,59c0,0,-60,60,-60,217V729H41V836H142v238H280V836H562V729H280V276c0,0,0,-102,28,-132c0,0,28,-29,113,-29H562V0Z" 
id="f1_a"
transform="scale(0.001,-0.001)" />

<path d="M510,93c0,0,109,0,171,86c0,0,62,86,62,238c0,0,0,151,-62,237c0,0,-62,86,-171,86c0,0,-109,0,-171,-86c0,0,-62,-86,-62,-237c0,0,0,-152,62,-238c0,0,62,-86,171,-86ZM139,-317V836H277V709c0,0,43,74,109,110c0,0,66,37,158,37c0,0,152,0,247,-121c0,0,95,-121,95,-318c0,0,0,-197,-95,-318C791,99,696,-20,544,-20c0,0,-92,0,-158,35c0,0,-66,36,-109,110V-317Z" 
id="f1_b"
transform="scale(0.001,-0.001)" />

<path d="M121,-317v116h81c0,0,57,0,88,26c0,0,31,27,69,127l25,62L46,836H191L453,182L714,836H859L492,-76c0,0,-58,-150,-113,-195c0,0,-55,-46,-148,-46Z" 
id="f1_t"
transform="scale(0.001,-0.001)" />

<path d="M408,93c0,0,115,0,184,81c0,0,69,81,69,215v30H524c0,0,-167,0,-231,-38c0,0,-64,-38,-64,-129c0,0,0,-73,48,-116c0,0,48,-43,131,-43ZM372,-20c0,0,-128,0,-204,70c0,0,-76,72,-76,193c0,0,0,141,94,212c0,0,95,72,282,72H661v13c0,0,0,95,-62,147c0,0,-63,52,-175,52c0,0,-72,0,-140,-17c0,0,-68,-17,-130,-51V798c0,0,75,29,146,43c0,0,71,15,138,15c0,0,181,0,270,-95c0,0,90,-94,90,-285V0H661V127C661,127,614,51,544,15c0,0,-70,-35,-172,-35Z" 
id="f1_g"
transform="scale(0.001,-0.001)" />

<path d="M560,-20c0,0,-211,0,-319,110c0,0,-108,111,-108,328v696H285V437c0,0,0,-179,64,-258c0,0,65,-78,211,-78c0,0,144,0,209,78c0,0,65,79,65,258v677H986V418c0,0,0,-217,-108,-328C878,90,770,-20,560,-20Z" 
id="f1_u"
transform="scale(0.001,-0.001)" />

<path d="M458,-20c0,0,-79,0,-168,17c0,0,-89,17,-184,52V204c0,0,91,-51,179,-77c0,0,88,-26,173,-26c0,0,129,0,199,50c0,0,70,51,70,145c0,0,0,82,-50,129c0,0,-50,46,-165,69l-92,18c0,0,-169,34,-244,105c0,0,-75,72,-75,199c0,0,0,148,104,233c0,0,104,85,287,85c0,0,78,0,159,-14c0,0,81,-14,166,-42V931c0,0,-85,41,-161,61c0,0,-76,20,-147,20c0,0,-123,0,-190,-48c0,0,-67,-48,-67,-136c0,0,0,-73,45,-111c0,0,44,-38,168,-61l91,-19c0,0,168,-32,249,-113c0,0,80,-81,80,-216c0,0,0,-162,-109,-246c0,0,-108,-82,-318,-82Z" 
id="f1_e"
transform="scale(0.001,-0.001)" />

<path d="M460,93c0,0,109,0,171,86c0,0,63,86,63,238c0,0,0,151,-63,237c0,0,-62,86,-171,86c0,0,-109,0,-172,-86c0,0,-62,-86,-62,-237c0,0,0,-152,62,-238c0,0,63,-86,172,-86ZM426,-20c0,0,-151,0,-247,119c0,0,-95,121,-95,318c0,0,0,197,95,318c0,0,96,121,247,121c0,0,93,0,159,-37c0,0,66,-36,109,-110v452H831V0H694V125C694,125,651,51,585,15c0,0,-66,-35,-159,-35Z" 
id="f1_j"
transform="scale(0.001,-0.001)" />

<path d="M139,0V836H277V706c0,0,43,76,112,113c0,0,70,37,169,37c0,0,14,0,31,-2c0,0,17,-2,38,-6l1,-141c0,0,-23,14,-51,20c0,0,-27,6,-60,6c0,0,-116,0,-178,-75c0,0,-62,-76,-62,-218V0Z" 
id="f1_8"
transform="scale(0.001,-0.001)" />

<path d="M495,-20c0,0,-189,0,-300,117C195,97,84,216,84,417c0,0,0,204,112,321c0,0,113,118,308,118c0,0,64,0,124,-14c0,0,60,-13,117,-39V675c0,0,-58,32,-117,48c0,0,-58,16,-118,16c0,0,-133,0,-207,-84c0,0,-74,-85,-74,-238c0,0,0,-153,74,-238c0,0,74,-84,207,-84c0,0,60,0,118,16c0,0,59,16,117,48V32C745,32,688,5,626,-7c0,0,-61,-13,-131,-13Z" 
id="f1_o"
transform="scale(0.001,-0.001)" />

<path d="M424,-20c0,0,-145,0,-219,88c0,0,-75,89,-75,262V836H267V335c0,0,0,-119,46,-178c0,0,47,-59,139,-59c0,0,112,0,177,71c0,0,64,71,64,193V836H830V0H693V128C693,128,643,52,577,15c0,0,-66,-35,-153,-35Z" 
id="f1_r"
transform="scale(0.001,-0.001)" />

<path d="M727,411L522,965L318,411ZM12,0L437,1114H608L1033,0H876L774,286H272L171,0Z" 
id="f1_d"
transform="scale(0.001,-0.001)" />

<path d="M163,0V190H321V0Z" 
id="f1_l"
transform="scale(0.001,-0.001)" />

<path d="M150,0V1114H790V987H300V659H742V532H300V0Z" 
id="f1_16"
transform="scale(0.001,-0.001)" />

<path d="M117,-176L179,62V190H336V62L213,-176Z" 
id="f1_q"
transform="scale(0.001,-0.001)" />

<path d="M510,93c0,0,109,0,171,86c0,0,62,86,62,238c0,0,0,151,-62,237c0,0,-62,86,-171,86c0,0,-109,0,-171,-86c0,0,-62,-86,-62,-237c0,0,0,-152,62,-238c0,0,62,-86,171,-86ZM544,-20c0,0,-92,0,-158,35c0,0,-66,36,-109,110V0H139V1161H277V709c0,0,43,74,109,110c0,0,66,37,158,37c0,0,152,0,247,-121c0,0,95,-121,95,-318c0,0,0,-197,-95,-318C791,99,696,-20,544,-20Z" 
id="f1_n"
transform="scale(0.001,-0.001)" />

<path d="M460,93c0,0,109,0,171,86c0,0,63,86,63,238c0,0,0,151,-63,237c0,0,-62,86,-171,86c0,0,-109,0,-172,-86c0,0,-62,-86,-62,-237c0,0,0,-152,62,-238c0,0,63,-86,172,-86ZM694,-317V125C694,125,651,51,585,15c0,0,-66,-35,-159,-35c0,0,-151,0,-247,119c0,0,-95,121,-95,318c0,0,0,197,95,318c0,0,96,121,247,121c0,0,93,0,159,-37c0,0,66,-36,109,-110V836H831V-317Z" 
id="f1_17"
transform="scale(0.001,-0.001)" />

<path d="M44,0L369,437L71,836H233L455,538L677,836H839L537,429L855,0H693L449,328L206,0Z" 
id="f1_14"
transform="scale(0.001,-0.001)" />

<path d="M139,0V836H277V706c0,0,47,77,112,113c0,0,66,37,156,37c0,0,91,0,155,-47c0,0,64,-46,94,-134c0,0,52,93,123,137c0,0,72,44,169,44c0,0,130,0,201,-92c0,0,71,-91,71,-260V0H1220V500c0,0,0,120,-42,178c0,0,-43,58,-130,58c0,0,-107,0,-169,-71c0,0,-62,-70,-62,-193V0H680V500c0,0,0,121,-43,179c0,0,-42,57,-131,57c0,0,-105,0,-167,-71c0,0,-62,-71,-62,-193V0Z" 
id="f1_p"
transform="scale(0.001,-0.001)" />

<path d="M132,763l62,237v114H351V1000L228,763Z" 
id="f1_11"
transform="scale(0.001,-0.001)" />

<path d="M139,0V1161H277V475L686,836H861L418,445L880,0H701L277,408V0Z" 
id="f1_10"
transform="scale(0.001,-0.001)" />

<path d="M359,0L46,836H191L453,134L714,836H859L546,0Z" 
id="f1_k"
transform="scale(0.001,-0.001)" />

<path d="M354,-200c0,0,-112,175,-167,343c0,0,-56,170,-56,337c0,0,0,166,55,335c0,0,55,169,168,345H473c0,0,-100,-172,-148,-340c0,0,-48,-168,-48,-340c0,0,0,-173,48,-342c0,0,49,-168,148,-338Z" 
id="f1_1d"
transform="scale(0.001,-0.001)" />

<path d="M74,365V472H1453V365Z" 
id="f1_s"
transform="scale(0.001,-0.001)" />

<path d="M122,-200c0,0,99,170,148,338c0,0,49,169,49,342c0,0,0,172,-49,340c0,0,-49,168,-148,340H241c0,0,112,-176,168,-345c0,0,55,-169,55,-335c0,0,0,-167,-55,-337c0,0,-56,-168,-168,-343Z" 
id="f1_1e"
transform="scale(0.001,-0.001)" />

<path d="M179,0V190H336V0Zm0,600V790H336V600Z" 
id="f1_12"
transform="scale(0.001,-0.001)" />


</defs>
</svg>