<?xml version="1.0" encoding="UTF-8" standalone="no"?>
<!DOCTYPE svg PUBLIC "-//W3C//DTD SVG 1.1//EN"
"http://www.w3.org/Graphics/SVG/1.1/DTD/svg11.dtd">
<svg viewBox="0 0 909 1286" version="1.1" xmlns="http://www.w3.org/2000/svg" xmlns:xlink="http://www.w3.org/1999/xlink">
<defs>
<clipPath id="c0_51"><path d="M0,1286.2V.2H909.3v1286Z" /></clipPath>
</defs>
<g clip-path="url(#c0_51)">
<g fill="#000000" >
<use xlink:href="#f0_1k" transform="matrix(12,0,0,12,86.8,512)" />
<use xlink:href="#f0_o" transform="matrix(12,0,0,12,99.3,512)" />
<use xlink:href="#f0_o" transform="matrix(12,0,0,12,104.5,512)" />
<use xlink:href="#f0_p" transform="matrix(12,0,0,12,115.3,512)" />
<use xlink:href="#f0_d" transform="matrix(12,0,0,12,126.2,512)" />
<use xlink:href="#f0_k" transform="matrix(12,0,0,12,137.3,512)" />
<use xlink:href="#f0_7" transform="matrix(12,0,0,12,154.9,512)" />
<use xlink:href="#f0_8" transform="matrix(12,0,0,12,166.3,512)" />
<use xlink:href="#f0_t" transform="matrix(12,0,0,12,177.6,512)" />
<use xlink:href="#f0_a" transform="matrix(12,0,0,12,188.5,512)" />
<use xlink:href="#f0_6" transform="matrix(12,0,0,12,205.6,512)" />
<use xlink:href="#f0_d" transform="matrix(12,0,0,12,212.7,512)" />
<use xlink:href="#f0_f" transform="matrix(12,0,0,12,229.9,512)" />
<use xlink:href="#f0_d" transform="matrix(12,0,0,12,241.5,512)" />
<use xlink:href="#f0_e" transform="matrix(12,0,0,12,258.6,512)" />
<use xlink:href="#f0_d" transform="matrix(12,0,0,12,270.2,512)" />
<use xlink:href="#f0_n" transform="matrix(12,0,0,12,281.3,512)" />
<use xlink:href="#f0_c" transform="matrix(12,0,0,12,302.2,512)" />
<use xlink:href="#f0_9" transform="matrix(12,0,0,12,307.3,512)" />
<use xlink:href="#f0_n" transform="matrix(12,0,0,12,322.7,512)" />
<use xlink:href="#f0_8" transform="matrix(12,0,0,12,337.5,512)" />
<use xlink:href="#f0_c" transform="matrix(12,0,0,12,348.8,512)" />
<use xlink:href="#f0_6" transform="matrix(12,0,0,12,353.8,512)" />
<use xlink:href="#f0_h" transform="matrix(12,0,0,12,367,512)" />
<use xlink:href="#f0_d" transform="matrix(12,0,0,12,373.4,512)" />
<use xlink:href="#f0_g" transform="matrix(12,0,0,12,384.5,512)" />
<use xlink:href="#f0_p" transform="matrix(12,0,0,12,398,512)" />
<use xlink:href="#f0_d" transform="matrix(12,0,0,12,408.8,512)" />
<use xlink:href="#f0_k" transform="matrix(12,0,0,12,419.9,512)" />
<use xlink:href="#f0_g" transform="matrix(12,0,0,12,431.6,512)" />
<use xlink:href="#f0_8" transform="matrix(12,0,0,12,445,512)" />
<use xlink:href="#f0_s" transform="matrix(12,0,0,12,456.3,512)" />
<use xlink:href="#f0_s" transform="matrix(12,0,0,12,467.9,512)" />
<use xlink:href="#f0_6" transform="matrix(12,0,0,12,485.3,512)" />
<use xlink:href="#f0_d" transform="matrix(12,0,0,12,492.5,512)" />
<use xlink:href="#f0_x" transform="matrix(12,0,0,12,509.6,512)" />
<use xlink:href="#f0_a" transform="matrix(12,0,0,12,521.2,512)" />
<use xlink:href="#f0_8" transform="matrix(12,0,0,12,538.3,512)" />
<use xlink:href="#f0_s" transform="matrix(12,0,0,12,549.6,512)" />
<use xlink:href="#f0_s" transform="matrix(12,0,0,12,561.2,512)" />
<use xlink:href="#f0_g" transform="matrix(12,0,0,12,572.8,512)" />
<use xlink:href="#f0_d" transform="matrix(12,0,0,12,579.8,512)" />
<use xlink:href="#f0_t" transform="matrix(12,0,0,12,591,512)" />
<use xlink:href="#f0_a" transform="matrix(12,0,0,12,601.8,512)" />
<use xlink:href="#f0_f" transform="matrix(12,0,0,12,613.1,512)" />
<use xlink:href="#f0_1q" transform="matrix(12,0,0,12,624.7,512)" />
<use xlink:href="#f0_1r" transform="matrix(12,0,0,12,638,512)" />
<use xlink:href="#f0_d" transform="matrix(12,0,0,12,646.7,512)" />
<use xlink:href="#f0_k" transform="matrix(12,0,0,12,658,512)" />
<use xlink:href="#f0_n" transform="matrix(12,0,0,12,675.4,512)" />
<use xlink:href="#f0_c" transform="matrix(12,0,0,12,690.4,512)" />
<use xlink:href="#f0_o" transform="matrix(12,0,0,12,695.6,512)" />
<use xlink:href="#f0_o" transform="matrix(12,0,0,12,700.6,512)" />
<use xlink:href="#f0_g" transform="matrix(12,0,0,12,711.6,512)" />
<use xlink:href="#f0_a" transform="matrix(12,0,0,12,718.6,512)" />
<use xlink:href="#f0_b" transform="matrix(12,0,0,12,729.9,512)" />
<use xlink:href="#f0_a" transform="matrix(12,0,0,12,740,512)" />
<use xlink:href="#f0_c" transform="matrix(12,0,0,12,751.3,512)" />
<use xlink:href="#f0_t" transform="matrix(12,0,0,12,756.3,512)" />
<use xlink:href="#f0_a" transform="matrix(12,0,0,12,767.1,512)" />
<use xlink:href="#f0_a" transform="matrix(12,0,0,12,86.8,540.7)" />
<use xlink:href="#f0_u" transform="matrix(12,0,0,12,98.1,540.7)" />
<use xlink:href="#f0_8" transform="matrix(12,0,0,12,115.9,540.7)" />
<use xlink:href="#f0_c" transform="matrix(12,0,0,12,127.2,540.7)" />
<use xlink:href="#f0_o" transform="matrix(12,0,0,12,132.3,540.7)" />
<use xlink:href="#f0_9" transform="matrix(12,0,0,12,137.3,540.7)" />
<use xlink:href="#f0_8" transform="matrix(12,0,0,12,152.7,540.7)" />
<use xlink:href="#f0_x" transform="matrix(12,0,0,12,164,540.7)" />
<use xlink:href="#f0_d" transform="matrix(12,0,0,12,175.6,540.7)" />
<use xlink:href="#f0_k" transform="matrix(12,0,0,12,186.8,540.7)" />
<use xlink:href="#f0_6" transform="matrix(12,0,0,12,198.4,540.7)" />
<use xlink:href="#f0_a" transform="matrix(12,0,0,12,211.4,540.7)" />
<use xlink:href="#f0_t" transform="matrix(12,0,0,12,222.7,540.7)" />
<use xlink:href="#f0_a" transform="matrix(12,0,0,12,233.5,540.7)" />
<use xlink:href="#f0_g" transform="matrix(12,0,0,12,244.8,540.7)" />
<use xlink:href="#f0_p" transform="matrix(12,0,0,12,252.3,540.7)" />
<use xlink:href="#f0_b" transform="matrix(12,0,0,12,268.9,540.7)" />
<use xlink:href="#f0_7" transform="matrix(12,0,0,12,279,540.7)" />
<use xlink:href="#f0_8" transform="matrix(12,0,0,12,290.6,540.7)" />
<use xlink:href="#f0_e" transform="matrix(12,0,0,12,301.9,540.7)" />
<use xlink:href="#f0_q" transform="matrix(12,0,0,12,313.5,540.7)" />
<use xlink:href="#f0_a" transform="matrix(12,0,0,12,325.1,540.7)" />
<use xlink:href="#f0_c" transform="matrix(12,0,0,12,342.2,540.7)" />
<use xlink:href="#f0_e" transform="matrix(12,0,0,12,347.2,540.7)" />
<use xlink:href="#f0_9" transform="matrix(12,0,0,12,364.8,540.7)" />
<use xlink:href="#f0_6" transform="matrix(12,0,0,12,374.3,540.7)" />
<use xlink:href="#f0_8" transform="matrix(12,0,0,12,381.5,540.7)" />
<use xlink:href="#f0_6" transform="matrix(12,0,0,12,392.8,540.7)" />
<use xlink:href="#f0_k" transform="matrix(12,0,0,12,399.9,540.7)" />
<use xlink:href="#f0_9" transform="matrix(12,0,0,12,411.6,540.7)" />
<use xlink:href="#f0_p" transform="matrix(12,0,0,12,427,540.7)" />
<use xlink:href="#f0_d" transform="matrix(12,0,0,12,437.8,540.7)" />
<use xlink:href="#f0_k" transform="matrix(12,0,0,12,449,540.7)" />
<use xlink:href="#f0_g" transform="matrix(12,0,0,12,460.6,540.7)" />
<use xlink:href="#f0_8" transform="matrix(12,0,0,12,474,540.7)" />
<use xlink:href="#f0_s" transform="matrix(12,0,0,12,485.1,540.7)" />
<use xlink:href="#f0_s" transform="matrix(12,0,0,12,496.7,540.7)" />
<use xlink:href="#f0_u" transform="matrix(12,0,0,12,514.3,540.7)" />
<use xlink:href="#f0_d" transform="matrix(12,0,0,12,532.2,540.7)" />
<use xlink:href="#f0_t" transform="matrix(12,0,0,12,543.3,540.7)" />
<use xlink:href="#f0_a" transform="matrix(12,0,0,12,554.1,540.7)" />
<use xlink:href="#f0_9" transform="matrix(12,0,0,12,565.3,540.7)" />
<use xlink:href="#f0_6" transform="matrix(12,0,0,12,580.8,540.7)" />
<use xlink:href="#f0_7" transform="matrix(12,0,0,12,588,540.7)" />
<use xlink:href="#f0_g" transform="matrix(12,0,0,12,599.6,540.7)" />
<use xlink:href="#f0_d" transform="matrix(12,0,0,12,606.7,540.7)" />
<use xlink:href="#f0_k" transform="matrix(12,0,0,12,617.8,540.7)" />
<use xlink:href="#f0_q" transform="matrix(12,0,0,12,629.6,540.7)" />
<use xlink:href="#f0_7" transform="matrix(12,0,0,12,641.2,540.7)" />
<use xlink:href="#f0_l" transform="matrix(12,0,0,12,652.8,540.7)" />
<use xlink:href="#f0_1y" transform="matrix(12,0,0,12,664.5,540.7)" />
<use xlink:href="#f0_9" transform="matrix(12,0,0,12,677.8,540.7)" />
<use xlink:href="#f0_k" transform="matrix(12,0,0,12,687.4,540.7)" />
<use xlink:href="#f0_8" transform="matrix(12,0,0,12,698.9,540.7)" />
<use xlink:href="#f0_o" transform="matrix(12,0,0,12,710.2,540.7)" />
<use xlink:href="#f0_o" transform="matrix(12,0,0,12,715.3,540.7)" />
<use xlink:href="#f0_p" transform="matrix(12,0,0,12,720.4,540.7)" />
<use xlink:href="#f0_8" transform="matrix(12,0,0,12,737,540.7)" />
<use xlink:href="#f0_h" transform="matrix(12,0,0,12,748.3,540.7)" />
<use xlink:href="#f0_6" transform="matrix(12,0,0,12,754.4,540.7)" />
<use xlink:href="#f0_a" transform="matrix(12,0,0,12,761.6,540.7)" />
<use xlink:href="#f0_g" transform="matrix(12,0,0,12,772.9,540.7)" />
<use xlink:href="#f0_8" transform="matrix(12,0,0,12,86.8,569.3)" />
<use xlink:href="#f0_x" transform="matrix(12,0,0,12,98.1,569.3)" />
<use xlink:href="#f0_d" transform="matrix(12,0,0,12,109.7,569.3)" />
<use xlink:href="#f0_k" transform="matrix(12,0,0,12,120.8,569.3)" />
<use xlink:href="#f0_6" transform="matrix(12,0,0,12,132.4,569.3)" />
<use xlink:href="#f0_8" transform="matrix(12,0,0,12,145.6,569.3)" />
<use xlink:href="#f0_n" transform="matrix(12,0,0,12,162.5,569.3)" />
<use xlink:href="#f0_a" transform="matrix(12,0,0,12,177.5,569.3)" />
<use xlink:href="#f0_a" transform="matrix(12,0,0,12,188.8,569.3)" />
<use xlink:href="#f0_i" transform="matrix(12,0,0,12,200.1,569.3)" />
<use xlink:href="#f0_6" transform="matrix(12,0,0,12,216.6,569.3)" />
<use xlink:href="#f0_7" transform="matrix(12,0,0,12,223.7,569.3)" />
<use xlink:href="#f0_a" transform="matrix(12,0,0,12,235.4,569.3)" />
<use xlink:href="#f0_9" transform="matrix(12,0,0,12,252.5,569.3)" />
<use xlink:href="#f0_6" transform="matrix(12,0,0,12,262.1,569.3)" />
<use xlink:href="#f0_8" transform="matrix(12,0,0,12,269.1,569.3)" />
<use xlink:href="#f0_6" transform="matrix(12,0,0,12,280.4,569.3)" />
<use xlink:href="#f0_k" transform="matrix(12,0,0,12,287.6,569.3)" />
<use xlink:href="#f0_9" transform="matrix(12,0,0,12,299.2,569.3)" />
<use xlink:href="#f0_9" transform="matrix(12,0,0,12,314.6,569.3)" />
<use xlink:href="#f0_7" transform="matrix(12,0,0,12,324.2,569.3)" />
<use xlink:href="#f0_d" transform="matrix(12,0,0,12,335.8,569.3)" />
<use xlink:href="#f0_k" transform="matrix(12,0,0,12,346.9,569.3)" />
<use xlink:href="#f0_o" transform="matrix(12,0,0,12,358.6,569.3)" />
<use xlink:href="#f0_f" transform="matrix(12,0,0,12,363.6,569.3)" />
<use xlink:href="#f0_b" transform="matrix(12,0,0,12,381.2,569.3)" />
<use xlink:href="#f0_7" transform="matrix(12,0,0,12,391.2,569.3)" />
<use xlink:href="#f0_8" transform="matrix(12,0,0,12,402.7,569.3)" />
<use xlink:href="#f0_e" transform="matrix(12,0,0,12,414,569.3)" />
<use xlink:href="#f0_q" transform="matrix(12,0,0,12,425.6,569.3)" />
<use xlink:href="#f0_a" transform="matrix(12,0,0,12,437.2,569.3)" />
<use xlink:href="#f0_6" transform="matrix(12,0,0,12,454.4,569.3)" />
<use xlink:href="#f0_d" transform="matrix(12,0,0,12,461.6,569.3)" />
<use xlink:href="#f0_1b" transform="matrix(12,0,0,12,478.6,569.3)" />
<use xlink:href="#f0_19" transform="matrix(12,0,0,12,488,569.3)" />
<use xlink:href="#f0_e" transform="matrix(12,0,0,12,493.4,569.3)" />
<use xlink:href="#f0_1i" transform="matrix(12,0,0,12,511,569.3)" />
<use xlink:href="#f0_a" transform="matrix(12,0,0,12,522.9,569.3)" />
<use xlink:href="#f0_t" transform="matrix(12,0,0,12,534.2,569.3)" />
<use xlink:href="#f0_c" transform="matrix(12,0,0,12,545,569.3)" />
<use xlink:href="#f0_a" transform="matrix(12,0,0,12,550,569.3)" />
<use xlink:href="#f0_n" transform="matrix(12,0,0,12,561.3,569.3)" />
<use xlink:href="#f0_4" transform="matrix(12,0,0,12,576.3,569.3)" />
<use xlink:href="#f0_1c" transform="matrix(12,0,0,12,582.1,569.3)" />
<use xlink:href="#f0_6" transform="matrix(12,0,0,12,597.5,569.3)" />
<use xlink:href="#f0_7" transform="matrix(12,0,0,12,604.7,569.3)" />
<use xlink:href="#f0_a" transform="matrix(12,0,0,12,616.3,569.3)" />
<use xlink:href="#f0_e" transform="matrix(12,0,0,12,627.6,569.3)" />
<use xlink:href="#f0_6" transform="matrix(12,0,0,12,645,569.3)" />
<use xlink:href="#f0_d" transform="matrix(12,0,0,12,652.2,569.3)" />
<use xlink:href="#f0_1b" transform="matrix(12,0,0,12,669.3,569.3)" />
<use xlink:href="#f0_1k" transform="matrix(12,0,0,12,676.3,569.3)" />
<use xlink:href="#f0_s" transform="matrix(12,0,0,12,688.9,569.3)" />
<use xlink:href="#f0_s" transform="matrix(12,0,0,12,700.5,569.3)" />
<use xlink:href="#f0_g" transform="matrix(12,0,0,12,712.2,569.3)" />
<use xlink:href="#f0_d" transform="matrix(12,0,0,12,719.2,569.3)" />
<use xlink:href="#f0_t" transform="matrix(12,0,0,12,730.4,569.3)" />
<use xlink:href="#f0_a" transform="matrix(12,0,0,12,741.2,569.3)" />
<use xlink:href="#f0_f" transform="matrix(12,0,0,12,752.5,569.3)" />
<use xlink:href="#f0_1c" transform="matrix(12,0,0,12,764.1,569.3)" />
<use xlink:href="#f0_l" transform="matrix(12,0,0,12,773.7,569.3)" />
<use xlink:href="#f0_1y" transform="matrix(12,0,0,12,86.8,598)" />
<use xlink:href="#f0_e" transform="matrix(12,0,0,12,100.2,598)" />
<use xlink:href="#f0_o" transform="matrix(12,0,0,12,111.8,598)" />
<use xlink:href="#f0_a" transform="matrix(12,0,0,12,116.8,598)" />
<use xlink:href="#f0_9" transform="matrix(12,0,0,12,128.1,598)" />
<use xlink:href="#f0_9" transform="matrix(12,0,0,12,137.6,598)" />
<use xlink:href="#f0_p" transform="matrix(12,0,0,12,153.2,598)" />
<use xlink:href="#f0_d" transform="matrix(12,0,0,12,164,598)" />
<use xlink:href="#f0_k" transform="matrix(12,0,0,12,175.1,598)" />
<use xlink:href="#f0_b" transform="matrix(12,0,0,12,192.6,598)" />
<use xlink:href="#f0_7" transform="matrix(12,0,0,12,202.6,598)" />
<use xlink:href="#f0_d" transform="matrix(12,0,0,12,214.2,598)" />
<use xlink:href="#f0_9" transform="matrix(12,0,0,12,225.4,598)" />
<use xlink:href="#f0_a" transform="matrix(12,0,0,12,235,598)" />
<use xlink:href="#f0_8" transform="matrix(12,0,0,12,252.1,598)" />
<use xlink:href="#f0_h" transform="matrix(12,0,0,12,269.2,598)" />
<use xlink:href="#f0_k" transform="matrix(12,0,0,12,275.6,598)" />
<use xlink:href="#f0_6" transform="matrix(12,0,0,12,287.2,598)" />
<use xlink:href="#f0_k" transform="matrix(12,0,0,12,294.4,598)" />
<use xlink:href="#f0_g" transform="matrix(12,0,0,12,306,598)" />
<use xlink:href="#f0_a" transform="matrix(12,0,0,12,313,598)" />
<use xlink:href="#f0_g" transform="matrix(12,0,0,12,330.3,598)" />
<use xlink:href="#f0_a" transform="matrix(12,0,0,12,337.3,598)" />
<use xlink:href="#f0_o" transform="matrix(12,0,0,12,348.6,598)" />
<use xlink:href="#f0_a" transform="matrix(12,0,0,12,353.6,598)" />
<use xlink:href="#f0_8" transform="matrix(12,0,0,12,364.9,598)" />
<use xlink:href="#f0_9" transform="matrix(12,0,0,12,376.2,598)" />
<use xlink:href="#f0_a" transform="matrix(12,0,0,12,385.8,598)" />
<use xlink:href="#f0_f" transform="matrix(12,0,0,12,402.9,598)" />
<use xlink:href="#f0_8" transform="matrix(12,0,0,12,414.4,598)" />
<use xlink:href="#f0_6" transform="matrix(12,0,0,12,425.7,598)" />
<use xlink:href="#f0_a" transform="matrix(12,0,0,12,432.9,598)" />
<use xlink:href="#f0_4" transform="matrix(12,0,0,12,444.2,598)" />
<use xlink:href="#f0_8" transform="matrix(12,0,0,12,455.9,598)" />
<use xlink:href="#f0_h" transform="matrix(12,0,0,12,472.9,598)" />
<use xlink:href="#f0_a" transform="matrix(12,0,0,12,479.3,598)" />
<use xlink:href="#f0_n" transform="matrix(12,0,0,12,490.6,598)" />
<use xlink:href="#f0_u" transform="matrix(12,0,0,12,511.5,598)" />
<use xlink:href="#f0_c" transform="matrix(12,0,0,12,529.4,598)" />
<use xlink:href="#f0_e" transform="matrix(12,0,0,12,534.4,598)" />
<use xlink:href="#f0_k" transform="matrix(12,0,0,12,546,598)" />
<use xlink:href="#f0_6" transform="matrix(12,0,0,12,557.6,598)" />
<use xlink:href="#f0_a" transform="matrix(12,0,0,12,564.8,598)" />
<use xlink:href="#f0_9" transform="matrix(12,0,0,12,576.1,598)" />
<use xlink:href="#f0_8" transform="matrix(12,0,0,12,591.5,598)" />
<use xlink:href="#f0_h" transform="matrix(12,0,0,12,602.7,598)" />
<use xlink:href="#f0_6" transform="matrix(12,0,0,12,608.8,598)" />
<use xlink:href="#f0_a" transform="matrix(12,0,0,12,616,598)" />
<use xlink:href="#f0_g" transform="matrix(12,0,0,12,627.2,598)" />
<use xlink:href="#f0_8" transform="matrix(12,0,0,12,640.7,598)" />
<use xlink:href="#f0_s" transform="matrix(12,0,0,12,651.8,598)" />
<use xlink:href="#f0_s" transform="matrix(12,0,0,12,663.4,598)" />
<use xlink:href="#f0_g" transform="matrix(12,0,0,12,675.2,598)" />
<use xlink:href="#f0_d" transform="matrix(12,0,0,12,682.2,598)" />
<use xlink:href="#f0_t" transform="matrix(12,0,0,12,693.4,598)" />
<use xlink:href="#f0_8" transform="matrix(12,0,0,12,704.2,598)" />
<use xlink:href="#f0_o" transform="matrix(12,0,0,12,715.5,598)" />
<use xlink:href="#f0_p" transform="matrix(12,0,0,12,726.5,598)" />
<use xlink:href="#f0_d" transform="matrix(12,0,0,12,737.3,598)" />
<use xlink:href="#f0_k" transform="matrix(12,0,0,12,748.4,598)" />
<use xlink:href="#f0_g" transform="matrix(12,0,0,12,760.1,598)" />
<use xlink:href="#f0_8" transform="matrix(12,0,0,12,86.8,626.5)" />
<use xlink:href="#f0_s" transform="matrix(12,0,0,12,98.1,626.5)" />
<use xlink:href="#f0_s" transform="matrix(12,0,0,12,109.7,626.5)" />
<use xlink:href="#f0_r" transform="matrix(12,0,0,12,121.3,626.5)" />
<use xlink:href="#f0_9" transform="matrix(12,0,0,12,127.1,626.5)" />
<use xlink:href="#f0_9" transform="matrix(12,0,0,12,142.5,626.5)" />
<use xlink:href="#f0_6" transform="matrix(12,0,0,12,152.1,626.5)" />
<use xlink:href="#f0_8" transform="matrix(12,0,0,12,159.1,626.5)" />
<use xlink:href="#f0_6" transform="matrix(12,0,0,12,170.4,626.5)" />
<use xlink:href="#f0_k" transform="matrix(12,0,0,12,177.6,626.5)" />
<use xlink:href="#f0_9" transform="matrix(12,0,0,12,189.2,626.5)" />
<use xlink:href="#f0_n" transform="matrix(12,0,0,12,204.6,626.5)" />
<use xlink:href="#f0_c" transform="matrix(12,0,0,12,219.6,626.5)" />
<use xlink:href="#f0_o" transform="matrix(12,0,0,12,224.7,626.5)" />
<use xlink:href="#f0_o" transform="matrix(12,0,0,12,229.8,626.5)" />
<use xlink:href="#f0_9" transform="matrix(12,0,0,12,240.7,626.5)" />
<use xlink:href="#f0_7" transform="matrix(12,0,0,12,250.3,626.5)" />
<use xlink:href="#f0_c" transform="matrix(12,0,0,12,261.9,626.5)" />
<use xlink:href="#f0_h" transform="matrix(12,0,0,12,266.9,626.5)" />
<use xlink:href="#f0_6" transform="matrix(12,0,0,12,273,626.5)" />
<use xlink:href="#f0_6" transform="matrix(12,0,0,12,286.2,626.5)" />
<use xlink:href="#f0_d" transform="matrix(12,0,0,12,293.4,626.5)" />
<use xlink:href="#f0_1b" transform="matrix(12,0,0,12,310.3,626.5)" />
<use xlink:href="#f0_1g" transform="matrix(12,0,0,12,319.2,626.5)" />
<use xlink:href="#f0_g" transform="matrix(12,0,0,12,330,626.5)" />
<use xlink:href="#f0_d" transform="matrix(12,0,0,12,337,626.5)" />
<use xlink:href="#f0_b" transform="matrix(12,0,0,12,348.3,626.5)" />
<use xlink:href="#f0_a" transform="matrix(12,0,0,12,358.4,626.5)" />
<use xlink:href="#f0_9" transform="matrix(12,0,0,12,369.6,626.5)" />
<use xlink:href="#f0_9" transform="matrix(12,0,0,12,379.2,626.5)" />
<use xlink:href="#f0_c" transform="matrix(12,0,0,12,388.8,626.5)" />
<use xlink:href="#f0_e" transform="matrix(12,0,0,12,393.8,626.5)" />
<use xlink:href="#f0_q" transform="matrix(12,0,0,12,405.4,626.5)" />
<use xlink:href="#f0_h" transform="matrix(12,0,0,12,423,626.5)" />
<use xlink:href="#f0_d" transform="matrix(12,0,0,12,429.4,626.5)" />
<use xlink:href="#f0_g" transform="matrix(12,0,0,12,440.5,626.5)" />
<use xlink:href="#f0_1k" transform="matrix(12,0,0,12,454,626.5)" />
<use xlink:href="#f0_s" transform="matrix(12,0,0,12,466.5,626.5)" />
<use xlink:href="#f0_s" transform="matrix(12,0,0,12,478.1,626.5)" />
<use xlink:href="#f0_18" transform="matrix(12,0,0,12,495.5,626.5)" />
<use xlink:href="#f0_6" transform="matrix(12,0,0,12,507.1,626.5)" />
<use xlink:href="#f0_d" transform="matrix(12,0,0,12,514.4,626.5)" />
<use xlink:href="#f0_g" transform="matrix(12,0,0,12,525.6,626.5)" />
<use xlink:href="#f0_a" transform="matrix(12,0,0,12,532.6,626.5)" />
<use xlink:href="#f0_1c" transform="matrix(12,0,0,12,543.9,626.5)" />
<use xlink:href="#f0_4" transform="matrix(12,0,0,12,553.4,626.5)" />
<use xlink:href="#f0_6" transform="matrix(12,0,0,12,565.1,626.5)" />
<use xlink:href="#f0_7" transform="matrix(12,0,0,12,572.3,626.5)" />
<use xlink:href="#f0_a" transform="matrix(12,0,0,12,583.9,626.5)" />
<use xlink:href="#f0_e" transform="matrix(12,0,0,12,595.2,626.5)" />
<use xlink:href="#f0_8" transform="matrix(12,0,0,12,612.6,626.5)" />
<use xlink:href="#f0_h" transform="matrix(12,0,0,12,629.7,626.5)" />
<use xlink:href="#f0_a" transform="matrix(12,0,0,12,636.1,626.5)" />
<use xlink:href="#f0_n" transform="matrix(12,0,0,12,647.4,626.5)" />
<use xlink:href="#f0_u" transform="matrix(12,0,0,12,668.2,626.5)" />
<use xlink:href="#f0_c" transform="matrix(12,0,0,12,686.1,626.5)" />
<use xlink:href="#f0_e" transform="matrix(12,0,0,12,691.1,626.5)" />
<use xlink:href="#f0_k" transform="matrix(12,0,0,12,702.7,626.5)" />
<use xlink:href="#f0_6" transform="matrix(12,0,0,12,714.3,626.5)" />
<use xlink:href="#f0_a" transform="matrix(12,0,0,12,721.5,626.5)" />
<use xlink:href="#f0_9" transform="matrix(12,0,0,12,732.8,626.5)" />
<use xlink:href="#f0_o" transform="matrix(12,0,0,12,748.2,626.5)" />
<use xlink:href="#f0_8" transform="matrix(12,0,0,12,753.3,626.5)" />
<use xlink:href="#f0_6" transform="matrix(12,0,0,12,764.6,626.5)" />
<use xlink:href="#f0_a" transform="matrix(12,0,0,12,771.7,626.5)" />
<use xlink:href="#f0_g" transform="matrix(12,0,0,12,783,626.5)" />
<use xlink:href="#f0_6" transform="matrix(12,0,0,12,796.5,626.5)" />
<use xlink:href="#f0_d" transform="matrix(12,0,0,12,803.6,626.5)" />
<use xlink:href="#f0_1b" transform="matrix(12,0,0,12,86.8,655.3)" />
<use xlink:href="#f0_1i" transform="matrix(12,0,0,12,95.6,655.3)" />
<use xlink:href="#f0_a" transform="matrix(12,0,0,12,107.5,655.3)" />
<use xlink:href="#f0_8" transform="matrix(12,0,0,12,118.8,655.3)" />
<use xlink:href="#f0_f" transform="matrix(12,0,0,12,130.1,655.3)" />
<use xlink:href="#f0_p" transform="matrix(12,0,0,12,141.7,655.3)" />
<use xlink:href="#f0_h" transform="matrix(12,0,0,12,158.4,655.3)" />
<use xlink:href="#f0_d" transform="matrix(12,0,0,12,164.9,655.3)" />
<use xlink:href="#f0_g" transform="matrix(12,0,0,12,176.1,655.3)" />
<use xlink:href="#f0_18" transform="matrix(12,0,0,12,189.5,655.3)" />
<use xlink:href="#f0_8" transform="matrix(12,0,0,12,201,655.3)" />
<use xlink:href="#f0_o" transform="matrix(12,0,0,12,212.3,655.3)" />
<use xlink:href="#f0_a" transform="matrix(12,0,0,12,217.3,655.3)" />
<use xlink:href="#f0_1c" transform="matrix(12,0,0,12,228.6,655.3)" />
<use xlink:href="#f0_l" transform="matrix(12,0,0,12,238.1,655.3)" />
<use xlink:href="#f0_19" transform="matrix(12,0,0,12,86.8,683.8)" />
<use xlink:href="#f0_e" transform="matrix(12,0,0,12,92.1,683.8)" />
<use xlink:href="#f0_c" transform="matrix(12,0,0,12,109.7,683.8)" />
<use xlink:href="#f0_w" transform="matrix(12,0,0,12,114.7,683.8)" />
<use xlink:href="#f0_k" transform="matrix(12,0,0,12,123.1,683.8)" />
<use xlink:href="#f0_e" transform="matrix(12,0,0,12,134.7,683.8)" />
<use xlink:href="#f0_a" transform="matrix(12,0,0,12,146.3,683.8)" />
<use xlink:href="#f0_9" transform="matrix(12,0,0,12,157.6,683.8)" />
<use xlink:href="#f0_1f" transform="matrix(12,0,0,12,173.1,683.8)" />
<use xlink:href="#f0_d" transform="matrix(12,0,0,12,185.9,683.8)" />
<use xlink:href="#f0_e" transform="matrix(12,0,0,12,197,683.8)" />
<use xlink:href="#f0_e" transform="matrix(12,0,0,12,208.6,683.8)" />
<use xlink:href="#f0_a" transform="matrix(12,0,0,12,220.2,683.8)" />
<use xlink:href="#f0_b" transform="matrix(12,0,0,12,231.5,683.8)" />
<use xlink:href="#f0_6" transform="matrix(12,0,0,12,241.6,683.8)" />
<use xlink:href="#f0_b" transform="matrix(12,0,0,12,254.6,683.8)" />
<use xlink:href="#f0_o" transform="matrix(12,0,0,12,264.6,683.8)" />
<use xlink:href="#f0_c" transform="matrix(12,0,0,12,269.8,683.8)" />
<use xlink:href="#f0_b" transform="matrix(12,0,0,12,274.9,683.8)" />
<use xlink:href="#f0_i" transform="matrix(12,0,0,12,284.9,683.8)" />
</g>
<g fill="#0000FF" >
<use xlink:href="#f1_n" transform="matrix(12,0,0,12,301.6,683.8)" />
<use xlink:href="#f1_f" transform="matrix(12,0,0,12,315.8,683.8)" />
<use xlink:href="#f1_4" transform="matrix(12,0,0,12,326.6,683.8)" />
<use xlink:href="#f1_5" transform="matrix(12,0,0,12,335.3,683.8)" />
<use xlink:href="#f1_x" transform="matrix(12,0,0,12,341.6,683.8)" />
<use xlink:href="#f1_5" transform="matrix(12,0,0,12,353.5,683.8)" />
<use xlink:href="#f1_4" transform="matrix(12,0,0,12,359.9,683.8)" />
<use xlink:href="#f1_y" transform="matrix(12,0,0,12,368.6,683.8)" />
</g>
<g fill="#000000" >
<use xlink:href="#f0_4" transform="matrix(12,0,0,12,380.6,683.8)" />
<use xlink:href="#f0_h" transform="matrix(12,0,0,12,392.3,683.8)" />
<use xlink:href="#f0_d" transform="matrix(12,0,0,12,398.7,683.8)" />
<use xlink:href="#f0_o" transform="matrix(12,0,0,12,409.9,683.8)" />
<use xlink:href="#f0_o" transform="matrix(12,0,0,12,414.9,683.8)" />
<use xlink:href="#f0_d" transform="matrix(12,0,0,12,420.1,683.8)" />
<use xlink:href="#f0_n" transform="matrix(12,0,0,12,431.2,683.8)" />
<use xlink:href="#f0_a" transform="matrix(12,0,0,12,446.2,683.8)" />
<use xlink:href="#f0_f" transform="matrix(12,0,0,12,457.5,683.8)" />
<use xlink:href="#f0_x" transform="matrix(12,0,0,12,475.1,683.8)" />
<use xlink:href="#f0_p" transform="matrix(12,0,0,12,486.7,683.8)" />
</g>
<g fill="#0000FF" >
<use xlink:href="#f1_n" transform="matrix(12,0,0,12,503.4,683.8)" />
<use xlink:href="#f1_q" transform="matrix(12,0,0,12,517.6,683.8)" />
<use xlink:href="#f1_q" transform="matrix(12,0,0,12,530.7,683.8)" />
<use xlink:href="#f1_9" transform="matrix(12,0,0,12,550.2,683.8)" />
<use xlink:href="#f1_4" transform="matrix(12,0,0,12,563.4,683.8)" />
<use xlink:href="#f1_g" transform="matrix(12,0,0,12,572.1,683.8)" />
<use xlink:href="#f1_b" transform="matrix(12,0,0,12,584.8,683.8)" />
<use xlink:href="#f1_3" transform="matrix(12,0,0,12,593.8,683.8)" />
<use xlink:href="#f1_u" transform="matrix(12,0,0,12,612.6,683.8)" />
<use xlink:href="#f1_3" transform="matrix(12,0,0,12,625.7,683.8)" />
<use xlink:href="#f1_b" transform="matrix(12,0,0,12,638.2,683.8)" />
<use xlink:href="#f1_k" transform="matrix(12,0,0,12,647.2,683.8)" />
<use xlink:href="#f1_5" transform="matrix(12,0,0,12,658.1,683.8)" />
<use xlink:href="#f1_g" transform="matrix(12,0,0,12,664.5,683.8)" />
<use xlink:href="#f1_6" transform="matrix(12,0,0,12,677,683.8)" />
<use xlink:href="#f1_k" transform="matrix(12,0,0,12,690,683.8)" />
</g>
<g fill="#000000" >
<use xlink:href="#f0_6" transform="matrix(12,0,0,12,707.5,683.8)" />
<use xlink:href="#f0_d" transform="matrix(12,0,0,12,714.7,683.8)" />
<use xlink:href="#f0_9" transform="matrix(12,0,0,12,731.7,683.8)" />
<use xlink:href="#f0_a" transform="matrix(12,0,0,12,741.3,683.8)" />
<use xlink:href="#f0_a" transform="matrix(12,0,0,12,752.6,683.8)" />
<use xlink:href="#f0_6" transform="matrix(12,0,0,12,769.7,683.8)" />
<use xlink:href="#f0_7" transform="matrix(12,0,0,12,776.9,683.8)" />
<use xlink:href="#f0_a" transform="matrix(12,0,0,12,788.5,683.8)" />
<use xlink:href="#f0_9" transform="matrix(12,0,0,12,86.8,712.6)" />
<use xlink:href="#f0_6" transform="matrix(12,0,0,12,96.4,712.6)" />
<use xlink:href="#f0_8" transform="matrix(12,0,0,12,103.4,712.6)" />
<use xlink:href="#f0_6" transform="matrix(12,0,0,12,114.7,712.6)" />
<use xlink:href="#f0_k" transform="matrix(12,0,0,12,121.9,712.6)" />
<use xlink:href="#f0_9" transform="matrix(12,0,0,12,133.5,712.6)" />
<use xlink:href="#f0_d" transform="matrix(12,0,0,12,148.9,712.6)" />
<use xlink:href="#f0_h" transform="matrix(12,0,0,12,160.1,712.6)" />
<use xlink:href="#f0_p" transform="matrix(12,0,0,12,172.4,712.6)" />
<use xlink:href="#f0_d" transform="matrix(12,0,0,12,183.2,712.6)" />
<use xlink:href="#f0_k" transform="matrix(12,0,0,12,194.4,712.6)" />
<use xlink:href="#f0_g" transform="matrix(12,0,0,12,206,712.6)" />
<use xlink:href="#f0_8" transform="matrix(12,0,0,12,219.4,712.6)" />
<use xlink:href="#f0_s" transform="matrix(12,0,0,12,230.7,712.6)" />
<use xlink:href="#f0_s" transform="matrix(12,0,0,12,242.3,712.6)" />
<use xlink:href="#f0_6" transform="matrix(12,0,0,12,259.8,712.6)" />
<use xlink:href="#f0_7" transform="matrix(12,0,0,12,266.9,712.6)" />
<use xlink:href="#f0_g" transform="matrix(12,0,0,12,278.5,712.6)" />
<use xlink:href="#f0_d" transform="matrix(12,0,0,12,285.7,712.6)" />
<use xlink:href="#f0_k" transform="matrix(12,0,0,12,296.9,712.6)" />
<use xlink:href="#f0_q" transform="matrix(12,0,0,12,308.5,712.6)" />
<use xlink:href="#f0_7" transform="matrix(12,0,0,12,320.1,712.6)" />
<use xlink:href="#f0_d" transform="matrix(12,0,0,12,331.8,712.6)" />
<use xlink:href="#f0_k" transform="matrix(12,0,0,12,343,712.6)" />
<use xlink:href="#f0_6" transform="matrix(12,0,0,12,354.6,712.6)" />
<use xlink:href="#f0_6" transform="matrix(12,0,0,12,367.6,712.6)" />
<use xlink:href="#f0_7" transform="matrix(12,0,0,12,374.8,712.6)" />
<use xlink:href="#f0_a" transform="matrix(12,0,0,12,386.4,712.6)" />
<use xlink:href="#f0_s" transform="matrix(12,0,0,12,403.6,712.6)" />
<use xlink:href="#f0_g" transform="matrix(12,0,0,12,415.2,712.6)" />
<use xlink:href="#f0_d" transform="matrix(12,0,0,12,422.2,712.6)" />
<use xlink:href="#f0_b" transform="matrix(12,0,0,12,433.4,712.6)" />
<use xlink:href="#f0_a" transform="matrix(12,0,0,12,443.5,712.6)" />
<use xlink:href="#f0_9" transform="matrix(12,0,0,12,454.7,712.6)" />
<use xlink:href="#f0_9" transform="matrix(12,0,0,12,464.4,712.6)" />
<use xlink:href="#f0_1e" transform="matrix(12,0,0,12,474,712.6)" />
<use xlink:href="#f0_19" transform="matrix(12,0,0,12,86.8,1102.9)" />
<use xlink:href="#f0_h" transform="matrix(12,0,0,12,92.1,1102.9)" />
<use xlink:href="#f0_p" transform="matrix(12,0,0,12,104.5,1102.9)" />
<use xlink:href="#f0_d" transform="matrix(12,0,0,12,115.3,1102.9)" />
<use xlink:href="#f0_k" transform="matrix(12,0,0,12,126.5,1102.9)" />
<use xlink:href="#f0_g" transform="matrix(12,0,0,12,138.1,1102.9)" />
<use xlink:href="#f0_8" transform="matrix(12,0,0,12,151.5,1102.9)" />
<use xlink:href="#f0_s" transform="matrix(12,0,0,12,162.8,1102.9)" />
<use xlink:href="#f0_s" transform="matrix(12,0,0,12,174.4,1102.9)" />
<use xlink:href="#f0_c" transform="matrix(12,0,0,12,191.8,1102.9)" />
<use xlink:href="#f0_9" transform="matrix(12,0,0,12,196.9,1102.9)" />
<use xlink:href="#f0_e" transform="matrix(12,0,0,12,212.3,1102.9)" />
<use xlink:href="#f0_d" transform="matrix(12,0,0,12,223.9,1102.9)" />
<use xlink:href="#f0_6" transform="matrix(12,0,0,12,235,1102.9)" />
<use xlink:href="#f0_8" transform="matrix(12,0,0,12,248.2,1102.9)" />
<use xlink:href="#f0_s" transform="matrix(12,0,0,12,259.5,1102.9)" />
<use xlink:href="#f0_s" transform="matrix(12,0,0,12,271.1,1102.9)" />
<use xlink:href="#f0_g" transform="matrix(12,0,0,12,282.7,1102.9)" />
<use xlink:href="#f0_d" transform="matrix(12,0,0,12,289.7,1102.9)" />
<use xlink:href="#f0_t" transform="matrix(12,0,0,12,300.8,1102.9)" />
<use xlink:href="#f0_a" transform="matrix(12,0,0,12,311.7,1102.9)" />
<use xlink:href="#f0_f" transform="matrix(12,0,0,12,323,1102.9)" />
<use xlink:href="#f0_4" transform="matrix(12,0,0,12,334.6,1102.9)" />
<use xlink:href="#f0_1k" transform="matrix(12,0,0,12,346.3,1102.9)" />
<use xlink:href="#f0_s" transform="matrix(12,0,0,12,358.8,1102.9)" />
<use xlink:href="#f0_s" transform="matrix(12,0,0,12,370.4,1102.9)" />
<use xlink:href="#f0_o" transform="matrix(12,0,0,12,382.1,1102.9)" />
<use xlink:href="#f0_a" transform="matrix(12,0,0,12,387.1,1102.9)" />
<use xlink:href="#f0_n" transform="matrix(12,0,0,12,404.3,1102.9)" />
<use xlink:href="#f0_c" transform="matrix(12,0,0,12,419.3,1102.9)" />
<use xlink:href="#f0_o" transform="matrix(12,0,0,12,424.4,1102.9)" />
<use xlink:href="#f0_o" transform="matrix(12,0,0,12,429.5,1102.9)" />
<use xlink:href="#f0_a" transform="matrix(12,0,0,12,440.4,1102.9)" />
<use xlink:href="#f0_u" transform="matrix(12,0,0,12,451.7,1102.9)" />
<use xlink:href="#f0_8" transform="matrix(12,0,0,12,469.4,1102.9)" />
<use xlink:href="#f0_c" transform="matrix(12,0,0,12,480.7,1102.9)" />
<use xlink:href="#f0_o" transform="matrix(12,0,0,12,485.9,1102.9)" />
<use xlink:href="#f0_p" transform="matrix(12,0,0,12,496.7,1102.9)" />
<use xlink:href="#f0_d" transform="matrix(12,0,0,12,507.6,1102.9)" />
<use xlink:href="#f0_k" transform="matrix(12,0,0,12,518.7,1102.9)" />
<use xlink:href="#f0_n" transform="matrix(12,0,0,12,536.3,1102.9)" />
<use xlink:href="#f0_c" transform="matrix(12,0,0,12,551.3,1102.9)" />
<use xlink:href="#f0_6" transform="matrix(12,0,0,12,556.3,1102.9)" />
<use xlink:href="#f0_7" transform="matrix(12,0,0,12,563.5,1102.9)" />
<use xlink:href="#f0_u" transform="matrix(12,0,0,12,581,1102.9)" />
<use xlink:href="#f0_d" transform="matrix(12,0,0,12,598.9,1102.9)" />
<use xlink:href="#f0_g" transform="matrix(12,0,0,12,610,1102.9)" />
<use xlink:href="#f0_a" transform="matrix(12,0,0,12,617.1,1102.9)" />
<use xlink:href="#f0_c" transform="matrix(12,0,0,12,634.3,1102.9)" />
<use xlink:href="#f0_e" transform="matrix(12,0,0,12,639.4,1102.9)" />
<use xlink:href="#f0_h" transform="matrix(12,0,0,12,651,1102.9)" />
<use xlink:href="#f0_d" transform="matrix(12,0,0,12,657.4,1102.9)" />
<use xlink:href="#f0_g" transform="matrix(12,0,0,12,668.7,1102.9)" />
<use xlink:href="#f0_u" transform="matrix(12,0,0,12,675.9,1102.9)" />
<use xlink:href="#f0_8" transform="matrix(12,0,0,12,693.7,1102.9)" />
<use xlink:href="#f0_6" transform="matrix(12,0,0,12,705,1102.9)" />
<use xlink:href="#f0_c" transform="matrix(12,0,0,12,712.2,1102.9)" />
<use xlink:href="#f0_d" transform="matrix(12,0,0,12,717.2,1102.9)" />
<use xlink:href="#f0_e" transform="matrix(12,0,0,12,728.4,1102.9)" />
<use xlink:href="#f0_l" transform="matrix(12,0,0,12,740,1102.9)" />
<use xlink:href="#f0_w" transform="matrix(12,0,0,12,751.7,1102.9)" />
<use xlink:href="#f0_7" transform="matrix(12,0,0,12,762.9,1102.9)" />
<use xlink:href="#f0_a" transform="matrix(12,0,0,12,774.5,1102.9)" />
<use xlink:href="#f0_p" transform="matrix(12,0,0,12,785.8,1102.9)" />
<use xlink:href="#f0_7" transform="matrix(12,0,0,12,86.8,1131.6)" />
<use xlink:href="#f0_8" transform="matrix(12,0,0,12,98.4,1131.6)" />
<use xlink:href="#f0_t" transform="matrix(12,0,0,12,109.7,1131.6)" />
<use xlink:href="#f0_a" transform="matrix(12,0,0,12,120.5,1131.6)" />
<use xlink:href="#f0_q" transform="matrix(12,0,0,12,137.6,1131.6)" />
<use xlink:href="#f0_d" transform="matrix(12,0,0,12,149.2,1131.6)" />
<use xlink:href="#f0_6" transform="matrix(12,0,0,12,160.4,1131.6)" />
<use xlink:href="#f0_6" transform="matrix(12,0,0,12,167.6,1131.6)" />
<use xlink:href="#f0_a" transform="matrix(12,0,0,12,174.7,1131.6)" />
<use xlink:href="#f0_e" transform="matrix(12,0,0,12,186,1131.6)" />
<use xlink:href="#f0_s" transform="matrix(12,0,0,12,203.6,1131.6)" />
<use xlink:href="#f0_g" transform="matrix(12,0,0,12,215.2,1131.6)" />
<use xlink:href="#f0_a" transform="matrix(12,0,0,12,222.2,1131.6)" />
<use xlink:href="#f0_6" transform="matrix(12,0,0,12,233.5,1131.6)" />
<use xlink:href="#f0_6" transform="matrix(12,0,0,12,240.7,1131.6)" />
<use xlink:href="#f0_p" transform="matrix(12,0,0,12,247.9,1131.6)" />
<use xlink:href="#f0_q" transform="matrix(12,0,0,12,264.7,1131.6)" />
<use xlink:href="#f0_d" transform="matrix(12,0,0,12,276.3,1131.6)" />
<use xlink:href="#f0_d" transform="matrix(12,0,0,12,287.4,1131.6)" />
<use xlink:href="#f0_f" transform="matrix(12,0,0,12,298.6,1131.6)" />
<use xlink:href="#f0_8" transform="matrix(12,0,0,12,316.1,1131.6)" />
<use xlink:href="#f0_6" transform="matrix(12,0,0,12,327.4,1131.6)" />
<use xlink:href="#f0_x" transform="matrix(12,0,0,12,340.4,1131.6)" />
<use xlink:href="#f0_a" transform="matrix(12,0,0,12,352,1131.6)" />
<use xlink:href="#f0_c" transform="matrix(12,0,0,12,363.3,1131.6)" />
<use xlink:href="#f0_e" transform="matrix(12,0,0,12,368.4,1131.6)" />
<use xlink:href="#f0_q" transform="matrix(12,0,0,12,380,1131.6)" />
<use xlink:href="#f0_9" transform="matrix(12,0,0,12,397.5,1131.6)" />
<use xlink:href="#f0_s" transform="matrix(12,0,0,12,407,1131.6)" />
<use xlink:href="#f0_a" transform="matrix(12,0,0,12,418.6,1131.6)" />
<use xlink:href="#f0_b" transform="matrix(12,0,0,12,429.9,1131.6)" />
<use xlink:href="#f0_c" transform="matrix(12,0,0,12,440,1131.6)" />
<use xlink:href="#f0_h" transform="matrix(12,0,0,12,445,1131.6)" />
<use xlink:href="#f0_c" transform="matrix(12,0,0,12,451.4,1131.6)" />
<use xlink:href="#f0_b" transform="matrix(12,0,0,12,456.5,1131.6)" />
<use xlink:href="#f0_8" transform="matrix(12,0,0,12,472.5,1131.6)" />
<use xlink:href="#f0_6" transform="matrix(12,0,0,12,483.8,1131.6)" />
<use xlink:href="#f0_n" transform="matrix(12,0,0,12,496.8,1131.6)" />
<use xlink:href="#f0_7" transform="matrix(12,0,0,12,511.8,1131.6)" />
<use xlink:href="#f0_8" transform="matrix(12,0,0,12,523.4,1131.6)" />
<use xlink:href="#f0_6" transform="matrix(12,0,0,12,534.7,1131.6)" />
<use xlink:href="#f0_6" transform="matrix(12,0,0,12,547.7,1131.6)" />
<use xlink:href="#f0_7" transform="matrix(12,0,0,12,554.8,1131.6)" />
<use xlink:href="#f0_a" transform="matrix(12,0,0,12,566.5,1131.6)" />
<use xlink:href="#f0_a" transform="matrix(12,0,0,12,583.6,1131.6)" />
<use xlink:href="#f0_1h" transform="matrix(12,0,0,12,594.6,1131.6)" />
<use xlink:href="#f0_8" transform="matrix(12,0,0,12,605.2,1131.6)" />
<use xlink:href="#f0_b" transform="matrix(12,0,0,12,616.5,1131.6)" />
<use xlink:href="#f0_6" transform="matrix(12,0,0,12,626.6,1131.6)" />
<use xlink:href="#f0_s" transform="matrix(12,0,0,12,639.7,1131.6)" />
<use xlink:href="#f0_g" transform="matrix(12,0,0,12,651.3,1131.6)" />
<use xlink:href="#f0_d" transform="matrix(12,0,0,12,658.4,1131.6)" />
<use xlink:href="#f0_x" transform="matrix(12,0,0,12,669.5,1131.6)" />
<use xlink:href="#f0_o" transform="matrix(12,0,0,12,681.3,1131.6)" />
<use xlink:href="#f0_a" transform="matrix(12,0,0,12,686.3,1131.6)" />
<use xlink:href="#f0_u" transform="matrix(12,0,0,12,697.6,1131.6)" />
<use xlink:href="#f0_c" transform="matrix(12,0,0,12,721.3,1131.6)" />
<use xlink:href="#f0_9" transform="matrix(12,0,0,12,726.3,1131.6)" />
<use xlink:href="#f0_8" transform="matrix(12,0,0,12,741.7,1131.6)" />
<use xlink:href="#f0_e" transform="matrix(12,0,0,12,753,1131.6)" />
<use xlink:href="#f0_f" transform="matrix(12,0,0,12,764.6,1131.6)" />
<use xlink:href="#f0_7" transform="matrix(12,0,0,12,782,1131.6)" />
<use xlink:href="#f0_d" transform="matrix(12,0,0,12,793.6,1131.6)" />
<use xlink:href="#f0_n" transform="matrix(12,0,0,12,804.8,1131.6)" />
<use xlink:href="#f0_p" transform="matrix(12,0,0,12,86.8,1160.2)" />
<use xlink:href="#f0_d" transform="matrix(12,0,0,12,97.6,1160.2)" />
<use xlink:href="#f0_k" transform="matrix(12,0,0,12,108.8,1160.2)" />
<use xlink:href="#f0_b" transform="matrix(12,0,0,12,126.3,1160.2)" />
<use xlink:href="#f0_8" transform="matrix(12,0,0,12,136.3,1160.2)" />
<use xlink:href="#f0_e" transform="matrix(12,0,0,12,147.6,1160.2)" />
<use xlink:href="#f0_h" transform="matrix(12,0,0,12,165.1,1160.2)" />
<use xlink:href="#f0_c" transform="matrix(12,0,0,12,171.5,1160.2)" />
<use xlink:href="#f0_1h" transform="matrix(12,0,0,12,176.6,1160.2)" />
<use xlink:href="#f0_c" transform="matrix(12,0,0,12,193.2,1160.2)" />
<use xlink:href="#f0_6" transform="matrix(12,0,0,12,198.3,1160.2)" />
<use xlink:href="#f0_4" transform="matrix(12,0,0,12,205.6,1160.2)" />
<use xlink:href="#f0_h" transform="matrix(12,0,0,12,217.2,1160.2)" />
<use xlink:href="#f0_d" transform="matrix(12,0,0,12,223.6,1160.2)" />
<use xlink:href="#f0_g" transform="matrix(12,0,0,12,234.9,1160.2)" />
<use xlink:href="#f0_6" transform="matrix(12,0,0,12,248.2,1160.2)" />
<use xlink:href="#f0_7" transform="matrix(12,0,0,12,255.4,1160.2)" />
<use xlink:href="#f0_a" transform="matrix(12,0,0,12,267,1160.2)" />
<use xlink:href="#f0_u" transform="matrix(12,0,0,12,284.2,1160.2)" />
<use xlink:href="#f0_d" transform="matrix(12,0,0,12,302.1,1160.2)" />
<use xlink:href="#f0_9" transform="matrix(12,0,0,12,313.1,1160.2)" />
<use xlink:href="#f0_6" transform="matrix(12,0,0,12,322.7,1160.2)" />
<use xlink:href="#f0_s" transform="matrix(12,0,0,12,335.8,1160.2)" />
<use xlink:href="#f0_8" transform="matrix(12,0,0,12,347.3,1160.2)" />
<use xlink:href="#f0_g" transform="matrix(12,0,0,12,358.6,1160.2)" />
<use xlink:href="#f0_6" transform="matrix(12,0,0,12,366,1160.2)" />
<use xlink:href="#f0_l" transform="matrix(12,0,0,12,373.2,1160.2)" />
<use xlink:href="#f0_19" transform="matrix(12,0,0,12,385,1160.2)" />
<use xlink:href="#f0_h" transform="matrix(12,0,0,12,390.3,1160.2)" />
<use xlink:href="#f0_6" transform="matrix(12,0,0,12,402.7,1160.2)" />
<use xlink:href="#f0_7" transform="matrix(12,0,0,12,409.9,1160.2)" />
<use xlink:href="#f0_c" transform="matrix(12,0,0,12,421.5,1160.2)" />
<use xlink:href="#f0_9" transform="matrix(12,0,0,12,426.5,1160.2)" />
<use xlink:href="#f0_7" transform="matrix(12,0,0,12,441.9,1160.2)" />
<use xlink:href="#f0_8" transform="matrix(12,0,0,12,453.6,1160.2)" />
<use xlink:href="#f0_s" transform="matrix(12,0,0,12,464.8,1160.2)" />
<use xlink:href="#f0_s" transform="matrix(12,0,0,12,476.5,1160.2)" />
<use xlink:href="#f0_a" transform="matrix(12,0,0,12,488.1,1160.2)" />
<use xlink:href="#f0_e" transform="matrix(12,0,0,12,499.4,1160.2)" />
<use xlink:href="#f0_9" transform="matrix(12,0,0,12,510.8,1160.2)" />
<use xlink:href="#f0_4" transform="matrix(12,0,0,12,520.4,1160.2)" />
<use xlink:href="#f0_c" transform="matrix(12,0,0,12,532.2,1160.2)" />
<use xlink:href="#f0_6" transform="matrix(12,0,0,12,537.2,1160.2)" />
<use xlink:href="#f0_r" transform="matrix(12,0,0,12,544.4,1160.2)" />
<use xlink:href="#f0_9" transform="matrix(12,0,0,12,550.2,1160.2)" />
<use xlink:href="#f0_e" transform="matrix(12,0,0,12,565.6,1160.2)" />
<use xlink:href="#f0_d" transform="matrix(12,0,0,12,577.2,1160.2)" />
<use xlink:href="#f0_x" transform="matrix(12,0,0,12,594.3,1160.2)" />
<use xlink:href="#f0_c" transform="matrix(12,0,0,12,605.9,1160.2)" />
<use xlink:href="#f0_q" transform="matrix(12,0,0,12,611,1160.2)" />
<use xlink:href="#f0_f" transform="matrix(12,0,0,12,628.4,1160.2)" />
<use xlink:href="#f0_a" transform="matrix(12,0,0,12,640,1160.2)" />
<use xlink:href="#f0_8" transform="matrix(12,0,0,12,651.3,1160.2)" />
<use xlink:href="#f0_o" transform="matrix(12,0,0,12,662.6,1160.2)" />
<use xlink:href="#f0_23" transform="matrix(12,0,0,12,673.4,1160.2)" />
<use xlink:href="#f0_y" transform="matrix(12,0,0,12,688.5,1160.2)" />
<use xlink:href="#f0_k" transform="matrix(12,0,0,12,693.6,1160.2)" />
<use xlink:href="#f0_9" transform="matrix(12,0,0,12,705.2,1160.2)" />
<use xlink:href="#f0_6" transform="matrix(12,0,0,12,714.8,1160.2)" />
<use xlink:href="#f0_h" transform="matrix(12,0,0,12,727.8,1160.2)" />
<use xlink:href="#f0_c" transform="matrix(12,0,0,12,734.2,1160.2)" />
<use xlink:href="#f0_1h" transform="matrix(12,0,0,12,739.2,1160.2)" />
<use xlink:href="#f0_6" transform="matrix(12,0,0,12,756,1160.2)" />
<use xlink:href="#f0_7" transform="matrix(12,0,0,12,763.2,1160.2)" />
<use xlink:href="#f0_a" transform="matrix(12,0,0,12,774.8,1160.2)" />
<use xlink:href="#f0_s" transform="matrix(12,0,0,12,86.8,1188.9)" />
<use xlink:href="#f0_g" transform="matrix(12,0,0,12,98.5,1188.9)" />
<use xlink:href="#f0_d" transform="matrix(12,0,0,12,105.6,1188.9)" />
<use xlink:href="#f0_x" transform="matrix(12,0,0,12,116.7,1188.9)" />
<use xlink:href="#f0_o" transform="matrix(12,0,0,12,128.4,1188.9)" />
<use xlink:href="#f0_a" transform="matrix(12,0,0,12,133.5,1188.9)" />
<use xlink:href="#f0_u" transform="matrix(12,0,0,12,144.8,1188.9)" />
<use xlink:href="#f0_8" transform="matrix(12,0,0,12,168.5,1188.9)" />
<use xlink:href="#f0_e" transform="matrix(12,0,0,12,179.7,1188.9)" />
<use xlink:href="#f0_f" transform="matrix(12,0,0,12,191.4,1188.9)" />
<use xlink:href="#f0_g" transform="matrix(12,0,0,12,208.8,1188.9)" />
<use xlink:href="#f0_a" transform="matrix(12,0,0,12,215.8,1188.9)" />
<use xlink:href="#f0_j" transform="matrix(12,0,0,12,227.1,1188.9)" />
<use xlink:href="#f0_9" transform="matrix(12,0,0,12,233.8,1188.9)" />
<use xlink:href="#f0_k" transform="matrix(12,0,0,12,243.3,1188.9)" />
<use xlink:href="#f0_x" transform="matrix(12,0,0,12,254.9,1188.9)" />
<use xlink:href="#f0_u" transform="matrix(12,0,0,12,266.5,1188.9)" />
<use xlink:href="#f0_c" transform="matrix(12,0,0,12,284.3,1188.9)" />
<use xlink:href="#f0_6" transform="matrix(12,0,0,12,289.4,1188.9)" />
<use xlink:href="#f0_l" transform="matrix(12,0,0,12,296.6,1188.9)" />
</g>
</g>
<image preserveAspectRatio="none" x="312" y="87" width="286" height="368" xlink:href="img/1.png" />
<image preserveAspectRatio="none" x="87" y="717" width="736" height="341" xlink:href="img/2.png" />
<defs>
<path d="M727,411L522,965L318,411ZM12,0L437,1114H608L1033,0H876L774,286H272L171,0Z" 
id="f0_1k"
transform="scale(0.001,-0.001)" />

<path d="M144,0V1161H281V0Z" 
id="f0_o"
transform="scale(0.001,-0.001)" />

<path d="M121,-317v116h81c0,0,57,0,88,26c0,0,31,27,69,127l25,62L46,836H191L453,182L714,836H859L492,-76c0,0,-58,-150,-113,-195c0,0,-55,-46,-148,-46Z" 
id="f0_p"
transform="scale(0.001,-0.001)" />

<path d="M467,95c0,0,110,0,174,86c0,0,64,87,64,236c0,0,0,148,-64,235c0,0,-64,87,-174,87c0,0,-110,0,-174,-86c0,0,-64,-86,-64,-236c0,0,0,-150,64,-236c0,0,63,-86,174,-86Zm0,-115c0,0,-179,0,-281,115C186,95,84,212,84,417c0,0,0,206,102,322c0,0,102,117,281,117c0,0,179,0,282,-117c0,0,102,-116,102,-322c0,0,0,-205,-102,-322C749,95,646,-20,467,-20Z" 
id="f0_d"
transform="scale(0.001,-0.001)" />

<path d="M424,-20c0,0,-145,0,-219,88c0,0,-75,89,-75,262V836H267V335c0,0,0,-119,46,-178c0,0,47,-59,139,-59c0,0,112,0,177,71c0,0,64,71,64,193V836H830V0H693V128C693,128,643,52,577,15c0,0,-66,-35,-153,-35Z" 
id="f0_k"
transform="scale(0.001,-0.001)" />

<path d="M139,0V1161H277V706c0,0,49,75,116,112c0,0,67,38,154,38c0,0,144,0,218,-90c0,0,74,-89,74,-262V0H702V500c0,0,0,119,-46,177c0,0,-47,59,-139,59c0,0,-112,0,-176,-71c0,0,-64,-70,-64,-193V0Z" 
id="f0_7"
transform="scale(0.001,-0.001)" />

<path d="M408,93c0,0,115,0,184,81c0,0,69,81,69,215v30H524c0,0,-167,0,-231,-38c0,0,-64,-38,-64,-129c0,0,0,-73,48,-116c0,0,48,-43,131,-43ZM372,-20c0,0,-128,0,-204,70c0,0,-76,72,-76,193c0,0,0,141,94,212c0,0,95,72,282,72H661v13c0,0,0,95,-62,147c0,0,-63,52,-175,52c0,0,-72,0,-140,-17c0,0,-68,-17,-130,-51V798c0,0,75,29,146,43c0,0,71,15,138,15c0,0,181,0,270,-95c0,0,90,-94,90,-285V0H661V127C661,127,614,51,544,15c0,0,-70,-35,-172,-35Z" 
id="f0_8"
transform="scale(0.001,-0.001)" />

<path d="M359,0L46,836H191L453,134L714,836H859L546,0Z" 
id="f0_t"
transform="scale(0.001,-0.001)" />

<path d="M231,492l491,1c0,0,-2,112,-64,179c0,0,-61,67,-163,67c0,0,-115,0,-184,-65c0,0,-69,-64,-80,-182ZM517,-20c0,0,-199,0,-316,115C201,95,84,211,84,410c0,0,0,205,111,325c0,0,111,121,299,121c0,0,168,0,266,-109c0,0,98,-108,98,-295V385H227c0,0,9,-142,85,-216c0,0,77,-74,213,-74c0,0,80,0,154,19c0,0,74,19,147,58V42C826,42,752,11,675,-4c0,0,-78,-16,-158,-16Z" 
id="f0_a"
transform="scale(0.001,-0.001)" />

<path d="M421,0C421,0,263,0,202,59c0,0,-60,60,-60,217V729H41V836H142v238H280V836H562V729H280V276c0,0,0,-102,28,-132c0,0,28,-29,113,-29H562V0Z" 
id="f0_6"
transform="scale(0.001,-0.001)" />

<path d="M460,93c0,0,109,0,171,86c0,0,63,86,63,238c0,0,0,151,-63,237c0,0,-62,86,-171,86c0,0,-109,0,-172,-86c0,0,-62,-86,-62,-237c0,0,0,-152,62,-238c0,0,63,-86,172,-86ZM426,-20c0,0,-151,0,-247,119c0,0,-95,121,-95,318c0,0,0,197,95,318c0,0,96,121,247,121c0,0,93,0,159,-37c0,0,66,-36,109,-110v452H831V0H694V125C694,125,651,51,585,15c0,0,-66,-35,-159,-35Z" 
id="f0_f"
transform="scale(0.001,-0.001)" />

<path d="M139,0V836H277V706c0,0,49,75,116,112c0,0,67,38,154,38c0,0,144,0,218,-90c0,0,74,-89,74,-262V0H702V500c0,0,0,119,-46,177c0,0,-47,59,-139,59c0,0,-112,0,-176,-71c0,0,-64,-70,-64,-193V0Z" 
id="f0_e"
transform="scale(0.001,-0.001)" />

<path d="M283,0L65,836H202L373,184L544,836H706L878,184l171,652h137L967,0H806L626,685L445,0Z" 
id="f0_n"
transform="scale(0.001,-0.001)" />

<path d="M144,0V836H281V0Zm0,987v174H281V987Z" 
id="f0_c"
transform="scale(0.001,-0.001)" />

<path d="M376,-20c0,0,-67,0,-140,12C236,-8,164,4,83,30V172c0,0,76,-40,150,-59c0,0,74,-20,146,-20c0,0,97,0,150,33c0,0,52,33,52,94c0,0,0,56,-38,85c0,0,-38,30,-165,58l-48,11c0,0,-128,27,-184,83c0,0,-57,55,-57,152c0,0,0,118,83,182c0,0,84,65,238,65c0,0,76,0,143,-12c0,0,67,-11,124,-33V681c0,0,-58,29,-121,44c0,0,-63,15,-130,15c0,0,-102,0,-153,-31c0,0,-51,-31,-51,-94c0,0,0,-48,37,-75c0,0,36,-27,147,-52l46,-10c0,0,147,-32,208,-89c0,0,62,-57,62,-159c0,0,0,-116,-93,-184c0,0,-92,-66,-253,-66Z" 
id="f0_9"
transform="scale(0.001,-0.001)" />

<path d="M166,0V729H35V836H166v58c0,0,0,139,65,203c0,0,65,64,206,64H567V1046H435c0,0,-74,0,-102,-29c0,0,-29,-30,-29,-107V836H530V729H304V0Z" 
id="f0_h"
transform="scale(0.001,-0.001)" />

<path d="M139,0V836H277V706c0,0,43,76,112,113c0,0,70,37,169,37c0,0,14,0,31,-2c0,0,17,-2,38,-6l1,-141c0,0,-23,14,-51,20c0,0,-27,6,-60,6c0,0,-116,0,-178,-75c0,0,-62,-76,-62,-218V0Z" 
id="f0_g"
transform="scale(0.001,-0.001)" />

<path d="M510,93c0,0,109,0,171,86c0,0,62,86,62,238c0,0,0,151,-62,237c0,0,-62,86,-171,86c0,0,-109,0,-171,-86c0,0,-62,-86,-62,-237c0,0,0,-152,62,-238c0,0,62,-86,171,-86ZM139,-317V836H277V709c0,0,43,74,109,110c0,0,66,37,158,37c0,0,152,0,247,-121c0,0,95,-121,95,-318c0,0,0,-197,-95,-318C791,99,696,-20,544,-20c0,0,-92,0,-158,35c0,0,-66,36,-109,110V-317Z" 
id="f0_s"
transform="scale(0.001,-0.001)" />

<path d="M510,93c0,0,109,0,171,86c0,0,62,86,62,238c0,0,0,151,-62,237c0,0,-62,86,-171,86c0,0,-109,0,-171,-86c0,0,-62,-86,-62,-237c0,0,0,-152,62,-238c0,0,62,-86,171,-86ZM544,-20c0,0,-92,0,-158,35c0,0,-66,36,-109,110V0H139V1161H277V709c0,0,43,74,109,110c0,0,66,37,158,37c0,0,152,0,247,-121c0,0,95,-121,95,-318c0,0,0,-197,-95,-318C791,99,696,-20,544,-20Z" 
id="f0_x"
transform="scale(0.001,-0.001)" />

<path d="M231,0V190H382V0Zm15,359L231,625v489H382V625L367,359Z" 
id="f0_1q"
transform="scale(0.001,-0.001)" />

<path d="M391,0V530L-2,1114H159L468,656l307,458H937L543,530V0Z" 
id="f0_1r"
transform="scale(0.001,-0.001)" />

<path d="M495,-20c0,0,-189,0,-300,117C195,97,84,216,84,417c0,0,0,204,112,321c0,0,113,118,308,118c0,0,64,0,124,-14c0,0,60,-13,117,-39V675c0,0,-58,32,-117,48c0,0,-58,16,-118,16c0,0,-133,0,-207,-84c0,0,-74,-85,-74,-238c0,0,0,-153,74,-238c0,0,74,-84,207,-84c0,0,60,0,118,16c0,0,59,16,117,48V32C745,32,688,5,626,-7c0,0,-61,-13,-131,-13Z" 
id="f0_b"
transform="scale(0.001,-0.001)" />

<path d="M139,0V836H277V706c0,0,47,77,112,113c0,0,66,37,156,37c0,0,91,0,155,-47c0,0,64,-46,94,-134c0,0,52,93,123,137c0,0,72,44,169,44c0,0,130,0,201,-92c0,0,71,-91,71,-260V0H1220V500c0,0,0,120,-42,178c0,0,-43,58,-130,58c0,0,-107,0,-169,-71c0,0,-62,-70,-62,-193V0H680V500c0,0,0,121,-43,179c0,0,-42,57,-131,57c0,0,-105,0,-167,-71c0,0,-62,-71,-62,-193V0Z" 
id="f0_u"
transform="scale(0.001,-0.001)" />

<path d="M460,115c0,0,111,0,173,82c0,0,61,82,61,230c0,0,0,149,-61,231c0,0,-62,82,-173,82c0,0,-111,0,-173,-82c0,0,-61,-82,-61,-231c0,0,0,-148,61,-230c0,0,62,-82,173,-82ZM446,-317c0,0,-72,0,-137,11c0,0,-64,11,-124,33v134c0,0,60,-33,119,-49c0,0,59,-15,121,-15c0,0,135,0,202,70c0,0,67,71,67,212v68C694,147,652,73,585,36C585,36,519,0,426,0C426,0,272,0,178,117c0,0,-94,117,-94,310c0,0,0,194,94,311c0,0,94,118,248,118c0,0,93,0,159,-37c0,0,67,-36,109,-110V836H831V104c0,0,0,-212,-95,-317c0,0,-94,-104,-290,-104Z" 
id="f0_q"
transform="scale(0.001,-0.001)" />

<path d="M163,0V190H321V0Z" 
id="f0_l"
transform="scale(0.001,-0.001)" />

<path d="M560,-20c0,0,-211,0,-319,110c0,0,-108,111,-108,328v696H285V437c0,0,0,-179,64,-258c0,0,65,-78,211,-78c0,0,144,0,209,78c0,0,65,79,65,258v677H986V418c0,0,0,-217,-108,-328C878,90,770,-20,560,-20Z" 
id="f0_1y"
transform="scale(0.001,-0.001)" />

<path d="M139,0V1161H277V475L686,836H861L418,445L880,0H701L277,408V0Z" 
id="f0_i"
transform="scale(0.001,-0.001)" />

<path d="M130,747V876l123,238h96L287,876V747Zm306,0V876l123,238h96L594,876V747Z" 
id="f0_1b"
transform="scale(0.001,-0.001)" />

<path d="M150,0V1114H300V0Z" 
id="f0_19"
transform="scale(0.001,-0.001)" />

<path d="M489,595c0,0,109,0,164,50c0,0,56,50,56,148c0,0,0,97,-56,147c0,0,-55,50,-164,50H300V595ZM150,0V1114H489c0,0,191,0,285,-80c0,0,94,-80,94,-241c0,0,0,-105,-49,-175c0,0,-49,-69,-142,-96c0,0,48,-16,94,-70c0,0,46,-54,93,-148L1017,0H855L712,285c0,0,-55,112,-107,149c0,0,-52,36,-141,36H300V0Z" 
id="f0_1i"
transform="scale(0.001,-0.001)" />

<path d="M117,-176L179,62V190H336V62L213,-176Z" 
id="f0_4"
transform="scale(0.001,-0.001)" />

<path d="M129,747l62,239v128H348V986L225,747Zm306,0l62,239v128H654V986L531,747Z" 
id="f0_1c"
transform="scale(0.001,-0.001)" />

<path d="M132,763l62,237v114H351V1000L228,763Z" 
id="f0_r"
transform="scale(0.001,-0.001)" />

<path d="M489,572c0,0,105,0,163,54c0,0,57,55,57,155c0,0,0,100,-57,154c0,0,-58,55,-163,55H300V572ZM150,0V1114H489c0,0,188,0,283,-85c0,0,96,-85,96,-248c0,0,0,-165,-96,-249c0,0,-95,-84,-283,-84H300V0Z" 
id="f0_1g"
transform="scale(0.001,-0.001)" />

<path d="M458,-20c0,0,-79,0,-168,17c0,0,-89,17,-184,52V204c0,0,91,-51,179,-77c0,0,88,-26,173,-26c0,0,129,0,199,50c0,0,70,51,70,145c0,0,0,82,-50,129c0,0,-50,46,-165,69l-92,18c0,0,-169,34,-244,105c0,0,-75,72,-75,199c0,0,0,148,104,233c0,0,104,85,287,85c0,0,78,0,159,-14c0,0,81,-14,166,-42V931c0,0,-85,41,-161,61c0,0,-76,20,-147,20c0,0,-123,0,-190,-48c0,0,-67,-48,-67,-136c0,0,0,-73,45,-111c0,0,44,-38,168,-61l91,-19c0,0,168,-32,249,-113c0,0,80,-81,80,-216c0,0,0,-162,-109,-246c0,0,-108,-82,-318,-82Z" 
id="f0_18"
transform="scale(0.001,-0.001)" />

<path d="M391,0V987H-3v127H938V987H543V0Z" 
id="f0_w"
transform="scale(0.001,-0.001)" />

<path d="M630,-20c0,0,-253,0,-398,153C232,133,86,288,86,556c0,0,0,269,146,423c0,0,145,155,398,155c0,0,100,0,189,-26c0,0,88,-27,166,-79V869c0,0,-76,71,-163,106c0,0,-86,35,-183,35c0,0,-191,0,-292,-117C347,893,245,777,245,556c0,0,0,-220,102,-337c0,0,101,-116,292,-116c0,0,97,0,183,35c0,0,87,35,163,105V86C985,86,906,32,817,5c0,0,-88,-25,-187,-25Z" 
id="f0_1f"
transform="scale(0.001,-0.001)" />

<path d="M744,410L592,853L439,410ZM8,0L420,1114H763L1175,0H887L816,203H367L297,0Z" 
id="f1_n"
transform="scale(0.001,-0.001)" />

<path d="M547,-20c0,0,-226,0,-354,114C193,94,66,210,66,417c0,0,0,207,127,323c0,0,128,116,354,116c0,0,66,0,129,-12c0,0,64,-11,128,-34V592c0,0,-55,37,-110,55c0,0,-54,18,-113,18c0,0,-112,0,-175,-65c0,0,-62,-66,-62,-183c0,0,0,-117,62,-183c0,0,63,-65,175,-65c0,0,62,0,119,19c0,0,56,19,104,55V24C804,24,741,1,676,-9c0,0,-64,-11,-129,-11Z" 
id="f1_f"
transform="scale(0.001,-0.001)" />

<path d="M443,0C443,0,285,0,219,66c0,0,-66,66,-66,224V645H20V836H153v237H419V836H695V645H419V290c0,0,0,-58,24,-79c0,0,23,-20,91,-20H672V0Z" 
id="f1_4"
transform="scale(0.001,-0.001)" />

<path d="M128,0V836H395V0Zm0,944v217H395V944Z" 
id="f1_5"
transform="scale(0.001,-0.001)" />

<path d="M352,0L23,836H291L499,258L706,836H974L645,0Z" 
id="f1_x"
transform="scale(0.001,-0.001)" />

<path d="M153,-328v175h83c0,0,68,0,99,21c0,0,31,22,48,78l8,23L19,836H286L510,269L701,836H968L617,-78c0,0,-53,-139,-124,-195c0,0,-70,-55,-186,-55Z" 
id="f1_y"
transform="scale(0.001,-0.001)" />

<path d="M573,172c0,0,86,0,131,63c0,0,45,63,45,182c0,0,0,119,-45,182c0,0,-45,63,-131,63c0,0,-86,0,-132,-63c0,0,-46,-63,-46,-182c0,0,0,-119,46,-182c0,0,46,-63,132,-63ZM128,-317V836H395V713c0,0,55,73,122,108c0,0,68,35,155,35c0,0,154,0,253,-123c0,0,100,-123,100,-316c0,0,0,-193,-100,-316c0,0,-99,-121,-253,-121c0,0,-87,0,-155,33c0,0,-67,35,-122,108V-317Z" 
id="f1_q"
transform="scale(0.001,-0.001)" />

<path d="M545,-20c0,0,-106,0,-212,20C333,0,226,19,119,58V301c0,0,107,-57,207,-85c0,0,99,-29,192,-29c0,0,94,0,144,31c0,0,50,31,50,90c0,0,0,52,-34,80c0,0,-34,29,-136,51L431,464c0,0,-167,35,-244,114c0,0,-77,78,-77,211c0,0,0,166,107,256c0,0,107,89,309,89c0,0,92,0,189,-14c0,0,97,-13,200,-41V843c0,0,-92,41,-179,62c0,0,-87,21,-165,21c0,0,-103,0,-152,-28c0,0,-49,-29,-49,-88c0,0,0,-45,33,-70c0,0,33,-25,121,-43L646,672c0,0,186,-37,264,-113c0,0,79,-76,79,-216c0,0,0,-185,-110,-275c0,0,-109,-88,-334,-88Z" 
id="f1_9"
transform="scale(0.001,-0.001)" />

<path d="M526,169c0,0,87,0,133,64c0,0,46,64,46,184c0,0,0,120,-46,184c0,0,-46,64,-133,64c0,0,-89,0,-135,-64c0,0,-47,-64,-47,-184c0,0,0,-120,47,-184c0,0,46,-64,135,-64Zm0,-189c0,0,-217,0,-339,115C187,95,66,211,66,417c0,0,0,206,121,322c0,0,122,117,339,117c0,0,215,0,336,-117c0,0,122,-116,122,-322c0,0,0,-206,-122,-322C862,95,741,-20,526,-20Z" 
id="f1_g"
transform="scale(0.001,-0.001)" />

<path d="M128,0V836H395V698c0,0,52,82,118,120c0,0,67,38,161,38c0,0,13,0,29,-2c0,0,15,-1,45,-4l1,-242c0,0,-35,17,-70,25c0,0,-35,7,-70,7c0,0,-103,0,-158,-66c0,0,-56,-66,-56,-189V0Z" 
id="f1_b"
transform="scale(0.001,-0.001)" />

<path d="M687,509c0,0,0,76,-44,122c0,0,-44,47,-116,47c0,0,-78,0,-126,-44c0,0,-49,-43,-61,-125ZM544,-20c0,0,-227,0,-353,114C191,94,66,209,66,417c0,0,0,204,123,321c0,0,123,118,340,118c0,0,197,0,315,-119c0,0,118,-118,118,-317V344H337c0,0,10,-94,68,-141c0,0,59,-47,163,-47c0,0,85,0,173,25c0,0,89,25,182,76V51C923,51,828,15,733,-2c0,0,-94,-18,-189,-18Z" 
id="f1_3"
transform="scale(0.001,-0.001)" />

<path d="M420,0L8,1114H297L592,292l295,822h288L763,0Z" 
id="f1_u"
transform="scale(0.001,-0.001)" />

<path d="M445,-20c0,0,-83,0,-171,12C274,-8,185,4,92,30V234c0,0,80,-39,164,-58c0,0,84,-20,170,-20c0,0,79,0,118,22c0,0,40,22,40,64c0,0,0,36,-28,53c0,0,-27,18,-108,27l-47,6c0,0,-179,23,-250,83c0,0,-72,61,-72,184c0,0,0,132,91,196c0,0,91,65,279,65c0,0,74,0,155,-12c0,0,82,-11,177,-34V606c0,0,-86,36,-165,54c0,0,-80,18,-151,18c0,0,-76,0,-113,-19c0,0,-37,-19,-37,-59c0,0,0,-32,28,-49c0,0,28,-17,100,-25l47,-7c0,0,205,-26,276,-86c0,0,71,-59,71,-187c0,0,0,-133,-98,-200c0,0,-99,-66,-294,-66Z" 
id="f1_k"
transform="scale(0.001,-0.001)" />

<path d="M128,0V836H395V713c0,0,60,73,128,108c0,0,68,35,150,35c0,0,145,0,220,-89c0,0,75,-89,75,-258V0H699V389c0,0,0,109,-5,150c0,0,-5,41,-16,60c0,0,-16,26,-43,41c0,0,-27,14,-61,14c0,0,-84,0,-131,-64c0,0,-48,-65,-48,-179V0Z" 
id="f1_6"
transform="scale(0.001,-0.001)" />

<path d="M179,0V190H336V0Zm0,600V790H336V600Z" 
id="f0_1e"
transform="scale(0.001,-0.001)" />

<path d="M44,0L369,437L71,836H233L455,538L677,836H839L537,429L855,0H693L449,328L206,0Z" 
id="f0_1h"
transform="scale(0.001,-0.001)" />

<path d="M74,365V472H689V365Z" 
id="f0_23"
transform="scale(0.001,-0.001)" />

<path d="M-26,-317v117H9c0,0,78,0,106,36c0,0,29,36,29,150V836H281V-14c0,0,0,-160,-61,-231c0,0,-61,-72,-195,-72ZM144,987v174H281V987Z" 
id="f0_y"
transform="scale(0.001,-0.001)" />

<path d="M74,357V479H476V357Z" 
id="f0_j"
transform="scale(0.001,-0.001)" />


</defs>
</svg>