<?xml version="1.0" encoding="UTF-8" standalone="no"?>
<!DOCTYPE svg PUBLIC "-//W3C//DTD SVG 1.1//EN"
"http://www.w3.org/Graphics/SVG/1.1/DTD/svg11.dtd">
<svg viewBox="0 0 909 1286" version="1.1" xmlns="http://www.w3.org/2000/svg" xmlns:xlink="http://www.w3.org/1999/xlink">
<defs>
<clipPath id="c0_5"><path d="M0,1286.2V.2H909.3v1286Z" /></clipPath>
</defs>
<g clip-path="url(#c0_5)">
<g fill="#000000" >
<use xlink:href="#f0_1d" transform="matrix(12,0,0,12,86.8,730.4)" />
<use xlink:href="#f0_e" transform="matrix(12,0,0,12,98.4,730.4)" />
<use xlink:href="#f0_6" transform="matrix(12,0,0,12,110,730.4)" />
<use xlink:href="#f0_a" transform="matrix(12,0,0,12,117.2,730.4)" />
<use xlink:href="#f0_g" transform="matrix(12,0,0,12,128.4,730.4)" />
<use xlink:href="#f0_c" transform="matrix(12,0,0,12,135.9,730.4)" />
<use xlink:href="#f0_e" transform="matrix(12,0,0,12,141,730.4)" />
<use xlink:href="#f0_q" transform="matrix(12,0,0,12,152.7,730.4)" />
<use xlink:href="#f0_p" transform="matrix(12,0,0,12,170.1,730.4)" />
<use xlink:href="#f0_d" transform="matrix(12,0,0,12,181,730.4)" />
<use xlink:href="#f0_k" transform="matrix(12,0,0,12,192.1,730.4)" />
<use xlink:href="#f0_g" transform="matrix(12,0,0,12,203.9,730.4)" />
<use xlink:href="#f0_b" transform="matrix(12,0,0,12,217.2,730.4)" />
<use xlink:href="#f0_g" transform="matrix(12,0,0,12,227.2,730.4)" />
<use xlink:href="#f0_a" transform="matrix(12,0,0,12,234.3,730.4)" />
<use xlink:href="#f0_f" transform="matrix(12,0,0,12,245.5,730.4)" />
<use xlink:href="#f0_a" transform="matrix(12,0,0,12,257.1,730.4)" />
<use xlink:href="#f0_e" transform="matrix(12,0,0,12,268.4,730.4)" />
<use xlink:href="#f0_6" transform="matrix(12,0,0,12,280,730.4)" />
<use xlink:href="#f0_c" transform="matrix(12,0,0,12,287.4,730.4)" />
<use xlink:href="#f0_8" transform="matrix(12,0,0,12,292.4,730.4)" />
<use xlink:href="#f0_o" transform="matrix(12,0,0,12,303.7,730.4)" />
<use xlink:href="#f0_9" transform="matrix(12,0,0,12,308.7,730.4)" />
<use xlink:href="#f0_c" transform="matrix(12,0,0,12,324.2,730.4)" />
<use xlink:href="#f0_e" transform="matrix(12,0,0,12,329.2,730.4)" />
<use xlink:href="#f0_6" transform="matrix(12,0,0,12,346.6,730.4)" />
<use xlink:href="#f0_7" transform="matrix(12,0,0,12,353.8,730.4)" />
<use xlink:href="#f0_c" transform="matrix(12,0,0,12,365.4,730.4)" />
<use xlink:href="#f0_9" transform="matrix(12,0,0,12,370.4,730.4)" />
<use xlink:href="#f0_n" transform="matrix(12,0,0,12,385.9,730.4)" />
<use xlink:href="#f0_8" transform="matrix(12,0,0,12,400.8,730.4)" />
<use xlink:href="#f0_p" transform="matrix(12,0,0,12,412.1,730.4)" />
<use xlink:href="#f0_8" transform="matrix(12,0,0,12,428.8,730.4)" />
<use xlink:href="#f0_o" transform="matrix(12,0,0,12,440.1,730.4)" />
<use xlink:href="#f0_o" transform="matrix(12,0,0,12,445.1,730.4)" />
<use xlink:href="#f0_d" transform="matrix(12,0,0,12,450.2,730.4)" />
<use xlink:href="#f0_n" transform="matrix(12,0,0,12,461.5,730.4)" />
<use xlink:href="#f0_9" transform="matrix(12,0,0,12,476.4,730.4)" />
<use xlink:href="#f0_z" transform="matrix(12,0,0,12,491.9,730.4)" />
<use xlink:href="#f0_b" transform="matrix(12,0,0,12,504.4,730.4)" />
<use xlink:href="#f0_d" transform="matrix(12,0,0,12,514.4,730.4)" />
<use xlink:href="#f0_f" transform="matrix(12,0,0,12,525.6,730.4)" />
<use xlink:href="#f0_a" transform="matrix(12,0,0,12,537.2,730.4)" />
<use xlink:href="#f0_6" transform="matrix(12,0,0,12,554.3,730.4)" />
<use xlink:href="#f0_d" transform="matrix(12,0,0,12,561.5,730.4)" />
<use xlink:href="#f0_b" transform="matrix(12,0,0,12,578.6,730.4)" />
<use xlink:href="#f0_d" transform="matrix(12,0,0,12,588.7,730.4)" />
<use xlink:href="#f0_e" transform="matrix(12,0,0,12,599.8,730.4)" />
<use xlink:href="#f0_e" transform="matrix(12,0,0,12,611.4,730.4)" />
<use xlink:href="#f0_a" transform="matrix(12,0,0,12,623,730.4)" />
<use xlink:href="#f0_b" transform="matrix(12,0,0,12,634.3,730.4)" />
<use xlink:href="#f0_6" transform="matrix(12,0,0,12,644.4,730.4)" />
<use xlink:href="#f0_8" transform="matrix(12,0,0,12,657.5,730.4)" />
<use xlink:href="#f0_k" transform="matrix(12,0,0,12,668.6,730.4)" />
<use xlink:href="#f0_6" transform="matrix(12,0,0,12,680.2,730.4)" />
<use xlink:href="#f0_d" transform="matrix(12,0,0,12,687.4,730.4)" />
<use xlink:href="#f0_u" transform="matrix(12,0,0,12,698.6,730.4)" />
<use xlink:href="#f0_8" transform="matrix(12,0,0,12,716.4,730.4)" />
<use xlink:href="#f0_6" transform="matrix(12,0,0,12,727.7,730.4)" />
<use xlink:href="#f0_c" transform="matrix(12,0,0,12,734.9,730.4)" />
<use xlink:href="#f0_b" transform="matrix(12,0,0,12,740,730.4)" />
<use xlink:href="#f0_8" transform="matrix(12,0,0,12,750,730.4)" />
<use xlink:href="#f0_o" transform="matrix(12,0,0,12,761.3,730.4)" />
<use xlink:href="#f0_o" transform="matrix(12,0,0,12,766.4,730.4)" />
<use xlink:href="#f0_p" transform="matrix(12,0,0,12,771.4,730.4)" />
<use xlink:href="#f0_6" transform="matrix(12,0,0,12,788.2,730.4)" />
<use xlink:href="#f0_d" transform="matrix(12,0,0,12,795.4,730.4)" />
<use xlink:href="#f0_6" transform="matrix(12,0,0,12,86.8,759.2)" />
<use xlink:href="#f0_7" transform="matrix(12,0,0,12,94,759.2)" />
<use xlink:href="#f0_a" transform="matrix(12,0,0,12,105.6,759.2)" />
<use xlink:href="#f0_1g" transform="matrix(12,0,0,12,122.7,759.2)" />
<use xlink:href="#f0_g" transform="matrix(12,0,0,12,133.5,759.2)" />
<use xlink:href="#f0_d" transform="matrix(12,0,0,12,140.5,759.2)" />
<use xlink:href="#f0_t" transform="matrix(12,0,0,12,151.7,759.2)" />
<use xlink:href="#f0_c" transform="matrix(12,0,0,12,162.7,759.2)" />
<use xlink:href="#f0_9" transform="matrix(12,0,0,12,167.7,759.2)" />
<use xlink:href="#f0_c" transform="matrix(12,0,0,12,177.3,759.2)" />
<use xlink:href="#f0_d" transform="matrix(12,0,0,12,182.4,759.2)" />
<use xlink:href="#f0_e" transform="matrix(12,0,0,12,193.5,759.2)" />
<use xlink:href="#f0_c" transform="matrix(12,0,0,12,205.1,759.2)" />
<use xlink:href="#f0_e" transform="matrix(12,0,0,12,210.2,759.2)" />
<use xlink:href="#f0_q" transform="matrix(12,0,0,12,221.9,759.2)" />
<use xlink:href="#f0_1g" transform="matrix(12,0,0,12,239.3,759.2)" />
<use xlink:href="#f0_d" transform="matrix(12,0,0,12,249.7,759.2)" />
<use xlink:href="#f0_g" transform="matrix(12,0,0,12,261,759.2)" />
<use xlink:href="#f0_6" transform="matrix(12,0,0,12,268.5,759.2)" />
<use xlink:href="#f0_8" transform="matrix(12,0,0,12,275.7,759.2)" />
<use xlink:href="#f0_o" transform="matrix(12,0,0,12,287,759.2)" />
<use xlink:href="#f0_d" transform="matrix(12,0,0,12,297.8,759.2)" />
<use xlink:href="#f0_e" transform="matrix(12,0,0,12,309,759.2)" />
<use xlink:href="#f0_p" transform="matrix(12,0,0,12,326.5,759.2)" />
<use xlink:href="#f0_d" transform="matrix(12,0,0,12,337.4,759.2)" />
<use xlink:href="#f0_k" transform="matrix(12,0,0,12,348.5,759.2)" />
<use xlink:href="#f0_g" transform="matrix(12,0,0,12,360.1,759.2)" />
<use xlink:href="#f0_x" transform="matrix(12,0,0,12,373.6,759.2)" />
<use xlink:href="#f0_a" transform="matrix(12,0,0,12,385.2,759.2)" />
<use xlink:href="#f0_7" transform="matrix(12,0,0,12,396.5,759.2)" />
<use xlink:href="#f0_8" transform="matrix(12,0,0,12,407.9,759.2)" />
<use xlink:href="#f0_o" transform="matrix(12,0,0,12,419.2,759.2)" />
<use xlink:href="#f0_h" transform="matrix(12,0,0,12,424.4,759.2)" />
<use xlink:href="#f0_l" transform="matrix(12,0,0,12,429.4,759.2)" />
<use xlink:href="#f0_19" transform="matrix(12,0,0,12,441.2,759.2)" />
<use xlink:href="#f0_6" transform="matrix(12,0,0,12,446.5,759.2)" />
<use xlink:href="#f0_n" transform="matrix(12,0,0,12,459.5,759.2)" />
<use xlink:href="#f0_c" transform="matrix(12,0,0,12,474.5,759.2)" />
<use xlink:href="#f0_o" transform="matrix(12,0,0,12,479.7,759.2)" />
<use xlink:href="#f0_o" transform="matrix(12,0,0,12,484.7,759.2)" />
<use xlink:href="#f0_8" transform="matrix(12,0,0,12,495.7,759.2)" />
<use xlink:href="#f0_o" transform="matrix(12,0,0,12,506.8,759.2)" />
<use xlink:href="#f0_9" transform="matrix(12,0,0,12,511.9,759.2)" />
<use xlink:href="#f0_d" transform="matrix(12,0,0,12,521.5,759.2)" />
<use xlink:href="#f0_f" transform="matrix(12,0,0,12,538.5,759.2)" />
<use xlink:href="#f0_a" transform="matrix(12,0,0,12,550.1,759.2)" />
<use xlink:href="#f0_6" transform="matrix(12,0,0,12,561.4,759.2)" />
<use xlink:href="#f0_a" transform="matrix(12,0,0,12,568.5,759.2)" />
<use xlink:href="#f0_b" transform="matrix(12,0,0,12,579.8,759.2)" />
<use xlink:href="#f0_6" transform="matrix(12,0,0,12,589.9,759.2)" />
<use xlink:href="#f0_8" transform="matrix(12,0,0,12,603,759.2)" />
<use xlink:href="#f0_e" transform="matrix(12,0,0,12,614.2,759.2)" />
<use xlink:href="#f0_p" transform="matrix(12,0,0,12,625.8,759.2)" />
<use xlink:href="#f0_b" transform="matrix(12,0,0,12,642.4,759.2)" />
<use xlink:href="#f0_d" transform="matrix(12,0,0,12,652.5,759.2)" />
<use xlink:href="#f0_e" transform="matrix(12,0,0,12,663.6,759.2)" />
<use xlink:href="#f0_e" transform="matrix(12,0,0,12,675.2,759.2)" />
<use xlink:href="#f0_a" transform="matrix(12,0,0,12,686.8,759.2)" />
<use xlink:href="#f0_b" transform="matrix(12,0,0,12,698.1,759.2)" />
<use xlink:href="#f0_6" transform="matrix(12,0,0,12,708.2,759.2)" />
<use xlink:href="#f0_a" transform="matrix(12,0,0,12,715.4,759.2)" />
<use xlink:href="#f0_f" transform="matrix(12,0,0,12,726.7,759.2)" />
<use xlink:href="#f0_f" transform="matrix(12,0,0,12,744.2,759.2)" />
<use xlink:href="#f0_a" transform="matrix(12,0,0,12,755.9,759.2)" />
<use xlink:href="#f0_t" transform="matrix(12,0,0,12,767.1,759.2)" />
<use xlink:href="#f0_c" transform="matrix(12,0,0,12,778,759.2)" />
<use xlink:href="#f0_b" transform="matrix(12,0,0,12,783,759.2)" />
<use xlink:href="#f0_a" transform="matrix(12,0,0,12,793.1,759.2)" />
<use xlink:href="#f0_8" transform="matrix(12,0,0,12,86.8,787.7)" />
<use xlink:href="#f0_e" transform="matrix(12,0,0,12,98.1,787.7)" />
<use xlink:href="#f0_f" transform="matrix(12,0,0,12,109.7,787.7)" />
<use xlink:href="#f0_8" transform="matrix(12,0,0,12,127.1,787.7)" />
<use xlink:href="#f0_k" transform="matrix(12,0,0,12,138.4,787.7)" />
<use xlink:href="#f0_6" transform="matrix(12,0,0,12,150,787.7)" />
<use xlink:href="#f0_d" transform="matrix(12,0,0,12,157.2,787.7)" />
<use xlink:href="#f0_u" transform="matrix(12,0,0,12,168.3,787.7)" />
<use xlink:href="#f0_8" transform="matrix(12,0,0,12,186.2,787.7)" />
<use xlink:href="#f0_6" transform="matrix(12,0,0,12,197.5,787.7)" />
<use xlink:href="#f0_c" transform="matrix(12,0,0,12,204.7,787.7)" />
<use xlink:href="#f0_b" transform="matrix(12,0,0,12,209.7,787.7)" />
<use xlink:href="#f0_8" transform="matrix(12,0,0,12,219.8,787.7)" />
<use xlink:href="#f0_o" transform="matrix(12,0,0,12,231.1,787.7)" />
<use xlink:href="#f0_o" transform="matrix(12,0,0,12,236.1,787.7)" />
<use xlink:href="#f0_p" transform="matrix(12,0,0,12,241.1,787.7)" />
<use xlink:href="#f0_g" transform="matrix(12,0,0,12,257.8,787.7)" />
<use xlink:href="#f0_a" transform="matrix(12,0,0,12,264.8,787.7)" />
<use xlink:href="#f0_q" transform="matrix(12,0,0,12,276.3,787.7)" />
<use xlink:href="#f0_c" transform="matrix(12,0,0,12,287.9,787.7)" />
<use xlink:href="#f0_9" transform="matrix(12,0,0,12,292.9,787.7)" />
<use xlink:href="#f0_6" transform="matrix(12,0,0,12,302.5,787.7)" />
<use xlink:href="#f0_a" transform="matrix(12,0,0,12,309.7,787.7)" />
<use xlink:href="#f0_g" transform="matrix(12,0,0,12,321,787.7)" />
<use xlink:href="#f0_c" transform="matrix(12,0,0,12,334.3,787.7)" />
<use xlink:href="#f0_6" transform="matrix(12,0,0,12,339.3,787.7)" />
<use xlink:href="#f0_n" transform="matrix(12,0,0,12,352.4,787.7)" />
<use xlink:href="#f0_c" transform="matrix(12,0,0,12,367.4,787.7)" />
<use xlink:href="#f0_6" transform="matrix(12,0,0,12,372.5,787.7)" />
<use xlink:href="#f0_7" transform="matrix(12,0,0,12,379.7,787.7)" />
<use xlink:href="#f0_6" transform="matrix(12,0,0,12,397.2,787.7)" />
<use xlink:href="#f0_7" transform="matrix(12,0,0,12,404.4,787.7)" />
<use xlink:href="#f0_a" transform="matrix(12,0,0,12,416,787.7)" />
<use xlink:href="#f0_1g" transform="matrix(12,0,0,12,433.1,787.7)" />
<use xlink:href="#f0_g" transform="matrix(12,0,0,12,443.8,787.7)" />
<use xlink:href="#f0_d" transform="matrix(12,0,0,12,451,787.7)" />
<use xlink:href="#f0_t" transform="matrix(12,0,0,12,462.1,787.7)" />
<use xlink:href="#f0_c" transform="matrix(12,0,0,12,473,787.7)" />
<use xlink:href="#f0_9" transform="matrix(12,0,0,12,478,787.7)" />
<use xlink:href="#f0_c" transform="matrix(12,0,0,12,487.6,787.7)" />
<use xlink:href="#f0_d" transform="matrix(12,0,0,12,492.7,787.7)" />
<use xlink:href="#f0_e" transform="matrix(12,0,0,12,503.8,787.7)" />
<use xlink:href="#f0_c" transform="matrix(12,0,0,12,515.6,787.7)" />
<use xlink:href="#f0_e" transform="matrix(12,0,0,12,520.6,787.7)" />
<use xlink:href="#f0_q" transform="matrix(12,0,0,12,532.2,787.7)" />
<use xlink:href="#f0_1g" transform="matrix(12,0,0,12,549.8,787.7)" />
<use xlink:href="#f0_d" transform="matrix(12,0,0,12,560.2,787.7)" />
<use xlink:href="#f0_g" transform="matrix(12,0,0,12,571.3,787.7)" />
<use xlink:href="#f0_6" transform="matrix(12,0,0,12,578.8,787.7)" />
<use xlink:href="#f0_8" transform="matrix(12,0,0,12,586,787.7)" />
<use xlink:href="#f0_o" transform="matrix(12,0,0,12,597.3,787.7)" />
<use xlink:href="#f0_c" transform="matrix(12,0,0,12,608.3,787.7)" />
<use xlink:href="#f0_h" transform="matrix(12,0,0,12,613.3,787.7)" />
<use xlink:href="#f0_c" transform="matrix(12,0,0,12,625.5,787.7)" />
<use xlink:href="#f0_6" transform="matrix(12,0,0,12,630.6,787.7)" />
<use xlink:href="#f0_c" transform="matrix(12,0,0,12,643.7,787.7)" />
<use xlink:href="#f0_9" transform="matrix(12,0,0,12,648.7,787.7)" />
<use xlink:href="#f0_e" transform="matrix(12,0,0,12,658.3,787.7)" />
<use xlink:href="#f0_r" transform="matrix(12,0,0,12,669.9,787.7)" />
<use xlink:href="#f0_6" transform="matrix(12,0,0,12,675.8,787.7)" />
<use xlink:href="#f0_6" transform="matrix(12,0,0,12,688.8,787.7)" />
<use xlink:href="#f0_7" transform="matrix(12,0,0,12,695.9,787.7)" />
<use xlink:href="#f0_a" transform="matrix(12,0,0,12,707.5,787.7)" />
<use xlink:href="#f0_g" transform="matrix(12,0,0,12,718.8,787.7)" />
<use xlink:href="#f0_a" transform="matrix(12,0,0,12,725.9,787.7)" />
<use xlink:href="#f0_8" transform="matrix(12,0,0,12,743.1,787.7)" />
<use xlink:href="#f0_o" transform="matrix(12,0,0,12,754.4,787.7)" />
<use xlink:href="#f0_g" transform="matrix(12,0,0,12,759.4,787.7)" />
<use xlink:href="#f0_a" transform="matrix(12,0,0,12,766.5,787.7)" />
<use xlink:href="#f0_8" transform="matrix(12,0,0,12,777.8,787.7)" />
<use xlink:href="#f0_f" transform="matrix(12,0,0,12,789.1,787.7)" />
<use xlink:href="#f0_p" transform="matrix(12,0,0,12,800.7,787.7)" />
<use xlink:href="#f0_l" transform="matrix(12,0,0,12,808.9,787.7)" />
<use xlink:href="#f0_10" transform="matrix(12,0,0,12,86.8,816.4)" />
<use xlink:href="#f0_a" transform="matrix(12,0,0,12,100.5,816.4)" />
<use xlink:href="#f0_1h" transform="matrix(12,0,0,12,111.5,816.4)" />
<use xlink:href="#f0_6" transform="matrix(12,0,0,12,122.3,816.4)" />
<use xlink:href="#f0_p" transform="matrix(12,0,0,12,135.3,816.4)" />
<use xlink:href="#f0_d" transform="matrix(12,0,0,12,146.2,816.4)" />
<use xlink:href="#f0_k" transform="matrix(12,0,0,12,157.3,816.4)" />
<use xlink:href="#f0_n" transform="matrix(12,0,0,12,174.9,816.4)" />
<use xlink:href="#f0_c" transform="matrix(12,0,0,12,189.9,816.4)" />
<use xlink:href="#f0_o" transform="matrix(12,0,0,12,194.9,816.4)" />
<use xlink:href="#f0_o" transform="matrix(12,0,0,12,199.9,816.4)" />
<use xlink:href="#f0_9" transform="matrix(12,0,0,12,210.9,816.4)" />
<use xlink:href="#f0_a" transform="matrix(12,0,0,12,220.5,816.4)" />
<use xlink:href="#f0_a" transform="matrix(12,0,0,12,231.7,816.4)" />
<use xlink:href="#f0_8" transform="matrix(12,0,0,12,248.8,816.4)" />
<use xlink:href="#f0_9" transform="matrix(12,0,0,12,265.9,816.4)" />
<use xlink:href="#f0_b" transform="matrix(12,0,0,12,275.5,816.4)" />
<use xlink:href="#f0_g" transform="matrix(12,0,0,12,285.6,816.4)" />
<use xlink:href="#f0_a" transform="matrix(12,0,0,12,292.6,816.4)" />
<use xlink:href="#f0_a" transform="matrix(12,0,0,12,303.9,816.4)" />
<use xlink:href="#f0_e" transform="matrix(12,0,0,12,315.2,816.4)" />
<use xlink:href="#f0_6" transform="matrix(12,0,0,12,332.6,816.4)" />
<use xlink:href="#f0_7" transform="matrix(12,0,0,12,339.8,816.4)" />
<use xlink:href="#f0_8" transform="matrix(12,0,0,12,351.4,816.4)" />
<use xlink:href="#f0_6" transform="matrix(12,0,0,12,362.7,816.4)" />
<use xlink:href="#f0_9" transform="matrix(12,0,0,12,375.7,816.4)" />
<use xlink:href="#f0_7" transform="matrix(12,0,0,12,385.3,816.4)" />
<use xlink:href="#f0_d" transform="matrix(12,0,0,12,396.9,816.4)" />
<use xlink:href="#f0_n" transform="matrix(12,0,0,12,408,816.4)" />
<use xlink:href="#f0_9" transform="matrix(12,0,0,12,423,816.4)" />
<use xlink:href="#f0_p" transform="matrix(12,0,0,12,438.4,816.4)" />
<use xlink:href="#f0_d" transform="matrix(12,0,0,12,449.3,816.4)" />
<use xlink:href="#f0_k" transform="matrix(12,0,0,12,460.4,816.4)" />
<use xlink:href="#f0_g" transform="matrix(12,0,0,12,472,816.4)" />
<use xlink:href="#f0_c" transform="matrix(12,0,0,12,485.5,816.4)" />
<use xlink:href="#f0_e" transform="matrix(12,0,0,12,490.5,816.4)" />
<use xlink:href="#f0_h" transform="matrix(12,0,0,12,502.1,816.4)" />
<use xlink:href="#f0_d" transform="matrix(12,0,0,12,508.5,816.4)" />
<use xlink:href="#f0_g" transform="matrix(12,0,0,12,519.8,816.4)" />
<use xlink:href="#f0_u" transform="matrix(12,0,0,12,527,816.4)" />
<use xlink:href="#f0_8" transform="matrix(12,0,0,12,544.9,816.4)" />
<use xlink:href="#f0_6" transform="matrix(12,0,0,12,556.1,816.4)" />
<use xlink:href="#f0_c" transform="matrix(12,0,0,12,563.3,816.4)" />
<use xlink:href="#f0_d" transform="matrix(12,0,0,12,568.4,816.4)" />
<use xlink:href="#f0_e" transform="matrix(12,0,0,12,579.5,816.4)" />
<use xlink:href="#f0_4" transform="matrix(12,0,0,12,591.1,816.4)" />
<use xlink:href="#f0_e" transform="matrix(12,0,0,12,602.9,816.4)" />
<use xlink:href="#f0_d" transform="matrix(12,0,0,12,614.5,816.4)" />
<use xlink:href="#f0_6" transform="matrix(12,0,0,12,625.6,816.4)" />
<use xlink:href="#f0_a" transform="matrix(12,0,0,12,632.8,816.4)" />
<use xlink:href="#f0_6" transform="matrix(12,0,0,12,649.9,816.4)" />
<use xlink:href="#f0_7" transform="matrix(12,0,0,12,657.1,816.4)" />
<use xlink:href="#f0_8" transform="matrix(12,0,0,12,668.7,816.4)" />
<use xlink:href="#f0_6" transform="matrix(12,0,0,12,680,816.4)" />
<use xlink:href="#f0_p" transform="matrix(12,0,0,12,693,816.4)" />
<use xlink:href="#f0_d" transform="matrix(12,0,0,12,703.8,816.4)" />
<use xlink:href="#f0_k" transform="matrix(12,0,0,12,715,816.4)" />
<use xlink:href="#f0_g" transform="matrix(12,0,0,12,726.7,816.4)" />
<use xlink:href="#f0_g" transform="matrix(12,0,0,12,740,816.4)" />
<use xlink:href="#f0_d" transform="matrix(12,0,0,12,747.2,816.4)" />
<use xlink:href="#f0_o" transform="matrix(12,0,0,12,758.4,816.4)" />
<use xlink:href="#f0_a" transform="matrix(12,0,0,12,763.4,816.4)" />
<use xlink:href="#f0_c" transform="matrix(12,0,0,12,780.7,816.4)" />
<use xlink:href="#f0_9" transform="matrix(12,0,0,12,785.7,816.4)" />
</g>
<g fill="#0000FF" >
<use xlink:href="#f1_n" transform="matrix(12,0,0,12,86.8,845)" />
<use xlink:href="#f1_7" transform="matrix(12,0,0,12,101,845)" />
<use xlink:href="#f1_3" transform="matrix(12,0,0,12,114.1,845)" />
<use xlink:href="#f1_6" transform="matrix(12,0,0,12,126.5,845)" />
<use xlink:href="#f1_4" transform="matrix(12,0,0,12,139.6,845)" />
</g>
<g fill="#000000" >
<use xlink:href="#f0_13" transform="matrix(12,0,0,12,154.8,845)" />
<use xlink:href="#f0_6" transform="matrix(12,0,0,12,161.9,845)" />
<use xlink:href="#f0_7" transform="matrix(12,0,0,12,169.1,845)" />
<use xlink:href="#f0_c" transform="matrix(12,0,0,12,180.7,845)" />
<use xlink:href="#f0_9" transform="matrix(12,0,0,12,185.8,845)" />
<use xlink:href="#f0_c" transform="matrix(12,0,0,12,201.2,845)" />
<use xlink:href="#f0_9" transform="matrix(12,0,0,12,206.2,845)" />
<use xlink:href="#f0_6" transform="matrix(12,0,0,12,221.6,845)" />
<use xlink:href="#f0_7" transform="matrix(12,0,0,12,228.8,845)" />
<use xlink:href="#f0_a" transform="matrix(12,0,0,12,240.4,845)" />
<use xlink:href="#f0_9" transform="matrix(12,0,0,12,257.5,845)" />
<use xlink:href="#f0_k" transform="matrix(12,0,0,12,267.1,845)" />
<use xlink:href="#f0_s" transform="matrix(12,0,0,12,278.8,845)" />
<use xlink:href="#f0_a" transform="matrix(12,0,0,12,290.4,845)" />
<use xlink:href="#f0_g" transform="matrix(12,0,0,12,301.7,845)" />
<use xlink:href="#f0_k" transform="matrix(12,0,0,12,315.1,845)" />
<use xlink:href="#f0_9" transform="matrix(12,0,0,12,326.5,845)" />
<use xlink:href="#f0_a" transform="matrix(12,0,0,12,336.1,845)" />
<use xlink:href="#f0_g" transform="matrix(12,0,0,12,347.4,845)" />
<use xlink:href="#f0_8" transform="matrix(12,0,0,12,360.7,845)" />
<use xlink:href="#f0_b" transform="matrix(12,0,0,12,372,845)" />
<use xlink:href="#f0_b" transform="matrix(12,0,0,12,382.1,845)" />
<use xlink:href="#f0_d" transform="matrix(12,0,0,12,392.1,845)" />
<use xlink:href="#f0_k" transform="matrix(12,0,0,12,403.3,845)" />
<use xlink:href="#f0_e" transform="matrix(12,0,0,12,414.9,845)" />
<use xlink:href="#f0_6" transform="matrix(12,0,0,12,426.5,845)" />
<use xlink:href="#f0_8" transform="matrix(12,0,0,12,439.6,845)" />
<use xlink:href="#f0_e" transform="matrix(12,0,0,12,450.8,845)" />
<use xlink:href="#f0_f" transform="matrix(12,0,0,12,462.4,845)" />
<use xlink:href="#f0_7" transform="matrix(12,0,0,12,479.9,845)" />
<use xlink:href="#f0_8" transform="matrix(12,0,0,12,491.4,845)" />
<use xlink:href="#f0_9" transform="matrix(12,0,0,12,502.7,845)" />
<use xlink:href="#f0_6" transform="matrix(12,0,0,12,518.1,845)" />
<use xlink:href="#f0_7" transform="matrix(12,0,0,12,525.3,845)" />
<use xlink:href="#f0_a" transform="matrix(12,0,0,12,536.9,845)" />
<use xlink:href="#f0_u" transform="matrix(12,0,0,12,554,845)" />
<use xlink:href="#f0_d" transform="matrix(12,0,0,12,571.9,845)" />
<use xlink:href="#f0_9" transform="matrix(12,0,0,12,583,845)" />
<use xlink:href="#f0_6" transform="matrix(12,0,0,12,592.6,845)" />
<use xlink:href="#f0_s" transform="matrix(12,0,0,12,605.6,845)" />
<use xlink:href="#f0_a" transform="matrix(12,0,0,12,617.2,845)" />
<use xlink:href="#f0_g" transform="matrix(12,0,0,12,628.5,845)" />
<use xlink:href="#f0_u" transform="matrix(12,0,0,12,635.7,845)" />
<use xlink:href="#f0_c" transform="matrix(12,0,0,12,653.6,845)" />
<use xlink:href="#f0_9" transform="matrix(12,0,0,12,658.6,845)" />
<use xlink:href="#f0_9" transform="matrix(12,0,0,12,668.2,845)" />
<use xlink:href="#f0_c" transform="matrix(12,0,0,12,677.8,845)" />
<use xlink:href="#f0_d" transform="matrix(12,0,0,12,682.9,845)" />
<use xlink:href="#f0_e" transform="matrix(12,0,0,12,694,845)" />
<use xlink:href="#f0_9" transform="matrix(12,0,0,12,705.6,845)" />
<use xlink:href="#f0_d" transform="matrix(12,0,0,12,721,845)" />
<use xlink:href="#f0_h" transform="matrix(12,0,0,12,732.2,845)" />
<use xlink:href="#f0_8" transform="matrix(12,0,0,12,744.5,845)" />
<use xlink:href="#f0_e" transform="matrix(12,0,0,12,755.8,845)" />
<use xlink:href="#f0_p" transform="matrix(12,0,0,12,767.4,845)" />
<use xlink:href="#f0_g" transform="matrix(12,0,0,12,86.8,873.7)" />
<use xlink:href="#f0_d" transform="matrix(12,0,0,12,94,873.7)" />
<use xlink:href="#f0_o" transform="matrix(12,0,0,12,105.1,873.7)" />
<use xlink:href="#f0_a" transform="matrix(12,0,0,12,110.2,873.7)" />
<use xlink:href="#f0_14" transform="matrix(12,0,0,12,121.4,873.7)" />
<use xlink:href="#f0_l" transform="matrix(12,0,0,12,128.6,873.7)" />
<use xlink:href="#f0_19" transform="matrix(12,0,0,12,140.4,873.7)" />
<use xlink:href="#f0_h" transform="matrix(12,0,0,12,145.7,873.7)" />
<use xlink:href="#f0_p" transform="matrix(12,0,0,12,158.1,873.7)" />
<use xlink:href="#f0_d" transform="matrix(12,0,0,12,168.9,873.7)" />
<use xlink:href="#f0_k" transform="matrix(12,0,0,12,180.1,873.7)" />
<use xlink:href="#f0_g" transform="matrix(12,0,0,12,191.7,873.7)" />
<use xlink:href="#f0_8" transform="matrix(12,0,0,12,205.1,873.7)" />
<use xlink:href="#f0_b" transform="matrix(12,0,0,12,216.2,873.7)" />
<use xlink:href="#f0_b" transform="matrix(12,0,0,12,226.3,873.7)" />
<use xlink:href="#f0_d" transform="matrix(12,0,0,12,236.4,873.7)" />
<use xlink:href="#f0_k" transform="matrix(12,0,0,12,247.5,873.7)" />
<use xlink:href="#f0_e" transform="matrix(12,0,0,12,259.1,873.7)" />
<use xlink:href="#f0_6" transform="matrix(12,0,0,12,270.7,873.7)" />
<use xlink:href="#f0_n" transform="matrix(12,0,0,12,283.8,873.7)" />
<use xlink:href="#f0_8" transform="matrix(12,0,0,12,298.8,873.7)" />
<use xlink:href="#f0_9" transform="matrix(12,0,0,12,310,873.7)" />
<use xlink:href="#f0_9" transform="matrix(12,0,0,12,325.4,873.7)" />
<use xlink:href="#f0_a" transform="matrix(12,0,0,12,335,873.7)" />
<use xlink:href="#f0_6" transform="matrix(12,0,0,12,346.3,873.7)" />
<use xlink:href="#f0_k" transform="matrix(12,0,0,12,359.3,873.7)" />
<use xlink:href="#f0_s" transform="matrix(12,0,0,12,370.9,873.7)" />
<use xlink:href="#f0_8" transform="matrix(12,0,0,12,388.3,873.7)" />
<use xlink:href="#f0_9" transform="matrix(12,0,0,12,399.6,873.7)" />
<use xlink:href="#f0_8" transform="matrix(12,0,0,12,414.9,873.7)" />
<use xlink:href="#f0_b" transform="matrix(12,0,0,12,432,873.7)" />
<use xlink:href="#f0_d" transform="matrix(12,0,0,12,442.1,873.7)" />
<use xlink:href="#f0_u" transform="matrix(12,0,0,12,453.2,873.7)" />
<use xlink:href="#f0_s" transform="matrix(12,0,0,12,471.1,873.7)" />
<use xlink:href="#f0_8" transform="matrix(12,0,0,12,482.7,873.7)" />
<use xlink:href="#f0_e" transform="matrix(12,0,0,12,494,873.7)" />
<use xlink:href="#f0_p" transform="matrix(12,0,0,12,505.6,873.7)" />
<use xlink:href="#f0_d" transform="matrix(12,0,0,12,522.2,873.7)" />
<use xlink:href="#f0_g" transform="matrix(12,0,0,12,533.5,873.7)" />
<use xlink:href="#f0_x" transform="matrix(12,0,0,12,546.8,873.7)" />
<use xlink:href="#f0_k" transform="matrix(12,0,0,12,558.4,873.7)" />
<use xlink:href="#f0_9" transform="matrix(12,0,0,12,570,873.7)" />
<use xlink:href="#f0_c" transform="matrix(12,0,0,12,579.6,873.7)" />
<use xlink:href="#f0_e" transform="matrix(12,0,0,12,584.7,873.7)" />
<use xlink:href="#f0_a" transform="matrix(12,0,0,12,596.3,873.7)" />
<use xlink:href="#f0_9" transform="matrix(12,0,0,12,607.6,873.7)" />
<use xlink:href="#f0_9" transform="matrix(12,0,0,12,617,873.7)" />
<use xlink:href="#f0_13" transform="matrix(12,0,0,12,632.5,873.7)" />
<use xlink:href="#f0_e" transform="matrix(12,0,0,12,639.6,873.7)" />
<use xlink:href="#f0_d" transform="matrix(12,0,0,12,651.2,873.7)" />
<use xlink:href="#f0_6" transform="matrix(12,0,0,12,662.4,873.7)" />
<use xlink:href="#f0_8" transform="matrix(12,0,0,12,675.5,873.7)" />
<use xlink:href="#f0_e" transform="matrix(12,0,0,12,686.8,873.7)" />
<use xlink:href="#f0_c" transform="matrix(12,0,0,12,704.2,873.7)" />
<use xlink:href="#f0_e" transform="matrix(12,0,0,12,709.2,873.7)" />
<use xlink:href="#f0_f" transform="matrix(12,0,0,12,720.9,873.7)" />
<use xlink:href="#f0_c" transform="matrix(12,0,0,12,732.5,873.7)" />
<use xlink:href="#f0_t" transform="matrix(12,0,0,12,737.5,873.7)" />
<use xlink:href="#f0_c" transform="matrix(12,0,0,12,748.3,873.7)" />
<use xlink:href="#f0_f" transform="matrix(12,0,0,12,753.5,873.7)" />
<use xlink:href="#f0_k" transform="matrix(12,0,0,12,765.1,873.7)" />
<use xlink:href="#f0_8" transform="matrix(12,0,0,12,776.7,873.7)" />
<use xlink:href="#f0_o" transform="matrix(12,0,0,12,788,873.7)" />
<use xlink:href="#f0_f" transform="matrix(12,0,0,12,86.8,902.3)" />
<use xlink:href="#f0_a" transform="matrix(12,0,0,12,98.4,902.3)" />
<use xlink:href="#f0_t" transform="matrix(12,0,0,12,109.7,902.3)" />
<use xlink:href="#f0_a" transform="matrix(12,0,0,12,120.5,902.3)" />
<use xlink:href="#f0_o" transform="matrix(12,0,0,12,131.8,902.3)" />
<use xlink:href="#f0_d" transform="matrix(12,0,0,12,136.8,902.3)" />
<use xlink:href="#f0_s" transform="matrix(12,0,0,12,148.1,902.3)" />
<use xlink:href="#f0_a" transform="matrix(12,0,0,12,159.7,902.3)" />
<use xlink:href="#f0_g" transform="matrix(12,0,0,12,171,902.3)" />
<use xlink:href="#f0_14" transform="matrix(12,0,0,12,178.5,902.3)" />
<use xlink:href="#f0_p" transform="matrix(12,0,0,12,191.5,902.3)" />
<use xlink:href="#f0_d" transform="matrix(12,0,0,12,202.3,902.3)" />
<use xlink:href="#f0_k" transform="matrix(12,0,0,12,213.5,902.3)" />
<use xlink:href="#f0_n" transform="matrix(12,0,0,12,231,902.3)" />
<use xlink:href="#f0_d" transform="matrix(12,0,0,12,246,902.3)" />
<use xlink:href="#f0_k" transform="matrix(12,0,0,12,257.2,902.3)" />
<use xlink:href="#f0_o" transform="matrix(12,0,0,12,268.8,902.3)" />
<use xlink:href="#f0_f" transform="matrix(12,0,0,12,273.9,902.3)" />
<use xlink:href="#f0_7" transform="matrix(12,0,0,12,291.4,902.3)" />
<use xlink:href="#f0_8" transform="matrix(12,0,0,12,303,902.3)" />
<use xlink:href="#f0_t" transform="matrix(12,0,0,12,314.3,902.3)" />
<use xlink:href="#f0_a" transform="matrix(12,0,0,12,325.1,902.3)" />
<use xlink:href="#f0_6" transform="matrix(12,0,0,12,342.2,902.3)" />
<use xlink:href="#f0_7" transform="matrix(12,0,0,12,349.4,902.3)" />
<use xlink:href="#f0_a" transform="matrix(12,0,0,12,361,902.3)" />
<use xlink:href="#f0_8" transform="matrix(12,0,0,12,378.1,902.3)" />
<use xlink:href="#f0_x" transform="matrix(12,0,0,12,389.4,902.3)" />
<use xlink:href="#f0_c" transform="matrix(12,0,0,12,401,902.3)" />
<use xlink:href="#f0_o" transform="matrix(12,0,0,12,406,902.3)" />
<use xlink:href="#f0_c" transform="matrix(12,0,0,12,411.1,902.3)" />
<use xlink:href="#f0_6" transform="matrix(12,0,0,12,416.1,902.3)" />
<use xlink:href="#f0_p" transform="matrix(12,0,0,12,423.3,902.3)" />
<use xlink:href="#f0_6" transform="matrix(12,0,0,12,440.1,902.3)" />
<use xlink:href="#f0_d" transform="matrix(12,0,0,12,447.3,902.3)" />
<use xlink:href="#f0_8" transform="matrix(12,0,0,12,464.4,902.3)" />
<use xlink:href="#f0_f" transform="matrix(12,0,0,12,475.5,902.3)" />
<use xlink:href="#f0_f" transform="matrix(12,0,0,12,487.1,902.3)" />
<use xlink:href="#f0_d" transform="matrix(12,0,0,12,504.7,902.3)" />
<use xlink:href="#f0_6" transform="matrix(12,0,0,12,515.8,902.3)" />
<use xlink:href="#f0_7" transform="matrix(12,0,0,12,523,902.3)" />
<use xlink:href="#f0_a" transform="matrix(12,0,0,12,534.6,902.3)" />
<use xlink:href="#f0_g" transform="matrix(12,0,0,12,545.9,902.3)" />
<use xlink:href="#f0_h" transform="matrix(12,0,0,12,559.2,902.3)" />
<use xlink:href="#f0_d" transform="matrix(12,0,0,12,565.7,902.3)" />
<use xlink:href="#f0_o" transform="matrix(12,0,0,12,576.9,902.3)" />
<use xlink:href="#f0_i" transform="matrix(12,0,0,12,581.9,902.3)" />
<use xlink:href="#f0_9" transform="matrix(12,0,0,12,592.5,902.3)" />
<use xlink:href="#f0_6" transform="matrix(12,0,0,12,608,902.3)" />
<use xlink:href="#f0_d" transform="matrix(12,0,0,12,615.2,902.3)" />
<use xlink:href="#f0_p" transform="matrix(12,0,0,12,632.2,902.3)" />
<use xlink:href="#f0_d" transform="matrix(12,0,0,12,643,902.3)" />
<use xlink:href="#f0_k" transform="matrix(12,0,0,12,654.1,902.3)" />
<use xlink:href="#f0_g" transform="matrix(12,0,0,12,665.9,902.3)" />
<use xlink:href="#f0_8" transform="matrix(12,0,0,12,679.2,902.3)" />
<use xlink:href="#f0_b" transform="matrix(12,0,0,12,690.5,902.3)" />
<use xlink:href="#f0_b" transform="matrix(12,0,0,12,700.5,902.3)" />
<use xlink:href="#f0_d" transform="matrix(12,0,0,12,710.6,902.3)" />
<use xlink:href="#f0_k" transform="matrix(12,0,0,12,721.8,902.3)" />
<use xlink:href="#f0_e" transform="matrix(12,0,0,12,733.4,902.3)" />
<use xlink:href="#f0_6" transform="matrix(12,0,0,12,745,902.3)" />
<use xlink:href="#f0_l" transform="matrix(12,0,0,12,752.1,902.3)" />
<use xlink:href="#f0_1i" transform="matrix(12,0,0,12,763.9,902.3)" />
<use xlink:href="#f0_d" transform="matrix(12,0,0,12,775.8,902.3)" />
<use xlink:href="#f0_o" transform="matrix(12,0,0,12,787,902.3)" />
<use xlink:href="#f0_a" transform="matrix(12,0,0,12,792,902.3)" />
<use xlink:href="#f0_9" transform="matrix(12,0,0,12,803.3,902.3)" />
<use xlink:href="#f0_b" transform="matrix(12,0,0,12,86.8,931)" />
<use xlink:href="#f0_8" transform="matrix(12,0,0,12,96.8,931)" />
<use xlink:href="#f0_e" transform="matrix(12,0,0,12,108.1,931)" />
<use xlink:href="#f0_x" transform="matrix(12,0,0,12,125.6,931)" />
<use xlink:href="#f0_a" transform="matrix(12,0,0,12,137.2,931)" />
<use xlink:href="#f0_d" transform="matrix(12,0,0,12,154.3,931)" />
<use xlink:href="#f0_h" transform="matrix(12,0,0,12,165.4,931)" />
<use xlink:href="#f0_6" transform="matrix(12,0,0,12,177.8,931)" />
<use xlink:href="#f0_p" transform="matrix(12,0,0,12,185,931)" />
<use xlink:href="#f0_s" transform="matrix(12,0,0,12,195.8,931)" />
<use xlink:href="#f0_a" transform="matrix(12,0,0,12,207.4,931)" />
<use xlink:href="#f0_1b" transform="matrix(12,0,0,12,224.5,931)" />
<use xlink:href="#f0_1j" transform="matrix(12,0,0,12,234,931)" />
<use xlink:href="#f0_a" transform="matrix(12,0,0,12,249.9,931)" />
<use xlink:href="#f0_u" transform="matrix(12,0,0,12,261.1,931)" />
<use xlink:href="#f0_x" transform="matrix(12,0,0,12,279,931)" />
<use xlink:href="#f0_a" transform="matrix(12,0,0,12,290.6,931)" />
<use xlink:href="#f0_g" transform="matrix(12,0,0,12,301.9,931)" />
<use xlink:href="#f0_1c" transform="matrix(12,0,0,12,310.1,931)" />
<use xlink:href="#f0_d" transform="matrix(12,0,0,12,325.4,931)" />
<use xlink:href="#f0_g" transform="matrix(12,0,0,12,336.7,931)" />
<use xlink:href="#f0_1b" transform="matrix(12,0,0,12,350,931)" />
<use xlink:href="#f0_1k" transform="matrix(12,0,0,12,357.2,931)" />
<use xlink:href="#f0_f" transform="matrix(12,0,0,12,369.4,931)" />
<use xlink:href="#f0_u" transform="matrix(12,0,0,12,381,931)" />
<use xlink:href="#f0_c" transform="matrix(12,0,0,12,398.9,931)" />
<use xlink:href="#f0_e" transform="matrix(12,0,0,12,403.9,931)" />
<use xlink:href="#f0_1c" transform="matrix(12,0,0,12,414.6,931)" />
<use xlink:href="#f0_h" transform="matrix(12,0,0,12,429.9,931)" />
<use xlink:href="#f0_d" transform="matrix(12,0,0,12,436.3,931)" />
<use xlink:href="#f0_g" transform="matrix(12,0,0,12,447.6,931)" />
<use xlink:href="#f0_6" transform="matrix(12,0,0,12,460.9,931)" />
<use xlink:href="#f0_7" transform="matrix(12,0,0,12,468.1,931)" />
<use xlink:href="#f0_a" transform="matrix(12,0,0,12,479.7,931)" />
<use xlink:href="#f0_9" transform="matrix(12,0,0,12,491,931)" />
<use xlink:href="#f0_a" transform="matrix(12,0,0,12,500.6,931)" />
<use xlink:href="#f0_h" transform="matrix(12,0,0,12,517.7,931)" />
<use xlink:href="#f0_d" transform="matrix(12,0,0,12,524.1,931)" />
<use xlink:href="#f0_o" transform="matrix(12,0,0,12,535.3,931)" />
<use xlink:href="#f0_i" transform="matrix(12,0,0,12,540.3,931)" />
<use xlink:href="#f0_9" transform="matrix(12,0,0,12,551,931)" />
<use xlink:href="#f0_l" transform="matrix(12,0,0,12,560.6,931)" />
<use xlink:href="#f0_1f" transform="matrix(12,0,0,12,86.8,959.6)" />
<use xlink:href="#f0_o" transform="matrix(12,0,0,12,99.6,959.6)" />
<use xlink:href="#f0_c" transform="matrix(12,0,0,12,104.6,959.6)" />
<use xlink:href="#f0_b" transform="matrix(12,0,0,12,109.7,959.6)" />
<use xlink:href="#f0_i" transform="matrix(12,0,0,12,119.7,959.6)" />
</g>
<g fill="#0000FF" >
<use xlink:href="#f1_u" transform="matrix(12,0,0,12,136.3,959.6)" />
<use xlink:href="#f1_5" transform="matrix(12,0,0,12,150.2,959.6)" />
<use xlink:href="#f1_3" transform="matrix(12,0,0,12,156.4,959.6)" />
<use xlink:href="#f1_v" transform="matrix(12,0,0,12,168.8,959.6)" />
<use xlink:href="#f1_t" transform="matrix(12,0,0,12,192.2,959.6)" />
<use xlink:href="#f1_3" transform="matrix(12,0,0,12,207.4,959.6)" />
<use xlink:href="#f1_4" transform="matrix(12,0,0,12,219.8,959.6)" />
<use xlink:href="#f1_a" transform="matrix(12,0,0,12,228.5,959.6)" />
<use xlink:href="#f1_5" transform="matrix(12,0,0,12,240.9,959.6)" />
<use xlink:href="#f1_r" transform="matrix(12,0,0,12,247.1,959.6)" />
<use xlink:href="#f1_k" transform="matrix(12,0,0,12,253.5,959.6)" />
<use xlink:href="#f1_l" transform="matrix(12,0,0,12,264.4,959.6)" />
</g>
<g fill="#000000" >
<use xlink:href="#f0_1e" transform="matrix(12,0,0,12,282.8,959.6)" />
</g>
</g>
<image preserveAspectRatio="none" x="87" y="87" width="736" height="540" xlink:href="img/1.png" />
<defs>
<path d="M150,0V1114H854V987H300V657H831V530H300V127H867V0Z" 
id="f0_1d"
transform="scale(0.001,-0.001)" />

<path d="M139,0V836H277V706c0,0,49,75,116,112c0,0,67,38,154,38c0,0,144,0,218,-90c0,0,74,-89,74,-262V0H702V500c0,0,0,119,-46,177c0,0,-47,59,-139,59c0,0,-112,0,-176,-71c0,0,-64,-70,-64,-193V0Z" 
id="f0_e"
transform="scale(0.001,-0.001)" />

<path d="M421,0C421,0,263,0,202,59c0,0,-60,60,-60,217V729H41V836H142v238H280V836H562V729H280V276c0,0,0,-102,28,-132c0,0,28,-29,113,-29H562V0Z" 
id="f0_6"
transform="scale(0.001,-0.001)" />

<path d="M231,492l491,1c0,0,-2,112,-64,179c0,0,-61,67,-163,67c0,0,-115,0,-184,-65c0,0,-69,-64,-80,-182ZM517,-20c0,0,-199,0,-316,115C201,95,84,211,84,410c0,0,0,205,111,325c0,0,111,121,299,121c0,0,168,0,266,-109c0,0,98,-108,98,-295V385H227c0,0,9,-142,85,-216c0,0,77,-74,213,-74c0,0,80,0,154,19c0,0,74,19,147,58V42C826,42,752,11,675,-4c0,0,-78,-16,-158,-16Z" 
id="f0_a"
transform="scale(0.001,-0.001)" />

<path d="M139,0V836H277V706c0,0,43,76,112,113c0,0,70,37,169,37c0,0,14,0,31,-2c0,0,17,-2,38,-6l1,-141c0,0,-23,14,-51,20c0,0,-27,6,-60,6c0,0,-116,0,-178,-75c0,0,-62,-76,-62,-218V0Z" 
id="f0_g"
transform="scale(0.001,-0.001)" />

<path d="M144,0V836H281V0Zm0,987v174H281V987Z" 
id="f0_c"
transform="scale(0.001,-0.001)" />

<path d="M460,115c0,0,111,0,173,82c0,0,61,82,61,230c0,0,0,149,-61,231c0,0,-62,82,-173,82c0,0,-111,0,-173,-82c0,0,-61,-82,-61,-231c0,0,0,-148,61,-230c0,0,62,-82,173,-82ZM446,-317c0,0,-72,0,-137,11c0,0,-64,11,-124,33v134c0,0,60,-33,119,-49c0,0,59,-15,121,-15c0,0,135,0,202,70c0,0,67,71,67,212v68C694,147,652,73,585,36C585,36,519,0,426,0C426,0,272,0,178,117c0,0,-94,117,-94,310c0,0,0,194,94,311c0,0,94,118,248,118c0,0,93,0,159,-37c0,0,67,-36,109,-110V836H831V104c0,0,0,-212,-95,-317c0,0,-94,-104,-290,-104Z" 
id="f0_q"
transform="scale(0.001,-0.001)" />

<path d="M121,-317v116h81c0,0,57,0,88,26c0,0,31,27,69,127l25,62L46,836H191L453,182L714,836H859L492,-76c0,0,-58,-150,-113,-195c0,0,-55,-46,-148,-46Z" 
id="f0_p"
transform="scale(0.001,-0.001)" />

<path d="M467,95c0,0,110,0,174,86c0,0,64,87,64,236c0,0,0,148,-64,235c0,0,-64,87,-174,87c0,0,-110,0,-174,-86c0,0,-64,-86,-64,-236c0,0,0,-150,64,-236c0,0,63,-86,174,-86Zm0,-115c0,0,-179,0,-281,115C186,95,84,212,84,417c0,0,0,206,102,322c0,0,102,117,281,117c0,0,179,0,282,-117c0,0,102,-116,102,-322c0,0,0,-205,-102,-322C749,95,646,-20,467,-20Z" 
id="f0_d"
transform="scale(0.001,-0.001)" />

<path d="M424,-20c0,0,-145,0,-219,88c0,0,-75,89,-75,262V836H267V335c0,0,0,-119,46,-178c0,0,47,-59,139,-59c0,0,112,0,177,71c0,0,64,71,64,193V836H830V0H693V128C693,128,643,52,577,15c0,0,-66,-35,-153,-35Z" 
id="f0_k"
transform="scale(0.001,-0.001)" />

<path d="M495,-20c0,0,-189,0,-300,117C195,97,84,216,84,417c0,0,0,204,112,321c0,0,113,118,308,118c0,0,64,0,124,-14c0,0,60,-13,117,-39V675c0,0,-58,32,-117,48c0,0,-58,16,-118,16c0,0,-133,0,-207,-84c0,0,-74,-85,-74,-238c0,0,0,-153,74,-238c0,0,74,-84,207,-84c0,0,60,0,118,16c0,0,59,16,117,48V32C745,32,688,5,626,-7c0,0,-61,-13,-131,-13Z" 
id="f0_b"
transform="scale(0.001,-0.001)" />

<path d="M460,93c0,0,109,0,171,86c0,0,63,86,63,238c0,0,0,151,-63,237c0,0,-62,86,-171,86c0,0,-109,0,-172,-86c0,0,-62,-86,-62,-237c0,0,0,-152,62,-238c0,0,63,-86,172,-86ZM426,-20c0,0,-151,0,-247,119c0,0,-95,121,-95,318c0,0,0,197,95,318c0,0,96,121,247,121c0,0,93,0,159,-37c0,0,66,-36,109,-110v452H831V0H694V125C694,125,651,51,585,15c0,0,-66,-35,-159,-35Z" 
id="f0_f"
transform="scale(0.001,-0.001)" />

<path d="M408,93c0,0,115,0,184,81c0,0,69,81,69,215v30H524c0,0,-167,0,-231,-38c0,0,-64,-38,-64,-129c0,0,0,-73,48,-116c0,0,48,-43,131,-43ZM372,-20c0,0,-128,0,-204,70c0,0,-76,72,-76,193c0,0,0,141,94,212c0,0,95,72,282,72H661v13c0,0,0,95,-62,147c0,0,-63,52,-175,52c0,0,-72,0,-140,-17c0,0,-68,-17,-130,-51V798c0,0,75,29,146,43c0,0,71,15,138,15c0,0,181,0,270,-95c0,0,90,-94,90,-285V0H661V127C661,127,614,51,544,15c0,0,-70,-35,-172,-35Z" 
id="f0_8"
transform="scale(0.001,-0.001)" />

<path d="M144,0V1161H281V0Z" 
id="f0_o"
transform="scale(0.001,-0.001)" />

<path d="M376,-20c0,0,-67,0,-140,12C236,-8,164,4,83,30V172c0,0,76,-40,150,-59c0,0,74,-20,146,-20c0,0,97,0,150,33c0,0,52,33,52,94c0,0,0,56,-38,85c0,0,-38,30,-165,58l-48,11c0,0,-128,27,-184,83c0,0,-57,55,-57,152c0,0,0,118,83,182c0,0,84,65,238,65c0,0,76,0,143,-12c0,0,67,-11,124,-33V681c0,0,-58,29,-121,44c0,0,-63,15,-130,15c0,0,-102,0,-153,-31c0,0,-51,-31,-51,-94c0,0,0,-48,37,-75c0,0,36,-27,147,-52l46,-10c0,0,147,-32,208,-89c0,0,62,-57,62,-159c0,0,0,-116,-93,-184c0,0,-92,-66,-253,-66Z" 
id="f0_9"
transform="scale(0.001,-0.001)" />

<path d="M139,0V1161H277V706c0,0,49,75,116,112c0,0,67,38,154,38c0,0,144,0,218,-90c0,0,74,-89,74,-262V0H702V500c0,0,0,119,-46,177c0,0,-47,59,-139,59c0,0,-112,0,-176,-71c0,0,-64,-70,-64,-193V0Z" 
id="f0_7"
transform="scale(0.001,-0.001)" />

<path d="M283,0L65,836H202L373,184L544,836H706L878,184l171,652h137L967,0H806L626,685L445,0Z" 
id="f0_n"
transform="scale(0.001,-0.001)" />

<path d="M46,0L444,595L97,1114H259L536,700l278,414H976L618,579L999,0H837L524,474L209,0Z" 
id="f0_z"
transform="scale(0.001,-0.001)" />

<path d="M139,0V836H277V706c0,0,47,77,112,113c0,0,66,37,156,37c0,0,91,0,155,-47c0,0,64,-46,94,-134c0,0,52,93,123,137c0,0,72,44,169,44c0,0,130,0,201,-92c0,0,71,-91,71,-260V0H1220V500c0,0,0,120,-42,178c0,0,-43,58,-130,58c0,0,-107,0,-169,-71c0,0,-62,-70,-62,-193V0H680V500c0,0,0,121,-43,179c0,0,-42,57,-131,57c0,0,-105,0,-167,-71c0,0,-62,-71,-62,-193V0Z" 
id="f0_u"
transform="scale(0.001,-0.001)" />

<path d="M489,572c0,0,105,0,163,54c0,0,57,55,57,155c0,0,0,100,-57,154c0,0,-58,55,-163,55H300V572ZM150,0V1114H489c0,0,188,0,283,-85c0,0,96,-85,96,-248c0,0,0,-165,-96,-249c0,0,-95,-84,-283,-84H300V0Z" 
id="f0_1g"
transform="scale(0.001,-0.001)" />

<path d="M359,0L46,836H191L453,134L714,836H859L546,0Z" 
id="f0_t"
transform="scale(0.001,-0.001)" />

<path d="M510,93c0,0,109,0,171,86c0,0,62,86,62,238c0,0,0,151,-62,237c0,0,-62,86,-171,86c0,0,-109,0,-171,-86c0,0,-62,-86,-62,-237c0,0,0,-152,62,-238c0,0,62,-86,171,-86ZM544,-20c0,0,-92,0,-158,35c0,0,-66,36,-109,110V0H139V1161H277V709c0,0,43,74,109,110c0,0,66,37,158,37c0,0,152,0,247,-121c0,0,95,-121,95,-318c0,0,0,-197,-95,-318C791,99,696,-20,544,-20Z" 
id="f0_x"
transform="scale(0.001,-0.001)" />

<path d="M166,0V729H35V836H166v58c0,0,0,139,65,203c0,0,65,64,206,64H567V1046H435c0,0,-74,0,-102,-29c0,0,-29,-30,-29,-107V836H530V729H304V0Z" 
id="f0_h"
transform="scale(0.001,-0.001)" />

<path d="M163,0V190H321V0Z" 
id="f0_l"
transform="scale(0.001,-0.001)" />

<path d="M150,0V1114H300V0Z" 
id="f0_19"
transform="scale(0.001,-0.001)" />

<path d="M132,763l62,237v114H351V1000L228,763Z" 
id="f0_r"
transform="scale(0.001,-0.001)" />

<path d="M150,0V1114H353L846,182v932H992V0H789L296,932V0Z" 
id="f0_10"
transform="scale(0.001,-0.001)" />

<path d="M44,0L369,437L71,836H233L455,538L677,836H839L537,429L855,0H693L449,328L206,0Z" 
id="f0_1h"
transform="scale(0.001,-0.001)" />

<path d="M117,-176L179,62V190H336V62L213,-176Z" 
id="f0_4"
transform="scale(0.001,-0.001)" />

<path d="M744,410L592,853L439,410ZM8,0L420,1114H763L1175,0H887L816,203H367L297,0Z" 
id="f1_n"
transform="scale(0.001,-0.001)" />

<path d="M520,194c0,0,84,0,130,61c0,0,46,61,46,172c0,0,0,112,-46,174c0,0,-46,61,-130,61c0,0,-82,0,-129,-61c0,0,-46,-62,-46,-174c0,0,0,-115,45,-174c0,0,45,-59,130,-59ZM469,-328c0,0,-78,0,-151,12c0,0,-73,12,-147,36V-71c0,0,70,-41,137,-61c0,0,67,-20,135,-20c0,0,131,0,192,58c0,0,61,57,61,178v58C696,142,641,69,575,34C575,34,508,0,421,0C421,0,268,0,168,121C168,121,68,241,68,428c0,0,0,187,100,307c0,0,100,120,253,120c0,0,87,0,154,-35c0,0,66,-34,121,-108V836H965V84c0,0,0,-200,-127,-306c0,0,-127,-106,-369,-106Z" 
id="f1_7"
transform="scale(0.001,-0.001)" />

<path d="M687,509c0,0,0,76,-44,122c0,0,-44,47,-116,47c0,0,-78,0,-126,-44c0,0,-49,-43,-61,-125ZM544,-20c0,0,-227,0,-353,114C191,94,66,209,66,417c0,0,0,204,123,321c0,0,123,118,340,118c0,0,197,0,315,-119c0,0,118,-118,118,-317V344H337c0,0,10,-94,68,-141c0,0,59,-47,163,-47c0,0,85,0,173,25c0,0,89,25,182,76V51C923,51,828,15,733,-2c0,0,-94,-18,-189,-18Z" 
id="f1_3"
transform="scale(0.001,-0.001)" />

<path d="M128,0V836H395V713c0,0,60,73,128,108c0,0,68,35,150,35c0,0,145,0,220,-89c0,0,75,-89,75,-258V0H699V389c0,0,0,109,-5,150c0,0,-5,41,-16,60c0,0,-16,26,-43,41c0,0,-27,14,-61,14c0,0,-84,0,-131,-64c0,0,-48,-65,-48,-179V0Z" 
id="f1_6"
transform="scale(0.001,-0.001)" />

<path d="M443,0C443,0,285,0,219,66c0,0,-66,66,-66,224V645H20V836H153v237H419V836H695V645H419V290c0,0,0,-58,24,-79c0,0,23,-20,91,-20H672V0Z" 
id="f1_4"
transform="scale(0.001,-0.001)" />

<path d="M354,-200c0,0,-112,175,-167,343c0,0,-56,170,-56,337c0,0,0,166,55,335c0,0,55,169,168,345H473c0,0,-100,-172,-148,-340c0,0,-48,-168,-48,-340c0,0,0,-173,48,-342c0,0,49,-168,148,-338Z" 
id="f0_13"
transform="scale(0.001,-0.001)" />

<path d="M510,93c0,0,109,0,171,86c0,0,62,86,62,238c0,0,0,151,-62,237c0,0,-62,86,-171,86c0,0,-109,0,-171,-86c0,0,-62,-86,-62,-237c0,0,0,-152,62,-238c0,0,62,-86,171,-86ZM139,-317V836H277V709c0,0,43,74,109,110c0,0,66,37,158,37c0,0,152,0,247,-121c0,0,95,-121,95,-318c0,0,0,-197,-95,-318C791,99,696,-20,544,-20c0,0,-92,0,-158,35c0,0,-66,36,-109,110V-317Z" 
id="f0_s"
transform="scale(0.001,-0.001)" />

<path d="M122,-200c0,0,99,170,148,338c0,0,49,169,49,342c0,0,0,172,-49,340c0,0,-49,168,-148,340H241c0,0,112,-176,168,-345c0,0,55,-169,55,-335c0,0,0,-167,-55,-337c0,0,-56,-168,-168,-343Z" 
id="f0_14"
transform="scale(0.001,-0.001)" />

<path d="M139,0V1161H277V475L686,836H861L418,445L880,0H701L277,408V0Z" 
id="f0_i"
transform="scale(0.001,-0.001)" />

<path d="M489,595c0,0,109,0,164,50c0,0,56,50,56,148c0,0,0,97,-56,147c0,0,-55,50,-164,50H300V595ZM150,0V1114H489c0,0,191,0,285,-80c0,0,94,-80,94,-241c0,0,0,-105,-49,-175c0,0,-49,-69,-142,-96c0,0,48,-16,94,-70c0,0,46,-54,93,-148L1017,0H855L712,285c0,0,-55,112,-107,149c0,0,-52,36,-141,36H300V0Z" 
id="f0_1i"
transform="scale(0.001,-0.001)" />

<path d="M130,747V876l123,238h96L287,876V747Zm306,0V876l123,238h96L594,876V747Z" 
id="f0_1b"
transform="scale(0.001,-0.001)" />

<path d="M150,0V1114H375L659,356l285,758h224V0H1022V978L735,214H583L296,978V0Z" 
id="f0_1j"
transform="scale(0.001,-0.001)" />

<path d="M129,747l62,239v128H348V986L225,747Zm306,0l62,239v128H654V986L531,747Z" 
id="f0_1c"
transform="scale(0.001,-0.001)" />

<path d="M727,411L522,965L318,411ZM12,0L437,1114H608L1033,0H876L774,286H272L171,0Z" 
id="f0_1k"
transform="scale(0.001,-0.001)" />

<path d="M630,-20c0,0,-253,0,-398,153C232,133,86,288,86,556c0,0,0,269,146,423c0,0,145,155,398,155c0,0,100,0,189,-26c0,0,88,-27,166,-79V869c0,0,-76,71,-163,106c0,0,-86,35,-183,35c0,0,-191,0,-292,-117C347,893,245,777,245,556c0,0,0,-220,102,-337c0,0,101,-116,292,-116c0,0,97,0,183,35c0,0,87,35,163,105V86C985,86,906,32,817,5c0,0,-88,-25,-187,-25Z" 
id="f0_1f"
transform="scale(0.001,-0.001)" />

<path d="M420,0L8,1114H297L592,292l295,822h288L763,0Z" 
id="f1_u"
transform="scale(0.001,-0.001)" />

<path d="M128,0V836H395V0Zm0,944v217H395V944Z" 
id="f1_5"
transform="scale(0.001,-0.001)" />

<path d="M274,0L54,836H313L454,260L594,836H817L958,266l141,570h259L1138,0H847L706,575L565,0Z" 
id="f1_v"
transform="scale(0.001,-0.001)" />

<path d="M530,217c0,0,176,0,269,87c0,0,93,88,93,254c0,0,0,166,-93,252c0,0,-92,87,-269,87H427V217ZM140,0V1114H443c0,0,253,0,378,-36c0,0,124,-37,213,-123c0,0,78,-76,116,-174c0,0,38,-98,38,-223c0,0,0,-126,-38,-225c0,0,-38,-99,-116,-174c0,0,-90,-87,-215,-123C819,36,694,0,443,0Z" 
id="f1_t"
transform="scale(0.001,-0.001)" />

<path d="M463,156c0,0,75,0,127,54c0,0,51,54,51,135v30H502c0,0,-83,0,-125,-28c0,0,-43,-28,-43,-83c0,0,0,-50,34,-79c0,0,34,-29,95,-29ZM357,-20c0,0,-130,0,-211,74c0,0,-80,76,-80,197c0,0,0,147,101,215c0,0,101,69,317,69H641v21c0,0,0,63,-50,92c0,0,-49,30,-155,30c0,0,-86,0,-160,-17c0,0,-74,-18,-137,-52V813c0,0,86,21,172,32c0,0,86,11,173,11c0,0,226,0,326,-90c0,0,100,-89,100,-290V0H641V124C641,124,588,48,521,13c0,0,-68,-33,-164,-33Z" 
id="f1_a"
transform="scale(0.001,-0.001)" />

<path d="M128,0V1161H395V0Z" 
id="f1_r"
transform="scale(0.001,-0.001)" />

<path d="M445,-20c0,0,-83,0,-171,12C274,-8,185,4,92,30V234c0,0,80,-39,164,-58c0,0,84,-20,170,-20c0,0,79,0,118,22c0,0,40,22,40,64c0,0,0,36,-28,53c0,0,-27,18,-108,27l-47,6c0,0,-179,23,-250,83c0,0,-72,61,-72,184c0,0,0,132,91,196c0,0,91,65,279,65c0,0,74,0,155,-12c0,0,82,-11,177,-34V606c0,0,-86,36,-165,54c0,0,-80,18,-151,18c0,0,-76,0,-113,-19c0,0,-37,-19,-37,-59c0,0,0,-32,28,-49c0,0,28,-17,100,-25l47,-7c0,0,205,-26,276,-86c0,0,71,-59,71,-187c0,0,0,-133,-98,-200c0,0,-99,-66,-294,-66Z" 
id="f1_k"
transform="scale(0.001,-0.001)" />

<path d="M121,0V288H390V0ZM631,0V288H900V0Zm509,0V288h269V0Z" 
id="f1_l"
transform="scale(0.001,-0.001)" />

<path d="M179,0V190H336V0Zm0,600V790H336V600Z" 
id="f0_1e"
transform="scale(0.001,-0.001)" />


</defs>
</svg>