<?xml version="1.0" encoding="UTF-8" standalone="no"?>
<!DOCTYPE svg PUBLIC "-//W3C//DTD SVG 1.1//EN"
"http://www.w3.org/Graphics/SVG/1.1/DTD/svg11.dtd">
<svg viewBox="0 0 909 1286" version="1.1" xmlns="http://www.w3.org/2000/svg" xmlns:xlink="http://www.w3.org/1999/xlink">
<defs>
<clipPath id="c0_45"><path d="M0,1286.2V.2H909.3v1286Z" /></clipPath>
</defs>
<g clip-path="url(#c0_45)">
<g fill="#000000" >
<use xlink:href="#f0_u" transform="matrix(12,0,0,12,86.8,741.1)" />
<use xlink:href="#f0_h" transform="matrix(12,0,0,12,100.2,741.1)" />
<use xlink:href="#f0_j" transform="matrix(12,0,0,12,111.8,741.1)" />
<use xlink:href="#f0_4" transform="matrix(12,0,0,12,123.4,741.1)" />
<use xlink:href="#f0_8" transform="matrix(12,0,0,12,134.7,741.1)" />
<use xlink:href="#f0_15" transform="matrix(12,0,0,12,148.1,741.1)" />
<use xlink:href="#f0_7" transform="matrix(12,0,0,12,162.2,741.1)" />
<use xlink:href="#f0_9" transform="matrix(12,0,0,12,167.2,741.1)" />
<use xlink:href="#f0_a" transform="matrix(12,0,0,12,176.8,741.1)" />
<use xlink:href="#f0_8" transform="matrix(12,0,0,12,184,741.1)" />
<use xlink:href="#f0_7" transform="matrix(12,0,0,12,191.5,741.1)" />
<use xlink:href="#f0_n" transform="matrix(12,0,0,12,196.6,741.1)" />
<use xlink:href="#f0_r" transform="matrix(12,0,0,12,208.2,741.1)" />
<use xlink:href="#f0_a" transform="matrix(12,0,0,12,219.9,741.1)" />
<use xlink:href="#f0_7" transform="matrix(12,0,0,12,227.1,741.1)" />
<use xlink:href="#f0_c" transform="matrix(12,0,0,12,232.1,741.1)" />
<use xlink:href="#f0_h" transform="matrix(12,0,0,12,243.3,741.1)" />
<use xlink:href="#f0_q" transform="matrix(12,0,0,12,255,741.1)" />
<use xlink:href="#f0_o" transform="matrix(12,0,0,12,266.7,741.1)" />
<use xlink:href="#f0_i" transform="matrix(12,0,0,12,276.7,741.1)" />
<use xlink:href="#f0_7" transform="matrix(12,0,0,12,281.8,741.1)" />
<use xlink:href="#f0_o" transform="matrix(12,0,0,12,286.8,741.1)" />
<use xlink:href="#f0_10" transform="matrix(12,0,0,12,296.9,741.1)" />
<use xlink:href="#f0_a" transform="matrix(12,0,0,12,313.5,741.1)" />
<use xlink:href="#f0_3" transform="matrix(12,0,0,12,320.7,741.1)" />
<use xlink:href="#f0_4" transform="matrix(12,0,0,12,332.3,741.1)" />
</g>
<g fill="#0000FF" >
<use xlink:href="#f1_d" transform="matrix(12,0,0,12,349.6,741.1)" />
<use xlink:href="#f1_i" transform="matrix(12,0,0,12,363.7,741.1)" />
<use xlink:href="#f1_i" transform="matrix(12,0,0,12,376.7,741.1)" />
<use xlink:href="#f1_9" transform="matrix(12,0,0,12,396.3,741.1)" />
<use xlink:href="#f1_4" transform="matrix(12,0,0,12,409.4,741.1)" />
<use xlink:href="#f1_f" transform="matrix(12,0,0,12,418.2,741.1)" />
<use xlink:href="#f1_b" transform="matrix(12,0,0,12,430.8,741.1)" />
<use xlink:href="#f1_3" transform="matrix(12,0,0,12,439.8,741.1)" />
</g>
<g fill="#000000" >
<use xlink:href="#f0_n" transform="matrix(12,0,0,12,458.8,741.1)" />
<use xlink:href="#f0_r" transform="matrix(12,0,0,12,470.4,741.1)" />
<use xlink:href="#f0_a" transform="matrix(12,0,0,12,482,741.1)" />
<use xlink:href="#f0_a" transform="matrix(12,0,0,12,489.2,741.1)" />
<use xlink:href="#f0_c" transform="matrix(12,0,0,12,496.4,741.1)" />
<use xlink:href="#f0_h" transform="matrix(12,0,0,12,507.5,741.1)" />
<use xlink:href="#f0_q" transform="matrix(12,0,0,12,519.1,741.1)" />
<use xlink:href="#f0_a" transform="matrix(12,0,0,12,530.9,741.1)" />
<use xlink:href="#f0_3" transform="matrix(12,0,0,12,538.1,741.1)" />
<use xlink:href="#f0_4" transform="matrix(12,0,0,12,549.7,741.1)" />
<use xlink:href="#f0_h" transform="matrix(12,0,0,12,561,741.1)" />
<use xlink:href="#f0_o" transform="matrix(12,0,0,12,578.4,741.1)" />
<use xlink:href="#f0_i" transform="matrix(12,0,0,12,588.4,741.1)" />
<use xlink:href="#f0_7" transform="matrix(12,0,0,12,593.5,741.1)" />
<use xlink:href="#f0_o" transform="matrix(12,0,0,12,598.5,741.1)" />
<use xlink:href="#f0_10" transform="matrix(12,0,0,12,608.6,741.1)" />
</g>
<g fill="#0000FF" >
<use xlink:href="#f1_h" transform="matrix(12,0,0,12,625.3,741.1)" />
<use xlink:href="#f1_f" transform="matrix(12,0,0,12,638.8,741.1)" />
<use xlink:href="#f1_6" transform="matrix(12,0,0,12,651.3,741.1)" />
<use xlink:href="#f1_4" transform="matrix(12,0,0,12,664.4,741.1)" />
<use xlink:href="#f1_5" transform="matrix(12,0,0,12,673.1,741.1)" />
<use xlink:href="#f1_6" transform="matrix(12,0,0,12,679.4,741.1)" />
<use xlink:href="#f1_g" transform="matrix(12,0,0,12,692.5,741.1)" />
<use xlink:href="#f1_3" transform="matrix(12,0,0,12,705.5,741.1)" />
</g>
<g fill="#000000" >
<use xlink:href="#f0_12" transform="matrix(12,0,0,12,717.9,741.1)" />
</g>
</g>
<image preserveAspectRatio="none" x="180" y="87" width="550" height="573" xlink:href="img/1.png" />
<image preserveAspectRatio="none" x="87" y="746" width="736" height="453" xlink:href="img/2.png" />
<defs>
<path d="M560,-20c0,0,-211,0,-319,110c0,0,-108,111,-108,328v696H285V437c0,0,0,-179,64,-258c0,0,65,-78,211,-78c0,0,144,0,209,78c0,0,65,79,65,258v677H986V418c0,0,0,-217,-108,-328C878,90,770,-20,560,-20Z" 
id="f0_u"
transform="scale(0.001,-0.001)" />

<path d="M139,0V836H277V706c0,0,49,75,116,112c0,0,67,38,154,38c0,0,144,0,218,-90c0,0,74,-89,74,-262V0H702V500c0,0,0,119,-46,177c0,0,-47,59,-139,59c0,0,-112,0,-176,-71c0,0,-64,-70,-64,-193V0Z" 
id="f0_h"
transform="scale(0.001,-0.001)" />

<path d="M460,93c0,0,109,0,171,86c0,0,63,86,63,238c0,0,0,151,-63,237c0,0,-62,86,-171,86c0,0,-109,0,-172,-86c0,0,-62,-86,-62,-237c0,0,0,-152,62,-238c0,0,63,-86,172,-86ZM426,-20c0,0,-151,0,-247,119c0,0,-95,121,-95,318c0,0,0,197,95,318c0,0,96,121,247,121c0,0,93,0,159,-37c0,0,66,-36,109,-110v452H831V0H694V125C694,125,651,51,585,15c0,0,-66,-35,-159,-35Z" 
id="f0_j"
transform="scale(0.001,-0.001)" />

<path d="M231,492l491,1c0,0,-2,112,-64,179c0,0,-61,67,-163,67c0,0,-115,0,-184,-65c0,0,-69,-64,-80,-182ZM517,-20c0,0,-199,0,-316,115C201,95,84,211,84,410c0,0,0,205,111,325c0,0,111,121,299,121c0,0,168,0,266,-109c0,0,98,-108,98,-295V385H227c0,0,9,-142,85,-216c0,0,77,-74,213,-74c0,0,80,0,154,19c0,0,74,19,147,58V42C826,42,752,11,675,-4c0,0,-78,-16,-158,-16Z" 
id="f0_4"
transform="scale(0.001,-0.001)" />

<path d="M139,0V836H277V706c0,0,43,76,112,113c0,0,70,37,169,37c0,0,14,0,31,-2c0,0,17,-2,38,-6l1,-141c0,0,-23,14,-51,20c0,0,-27,6,-60,6c0,0,-116,0,-178,-75c0,0,-62,-76,-62,-218V0Z" 
id="f0_8"
transform="scale(0.001,-0.001)" />

<path d="M482,124c0,0,231,0,338,105c0,0,107,104,107,329c0,0,0,224,-107,328c0,0,-107,104,-338,104H300V124ZM150,0V1114H459c0,0,324,0,476,-135c0,0,151,-135,151,-421c0,0,0,-288,-152,-423C934,135,782,0,459,0Z" 
id="f0_15"
transform="scale(0.001,-0.001)" />

<path d="M144,0V836H281V0Zm0,987v174H281V987Z" 
id="f0_7"
transform="scale(0.001,-0.001)" />

<path d="M376,-20c0,0,-67,0,-140,12C236,-8,164,4,83,30V172c0,0,76,-40,150,-59c0,0,74,-20,146,-20c0,0,97,0,150,33c0,0,52,33,52,94c0,0,0,56,-38,85c0,0,-38,30,-165,58l-48,11c0,0,-128,27,-184,83c0,0,-57,55,-57,152c0,0,0,118,83,182c0,0,84,65,238,65c0,0,76,0,143,-12c0,0,67,-11,124,-33V681c0,0,-58,29,-121,44c0,0,-63,15,-130,15c0,0,-102,0,-153,-31c0,0,-51,-31,-51,-94c0,0,0,-48,37,-75c0,0,36,-27,147,-52l46,-10c0,0,147,-32,208,-89c0,0,62,-57,62,-159c0,0,0,-116,-93,-184c0,0,-92,-66,-253,-66Z" 
id="f0_9"
transform="scale(0.001,-0.001)" />

<path d="M421,0C421,0,263,0,202,59c0,0,-60,60,-60,217V729H41V836H142v238H280V836H562V729H280V276c0,0,0,-102,28,-132c0,0,28,-29,113,-29H562V0Z" 
id="f0_a"
transform="scale(0.001,-0.001)" />

<path d="M510,93c0,0,109,0,171,86c0,0,62,86,62,238c0,0,0,151,-62,237c0,0,-62,86,-171,86c0,0,-109,0,-171,-86c0,0,-62,-86,-62,-237c0,0,0,-152,62,-238c0,0,62,-86,171,-86ZM544,-20c0,0,-92,0,-158,35c0,0,-66,36,-109,110V0H139V1161H277V709c0,0,43,74,109,110c0,0,66,37,158,37c0,0,152,0,247,-121c0,0,95,-121,95,-318c0,0,0,-197,-95,-318C791,99,696,-20,544,-20Z" 
id="f0_n"
transform="scale(0.001,-0.001)" />

<path d="M424,-20c0,0,-145,0,-219,88c0,0,-75,89,-75,262V836H267V335c0,0,0,-119,46,-178c0,0,47,-59,139,-59c0,0,112,0,177,71c0,0,64,71,64,193V836H830V0H693V128C693,128,643,52,577,15c0,0,-66,-35,-153,-35Z" 
id="f0_r"
transform="scale(0.001,-0.001)" />

<path d="M467,95c0,0,110,0,174,86c0,0,64,87,64,236c0,0,0,148,-64,235c0,0,-64,87,-174,87c0,0,-110,0,-174,-86c0,0,-64,-86,-64,-236c0,0,0,-150,64,-236c0,0,63,-86,174,-86Zm0,-115c0,0,-179,0,-281,115C186,95,84,212,84,417c0,0,0,206,102,322c0,0,102,117,281,117c0,0,179,0,282,-117c0,0,102,-116,102,-322c0,0,0,-205,-102,-322C749,95,646,-20,467,-20Z" 
id="f0_c"
transform="scale(0.001,-0.001)" />

<path d="M117,-176L179,62V190H336V62L213,-176Z" 
id="f0_q"
transform="scale(0.001,-0.001)" />

<path d="M495,-20c0,0,-189,0,-300,117C195,97,84,216,84,417c0,0,0,204,112,321c0,0,113,118,308,118c0,0,64,0,124,-14c0,0,60,-13,117,-39V675c0,0,-58,32,-117,48c0,0,-58,16,-118,16c0,0,-133,0,-207,-84c0,0,-74,-85,-74,-238c0,0,0,-153,74,-238c0,0,74,-84,207,-84c0,0,60,0,118,16c0,0,59,16,117,48V32C745,32,688,5,626,-7c0,0,-61,-13,-131,-13Z" 
id="f0_o"
transform="scale(0.001,-0.001)" />

<path d="M144,0V1161H281V0Z" 
id="f0_i"
transform="scale(0.001,-0.001)" />

<path d="M139,0V1161H277V475L686,836H861L418,445L880,0H701L277,408V0Z" 
id="f0_10"
transform="scale(0.001,-0.001)" />

<path d="M139,0V1161H277V706c0,0,49,75,116,112c0,0,67,38,154,38c0,0,144,0,218,-90c0,0,74,-89,74,-262V0H702V500c0,0,0,119,-46,177c0,0,-47,59,-139,59c0,0,-112,0,-176,-71c0,0,-64,-70,-64,-193V0Z" 
id="f0_3"
transform="scale(0.001,-0.001)" />

<path d="M744,410L592,853L439,410ZM8,0L420,1114H763L1175,0H887L816,203H367L297,0Z" 
id="f1_d"
transform="scale(0.001,-0.001)" />

<path d="M573,172c0,0,86,0,131,63c0,0,45,63,45,182c0,0,0,119,-45,182c0,0,-45,63,-131,63c0,0,-86,0,-132,-63c0,0,-46,-63,-46,-182c0,0,0,-119,46,-182c0,0,46,-63,132,-63ZM128,-317V836H395V713c0,0,55,73,122,108c0,0,68,35,155,35c0,0,154,0,253,-123c0,0,100,-123,100,-316c0,0,0,-193,-100,-316c0,0,-99,-121,-253,-121c0,0,-87,0,-155,33c0,0,-67,35,-122,108V-317Z" 
id="f1_i"
transform="scale(0.001,-0.001)" />

<path d="M545,-20c0,0,-106,0,-212,20C333,0,226,19,119,58V301c0,0,107,-57,207,-85c0,0,99,-29,192,-29c0,0,94,0,144,31c0,0,50,31,50,90c0,0,0,52,-34,80c0,0,-34,29,-136,51L431,464c0,0,-167,35,-244,114c0,0,-77,78,-77,211c0,0,0,166,107,256c0,0,107,89,309,89c0,0,92,0,189,-14c0,0,97,-13,200,-41V843c0,0,-92,41,-179,62c0,0,-87,21,-165,21c0,0,-103,0,-152,-28c0,0,-49,-29,-49,-88c0,0,0,-45,33,-70c0,0,33,-25,121,-43L646,672c0,0,186,-37,264,-113c0,0,79,-76,79,-216c0,0,0,-185,-110,-275c0,0,-109,-88,-334,-88Z" 
id="f1_9"
transform="scale(0.001,-0.001)" />

<path d="M443,0C443,0,285,0,219,66c0,0,-66,66,-66,224V645H20V836H153v237H419V836H695V645H419V290c0,0,0,-58,24,-79c0,0,23,-20,91,-20H672V0Z" 
id="f1_4"
transform="scale(0.001,-0.001)" />

<path d="M526,169c0,0,87,0,133,64c0,0,46,64,46,184c0,0,0,120,-46,184c0,0,-46,64,-133,64c0,0,-89,0,-135,-64c0,0,-47,-64,-47,-184c0,0,0,-120,47,-184c0,0,46,-64,135,-64Zm0,-189c0,0,-217,0,-339,115C187,95,66,211,66,417c0,0,0,206,121,322c0,0,122,117,339,117c0,0,215,0,336,-117c0,0,122,-116,122,-322c0,0,0,-206,-122,-322C862,95,741,-20,526,-20Z" 
id="f1_f"
transform="scale(0.001,-0.001)" />

<path d="M128,0V836H395V698c0,0,52,82,118,120c0,0,67,38,161,38c0,0,13,0,29,-2c0,0,15,-1,45,-4l1,-242c0,0,-35,17,-70,25c0,0,-35,7,-70,7c0,0,-103,0,-158,-66c0,0,-56,-66,-56,-189V0Z" 
id="f1_b"
transform="scale(0.001,-0.001)" />

<path d="M687,509c0,0,0,76,-44,122c0,0,-44,47,-116,47c0,0,-78,0,-126,-44c0,0,-49,-43,-61,-125ZM544,-20c0,0,-227,0,-353,114C191,94,66,209,66,417c0,0,0,204,123,321c0,0,123,118,340,118c0,0,197,0,315,-119c0,0,118,-118,118,-317V344H337c0,0,10,-94,68,-141c0,0,59,-47,163,-47c0,0,85,0,173,25c0,0,89,25,182,76V51C923,51,828,15,733,-2c0,0,-94,-18,-189,-18Z" 
id="f1_3"
transform="scale(0.001,-0.001)" />

<path d="M680,-20c0,0,-278,0,-441,154C239,134,76,290,76,556c0,0,0,267,163,423c0,0,163,155,441,155c0,0,93,0,179,-21c0,0,86,-21,165,-62V820c0,0,-80,55,-158,81c0,0,-77,25,-163,25c0,0,-154,0,-241,-98c0,0,-88,-99,-88,-272c0,0,0,-172,87,-271c0,0,88,-98,242,-98c0,0,86,0,163,25c0,0,78,26,158,80V61C1024,61,945,20,859,0c0,0,-86,-20,-179,-20Z" 
id="f1_h"
transform="scale(0.001,-0.001)" />

<path d="M128,0V836H395V713c0,0,60,73,128,108c0,0,68,35,150,35c0,0,145,0,220,-89c0,0,75,-89,75,-258V0H699V389c0,0,0,109,-5,150c0,0,-5,41,-16,60c0,0,-16,26,-43,41c0,0,-27,14,-61,14c0,0,-84,0,-131,-64c0,0,-48,-65,-48,-179V0Z" 
id="f1_6"
transform="scale(0.001,-0.001)" />

<path d="M128,0V836H395V0Zm0,944v217H395V944Z" 
id="f1_5"
transform="scale(0.001,-0.001)" />

<path d="M415,-20c0,0,-144,0,-220,87c0,0,-76,89,-76,259V836H388V752c0,0,0,-67,-1,-170c0,0,0,-103,0,-137c0,0,0,-101,5,-145c0,0,5,-44,18,-65c0,0,16,-26,43,-40c0,0,26,-14,60,-14c0,0,84,0,132,64c0,0,47,64,47,178V836H959V0H692V121C692,121,632,48,564,13c0,0,-67,-33,-149,-33Z" 
id="f1_g"
transform="scale(0.001,-0.001)" />

<path d="M179,0V190H336V0Zm0,600V790H336V600Z" 
id="f0_12"
transform="scale(0.001,-0.001)" />


</defs>
</svg>