<?xml version="1.0" encoding="UTF-8" standalone="no"?>
<!DOCTYPE svg PUBLIC "-//W3C//DTD SVG 1.1//EN"
"http://www.w3.org/Graphics/SVG/1.1/DTD/svg11.dtd">
<svg viewBox="0 0 909 1286" version="1.1" xmlns="http://www.w3.org/2000/svg" xmlns:xlink="http://www.w3.org/1999/xlink">
<defs>
<clipPath id="c0_11"><path d="M0,1286.2V.2H909.3v1286Z" /></clipPath>
<style type="text/css"><![CDATA[
.g0_11{
fill: #FFFFCC;
}
.g1_11{
fill: none;
stroke: #0000FF;
stroke-width: 1.0694444;
stroke-linecap: butt;
stroke-linejoin: miter;
}
]]></style>
</defs>
<path fill-rule="evenodd" d="M86.6,479.4h46.9V455.9H86.6v23.5Z" class="g0_11" />
<g clip-path="url(#c0_11)">
<g fill="#0000FF" >
<use xlink:href="#f0_1e" transform="matrix(12,0,0,12,86.8,473.8)" />
<use xlink:href="#f0_2b" transform="matrix(12,0,0,12,100.1,473.8)" />
<use xlink:href="#f0_2g" transform="matrix(12,0,0,12,111.2,473.8)" />
<use xlink:href="#f0_21" transform="matrix(12,0,0,12,117.3,473.8)" />
<use xlink:href="#f0_u" transform="matrix(12,0,0,12,127.5,473.8)" />
</g>
</g>
<path fill-rule="evenodd" d="M133.5,479.4h5.2V455.9h-5.2v23.5Z" class="g0_11" />
<path fill-rule="evenodd" d="M138.7,478.2H649.2V456.8H138.7v21.4Z" class="g0_11" />
<g clip-path="url(#c0_11)">
<g fill="#000000" >
<use xlink:href="#f1_1r" transform="matrix(12,0,0,12,138.9,473.8)" />
<use xlink:href="#f1_d" transform="matrix(12,0,0,12,147.6,473.8)" />
<use xlink:href="#f1_k" transform="matrix(12,0,0,12,158.7,473.8)" />
<use xlink:href="#f1_b" transform="matrix(12,0,0,12,176.3,473.8)" />
<use xlink:href="#f1_8" transform="matrix(12,0,0,12,186.2,473.8)" />
<use xlink:href="#f1_e" transform="matrix(12,0,0,12,197.5,473.8)" />
<use xlink:href="#f1_8" transform="matrix(12,0,0,12,215.1,473.8)" />
<use xlink:href="#f1_o" transform="matrix(12,0,0,12,226.2,473.8)" />
<use xlink:href="#f1_9" transform="matrix(12,0,0,12,231.3,473.8)" />
<use xlink:href="#f1_d" transform="matrix(12,0,0,12,240.9,473.8)" />
<use xlink:href="#f1_b" transform="matrix(12,0,0,12,257.9,473.8)" />
<use xlink:href="#f1_d" transform="matrix(12,0,0,12,268,473.8)" />
<use xlink:href="#f1_e" transform="matrix(12,0,0,12,279.2,473.8)" />
<use xlink:href="#f1_e" transform="matrix(12,0,0,12,290.8,473.8)" />
<use xlink:href="#f1_a" transform="matrix(12,0,0,12,302.4,473.8)" />
<use xlink:href="#f1_b" transform="matrix(12,0,0,12,313.7,473.8)" />
<use xlink:href="#f1_6" transform="matrix(12,0,0,12,323.7,473.8)" />
<use xlink:href="#f1_f" transform="matrix(12,0,0,12,336.7,473.8)" />
<use xlink:href="#f1_c" transform="matrix(12,0,0,12,348.3,473.8)" />
<use xlink:href="#f1_g" transform="matrix(12,0,0,12,353.5,473.8)" />
<use xlink:href="#f1_a" transform="matrix(12,0,0,12,360.5,473.8)" />
<use xlink:href="#f1_b" transform="matrix(12,0,0,12,371.8,473.8)" />
<use xlink:href="#f1_6" transform="matrix(12,0,0,12,381.9,473.8)" />
<use xlink:href="#f1_o" transform="matrix(12,0,0,12,389.1,473.8)" />
<use xlink:href="#f1_p" transform="matrix(12,0,0,12,394.1,473.8)" />
<use xlink:href="#f1_6" transform="matrix(12,0,0,12,410.9,473.8)" />
<use xlink:href="#f1_d" transform="matrix(12,0,0,12,418.1,473.8)" />
<use xlink:href="#f1_c" transform="matrix(12,0,0,12,435,473.8)" />
<use xlink:href="#f1_w" transform="matrix(12,0,0,12,440.1,473.8)" />
<use xlink:href="#f1_k" transform="matrix(12,0,0,12,448.5,473.8)" />
<use xlink:href="#f1_e" transform="matrix(12,0,0,12,460.2,473.8)" />
<use xlink:href="#f1_a" transform="matrix(12,0,0,12,471.8,473.8)" />
<use xlink:href="#f1_9" transform="matrix(12,0,0,12,483,473.8)" />
<use xlink:href="#f1_1f" transform="matrix(12,0,0,12,498.5,473.8)" />
<use xlink:href="#f1_d" transform="matrix(12,0,0,12,511.4,473.8)" />
<use xlink:href="#f1_e" transform="matrix(12,0,0,12,522.5,473.8)" />
<use xlink:href="#f1_e" transform="matrix(12,0,0,12,534.1,473.8)" />
<use xlink:href="#f1_a" transform="matrix(12,0,0,12,545.7,473.8)" />
<use xlink:href="#f1_b" transform="matrix(12,0,0,12,557,473.8)" />
<use xlink:href="#f1_6" transform="matrix(12,0,0,12,567.1,473.8)" />
<use xlink:href="#f1_t" transform="matrix(12,0,0,12,580.1,473.8)" />
<use xlink:href="#f1_c" transform="matrix(12,0,0,12,590.9,473.8)" />
<use xlink:href="#f1_8" transform="matrix(12,0,0,12,595.9,473.8)" />
<use xlink:href="#f1_6" transform="matrix(12,0,0,12,613,473.8)" />
<use xlink:href="#f1_7" transform="matrix(12,0,0,12,620.2,473.8)" />
<use xlink:href="#f1_a" transform="matrix(12,0,0,12,631.8,473.8)" />
</g>
</g>
<path fill-rule="evenodd" d="M86.6,508.1H117V486.7H86.6v21.4Z" class="g0_11" />
<g clip-path="url(#c0_11)">
<g fill="#000000" >
<use xlink:href="#f1_k" transform="matrix(12,0,0,12,86.8,503.7)" />
<use xlink:href="#f1_g" transform="matrix(12,0,0,12,98.4,503.7)" />
<use xlink:href="#f1_o" transform="matrix(12,0,0,12,106,503.7)" />
<use xlink:href="#f1_1e" transform="matrix(12,0,0,12,111.1,503.7)" />
</g>
</g>
<path fill-rule="evenodd" d="M117,508.1H414V486.7H117v21.4Z" class="g0_11" />
<g clip-path="url(#c0_11)">
<g fill="#0000FF" >
<use xlink:href="#f1_7" transform="matrix(12,0,0,12,117.2,503.7)" />
<use xlink:href="#f1_6" transform="matrix(12,0,0,12,128.8,503.7)" />
<use xlink:href="#f1_6" transform="matrix(12,0,0,12,136,503.7)" />
<use xlink:href="#f1_s" transform="matrix(12,0,0,12,143.2,503.7)" />
<use xlink:href="#f1_9" transform="matrix(12,0,0,12,154.8,503.7)" />
<use xlink:href="#f1_1e" transform="matrix(12,0,0,12,164.4,503.7)" />
<use xlink:href="#f1_1w" transform="matrix(12,0,0,12,170.6,503.7)" />
<use xlink:href="#f1_1w" transform="matrix(12,0,0,12,176.7,503.7)" />
<use xlink:href="#f1_c" transform="matrix(12,0,0,12,182.8,503.7)" />
<use xlink:href="#f1_6" transform="matrix(12,0,0,12,187.9,503.7)" />
<use xlink:href="#f1_k" transform="matrix(12,0,0,12,195.1,503.7)" />
<use xlink:href="#f1_e" transform="matrix(12,0,0,12,206.8,503.7)" />
<use xlink:href="#f1_a" transform="matrix(12,0,0,12,218.4,503.7)" />
<use xlink:href="#f1_9" transform="matrix(12,0,0,12,229.6,503.7)" />
<use xlink:href="#f1_b" transform="matrix(12,0,0,12,239.2,503.7)" />
<use xlink:href="#f1_d" transform="matrix(12,0,0,12,249.2,503.7)" />
<use xlink:href="#f1_e" transform="matrix(12,0,0,12,260.4,503.7)" />
<use xlink:href="#f1_e" transform="matrix(12,0,0,12,272,503.7)" />
<use xlink:href="#f1_a" transform="matrix(12,0,0,12,283.6,503.7)" />
<use xlink:href="#f1_b" transform="matrix(12,0,0,12,294.9,503.7)" />
<use xlink:href="#f1_6" transform="matrix(12,0,0,12,305,503.7)" />
<use xlink:href="#f1_l" transform="matrix(12,0,0,12,312.3,503.7)" />
<use xlink:href="#f1_8" transform="matrix(12,0,0,12,318.1,503.7)" />
<use xlink:href="#f1_s" transform="matrix(12,0,0,12,329.4,503.7)" />
<use xlink:href="#f1_s" transform="matrix(12,0,0,12,341,503.7)" />
<use xlink:href="#f1_o" transform="matrix(12,0,0,12,352.6,503.7)" />
<use xlink:href="#f1_a" transform="matrix(12,0,0,12,357.6,503.7)" />
<use xlink:href="#f1_l" transform="matrix(12,0,0,12,368.9,503.7)" />
<use xlink:href="#f1_b" transform="matrix(12,0,0,12,374.7,503.7)" />
<use xlink:href="#f1_d" transform="matrix(12,0,0,12,384.8,503.7)" />
<use xlink:href="#f1_u" transform="matrix(12,0,0,12,395.9,503.7)" />
</g>
</g>
<path d="M117.2,505.5h297" class="g1_11" />
<g clip-path="url(#c0_11)">
<g fill="#000000" >
<use xlink:href="#f1_w" transform="matrix(12,0,0,12,86.8,532.4)" />
<use xlink:href="#f1_7" transform="matrix(12,0,0,12,97.9,532.4)" />
<use xlink:href="#f1_a" transform="matrix(12,0,0,12,109.5,532.4)" />
<use xlink:href="#f1_h" transform="matrix(12,0,0,12,126.8,532.4)" />
<use xlink:href="#f1_c" transform="matrix(12,0,0,12,133.2,532.4)" />
<use xlink:href="#f1_g" transform="matrix(12,0,0,12,138.2,532.4)" />
<use xlink:href="#f1_9" transform="matrix(12,0,0,12,145.7,532.4)" />
<use xlink:href="#f1_6" transform="matrix(12,0,0,12,155.3,532.4)" />
<use xlink:href="#f1_6" transform="matrix(12,0,0,12,168.3,532.4)" />
<use xlink:href="#f1_c" transform="matrix(12,0,0,12,175.5,532.4)" />
<use xlink:href="#f1_u" transform="matrix(12,0,0,12,180.6,532.4)" />
<use xlink:href="#f1_a" transform="matrix(12,0,0,12,198.4,532.4)" />
<use xlink:href="#f1_p" transform="matrix(12,0,0,12,215.7,532.4)" />
<use xlink:href="#f1_d" transform="matrix(12,0,0,12,226.5,532.4)" />
<use xlink:href="#f1_k" transform="matrix(12,0,0,12,237.6,532.4)" />
<use xlink:href="#f1_b" transform="matrix(12,0,0,12,255.1,532.4)" />
<use xlink:href="#f1_d" transform="matrix(12,0,0,12,265.1,532.4)" />
<use xlink:href="#f1_e" transform="matrix(12,0,0,12,276.3,532.4)" />
<use xlink:href="#f1_e" transform="matrix(12,0,0,12,287.9,532.4)" />
<use xlink:href="#f1_a" transform="matrix(12,0,0,12,299.5,532.4)" />
<use xlink:href="#f1_b" transform="matrix(12,0,0,12,310.8,532.4)" />
<use xlink:href="#f1_6" transform="matrix(12,0,0,12,320.8,532.4)" />
<use xlink:href="#f1_4" transform="matrix(12,0,0,12,328.2,532.4)" />
<use xlink:href="#f1_p" transform="matrix(12,0,0,12,339.8,532.4)" />
<use xlink:href="#f1_d" transform="matrix(12,0,0,12,350.6,532.4)" />
<use xlink:href="#f1_k" transform="matrix(12,0,0,12,361.8,532.4)" />
<use xlink:href="#f1_r" transform="matrix(12,0,0,12,373.4,532.4)" />
<use xlink:href="#f1_o" transform="matrix(12,0,0,12,379.3,532.4)" />
<use xlink:href="#f1_o" transform="matrix(12,0,0,12,384.3,532.4)" />
<use xlink:href="#f1_9" transform="matrix(12,0,0,12,395.3,532.4)" />
<use xlink:href="#f1_a" transform="matrix(12,0,0,12,404.8,532.4)" />
<use xlink:href="#f1_a" transform="matrix(12,0,0,12,416.1,532.4)" />
<use xlink:href="#f1_8" transform="matrix(12,0,0,12,433.2,532.4)" />
<use xlink:href="#f1_x" transform="matrix(12,0,0,12,450.3,532.4)" />
<use xlink:href="#f1_g" transform="matrix(12,0,0,12,461.9,532.4)" />
<use xlink:href="#f1_c" transform="matrix(12,0,0,12,469.4,532.4)" />
<use xlink:href="#f1_a" transform="matrix(12,0,0,12,474.4,532.4)" />
<use xlink:href="#f1_h" transform="matrix(12,0,0,12,485.7,532.4)" />
<use xlink:href="#f1_c" transform="matrix(12,0,0,12,498.1,532.4)" />
<use xlink:href="#f1_e" transform="matrix(12,0,0,12,503.1,532.4)" />
<use xlink:href="#f1_6" transform="matrix(12,0,0,12,514.7,532.4)" />
<use xlink:href="#f1_g" transform="matrix(12,0,0,12,521.9,532.4)" />
<use xlink:href="#f1_d" transform="matrix(12,0,0,12,529.1,532.4)" />
<use xlink:href="#f1_f" transform="matrix(12,0,0,12,540.3,532.4)" />
<use xlink:href="#f1_k" transform="matrix(12,0,0,12,551.9,532.4)" />
<use xlink:href="#f1_b" transform="matrix(12,0,0,12,563.5,532.4)" />
<use xlink:href="#f1_6" transform="matrix(12,0,0,12,573.5,532.4)" />
<use xlink:href="#f1_c" transform="matrix(12,0,0,12,580.8,532.4)" />
<use xlink:href="#f1_d" transform="matrix(12,0,0,12,585.9,532.4)" />
<use xlink:href="#f1_e" transform="matrix(12,0,0,12,597,532.4)" />
<use xlink:href="#f1_s" transform="matrix(12,0,0,12,614.6,532.4)" />
<use xlink:href="#f1_8" transform="matrix(12,0,0,12,626.1,532.4)" />
<use xlink:href="#f1_e" transform="matrix(12,0,0,12,637.3,532.4)" />
<use xlink:href="#f1_a" transform="matrix(12,0,0,12,649,532.4)" />
<use xlink:href="#f1_o" transform="matrix(12,0,0,12,660.2,532.4)" />
<use xlink:href="#f1_l" transform="matrix(12,0,0,12,665.3,532.4)" />
<use xlink:href="#f1_1r" transform="matrix(12,0,0,12,677,532.4)" />
<use xlink:href="#f1_d" transform="matrix(12,0,0,12,685.7,532.4)" />
<use xlink:href="#f1_k" transform="matrix(12,0,0,12,696.9,532.4)" />
<use xlink:href="#f1_u" transform="matrix(12,0,0,12,714.5,532.4)" />
<use xlink:href="#f1_8" transform="matrix(12,0,0,12,732.3,532.4)" />
<use xlink:href="#f1_p" transform="matrix(12,0,0,12,743.5,532.4)" />
<use xlink:href="#f1_n" transform="matrix(12,0,0,12,760.2,532.4)" />
<use xlink:href="#f1_c" transform="matrix(12,0,0,12,775.2,532.4)" />
<use xlink:href="#f1_9" transform="matrix(12,0,0,12,780.3,532.4)" />
<use xlink:href="#f1_7" transform="matrix(12,0,0,12,789.9,532.4)" />
<use xlink:href="#f1_6" transform="matrix(12,0,0,12,86.8,561)" />
<use xlink:href="#f1_d" transform="matrix(12,0,0,12,94,561)" />
<use xlink:href="#f1_9" transform="matrix(12,0,0,12,111.1,561)" />
<use xlink:href="#f1_i" transform="matrix(12,0,0,12,120.5,561)" />
<use xlink:href="#f1_c" transform="matrix(12,0,0,12,131.2,561)" />
<use xlink:href="#f1_s" transform="matrix(12,0,0,12,136.3,561)" />
<use xlink:href="#f1_6" transform="matrix(12,0,0,12,153.8,561)" />
<use xlink:href="#f1_7" transform="matrix(12,0,0,12,161,561)" />
<use xlink:href="#f1_c" transform="matrix(12,0,0,12,172.6,561)" />
<use xlink:href="#f1_9" transform="matrix(12,0,0,12,177.6,561)" />
<use xlink:href="#f1_c" transform="matrix(12,0,0,12,193.1,561)" />
<use xlink:href="#f1_e" transform="matrix(12,0,0,12,198.1,561)" />
<use xlink:href="#f1_h" transform="matrix(12,0,0,12,215.5,561)" />
<use xlink:href="#f1_k" transform="matrix(12,0,0,12,221.9,561)" />
<use xlink:href="#f1_6" transform="matrix(12,0,0,12,233.5,561)" />
<use xlink:href="#f1_k" transform="matrix(12,0,0,12,240.7,561)" />
<use xlink:href="#f1_g" transform="matrix(12,0,0,12,252.5,561)" />
<use xlink:href="#f1_a" transform="matrix(12,0,0,12,259.5,561)" />
<use xlink:href="#f1_1e" transform="matrix(12,0,0,12,270.8,561)" />
<use xlink:href="#f1_1k" transform="matrix(12,0,0,12,86.8,1156.2)" />
<use xlink:href="#f1_o" transform="matrix(12,0,0,12,99.3,1156.2)" />
<use xlink:href="#f1_9" transform="matrix(12,0,0,12,104.3,1156.2)" />
<use xlink:href="#f1_d" transform="matrix(12,0,0,12,113.9,1156.2)" />
<use xlink:href="#f1_4" transform="matrix(12,0,0,12,125.1,1156.2)" />
<use xlink:href="#f1_c" transform="matrix(12,0,0,12,136.8,1156.2)" />
<use xlink:href="#f1_h" transform="matrix(12,0,0,12,141.9,1156.2)" />
<use xlink:href="#f1_c" transform="matrix(12,0,0,12,154.2,1156.2)" />
<use xlink:href="#f1_6" transform="matrix(12,0,0,12,159.3,1156.2)" />
<use xlink:href="#f1_r" transform="matrix(12,0,0,12,166.5,1156.2)" />
<use xlink:href="#f1_9" transform="matrix(12,0,0,12,172.3,1156.2)" />
<use xlink:href="#f1_p" transform="matrix(12,0,0,12,187.7,1156.2)" />
<use xlink:href="#f1_d" transform="matrix(12,0,0,12,198.5,1156.2)" />
<use xlink:href="#f1_k" transform="matrix(12,0,0,12,209.7,1156.2)" />
<use xlink:href="#f1_g" transform="matrix(12,0,0,12,221.3,1156.2)" />
<use xlink:href="#f1_h" transform="matrix(12,0,0,12,234.7,1156.2)" />
<use xlink:href="#f1_c" transform="matrix(12,0,0,12,241.1,1156.2)" />
<use xlink:href="#f1_g" transform="matrix(12,0,0,12,246.2,1156.2)" />
<use xlink:href="#f1_9" transform="matrix(12,0,0,12,253.7,1156.2)" />
<use xlink:href="#f1_6" transform="matrix(12,0,0,12,263.3,1156.2)" />
<use xlink:href="#f1_6" transform="matrix(12,0,0,12,276.4,1156.2)" />
<use xlink:href="#f1_c" transform="matrix(12,0,0,12,283.6,1156.2)" />
<use xlink:href="#f1_u" transform="matrix(12,0,0,12,288.6,1156.2)" />
<use xlink:href="#f1_a" transform="matrix(12,0,0,12,306.5,1156.2)" />
<use xlink:href="#f1_4" transform="matrix(12,0,0,12,317.8,1156.2)" />
<use xlink:href="#f1_p" transform="matrix(12,0,0,12,329.4,1156.2)" />
<use xlink:href="#f1_d" transform="matrix(12,0,0,12,340.2,1156.2)" />
<use xlink:href="#f1_k" transform="matrix(12,0,0,12,351.4,1156.2)" />
<use xlink:href="#f1_r" transform="matrix(12,0,0,12,363,1156.2)" />
<use xlink:href="#f1_o" transform="matrix(12,0,0,12,368.9,1156.2)" />
<use xlink:href="#f1_o" transform="matrix(12,0,0,12,374,1156.2)" />
<use xlink:href="#f1_7" transform="matrix(12,0,0,12,385,1156.2)" />
<use xlink:href="#f1_8" transform="matrix(12,0,0,12,396.4,1156.2)" />
<use xlink:href="#f1_t" transform="matrix(12,0,0,12,407.7,1156.2)" />
<use xlink:href="#f1_a" transform="matrix(12,0,0,12,418.5,1156.2)" />
<use xlink:href="#f1_6" transform="matrix(12,0,0,12,435.6,1156.2)" />
<use xlink:href="#f1_d" transform="matrix(12,0,0,12,442.8,1156.2)" />
<use xlink:href="#f1_8" transform="matrix(12,0,0,12,459.9,1156.2)" />
<use xlink:href="#f1_b" transform="matrix(12,0,0,12,471.1,1156.2)" />
<use xlink:href="#f1_b" transform="matrix(12,0,0,12,481.1,1156.2)" />
<use xlink:href="#f1_a" transform="matrix(12,0,0,12,491.2,1156.2)" />
<use xlink:href="#f1_s" transform="matrix(12,0,0,12,502.5,1156.2)" />
<use xlink:href="#f1_6" transform="matrix(12,0,0,12,514.1,1156.2)" />
<use xlink:href="#f1_6" transform="matrix(12,0,0,12,527.2,1156.2)" />
<use xlink:href="#f1_7" transform="matrix(12,0,0,12,534.4,1156.2)" />
<use xlink:href="#f1_a" transform="matrix(12,0,0,12,546,1156.2)" />
<use xlink:href="#f1_w" transform="matrix(12,0,0,12,563.1,1156.2)" />
<use xlink:href="#f1_a" transform="matrix(12,0,0,12,571.2,1156.2)" />
<use xlink:href="#f1_g" transform="matrix(12,0,0,12,582.5,1156.2)" />
<use xlink:href="#f1_u" transform="matrix(12,0,0,12,589.7,1156.2)" />
<use xlink:href="#f1_9" transform="matrix(12,0,0,12,607.4,1156.2)" />
<use xlink:href="#f1_d" transform="matrix(12,0,0,12,622.9,1156.2)" />
<use xlink:href="#f1_h" transform="matrix(12,0,0,12,634.2,1156.2)" />
<use xlink:href="#f1_18" transform="matrix(12,0,0,12,646.4,1156.2)" />
<use xlink:href="#f1_a" transform="matrix(12,0,0,12,658,1156.2)" />
<use xlink:href="#f1_g" transform="matrix(12,0,0,12,669.3,1156.2)" />
<use xlink:href="#f1_t" transform="matrix(12,0,0,12,676.8,1156.2)" />
<use xlink:href="#f1_c" transform="matrix(12,0,0,12,687.6,1156.2)" />
<use xlink:href="#f1_b" transform="matrix(12,0,0,12,692.6,1156.2)" />
<use xlink:href="#f1_a" transform="matrix(12,0,0,12,702.7,1156.2)" />
<use xlink:href="#f1_l" transform="matrix(12,0,0,12,714,1156.2)" />
<use xlink:href="#f1_m" transform="matrix(12,0,0,12,725.7,1156.2)" />
<use xlink:href="#f1_p" transform="matrix(12,0,0,12,738.3,1156.2)" />
<use xlink:href="#f1_e" transform="matrix(12,0,0,12,755,1156.2)" />
<use xlink:href="#f1_d" transform="matrix(12,0,0,12,766.7,1156.2)" />
<use xlink:href="#f1_n" transform="matrix(12,0,0,12,777.8,1156.2)" />
<use xlink:href="#f1_p" transform="matrix(12,0,0,12,86.8,1184.8)" />
<use xlink:href="#f1_d" transform="matrix(12,0,0,12,97.6,1184.8)" />
<use xlink:href="#f1_k" transform="matrix(12,0,0,12,108.8,1184.8)" />
<use xlink:href="#f1_i" transform="matrix(12,0,0,12,126.3,1184.8)" />
<use xlink:href="#f1_e" transform="matrix(12,0,0,12,137,1184.8)" />
<use xlink:href="#f1_d" transform="matrix(12,0,0,12,148.6,1184.8)" />
<use xlink:href="#f1_n" transform="matrix(12,0,0,12,159.7,1184.8)" />
<use xlink:href="#f1_6" transform="matrix(12,0,0,12,180.5,1184.8)" />
<use xlink:href="#f1_7" transform="matrix(12,0,0,12,187.7,1184.8)" />
<use xlink:href="#f1_a" transform="matrix(12,0,0,12,199.3,1184.8)" />
<use xlink:href="#f1_f" transform="matrix(12,0,0,12,216.4,1184.8)" />
<use xlink:href="#f1_g" transform="matrix(12,0,0,12,228,1184.8)" />
<use xlink:href="#f1_c" transform="matrix(12,0,0,12,235.7,1184.8)" />
<use xlink:href="#f1_o" transform="matrix(12,0,0,12,240.7,1184.8)" />
<use xlink:href="#f1_o" transform="matrix(12,0,0,12,245.7,1184.8)" />
<use xlink:href="#f1_1e" transform="matrix(12,0,0,12,250.9,1184.8)" />
<use xlink:href="#f1_o" transform="matrix(12,0,0,12,263,1184.8)" />
<use xlink:href="#f1_8" transform="matrix(12,0,0,12,267.9,1184.8)" />
<use xlink:href="#f1_n" transform="matrix(12,0,0,12,279.1,1184.8)" />
<use xlink:href="#f1_p" transform="matrix(12,0,0,12,294.1,1184.8)" />
<use xlink:href="#f1_a" transform="matrix(12,0,0,12,305,1184.8)" />
<use xlink:href="#f1_g" transform="matrix(12,0,0,12,316.3,1184.8)" />
<use xlink:href="#f1_4" transform="matrix(12,0,0,12,323.7,1184.8)" />
<use xlink:href="#f1_b" transform="matrix(12,0,0,12,335.5,1184.8)" />
<use xlink:href="#f1_o" transform="matrix(12,0,0,12,345.6,1184.8)" />
<use xlink:href="#f1_c" transform="matrix(12,0,0,12,350.6,1184.8)" />
<use xlink:href="#f1_b" transform="matrix(12,0,0,12,355.6,1184.8)" />
<use xlink:href="#f1_i" transform="matrix(12,0,0,12,365.7,1184.8)" />
</g>
<g fill="#0000FF" >
<use xlink:href="#f2_f" transform="matrix(12,0,0,12,382.4,1184.8)" />
<use xlink:href="#f2_17" transform="matrix(12,0,0,12,393.3,1184.8)" />
<use xlink:href="#f2_3" transform="matrix(12,0,0,12,406.4,1184.8)" />
<use xlink:href="#f2_f" transform="matrix(12,0,0,12,418.8,1184.8)" />
<use xlink:href="#f2_18" transform="matrix(12,0,0,12,429.6,1184.8)" />
<use xlink:href="#f2_13" transform="matrix(12,0,0,12,441.8,1184.8)" />
<use xlink:href="#f2_g" transform="matrix(12,0,0,12,454.9,1184.8)" />
<use xlink:href="#f2_16" transform="matrix(12,0,0,12,467.6,1184.8)" />
</g>
<g fill="#000000" >
<use xlink:href="#f1_4" transform="matrix(12,0,0,12,479.4,1184.8)" />
<use xlink:href="#f1_b" transform="matrix(12,0,0,12,491.2,1184.8)" />
<use xlink:href="#f1_o" transform="matrix(12,0,0,12,501.2,1184.8)" />
<use xlink:href="#f1_c" transform="matrix(12,0,0,12,506.3,1184.8)" />
<use xlink:href="#f1_b" transform="matrix(12,0,0,12,511.3,1184.8)" />
<use xlink:href="#f1_i" transform="matrix(12,0,0,12,521.4,1184.8)" />
</g>
<g fill="#0000FF" >
<use xlink:href="#f2_n" transform="matrix(12,0,0,12,537.9,1184.8)" />
<use xlink:href="#f2_f" transform="matrix(12,0,0,12,552.1,1184.8)" />
<use xlink:href="#f2_f" transform="matrix(12,0,0,12,563,1184.8)" />
<use xlink:href="#f2_3" transform="matrix(12,0,0,12,573.8,1184.8)" />
<use xlink:href="#f2_q" transform="matrix(12,0,0,12,586.2,1184.8)" />
<use xlink:href="#f2_4" transform="matrix(12,0,0,12,599.3,1184.8)" />
</g>
<g fill="#000000" >
<use xlink:href="#f1_l" transform="matrix(12,0,0,12,608.2,1184.8)" />
<use xlink:href="#f1_19" transform="matrix(12,0,0,12,619.8,1184.8)" />
<use xlink:href="#f1_6" transform="matrix(12,0,0,12,625.2,1184.8)" />
<use xlink:href="#f1_u" transform="matrix(12,0,0,12,638.3,1184.8)" />
<use xlink:href="#f1_c" transform="matrix(12,0,0,12,656.2,1184.8)" />
<use xlink:href="#f1_q" transform="matrix(12,0,0,12,661.2,1184.8)" />
<use xlink:href="#f1_7" transform="matrix(12,0,0,12,672.8,1184.8)" />
<use xlink:href="#f1_6" transform="matrix(12,0,0,12,684.4,1184.8)" />
<use xlink:href="#f1_x" transform="matrix(12,0,0,12,697.5,1184.8)" />
<use xlink:href="#f1_a" transform="matrix(12,0,0,12,709.2,1184.8)" />
<use xlink:href="#f1_8" transform="matrix(12,0,0,12,726.3,1184.8)" />
<use xlink:href="#f1_q" transform="matrix(12,0,0,12,743.2,1184.8)" />
<use xlink:href="#f1_d" transform="matrix(12,0,0,12,754.8,1184.8)" />
<use xlink:href="#f1_d" transform="matrix(12,0,0,12,766.1,1184.8)" />
<use xlink:href="#f1_f" transform="matrix(12,0,0,12,777.3,1184.8)" />
</g>
</g>
<image preserveAspectRatio="none" x="87" y="87" width="736" height="343" xlink:href="img/1.png" />
<image preserveAspectRatio="none" x="87" y="565" width="736" height="546" xlink:href="img/2.png" />
<defs>
<path d="M102,0V1051H354L818,235c0,0,-13,113,-13,205v611h195V0H742L284,809c0,0,14,-117,14,-189V0Z" 
id="f0_1e"
transform="scale(0.001,-0.001)" />

<path d="M461,129c0,0,193,0,193,276c0,0,0,144,-47,209c0,0,-47,65,-136,65c0,0,-191,0,-191,-274c0,0,0,-135,46,-205c0,0,47,-71,135,-71Zm2,-143c0,0,-188,0,-296,111C167,97,60,209,60,405c0,0,0,194,107,306c0,0,108,111,301,111c0,0,197,0,301,-107c0,0,105,-108,105,-310c0,0,0,-197,-109,-308C765,97,656,-14,463,-14Z" 
id="f0_2b"
transform="scale(0.001,-0.001)" />

<path d="M313,-13c0,0,-92,0,-142,50c0,0,-50,50,-50,152V666H19V808H131l66,189H328V808H481V666H328V245c0,0,0,-59,23,-87c0,0,22,-28,69,-28c0,0,25,0,70,10V11c0,0,-77,-24,-177,-24Z" 
id="f0_2g"
transform="scale(0.001,-0.001)" />

<path d="M595,495c0,0,-6,98,-47,147c0,0,-41,49,-111,49c0,0,-74,0,-114,-51c0,0,-40,-52,-42,-145ZM437,-14c0,0,-182,0,-280,107c0,0,-97,108,-97,315c0,0,0,199,99,307c0,0,99,107,281,107c0,0,174,0,266,-115c0,0,91,-115,91,-337v-6H280c0,0,0,-118,43,-179c0,0,44,-60,125,-60c0,0,111,0,140,97L786,205c0,0,-86,-219,-349,-219Z" 
id="f0_21"
transform="scale(0.001,-0.001)" />

<path d="M147,0V209H362V0Zm0,562V771H362V562Z" 
id="f0_u"
transform="scale(0.001,-0.001)" />

<path d="M391,0V530L-2,1114H159L468,656l307,458H937L543,530V0Z" 
id="f1_1r"
transform="scale(0.001,-0.001)" />

<path d="M467,95c0,0,110,0,174,86c0,0,64,87,64,236c0,0,0,148,-64,235c0,0,-64,87,-174,87c0,0,-110,0,-174,-86c0,0,-64,-86,-64,-236c0,0,0,-150,64,-236c0,0,63,-86,174,-86Zm0,-115c0,0,-179,0,-281,115C186,95,84,212,84,417c0,0,0,206,102,322c0,0,102,117,281,117c0,0,179,0,282,-117c0,0,102,-116,102,-322c0,0,0,-205,-102,-322C749,95,646,-20,467,-20Z" 
id="f1_d"
transform="scale(0.001,-0.001)" />

<path d="M424,-20c0,0,-145,0,-219,88c0,0,-75,89,-75,262V836H267V335c0,0,0,-119,46,-178c0,0,47,-59,139,-59c0,0,112,0,177,71c0,0,64,71,64,193V836H830V0H693V128C693,128,643,52,577,15c0,0,-66,-35,-153,-35Z" 
id="f1_k"
transform="scale(0.001,-0.001)" />

<path d="M495,-20c0,0,-189,0,-300,117C195,97,84,216,84,417c0,0,0,204,112,321c0,0,113,118,308,118c0,0,64,0,124,-14c0,0,60,-13,117,-39V675c0,0,-58,32,-117,48c0,0,-58,16,-118,16c0,0,-133,0,-207,-84c0,0,-74,-85,-74,-238c0,0,0,-153,74,-238c0,0,74,-84,207,-84c0,0,60,0,118,16c0,0,59,16,117,48V32C745,32,688,5,626,-7c0,0,-61,-13,-131,-13Z" 
id="f1_b"
transform="scale(0.001,-0.001)" />

<path d="M408,93c0,0,115,0,184,81c0,0,69,81,69,215v30H524c0,0,-167,0,-231,-38c0,0,-64,-38,-64,-129c0,0,0,-73,48,-116c0,0,48,-43,131,-43ZM372,-20c0,0,-128,0,-204,70c0,0,-76,72,-76,193c0,0,0,141,94,212c0,0,95,72,282,72H661v13c0,0,0,95,-62,147c0,0,-63,52,-175,52c0,0,-72,0,-140,-17c0,0,-68,-17,-130,-51V798c0,0,75,29,146,43c0,0,71,15,138,15c0,0,181,0,270,-95c0,0,90,-94,90,-285V0H661V127C661,127,614,51,544,15c0,0,-70,-35,-172,-35Z" 
id="f1_8"
transform="scale(0.001,-0.001)" />

<path d="M139,0V836H277V706c0,0,49,75,116,112c0,0,67,38,154,38c0,0,144,0,218,-90c0,0,74,-89,74,-262V0H702V500c0,0,0,119,-46,177c0,0,-47,59,-139,59c0,0,-112,0,-176,-71c0,0,-64,-70,-64,-193V0Z" 
id="f1_e"
transform="scale(0.001,-0.001)" />

<path d="M144,0V1161H281V0Z" 
id="f1_o"
transform="scale(0.001,-0.001)" />

<path d="M376,-20c0,0,-67,0,-140,12C236,-8,164,4,83,30V172c0,0,76,-40,150,-59c0,0,74,-20,146,-20c0,0,97,0,150,33c0,0,52,33,52,94c0,0,0,56,-38,85c0,0,-38,30,-165,58l-48,11c0,0,-128,27,-184,83c0,0,-57,55,-57,152c0,0,0,118,83,182c0,0,84,65,238,65c0,0,76,0,143,-12c0,0,67,-11,124,-33V681c0,0,-58,29,-121,44c0,0,-63,15,-130,15c0,0,-102,0,-153,-31c0,0,-51,-31,-51,-94c0,0,0,-48,37,-75c0,0,36,-27,147,-52l46,-10c0,0,147,-32,208,-89c0,0,62,-57,62,-159c0,0,0,-116,-93,-184c0,0,-92,-66,-253,-66Z" 
id="f1_9"
transform="scale(0.001,-0.001)" />

<path d="M231,492l491,1c0,0,-2,112,-64,179c0,0,-61,67,-163,67c0,0,-115,0,-184,-65c0,0,-69,-64,-80,-182ZM517,-20c0,0,-199,0,-316,115C201,95,84,211,84,410c0,0,0,205,111,325c0,0,111,121,299,121c0,0,168,0,266,-109c0,0,98,-108,98,-295V385H227c0,0,9,-142,85,-216c0,0,77,-74,213,-74c0,0,80,0,154,19c0,0,74,19,147,58V42C826,42,752,11,675,-4c0,0,-78,-16,-158,-16Z" 
id="f1_a"
transform="scale(0.001,-0.001)" />

<path d="M421,0C421,0,263,0,202,59c0,0,-60,60,-60,217V729H41V836H142v238H280V836H562V729H280V276c0,0,0,-102,28,-132c0,0,28,-29,113,-29H562V0Z" 
id="f1_6"
transform="scale(0.001,-0.001)" />

<path d="M460,93c0,0,109,0,171,86c0,0,63,86,63,238c0,0,0,151,-63,237c0,0,-62,86,-171,86c0,0,-109,0,-172,-86c0,0,-62,-86,-62,-237c0,0,0,-152,62,-238c0,0,63,-86,172,-86ZM426,-20c0,0,-151,0,-247,119c0,0,-95,121,-95,318c0,0,0,197,95,318c0,0,96,121,247,121c0,0,93,0,159,-37c0,0,66,-36,109,-110v452H831V0H694V125C694,125,651,51,585,15c0,0,-66,-35,-159,-35Z" 
id="f1_f"
transform="scale(0.001,-0.001)" />

<path d="M144,0V836H281V0Zm0,987v174H281V987Z" 
id="f1_c"
transform="scale(0.001,-0.001)" />

<path d="M139,0V836H277V706c0,0,43,76,112,113c0,0,70,37,169,37c0,0,14,0,31,-2c0,0,17,-2,38,-6l1,-141c0,0,-23,14,-51,20c0,0,-27,6,-60,6c0,0,-116,0,-178,-75c0,0,-62,-76,-62,-218V0Z" 
id="f1_g"
transform="scale(0.001,-0.001)" />

<path d="M121,-317v116h81c0,0,57,0,88,26c0,0,31,27,69,127l25,62L46,836H191L453,182L714,836H859L492,-76c0,0,-58,-150,-113,-195c0,0,-55,-46,-148,-46Z" 
id="f1_p"
transform="scale(0.001,-0.001)" />

<path d="M391,0V987H-3v127H938V987H543V0Z" 
id="f1_w"
transform="scale(0.001,-0.001)" />

<path d="M630,-20c0,0,-253,0,-398,153C232,133,86,288,86,556c0,0,0,269,146,423c0,0,145,155,398,155c0,0,100,0,189,-26c0,0,88,-27,166,-79V869c0,0,-76,71,-163,106c0,0,-86,35,-183,35c0,0,-191,0,-292,-117C347,893,245,777,245,556c0,0,0,-220,102,-337c0,0,101,-116,292,-116c0,0,97,0,183,35c0,0,87,35,163,105V86C985,86,906,32,817,5c0,0,-88,-25,-187,-25Z" 
id="f1_1f"
transform="scale(0.001,-0.001)" />

<path d="M359,0L46,836H191L453,134L714,836H859L546,0Z" 
id="f1_t"
transform="scale(0.001,-0.001)" />

<path d="M139,0V1161H277V706c0,0,49,75,116,112c0,0,67,38,154,38c0,0,144,0,218,-90c0,0,74,-89,74,-262V0H702V500c0,0,0,119,-46,177c0,0,-47,59,-139,59c0,0,-112,0,-176,-71c0,0,-64,-70,-64,-193V0Z" 
id="f1_7"
transform="scale(0.001,-0.001)" />

<path d="M179,0V190H336V0Zm0,600V790H336V600Z" 
id="f1_1e"
transform="scale(0.001,-0.001)" />

<path d="M510,93c0,0,109,0,171,86c0,0,62,86,62,238c0,0,0,151,-62,237c0,0,-62,86,-171,86c0,0,-109,0,-171,-86c0,0,-62,-86,-62,-237c0,0,0,-152,62,-238c0,0,62,-86,171,-86ZM139,-317V836H277V709c0,0,43,74,109,110c0,0,66,37,158,37c0,0,152,0,247,-121c0,0,95,-121,95,-318c0,0,0,-197,-95,-318C791,99,696,-20,544,-20c0,0,-92,0,-158,35c0,0,-66,36,-109,110V-317Z" 
id="f1_s"
transform="scale(0.001,-0.001)" />

<path d="M0,-141L388,1114H514L127,-141Z" 
id="f1_1w"
transform="scale(0.001,-0.001)" />

<path d="M163,0V190H321V0Z" 
id="f1_l"
transform="scale(0.001,-0.001)" />

<path d="M139,0V836H277V706c0,0,47,77,112,113c0,0,66,37,156,37c0,0,91,0,155,-47c0,0,64,-46,94,-134c0,0,52,93,123,137c0,0,72,44,169,44c0,0,130,0,201,-92c0,0,71,-91,71,-260V0H1220V500c0,0,0,120,-42,178c0,0,-43,58,-130,58c0,0,-107,0,-169,-71c0,0,-62,-70,-62,-193V0H680V500c0,0,0,121,-43,179c0,0,-42,57,-131,57c0,0,-105,0,-167,-71c0,0,-62,-71,-62,-193V0Z" 
id="f1_u"
transform="scale(0.001,-0.001)" />

<path d="M166,0V729H35V836H166v58c0,0,0,139,65,203c0,0,65,64,206,64H567V1046H435c0,0,-74,0,-102,-29c0,0,-29,-30,-29,-107V836H530V729H304V0Z" 
id="f1_h"
transform="scale(0.001,-0.001)" />

<path d="M117,-176L179,62V190H336V62L213,-176Z" 
id="f1_4"
transform="scale(0.001,-0.001)" />

<path d="M132,763l62,237v114H351V1000L228,763Z" 
id="f1_r"
transform="scale(0.001,-0.001)" />

<path d="M510,93c0,0,109,0,171,86c0,0,62,86,62,238c0,0,0,151,-62,237c0,0,-62,86,-171,86c0,0,-109,0,-171,-86c0,0,-62,-86,-62,-237c0,0,0,-152,62,-238c0,0,62,-86,171,-86ZM544,-20c0,0,-92,0,-158,35c0,0,-66,36,-109,110V0H139V1161H277V709c0,0,43,74,109,110c0,0,66,37,158,37c0,0,152,0,247,-121c0,0,95,-121,95,-318c0,0,0,-197,-95,-318C791,99,696,-20,544,-20Z" 
id="f1_x"
transform="scale(0.001,-0.001)" />

<path d="M283,0L65,836H202L373,184L544,836H706L878,184l171,652h137L967,0H806L626,685L445,0Z" 
id="f1_n"
transform="scale(0.001,-0.001)" />

<path d="M139,0V1161H277V475L686,836H861L418,445L880,0H701L277,408V0Z" 
id="f1_i"
transform="scale(0.001,-0.001)" />

<path d="M727,411L522,965L318,411ZM12,0L437,1114H608L1033,0H876L774,286H272L171,0Z" 
id="f1_1k"
transform="scale(0.001,-0.001)" />

<path d="M458,-20c0,0,-79,0,-168,17c0,0,-89,17,-184,52V204c0,0,91,-51,179,-77c0,0,88,-26,173,-26c0,0,129,0,199,50c0,0,70,51,70,145c0,0,0,82,-50,129c0,0,-50,46,-165,69l-92,18c0,0,-169,34,-244,105c0,0,-75,72,-75,199c0,0,0,148,104,233c0,0,104,85,287,85c0,0,78,0,159,-14c0,0,81,-14,166,-42V931c0,0,-85,41,-161,61c0,0,-76,20,-147,20c0,0,-123,0,-190,-48c0,0,-67,-48,-67,-136c0,0,0,-73,45,-111c0,0,44,-38,168,-61l91,-19c0,0,168,-32,249,-113c0,0,80,-81,80,-216c0,0,0,-162,-109,-246c0,0,-108,-82,-318,-82Z" 
id="f1_18"
transform="scale(0.001,-0.001)" />

<path d="M542,124c0,0,121,0,180,50c0,0,58,51,58,154c0,0,0,105,-58,154c0,0,-59,50,-180,50H300V124ZM523,654c0,0,111,0,165,41c0,0,54,42,54,127c0,0,0,84,-54,126c0,0,-54,42,-165,42H300V654ZM150,0V1114H535c0,0,172,0,265,-72c0,0,94,-72,94,-204c0,0,0,-102,-48,-162c0,0,-48,-61,-140,-76c0,0,111,-23,172,-99c0,0,62,-76,62,-189c0,0,0,-149,-102,-231C838,81,737,0,550,0Z" 
id="f1_m"
transform="scale(0.001,-0.001)" />

<path d="M547,-20c0,0,-226,0,-354,114C193,94,66,210,66,417c0,0,0,207,127,323c0,0,128,116,354,116c0,0,66,0,129,-12c0,0,64,-11,128,-34V592c0,0,-55,37,-110,55c0,0,-54,18,-113,18c0,0,-112,0,-175,-65c0,0,-62,-66,-62,-183c0,0,0,-117,62,-183c0,0,63,-65,175,-65c0,0,62,0,119,19c0,0,56,19,104,55V24C804,24,741,1,676,-9c0,0,-64,-11,-129,-11Z" 
id="f2_f"
transform="scale(0.001,-0.001)" />

<path d="M128,0V1161H395V713c0,0,60,73,128,108c0,0,68,35,150,35c0,0,145,0,220,-89c0,0,75,-89,75,-258V0H699V388c0,0,0,110,-5,151c0,0,-5,41,-16,60c0,0,-16,26,-43,41c0,0,-27,14,-61,14c0,0,-84,0,-131,-64c0,0,-48,-65,-48,-179V0Z" 
id="f2_17"
transform="scale(0.001,-0.001)" />

<path d="M687,509c0,0,0,76,-44,122c0,0,-44,47,-116,47c0,0,-78,0,-126,-44c0,0,-49,-43,-61,-125ZM544,-20c0,0,-227,0,-353,114C191,94,66,209,66,417c0,0,0,204,123,321c0,0,123,118,340,118c0,0,197,0,315,-119c0,0,118,-118,118,-317V344H337c0,0,10,-94,68,-141c0,0,59,-47,163,-47c0,0,85,0,173,25c0,0,89,25,182,76V51C923,51,828,15,733,-2c0,0,-94,-18,-189,-18Z" 
id="f2_3"
transform="scale(0.001,-0.001)" />

<path d="M128,0V1161H395V529L703,836h310L605,452L1045,0H721L395,349V0Z" 
id="f2_18"
transform="scale(0.001,-0.001)" />

<path d="M573,172c0,0,86,0,131,63c0,0,45,63,45,182c0,0,0,119,-45,182c0,0,-45,63,-131,63c0,0,-86,0,-132,-63c0,0,-46,-63,-46,-182c0,0,0,-119,46,-182c0,0,46,-63,132,-63ZM672,-20c0,0,-87,0,-155,33c0,0,-67,35,-122,108V0H128V1161H395V713c0,0,55,73,122,108c0,0,68,35,155,35c0,0,154,0,253,-123c0,0,100,-123,100,-316c0,0,0,-193,-100,-316c0,0,-99,-121,-253,-121Z" 
id="f2_13"
transform="scale(0.001,-0.001)" />

<path d="M526,169c0,0,87,0,133,64c0,0,46,64,46,184c0,0,0,120,-46,184c0,0,-46,64,-133,64c0,0,-89,0,-135,-64c0,0,-47,-64,-47,-184c0,0,0,-120,47,-184c0,0,46,-64,135,-64Zm0,-189c0,0,-217,0,-339,115C187,95,66,211,66,417c0,0,0,206,121,322c0,0,122,117,339,117c0,0,215,0,336,-117c0,0,122,-116,122,-322c0,0,0,-206,-122,-322C862,95,741,-20,526,-20Z" 
id="f2_g"
transform="scale(0.001,-0.001)" />

<path d="M23,0L340,428L38,836H321L492,588L665,836H948L647,429L963,0H680L492,264L306,0Z" 
id="f2_16"
transform="scale(0.001,-0.001)" />

<path d="M744,410L592,853L439,410ZM8,0L420,1114H763L1175,0H887L816,203H367L297,0Z" 
id="f2_n"
transform="scale(0.001,-0.001)" />

<path d="M573,172c0,0,86,0,131,63c0,0,45,63,45,182c0,0,0,119,-45,182c0,0,-45,63,-131,63c0,0,-86,0,-132,-63c0,0,-46,-63,-46,-182c0,0,0,-119,46,-182c0,0,46,-63,132,-63ZM128,-317V836H395V713c0,0,55,73,122,108c0,0,68,35,155,35c0,0,154,0,253,-123c0,0,100,-123,100,-316c0,0,0,-193,-100,-316c0,0,-99,-121,-253,-121c0,0,-87,0,-155,33c0,0,-67,35,-122,108V-317Z" 
id="f2_q"
transform="scale(0.001,-0.001)" />

<path d="M443,0C443,0,285,0,219,66c0,0,-66,66,-66,224V645H20V836H153v237H419V836H695V645H419V290c0,0,0,-58,24,-79c0,0,23,-20,91,-20H672V0Z" 
id="f2_4"
transform="scale(0.001,-0.001)" />

<path d="M150,0V1114H300V0Z" 
id="f1_19"
transform="scale(0.001,-0.001)" />

<path d="M460,115c0,0,111,0,173,82c0,0,61,82,61,230c0,0,0,149,-61,231c0,0,-62,82,-173,82c0,0,-111,0,-173,-82c0,0,-61,-82,-61,-231c0,0,0,-148,61,-230c0,0,62,-82,173,-82ZM446,-317c0,0,-72,0,-137,11c0,0,-64,11,-124,33v134c0,0,60,-33,119,-49c0,0,59,-15,121,-15c0,0,135,0,202,70c0,0,67,71,67,212v68C694,147,652,73,585,36C585,36,519,0,426,0C426,0,272,0,178,117c0,0,-94,117,-94,310c0,0,0,194,94,311c0,0,94,118,248,118c0,0,93,0,159,-37c0,0,67,-36,109,-110V836H831V104c0,0,0,-212,-95,-317c0,0,-94,-104,-290,-104Z" 
id="f1_q"
transform="scale(0.001,-0.001)" />


</defs>
</svg>