<?xml version="1.0" encoding="UTF-8" standalone="no"?>
<!DOCTYPE svg PUBLIC "-//W3C//DTD SVG 1.1//EN"
"http://www.w3.org/Graphics/SVG/1.1/DTD/svg11.dtd">
<svg viewBox="0 0 909 1286" version="1.1" xmlns="http://www.w3.org/2000/svg" xmlns:xlink="http://www.w3.org/1999/xlink">
<defs>
<clipPath id="c0_40"><path d="M0,1286.2V.2H909.3v1286Z" /></clipPath>
</defs>
<g clip-path="url(#c0_40)">
<g fill="#000000" >
<use xlink:href="#f0_18" transform="matrix(12,0,0,12,86.8,826.5)" />
<use xlink:href="#f0_i" transform="matrix(12,0,0,12,98.4,826.5)" />
<use xlink:href="#f0_c" transform="matrix(12,0,0,12,109.1,826.5)" />
<use xlink:href="#f0_s" transform="matrix(12,0,0,12,114.1,826.5)" />
<use xlink:href="#f0_6" transform="matrix(12,0,0,12,131.6,826.5)" />
<use xlink:href="#f0_7" transform="matrix(12,0,0,12,138.8,826.5)" />
<use xlink:href="#f0_a" transform="matrix(12,0,0,12,150.4,826.5)" />
</g>
<g fill="#0000FF" >
<use xlink:href="#f1_11" transform="matrix(12,0,0,12,167.6,826.5)" />
<use xlink:href="#f1_o" transform="matrix(12,0,0,12,181.5,826.5)" />
<use xlink:href="#f1_5" transform="matrix(12,0,0,12,194.5,826.5)" />
<use xlink:href="#f1_r" transform="matrix(12,0,0,12,200.9,826.5)" />
<use xlink:href="#f1_c" transform="matrix(12,0,0,12,207.1,826.5)" />
</g>
<g fill="#000000" >
<use xlink:href="#f0_9" transform="matrix(12,0,0,12,226.7,826.5)" />
<use xlink:href="#f0_a" transform="matrix(12,0,0,12,236.2,826.5)" />
<use xlink:href="#f0_b" transform="matrix(12,0,0,12,247.5,826.5)" />
<use xlink:href="#f0_6" transform="matrix(12,0,0,12,257.6,826.5)" />
<use xlink:href="#f0_c" transform="matrix(12,0,0,12,264.7,826.5)" />
<use xlink:href="#f0_d" transform="matrix(12,0,0,12,269.8,826.5)" />
<use xlink:href="#f0_e" transform="matrix(12,0,0,12,281.1,826.5)" />
<use xlink:href="#f0_h" transform="matrix(12,0,0,12,298.5,826.5)" />
<use xlink:href="#f0_d" transform="matrix(12,0,0,12,304.9,826.5)" />
<use xlink:href="#f0_g" transform="matrix(12,0,0,12,316.2,826.5)" />
<use xlink:href="#f0_e" transform="matrix(12,0,0,12,329.5,826.5)" />
<use xlink:href="#f0_d" transform="matrix(12,0,0,12,341.1,826.5)" />
<use xlink:href="#f0_n" transform="matrix(12,0,0,12,352.4,826.5)" />
<use xlink:href="#f0_8" transform="matrix(12,0,0,12,373.2,826.5)" />
<use xlink:href="#f0_e" transform="matrix(12,0,0,12,384.5,826.5)" />
<use xlink:href="#f0_f" transform="matrix(12,0,0,12,396.1,826.5)" />
<use xlink:href="#f0_9" transform="matrix(12,0,0,12,413.5,826.5)" />
<use xlink:href="#f0_b" transform="matrix(12,0,0,12,423.1,826.5)" />
<use xlink:href="#f0_g" transform="matrix(12,0,0,12,433.2,826.5)" />
<use xlink:href="#f0_d" transform="matrix(12,0,0,12,440.2,826.5)" />
<use xlink:href="#f0_o" transform="matrix(12,0,0,12,451.5,826.5)" />
<use xlink:href="#f0_o" transform="matrix(12,0,0,12,456.5,826.5)" />
<use xlink:href="#f0_f" transform="matrix(12,0,0,12,467.5,826.5)" />
<use xlink:href="#f0_d" transform="matrix(12,0,0,12,479.1,826.5)" />
<use xlink:href="#f0_n" transform="matrix(12,0,0,12,490.3,826.5)" />
<use xlink:href="#f0_e" transform="matrix(12,0,0,12,505.2,826.5)" />
<use xlink:href="#f0_6" transform="matrix(12,0,0,12,522.8,826.5)" />
<use xlink:href="#f0_d" transform="matrix(12,0,0,12,530,826.5)" />
</g>
<g fill="#0000FF" >
<use xlink:href="#f1_2" transform="matrix(12,0,0,12,547.1,826.5)" />
<use xlink:href="#f1_3" transform="matrix(12,0,0,12,562.2,826.5)" />
<use xlink:href="#f1_6" transform="matrix(12,0,0,12,574.6,826.5)" />
<use xlink:href="#f1_3" transform="matrix(12,0,0,12,587.7,826.5)" />
<use xlink:href="#f1_b" transform="matrix(12,0,0,12,600.1,826.5)" />
<use xlink:href="#f1_a" transform="matrix(12,0,0,12,609.1,826.5)" />
<use xlink:href="#f1_r" transform="matrix(12,0,0,12,621.5,826.5)" />
<use xlink:href="#f1_n" transform="matrix(12,0,0,12,634.1,826.5)" />
<use xlink:href="#f1_q" transform="matrix(12,0,0,12,648.3,826.5)" />
<use xlink:href="#f1_q" transform="matrix(12,0,0,12,661.4,826.5)" />
<use xlink:href="#f1_s" transform="matrix(12,0,0,12,681,826.5)" />
<use xlink:href="#f1_6" transform="matrix(12,0,0,12,687.8,826.5)" />
<use xlink:href="#f1_j" transform="matrix(12,0,0,12,700.8,826.5)" />
<use xlink:href="#f1_g" transform="matrix(12,0,0,12,708.7,826.5)" />
<use xlink:href="#f1_b" transform="matrix(12,0,0,12,721.3,826.5)" />
<use xlink:href="#f1_z" transform="matrix(12,0,0,12,730.3,826.5)" />
<use xlink:href="#f1_a" transform="matrix(12,0,0,12,749.4,826.5)" />
<use xlink:href="#f1_4" transform="matrix(12,0,0,12,761.7,826.5)" />
<use xlink:href="#f1_5" transform="matrix(12,0,0,12,770.4,826.5)" />
<use xlink:href="#f1_g" transform="matrix(12,0,0,12,776.8,826.5)" />
<use xlink:href="#f1_6" transform="matrix(12,0,0,12,789.4,826.5)" />
</g>
<g fill="#000000" >
<use xlink:href="#f0_l" transform="matrix(12,0,0,12,802.7,826.5)" />
<use xlink:href="#f0_1k" transform="matrix(12,0,0,12,86.8,855.3)" />
<use xlink:href="#f0_f" transform="matrix(12,0,0,12,99,855.3)" />
<use xlink:href="#f0_f" transform="matrix(12,0,0,12,110.6,855.3)" />
<use xlink:href="#f0_p" transform="matrix(12,0,0,12,128.2,855.3)" />
<use xlink:href="#f0_d" transform="matrix(12,0,0,12,139,855.3)" />
<use xlink:href="#f0_k" transform="matrix(12,0,0,12,150.2,855.3)" />
<use xlink:href="#f0_g" transform="matrix(12,0,0,12,161.8,855.3)" />
<use xlink:href="#f0_c" transform="matrix(12,0,0,12,175.2,855.3)" />
<use xlink:href="#f0_b" transform="matrix(12,0,0,12,180.2,855.3)" />
<use xlink:href="#f0_d" transform="matrix(12,0,0,12,190.3,855.3)" />
<use xlink:href="#f0_e" transform="matrix(12,0,0,12,201.5,855.3)" />
<use xlink:href="#f0_1a" transform="matrix(12,0,0,12,219,855.3)" />
<use xlink:href="#f0_c" transform="matrix(12,0,0,12,243.2,855.3)" />
<use xlink:href="#f0_6" transform="matrix(12,0,0,12,248.2,855.3)" />
<use xlink:href="#f0_u" transform="matrix(12,0,0,12,261.3,855.3)" />
<use xlink:href="#f0_k" transform="matrix(12,0,0,12,279.2,855.3)" />
<use xlink:href="#f0_9" transform="matrix(12,0,0,12,290.6,855.3)" />
<use xlink:href="#f0_6" transform="matrix(12,0,0,12,300.3,855.3)" />
<use xlink:href="#f0_x" transform="matrix(12,0,0,12,313.2,855.3)" />
<use xlink:href="#f0_a" transform="matrix(12,0,0,12,324.9,855.3)" />
<use xlink:href="#f0_v" transform="matrix(12,0,0,12,342,855.3)" />
<use xlink:href="#f0_1o" transform="matrix(12,0,0,12,353.7,855.3)" />
<use xlink:href="#f0_1l" transform="matrix(12,0,0,12,365.3,855.3)" />
<use xlink:href="#f0_1m" transform="matrix(12,0,0,12,376.9,855.3)" />
<use xlink:href="#f0_x" transform="matrix(12,0,0,12,394.5,855.3)" />
<use xlink:href="#f0_p" transform="matrix(12,0,0,12,406.1,855.3)" />
<use xlink:href="#f0_v" transform="matrix(12,0,0,12,422.7,855.3)" />
<use xlink:href="#f0_1o" transform="matrix(12,0,0,12,434.3,855.3)" />
<use xlink:href="#f0_1l" transform="matrix(12,0,0,12,446.1,855.3)" />
<use xlink:href="#f0_1m" transform="matrix(12,0,0,12,457.7,855.3)" />
<use xlink:href="#f0_s" transform="matrix(12,0,0,12,475.3,855.3)" />
<use xlink:href="#f0_c" transform="matrix(12,0,0,12,486.9,855.3)" />
<use xlink:href="#f0_1h" transform="matrix(12,0,0,12,491.9,855.3)" />
<use xlink:href="#f0_a" transform="matrix(12,0,0,12,502.1,855.3)" />
<use xlink:href="#f0_o" transform="matrix(12,0,0,12,513.4,855.3)" />
<use xlink:href="#f0_9" transform="matrix(12,0,0,12,518.5,855.3)" />
<use xlink:href="#f0_l" transform="matrix(12,0,0,12,528.1,855.3)" />
<use xlink:href="#f0_18" transform="matrix(12,0,0,12,86.8,883.8)" />
<use xlink:href="#f0_a" transform="matrix(12,0,0,12,98.4,883.8)" />
<use xlink:href="#f0_6" transform="matrix(12,0,0,12,109.7,883.8)" />
<use xlink:href="#f0_6" transform="matrix(12,0,0,12,122.8,883.8)" />
<use xlink:href="#f0_7" transform="matrix(12,0,0,12,130,883.8)" />
<use xlink:href="#f0_a" transform="matrix(12,0,0,12,141.6,883.8)" />
<use xlink:href="#f0_t" transform="matrix(12,0,0,12,158.7,883.8)" />
<use xlink:href="#f0_a" transform="matrix(12,0,0,12,169.5,883.8)" />
<use xlink:href="#f0_g" transform="matrix(12,0,0,12,180.8,883.8)" />
<use xlink:href="#f0_9" transform="matrix(12,0,0,12,188.2,883.8)" />
<use xlink:href="#f0_c" transform="matrix(12,0,0,12,197.8,883.8)" />
<use xlink:href="#f0_d" transform="matrix(12,0,0,12,202.9,883.8)" />
<use xlink:href="#f0_e" transform="matrix(12,0,0,12,214.1,883.8)" />
<use xlink:href="#f0_e" transform="matrix(12,0,0,12,231.5,883.8)" />
<use xlink:href="#f0_k" transform="matrix(12,0,0,12,243.1,883.8)" />
<use xlink:href="#f0_u" transform="matrix(12,0,0,12,254.7,883.8)" />
<use xlink:href="#f0_x" transform="matrix(12,0,0,12,272.6,883.8)" />
<use xlink:href="#f0_a" transform="matrix(12,0,0,12,284.2,883.8)" />
<use xlink:href="#f0_g" transform="matrix(12,0,0,12,295.5,883.8)" />
<use xlink:href="#f0_13" transform="matrix(12,0,0,12,308.9,883.8)" />
<use xlink:href="#f0_9" transform="matrix(12,0,0,12,315.9,883.8)" />
<use xlink:href="#f0_7" transform="matrix(12,0,0,12,325.5,883.8)" />
<use xlink:href="#f0_d" transform="matrix(12,0,0,12,337.1,883.8)" />
<use xlink:href="#f0_k" transform="matrix(12,0,0,12,348.3,883.8)" />
<use xlink:href="#f0_o" transform="matrix(12,0,0,12,360,883.8)" />
<use xlink:href="#f0_f" transform="matrix(12,0,0,12,365.1,883.8)" />
<use xlink:href="#f0_x" transform="matrix(12,0,0,12,382.6,883.8)" />
<use xlink:href="#f0_a" transform="matrix(12,0,0,12,394.2,883.8)" />
<use xlink:href="#f0_6" transform="matrix(12,0,0,12,411.3,883.8)" />
<use xlink:href="#f0_7" transform="matrix(12,0,0,12,418.5,883.8)" />
<use xlink:href="#f0_a" transform="matrix(12,0,0,12,430.1,883.8)" />
<use xlink:href="#f0_9" transform="matrix(12,0,0,12,447.2,883.8)" />
<use xlink:href="#f0_8" transform="matrix(12,0,0,12,456.7,883.8)" />
<use xlink:href="#f0_u" transform="matrix(12,0,0,12,468,883.8)" />
<use xlink:href="#f0_a" transform="matrix(12,0,0,12,485.9,883.8)" />
<use xlink:href="#f0_8" transform="matrix(12,0,0,12,503,883.8)" />
<use xlink:href="#f0_9" transform="matrix(12,0,0,12,514.1,883.8)" />
<use xlink:href="#f0_c" transform="matrix(12,0,0,12,529.5,883.8)" />
<use xlink:href="#f0_e" transform="matrix(12,0,0,12,534.6,883.8)" />
<use xlink:href="#f0_p" transform="matrix(12,0,0,12,552.1,883.8)" />
<use xlink:href="#f0_d" transform="matrix(12,0,0,12,562.9,883.8)" />
<use xlink:href="#f0_k" transform="matrix(12,0,0,12,574.1,883.8)" />
<use xlink:href="#f0_g" transform="matrix(12,0,0,12,585.7,883.8)" />
<use xlink:href="#f0_8" transform="matrix(12,0,0,12,599.1,883.8)" />
<use xlink:href="#f0_s" transform="matrix(12,0,0,12,610.3,883.8)" />
<use xlink:href="#f0_s" transform="matrix(12,0,0,12,621.9,883.8)" />
<use xlink:href="#f0_r" transform="matrix(12,0,0,12,633.5,883.8)" />
<use xlink:href="#f0_9" transform="matrix(12,0,0,12,639.3,883.8)" />
<use xlink:href="#f0_z" transform="matrix(12,0,0,12,654.7,883.8)" />
<use xlink:href="#f0_b" transform="matrix(12,0,0,12,667.2,883.8)" />
<use xlink:href="#f0_d" transform="matrix(12,0,0,12,677.3,883.8)" />
<use xlink:href="#f0_f" transform="matrix(12,0,0,12,688.4,883.8)" />
<use xlink:href="#f0_a" transform="matrix(12,0,0,12,700,883.8)" />
<use xlink:href="#f0_s" transform="matrix(12,0,0,12,717.3,883.8)" />
<use xlink:href="#f0_g" transform="matrix(12,0,0,12,728.9,883.8)" />
<use xlink:href="#f0_d" transform="matrix(12,0,0,12,736.1,883.8)" />
<use xlink:href="#f0_y" transform="matrix(12,0,0,12,747.2,883.8)" />
<use xlink:href="#f0_a" transform="matrix(12,0,0,12,752.3,883.8)" />
<use xlink:href="#f0_b" transform="matrix(12,0,0,12,763.6,883.8)" />
<use xlink:href="#f0_6" transform="matrix(12,0,0,12,773.6,883.8)" />
<use xlink:href="#f0_14" transform="matrix(12,0,0,12,780.8,883.8)" />
<use xlink:href="#f0_l" transform="matrix(12,0,0,12,788,883.8)" />
<use xlink:href="#f0_1u" transform="matrix(12,0,0,12,86.8,912.5)" />
<use xlink:href="#f0_c" transform="matrix(12,0,0,12,95.9,912.5)" />
<use xlink:href="#f0_o" transform="matrix(12,0,0,12,101.1,912.5)" />
<use xlink:href="#f0_o" transform="matrix(12,0,0,12,106.2,912.5)" />
<use xlink:href="#f0_d" transform="matrix(12,0,0,12,117.1,912.5)" />
<use xlink:href="#f0_k" transform="matrix(12,0,0,12,128.3,912.5)" />
<use xlink:href="#f0_6" transform="matrix(12,0,0,12,139.9,912.5)" />
<use xlink:href="#f0_8" transform="matrix(12,0,0,12,152.9,912.5)" />
<use xlink:href="#f0_b" transform="matrix(12,0,0,12,170,912.5)" />
<use xlink:href="#f0_d" transform="matrix(12,0,0,12,180.1,912.5)" />
<use xlink:href="#f0_s" transform="matrix(12,0,0,12,191.2,912.5)" />
<use xlink:href="#f0_p" transform="matrix(12,0,0,12,202.8,912.5)" />
<use xlink:href="#f0_g" transform="matrix(12,0,0,12,213.8,912.5)" />
<use xlink:href="#f0_c" transform="matrix(12,0,0,12,221.3,912.5)" />
<use xlink:href="#f0_q" transform="matrix(12,0,0,12,226.3,912.5)" />
<use xlink:href="#f0_7" transform="matrix(12,0,0,12,237.9,912.5)" />
<use xlink:href="#f0_6" transform="matrix(12,0,0,12,249.5,912.5)" />
<use xlink:href="#f0_e" transform="matrix(12,0,0,12,262.6,912.5)" />
<use xlink:href="#f0_d" transform="matrix(12,0,0,12,274.3,912.5)" />
<use xlink:href="#f0_6" transform="matrix(12,0,0,12,285.4,912.5)" />
<use xlink:href="#f0_c" transform="matrix(12,0,0,12,292.6,912.5)" />
<use xlink:href="#f0_b" transform="matrix(12,0,0,12,297.6,912.5)" />
<use xlink:href="#f0_a" transform="matrix(12,0,0,12,307.7,912.5)" />
<use xlink:href="#f0_13" transform="matrix(12,0,0,12,324.9,912.5)" />
<use xlink:href="#f0_q" transform="matrix(12,0,0,12,332.1,912.5)" />
<use xlink:href="#f0_a" transform="matrix(12,0,0,12,343.7,912.5)" />
<use xlink:href="#f0_e" transform="matrix(12,0,0,12,355,912.5)" />
<use xlink:href="#f0_a" transform="matrix(12,0,0,12,366.6,912.5)" />
<use xlink:href="#f0_g" transform="matrix(12,0,0,12,377.9,912.5)" />
<use xlink:href="#f0_8" transform="matrix(12,0,0,12,385.2,912.5)" />
<use xlink:href="#f0_o" transform="matrix(12,0,0,12,396.5,912.5)" />
<use xlink:href="#f0_o" transform="matrix(12,0,0,12,401.7,912.5)" />
<use xlink:href="#f0_p" transform="matrix(12,0,0,12,406.7,912.5)" />
<use xlink:href="#f0_y" transform="matrix(12,0,0,12,423.4,912.5)" />
<use xlink:href="#f0_k" transform="matrix(12,0,0,12,428.4,912.5)" />
<use xlink:href="#f0_9" transform="matrix(12,0,0,12,440,912.5)" />
<use xlink:href="#f0_6" transform="matrix(12,0,0,12,449.6,912.5)" />
<use xlink:href="#f0_6" transform="matrix(12,0,0,12,462.6,912.5)" />
<use xlink:href="#f0_7" transform="matrix(12,0,0,12,469.8,912.5)" />
<use xlink:href="#f0_a" transform="matrix(12,0,0,12,481.4,912.5)" />
<use xlink:href="#f0_g" transform="matrix(12,0,0,12,498.7,912.5)" />
<use xlink:href="#f0_a" transform="matrix(12,0,0,12,505.7,912.5)" />
<use xlink:href="#f0_o" transform="matrix(12,0,0,12,517,912.5)" />
<use xlink:href="#f0_a" transform="matrix(12,0,0,12,522,912.5)" />
<use xlink:href="#f0_8" transform="matrix(12,0,0,12,533.3,912.5)" />
<use xlink:href="#f0_9" transform="matrix(12,0,0,12,544.5,912.5)" />
<use xlink:href="#f0_a" transform="matrix(12,0,0,12,554.1,912.5)" />
<use xlink:href="#f0_p" transform="matrix(12,0,0,12,571.2,912.5)" />
<use xlink:href="#f0_a" transform="matrix(12,0,0,12,582,912.5)" />
<use xlink:href="#f0_8" transform="matrix(12,0,0,12,593.3,912.5)" />
<use xlink:href="#f0_g" transform="matrix(12,0,0,12,604.6,912.5)" />
<use xlink:href="#f0_8" transform="matrix(12,0,0,12,617.9,912.5)" />
<use xlink:href="#f0_e" transform="matrix(12,0,0,12,629.2,912.5)" />
<use xlink:href="#f0_f" transform="matrix(12,0,0,12,640.8,912.5)" />
<use xlink:href="#f0_p" transform="matrix(12,0,0,12,658.2,912.5)" />
<use xlink:href="#f0_d" transform="matrix(12,0,0,12,669,912.5)" />
<use xlink:href="#f0_k" transform="matrix(12,0,0,12,680.2,912.5)" />
<use xlink:href="#f0_g" transform="matrix(12,0,0,12,691.8,912.5)" />
<use xlink:href="#f0_e" transform="matrix(12,0,0,12,705.2,912.5)" />
<use xlink:href="#f0_8" transform="matrix(12,0,0,12,716.8,912.5)" />
<use xlink:href="#f0_u" transform="matrix(12,0,0,12,728,912.5)" />
<use xlink:href="#f0_a" transform="matrix(12,0,0,12,745.8,912.5)" />
<use xlink:href="#f0_d" transform="matrix(12,0,0,12,762.9,912.5)" />
<use xlink:href="#f0_g" transform="matrix(12,0,0,12,774.2,912.5)" />
<use xlink:href="#f0_p" transform="matrix(12,0,0,12,86.8,941.1)" />
<use xlink:href="#f0_d" transform="matrix(12,0,0,12,97.6,941.1)" />
<use xlink:href="#f0_k" transform="matrix(12,0,0,12,108.8,941.1)" />
<use xlink:href="#f0_g" transform="matrix(12,0,0,12,120.5,941.1)" />
<use xlink:href="#f0_b" transform="matrix(12,0,0,12,133.8,941.1)" />
<use xlink:href="#f0_d" transform="matrix(12,0,0,12,143.9,941.1)" />
<use xlink:href="#f0_u" transform="matrix(12,0,0,12,155,941.1)" />
<use xlink:href="#f0_s" transform="matrix(12,0,0,12,172.9,941.1)" />
<use xlink:href="#f0_8" transform="matrix(12,0,0,12,184.5,941.1)" />
<use xlink:href="#f0_e" transform="matrix(12,0,0,12,195.8,941.1)" />
<use xlink:href="#f0_p" transform="matrix(12,0,0,12,207.4,941.1)" />
<use xlink:href="#f0_r" transform="matrix(12,0,0,12,218.2,941.1)" />
<use xlink:href="#f0_9" transform="matrix(12,0,0,12,224,941.1)" />
<use xlink:href="#f0_e" transform="matrix(12,0,0,12,239.4,941.1)" />
<use xlink:href="#f0_8" transform="matrix(12,0,0,12,251,941.1)" />
<use xlink:href="#f0_u" transform="matrix(12,0,0,12,262.3,941.1)" />
<use xlink:href="#f0_a" transform="matrix(12,0,0,12,280.2,941.1)" />
<use xlink:href="#f0_14" transform="matrix(12,0,0,12,291.3,941.1)" />
<use xlink:href="#f0_4" transform="matrix(12,0,0,12,298.5,941.1)" />
<use xlink:href="#f0_8" transform="matrix(12,0,0,12,310.3,941.1)" />
<use xlink:href="#f0_b" transform="matrix(12,0,0,12,327.2,941.1)" />
<use xlink:href="#f0_d" transform="matrix(12,0,0,12,337.3,941.1)" />
<use xlink:href="#f0_e" transform="matrix(12,0,0,12,348.4,941.1)" />
<use xlink:href="#f0_6" transform="matrix(12,0,0,12,360,941.1)" />
<use xlink:href="#f0_8" transform="matrix(12,0,0,12,367.2,941.1)" />
<use xlink:href="#f0_b" transform="matrix(12,0,0,12,378.5,941.1)" />
<use xlink:href="#f0_6" transform="matrix(12,0,0,12,388.6,941.1)" />
<use xlink:href="#f0_a" transform="matrix(12,0,0,12,401.7,941.1)" />
<use xlink:href="#f0_u" transform="matrix(12,0,0,12,412.9,941.1)" />
<use xlink:href="#f0_8" transform="matrix(12,0,0,12,430.7,941.1)" />
<use xlink:href="#f0_c" transform="matrix(12,0,0,12,442,941.1)" />
<use xlink:href="#f0_o" transform="matrix(12,0,0,12,447,941.1)" />
<use xlink:href="#f0_8" transform="matrix(12,0,0,12,458,941.1)" />
<use xlink:href="#f0_e" transform="matrix(12,0,0,12,469.2,941.1)" />
<use xlink:href="#f0_f" transform="matrix(12,0,0,12,480.8,941.1)" />
<use xlink:href="#f0_8" transform="matrix(12,0,0,12,498.3,941.1)" />
<use xlink:href="#f0_h" transform="matrix(12,0,0,12,509.5,941.1)" />
<use xlink:href="#f0_h" transform="matrix(12,0,0,12,515.9,941.1)" />
<use xlink:href="#f0_c" transform="matrix(12,0,0,12,522.5,941.1)" />
<use xlink:href="#f0_o" transform="matrix(12,0,0,12,527.5,941.1)" />
<use xlink:href="#f0_c" transform="matrix(12,0,0,12,532.5,941.1)" />
<use xlink:href="#f0_8" transform="matrix(12,0,0,12,537.6,941.1)" />
<use xlink:href="#f0_6" transform="matrix(12,0,0,12,548.9,941.1)" />
<use xlink:href="#f0_a" transform="matrix(12,0,0,12,556.1,941.1)" />
<use xlink:href="#f0_f" transform="matrix(12,0,0,12,567.3,941.1)" />
<use xlink:href="#f0_n" transform="matrix(12,0,0,12,584.8,941.1)" />
<use xlink:href="#f0_a" transform="matrix(12,0,0,12,599.7,941.1)" />
<use xlink:href="#f0_x" transform="matrix(12,0,0,12,611,941.1)" />
<use xlink:href="#f0_9" transform="matrix(12,0,0,12,622.6,941.1)" />
<use xlink:href="#f0_c" transform="matrix(12,0,0,12,632.2,941.1)" />
<use xlink:href="#f0_6" transform="matrix(12,0,0,12,637.3,941.1)" />
<use xlink:href="#f0_a" transform="matrix(12,0,0,12,644.5,941.1)" />
<use xlink:href="#f0_9" transform="matrix(12,0,0,12,655.8,941.1)" />
<use xlink:href="#f0_l" transform="matrix(12,0,0,12,665.4,941.1)" />
</g>
</g>
<image preserveAspectRatio="none" x="87" y="87" width="736" height="408" xlink:href="img/1.png" />
<defs>
<path d="M458,-20c0,0,-79,0,-168,17c0,0,-89,17,-184,52V204c0,0,91,-51,179,-77c0,0,88,-26,173,-26c0,0,129,0,199,50c0,0,70,51,70,145c0,0,0,82,-50,129c0,0,-50,46,-165,69l-92,18c0,0,-169,34,-244,105c0,0,-75,72,-75,199c0,0,0,148,104,233c0,0,104,85,287,85c0,0,78,0,159,-14c0,0,81,-14,166,-42V931c0,0,-85,41,-161,61c0,0,-76,20,-147,20c0,0,-123,0,-190,-48c0,0,-67,-48,-67,-136c0,0,0,-73,45,-111c0,0,44,-38,168,-61l91,-19c0,0,168,-32,249,-113c0,0,80,-81,80,-216c0,0,0,-162,-109,-246c0,0,-108,-82,-318,-82Z" 
id="f0_18"
transform="scale(0.001,-0.001)" />

<path d="M139,0V1161H277V475L686,836H861L418,445L880,0H701L277,408V0Z" 
id="f0_i"
transform="scale(0.001,-0.001)" />

<path d="M144,0V836H281V0Zm0,987v174H281V987Z" 
id="f0_c"
transform="scale(0.001,-0.001)" />

<path d="M510,93c0,0,109,0,171,86c0,0,62,86,62,238c0,0,0,151,-62,237c0,0,-62,86,-171,86c0,0,-109,0,-171,-86c0,0,-62,-86,-62,-237c0,0,0,-152,62,-238c0,0,62,-86,171,-86ZM139,-317V836H277V709c0,0,43,74,109,110c0,0,66,37,158,37c0,0,152,0,247,-121c0,0,95,-121,95,-318c0,0,0,-197,-95,-318C791,99,696,-20,544,-20c0,0,-92,0,-158,35c0,0,-66,36,-109,110V-317Z" 
id="f0_s"
transform="scale(0.001,-0.001)" />

<path d="M421,0C421,0,263,0,202,59c0,0,-60,60,-60,217V729H41V836H142v238H280V836H562V729H280V276c0,0,0,-102,28,-132c0,0,28,-29,113,-29H562V0Z" 
id="f0_6"
transform="scale(0.001,-0.001)" />

<path d="M139,0V1161H277V706c0,0,49,75,116,112c0,0,67,38,154,38c0,0,144,0,218,-90c0,0,74,-89,74,-262V0H702V500c0,0,0,119,-46,177c0,0,-47,59,-139,59c0,0,-112,0,-176,-71c0,0,-64,-70,-64,-193V0Z" 
id="f0_7"
transform="scale(0.001,-0.001)" />

<path d="M231,492l491,1c0,0,-2,112,-64,179c0,0,-61,67,-163,67c0,0,-115,0,-184,-65c0,0,-69,-64,-80,-182ZM517,-20c0,0,-199,0,-316,115C201,95,84,211,84,410c0,0,0,205,111,325c0,0,111,121,299,121c0,0,168,0,266,-109c0,0,98,-108,98,-295V385H227c0,0,9,-142,85,-216c0,0,77,-74,213,-74c0,0,80,0,154,19c0,0,74,19,147,58V42C826,42,752,11,675,-4c0,0,-78,-16,-158,-16Z" 
id="f0_a"
transform="scale(0.001,-0.001)" />

<path d="M596,196c0,0,86,0,130,36c0,0,44,37,44,110c0,0,0,73,-44,109c0,0,-43,36,-130,36H427V196ZM586,683c0,0,68,0,103,29c0,0,35,30,35,88c0,0,0,58,-35,88c0,0,-35,30,-103,30H427V683ZM140,0V1114H571c0,0,232,0,336,-70c0,0,104,-71,104,-225c0,0,0,-81,-38,-138c0,0,-38,-57,-110,-85c0,0,92,-27,143,-99c0,0,51,-73,51,-178c0,0,0,-161,-109,-240C948,79,839,0,616,0Z" 
id="f1_11"
transform="scale(0.001,-0.001)" />

<path d="M415,-20c0,0,-144,0,-220,87c0,0,-76,89,-76,259V836H388V752c0,0,0,-67,-1,-170c0,0,0,-103,0,-137c0,0,0,-101,5,-145c0,0,5,-44,18,-65c0,0,16,-26,43,-40c0,0,26,-14,60,-14c0,0,84,0,132,64c0,0,47,64,47,178V836H959V0H692V121C692,121,632,48,564,13c0,0,-67,-33,-149,-33Z" 
id="f1_o"
transform="scale(0.001,-0.001)" />

<path d="M128,0V836H395V0Zm0,944v217H395V944Z" 
id="f1_5"
transform="scale(0.001,-0.001)" />

<path d="M128,0V1161H395V0Z" 
id="f1_r"
transform="scale(0.001,-0.001)" />

<path d="M520,172c0,0,86,0,131,63c0,0,45,63,45,182c0,0,0,119,-45,182c0,0,-45,63,-131,63c0,0,-85,0,-130,-63c0,0,-45,-63,-45,-182c0,0,0,-119,45,-182c0,0,45,-63,130,-63ZM421,-20c0,0,-154,0,-253,121C168,101,68,224,68,417c0,0,0,193,100,316c0,0,99,123,253,123c0,0,87,0,153,-35c0,0,67,-35,122,-108v448H965V0H696V121C696,121,641,47,575,13c0,0,-67,-33,-154,-33Z" 
id="f1_c"
transform="scale(0.001,-0.001)" />

<path d="M376,-20c0,0,-67,0,-140,12C236,-8,164,4,83,30V172c0,0,76,-40,150,-59c0,0,74,-20,146,-20c0,0,97,0,150,33c0,0,52,33,52,94c0,0,0,56,-38,85c0,0,-38,30,-165,58l-48,11c0,0,-128,27,-184,83c0,0,-57,55,-57,152c0,0,0,118,83,182c0,0,84,65,238,65c0,0,76,0,143,-12c0,0,67,-11,124,-33V681c0,0,-58,29,-121,44c0,0,-63,15,-130,15c0,0,-102,0,-153,-31c0,0,-51,-31,-51,-94c0,0,0,-48,37,-75c0,0,36,-27,147,-52l46,-10c0,0,147,-32,208,-89c0,0,62,-57,62,-159c0,0,0,-116,-93,-184c0,0,-92,-66,-253,-66Z" 
id="f0_9"
transform="scale(0.001,-0.001)" />

<path d="M495,-20c0,0,-189,0,-300,117C195,97,84,216,84,417c0,0,0,204,112,321c0,0,113,118,308,118c0,0,64,0,124,-14c0,0,60,-13,117,-39V675c0,0,-58,32,-117,48c0,0,-58,16,-118,16c0,0,-133,0,-207,-84c0,0,-74,-85,-74,-238c0,0,0,-153,74,-238c0,0,74,-84,207,-84c0,0,60,0,118,16c0,0,59,16,117,48V32C745,32,688,5,626,-7c0,0,-61,-13,-131,-13Z" 
id="f0_b"
transform="scale(0.001,-0.001)" />

<path d="M467,95c0,0,110,0,174,86c0,0,64,87,64,236c0,0,0,148,-64,235c0,0,-64,87,-174,87c0,0,-110,0,-174,-86c0,0,-64,-86,-64,-236c0,0,0,-150,64,-236c0,0,63,-86,174,-86Zm0,-115c0,0,-179,0,-281,115C186,95,84,212,84,417c0,0,0,206,102,322c0,0,102,117,281,117c0,0,179,0,282,-117c0,0,102,-116,102,-322c0,0,0,-205,-102,-322C749,95,646,-20,467,-20Z" 
id="f0_d"
transform="scale(0.001,-0.001)" />

<path d="M139,0V836H277V706c0,0,49,75,116,112c0,0,67,38,154,38c0,0,144,0,218,-90c0,0,74,-89,74,-262V0H702V500c0,0,0,119,-46,177c0,0,-47,59,-139,59c0,0,-112,0,-176,-71c0,0,-64,-70,-64,-193V0Z" 
id="f0_e"
transform="scale(0.001,-0.001)" />

<path d="M166,0V729H35V836H166v58c0,0,0,139,65,203c0,0,65,64,206,64H567V1046H435c0,0,-74,0,-102,-29c0,0,-29,-30,-29,-107V836H530V729H304V0Z" 
id="f0_h"
transform="scale(0.001,-0.001)" />

<path d="M139,0V836H277V706c0,0,43,76,112,113c0,0,70,37,169,37c0,0,14,0,31,-2c0,0,17,-2,38,-6l1,-141c0,0,-23,14,-51,20c0,0,-27,6,-60,6c0,0,-116,0,-178,-75c0,0,-62,-76,-62,-218V0Z" 
id="f0_g"
transform="scale(0.001,-0.001)" />

<path d="M283,0L65,836H202L373,184L544,836H706L878,184l171,652h137L967,0H806L626,685L445,0Z" 
id="f0_n"
transform="scale(0.001,-0.001)" />

<path d="M408,93c0,0,115,0,184,81c0,0,69,81,69,215v30H524c0,0,-167,0,-231,-38c0,0,-64,-38,-64,-129c0,0,0,-73,48,-116c0,0,48,-43,131,-43ZM372,-20c0,0,-128,0,-204,70c0,0,-76,72,-76,193c0,0,0,141,94,212c0,0,95,72,282,72H661v13c0,0,0,95,-62,147c0,0,-63,52,-175,52c0,0,-72,0,-140,-17c0,0,-68,-17,-130,-51V798c0,0,75,29,146,43c0,0,71,15,138,15c0,0,181,0,270,-95c0,0,90,-94,90,-285V0H661V127C661,127,614,51,544,15c0,0,-70,-35,-172,-35Z" 
id="f0_8"
transform="scale(0.001,-0.001)" />

<path d="M460,93c0,0,109,0,171,86c0,0,63,86,63,238c0,0,0,151,-63,237c0,0,-62,86,-171,86c0,0,-109,0,-172,-86c0,0,-62,-86,-62,-237c0,0,0,-152,62,-238c0,0,63,-86,172,-86ZM426,-20c0,0,-151,0,-247,119c0,0,-95,121,-95,318c0,0,0,197,95,318c0,0,96,121,247,121c0,0,93,0,159,-37c0,0,66,-36,109,-110v452H831V0H694V125C694,125,651,51,585,15c0,0,-66,-35,-159,-35Z" 
id="f0_f"
transform="scale(0.001,-0.001)" />

<path d="M144,0V1161H281V0Z" 
id="f0_o"
transform="scale(0.001,-0.001)" />

<path d="M679,-20c0,0,-278,0,-440,154C239,134,76,290,76,556c0,0,0,269,166,424c0,0,165,154,453,154c0,0,111,0,213,-21c0,0,102,-21,192,-62V820c0,0,-93,54,-185,80c0,0,-92,26,-185,26c0,0,-171,0,-264,-96c0,0,-92,-96,-92,-274c0,0,0,-177,89,-273c0,0,89,-96,254,-96c0,0,45,0,83,5c0,0,39,6,69,18V425H694V618h447V83C1141,83,1034,31,918,5C918,5,803,-20,679,-20Z" 
id="f1_2"
transform="scale(0.001,-0.001)" />

<path d="M687,509c0,0,0,76,-44,122c0,0,-44,47,-116,47c0,0,-78,0,-126,-44c0,0,-49,-43,-61,-125ZM544,-20c0,0,-227,0,-353,114C191,94,66,209,66,417c0,0,0,204,123,321c0,0,123,118,340,118c0,0,197,0,315,-119c0,0,118,-118,118,-317V344H337c0,0,10,-94,68,-141c0,0,59,-47,163,-47c0,0,85,0,173,25c0,0,89,25,182,76V51C923,51,828,15,733,-2c0,0,-94,-18,-189,-18Z" 
id="f1_3"
transform="scale(0.001,-0.001)" />

<path d="M128,0V836H395V713c0,0,60,73,128,108c0,0,68,35,150,35c0,0,145,0,220,-89c0,0,75,-89,75,-258V0H699V389c0,0,0,109,-5,150c0,0,-5,41,-16,60c0,0,-16,26,-43,41c0,0,-27,14,-61,14c0,0,-84,0,-131,-64c0,0,-48,-65,-48,-179V0Z" 
id="f1_6"
transform="scale(0.001,-0.001)" />

<path d="M128,0V836H395V698c0,0,52,82,118,120c0,0,67,38,161,38c0,0,13,0,29,-2c0,0,15,-1,45,-4l1,-242c0,0,-35,17,-70,25c0,0,-35,7,-70,7c0,0,-103,0,-158,-66c0,0,-56,-66,-56,-189V0Z" 
id="f1_b"
transform="scale(0.001,-0.001)" />

<path d="M463,156c0,0,75,0,127,54c0,0,51,54,51,135v30H502c0,0,-83,0,-125,-28c0,0,-43,-28,-43,-83c0,0,0,-50,34,-79c0,0,34,-29,95,-29ZM357,-20c0,0,-130,0,-211,74c0,0,-80,76,-80,197c0,0,0,147,101,215c0,0,101,69,317,69H641v21c0,0,0,63,-50,92c0,0,-49,30,-155,30c0,0,-86,0,-160,-17c0,0,-74,-18,-137,-52V813c0,0,86,21,172,32c0,0,86,11,173,11c0,0,226,0,326,-90c0,0,100,-89,100,-290V0H641V124C641,124,588,48,521,13c0,0,-68,-33,-164,-33Z" 
id="f1_a"
transform="scale(0.001,-0.001)" />

<path d="M744,410L592,853L439,410ZM8,0L420,1114H763L1175,0H887L816,203H367L297,0Z" 
id="f1_n"
transform="scale(0.001,-0.001)" />

<path d="M573,172c0,0,86,0,131,63c0,0,45,63,45,182c0,0,0,119,-45,182c0,0,-45,63,-131,63c0,0,-86,0,-132,-63c0,0,-46,-63,-46,-182c0,0,0,-119,46,-182c0,0,46,-63,132,-63ZM128,-317V836H395V713c0,0,55,73,122,108c0,0,68,35,155,35c0,0,154,0,253,-123c0,0,100,-123,100,-316c0,0,0,-193,-100,-316c0,0,-99,-121,-253,-121c0,0,-87,0,-155,33c0,0,-67,35,-122,108V-317Z" 
id="f1_q"
transform="scale(0.001,-0.001)" />

<path d="M140,0V1114H427V0Z" 
id="f1_s"
transform="scale(0.001,-0.001)" />

<path d="M162,0V645H29V836H162v58c0,0,0,136,76,201c0,0,76,66,236,66H679V986H531c0,0,-57,0,-79,-21c0,0,-23,-20,-23,-71V836H657V645H429V0Z" 
id="f1_j"
transform="scale(0.001,-0.001)" />

<path d="M526,169c0,0,87,0,133,64c0,0,46,64,46,184c0,0,0,120,-46,184c0,0,-46,64,-133,64c0,0,-89,0,-135,-64c0,0,-47,-64,-47,-184c0,0,0,-120,47,-184c0,0,46,-64,135,-64Zm0,-189c0,0,-217,0,-339,115C187,95,66,211,66,417c0,0,0,206,121,322c0,0,122,117,339,117c0,0,215,0,336,-117c0,0,122,-116,122,-322c0,0,0,-206,-122,-322C862,95,741,-20,526,-20Z" 
id="f1_g"
transform="scale(0.001,-0.001)" />

<path d="M127,0V836H396V713c0,0,49,71,113,107c0,0,64,36,141,36c0,0,86,0,152,-42c0,0,67,-42,101,-118c0,0,51,78,121,119c0,0,69,41,153,41c0,0,144,0,219,-89c0,0,76,-89,76,-258V0H1203V436c0,0,0,9,1,20c0,0,0,10,0,30c0,0,0,88,-26,128c0,0,-26,40,-84,40c0,0,-76,0,-117,-63c0,0,-42,-62,-43,-181V0H665V436c0,0,0,138,-24,178c0,0,-24,40,-85,40c0,0,-77,0,-118,-63c0,0,-42,-63,-42,-180V0Z" 
id="f1_z"
transform="scale(0.001,-0.001)" />

<path d="M443,0C443,0,285,0,219,66c0,0,-66,66,-66,224V645H20V836H153v237H419V836H695V645H419V290c0,0,0,-58,24,-79c0,0,23,-20,91,-20H672V0Z" 
id="f1_4"
transform="scale(0.001,-0.001)" />

<path d="M163,0V190H321V0Z" 
id="f0_l"
transform="scale(0.001,-0.001)" />

<path d="M727,411L522,965L318,411ZM12,0L437,1114H608L1033,0H876L774,286H272L171,0Z" 
id="f0_1k"
transform="scale(0.001,-0.001)" />

<path d="M121,-317v116h81c0,0,57,0,88,26c0,0,31,27,69,127l25,62L46,836H191L453,182L714,836H859L492,-76c0,0,-58,-150,-113,-195c0,0,-55,-46,-148,-46Z" 
id="f0_p"
transform="scale(0.001,-0.001)" />

<path d="M424,-20c0,0,-145,0,-219,88c0,0,-75,89,-75,262V836H267V335c0,0,0,-119,46,-178c0,0,47,-59,139,-59c0,0,112,0,177,71c0,0,64,71,64,193V836H830V0H693V128C693,128,643,52,577,15c0,0,-66,-35,-153,-35Z" 
id="f0_k"
transform="scale(0.001,-0.001)" />

<path d="M74,365V472H1453V365Z" 
id="f0_1a"
transform="scale(0.001,-0.001)" />

<path d="M139,0V836H277V706c0,0,47,77,112,113c0,0,66,37,156,37c0,0,91,0,155,-47c0,0,64,-46,94,-134c0,0,52,93,123,137c0,0,72,44,169,44c0,0,130,0,201,-92c0,0,71,-91,71,-260V0H1220V500c0,0,0,120,-42,178c0,0,-43,58,-130,58c0,0,-107,0,-169,-71c0,0,-62,-70,-62,-193V0H680V500c0,0,0,121,-43,179c0,0,-42,57,-131,57c0,0,-105,0,-167,-71c0,0,-62,-71,-62,-193V0Z" 
id="f0_u"
transform="scale(0.001,-0.001)" />

<path d="M510,93c0,0,109,0,171,86c0,0,62,86,62,238c0,0,0,151,-62,237c0,0,-62,86,-171,86c0,0,-109,0,-171,-86c0,0,-62,-86,-62,-237c0,0,0,-152,62,-238c0,0,62,-86,171,-86ZM544,-20c0,0,-92,0,-158,35c0,0,-66,36,-109,110V0H139V1161H277V709c0,0,43,74,109,110c0,0,66,37,158,37c0,0,152,0,247,-121c0,0,95,-121,95,-318c0,0,0,-197,-95,-318C791,99,696,-20,544,-20Z" 
id="f0_x"
transform="scale(0.001,-0.001)" />

<path d="M190,0V127H436V977L168,923v137l267,54H586V127H832V0Z" 
id="f0_v"
transform="scale(0.001,-0.001)" />

<path d="M486,98c0,0,117,0,175,114c0,0,59,115,59,344c0,0,0,230,-59,344c0,0,-58,115,-175,115c0,0,-117,0,-175,-115c0,0,-59,-114,-59,-344c0,0,0,-229,59,-344c0,0,58,-114,175,-114ZM485,-20c0,0,-187,0,-285,147c0,0,-99,148,-99,429c0,0,0,282,98,430c0,0,99,148,286,148c0,0,188,0,286,-148c0,0,99,-148,99,-430c0,0,0,-281,-99,-429c0,0,-98,-147,-286,-147Z" 
id="f0_1o"
transform="scale(0.001,-0.001)" />

<path d="M111,0V127c0,0,86,89,234,238c0,0,148,150,186,193c0,0,73,81,101,138c0,0,29,56,29,110c0,0,0,89,-62,145c0,0,-62,56,-162,56c0,0,-71,0,-150,-25c0,0,-78,-24,-168,-75v153c0,0,91,37,170,55c0,0,79,19,145,19c0,0,173,0,276,-86c0,0,103,-87,103,-232c0,0,0,-68,-26,-130c0,0,-26,-61,-94,-145c0,0,-18,-22,-118,-125C575,416,475,313,293,127H818V0Z" 
id="f0_1l"
transform="scale(0.001,-0.001)" />

<path d="M578,388V982L197,388ZM578,0V263H74V408l464,706H727V388H887V263H727V0Z" 
id="f0_1m"
transform="scale(0.001,-0.001)" />

<path d="M44,0L369,437L71,836H233L455,538L677,836H839L537,429L855,0H693L449,328L206,0Z" 
id="f0_1h"
transform="scale(0.001,-0.001)" />

<path d="M359,0L46,836H191L453,134L714,836H859L546,0Z" 
id="f0_t"
transform="scale(0.001,-0.001)" />

<path d="M354,-200c0,0,-112,175,-167,343c0,0,-56,170,-56,337c0,0,0,166,55,335c0,0,55,169,168,345H473c0,0,-100,-172,-148,-340c0,0,-48,-168,-48,-340c0,0,0,-173,48,-342c0,0,49,-168,148,-338Z" 
id="f0_13"
transform="scale(0.001,-0.001)" />

<path d="M132,763l62,237v114H351V1000L228,763Z" 
id="f0_r"
transform="scale(0.001,-0.001)" />

<path d="M46,0L444,595L97,1114H259L536,700l278,414H976L618,579L999,0H837L524,474L209,0Z" 
id="f0_z"
transform="scale(0.001,-0.001)" />

<path d="M-26,-317v117H9c0,0,78,0,106,36c0,0,29,36,29,150V836H281V-14c0,0,0,-160,-61,-231c0,0,-61,-72,-195,-72ZM144,987v174H281V987Z" 
id="f0_y"
transform="scale(0.001,-0.001)" />

<path d="M122,-200c0,0,99,170,148,338c0,0,49,169,49,342c0,0,0,172,-49,340c0,0,-49,168,-148,340H241c0,0,112,-176,168,-345c0,0,55,-169,55,-335c0,0,0,-167,-55,-337c0,0,-56,-168,-168,-343Z" 
id="f0_14"
transform="scale(0.001,-0.001)" />

<path d="M150,0V1114H790V987H300V659H742V532H300V0Z" 
id="f0_1u"
transform="scale(0.001,-0.001)" />

<path d="M460,115c0,0,111,0,173,82c0,0,61,82,61,230c0,0,0,149,-61,231c0,0,-62,82,-173,82c0,0,-111,0,-173,-82c0,0,-61,-82,-61,-231c0,0,0,-148,61,-230c0,0,62,-82,173,-82ZM446,-317c0,0,-72,0,-137,11c0,0,-64,11,-124,33v134c0,0,60,-33,119,-49c0,0,59,-15,121,-15c0,0,135,0,202,70c0,0,67,71,67,212v68C694,147,652,73,585,36C585,36,519,0,426,0C426,0,272,0,178,117c0,0,-94,117,-94,310c0,0,0,194,94,311c0,0,94,118,248,118c0,0,93,0,159,-37c0,0,67,-36,109,-110V836H831V104c0,0,0,-212,-95,-317c0,0,-94,-104,-290,-104Z" 
id="f0_q"
transform="scale(0.001,-0.001)" />

<path d="M117,-176L179,62V190H336V62L213,-176Z" 
id="f0_4"
transform="scale(0.001,-0.001)" />


</defs>
</svg>