<?xml version="1.0" encoding="UTF-8" standalone="no"?>
<!DOCTYPE svg PUBLIC "-//W3C//DTD SVG 1.1//EN"
"http://www.w3.org/Graphics/SVG/1.1/DTD/svg11.dtd">
<svg viewBox="0 0 909 1286" version="1.1" xmlns="http://www.w3.org/2000/svg" xmlns:xlink="http://www.w3.org/1999/xlink">
<defs>
<clipPath id="c0_38"><path d="M0,1286.2V.2H909.3v1286Z" /></clipPath>
</defs>
<g clip-path="url(#c0_38)">
<g fill="#000000" >
<use xlink:href="#f0_x" transform="matrix(12,0,0,12,86.8,668.6)" />
<use xlink:href="#f0_c" transform="matrix(12,0,0,12,95.6,668.6)" />
<use xlink:href="#f0_r" transform="matrix(12,0,0,12,106.8,668.6)" />
<use xlink:href="#f0_11" transform="matrix(12,0,0,12,118.4,668.6)" />
<use xlink:href="#f0_i" transform="matrix(12,0,0,12,124.2,668.6)" />
<use xlink:href="#f0_i" transform="matrix(12,0,0,12,129.4,668.6)" />
<use xlink:href="#f0_9" transform="matrix(12,0,0,12,140.2,668.6)" />
<use xlink:href="#f0_4" transform="matrix(12,0,0,12,149.8,668.6)" />
<use xlink:href="#f0_4" transform="matrix(12,0,0,12,161,668.6)" />
<use xlink:href="#f0_g" transform="matrix(12,0,0,12,178.2,668.6)" />
<use xlink:href="#f0_n" transform="matrix(12,0,0,12,195.2,668.6)" />
<use xlink:href="#f0_8" transform="matrix(12,0,0,12,206.8,668.6)" />
<use xlink:href="#f0_7" transform="matrix(12,0,0,12,214.4,668.6)" />
<use xlink:href="#f0_4" transform="matrix(12,0,0,12,219.4,668.6)" />
<use xlink:href="#f0_6" transform="matrix(12,0,0,12,230.7,668.6)" />
<use xlink:href="#f0_4" transform="matrix(12,0,0,12,243,668.6)" />
<use xlink:href="#f0_14" transform="matrix(12,0,0,12,254,668.6)" />
<use xlink:href="#f0_b" transform="matrix(12,0,0,12,264.8,668.6)" />
<use xlink:href="#f0_i" transform="matrix(12,0,0,12,276.4,668.6)" />
<use xlink:href="#f0_g" transform="matrix(12,0,0,12,281.4,668.6)" />
<use xlink:href="#f0_h" transform="matrix(12,0,0,12,292.7,668.6)" />
<use xlink:href="#f0_g" transform="matrix(12,0,0,12,304.3,668.6)" />
<use xlink:href="#f0_a" transform="matrix(12,0,0,12,315.6,668.6)" />
<use xlink:href="#f0_7" transform="matrix(12,0,0,12,322.8,668.6)" />
<use xlink:href="#f0_c" transform="matrix(12,0,0,12,327.9,668.6)" />
<use xlink:href="#f0_h" transform="matrix(12,0,0,12,339,668.6)" />
<use xlink:href="#f0_j" transform="matrix(12,0,0,12,356.6,668.6)" />
<use xlink:href="#f0_4" transform="matrix(12,0,0,12,368.2,668.6)" />
<use xlink:href="#f0_9" transform="matrix(12,0,0,12,379.3,668.6)" />
<use xlink:href="#f0_o" transform="matrix(12,0,0,12,388.9,668.6)" />
<use xlink:href="#f0_8" transform="matrix(12,0,0,12,399,668.6)" />
<use xlink:href="#f0_7" transform="matrix(12,0,0,12,406.5,668.6)" />
<use xlink:href="#f0_n" transform="matrix(12,0,0,12,411.6,668.6)" />
<use xlink:href="#f0_7" transform="matrix(12,0,0,12,423.2,668.6)" />
<use xlink:href="#f0_h" transform="matrix(12,0,0,12,428.3,668.6)" />
<use xlink:href="#f0_f" transform="matrix(12,0,0,12,439.9,668.6)" />
<use xlink:href="#f0_f" transform="matrix(12,0,0,12,457.5,668.6)" />
<use xlink:href="#f0_4" transform="matrix(12,0,0,12,469.1,668.6)" />
<use xlink:href="#f0_a" transform="matrix(12,0,0,12,480.4,668.6)" />
<use xlink:href="#f0_a" transform="matrix(12,0,0,12,487.5,668.6)" />
<use xlink:href="#f0_7" transform="matrix(12,0,0,12,494.7,668.6)" />
<use xlink:href="#f0_h" transform="matrix(12,0,0,12,499.8,668.6)" />
<use xlink:href="#f0_f" transform="matrix(12,0,0,12,511.4,668.6)" />
<use xlink:href="#f0_9" transform="matrix(12,0,0,12,528.9,668.6)" />
<use xlink:href="#f0_a" transform="matrix(12,0,0,12,538.4,668.6)" />
<use xlink:href="#f0_g" transform="matrix(12,0,0,12,545.6,668.6)" />
<use xlink:href="#f0_8" transform="matrix(12,0,0,12,556.9,668.6)" />
<use xlink:href="#f0_a" transform="matrix(12,0,0,12,564.4,668.6)" />
<use xlink:href="#f0_4" transform="matrix(12,0,0,12,571.6,668.6)" />
<use xlink:href="#f0_j" transform="matrix(12,0,0,12,582.9,668.6)" />
<use xlink:href="#f0_y" transform="matrix(12,0,0,12,600.3,668.6)" />
<use xlink:href="#f0_7" transform="matrix(12,0,0,12,615.3,668.6)" />
<use xlink:href="#f0_a" transform="matrix(12,0,0,12,620.3,668.6)" />
<use xlink:href="#f0_3" transform="matrix(12,0,0,12,627.6,668.6)" />
<use xlink:href="#f0_7" transform="matrix(12,0,0,12,645,668.6)" />
<use xlink:href="#f0_13" transform="matrix(12,0,0,12,650.1,668.6)" />
<use xlink:href="#f0_e" transform="matrix(12,0,0,12,664.6,668.6)" />
<use xlink:href="#f0_b" transform="matrix(12,0,0,12,682,668.6)" />
<use xlink:href="#f0_8" transform="matrix(12,0,0,12,693.7,668.6)" />
<use xlink:href="#f0_c" transform="matrix(12,0,0,12,700.8,668.6)" />
<use xlink:href="#f0_k" transform="matrix(12,0,0,12,711.9,668.6)" />
<use xlink:href="#f0_7" transform="matrix(12,0,0,12,722.7,668.6)" />
<use xlink:href="#f0_9" transform="matrix(12,0,0,12,727.8,668.6)" />
<use xlink:href="#f0_7" transform="matrix(12,0,0,12,737.4,668.6)" />
<use xlink:href="#f0_c" transform="matrix(12,0,0,12,742.6,668.6)" />
<use xlink:href="#f0_h" transform="matrix(12,0,0,12,753.7,668.6)" />
<use xlink:href="#f0_7" transform="matrix(12,0,0,12,765.3,668.6)" />
<use xlink:href="#f0_h" transform="matrix(12,0,0,12,770.4,668.6)" />
<use xlink:href="#f0_f" transform="matrix(12,0,0,12,782,668.6)" />
<use xlink:href="#f0_b" transform="matrix(12,0,0,12,86.8,697.3)" />
<use xlink:href="#f0_8" transform="matrix(12,0,0,12,98.5,697.3)" />
<use xlink:href="#f0_c" transform="matrix(12,0,0,12,105.6,697.3)" />
<use xlink:href="#f0_6" transform="matrix(12,0,0,12,116.7,697.3)" />
<use xlink:href="#f0_7" transform="matrix(12,0,0,12,123.2,697.3)" />
<use xlink:href="#f0_i" transform="matrix(12,0,0,12,128.3,697.3)" />
<use xlink:href="#f0_4" transform="matrix(12,0,0,12,133.3,697.3)" />
<use xlink:href="#f0_9" transform="matrix(12,0,0,12,144.6,697.3)" />
<use xlink:href="#f0_l" transform="matrix(12,0,0,12,154.2,697.3)" />
<use xlink:href="#f0_d" transform="matrix(12,0,0,12,165.8,697.3)" />
<use xlink:href="#f0_b" transform="matrix(12,0,0,12,184.2,697.3)" />
<use xlink:href="#f0_8" transform="matrix(12,0,0,12,195.9,697.3)" />
<use xlink:href="#f0_c" transform="matrix(12,0,0,12,203,697.3)" />
<use xlink:href="#f0_k" transform="matrix(12,0,0,12,214.1,697.3)" />
<use xlink:href="#f0_7" transform="matrix(12,0,0,12,224.9,697.3)" />
<use xlink:href="#f0_9" transform="matrix(12,0,0,12,230,697.3)" />
<use xlink:href="#f0_7" transform="matrix(12,0,0,12,239.6,697.3)" />
<use xlink:href="#f0_c" transform="matrix(12,0,0,12,244.8,697.3)" />
<use xlink:href="#f0_h" transform="matrix(12,0,0,12,255.9,697.3)" />
<use xlink:href="#f0_7" transform="matrix(12,0,0,12,267.5,697.3)" />
<use xlink:href="#f0_h" transform="matrix(12,0,0,12,272.5,697.3)" />
<use xlink:href="#f0_f" transform="matrix(12,0,0,12,284.2,697.3)" />
<use xlink:href="#f0_b" transform="matrix(12,0,0,12,301.7,697.3)" />
<use xlink:href="#f0_8" transform="matrix(12,0,0,12,313.3,697.3)" />
<use xlink:href="#f0_c" transform="matrix(12,0,0,12,320.5,697.3)" />
<use xlink:href="#f0_6" transform="matrix(12,0,0,12,331.7,697.3)" />
<use xlink:href="#f0_7" transform="matrix(12,0,0,12,338.1,697.3)" />
<use xlink:href="#f0_i" transform="matrix(12,0,0,12,343.2,697.3)" />
<use xlink:href="#f0_4" transform="matrix(12,0,0,12,348.3,697.3)" />
<use xlink:href="#f0_19" transform="matrix(12,0,0,12,365.4,697.3)" />
<use xlink:href="#f0_c" transform="matrix(12,0,0,12,370.4,697.3)" />
<use xlink:href="#f0_7" transform="matrix(12,0,0,12,381.7,697.3)" />
<use xlink:href="#f0_h" transform="matrix(12,0,0,12,386.8,697.3)" />
<use xlink:href="#f0_9" transform="matrix(12,0,0,12,398.4,697.3)" />
<use xlink:href="#f0_a" transform="matrix(12,0,0,12,413.8,697.3)" />
<use xlink:href="#f0_c" transform="matrix(12,0,0,12,421,697.3)" />
<use xlink:href="#f0_f" transform="matrix(12,0,0,12,432.1,697.3)" />
<use xlink:href="#f0_4" transform="matrix(12,0,0,12,443.7,697.3)" />
<use xlink:href="#f0_a" transform="matrix(12,0,0,12,455,697.3)" />
<use xlink:href="#f0_3" transform="matrix(12,0,0,12,462.2,697.3)" />
<use xlink:href="#f0_4" transform="matrix(12,0,0,12,473.8,697.3)" />
<use xlink:href="#f0_8" transform="matrix(12,0,0,12,485.1,697.3)" />
<use xlink:href="#f0_g" transform="matrix(12,0,0,12,498.5,697.3)" />
<use xlink:href="#f0_i" transform="matrix(12,0,0,12,509.8,697.3)" />
<use xlink:href="#f0_i" transform="matrix(12,0,0,12,514.9,697.3)" />
<use xlink:href="#f0_a" transform="matrix(12,0,0,12,525.7,697.3)" />
<use xlink:href="#f0_3" transform="matrix(12,0,0,12,532.9,697.3)" />
<use xlink:href="#f0_4" transform="matrix(12,0,0,12,544.5,697.3)" />
<use xlink:href="#f0_b" transform="matrix(12,0,0,12,561.8,697.3)" />
<use xlink:href="#f0_7" transform="matrix(12,0,0,12,573.4,697.3)" />
<use xlink:href="#f0_4" transform="matrix(12,0,0,12,578.4,697.3)" />
<use xlink:href="#f0_o" transform="matrix(12,0,0,12,589.7,697.3)" />
<use xlink:href="#f0_4" transform="matrix(12,0,0,12,599.8,697.3)" />
<use xlink:href="#f0_9" transform="matrix(12,0,0,12,610.9,697.3)" />
<use xlink:href="#f0_t" transform="matrix(12,0,0,12,626.3,697.3)" />
<use xlink:href="#f0_c" transform="matrix(12,0,0,12,637.2,697.3)" />
<use xlink:href="#f0_r" transform="matrix(12,0,0,12,648.3,697.3)" />
<use xlink:href="#f0_3" transform="matrix(12,0,0,12,665.9,697.3)" />
<use xlink:href="#f0_g" transform="matrix(12,0,0,12,677.5,697.3)" />
<use xlink:href="#f0_k" transform="matrix(12,0,0,12,688.8,697.3)" />
<use xlink:href="#f0_4" transform="matrix(12,0,0,12,699.5,697.3)" />
<use xlink:href="#f0_j" transform="matrix(12,0,0,12,716.7,697.3)" />
<use xlink:href="#f0_c" transform="matrix(12,0,0,12,728.3,697.3)" />
<use xlink:href="#f0_h" transform="matrix(12,0,0,12,739.4,697.3)" />
<use xlink:href="#f0_4" transform="matrix(12,0,0,12,751,697.3)" />
<use xlink:href="#f0_9" transform="matrix(12,0,0,12,768.2,697.3)" />
<use xlink:href="#f0_c" transform="matrix(12,0,0,12,777.8,697.3)" />
<use xlink:href="#f0_6" transform="matrix(12,0,0,12,86.8,725.8)" />
<use xlink:href="#f0_g" transform="matrix(12,0,0,12,93.2,725.8)" />
<use xlink:href="#f0_8" transform="matrix(12,0,0,12,104.5,725.8)" />
<use xlink:href="#f0_q" transform="matrix(12,0,0,12,112,725.8)" />
<use xlink:href="#f0_7" transform="matrix(12,0,0,12,123.7,725.8)" />
<use xlink:href="#f0_h" transform="matrix(12,0,0,12,128.8,725.8)" />
<use xlink:href="#f0_o" transform="matrix(12,0,0,12,140.4,725.8)" />
<use xlink:href="#f0_i" transform="matrix(12,0,0,12,150.4,725.8)" />
<use xlink:href="#f0_r" transform="matrix(12,0,0,12,155.5,725.8)" />
<use xlink:href="#f0_j" transform="matrix(12,0,0,12,167.1,725.8)" />
<use xlink:href="#f0_7" transform="matrix(12,0,0,12,178.8,725.8)" />
<use xlink:href="#f0_h" transform="matrix(12,0,0,12,183.9,725.8)" />
<use xlink:href="#f0_f" transform="matrix(12,0,0,12,195.5,725.8)" />
<use xlink:href="#f0_o" transform="matrix(12,0,0,12,212.9,725.8)" />
<use xlink:href="#f0_4" transform="matrix(12,0,0,12,223,725.8)" />
<use xlink:href="#f0_8" transform="matrix(12,0,0,12,234.3,725.8)" />
<use xlink:href="#f0_a" transform="matrix(12,0,0,12,241.7,725.8)" />
<use xlink:href="#f0_7" transform="matrix(12,0,0,12,249,725.8)" />
<use xlink:href="#f0_6" transform="matrix(12,0,0,12,254.1,725.8)" />
<use xlink:href="#f0_7" transform="matrix(12,0,0,12,260.5,725.8)" />
<use xlink:href="#f0_o" transform="matrix(12,0,0,12,265.5,725.8)" />
<use xlink:href="#f0_g" transform="matrix(12,0,0,12,275.6,725.8)" />
<use xlink:href="#f0_a" transform="matrix(12,0,0,12,286.9,725.8)" />
<use xlink:href="#f0_4" transform="matrix(12,0,0,12,294.1,725.8)" />
<use xlink:href="#f0_9" transform="matrix(12,0,0,12,305.4,725.8)" />
<use xlink:href="#f0_q" transform="matrix(12,0,0,12,315,725.8)" />
<use xlink:href="#f0_j" transform="matrix(12,0,0,12,326.6,725.8)" />
<use xlink:href="#f0_4" transform="matrix(12,0,0,12,338.2,725.8)" />
<use xlink:href="#f0_k" transform="matrix(12,0,0,12,349.5,725.8)" />
<use xlink:href="#f0_7" transform="matrix(12,0,0,12,360.3,725.8)" />
<use xlink:href="#f0_o" transform="matrix(12,0,0,12,365.4,725.8)" />
<use xlink:href="#f0_4" transform="matrix(12,0,0,12,375.5,725.8)" />
<use xlink:href="#f0_7" transform="matrix(12,0,0,12,392.6,725.8)" />
<use xlink:href="#f0_j" transform="matrix(12,0,0,12,397.6,725.8)" />
<use xlink:href="#f0_4" transform="matrix(12,0,0,12,409.2,725.8)" />
<use xlink:href="#f0_h" transform="matrix(12,0,0,12,420.5,725.8)" />
<use xlink:href="#f0_a" transform="matrix(12,0,0,12,432.1,725.8)" />
<use xlink:href="#f0_7" transform="matrix(12,0,0,12,439.4,725.8)" />
<use xlink:href="#f0_6" transform="matrix(12,0,0,12,444.5,725.8)" />
<use xlink:href="#f0_7" transform="matrix(12,0,0,12,450.9,725.8)" />
<use xlink:href="#f0_4" transform="matrix(12,0,0,12,455.9,725.8)" />
<use xlink:href="#f0_8" transform="matrix(12,0,0,12,467.2,725.8)" />
<use xlink:href="#f0_9" transform="matrix(12,0,0,12,474.7,725.8)" />
<use xlink:href="#f0_q" transform="matrix(12,0,0,12,484.3,725.8)" />
<use xlink:href="#f0_g" transform="matrix(12,0,0,12,496.1,725.8)" />
<use xlink:href="#f0_h" transform="matrix(12,0,0,12,507.2,725.8)" />
<use xlink:href="#f0_j" transform="matrix(12,0,0,12,518.8,725.8)" />
<use xlink:href="#f0_a" transform="matrix(12,0,0,12,536.3,725.8)" />
<use xlink:href="#f0_3" transform="matrix(12,0,0,12,543.5,725.8)" />
<use xlink:href="#f0_4" transform="matrix(12,0,0,12,555.1,725.8)" />
<use xlink:href="#f0_d" transform="matrix(12,0,0,12,572.2,725.8)" />
<use xlink:href="#f0_b" transform="matrix(12,0,0,12,584.8,725.8)" />
<use xlink:href="#f0_b" transform="matrix(12,0,0,12,596.4,725.8)" />
<use xlink:href="#f0_z" transform="matrix(12,0,0,12,613.8,725.8)" />
<use xlink:href="#f0_15" transform="matrix(12,0,0,12,619.3,725.8)" />
<use xlink:href="#f0_l" transform="matrix(12,0,0,12,633.3,725.8)" />
</g>
<g fill="#0000FF" >
<use xlink:href="#f1_l" transform="matrix(12,0,0,12,86.8,754.6)" />
<use xlink:href="#f1_3" transform="matrix(12,0,0,12,102,754.6)" />
<use xlink:href="#f1_t" transform="matrix(12,0,0,12,114.4,754.6)" />
<use xlink:href="#f1_3" transform="matrix(12,0,0,12,126.3,754.6)" />
<use xlink:href="#f1_j" transform="matrix(12,0,0,12,138.8,754.6)" />
<use xlink:href="#f1_f" transform="matrix(12,0,0,12,145.1,754.6)" />
<use xlink:href="#f1_i" transform="matrix(12,0,0,12,157.6,754.6)" />
<use xlink:href="#f1_r" transform="matrix(12,0,0,12,170.7,754.6)" />
<use xlink:href="#f1_3" transform="matrix(12,0,0,12,189.8,754.6)" />
<use xlink:href="#f1_6" transform="matrix(12,0,0,12,202.3,754.6)" />
<use xlink:href="#f1_4" transform="matrix(12,0,0,12,215.3,754.6)" />
</g>
<g fill="#000000" >
<use xlink:href="#f0_b" transform="matrix(12,0,0,12,230.7,754.6)" />
<use xlink:href="#f0_8" transform="matrix(12,0,0,12,242.3,754.6)" />
<use xlink:href="#f0_c" transform="matrix(12,0,0,12,249.5,754.6)" />
<use xlink:href="#f0_k" transform="matrix(12,0,0,12,260.6,754.6)" />
<use xlink:href="#f0_7" transform="matrix(12,0,0,12,271.5,754.6)" />
<use xlink:href="#f0_9" transform="matrix(12,0,0,12,276.5,754.6)" />
<use xlink:href="#f0_7" transform="matrix(12,0,0,12,286.1,754.6)" />
<use xlink:href="#f0_c" transform="matrix(12,0,0,12,291.2,754.6)" />
<use xlink:href="#f0_h" transform="matrix(12,0,0,12,302.3,754.6)" />
<use xlink:href="#f0_7" transform="matrix(12,0,0,12,314.1,754.6)" />
<use xlink:href="#f0_h" transform="matrix(12,0,0,12,319.1,754.6)" />
<use xlink:href="#f0_f" transform="matrix(12,0,0,12,330.7,754.6)" />
<use xlink:href="#f0_b" transform="matrix(12,0,0,12,348.1,754.6)" />
<use xlink:href="#f0_8" transform="matrix(12,0,0,12,359.9,754.6)" />
<use xlink:href="#f0_c" transform="matrix(12,0,0,12,366.9,754.6)" />
<use xlink:href="#f0_6" transform="matrix(12,0,0,12,378,754.6)" />
<use xlink:href="#f0_7" transform="matrix(12,0,0,12,384.6,754.6)" />
<use xlink:href="#f0_i" transform="matrix(12,0,0,12,389.6,754.6)" />
<use xlink:href="#f0_4" transform="matrix(12,0,0,12,394.7,754.6)" />
<use xlink:href="#f0_9" transform="matrix(12,0,0,12,406,754.6)" />
<use xlink:href="#f0_g" transform="matrix(12,0,0,12,421.4,754.6)" />
<use xlink:href="#f0_8" transform="matrix(12,0,0,12,432.7,754.6)" />
<use xlink:href="#f0_4" transform="matrix(12,0,0,12,439.7,754.6)" />
<use xlink:href="#f0_r" transform="matrix(12,0,0,12,456.8,754.6)" />
<use xlink:href="#f0_9" transform="matrix(12,0,0,12,468.4,754.6)" />
<use xlink:href="#f0_4" transform="matrix(12,0,0,12,478,754.6)" />
<use xlink:href="#f0_j" transform="matrix(12,0,0,12,489.3,754.6)" />
<use xlink:href="#f0_a" transform="matrix(12,0,0,12,506.7,754.6)" />
<use xlink:href="#f0_c" transform="matrix(12,0,0,12,513.9,754.6)" />
<use xlink:href="#f0_n" transform="matrix(12,0,0,12,531,754.6)" />
<use xlink:href="#f0_r" transform="matrix(12,0,0,12,542.6,754.6)" />
<use xlink:href="#f0_7" transform="matrix(12,0,0,12,554.2,754.6)" />
<use xlink:href="#f0_i" transform="matrix(12,0,0,12,559.3,754.6)" />
<use xlink:href="#f0_j" transform="matrix(12,0,0,12,564.3,754.6)" />
<use xlink:href="#f0_g" transform="matrix(12,0,0,12,581.9,754.6)" />
<use xlink:href="#f0_h" transform="matrix(12,0,0,12,593.2,754.6)" />
<use xlink:href="#f0_j" transform="matrix(12,0,0,12,604.8,754.6)" />
<use xlink:href="#f0_7" transform="matrix(12,0,0,12,622.2,754.6)" />
<use xlink:href="#f0_h" transform="matrix(12,0,0,12,627.2,754.6)" />
<use xlink:href="#f0_9" transform="matrix(12,0,0,12,638.8,754.6)" />
<use xlink:href="#f0_a" transform="matrix(12,0,0,12,648.4,754.6)" />
<use xlink:href="#f0_g" transform="matrix(12,0,0,12,655.5,754.6)" />
<use xlink:href="#f0_i" transform="matrix(12,0,0,12,666.8,754.6)" />
<use xlink:href="#f0_i" transform="matrix(12,0,0,12,671.9,754.6)" />
<use xlink:href="#f0_k" transform="matrix(12,0,0,12,682.8,754.6)" />
<use xlink:href="#f0_4" transform="matrix(12,0,0,12,693.6,754.6)" />
<use xlink:href="#f0_8" transform="matrix(12,0,0,12,704.9,754.6)" />
<use xlink:href="#f0_9" transform="matrix(12,0,0,12,712.4,754.6)" />
<use xlink:href="#f0_7" transform="matrix(12,0,0,12,722,754.6)" />
<use xlink:href="#f0_c" transform="matrix(12,0,0,12,727,754.6)" />
<use xlink:href="#f0_h" transform="matrix(12,0,0,12,738.2,754.6)" />
<use xlink:href="#f0_9" transform="matrix(12,0,0,12,749.8,754.6)" />
<use xlink:href="#f0_c" transform="matrix(12,0,0,12,765.2,754.6)" />
<use xlink:href="#f0_6" transform="matrix(12,0,0,12,776.5,754.6)" />
<use xlink:href="#f0_t" transform="matrix(12,0,0,12,86.8,783.1)" />
<use xlink:href="#f0_c" transform="matrix(12,0,0,12,97.6,783.1)" />
<use xlink:href="#f0_r" transform="matrix(12,0,0,12,108.8,783.1)" />
<use xlink:href="#f0_8" transform="matrix(12,0,0,12,120.5,783.1)" />
<use xlink:href="#f0_g" transform="matrix(12,0,0,12,133.8,783.1)" />
<use xlink:href="#f0_b" transform="matrix(12,0,0,12,145.1,783.1)" />
<use xlink:href="#f0_b" transform="matrix(12,0,0,12,156.7,783.1)" />
<use xlink:href="#f0_j" transform="matrix(12,0,0,12,174.1,783.1)" />
<use xlink:href="#f0_r" transform="matrix(12,0,0,12,185.7,783.1)" />
<use xlink:href="#f0_8" transform="matrix(12,0,0,12,197.3,783.1)" />
<use xlink:href="#f0_7" transform="matrix(12,0,0,12,205,783.1)" />
<use xlink:href="#f0_h" transform="matrix(12,0,0,12,210,783.1)" />
<use xlink:href="#f0_f" transform="matrix(12,0,0,12,221.6,783.1)" />
<use xlink:href="#f0_t" transform="matrix(12,0,0,12,239.1,783.1)" />
<use xlink:href="#f0_c" transform="matrix(12,0,0,12,250,783.1)" />
<use xlink:href="#f0_r" transform="matrix(12,0,0,12,261.1,783.1)" />
<use xlink:href="#f0_8" transform="matrix(12,0,0,12,272.7,783.1)" />
<use xlink:href="#f0_j" transform="matrix(12,0,0,12,286.2,783.1)" />
<use xlink:href="#f0_4" transform="matrix(12,0,0,12,297.8,783.1)" />
<use xlink:href="#f0_k" transform="matrix(12,0,0,12,309.1,783.1)" />
<use xlink:href="#f0_4" transform="matrix(12,0,0,12,319.7,783.1)" />
<use xlink:href="#f0_i" transform="matrix(12,0,0,12,331,783.1)" />
<use xlink:href="#f0_c" transform="matrix(12,0,0,12,336.2,783.1)" />
<use xlink:href="#f0_b" transform="matrix(12,0,0,12,347.3,783.1)" />
<use xlink:href="#f0_p" transform="matrix(12,0,0,12,359,783.1)" />
<use xlink:href="#f0_4" transform="matrix(12,0,0,12,376.8,783.1)" />
<use xlink:href="#f0_h" transform="matrix(12,0,0,12,388.1,783.1)" />
<use xlink:href="#f0_a" transform="matrix(12,0,0,12,399.7,783.1)" />
<use xlink:href="#f0_b" transform="matrix(12,0,0,12,412.7,783.1)" />
<use xlink:href="#f0_8" transform="matrix(12,0,0,12,424.5,783.1)" />
<use xlink:href="#f0_c" transform="matrix(12,0,0,12,431.5,783.1)" />
<use xlink:href="#f0_o" transform="matrix(12,0,0,12,442.6,783.1)" />
<use xlink:href="#f0_4" transform="matrix(12,0,0,12,452.7,783.1)" />
<use xlink:href="#f0_9" transform="matrix(12,0,0,12,464,783.1)" />
<use xlink:href="#f0_9" transform="matrix(12,0,0,12,473.6,783.1)" />
<use xlink:href="#f0_g" transform="matrix(12,0,0,12,489,783.1)" />
<use xlink:href="#f0_h" transform="matrix(12,0,0,12,500.2,783.1)" />
<use xlink:href="#f0_j" transform="matrix(12,0,0,12,511.8,783.1)" />
</g>
<g fill="#0000FF" >
<use xlink:href="#f1_l" transform="matrix(12,0,0,12,529.7,783.1)" />
<use xlink:href="#f1_5" transform="matrix(12,0,0,12,544.9,783.1)" />
<use xlink:href="#f1_v" transform="matrix(12,0,0,12,551.2,783.1)" />
<use xlink:href="#f1_4" transform="matrix(12,0,0,12,562.1,783.1)" />
<use xlink:href="#f1_b" transform="matrix(12,0,0,12,570.8,783.1)" />
<use xlink:href="#f1_5" transform="matrix(12,0,0,12,579.8,783.1)" />
<use xlink:href="#f1_q" transform="matrix(12,0,0,12,586.1,783.1)" />
<use xlink:href="#f1_g" transform="matrix(12,0,0,12,599.2,783.1)" />
<use xlink:href="#f1_4" transform="matrix(12,0,0,12,612.3,783.1)" />
<use xlink:href="#f1_5" transform="matrix(12,0,0,12,621,783.1)" />
<use xlink:href="#f1_f" transform="matrix(12,0,0,12,627.3,783.1)" />
<use xlink:href="#f1_6" transform="matrix(12,0,0,12,640,783.1)" />
</g>
<g fill="#000000" >
<use xlink:href="#f0_b" transform="matrix(12,0,0,12,659.4,783.1)" />
<use xlink:href="#f0_8" transform="matrix(12,0,0,12,671.1,783.1)" />
<use xlink:href="#f0_c" transform="matrix(12,0,0,12,678.2,783.1)" />
<use xlink:href="#f0_k" transform="matrix(12,0,0,12,689.3,783.1)" />
<use xlink:href="#f0_7" transform="matrix(12,0,0,12,700.1,783.1)" />
<use xlink:href="#f0_9" transform="matrix(12,0,0,12,705.2,783.1)" />
<use xlink:href="#f0_7" transform="matrix(12,0,0,12,714.8,783.1)" />
<use xlink:href="#f0_c" transform="matrix(12,0,0,12,720,783.1)" />
<use xlink:href="#f0_h" transform="matrix(12,0,0,12,731.1,783.1)" />
<use xlink:href="#f0_7" transform="matrix(12,0,0,12,742.7,783.1)" />
<use xlink:href="#f0_h" transform="matrix(12,0,0,12,747.8,783.1)" />
<use xlink:href="#f0_f" transform="matrix(12,0,0,12,759.4,783.1)" />
<use xlink:href="#f0_b" transform="matrix(12,0,0,12,86.8,811.9)" />
<use xlink:href="#f0_8" transform="matrix(12,0,0,12,98.5,811.9)" />
<use xlink:href="#f0_c" transform="matrix(12,0,0,12,105.6,811.9)" />
<use xlink:href="#f0_6" transform="matrix(12,0,0,12,116.7,811.9)" />
<use xlink:href="#f0_7" transform="matrix(12,0,0,12,123.2,811.9)" />
<use xlink:href="#f0_i" transform="matrix(12,0,0,12,128.3,811.9)" />
<use xlink:href="#f0_4" transform="matrix(12,0,0,12,133.3,811.9)" />
<use xlink:href="#f0_9" transform="matrix(12,0,0,12,144.6,811.9)" />
<use xlink:href="#f0_g" transform="matrix(12,0,0,12,160,811.9)" />
<use xlink:href="#f0_8" transform="matrix(12,0,0,12,171.3,811.9)" />
<use xlink:href="#f0_4" transform="matrix(12,0,0,12,178.4,811.9)" />
<use xlink:href="#f0_r" transform="matrix(12,0,0,12,195.5,811.9)" />
<use xlink:href="#f0_9" transform="matrix(12,0,0,12,207.1,811.9)" />
<use xlink:href="#f0_4" transform="matrix(12,0,0,12,216.7,811.9)" />
<use xlink:href="#f0_j" transform="matrix(12,0,0,12,228,811.9)" />
<use xlink:href="#f0_6" transform="matrix(12,0,0,12,245.4,811.9)" />
<use xlink:href="#f0_c" transform="matrix(12,0,0,12,251.8,811.9)" />
<use xlink:href="#f0_8" transform="matrix(12,0,0,12,262.9,811.9)" />
<use xlink:href="#f0_9" transform="matrix(12,0,0,12,276.4,811.9)" />
<use xlink:href="#f0_r" transform="matrix(12,0,0,12,286,811.9)" />
<use xlink:href="#f0_n" transform="matrix(12,0,0,12,297.6,811.9)" />
<use xlink:href="#f0_p" transform="matrix(12,0,0,12,309.2,811.9)" />
<use xlink:href="#f0_7" transform="matrix(12,0,0,12,327.1,811.9)" />
<use xlink:href="#f0_a" transform="matrix(12,0,0,12,332.1,811.9)" />
<use xlink:href="#f0_a" transform="matrix(12,0,0,12,339.3,811.9)" />
<use xlink:href="#f0_7" transform="matrix(12,0,0,12,346.5,811.9)" />
<use xlink:href="#f0_h" transform="matrix(12,0,0,12,351.5,811.9)" />
<use xlink:href="#f0_f" transform="matrix(12,0,0,12,363.1,811.9)" />
<use xlink:href="#f0_t" transform="matrix(12,0,0,12,380.7,811.9)" />
<use xlink:href="#f0_c" transform="matrix(12,0,0,12,391.5,811.9)" />
<use xlink:href="#f0_r" transform="matrix(12,0,0,12,402.7,811.9)" />
<use xlink:href="#f0_8" transform="matrix(12,0,0,12,414.3,811.9)" />
<use xlink:href="#f0_g" transform="matrix(12,0,0,12,427.7,811.9)" />
<use xlink:href="#f0_b" transform="matrix(12,0,0,12,439,811.9)" />
<use xlink:href="#f0_b" transform="matrix(12,0,0,12,450.6,811.9)" />
<use xlink:href="#f0_9" transform="matrix(12,0,0,12,462.1,811.9)" />
<use xlink:href="#f0_a" transform="matrix(12,0,0,12,477.5,811.9)" />
<use xlink:href="#f0_c" transform="matrix(12,0,0,12,484.7,811.9)" />
<use xlink:href="#f0_a" transform="matrix(12,0,0,12,501.8,811.9)" />
<use xlink:href="#f0_3" transform="matrix(12,0,0,12,509,811.9)" />
<use xlink:href="#f0_4" transform="matrix(12,0,0,12,520.6,811.9)" />
<use xlink:href="#f0_d" transform="matrix(12,0,0,12,537.7,811.9)" />
<use xlink:href="#f0_b" transform="matrix(12,0,0,12,550.2,811.9)" />
<use xlink:href="#f0_b" transform="matrix(12,0,0,12,561.8,811.9)" />
<use xlink:href="#f0_e" transform="matrix(12,0,0,12,579.4,811.9)" />
<use xlink:href="#f0_a" transform="matrix(12,0,0,12,591,811.9)" />
<use xlink:href="#f0_c" transform="matrix(12,0,0,12,598.1,811.9)" />
<use xlink:href="#f0_8" transform="matrix(12,0,0,12,609.4,811.9)" />
<use xlink:href="#f0_4" transform="matrix(12,0,0,12,616.5,811.9)" />
<use xlink:href="#f0_g" transform="matrix(12,0,0,12,633.6,811.9)" />
<use xlink:href="#f0_h" transform="matrix(12,0,0,12,644.9,811.9)" />
<use xlink:href="#f0_j" transform="matrix(12,0,0,12,656.5,811.9)" />
<use xlink:href="#f0_n" transform="matrix(12,0,0,12,673.9,811.9)" />
<use xlink:href="#f0_4" transform="matrix(12,0,0,12,685.5,811.9)" />
<use xlink:href="#f0_a" transform="matrix(12,0,0,12,696.8,811.9)" />
<use xlink:href="#f0_g" transform="matrix(12,0,0,12,704,811.9)" />
<use xlink:href="#f0_a" transform="matrix(12,0,0,12,721.1,811.9)" />
<use xlink:href="#f0_4" transform="matrix(12,0,0,12,728.3,811.9)" />
<use xlink:href="#f0_9" transform="matrix(12,0,0,12,739.4,811.9)" />
<use xlink:href="#f0_a" transform="matrix(12,0,0,12,749,811.9)" />
<use xlink:href="#f0_4" transform="matrix(12,0,0,12,756.2,811.9)" />
<use xlink:href="#f0_8" transform="matrix(12,0,0,12,767.5,811.9)" />
<use xlink:href="#f0_9" transform="matrix(12,0,0,12,775,811.9)" />
<use xlink:href="#f0_l" transform="matrix(12,0,0,12,784.6,811.9)" />
<use xlink:href="#f0_13" transform="matrix(12,0,0,12,86.8,840.4)" />
<use xlink:href="#f0_h" transform="matrix(12,0,0,12,101.1,840.4)" />
<use xlink:href="#f0_a" transform="matrix(12,0,0,12,118.7,840.4)" />
<use xlink:href="#f0_3" transform="matrix(12,0,0,12,125.9,840.4)" />
<use xlink:href="#f0_4" transform="matrix(12,0,0,12,137.5,840.4)" />
<use xlink:href="#f0_8" transform="matrix(12,0,0,12,154.6,840.4)" />
<use xlink:href="#f0_7" transform="matrix(12,0,0,12,162.1,840.4)" />
<use xlink:href="#f0_f" transform="matrix(12,0,0,12,167.1,840.4)" />
<use xlink:href="#f0_3" transform="matrix(12,0,0,12,178.9,840.4)" />
<use xlink:href="#f0_a" transform="matrix(12,0,0,12,190.5,840.4)" />
<use xlink:href="#f0_9" transform="matrix(12,0,0,12,203.5,840.4)" />
<use xlink:href="#f0_7" transform="matrix(12,0,0,12,213.1,840.4)" />
<use xlink:href="#f0_j" transform="matrix(12,0,0,12,218.1,840.4)" />
<use xlink:href="#f0_4" transform="matrix(12,0,0,12,229.7,840.4)" />
<use xlink:href="#f0_c" transform="matrix(12,0,0,12,246.8,840.4)" />
<use xlink:href="#f0_6" transform="matrix(12,0,0,12,258,840.4)" />
<use xlink:href="#f0_a" transform="matrix(12,0,0,12,270.3,840.4)" />
<use xlink:href="#f0_3" transform="matrix(12,0,0,12,277.5,840.4)" />
<use xlink:href="#f0_4" transform="matrix(12,0,0,12,289.1,840.4)" />
<use xlink:href="#f0_9" transform="matrix(12,0,0,12,306.2,840.4)" />
<use xlink:href="#f0_o" transform="matrix(12,0,0,12,315.8,840.4)" />
<use xlink:href="#f0_8" transform="matrix(12,0,0,12,325.9,840.4)" />
<use xlink:href="#f0_4" transform="matrix(12,0,0,12,332.9,840.4)" />
<use xlink:href="#f0_4" transform="matrix(12,0,0,12,344.2,840.4)" />
<use xlink:href="#f0_h" transform="matrix(12,0,0,12,355.5,840.4)" />
<use xlink:href="#f0_o" transform="matrix(12,0,0,12,372.9,840.4)" />
<use xlink:href="#f0_i" transform="matrix(12,0,0,12,383,840.4)" />
<use xlink:href="#f0_7" transform="matrix(12,0,0,12,388.2,840.4)" />
<use xlink:href="#f0_o" transform="matrix(12,0,0,12,393.2,840.4)" />
<use xlink:href="#f0_10" transform="matrix(12,0,0,12,403.3,840.4)" />
<use xlink:href="#f0_c" transform="matrix(12,0,0,12,419.7,840.4)" />
<use xlink:href="#f0_h" transform="matrix(12,0,0,12,430.9,840.4)" />
<use xlink:href="#f0_a" transform="matrix(12,0,0,12,448.3,840.4)" />
<use xlink:href="#f0_3" transform="matrix(12,0,0,12,455.5,840.4)" />
<use xlink:href="#f0_4" transform="matrix(12,0,0,12,467.1,840.4)" />
</g>
<g fill="#0000FF" >
<use xlink:href="#f1_1a" transform="matrix(12,0,0,12,484.6,840.4)" />
</g>
<g fill="#000000" >
<use xlink:href="#f0_12" transform="matrix(12,0,0,12,499.9,840.4)" />
<use xlink:href="#f0_18" transform="matrix(12,0,0,12,86.8,950.1)" />
<use xlink:href="#f0_3" transform="matrix(12,0,0,12,99.6,950.1)" />
<use xlink:href="#f0_c" transform="matrix(12,0,0,12,111.2,950.1)" />
<use xlink:href="#f0_c" transform="matrix(12,0,0,12,122.3,950.1)" />
<use xlink:href="#f0_9" transform="matrix(12,0,0,12,133.5,950.1)" />
<use xlink:href="#f0_4" transform="matrix(12,0,0,12,143.1,950.1)" />
</g>
<g fill="#0000FF" >
<use xlink:href="#f1_5" transform="matrix(12,0,0,12,160.3,950.1)" />
<use xlink:href="#f1_19" transform="matrix(12,0,0,12,166.5,950.1)" />
<use xlink:href="#f1_9" transform="matrix(12,0,0,12,182.1,950.1)" />
<use xlink:href="#f1_d" transform="matrix(12,0,0,12,201.8,950.1)" />
<use xlink:href="#f1_i" transform="matrix(12,0,0,12,215.9,950.1)" />
<use xlink:href="#f1_i" transform="matrix(12,0,0,12,229,950.1)" />
<use xlink:href="#f1_l" transform="matrix(12,0,0,12,248.5,950.1)" />
<use xlink:href="#f1_3" transform="matrix(12,0,0,12,263.8,950.1)" />
<use xlink:href="#f1_t" transform="matrix(12,0,0,12,276.1,950.1)" />
<use xlink:href="#f1_3" transform="matrix(12,0,0,12,288,950.1)" />
<use xlink:href="#f1_j" transform="matrix(12,0,0,12,300.4,950.1)" />
<use xlink:href="#f1_f" transform="matrix(12,0,0,12,306.8,950.1)" />
<use xlink:href="#f1_i" transform="matrix(12,0,0,12,319.3,950.1)" />
<use xlink:href="#f1_r" transform="matrix(12,0,0,12,332.5,950.1)" />
<use xlink:href="#f1_3" transform="matrix(12,0,0,12,351.6,950.1)" />
<use xlink:href="#f1_6" transform="matrix(12,0,0,12,364.1,950.1)" />
<use xlink:href="#f1_4" transform="matrix(12,0,0,12,377,950.1)" />
</g>
<g fill="#000000" >
<use xlink:href="#f0_q" transform="matrix(12,0,0,12,385.9,950.1)" />
<use xlink:href="#f0_a" transform="matrix(12,0,0,12,397.7,950.1)" />
<use xlink:href="#f0_3" transform="matrix(12,0,0,12,404.9,950.1)" />
<use xlink:href="#f0_4" transform="matrix(12,0,0,12,416.5,950.1)" />
<use xlink:href="#f0_h" transform="matrix(12,0,0,12,427.8,950.1)" />
<use xlink:href="#f0_o" transform="matrix(12,0,0,12,445.2,950.1)" />
<use xlink:href="#f0_i" transform="matrix(12,0,0,12,455.2,950.1)" />
<use xlink:href="#f0_7" transform="matrix(12,0,0,12,460.3,950.1)" />
<use xlink:href="#f0_o" transform="matrix(12,0,0,12,465.3,950.1)" />
<use xlink:href="#f0_10" transform="matrix(12,0,0,12,475.4,950.1)" />
</g>
<g fill="#0000FF" >
<use xlink:href="#f1_h" transform="matrix(12,0,0,12,491.9,950.1)" />
<use xlink:href="#f1_f" transform="matrix(12,0,0,12,505.4,950.1)" />
<use xlink:href="#f1_6" transform="matrix(12,0,0,12,518.1,950.1)" />
<use xlink:href="#f1_4" transform="matrix(12,0,0,12,531,950.1)" />
<use xlink:href="#f1_5" transform="matrix(12,0,0,12,539.7,950.1)" />
<use xlink:href="#f1_6" transform="matrix(12,0,0,12,546.1,950.1)" />
<use xlink:href="#f1_g" transform="matrix(12,0,0,12,559.1,950.1)" />
<use xlink:href="#f1_3" transform="matrix(12,0,0,12,572.1,950.1)" />
</g>
<g fill="#000000" >
<use xlink:href="#f0_12" transform="matrix(12,0,0,12,584.7,950.1)" />
</g>
</g>
<image preserveAspectRatio="none" x="87" y="87" width="736" height="536" xlink:href="img/1.png" />
<image preserveAspectRatio="none" x="87" y="845" width="736" height="60" xlink:href="img/2.png" />
<defs>
<path d="M391,0V530L-2,1114H159L468,656l307,458H937L543,530V0Z" 
id="f0_x"
transform="scale(0.001,-0.001)" />

<path d="M467,95c0,0,110,0,174,86c0,0,64,87,64,236c0,0,0,148,-64,235c0,0,-64,87,-174,87c0,0,-110,0,-174,-86c0,0,-64,-86,-64,-236c0,0,0,-150,64,-236c0,0,63,-86,174,-86Zm0,-115c0,0,-179,0,-281,115C186,95,84,212,84,417c0,0,0,206,102,322c0,0,102,117,281,117c0,0,179,0,282,-117c0,0,102,-116,102,-322c0,0,0,-205,-102,-322C749,95,646,-20,467,-20Z" 
id="f0_c"
transform="scale(0.001,-0.001)" />

<path d="M424,-20c0,0,-145,0,-219,88c0,0,-75,89,-75,262V836H267V335c0,0,0,-119,46,-178c0,0,47,-59,139,-59c0,0,112,0,177,71c0,0,64,71,64,193V836H830V0H693V128C693,128,643,52,577,15c0,0,-66,-35,-153,-35Z" 
id="f0_r"
transform="scale(0.001,-0.001)" />

<path d="M132,763l62,237v114H351V1000L228,763Z" 
id="f0_11"
transform="scale(0.001,-0.001)" />

<path d="M144,0V1161H281V0Z" 
id="f0_i"
transform="scale(0.001,-0.001)" />

<path d="M376,-20c0,0,-67,0,-140,12C236,-8,164,4,83,30V172c0,0,76,-40,150,-59c0,0,74,-20,146,-20c0,0,97,0,150,33c0,0,52,33,52,94c0,0,0,56,-38,85c0,0,-38,30,-165,58l-48,11c0,0,-128,27,-184,83c0,0,-57,55,-57,152c0,0,0,118,83,182c0,0,84,65,238,65c0,0,76,0,143,-12c0,0,67,-11,124,-33V681c0,0,-58,29,-121,44c0,0,-63,15,-130,15c0,0,-102,0,-153,-31c0,0,-51,-31,-51,-94c0,0,0,-48,37,-75c0,0,36,-27,147,-52l46,-10c0,0,147,-32,208,-89c0,0,62,-57,62,-159c0,0,0,-116,-93,-184c0,0,-92,-66,-253,-66Z" 
id="f0_9"
transform="scale(0.001,-0.001)" />

<path d="M231,492l491,1c0,0,-2,112,-64,179c0,0,-61,67,-163,67c0,0,-115,0,-184,-65c0,0,-69,-64,-80,-182ZM517,-20c0,0,-199,0,-316,115C201,95,84,211,84,410c0,0,0,205,111,325c0,0,111,121,299,121c0,0,168,0,266,-109c0,0,98,-108,98,-295V385H227c0,0,9,-142,85,-216c0,0,77,-74,213,-74c0,0,80,0,154,19c0,0,74,19,147,58V42C826,42,752,11,675,-4c0,0,-78,-16,-158,-16Z" 
id="f0_4"
transform="scale(0.001,-0.001)" />

<path d="M408,93c0,0,115,0,184,81c0,0,69,81,69,215v30H524c0,0,-167,0,-231,-38c0,0,-64,-38,-64,-129c0,0,0,-73,48,-116c0,0,48,-43,131,-43ZM372,-20c0,0,-128,0,-204,70c0,0,-76,72,-76,193c0,0,0,141,94,212c0,0,95,72,282,72H661v13c0,0,0,95,-62,147c0,0,-63,52,-175,52c0,0,-72,0,-140,-17c0,0,-68,-17,-130,-51V798c0,0,75,29,146,43c0,0,71,15,138,15c0,0,181,0,270,-95c0,0,90,-94,90,-285V0H661V127C661,127,614,51,544,15c0,0,-70,-35,-172,-35Z" 
id="f0_g"
transform="scale(0.001,-0.001)" />

<path d="M510,93c0,0,109,0,171,86c0,0,62,86,62,238c0,0,0,151,-62,237c0,0,-62,86,-171,86c0,0,-109,0,-171,-86c0,0,-62,-86,-62,-237c0,0,0,-152,62,-238c0,0,62,-86,171,-86ZM544,-20c0,0,-92,0,-158,35c0,0,-66,36,-109,110V0H139V1161H277V709c0,0,43,74,109,110c0,0,66,37,158,37c0,0,152,0,247,-121c0,0,95,-121,95,-318c0,0,0,-197,-95,-318C791,99,696,-20,544,-20Z" 
id="f0_n"
transform="scale(0.001,-0.001)" />

<path d="M139,0V836H277V706c0,0,43,76,112,113c0,0,70,37,169,37c0,0,14,0,31,-2c0,0,17,-2,38,-6l1,-141c0,0,-23,14,-51,20c0,0,-27,6,-60,6c0,0,-116,0,-178,-75c0,0,-62,-76,-62,-218V0Z" 
id="f0_8"
transform="scale(0.001,-0.001)" />

<path d="M144,0V836H281V0Zm0,987v174H281V987Z" 
id="f0_7"
transform="scale(0.001,-0.001)" />

<path d="M166,0V729H35V836H166v58c0,0,0,139,65,203c0,0,65,64,206,64H567V1046H435c0,0,-74,0,-102,-29c0,0,-29,-30,-29,-107V836H530V729H304V0Z" 
id="f0_6"
transform="scale(0.001,-0.001)" />

<path d="M44,0L369,437L71,836H233L455,538L677,836H839L537,429L855,0H693L449,328L206,0Z" 
id="f0_14"
transform="scale(0.001,-0.001)" />

<path d="M510,93c0,0,109,0,171,86c0,0,62,86,62,238c0,0,0,151,-62,237c0,0,-62,86,-171,86c0,0,-109,0,-171,-86c0,0,-62,-86,-62,-237c0,0,0,-152,62,-238c0,0,62,-86,171,-86ZM139,-317V836H277V709c0,0,43,74,109,110c0,0,66,37,158,37c0,0,152,0,247,-121c0,0,95,-121,95,-318c0,0,0,-197,-95,-318C791,99,696,-20,544,-20c0,0,-92,0,-158,35c0,0,-66,36,-109,110V-317Z" 
id="f0_b"
transform="scale(0.001,-0.001)" />

<path d="M139,0V836H277V706c0,0,49,75,116,112c0,0,67,38,154,38c0,0,144,0,218,-90c0,0,74,-89,74,-262V0H702V500c0,0,0,119,-46,177c0,0,-47,59,-139,59c0,0,-112,0,-176,-71c0,0,-64,-70,-64,-193V0Z" 
id="f0_h"
transform="scale(0.001,-0.001)" />

<path d="M421,0C421,0,263,0,202,59c0,0,-60,60,-60,217V729H41V836H142v238H280V836H562V729H280V276c0,0,0,-102,28,-132c0,0,28,-29,113,-29H562V0Z" 
id="f0_a"
transform="scale(0.001,-0.001)" />

<path d="M460,93c0,0,109,0,171,86c0,0,63,86,63,238c0,0,0,151,-63,237c0,0,-62,86,-171,86c0,0,-109,0,-172,-86c0,0,-62,-86,-62,-237c0,0,0,-152,62,-238c0,0,63,-86,172,-86ZM426,-20c0,0,-151,0,-247,119c0,0,-95,121,-95,318c0,0,0,197,95,318c0,0,96,121,247,121c0,0,93,0,159,-37c0,0,66,-36,109,-110v452H831V0H694V125C694,125,651,51,585,15c0,0,-66,-35,-159,-35Z" 
id="f0_j"
transform="scale(0.001,-0.001)" />

<path d="M495,-20c0,0,-189,0,-300,117C195,97,84,216,84,417c0,0,0,204,112,321c0,0,113,118,308,118c0,0,64,0,124,-14c0,0,60,-13,117,-39V675c0,0,-58,32,-117,48c0,0,-58,16,-118,16c0,0,-133,0,-207,-84c0,0,-74,-85,-74,-238c0,0,0,-153,74,-238c0,0,74,-84,207,-84c0,0,60,0,118,16c0,0,59,16,117,48V32C745,32,688,5,626,-7c0,0,-61,-13,-131,-13Z" 
id="f0_o"
transform="scale(0.001,-0.001)" />

<path d="M460,115c0,0,111,0,173,82c0,0,61,82,61,230c0,0,0,149,-61,231c0,0,-62,82,-173,82c0,0,-111,0,-173,-82c0,0,-61,-82,-61,-231c0,0,0,-148,61,-230c0,0,62,-82,173,-82ZM446,-317c0,0,-72,0,-137,11c0,0,-64,11,-124,33v134c0,0,60,-33,119,-49c0,0,59,-15,121,-15c0,0,135,0,202,70c0,0,67,71,67,212v68C694,147,652,73,585,36C585,36,519,0,426,0C426,0,272,0,178,117c0,0,-94,117,-94,310c0,0,0,194,94,311c0,0,94,118,248,118c0,0,93,0,159,-37c0,0,67,-36,109,-110V836H831V104c0,0,0,-212,-95,-317c0,0,-94,-104,-290,-104Z" 
id="f0_f"
transform="scale(0.001,-0.001)" />

<path d="M283,0L65,836H202L373,184L544,836H706L878,184l171,652h137L967,0H806L626,685L445,0Z" 
id="f0_y"
transform="scale(0.001,-0.001)" />

<path d="M139,0V1161H277V706c0,0,49,75,116,112c0,0,67,38,154,38c0,0,144,0,218,-90c0,0,74,-89,74,-262V0H702V500c0,0,0,119,-46,177c0,0,-47,59,-139,59c0,0,-112,0,-176,-71c0,0,-64,-70,-64,-193V0Z" 
id="f0_3"
transform="scale(0.001,-0.001)" />

<path d="M602,101c0,0,164,0,260,122c0,0,95,123,95,333c0,0,0,211,-95,334c0,0,-96,122,-260,122c0,0,-164,0,-260,-122c0,0,-97,-123,-97,-334c0,0,0,-210,97,-333c0,0,96,-122,260,-122Zm0,-121c0,0,-235,0,-375,155C227,135,86,292,86,556c0,0,0,264,141,421c0,0,140,157,375,157c0,0,234,0,374,-157c0,0,141,-157,141,-421c0,0,0,-263,-141,-420C976,136,836,-20,602,-20Z" 
id="f0_13"
transform="scale(0.001,-0.001)" />

<path d="M458,-20c0,0,-79,0,-168,17c0,0,-89,17,-184,52V204c0,0,91,-51,179,-77c0,0,88,-26,173,-26c0,0,129,0,199,50c0,0,70,51,70,145c0,0,0,82,-50,129c0,0,-50,46,-165,69l-92,18c0,0,-169,34,-244,105c0,0,-75,72,-75,199c0,0,0,148,104,233c0,0,104,85,287,85c0,0,78,0,159,-14c0,0,81,-14,166,-42V931c0,0,-85,41,-161,61c0,0,-76,20,-147,20c0,0,-123,0,-190,-48c0,0,-67,-48,-67,-136c0,0,0,-73,45,-111c0,0,44,-38,168,-61l91,-19c0,0,168,-32,249,-113c0,0,80,-81,80,-216c0,0,0,-162,-109,-246c0,0,-108,-82,-318,-82Z" 
id="f0_e"
transform="scale(0.001,-0.001)" />

<path d="M359,0L46,836H191L453,134L714,836H859L546,0Z" 
id="f0_k"
transform="scale(0.001,-0.001)" />

<path d="M163,0V190H321V0Z" 
id="f0_l"
transform="scale(0.001,-0.001)" />

<path d="M727,411L522,965L318,411ZM12,0L437,1114H608L1033,0H876L774,286H272L171,0Z" 
id="f0_d"
transform="scale(0.001,-0.001)" />

<path d="M-26,-317v117H9c0,0,78,0,106,36c0,0,29,36,29,150V836H281V-14c0,0,0,-160,-61,-231c0,0,-61,-72,-195,-72ZM144,987v174H281V987Z" 
id="f0_19"
transform="scale(0.001,-0.001)" />

<path d="M121,-317v116h81c0,0,57,0,88,26c0,0,31,27,69,127l25,62L46,836H191L453,182L714,836H859L492,-76c0,0,-58,-150,-113,-195c0,0,-55,-46,-148,-46Z" 
id="f0_t"
transform="scale(0.001,-0.001)" />

<path d="M117,-176L179,62V190H336V62L213,-176Z" 
id="f0_q"
transform="scale(0.001,-0.001)" />

<path d="M150,0V1114H300V0Z" 
id="f0_z"
transform="scale(0.001,-0.001)" />

<path d="M482,124c0,0,231,0,338,105c0,0,107,104,107,329c0,0,0,224,-107,328c0,0,-107,104,-338,104H300V124ZM150,0V1114H459c0,0,324,0,476,-135c0,0,151,-135,151,-421c0,0,0,-288,-152,-423C934,135,782,0,459,0Z" 
id="f0_15"
transform="scale(0.001,-0.001)" />

<path d="M530,217c0,0,176,0,269,87c0,0,93,88,93,254c0,0,0,166,-93,252c0,0,-92,87,-269,87H427V217ZM140,0V1114H443c0,0,253,0,378,-36c0,0,124,-37,213,-123c0,0,78,-76,116,-174c0,0,38,-98,38,-223c0,0,0,-126,-38,-225c0,0,-38,-99,-116,-174c0,0,-90,-87,-215,-123C819,36,694,0,443,0Z" 
id="f1_l"
transform="scale(0.001,-0.001)" />

<path d="M687,509c0,0,0,76,-44,122c0,0,-44,47,-116,47c0,0,-78,0,-126,-44c0,0,-49,-43,-61,-125ZM544,-20c0,0,-227,0,-353,114C191,94,66,209,66,417c0,0,0,204,123,321c0,0,123,118,340,118c0,0,197,0,315,-119c0,0,118,-118,118,-317V344H337c0,0,10,-94,68,-141c0,0,59,-47,163,-47c0,0,85,0,173,25c0,0,89,25,182,76V51C923,51,828,15,733,-2c0,0,-94,-18,-189,-18Z" 
id="f1_3"
transform="scale(0.001,-0.001)" />

<path d="M352,0L23,836H291L499,258L706,836H974L645,0Z" 
id="f1_t"
transform="scale(0.001,-0.001)" />

<path d="M128,0V1161H395V0Z" 
id="f1_j"
transform="scale(0.001,-0.001)" />

<path d="M526,169c0,0,87,0,133,64c0,0,46,64,46,184c0,0,0,120,-46,184c0,0,-46,64,-133,64c0,0,-89,0,-135,-64c0,0,-47,-64,-47,-184c0,0,0,-120,47,-184c0,0,46,-64,135,-64Zm0,-189c0,0,-217,0,-339,115C187,95,66,211,66,417c0,0,0,206,121,322c0,0,122,117,339,117c0,0,215,0,336,-117c0,0,122,-116,122,-322c0,0,0,-206,-122,-322C862,95,741,-20,526,-20Z" 
id="f1_f"
transform="scale(0.001,-0.001)" />

<path d="M573,172c0,0,86,0,131,63c0,0,45,63,45,182c0,0,0,119,-45,182c0,0,-45,63,-131,63c0,0,-86,0,-132,-63c0,0,-46,-63,-46,-182c0,0,0,-119,46,-182c0,0,46,-63,132,-63ZM128,-317V836H395V713c0,0,55,73,122,108c0,0,68,35,155,35c0,0,154,0,253,-123c0,0,100,-123,100,-316c0,0,0,-193,-100,-316c0,0,-99,-121,-253,-121c0,0,-87,0,-155,33c0,0,-67,35,-122,108V-317Z" 
id="f1_i"
transform="scale(0.001,-0.001)" />

<path d="M127,0V836H396V713c0,0,49,71,113,107c0,0,64,36,141,36c0,0,86,0,152,-42c0,0,67,-42,101,-118c0,0,51,78,121,119c0,0,69,41,153,41c0,0,144,0,219,-89c0,0,76,-89,76,-258V0H1203V436c0,0,0,9,1,20c0,0,0,10,0,30c0,0,0,88,-26,128c0,0,-26,40,-84,40c0,0,-76,0,-117,-63c0,0,-42,-62,-43,-181V0H665V436c0,0,0,138,-24,178c0,0,-24,40,-85,40c0,0,-77,0,-118,-63c0,0,-42,-63,-42,-180V0Z" 
id="f1_r"
transform="scale(0.001,-0.001)" />

<path d="M128,0V836H395V713c0,0,60,73,128,108c0,0,68,35,150,35c0,0,145,0,220,-89c0,0,75,-89,75,-258V0H699V389c0,0,0,109,-5,150c0,0,-5,41,-16,60c0,0,-16,26,-43,41c0,0,-27,14,-61,14c0,0,-84,0,-131,-64c0,0,-48,-65,-48,-179V0Z" 
id="f1_6"
transform="scale(0.001,-0.001)" />

<path d="M443,0C443,0,285,0,219,66c0,0,-66,66,-66,224V645H20V836H153v237H419V836H695V645H419V290c0,0,0,-58,24,-79c0,0,23,-20,91,-20H672V0Z" 
id="f1_4"
transform="scale(0.001,-0.001)" />

<path d="M139,0V836H277V706c0,0,47,77,112,113c0,0,66,37,156,37c0,0,91,0,155,-47c0,0,64,-46,94,-134c0,0,52,93,123,137c0,0,72,44,169,44c0,0,130,0,201,-92c0,0,71,-91,71,-260V0H1220V500c0,0,0,120,-42,178c0,0,-43,58,-130,58c0,0,-107,0,-169,-71c0,0,-62,-70,-62,-193V0H680V500c0,0,0,121,-43,179c0,0,-42,57,-131,57c0,0,-105,0,-167,-71c0,0,-62,-71,-62,-193V0Z" 
id="f0_p"
transform="scale(0.001,-0.001)" />

<path d="M128,0V836H395V0Zm0,944v217H395V944Z" 
id="f1_5"
transform="scale(0.001,-0.001)" />

<path d="M445,-20c0,0,-83,0,-171,12C274,-8,185,4,92,30V234c0,0,80,-39,164,-58c0,0,84,-20,170,-20c0,0,79,0,118,22c0,0,40,22,40,64c0,0,0,36,-28,53c0,0,-27,18,-108,27l-47,6c0,0,-179,23,-250,83c0,0,-72,61,-72,184c0,0,0,132,91,196c0,0,91,65,279,65c0,0,74,0,155,-12c0,0,82,-11,177,-34V606c0,0,-86,36,-165,54c0,0,-80,18,-151,18c0,0,-76,0,-113,-19c0,0,-37,-19,-37,-59c0,0,0,-32,28,-49c0,0,28,-17,100,-25l47,-7c0,0,205,-26,276,-86c0,0,71,-59,71,-187c0,0,0,-133,-98,-200c0,0,-99,-66,-294,-66Z" 
id="f1_v"
transform="scale(0.001,-0.001)" />

<path d="M128,0V836H395V698c0,0,52,82,118,120c0,0,67,38,161,38c0,0,13,0,29,-2c0,0,15,-1,45,-4l1,-242c0,0,-35,17,-70,25c0,0,-35,7,-70,7c0,0,-103,0,-158,-66c0,0,-56,-66,-56,-189V0Z" 
id="f1_b"
transform="scale(0.001,-0.001)" />

<path d="M573,172c0,0,86,0,131,63c0,0,45,63,45,182c0,0,0,119,-45,182c0,0,-45,63,-131,63c0,0,-86,0,-132,-63c0,0,-46,-63,-46,-182c0,0,0,-119,46,-182c0,0,46,-63,132,-63ZM672,-20c0,0,-87,0,-155,33c0,0,-67,35,-122,108V0H128V1161H395V713c0,0,55,73,122,108c0,0,68,35,155,35c0,0,154,0,253,-123c0,0,100,-123,100,-316c0,0,0,-193,-100,-316c0,0,-99,-121,-253,-121Z" 
id="f1_q"
transform="scale(0.001,-0.001)" />

<path d="M415,-20c0,0,-144,0,-220,87c0,0,-76,89,-76,259V836H388V752c0,0,0,-67,-1,-170c0,0,0,-103,0,-137c0,0,0,-101,5,-145c0,0,5,-44,18,-65c0,0,16,-26,43,-40c0,0,26,-14,60,-14c0,0,84,0,132,64c0,0,47,64,47,178V836H959V0H692V121C692,121,632,48,564,13c0,0,-67,-33,-149,-33Z" 
id="f1_g"
transform="scale(0.001,-0.001)" />

<path d="M139,0V1161H277V475L686,836H861L418,445L880,0H701L277,408V0Z" 
id="f0_10"
transform="scale(0.001,-0.001)" />

<path d="M551,0V391H162V567H551V958H729V567h390V391H729V0Z" 
id="f1_1a"
transform="scale(0.001,-0.001)" />

<path d="M179,0V190H336V0Zm0,600V790H336V600Z" 
id="f0_12"
transform="scale(0.001,-0.001)" />

<path d="M630,-20c0,0,-253,0,-398,153C232,133,86,288,86,556c0,0,0,269,146,423c0,0,145,155,398,155c0,0,100,0,189,-26c0,0,88,-27,166,-79V869c0,0,-76,71,-163,106c0,0,-86,35,-183,35c0,0,-191,0,-292,-117C347,893,245,777,245,556c0,0,0,-220,102,-337c0,0,101,-116,292,-116c0,0,97,0,183,35c0,0,87,35,163,105V86C985,86,906,32,817,5c0,0,-88,-25,-187,-25Z" 
id="f0_18"
transform="scale(0.001,-0.001)" />

<path d="M649,187c0,0,132,0,205,97c0,0,72,97,72,272c0,0,0,176,-72,273c0,0,-73,97,-205,97c0,0,-131,0,-203,-97c0,0,-72,-97,-72,-273c0,0,0,-175,72,-272c0,0,72,-97,203,-97Zm0,-207c0,0,-268,0,-420,152C229,132,76,286,76,556c0,0,0,271,153,425c0,0,152,153,420,153c0,0,269,0,421,-153c0,0,152,-154,152,-425c0,0,0,-270,-152,-424c0,0,-152,-152,-421,-152Z" 
id="f1_19"
transform="scale(0.001,-0.001)" />

<path d="M545,-20c0,0,-106,0,-212,20C333,0,226,19,119,58V301c0,0,107,-57,207,-85c0,0,99,-29,192,-29c0,0,94,0,144,31c0,0,50,31,50,90c0,0,0,52,-34,80c0,0,-34,29,-136,51L431,464c0,0,-167,35,-244,114c0,0,-77,78,-77,211c0,0,0,166,107,256c0,0,107,89,309,89c0,0,92,0,189,-14c0,0,97,-13,200,-41V843c0,0,-92,41,-179,62c0,0,-87,21,-165,21c0,0,-103,0,-152,-28c0,0,-49,-29,-49,-88c0,0,0,-45,33,-70c0,0,33,-25,121,-43L646,672c0,0,186,-37,264,-113c0,0,79,-76,79,-216c0,0,0,-185,-110,-275c0,0,-109,-88,-334,-88Z" 
id="f1_9"
transform="scale(0.001,-0.001)" />

<path d="M744,410L592,853L439,410ZM8,0L420,1114H763L1175,0H887L816,203H367L297,0Z" 
id="f1_d"
transform="scale(0.001,-0.001)" />

<path d="M680,-20c0,0,-278,0,-441,154C239,134,76,290,76,556c0,0,0,267,163,423c0,0,163,155,441,155c0,0,93,0,179,-21c0,0,86,-21,165,-62V820c0,0,-80,55,-158,81c0,0,-77,25,-163,25c0,0,-154,0,-241,-98c0,0,-88,-99,-88,-272c0,0,0,-172,87,-271c0,0,88,-98,242,-98c0,0,86,0,163,25c0,0,78,26,158,80V61C1024,61,945,20,859,0c0,0,-86,-20,-179,-20Z" 
id="f1_h"
transform="scale(0.001,-0.001)" />


</defs>
</svg>