<?xml version="1.0" encoding="UTF-8" standalone="no"?>
<!DOCTYPE svg PUBLIC "-//W3C//DTD SVG 1.1//EN"
"http://www.w3.org/Graphics/SVG/1.1/DTD/svg11.dtd">
<svg viewBox="0 0 909 1286" version="1.1" xmlns="http://www.w3.org/2000/svg" xmlns:xlink="http://www.w3.org/1999/xlink">
<defs>
<clipPath id="c0_7"><path d="M0,1286.2V.2H909.3v1286Z" /></clipPath>
<style type="text/css"><![CDATA[
.g0_7{
fill: #00FF00;
}
]]></style>
</defs>
<g clip-path="url(#c0_7)">
<g fill="#000000" >
<use xlink:href="#f0_1k" transform="matrix(12,0,0,12,86.8,954.9)" />
<use xlink:href="#f0_6" transform="matrix(12,0,0,12,99,954.9)" />
<use xlink:href="#f0_6" transform="matrix(12,0,0,12,112.1,954.9)" />
<use xlink:href="#f0_7" transform="matrix(12,0,0,12,119.3,954.9)" />
<use xlink:href="#f0_c" transform="matrix(12,0,0,12,130.9,954.9)" />
<use xlink:href="#f0_9" transform="matrix(12,0,0,12,136,954.9)" />
<use xlink:href="#f0_s" transform="matrix(12,0,0,12,151.4,954.9)" />
<use xlink:href="#f0_d" transform="matrix(12,0,0,12,163,954.9)" />
<use xlink:href="#f0_c" transform="matrix(12,0,0,12,174.1,954.9)" />
<use xlink:href="#f0_e" transform="matrix(12,0,0,12,179.2,954.9)" />
<use xlink:href="#f0_6" transform="matrix(12,0,0,12,190.8,954.9)" />
<use xlink:href="#f0_4" transform="matrix(12,0,0,12,198,954.9)" />
<use xlink:href="#f0_p" transform="matrix(12,0,0,12,209.7,954.9)" />
<use xlink:href="#f0_d" transform="matrix(12,0,0,12,220.6,954.9)" />
<use xlink:href="#f0_k" transform="matrix(12,0,0,12,231.7,954.9)" />
<use xlink:href="#f0_g" transform="matrix(12,0,0,12,243.3,954.9)" />
<use xlink:href="#f0_s" transform="matrix(12,0,0,12,256.7,954.9)" />
<use xlink:href="#f0_g" transform="matrix(12,0,0,12,268.4,954.9)" />
<use xlink:href="#f0_d" transform="matrix(12,0,0,12,275.5,954.9)" />
<use xlink:href="#f0_h" transform="matrix(12,0,0,12,286.7,954.9)" />
<use xlink:href="#f0_c" transform="matrix(12,0,0,12,293.1,954.9)" />
<use xlink:href="#f0_o" transform="matrix(12,0,0,12,298.3,954.9)" />
<use xlink:href="#f0_a" transform="matrix(12,0,0,12,303.3,954.9)" />
<use xlink:href="#f0_9" transform="matrix(12,0,0,12,314.6,954.9)" />
<use xlink:href="#f0_b" transform="matrix(12,0,0,12,330,954.9)" />
<use xlink:href="#f0_8" transform="matrix(12,0,0,12,340,954.9)" />
<use xlink:href="#f0_e" transform="matrix(12,0,0,12,351.3,954.9)" />
<use xlink:href="#f0_e" transform="matrix(12,0,0,12,368.8,954.9)" />
<use xlink:href="#f0_d" transform="matrix(12,0,0,12,380.4,954.9)" />
<use xlink:href="#f0_n" transform="matrix(12,0,0,12,391.6,954.9)" />
<use xlink:href="#f0_x" transform="matrix(12,0,0,12,412.3,954.9)" />
<use xlink:href="#f0_a" transform="matrix(12,0,0,12,423.9,954.9)" />
<use xlink:href="#f0_k" transform="matrix(12,0,0,12,441.2,954.9)" />
<use xlink:href="#f0_9" transform="matrix(12,0,0,12,452.6,954.9)" />
<use xlink:href="#f0_a" transform="matrix(12,0,0,12,462.2,954.9)" />
<use xlink:href="#f0_f" transform="matrix(12,0,0,12,473.5,954.9)" />
<use xlink:href="#f0_n" transform="matrix(12,0,0,12,491,954.9)" />
<use xlink:href="#f0_c" transform="matrix(12,0,0,12,505.9,954.9)" />
<use xlink:href="#f0_6" transform="matrix(12,0,0,12,511,954.9)" />
<use xlink:href="#f0_7" transform="matrix(12,0,0,12,518.2,954.9)" />
<use xlink:href="#f0_8" transform="matrix(12,0,0,12,535.7,954.9)" />
<use xlink:href="#f0_e" transform="matrix(12,0,0,12,547,954.9)" />
<use xlink:href="#f0_p" transform="matrix(12,0,0,12,558.6,954.9)" />
<use xlink:href="#f0_8" transform="matrix(12,0,0,12,575.3,954.9)" />
<use xlink:href="#f0_s" transform="matrix(12,0,0,12,586.6,954.9)" />
<use xlink:href="#f0_s" transform="matrix(12,0,0,12,598.2,954.9)" />
<use xlink:href="#f0_6" transform="matrix(12,0,0,12,615.6,954.9)" />
<use xlink:href="#f0_7" transform="matrix(12,0,0,12,622.8,954.9)" />
<use xlink:href="#f0_8" transform="matrix(12,0,0,12,634.4,954.9)" />
<use xlink:href="#f0_6" transform="matrix(12,0,0,12,645.7,954.9)" />
<use xlink:href="#f0_7" transform="matrix(12,0,0,12,658.7,954.9)" />
<use xlink:href="#f0_8" transform="matrix(12,0,0,12,670.1,954.9)" />
<use xlink:href="#f0_9" transform="matrix(12,0,0,12,681.4,954.9)" />
<use xlink:href="#f0_6" transform="matrix(12,0,0,12,696.8,954.9)" />
<use xlink:href="#f0_7" transform="matrix(12,0,0,12,704,954.9)" />
<use xlink:href="#f0_a" transform="matrix(12,0,0,12,715.6,954.9)" />
<use xlink:href="#f0_9" transform="matrix(12,0,0,12,732.7,954.9)" />
<use xlink:href="#f0_8" transform="matrix(12,0,0,12,742.3,954.9)" />
<use xlink:href="#f0_u" transform="matrix(12,0,0,12,753.5,954.9)" />
<use xlink:href="#f0_a" transform="matrix(12,0,0,12,771.3,954.9)" />
<use xlink:href="#f0_m" transform="matrix(12,0,0,12,86.8,983.4)" />
<use xlink:href="#f0_k" transform="matrix(12,0,0,12,99.3,983.4)" />
<use xlink:href="#f0_e" transform="matrix(12,0,0,12,110.9,983.4)" />
<use xlink:href="#f0_f" transform="matrix(12,0,0,12,122.5,983.4)" />
<use xlink:href="#f0_o" transform="matrix(12,0,0,12,134.3,983.4)" />
<use xlink:href="#f0_a" transform="matrix(12,0,0,12,139.3,983.4)" />
<use xlink:href="#f0_19" transform="matrix(12,0,0,12,156.4,983.4)" />
<use xlink:href="#f0_15" transform="matrix(12,0,0,12,161.9,983.4)" />
<use xlink:href="#f0_p" transform="matrix(12,0,0,12,181.8,983.4)" />
<use xlink:href="#f0_d" transform="matrix(12,0,0,12,192.6,983.4)" />
<use xlink:href="#f0_k" transform="matrix(12,0,0,12,203.7,983.4)" />
<use xlink:href="#f0_9" transform="matrix(12,0,0,12,221.3,983.4)" />
<use xlink:href="#f0_s" transform="matrix(12,0,0,12,230.9,983.4)" />
<use xlink:href="#f0_a" transform="matrix(12,0,0,12,242.4,983.4)" />
<use xlink:href="#f0_b" transform="matrix(12,0,0,12,253.7,983.4)" />
<use xlink:href="#f0_c" transform="matrix(12,0,0,12,263.7,983.4)" />
<use xlink:href="#f0_h" transform="matrix(12,0,0,12,268.9,983.4)" />
<use xlink:href="#f0_c" transform="matrix(12,0,0,12,275.3,983.4)" />
<use xlink:href="#f0_a" transform="matrix(12,0,0,12,280.4,983.4)" />
<use xlink:href="#f0_f" transform="matrix(12,0,0,12,291.7,983.4)" />
<use xlink:href="#f0_c" transform="matrix(12,0,0,12,309.2,983.4)" />
<use xlink:href="#f0_e" transform="matrix(12,0,0,12,314.2,983.4)" />
<use xlink:href="#f0_6" transform="matrix(12,0,0,12,331.7,983.4)" />
<use xlink:href="#f0_7" transform="matrix(12,0,0,12,338.8,983.4)" />
<use xlink:href="#f0_a" transform="matrix(12,0,0,12,350.4,983.4)" />
<use xlink:href="#f0_1k" transform="matrix(12,0,0,12,367.6,983.4)" />
<use xlink:href="#f0_s" transform="matrix(12,0,0,12,380.1,983.4)" />
<use xlink:href="#f0_s" transform="matrix(12,0,0,12,391.7,983.4)" />
<use xlink:href="#f0_19" transform="matrix(12,0,0,12,409.2,983.4)" />
<use xlink:href="#f0_15" transform="matrix(12,0,0,12,414.6,983.4)" />
<use xlink:href="#f0_p" transform="matrix(12,0,0,12,434.6,983.4)" />
<use xlink:href="#f0_d" transform="matrix(12,0,0,12,445.4,983.4)" />
<use xlink:href="#f0_k" transform="matrix(12,0,0,12,456.6,983.4)" />
<use xlink:href="#f0_c" transform="matrix(12,0,0,12,474.1,983.4)" />
<use xlink:href="#f0_e" transform="matrix(12,0,0,12,479.2,983.4)" />
<use xlink:href="#f0_b" transform="matrix(12,0,0,12,490.8,983.4)" />
<use xlink:href="#f0_o" transform="matrix(12,0,0,12,500.8,983.4)" />
<use xlink:href="#f0_k" transform="matrix(12,0,0,12,505.9,983.4)" />
<use xlink:href="#f0_f" transform="matrix(12,0,0,12,517.5,983.4)" />
<use xlink:href="#f0_a" transform="matrix(12,0,0,12,529.1,983.4)" />
<use xlink:href="#f0_f" transform="matrix(12,0,0,12,540.4,983.4)" />
<use xlink:href="#f0_c" transform="matrix(12,0,0,12,557.9,983.4)" />
<use xlink:href="#f0_e" transform="matrix(12,0,0,12,563,983.4)" />
<use xlink:href="#f0_6" transform="matrix(12,0,0,12,580.4,983.4)" />
<use xlink:href="#f0_7" transform="matrix(12,0,0,12,587.6,983.4)" />
<use xlink:href="#f0_a" transform="matrix(12,0,0,12,599.2,983.4)" />
<use xlink:href="#f0_s" transform="matrix(12,0,0,12,616.3,983.4)" />
<use xlink:href="#f0_g" transform="matrix(12,0,0,12,628.1,983.4)" />
<use xlink:href="#f0_d" transform="matrix(12,0,0,12,635.1,983.4)" />
<use xlink:href="#f0_h" transform="matrix(12,0,0,12,646.2,983.4)" />
<use xlink:href="#f0_c" transform="matrix(12,0,0,12,652.8,983.4)" />
<use xlink:href="#f0_o" transform="matrix(12,0,0,12,657.8,983.4)" />
<use xlink:href="#f0_a" transform="matrix(12,0,0,12,662.8,983.4)" />
<use xlink:href="#f0_l" transform="matrix(12,0,0,12,674.1,983.4)" />
<use xlink:href="#f0_1f" transform="matrix(12,0,0,12,86.8,1012.2)" />
<use xlink:href="#f0_o" transform="matrix(12,0,0,12,99.6,1012.2)" />
<use xlink:href="#f0_c" transform="matrix(12,0,0,12,104.6,1012.2)" />
<use xlink:href="#f0_b" transform="matrix(12,0,0,12,109.7,1012.2)" />
<use xlink:href="#f0_i" transform="matrix(12,0,0,12,119.7,1012.2)" />
</g>
<g fill="#0000FF" >
<use xlink:href="#f1_t" transform="matrix(12,0,0,12,136.3,1012.2)" />
<use xlink:href="#f1_g" transform="matrix(12,0,0,12,151.5,1012.2)" />
<use xlink:href="#f1_6" transform="matrix(12,0,0,12,164.1,1012.2)" />
<use xlink:href="#f1_3" transform="matrix(12,0,0,12,177.2,1012.2)" />
</g>
<g fill="#000000" >
<use xlink:href="#f0_8" transform="matrix(12,0,0,12,196,1012.2)" />
<use xlink:href="#f0_e" transform="matrix(12,0,0,12,207.3,1012.2)" />
<use xlink:href="#f0_f" transform="matrix(12,0,0,12,218.9,1012.2)" />
<use xlink:href="#f0_b" transform="matrix(12,0,0,12,236.3,1012.2)" />
<use xlink:href="#f0_o" transform="matrix(12,0,0,12,246.4,1012.2)" />
<use xlink:href="#f0_d" transform="matrix(12,0,0,12,251.4,1012.2)" />
<use xlink:href="#f0_9" transform="matrix(12,0,0,12,262.6,1012.2)" />
<use xlink:href="#f0_a" transform="matrix(12,0,0,12,272.2,1012.2)" />
<use xlink:href="#f0_d" transform="matrix(12,0,0,12,289.3,1012.2)" />
<use xlink:href="#f0_k" transform="matrix(12,0,0,12,300.4,1012.2)" />
<use xlink:href="#f0_6" transform="matrix(12,0,0,12,312.2,1012.2)" />
<use xlink:href="#f0_6" transform="matrix(12,0,0,12,325.2,1012.2)" />
<use xlink:href="#f0_7" transform="matrix(12,0,0,12,332.4,1012.2)" />
<use xlink:href="#f0_a" transform="matrix(12,0,0,12,344,1012.2)" />
<use xlink:href="#f0_s" transform="matrix(12,0,0,12,361.1,1012.2)" />
<use xlink:href="#f0_g" transform="matrix(12,0,0,12,372.8,1012.2)" />
<use xlink:href="#f0_a" transform="matrix(12,0,0,12,379.9,1012.2)" />
<use xlink:href="#f0_h" transform="matrix(12,0,0,12,391.2,1012.2)" />
<use xlink:href="#f0_a" transform="matrix(12,0,0,12,397.6,1012.2)" />
<use xlink:href="#f0_g" transform="matrix(12,0,0,12,408.9,1012.2)" />
<use xlink:href="#f0_a" transform="matrix(12,0,0,12,415.9,1012.2)" />
<use xlink:href="#f0_e" transform="matrix(12,0,0,12,427.2,1012.2)" />
<use xlink:href="#f0_b" transform="matrix(12,0,0,12,438.8,1012.2)" />
<use xlink:href="#f0_a" transform="matrix(12,0,0,12,448.8,1012.2)" />
<use xlink:href="#f0_9" transform="matrix(12,0,0,12,460.1,1012.2)" />
<use xlink:href="#f0_s" transform="matrix(12,0,0,12,475.6,1012.2)" />
<use xlink:href="#f0_8" transform="matrix(12,0,0,12,487.2,1012.2)" />
<use xlink:href="#f0_e" transform="matrix(12,0,0,12,498.5,1012.2)" />
<use xlink:href="#f0_a" transform="matrix(12,0,0,12,510.1,1012.2)" />
<use xlink:href="#f0_l" transform="matrix(12,0,0,12,521.4,1012.2)" />
</g>
</g>
<path fill-rule="evenodd" d="M86.6,1161.4H403v-34.7H86.6v34.7Z" class="g0_7" />
<g clip-path="url(#c0_7)">
<g fill="#006837" >
<use xlink:href="#f1_w" transform="matrix(19.5,0,0,19.5,86.8,1154.4)" />
<use xlink:href="#f1_o" transform="matrix(19.5,0,0,19.5,109.7,1154.4)" />
<use xlink:href="#f1_6" transform="matrix(19.5,0,0,19.5,130.9,1154.4)" />
<use xlink:href="#f1_n" transform="matrix(19.5,0,0,19.5,162.5,1154.4)" />
<use xlink:href="#f1_q" transform="matrix(19.5,0,0,19.5,185.5,1154.4)" />
<use xlink:href="#f1_q" transform="matrix(19.5,0,0,19.5,206.7,1154.4)" />
<use xlink:href="#f1_g" transform="matrix(19.5,0,0,19.5,238.5,1154.4)" />
<use xlink:href="#f1_6" transform="matrix(19.5,0,0,19.5,258.9,1154.4)" />
<use xlink:href="#f1_t" transform="matrix(19.5,0,0,19.5,290.5,1154.4)" />
<use xlink:href="#f1_3" transform="matrix(19.5,0,0,19.5,315.3,1154.4)" />
<use xlink:href="#f1_x" transform="matrix(19.5,0,0,19.5,335.4,1154.4)" />
<use xlink:href="#f1_5" transform="matrix(19.5,0,0,19.5,354.8,1154.4)" />
<use xlink:href="#f1_f" transform="matrix(19.5,0,0,19.5,364.9,1154.4)" />
<use xlink:href="#f1_3" transform="matrix(19.5,0,0,19.5,382.6,1154.4)" />
</g>
<g fill="#000000" >
<use xlink:href="#f0_19" transform="matrix(12,0,0,12,86.8,1194.9)" />
<use xlink:href="#f0_h" transform="matrix(12,0,0,12,92.1,1194.9)" />
<use xlink:href="#f0_p" transform="matrix(12,0,0,12,104.5,1194.9)" />
<use xlink:href="#f0_d" transform="matrix(12,0,0,12,115.3,1194.9)" />
<use xlink:href="#f0_k" transform="matrix(12,0,0,12,126.5,1194.9)" />
<use xlink:href="#f0_8" transform="matrix(12,0,0,12,144,1194.9)" />
<use xlink:href="#f0_o" transform="matrix(12,0,0,12,155.3,1194.9)" />
<use xlink:href="#f0_g" transform="matrix(12,0,0,12,160.4,1194.9)" />
<use xlink:href="#f0_a" transform="matrix(12,0,0,12,167.4,1194.9)" />
<use xlink:href="#f0_8" transform="matrix(12,0,0,12,178.7,1194.9)" />
<use xlink:href="#f0_f" transform="matrix(12,0,0,12,190,1194.9)" />
<use xlink:href="#f0_p" transform="matrix(12,0,0,12,201.6,1194.9)" />
<use xlink:href="#f0_7" transform="matrix(12,0,0,12,218.2,1194.9)" />
<use xlink:href="#f0_8" transform="matrix(12,0,0,12,229.8,1194.9)" />
<use xlink:href="#f0_t" transform="matrix(12,0,0,12,241.1,1194.9)" />
<use xlink:href="#f0_a" transform="matrix(12,0,0,12,251.8,1194.9)" />
<use xlink:href="#f0_8" transform="matrix(12,0,0,12,269,1194.9)" />
<use xlink:href="#f0_e" transform="matrix(12,0,0,12,280.2,1194.9)" />
<use xlink:href="#f0_8" transform="matrix(12,0,0,12,297.6,1194.9)" />
<use xlink:href="#f0_s" transform="matrix(12,0,0,12,308.9,1194.9)" />
<use xlink:href="#f0_s" transform="matrix(12,0,0,12,320.5,1194.9)" />
<use xlink:href="#f0_d" transform="matrix(12,0,0,12,337.9,1194.9)" />
<use xlink:href="#f0_h" transform="matrix(12,0,0,12,349.1,1194.9)" />
<use xlink:href="#f0_p" transform="matrix(12,0,0,12,361.4,1194.9)" />
<use xlink:href="#f0_d" transform="matrix(12,0,0,12,372.3,1194.9)" />
<use xlink:href="#f0_k" transform="matrix(12,0,0,12,383.4,1194.9)" />
<use xlink:href="#f0_g" transform="matrix(12,0,0,12,395,1194.9)" />
<use xlink:href="#f0_d" transform="matrix(12,0,0,12,408.5,1194.9)" />
<use xlink:href="#f0_n" transform="matrix(12,0,0,12,419.6,1194.9)" />
<use xlink:href="#f0_e" transform="matrix(12,0,0,12,434.6,1194.9)" />
<use xlink:href="#f0_6" transform="matrix(12,0,0,12,452.1,1194.9)" />
<use xlink:href="#f0_7" transform="matrix(12,0,0,12,459.3,1194.9)" />
<use xlink:href="#f0_8" transform="matrix(12,0,0,12,470.9,1194.9)" />
<use xlink:href="#f0_6" transform="matrix(12,0,0,12,482.2,1194.9)" />
<use xlink:href="#f0_r" transform="matrix(12,0,0,12,489.4,1194.9)" />
<use xlink:href="#f0_9" transform="matrix(12,0,0,12,495.1,1194.9)" />
<use xlink:href="#f0_g" transform="matrix(12,0,0,12,510.6,1194.9)" />
<use xlink:href="#f0_a" transform="matrix(12,0,0,12,517.6,1194.9)" />
<use xlink:href="#f0_8" transform="matrix(12,0,0,12,528.9,1194.9)" />
<use xlink:href="#f0_f" transform="matrix(12,0,0,12,540.2,1194.9)" />
<use xlink:href="#f0_p" transform="matrix(12,0,0,12,551.8,1194.9)" />
<use xlink:href="#f0_6" transform="matrix(12,0,0,12,568.5,1194.9)" />
<use xlink:href="#f0_d" transform="matrix(12,0,0,12,575.7,1194.9)" />
<use xlink:href="#f0_6" transform="matrix(12,0,0,12,592.7,1194.9)" />
<use xlink:href="#f0_a" transform="matrix(12,0,0,12,599.8,1194.9)" />
<use xlink:href="#f0_9" transform="matrix(12,0,0,12,611.1,1194.9)" />
<use xlink:href="#f0_6" transform="matrix(12,0,0,12,620.7,1194.9)" />
<use xlink:href="#f0_4" transform="matrix(12,0,0,12,627.8,1194.9)" />
</g>
</g>
<image preserveAspectRatio="none" x="87" y="87" width="736" height="793" xlink:href="img/1.png" />
<defs>
<path d="M727,411L522,965L318,411ZM12,0L437,1114H608L1033,0H876L774,286H272L171,0Z" 
id="f0_1k"
transform="scale(0.001,-0.001)" />

<path d="M421,0C421,0,263,0,202,59c0,0,-60,60,-60,217V729H41V836H142v238H280V836H562V729H280V276c0,0,0,-102,28,-132c0,0,28,-29,113,-29H562V0Z" 
id="f0_6"
transform="scale(0.001,-0.001)" />

<path d="M139,0V1161H277V706c0,0,49,75,116,112c0,0,67,38,154,38c0,0,144,0,218,-90c0,0,74,-89,74,-262V0H702V500c0,0,0,119,-46,177c0,0,-47,59,-139,59c0,0,-112,0,-176,-71c0,0,-64,-70,-64,-193V0Z" 
id="f0_7"
transform="scale(0.001,-0.001)" />

<path d="M144,0V836H281V0Zm0,987v174H281V987Z" 
id="f0_c"
transform="scale(0.001,-0.001)" />

<path d="M376,-20c0,0,-67,0,-140,12C236,-8,164,4,83,30V172c0,0,76,-40,150,-59c0,0,74,-20,146,-20c0,0,97,0,150,33c0,0,52,33,52,94c0,0,0,56,-38,85c0,0,-38,30,-165,58l-48,11c0,0,-128,27,-184,83c0,0,-57,55,-57,152c0,0,0,118,83,182c0,0,84,65,238,65c0,0,76,0,143,-12c0,0,67,-11,124,-33V681c0,0,-58,29,-121,44c0,0,-63,15,-130,15c0,0,-102,0,-153,-31c0,0,-51,-31,-51,-94c0,0,0,-48,37,-75c0,0,36,-27,147,-52l46,-10c0,0,147,-32,208,-89c0,0,62,-57,62,-159c0,0,0,-116,-93,-184c0,0,-92,-66,-253,-66Z" 
id="f0_9"
transform="scale(0.001,-0.001)" />

<path d="M510,93c0,0,109,0,171,86c0,0,62,86,62,238c0,0,0,151,-62,237c0,0,-62,86,-171,86c0,0,-109,0,-171,-86c0,0,-62,-86,-62,-237c0,0,0,-152,62,-238c0,0,62,-86,171,-86ZM139,-317V836H277V709c0,0,43,74,109,110c0,0,66,37,158,37c0,0,152,0,247,-121c0,0,95,-121,95,-318c0,0,0,-197,-95,-318C791,99,696,-20,544,-20c0,0,-92,0,-158,35c0,0,-66,36,-109,110V-317Z" 
id="f0_s"
transform="scale(0.001,-0.001)" />

<path d="M467,95c0,0,110,0,174,86c0,0,64,87,64,236c0,0,0,148,-64,235c0,0,-64,87,-174,87c0,0,-110,0,-174,-86c0,0,-64,-86,-64,-236c0,0,0,-150,64,-236c0,0,63,-86,174,-86Zm0,-115c0,0,-179,0,-281,115C186,95,84,212,84,417c0,0,0,206,102,322c0,0,102,117,281,117c0,0,179,0,282,-117c0,0,102,-116,102,-322c0,0,0,-205,-102,-322C749,95,646,-20,467,-20Z" 
id="f0_d"
transform="scale(0.001,-0.001)" />

<path d="M139,0V836H277V706c0,0,49,75,116,112c0,0,67,38,154,38c0,0,144,0,218,-90c0,0,74,-89,74,-262V0H702V500c0,0,0,119,-46,177c0,0,-47,59,-139,59c0,0,-112,0,-176,-71c0,0,-64,-70,-64,-193V0Z" 
id="f0_e"
transform="scale(0.001,-0.001)" />

<path d="M117,-176L179,62V190H336V62L213,-176Z" 
id="f0_4"
transform="scale(0.001,-0.001)" />

<path d="M121,-317v116h81c0,0,57,0,88,26c0,0,31,27,69,127l25,62L46,836H191L453,182L714,836H859L492,-76c0,0,-58,-150,-113,-195c0,0,-55,-46,-148,-46Z" 
id="f0_p"
transform="scale(0.001,-0.001)" />

<path d="M424,-20c0,0,-145,0,-219,88c0,0,-75,89,-75,262V836H267V335c0,0,0,-119,46,-178c0,0,47,-59,139,-59c0,0,112,0,177,71c0,0,64,71,64,193V836H830V0H693V128C693,128,643,52,577,15c0,0,-66,-35,-153,-35Z" 
id="f0_k"
transform="scale(0.001,-0.001)" />

<path d="M139,0V836H277V706c0,0,43,76,112,113c0,0,70,37,169,37c0,0,14,0,31,-2c0,0,17,-2,38,-6l1,-141c0,0,-23,14,-51,20c0,0,-27,6,-60,6c0,0,-116,0,-178,-75c0,0,-62,-76,-62,-218V0Z" 
id="f0_g"
transform="scale(0.001,-0.001)" />

<path d="M166,0V729H35V836H166v58c0,0,0,139,65,203c0,0,65,64,206,64H567V1046H435c0,0,-74,0,-102,-29c0,0,-29,-30,-29,-107V836H530V729H304V0Z" 
id="f0_h"
transform="scale(0.001,-0.001)" />

<path d="M144,0V1161H281V0Z" 
id="f0_o"
transform="scale(0.001,-0.001)" />

<path d="M231,492l491,1c0,0,-2,112,-64,179c0,0,-61,67,-163,67c0,0,-115,0,-184,-65c0,0,-69,-64,-80,-182ZM517,-20c0,0,-199,0,-316,115C201,95,84,211,84,410c0,0,0,205,111,325c0,0,111,121,299,121c0,0,168,0,266,-109c0,0,98,-108,98,-295V385H227c0,0,9,-142,85,-216c0,0,77,-74,213,-74c0,0,80,0,154,19c0,0,74,19,147,58V42C826,42,752,11,675,-4c0,0,-78,-16,-158,-16Z" 
id="f0_a"
transform="scale(0.001,-0.001)" />

<path d="M495,-20c0,0,-189,0,-300,117C195,97,84,216,84,417c0,0,0,204,112,321c0,0,113,118,308,118c0,0,64,0,124,-14c0,0,60,-13,117,-39V675c0,0,-58,32,-117,48c0,0,-58,16,-118,16c0,0,-133,0,-207,-84c0,0,-74,-85,-74,-238c0,0,0,-153,74,-238c0,0,74,-84,207,-84c0,0,60,0,118,16c0,0,59,16,117,48V32C745,32,688,5,626,-7c0,0,-61,-13,-131,-13Z" 
id="f0_b"
transform="scale(0.001,-0.001)" />

<path d="M408,93c0,0,115,0,184,81c0,0,69,81,69,215v30H524c0,0,-167,0,-231,-38c0,0,-64,-38,-64,-129c0,0,0,-73,48,-116c0,0,48,-43,131,-43ZM372,-20c0,0,-128,0,-204,70c0,0,-76,72,-76,193c0,0,0,141,94,212c0,0,95,72,282,72H661v13c0,0,0,95,-62,147c0,0,-63,52,-175,52c0,0,-72,0,-140,-17c0,0,-68,-17,-130,-51V798c0,0,75,29,146,43c0,0,71,15,138,15c0,0,181,0,270,-95c0,0,90,-94,90,-285V0H661V127C661,127,614,51,544,15c0,0,-70,-35,-172,-35Z" 
id="f0_8"
transform="scale(0.001,-0.001)" />

<path d="M283,0L65,836H202L373,184L544,836H706L878,184l171,652h137L967,0H806L626,685L445,0Z" 
id="f0_n"
transform="scale(0.001,-0.001)" />

<path d="M510,93c0,0,109,0,171,86c0,0,62,86,62,238c0,0,0,151,-62,237c0,0,-62,86,-171,86c0,0,-109,0,-171,-86c0,0,-62,-86,-62,-237c0,0,0,-152,62,-238c0,0,62,-86,171,-86ZM544,-20c0,0,-92,0,-158,35c0,0,-66,36,-109,110V0H139V1161H277V709c0,0,43,74,109,110c0,0,66,37,158,37c0,0,152,0,247,-121c0,0,95,-121,95,-318c0,0,0,-197,-95,-318C791,99,696,-20,544,-20Z" 
id="f0_x"
transform="scale(0.001,-0.001)" />

<path d="M460,93c0,0,109,0,171,86c0,0,63,86,63,238c0,0,0,151,-63,237c0,0,-62,86,-171,86c0,0,-109,0,-172,-86c0,0,-62,-86,-62,-237c0,0,0,-152,62,-238c0,0,63,-86,172,-86ZM426,-20c0,0,-151,0,-247,119c0,0,-95,121,-95,318c0,0,0,197,95,318c0,0,96,121,247,121c0,0,93,0,159,-37c0,0,66,-36,109,-110v452H831V0H694V125C694,125,651,51,585,15c0,0,-66,-35,-159,-35Z" 
id="f0_f"
transform="scale(0.001,-0.001)" />

<path d="M139,0V836H277V706c0,0,47,77,112,113c0,0,66,37,156,37c0,0,91,0,155,-47c0,0,64,-46,94,-134c0,0,52,93,123,137c0,0,72,44,169,44c0,0,130,0,201,-92c0,0,71,-91,71,-260V0H1220V500c0,0,0,120,-42,178c0,0,-43,58,-130,58c0,0,-107,0,-169,-71c0,0,-62,-70,-62,-193V0H680V500c0,0,0,121,-43,179c0,0,-42,57,-131,57c0,0,-105,0,-167,-71c0,0,-62,-71,-62,-193V0Z" 
id="f0_u"
transform="scale(0.001,-0.001)" />

<path d="M542,124c0,0,121,0,180,50c0,0,58,51,58,154c0,0,0,105,-58,154c0,0,-59,50,-180,50H300V124ZM523,654c0,0,111,0,165,41c0,0,54,42,54,127c0,0,0,84,-54,126c0,0,-54,42,-165,42H300V654ZM150,0V1114H535c0,0,172,0,265,-72c0,0,94,-72,94,-204c0,0,0,-102,-48,-162c0,0,-48,-61,-140,-76c0,0,111,-23,172,-99c0,0,62,-76,62,-189c0,0,0,-149,-102,-231C838,81,737,0,550,0Z" 
id="f0_m"
transform="scale(0.001,-0.001)" />

<path d="M150,0V1114H300V0Z" 
id="f0_19"
transform="scale(0.001,-0.001)" />

<path d="M482,124c0,0,231,0,338,105c0,0,107,104,107,329c0,0,0,224,-107,328c0,0,-107,104,-338,104H300V124ZM150,0V1114H459c0,0,324,0,476,-135c0,0,151,-135,151,-421c0,0,0,-288,-152,-423C934,135,782,0,459,0Z" 
id="f0_15"
transform="scale(0.001,-0.001)" />

<path d="M163,0V190H321V0Z" 
id="f0_l"
transform="scale(0.001,-0.001)" />

<path d="M630,-20c0,0,-253,0,-398,153C232,133,86,288,86,556c0,0,0,269,146,423c0,0,145,155,398,155c0,0,100,0,189,-26c0,0,88,-27,166,-79V869c0,0,-76,71,-163,106c0,0,-86,35,-183,35c0,0,-191,0,-292,-117C347,893,245,777,245,556c0,0,0,-220,102,-337c0,0,101,-116,292,-116c0,0,97,0,183,35c0,0,87,35,163,105V86C985,86,906,32,817,5c0,0,-88,-25,-187,-25Z" 
id="f0_1f"
transform="scale(0.001,-0.001)" />

<path d="M139,0V1161H277V475L686,836H861L418,445L880,0H701L277,408V0Z" 
id="f0_i"
transform="scale(0.001,-0.001)" />

<path d="M530,217c0,0,176,0,269,87c0,0,93,88,93,254c0,0,0,166,-93,252c0,0,-92,87,-269,87H427V217ZM140,0V1114H443c0,0,253,0,378,-36c0,0,124,-37,213,-123c0,0,78,-76,116,-174c0,0,38,-98,38,-223c0,0,0,-126,-38,-225c0,0,-38,-99,-116,-174c0,0,-90,-87,-215,-123C819,36,694,0,443,0Z" 
id="f1_t"
transform="scale(0.001,-0.001)" />

<path d="M526,169c0,0,87,0,133,64c0,0,46,64,46,184c0,0,0,120,-46,184c0,0,-46,64,-133,64c0,0,-89,0,-135,-64c0,0,-47,-64,-47,-184c0,0,0,-120,47,-184c0,0,46,-64,135,-64Zm0,-189c0,0,-217,0,-339,115C187,95,66,211,66,417c0,0,0,206,121,322c0,0,122,117,339,117c0,0,215,0,336,-117c0,0,122,-116,122,-322c0,0,0,-206,-122,-322C862,95,741,-20,526,-20Z" 
id="f1_g"
transform="scale(0.001,-0.001)" />

<path d="M128,0V836H395V713c0,0,60,73,128,108c0,0,68,35,150,35c0,0,145,0,220,-89c0,0,75,-89,75,-258V0H699V389c0,0,0,109,-5,150c0,0,-5,41,-16,60c0,0,-16,26,-43,41c0,0,-27,14,-61,14c0,0,-84,0,-131,-64c0,0,-48,-65,-48,-179V0Z" 
id="f1_6"
transform="scale(0.001,-0.001)" />

<path d="M687,509c0,0,0,76,-44,122c0,0,-44,47,-116,47c0,0,-78,0,-126,-44c0,0,-49,-43,-61,-125ZM544,-20c0,0,-227,0,-353,114C191,94,66,209,66,417c0,0,0,204,123,321c0,0,123,118,340,118c0,0,197,0,315,-119c0,0,118,-118,118,-317V344H337c0,0,10,-94,68,-141c0,0,59,-47,163,-47c0,0,85,0,173,25c0,0,89,25,182,76V51C923,51,828,15,733,-2c0,0,-94,-18,-189,-18Z" 
id="f1_3"
transform="scale(0.001,-0.001)" />

<path d="M548,620c0,0,90,0,129,33c0,0,39,34,39,111c0,0,0,76,-39,109c0,0,-39,32,-129,32H427V620ZM140,0V1114H578c0,0,220,0,323,-74c0,0,102,-74,102,-234c0,0,0,-110,-53,-181c0,0,-54,-71,-161,-104c0,0,59,-14,106,-61c0,0,46,-47,94,-144L1145,0H839L703,277c0,0,-41,83,-83,114c0,0,-42,30,-112,30H427V0Z" 
id="f1_w"
transform="scale(0.001,-0.001)" />

<path d="M415,-20c0,0,-144,0,-220,87c0,0,-76,89,-76,259V836H388V752c0,0,0,-67,-1,-170c0,0,0,-103,0,-137c0,0,0,-101,5,-145c0,0,5,-44,18,-65c0,0,16,-26,43,-40c0,0,26,-14,60,-14c0,0,84,0,132,64c0,0,47,64,47,178V836H959V0H692V121C692,121,632,48,564,13c0,0,-67,-33,-149,-33Z" 
id="f1_o"
transform="scale(0.001,-0.001)" />

<path d="M744,410L592,853L439,410ZM8,0L420,1114H763L1175,0H887L816,203H367L297,0Z" 
id="f1_n"
transform="scale(0.001,-0.001)" />

<path d="M573,172c0,0,86,0,131,63c0,0,45,63,45,182c0,0,0,119,-45,182c0,0,-45,63,-131,63c0,0,-86,0,-132,-63c0,0,-46,-63,-46,-182c0,0,0,-119,46,-182c0,0,46,-63,132,-63ZM128,-317V836H395V713c0,0,55,73,122,108c0,0,68,35,155,35c0,0,154,0,253,-123c0,0,100,-123,100,-316c0,0,0,-193,-100,-316c0,0,-99,-121,-253,-121c0,0,-87,0,-155,33c0,0,-67,35,-122,108V-317Z" 
id="f1_q"
transform="scale(0.001,-0.001)" />

<path d="M352,0L23,836H291L499,258L706,836H974L645,0Z" 
id="f1_x"
transform="scale(0.001,-0.001)" />

<path d="M128,0V836H395V0Zm0,944v217H395V944Z" 
id="f1_5"
transform="scale(0.001,-0.001)" />

<path d="M547,-20c0,0,-226,0,-354,114C193,94,66,210,66,417c0,0,0,207,127,323c0,0,128,116,354,116c0,0,66,0,129,-12c0,0,64,-11,128,-34V592c0,0,-55,37,-110,55c0,0,-54,18,-113,18c0,0,-112,0,-175,-65c0,0,-62,-66,-62,-183c0,0,0,-117,62,-183c0,0,63,-65,175,-65c0,0,62,0,119,19c0,0,56,19,104,55V24C804,24,741,1,676,-9c0,0,-64,-11,-129,-11Z" 
id="f1_f"
transform="scale(0.001,-0.001)" />

<path d="M359,0L46,836H191L453,134L714,836H859L546,0Z" 
id="f0_t"
transform="scale(0.001,-0.001)" />

<path d="M132,763l62,237v114H351V1000L228,763Z" 
id="f0_r"
transform="scale(0.001,-0.001)" />


</defs>
</svg>