<?xml version="1.0" encoding="UTF-8" standalone="no"?>
<!DOCTYPE svg PUBLIC "-//W3C//DTD SVG 1.1//EN"
"http://www.w3.org/Graphics/SVG/1.1/DTD/svg11.dtd">
<svg viewBox="0 0 909 1286" version="1.1" xmlns="http://www.w3.org/2000/svg" xmlns:xlink="http://www.w3.org/1999/xlink">
<defs>
<clipPath id="c0_22"><path d="M0,1286.2V.2H909.3v1286Z" /></clipPath>
</defs>
<g clip-path="url(#c0_22)">
<g fill="#000000" >
<use xlink:href="#f0_1u" transform="matrix(12,0,0,12,86.8,579)" />
<use xlink:href="#f0_c" transform="matrix(12,0,0,12,95.9,579)" />
<use xlink:href="#f0_o" transform="matrix(12,0,0,12,101.1,579)" />
<use xlink:href="#f0_o" transform="matrix(12,0,0,12,106.2,579)" />
<use xlink:href="#f0_d" transform="matrix(12,0,0,12,117.1,579)" />
<use xlink:href="#f0_k" transform="matrix(12,0,0,12,128.3,579)" />
<use xlink:href="#f0_6" transform="matrix(12,0,0,12,139.9,579)" />
<use xlink:href="#f0_8" transform="matrix(12,0,0,12,152.9,579)" />
<use xlink:href="#f0_o" transform="matrix(12,0,0,12,164.2,579)" />
<use xlink:href="#f0_o" transform="matrix(12,0,0,12,169.2,579)" />
<use xlink:href="#f0_6" transform="matrix(12,0,0,12,180.2,579)" />
<use xlink:href="#f0_7" transform="matrix(12,0,0,12,187.4,579)" />
<use xlink:href="#f0_a" transform="matrix(12,0,0,12,199,579)" />
<use xlink:href="#f0_g" transform="matrix(12,0,0,12,216.1,579)" />
<use xlink:href="#f0_a" transform="matrix(12,0,0,12,223.1,579)" />
<use xlink:href="#f0_21" transform="matrix(12,0,0,12,234.4,579)" />
<use xlink:href="#f0_k" transform="matrix(12,0,0,12,246,579)" />
<use xlink:href="#f0_c" transform="matrix(12,0,0,12,257.8,579)" />
<use xlink:href="#f0_g" transform="matrix(12,0,0,12,262.8,579)" />
<use xlink:href="#f0_a" transform="matrix(12,0,0,12,269.8,579)" />
<use xlink:href="#f0_f" transform="matrix(12,0,0,12,281.1,579)" />
<use xlink:href="#f0_c" transform="matrix(12,0,0,12,298.7,579)" />
<use xlink:href="#f0_e" transform="matrix(12,0,0,12,303.7,579)" />
<use xlink:href="#f0_h" transform="matrix(12,0,0,12,315.3,579)" />
<use xlink:href="#f0_d" transform="matrix(12,0,0,12,321.8,579)" />
<use xlink:href="#f0_g" transform="matrix(12,0,0,12,333,579)" />
<use xlink:href="#f0_u" transform="matrix(12,0,0,12,340.2,579)" />
<use xlink:href="#f0_8" transform="matrix(12,0,0,12,358.1,579)" />
<use xlink:href="#f0_6" transform="matrix(12,0,0,12,369.4,579)" />
<use xlink:href="#f0_c" transform="matrix(12,0,0,12,376.6,579)" />
<use xlink:href="#f0_d" transform="matrix(12,0,0,12,381.6,579)" />
<use xlink:href="#f0_e" transform="matrix(12,0,0,12,392.8,579)" />
<use xlink:href="#f0_l" transform="matrix(12,0,0,12,404.4,579)" />
<use xlink:href="#f0_w" transform="matrix(12,0,0,12,416.1,579)" />
<use xlink:href="#f0_7" transform="matrix(12,0,0,12,427.3,579)" />
<use xlink:href="#f0_d" transform="matrix(12,0,0,12,438.9,579)" />
<use xlink:href="#f0_k" transform="matrix(12,0,0,12,450,579)" />
<use xlink:href="#f0_q" transform="matrix(12,0,0,12,461.6,579)" />
<use xlink:href="#f0_7" transform="matrix(12,0,0,12,473.4,579)" />
<use xlink:href="#f0_6" transform="matrix(12,0,0,12,490.8,579)" />
<use xlink:href="#f0_7" transform="matrix(12,0,0,12,498,579)" />
<use xlink:href="#f0_a" transform="matrix(12,0,0,12,509.6,579)" />
<use xlink:href="#f0_s" transform="matrix(12,0,0,12,526.7,579)" />
<use xlink:href="#f0_g" transform="matrix(12,0,0,12,538.4,579)" />
<use xlink:href="#f0_d" transform="matrix(12,0,0,12,545.5,579)" />
<use xlink:href="#f0_b" transform="matrix(12,0,0,12,556.6,579)" />
<use xlink:href="#f0_a" transform="matrix(12,0,0,12,566.7,579)" />
<use xlink:href="#f0_9" transform="matrix(12,0,0,12,578,579)" />
<use xlink:href="#f0_9" transform="matrix(12,0,0,12,587.4,579)" />
<use xlink:href="#f0_9" transform="matrix(12,0,0,12,603,579)" />
<use xlink:href="#f0_7" transform="matrix(12,0,0,12,612.5,579)" />
<use xlink:href="#f0_d" transform="matrix(12,0,0,12,624.1,579)" />
<use xlink:href="#f0_k" transform="matrix(12,0,0,12,635.2,579)" />
<use xlink:href="#f0_o" transform="matrix(12,0,0,12,647,579)" />
<use xlink:href="#f0_f" transform="matrix(12,0,0,12,652,579)" />
<use xlink:href="#f0_x" transform="matrix(12,0,0,12,669.4,579)" />
<use xlink:href="#f0_a" transform="matrix(12,0,0,12,681,579)" />
<use xlink:href="#f0_9" transform="matrix(12,0,0,12,86.8,607.6)" />
<use xlink:href="#f0_6" transform="matrix(12,0,0,12,96.4,607.6)" />
<use xlink:href="#f0_g" transform="matrix(12,0,0,12,103.6,607.6)" />
<use xlink:href="#f0_8" transform="matrix(12,0,0,12,111.1,607.6)" />
<use xlink:href="#f0_c" transform="matrix(12,0,0,12,122.3,607.6)" />
<use xlink:href="#f0_q" transform="matrix(12,0,0,12,127.4,607.6)" />
<use xlink:href="#f0_7" transform="matrix(12,0,0,12,139,607.6)" />
<use xlink:href="#f0_6" transform="matrix(12,0,0,12,150.6,607.6)" />
<use xlink:href="#f0_h" transform="matrix(12,0,0,12,157.8,607.6)" />
<use xlink:href="#f0_d" transform="matrix(12,0,0,12,164.3,607.6)" />
<use xlink:href="#f0_g" transform="matrix(12,0,0,12,175.5,607.6)" />
<use xlink:href="#f0_n" transform="matrix(12,0,0,12,183,607.6)" />
<use xlink:href="#f0_8" transform="matrix(12,0,0,12,197.9,607.6)" />
<use xlink:href="#f0_g" transform="matrix(12,0,0,12,209.2,607.6)" />
<use xlink:href="#f0_f" transform="matrix(12,0,0,12,216.4,607.6)" />
<use xlink:href="#f0_h" transform="matrix(12,0,0,12,234,607.6)" />
<use xlink:href="#f0_d" transform="matrix(12,0,0,12,240.4,607.6)" />
<use xlink:href="#f0_g" transform="matrix(12,0,0,12,251.5,607.6)" />
<use xlink:href="#f0_1y" transform="matrix(12,0,0,12,265,607.6)" />
<use xlink:href="#f0_18" transform="matrix(12,0,0,12,278.4,607.6)" />
<use xlink:href="#f0_b" transform="matrix(12,0,0,12,295.8,607.6)" />
<use xlink:href="#f0_c" transform="matrix(12,0,0,12,305.9,607.6)" />
<use xlink:href="#f0_6" transform="matrix(12,0,0,12,310.9,607.6)" />
<use xlink:href="#f0_c" transform="matrix(12,0,0,12,318.1,607.6)" />
<use xlink:href="#f0_22" transform="matrix(12,0,0,12,323.1,607.6)" />
<use xlink:href="#f0_a" transform="matrix(12,0,0,12,332.7,607.6)" />
<use xlink:href="#f0_e" transform="matrix(12,0,0,12,344,607.6)" />
<use xlink:href="#f0_9" transform="matrix(12,0,0,12,355.6,607.6)" />
<use xlink:href="#f0_4" transform="matrix(12,0,0,12,365.2,607.6)" />
<use xlink:href="#f0_p" transform="matrix(12,0,0,12,376.9,607.6)" />
<use xlink:href="#f0_d" transform="matrix(12,0,0,12,387.7,607.6)" />
<use xlink:href="#f0_k" transform="matrix(12,0,0,12,398.8,607.6)" />
<use xlink:href="#f0_u" transform="matrix(12,0,0,12,416.4,607.6)" />
<use xlink:href="#f0_8" transform="matrix(12,0,0,12,434.3,607.6)" />
<use xlink:href="#f0_p" transform="matrix(12,0,0,12,445.6,607.6)" />
<use xlink:href="#f0_7" transform="matrix(12,0,0,12,462.2,607.6)" />
<use xlink:href="#f0_8" transform="matrix(12,0,0,12,473.7,607.6)" />
<use xlink:href="#f0_t" transform="matrix(12,0,0,12,485,607.6)" />
<use xlink:href="#f0_a" transform="matrix(12,0,0,12,495.8,607.6)" />
<use xlink:href="#f0_21" transform="matrix(12,0,0,12,512.9,607.6)" />
<use xlink:href="#f0_k" transform="matrix(12,0,0,12,524.5,607.6)" />
<use xlink:href="#f0_a" transform="matrix(12,0,0,12,536.1,607.6)" />
<use xlink:href="#f0_9" transform="matrix(12,0,0,12,547.4,607.6)" />
<use xlink:href="#f0_6" transform="matrix(12,0,0,12,557,607.6)" />
<use xlink:href="#f0_c" transform="matrix(12,0,0,12,564.2,607.6)" />
<use xlink:href="#f0_d" transform="matrix(12,0,0,12,569.2,607.6)" />
<use xlink:href="#f0_e" transform="matrix(12,0,0,12,580.4,607.6)" />
<use xlink:href="#f0_9" transform="matrix(12,0,0,12,592,607.6)" />
<use xlink:href="#f0_l" transform="matrix(12,0,0,12,601.6,607.6)" />
<use xlink:href="#f0_m" transform="matrix(12,0,0,12,613.3,607.6)" />
<use xlink:href="#f0_a" transform="matrix(12,0,0,12,625.9,607.6)" />
<use xlink:href="#f0_h" transform="matrix(12,0,0,12,637.2,607.6)" />
<use xlink:href="#f0_d" transform="matrix(12,0,0,12,643.6,607.6)" />
<use xlink:href="#f0_g" transform="matrix(12,0,0,12,654.7,607.6)" />
<use xlink:href="#f0_a" transform="matrix(12,0,0,12,661.7,607.6)" />
<use xlink:href="#f0_b" transform="matrix(12,0,0,12,679,607.6)" />
<use xlink:href="#f0_d" transform="matrix(12,0,0,12,689.1,607.6)" />
<use xlink:href="#f0_k" transform="matrix(12,0,0,12,700.2,607.6)" />
<use xlink:href="#f0_q" transform="matrix(12,0,0,12,711.8,607.6)" />
<use xlink:href="#f0_7" transform="matrix(12,0,0,12,723.4,607.6)" />
<use xlink:href="#f0_c" transform="matrix(12,0,0,12,735.2,607.6)" />
<use xlink:href="#f0_e" transform="matrix(12,0,0,12,740.2,607.6)" />
<use xlink:href="#f0_q" transform="matrix(12,0,0,12,751.8,607.6)" />
<use xlink:href="#f0_k" transform="matrix(12,0,0,12,769.4,607.6)" />
<use xlink:href="#f0_s" transform="matrix(12,0,0,12,781,607.6)" />
<use xlink:href="#f0_u" transform="matrix(12,0,0,12,86.8,636.3)" />
<use xlink:href="#f0_d" transform="matrix(12,0,0,12,104.6,636.3)" />
<use xlink:href="#f0_e" transform="matrix(12,0,0,12,115.8,636.3)" />
<use xlink:href="#f0_a" transform="matrix(12,0,0,12,127.4,636.3)" />
<use xlink:href="#f0_p" transform="matrix(12,0,0,12,138.7,636.3)" />
<use xlink:href="#f0_6" transform="matrix(12,0,0,12,155.5,636.3)" />
<use xlink:href="#f0_d" transform="matrix(12,0,0,12,162.7,636.3)" />
<use xlink:href="#f0_9" transform="matrix(12,0,0,12,179.6,636.3)" />
<use xlink:href="#f0_s" transform="matrix(12,0,0,12,189.2,636.3)" />
<use xlink:href="#f0_a" transform="matrix(12,0,0,12,200.8,636.3)" />
<use xlink:href="#f0_8" transform="matrix(12,0,0,12,212,636.3)" />
<use xlink:href="#f0_i" transform="matrix(12,0,0,12,223.3,636.3)" />
<use xlink:href="#f0_6" transform="matrix(12,0,0,12,239.8,636.3)" />
<use xlink:href="#f0_d" transform="matrix(12,0,0,12,246.9,636.3)" />
<use xlink:href="#f0_8" transform="matrix(12,0,0,12,264,636.3)" />
<use xlink:href="#f0_e" transform="matrix(12,0,0,12,275.2,636.3)" />
<use xlink:href="#f0_8" transform="matrix(12,0,0,12,292.6,636.3)" />
<use xlink:href="#f0_b" transform="matrix(12,0,0,12,303.9,636.3)" />
<use xlink:href="#f0_b" transform="matrix(12,0,0,12,314,636.3)" />
<use xlink:href="#f0_d" transform="matrix(12,0,0,12,324,636.3)" />
<use xlink:href="#f0_k" transform="matrix(12,0,0,12,335.2,636.3)" />
<use xlink:href="#f0_e" transform="matrix(12,0,0,12,346.8,636.3)" />
<use xlink:href="#f0_6" transform="matrix(12,0,0,12,358.4,636.3)" />
<use xlink:href="#f0_8" transform="matrix(12,0,0,12,365.6,636.3)" />
<use xlink:href="#f0_e" transform="matrix(12,0,0,12,376.9,636.3)" />
<use xlink:href="#f0_6" transform="matrix(12,0,0,12,388.5,636.3)" />
<use xlink:href="#f0_4" transform="matrix(12,0,0,12,395.7,636.3)" />
<use xlink:href="#f0_u" transform="matrix(12,0,0,12,407.4,636.3)" />
<use xlink:href="#f0_8" transform="matrix(12,0,0,12,425.1,636.3)" />
<use xlink:href="#f0_i" transform="matrix(12,0,0,12,436.4,636.3)" />
<use xlink:href="#f0_a" transform="matrix(12,0,0,12,446.4,636.3)" />
<use xlink:href="#f0_9" transform="matrix(12,0,0,12,463.5,636.3)" />
<use xlink:href="#f0_k" transform="matrix(12,0,0,12,473.1,636.3)" />
<use xlink:href="#f0_g" transform="matrix(12,0,0,12,484.7,636.3)" />
<use xlink:href="#f0_a" transform="matrix(12,0,0,12,491.7,636.3)" />
<use xlink:href="#f0_6" transform="matrix(12,0,0,12,508.9,636.3)" />
<use xlink:href="#f0_7" transform="matrix(12,0,0,12,516.1,636.3)" />
<use xlink:href="#f0_8" transform="matrix(12,0,0,12,527.6,636.3)" />
<use xlink:href="#f0_6" transform="matrix(12,0,0,12,538.9,636.3)" />
<use xlink:href="#f0_p" transform="matrix(12,0,0,12,551.9,636.3)" />
<use xlink:href="#f0_d" transform="matrix(12,0,0,12,562.7,636.3)" />
<use xlink:href="#f0_k" transform="matrix(12,0,0,12,573.9,636.3)" />
<use xlink:href="#f0_g" transform="matrix(12,0,0,12,585.6,636.3)" />
<use xlink:href="#f0_21" transform="matrix(12,0,0,12,598.9,636.3)" />
<use xlink:href="#f0_k" transform="matrix(12,0,0,12,610.5,636.3)" />
<use xlink:href="#f0_a" transform="matrix(12,0,0,12,622.1,636.3)" />
<use xlink:href="#f0_9" transform="matrix(12,0,0,12,633.4,636.3)" />
<use xlink:href="#f0_6" transform="matrix(12,0,0,12,643,636.3)" />
<use xlink:href="#f0_c" transform="matrix(12,0,0,12,650.2,636.3)" />
<use xlink:href="#f0_d" transform="matrix(12,0,0,12,655.2,636.3)" />
<use xlink:href="#f0_e" transform="matrix(12,0,0,12,666.4,636.3)" />
<use xlink:href="#f0_b" transform="matrix(12,0,0,12,683.9,636.3)" />
<use xlink:href="#f0_8" transform="matrix(12,0,0,12,694,636.3)" />
<use xlink:href="#f0_e" transform="matrix(12,0,0,12,705.3,636.3)" />
<use xlink:href="#f0_r" transform="matrix(12,0,0,12,716.9,636.3)" />
<use xlink:href="#f0_6" transform="matrix(12,0,0,12,722.7,636.3)" />
<use xlink:href="#f0_x" transform="matrix(12,0,0,12,735.7,636.3)" />
<use xlink:href="#f0_a" transform="matrix(12,0,0,12,747.3,636.3)" />
<use xlink:href="#f0_8" transform="matrix(12,0,0,12,86.8,664.9)" />
<use xlink:href="#f0_e" transform="matrix(12,0,0,12,98.1,664.9)" />
<use xlink:href="#f0_9" transform="matrix(12,0,0,12,109.5,664.9)" />
<use xlink:href="#f0_n" transform="matrix(12,0,0,12,119.1,664.9)" />
<use xlink:href="#f0_a" transform="matrix(12,0,0,12,134.1,664.9)" />
<use xlink:href="#f0_g" transform="matrix(12,0,0,12,145.6,664.9)" />
<use xlink:href="#f0_a" transform="matrix(12,0,0,12,152.6,664.9)" />
<use xlink:href="#f0_f" transform="matrix(12,0,0,12,163.9,664.9)" />
<use xlink:href="#f0_c" transform="matrix(12,0,0,12,181.3,664.9)" />
<use xlink:href="#f0_e" transform="matrix(12,0,0,12,186.3,664.9)" />
<use xlink:href="#f0_6" transform="matrix(12,0,0,12,203.9,664.9)" />
<use xlink:href="#f0_7" transform="matrix(12,0,0,12,211.1,664.9)" />
<use xlink:href="#f0_a" transform="matrix(12,0,0,12,222.7,664.9)" />
<use xlink:href="#f0_20" transform="matrix(12,0,0,12,239.8,664.9)" />
<use xlink:href="#f0_j" transform="matrix(12,0,0,12,257.2,664.9)" />
<use xlink:href="#f0_1n" transform="matrix(12,0,0,12,263.8,664.9)" />
<use xlink:href="#f0_c" transform="matrix(12,0,0,12,281.3,664.9)" />
<use xlink:href="#f0_e" transform="matrix(12,0,0,12,286.4,664.9)" />
<use xlink:href="#f0_9" transform="matrix(12,0,0,12,298,664.9)" />
<use xlink:href="#f0_6" transform="matrix(12,0,0,12,307.6,664.9)" />
<use xlink:href="#f0_g" transform="matrix(12,0,0,12,314.8,664.9)" />
<use xlink:href="#f0_k" transform="matrix(12,0,0,12,322.2,664.9)" />
<use xlink:href="#f0_b" transform="matrix(12,0,0,12,333.8,664.9)" />
<use xlink:href="#f0_6" transform="matrix(12,0,0,12,343.9,664.9)" />
<use xlink:href="#f0_c" transform="matrix(12,0,0,12,351.1,664.9)" />
<use xlink:href="#f0_d" transform="matrix(12,0,0,12,356.1,664.9)" />
<use xlink:href="#f0_e" transform="matrix(12,0,0,12,367.3,664.9)" />
<use xlink:href="#f0_9" transform="matrix(12,0,0,12,378.9,664.9)" />
<use xlink:href="#f0_8" transform="matrix(12,0,0,12,394.4,664.9)" />
<use xlink:href="#f0_t" transform="matrix(12,0,0,12,405.6,664.9)" />
<use xlink:href="#f0_8" transform="matrix(12,0,0,12,416.4,664.9)" />
<use xlink:href="#f0_c" transform="matrix(12,0,0,12,427.7,664.9)" />
<use xlink:href="#f0_o" transform="matrix(12,0,0,12,432.7,664.9)" />
<use xlink:href="#f0_8" transform="matrix(12,0,0,12,437.8,664.9)" />
<use xlink:href="#f0_x" transform="matrix(12,0,0,12,449.1,664.9)" />
<use xlink:href="#f0_o" transform="matrix(12,0,0,12,460.7,664.9)" />
<use xlink:href="#f0_a" transform="matrix(12,0,0,12,465.7,664.9)" />
<use xlink:href="#f0_h" transform="matrix(12,0,0,12,482.8,664.9)" />
<use xlink:href="#f0_d" transform="matrix(12,0,0,12,489.2,664.9)" />
<use xlink:href="#f0_g" transform="matrix(12,0,0,12,500.5,664.9)" />
<use xlink:href="#f0_f" transform="matrix(12,0,0,12,513.8,664.9)" />
<use xlink:href="#f0_d" transform="matrix(12,0,0,12,525.6,664.9)" />
<use xlink:href="#f0_n" transform="matrix(12,0,0,12,536.7,664.9)" />
<use xlink:href="#f0_e" transform="matrix(12,0,0,12,551.7,664.9)" />
<use xlink:href="#f0_o" transform="matrix(12,0,0,12,563.3,664.9)" />
<use xlink:href="#f0_d" transform="matrix(12,0,0,12,568.5,664.9)" />
<use xlink:href="#f0_8" transform="matrix(12,0,0,12,579.6,664.9)" />
<use xlink:href="#f0_f" transform="matrix(12,0,0,12,590.9,664.9)" />
<use xlink:href="#f0_h" transform="matrix(12,0,0,12,608.3,664.9)" />
<use xlink:href="#f0_g" transform="matrix(12,0,0,12,614.8,664.9)" />
<use xlink:href="#f0_d" transform="matrix(12,0,0,12,621.9,664.9)" />
<use xlink:href="#f0_u" transform="matrix(12,0,0,12,633.1,664.9)" />
<use xlink:href="#f0_6" transform="matrix(12,0,0,12,656.8,664.9)" />
<use xlink:href="#f0_7" transform="matrix(12,0,0,12,663.9,664.9)" />
<use xlink:href="#f0_a" transform="matrix(12,0,0,12,675.6,664.9)" />
<use xlink:href="#f0_k" transform="matrix(12,0,0,12,692.7,664.9)" />
<use xlink:href="#f0_s" transform="matrix(12,0,0,12,704.3,664.9)" />
<use xlink:href="#f0_s" transform="matrix(12,0,0,12,715.9,664.9)" />
<use xlink:href="#f0_a" transform="matrix(12,0,0,12,727.5,664.9)" />
<use xlink:href="#f0_g" transform="matrix(12,0,0,12,738.9,664.9)" />
<use xlink:href="#f0_j" transform="matrix(12,0,0,12,745.2,664.9)" />
<use xlink:href="#f0_o" transform="matrix(12,0,0,12,751.9,664.9)" />
<use xlink:href="#f0_a" transform="matrix(12,0,0,12,756.9,664.9)" />
<use xlink:href="#f0_h" transform="matrix(12,0,0,12,768.2,664.9)" />
<use xlink:href="#f0_6" transform="matrix(12,0,0,12,774.3,664.9)" />
<use xlink:href="#f0_b" transform="matrix(12,0,0,12,86.8,693.6)" />
<use xlink:href="#f0_d" transform="matrix(12,0,0,12,96.8,693.6)" />
<use xlink:href="#f0_g" transform="matrix(12,0,0,12,108,693.6)" />
<use xlink:href="#f0_e" transform="matrix(12,0,0,12,115.3,693.6)" />
<use xlink:href="#f0_a" transform="matrix(12,0,0,12,126.9,693.6)" />
<use xlink:href="#f0_g" transform="matrix(12,0,0,12,138.2,693.6)" />
<use xlink:href="#f0_d" transform="matrix(12,0,0,12,151.5,693.6)" />
<use xlink:href="#f0_h" transform="matrix(12,0,0,12,162.8,693.6)" />
<use xlink:href="#f0_6" transform="matrix(12,0,0,12,175,693.6)" />
<use xlink:href="#f0_7" transform="matrix(12,0,0,12,182.2,693.6)" />
<use xlink:href="#f0_a" transform="matrix(12,0,0,12,193.8,693.6)" />
<use xlink:href="#f0_s" transform="matrix(12,0,0,12,210.9,693.6)" />
<use xlink:href="#f0_8" transform="matrix(12,0,0,12,222.5,693.6)" />
<use xlink:href="#f0_q" transform="matrix(12,0,0,12,233.8,693.6)" />
<use xlink:href="#f0_a" transform="matrix(12,0,0,12,245.4,693.6)" />
<use xlink:href="#f0_l" transform="matrix(12,0,0,12,256.7,693.6)" />
</g>
</g>
<image preserveAspectRatio="none" x="87" y="87" width="736" height="447" xlink:href="img/1.png" />
<defs>
<path d="M150,0V1114H790V987H300V659H742V532H300V0Z" 
id="f0_1u"
transform="scale(0.001,-0.001)" />

<path d="M144,0V836H281V0Zm0,987v174H281V987Z" 
id="f0_c"
transform="scale(0.001,-0.001)" />

<path d="M144,0V1161H281V0Z" 
id="f0_o"
transform="scale(0.001,-0.001)" />

<path d="M467,95c0,0,110,0,174,86c0,0,64,87,64,236c0,0,0,148,-64,235c0,0,-64,87,-174,87c0,0,-110,0,-174,-86c0,0,-64,-86,-64,-236c0,0,0,-150,64,-236c0,0,63,-86,174,-86Zm0,-115c0,0,-179,0,-281,115C186,95,84,212,84,417c0,0,0,206,102,322c0,0,102,117,281,117c0,0,179,0,282,-117c0,0,102,-116,102,-322c0,0,0,-205,-102,-322C749,95,646,-20,467,-20Z" 
id="f0_d"
transform="scale(0.001,-0.001)" />

<path d="M424,-20c0,0,-145,0,-219,88c0,0,-75,89,-75,262V836H267V335c0,0,0,-119,46,-178c0,0,47,-59,139,-59c0,0,112,0,177,71c0,0,64,71,64,193V836H830V0H693V128C693,128,643,52,577,15c0,0,-66,-35,-153,-35Z" 
id="f0_k"
transform="scale(0.001,-0.001)" />

<path d="M421,0C421,0,263,0,202,59c0,0,-60,60,-60,217V729H41V836H142v238H280V836H562V729H280V276c0,0,0,-102,28,-132c0,0,28,-29,113,-29H562V0Z" 
id="f0_6"
transform="scale(0.001,-0.001)" />

<path d="M408,93c0,0,115,0,184,81c0,0,69,81,69,215v30H524c0,0,-167,0,-231,-38c0,0,-64,-38,-64,-129c0,0,0,-73,48,-116c0,0,48,-43,131,-43ZM372,-20c0,0,-128,0,-204,70c0,0,-76,72,-76,193c0,0,0,141,94,212c0,0,95,72,282,72H661v13c0,0,0,95,-62,147c0,0,-63,52,-175,52c0,0,-72,0,-140,-17c0,0,-68,-17,-130,-51V798c0,0,75,29,146,43c0,0,71,15,138,15c0,0,181,0,270,-95c0,0,90,-94,90,-285V0H661V127C661,127,614,51,544,15c0,0,-70,-35,-172,-35Z" 
id="f0_8"
transform="scale(0.001,-0.001)" />

<path d="M139,0V1161H277V706c0,0,49,75,116,112c0,0,67,38,154,38c0,0,144,0,218,-90c0,0,74,-89,74,-262V0H702V500c0,0,0,119,-46,177c0,0,-47,59,-139,59c0,0,-112,0,-176,-71c0,0,-64,-70,-64,-193V0Z" 
id="f0_7"
transform="scale(0.001,-0.001)" />

<path d="M231,492l491,1c0,0,-2,112,-64,179c0,0,-61,67,-163,67c0,0,-115,0,-184,-65c0,0,-69,-64,-80,-182ZM517,-20c0,0,-199,0,-316,115C201,95,84,211,84,410c0,0,0,205,111,325c0,0,111,121,299,121c0,0,168,0,266,-109c0,0,98,-108,98,-295V385H227c0,0,9,-142,85,-216c0,0,77,-74,213,-74c0,0,80,0,154,19c0,0,74,19,147,58V42C826,42,752,11,675,-4c0,0,-78,-16,-158,-16Z" 
id="f0_a"
transform="scale(0.001,-0.001)" />

<path d="M139,0V836H277V706c0,0,43,76,112,113c0,0,70,37,169,37c0,0,14,0,31,-2c0,0,17,-2,38,-6l1,-141c0,0,-23,14,-51,20c0,0,-27,6,-60,6c0,0,-116,0,-178,-75c0,0,-62,-76,-62,-218V0Z" 
id="f0_g"
transform="scale(0.001,-0.001)" />

<path d="M460,93c0,0,109,0,171,86c0,0,63,86,63,238c0,0,0,151,-63,237c0,0,-62,86,-171,86c0,0,-109,0,-172,-86c0,0,-62,-86,-62,-237c0,0,0,-152,62,-238c0,0,63,-86,172,-86ZM694,-317V125C694,125,651,51,585,15c0,0,-66,-35,-159,-35c0,0,-151,0,-247,119c0,0,-95,121,-95,318c0,0,0,197,95,318c0,0,96,121,247,121c0,0,93,0,159,-37c0,0,66,-36,109,-110V836H831V-317Z" 
id="f0_21"
transform="scale(0.001,-0.001)" />

<path d="M460,93c0,0,109,0,171,86c0,0,63,86,63,238c0,0,0,151,-63,237c0,0,-62,86,-171,86c0,0,-109,0,-172,-86c0,0,-62,-86,-62,-237c0,0,0,-152,62,-238c0,0,63,-86,172,-86ZM426,-20c0,0,-151,0,-247,119c0,0,-95,121,-95,318c0,0,0,197,95,318c0,0,96,121,247,121c0,0,93,0,159,-37c0,0,66,-36,109,-110v452H831V0H694V125C694,125,651,51,585,15c0,0,-66,-35,-159,-35Z" 
id="f0_f"
transform="scale(0.001,-0.001)" />

<path d="M139,0V836H277V706c0,0,49,75,116,112c0,0,67,38,154,38c0,0,144,0,218,-90c0,0,74,-89,74,-262V0H702V500c0,0,0,119,-46,177c0,0,-47,59,-139,59c0,0,-112,0,-176,-71c0,0,-64,-70,-64,-193V0Z" 
id="f0_e"
transform="scale(0.001,-0.001)" />

<path d="M166,0V729H35V836H166v58c0,0,0,139,65,203c0,0,65,64,206,64H567V1046H435c0,0,-74,0,-102,-29c0,0,-29,-30,-29,-107V836H530V729H304V0Z" 
id="f0_h"
transform="scale(0.001,-0.001)" />

<path d="M139,0V836H277V706c0,0,47,77,112,113c0,0,66,37,156,37c0,0,91,0,155,-47c0,0,64,-46,94,-134c0,0,52,93,123,137c0,0,72,44,169,44c0,0,130,0,201,-92c0,0,71,-91,71,-260V0H1220V500c0,0,0,120,-42,178c0,0,-43,58,-130,58c0,0,-107,0,-169,-71c0,0,-62,-70,-62,-193V0H680V500c0,0,0,121,-43,179c0,0,-42,57,-131,57c0,0,-105,0,-167,-71c0,0,-62,-71,-62,-193V0Z" 
id="f0_u"
transform="scale(0.001,-0.001)" />

<path d="M163,0V190H321V0Z" 
id="f0_l"
transform="scale(0.001,-0.001)" />

<path d="M391,0V987H-3v127H938V987H543V0Z" 
id="f0_w"
transform="scale(0.001,-0.001)" />

<path d="M460,115c0,0,111,0,173,82c0,0,61,82,61,230c0,0,0,149,-61,231c0,0,-62,82,-173,82c0,0,-111,0,-173,-82c0,0,-61,-82,-61,-231c0,0,0,-148,61,-230c0,0,62,-82,173,-82ZM446,-317c0,0,-72,0,-137,11c0,0,-64,11,-124,33v134c0,0,60,-33,119,-49c0,0,59,-15,121,-15c0,0,135,0,202,70c0,0,67,71,67,212v68C694,147,652,73,585,36C585,36,519,0,426,0C426,0,272,0,178,117c0,0,-94,117,-94,310c0,0,0,194,94,311c0,0,94,118,248,118c0,0,93,0,159,-37c0,0,67,-36,109,-110V836H831V104c0,0,0,-212,-95,-317c0,0,-94,-104,-290,-104Z" 
id="f0_q"
transform="scale(0.001,-0.001)" />

<path d="M510,93c0,0,109,0,171,86c0,0,62,86,62,238c0,0,0,151,-62,237c0,0,-62,86,-171,86c0,0,-109,0,-171,-86c0,0,-62,-86,-62,-237c0,0,0,-152,62,-238c0,0,62,-86,171,-86ZM139,-317V836H277V709c0,0,43,74,109,110c0,0,66,37,158,37c0,0,152,0,247,-121c0,0,95,-121,95,-318c0,0,0,-197,-95,-318C791,99,696,-20,544,-20c0,0,-92,0,-158,35c0,0,-66,36,-109,110V-317Z" 
id="f0_s"
transform="scale(0.001,-0.001)" />

<path d="M495,-20c0,0,-189,0,-300,117C195,97,84,216,84,417c0,0,0,204,112,321c0,0,113,118,308,118c0,0,64,0,124,-14c0,0,60,-13,117,-39V675c0,0,-58,32,-117,48c0,0,-58,16,-118,16c0,0,-133,0,-207,-84c0,0,-74,-85,-74,-238c0,0,0,-153,74,-238c0,0,74,-84,207,-84c0,0,60,0,118,16c0,0,59,16,117,48V32C745,32,688,5,626,-7c0,0,-61,-13,-131,-13Z" 
id="f0_b"
transform="scale(0.001,-0.001)" />

<path d="M376,-20c0,0,-67,0,-140,12C236,-8,164,4,83,30V172c0,0,76,-40,150,-59c0,0,74,-20,146,-20c0,0,97,0,150,33c0,0,52,33,52,94c0,0,0,56,-38,85c0,0,-38,30,-165,58l-48,11c0,0,-128,27,-184,83c0,0,-57,55,-57,152c0,0,0,118,83,182c0,0,84,65,238,65c0,0,76,0,143,-12c0,0,67,-11,124,-33V681c0,0,-58,29,-121,44c0,0,-63,15,-130,15c0,0,-102,0,-153,-31c0,0,-51,-31,-51,-94c0,0,0,-48,37,-75c0,0,36,-27,147,-52l46,-10c0,0,147,-32,208,-89c0,0,62,-57,62,-159c0,0,0,-116,-93,-184c0,0,-92,-66,-253,-66Z" 
id="f0_9"
transform="scale(0.001,-0.001)" />

<path d="M510,93c0,0,109,0,171,86c0,0,62,86,62,238c0,0,0,151,-62,237c0,0,-62,86,-171,86c0,0,-109,0,-171,-86c0,0,-62,-86,-62,-237c0,0,0,-152,62,-238c0,0,62,-86,171,-86ZM544,-20c0,0,-92,0,-158,35c0,0,-66,36,-109,110V0H139V1161H277V709c0,0,43,74,109,110c0,0,66,37,158,37c0,0,152,0,247,-121c0,0,95,-121,95,-318c0,0,0,-197,-95,-318C791,99,696,-20,544,-20Z" 
id="f0_x"
transform="scale(0.001,-0.001)" />

<path d="M283,0L65,836H202L373,184L544,836H706L878,184l171,652h137L967,0H806L626,685L445,0Z" 
id="f0_n"
transform="scale(0.001,-0.001)" />

<path d="M560,-20c0,0,-211,0,-319,110c0,0,-108,111,-108,328v696H285V437c0,0,0,-179,64,-258c0,0,65,-78,211,-78c0,0,144,0,209,78c0,0,65,79,65,258v677H986V418c0,0,0,-217,-108,-328C878,90,770,-20,560,-20Z" 
id="f0_1y"
transform="scale(0.001,-0.001)" />

<path d="M458,-20c0,0,-79,0,-168,17c0,0,-89,17,-184,52V204c0,0,91,-51,179,-77c0,0,88,-26,173,-26c0,0,129,0,199,50c0,0,70,51,70,145c0,0,0,82,-50,129c0,0,-50,46,-165,69l-92,18c0,0,-169,34,-244,105c0,0,-75,72,-75,199c0,0,0,148,104,233c0,0,104,85,287,85c0,0,78,0,159,-14c0,0,81,-14,166,-42V931c0,0,-85,41,-161,61c0,0,-76,20,-147,20c0,0,-123,0,-190,-48c0,0,-67,-48,-67,-136c0,0,0,-73,45,-111c0,0,44,-38,168,-61l91,-19c0,0,168,-32,249,-113c0,0,80,-81,80,-216c0,0,0,-162,-109,-246c0,0,-108,-82,-318,-82Z" 
id="f0_18"
transform="scale(0.001,-0.001)" />

<path d="M66,0V125L582,727H84V836H736V711L220,110H736V0Z" 
id="f0_22"
transform="scale(0.001,-0.001)" />

<path d="M117,-176L179,62V190H336V62L213,-176Z" 
id="f0_4"
transform="scale(0.001,-0.001)" />

<path d="M121,-317v116h81c0,0,57,0,88,26c0,0,31,27,69,127l25,62L46,836H191L453,182L714,836H859L492,-76c0,0,-58,-150,-113,-195c0,0,-55,-46,-148,-46Z" 
id="f0_p"
transform="scale(0.001,-0.001)" />

<path d="M359,0L46,836H191L453,134L714,836H859L546,0Z" 
id="f0_t"
transform="scale(0.001,-0.001)" />

<path d="M542,124c0,0,121,0,180,50c0,0,58,51,58,154c0,0,0,105,-58,154c0,0,-59,50,-180,50H300V124ZM523,654c0,0,111,0,165,41c0,0,54,42,54,127c0,0,0,84,-54,126c0,0,-54,42,-165,42H300V654ZM150,0V1114H535c0,0,172,0,265,-72c0,0,94,-72,94,-204c0,0,0,-102,-48,-162c0,0,-48,-61,-140,-76c0,0,111,-23,172,-99c0,0,62,-76,62,-189c0,0,0,-149,-102,-231C838,81,737,0,550,0Z" 
id="f0_m"
transform="scale(0.001,-0.001)" />

<path d="M139,0V1161H277V475L686,836H861L418,445L880,0H701L277,408V0Z" 
id="f0_i"
transform="scale(0.001,-0.001)" />

<path d="M132,763l62,237v114H351V1000L228,763Z" 
id="f0_r"
transform="scale(0.001,-0.001)" />

<path d="M330,0L51,1114H203L437,172l234,942H840L1074,172l234,942h153L1181,0H992L757,967L519,0Z" 
id="f0_20"
transform="scale(0.001,-0.001)" />

<path d="M74,357V479H476V357Z" 
id="f0_j"
transform="scale(0.001,-0.001)" />

<path d="M467,496c0,0,102,0,161,69c0,0,59,70,59,190c0,0,0,120,-59,190c0,0,-59,70,-161,70c0,0,-101,0,-160,-70c0,0,-60,-70,-60,-190c0,0,0,-120,60,-190c0,0,59,-69,160,-69ZM403,-20c0,0,-57,0,-115,11c0,0,-58,10,-121,32V160c0,0,57,-26,115,-40c0,0,58,-14,115,-14c0,0,149,0,228,100c0,0,79,100,90,305c0,0,-44,-65,-110,-99c0,0,-66,-35,-147,-35c0,0,-167,0,-265,102c0,0,-97,101,-97,276c0,0,0,172,101,275c0,0,102,104,270,104c0,0,194,0,295,-148c0,0,102,-148,102,-430c0,0,0,-263,-125,-420C739,136,614,-20,403,-20Z" 
id="f0_1n"
transform="scale(0.001,-0.001)" />


</defs>
</svg>