<?xml version="1.0" encoding="UTF-8" standalone="no"?>
<!DOCTYPE svg PUBLIC "-//W3C//DTD SVG 1.1//EN"
"http://www.w3.org/Graphics/SVG/1.1/DTD/svg11.dtd">
<svg viewBox="0 0 909 1286" version="1.1" xmlns="http://www.w3.org/2000/svg" xmlns:xlink="http://www.w3.org/1999/xlink">
<defs>
<clipPath id="c0_50"><path d="M0,1286.2V.2H909.3v1286Z" /></clipPath>
</defs>
<g clip-path="url(#c0_50)">
<g fill="#000000" >
<use xlink:href="#f0_1k" transform="matrix(12,0,0,12,86.8,461.2)" />
<use xlink:href="#f0_e" transform="matrix(12,0,0,12,99.3,461.2)" />
<use xlink:href="#f0_9" transform="matrix(12,0,0,12,110.9,461.2)" />
<use xlink:href="#f0_n" transform="matrix(12,0,0,12,120.5,461.2)" />
<use xlink:href="#f0_a" transform="matrix(12,0,0,12,135.5,461.2)" />
<use xlink:href="#f0_g" transform="matrix(12,0,0,12,146.8,461.2)" />
<use xlink:href="#f0_6" transform="matrix(12,0,0,12,160.1,461.2)" />
<use xlink:href="#f0_7" transform="matrix(12,0,0,12,167.3,461.2)" />
<use xlink:href="#f0_a" transform="matrix(12,0,0,12,178.9,461.2)" />
<use xlink:href="#f0_9" transform="matrix(12,0,0,12,190.2,461.2)" />
<use xlink:href="#f0_a" transform="matrix(12,0,0,12,199.8,461.2)" />
<use xlink:href="#f0_21" transform="matrix(12,0,0,12,216.9,461.2)" />
<use xlink:href="#f0_k" transform="matrix(12,0,0,12,228.5,461.2)" />
<use xlink:href="#f0_a" transform="matrix(12,0,0,12,240.1,461.2)" />
<use xlink:href="#f0_9" transform="matrix(12,0,0,12,251.4,461.2)" />
<use xlink:href="#f0_6" transform="matrix(12,0,0,12,261,461.2)" />
<use xlink:href="#f0_c" transform="matrix(12,0,0,12,268.2,461.2)" />
<use xlink:href="#f0_d" transform="matrix(12,0,0,12,273.2,461.2)" />
<use xlink:href="#f0_e" transform="matrix(12,0,0,12,284.4,461.2)" />
<use xlink:href="#f0_9" transform="matrix(12,0,0,12,296,461.2)" />
<use xlink:href="#f0_7" transform="matrix(12,0,0,12,311.4,461.2)" />
<use xlink:href="#f0_d" transform="matrix(12,0,0,12,323,461.2)" />
<use xlink:href="#f0_e" transform="matrix(12,0,0,12,334.1,461.2)" />
<use xlink:href="#f0_a" transform="matrix(12,0,0,12,345.7,461.2)" />
<use xlink:href="#f0_9" transform="matrix(12,0,0,12,357,461.2)" />
<use xlink:href="#f0_6" transform="matrix(12,0,0,12,366.6,461.2)" />
<use xlink:href="#f0_o" transform="matrix(12,0,0,12,373.8,461.2)" />
<use xlink:href="#f0_p" transform="matrix(12,0,0,12,378.9,461.2)" />
<use xlink:href="#f0_4" transform="matrix(12,0,0,12,389.7,461.2)" />
<use xlink:href="#f0_6" transform="matrix(12,0,0,12,401.5,461.2)" />
<use xlink:href="#f0_7" transform="matrix(12,0,0,12,408.6,461.2)" />
<use xlink:href="#f0_a" transform="matrix(12,0,0,12,420.2,461.2)" />
<use xlink:href="#f0_e" transform="matrix(12,0,0,12,431.5,461.2)" />
<use xlink:href="#f0_b" transform="matrix(12,0,0,12,449,461.2)" />
<use xlink:href="#f0_o" transform="matrix(12,0,0,12,459,461.2)" />
<use xlink:href="#f0_c" transform="matrix(12,0,0,12,464.1,461.2)" />
<use xlink:href="#f0_b" transform="matrix(12,0,0,12,469.1,461.2)" />
<use xlink:href="#f0_i" transform="matrix(12,0,0,12,479.2,461.2)" />
</g>
<g fill="#0000FF" >
<use xlink:href="#f1_9" transform="matrix(12,0,0,12,495.9,461.2)" />
<use xlink:href="#f1_o" transform="matrix(12,0,0,12,509.2,461.2)" />
<use xlink:href="#f1_13" transform="matrix(12,0,0,12,522.2,461.2)" />
<use xlink:href="#f1_z" transform="matrix(12,0,0,12,535.3,461.2)" />
<use xlink:href="#f1_5" transform="matrix(12,0,0,12,554.4,461.2)" />
<use xlink:href="#f1_4" transform="matrix(12,0,0,12,560.7,461.2)" />
</g>
<g fill="#000000" >
<use xlink:href="#f0_1e" transform="matrix(12,0,0,12,569.6,461.2)" />
<use xlink:href="#f0_1r" transform="matrix(12,0,0,12,86.8,913.8)" />
<use xlink:href="#f0_d" transform="matrix(12,0,0,12,95.6,913.8)" />
<use xlink:href="#f0_k" transform="matrix(12,0,0,12,106.8,913.8)" />
<use xlink:href="#f0_r" transform="matrix(12,0,0,12,118.4,913.8)" />
<use xlink:href="#f0_g" transform="matrix(12,0,0,12,124.2,913.8)" />
<use xlink:href="#f0_a" transform="matrix(12,0,0,12,131.2,913.8)" />
<use xlink:href="#f0_f" transform="matrix(12,0,0,12,148.5,913.8)" />
<use xlink:href="#f0_d" transform="matrix(12,0,0,12,160.1,913.8)" />
<use xlink:href="#f0_e" transform="matrix(12,0,0,12,171.2,913.8)" />
<use xlink:href="#f0_a" transform="matrix(12,0,0,12,182.8,913.8)" />
<use xlink:href="#f0_e" transform="matrix(12,0,0,12,200.1,913.8)" />
<use xlink:href="#f0_d" transform="matrix(12,0,0,12,211.7,913.8)" />
<use xlink:href="#f0_n" transform="matrix(12,0,0,12,222.8,913.8)" />
<use xlink:href="#f0_l" transform="matrix(12,0,0,12,236.1,913.8)" />
<use xlink:href="#f0_1r" transform="matrix(12,0,0,12,247.9,913.8)" />
<use xlink:href="#f0_d" transform="matrix(12,0,0,12,256.6,913.8)" />
<use xlink:href="#f0_k" transform="matrix(12,0,0,12,267.7,913.8)" />
<use xlink:href="#f0_9" transform="matrix(12,0,0,12,285.3,913.8)" />
<use xlink:href="#f0_7" transform="matrix(12,0,0,12,294.8,913.8)" />
<use xlink:href="#f0_d" transform="matrix(12,0,0,12,306.4,913.8)" />
<use xlink:href="#f0_k" transform="matrix(12,0,0,12,317.5,913.8)" />
<use xlink:href="#f0_o" transform="matrix(12,0,0,12,329.3,913.8)" />
<use xlink:href="#f0_f" transform="matrix(12,0,0,12,334.3,913.8)" />
<use xlink:href="#f0_g" transform="matrix(12,0,0,12,351.9,913.8)" />
<use xlink:href="#f0_a" transform="matrix(12,0,0,12,358.9,913.8)" />
<use xlink:href="#f0_b" transform="matrix(12,0,0,12,370.2,913.8)" />
<use xlink:href="#f0_a" transform="matrix(12,0,0,12,380.2,913.8)" />
<use xlink:href="#f0_c" transform="matrix(12,0,0,12,391.5,913.8)" />
<use xlink:href="#f0_t" transform="matrix(12,0,0,12,396.6,913.8)" />
<use xlink:href="#f0_a" transform="matrix(12,0,0,12,407.4,913.8)" />
<use xlink:href="#f0_8" transform="matrix(12,0,0,12,424.5,913.8)" />
<use xlink:href="#f0_b" transform="matrix(12,0,0,12,441.6,913.8)" />
<use xlink:href="#f0_d" transform="matrix(12,0,0,12,451.7,913.8)" />
<use xlink:href="#f0_k" transform="matrix(12,0,0,12,462.8,913.8)" />
<use xlink:href="#f0_s" transform="matrix(12,0,0,12,474.4,913.8)" />
<use xlink:href="#f0_o" transform="matrix(12,0,0,12,486,913.8)" />
<use xlink:href="#f0_a" transform="matrix(12,0,0,12,491.1,913.8)" />
<use xlink:href="#f0_d" transform="matrix(12,0,0,12,508.3,913.8)" />
<use xlink:href="#f0_h" transform="matrix(12,0,0,12,519.5,913.8)" />
<use xlink:href="#f0_a" transform="matrix(12,0,0,12,531.8,913.8)" />
<use xlink:href="#f0_u" transform="matrix(12,0,0,12,543,913.8)" />
<use xlink:href="#f0_8" transform="matrix(12,0,0,12,560.8,913.8)" />
<use xlink:href="#f0_c" transform="matrix(12,0,0,12,572.1,913.8)" />
<use xlink:href="#f0_o" transform="matrix(12,0,0,12,577.2,913.8)" />
<use xlink:href="#f0_9" transform="matrix(12,0,0,12,582.2,913.8)" />
<use xlink:href="#f0_h" transform="matrix(12,0,0,12,597.6,913.8)" />
<use xlink:href="#f0_g" transform="matrix(12,0,0,12,604.2,913.8)" />
<use xlink:href="#f0_d" transform="matrix(12,0,0,12,611.2,913.8)" />
<use xlink:href="#f0_u" transform="matrix(12,0,0,12,622.3,913.8)" />
<use xlink:href="#f0_c" transform="matrix(12,0,0,12,646.2,913.8)" />
<use xlink:href="#f0_w" transform="matrix(12,0,0,12,651.2,913.8)" />
<use xlink:href="#f0_k" transform="matrix(12,0,0,12,659.6,913.8)" />
<use xlink:href="#f0_e" transform="matrix(12,0,0,12,671.2,913.8)" />
<use xlink:href="#f0_a" transform="matrix(12,0,0,12,682.8,913.8)" />
<use xlink:href="#f0_9" transform="matrix(12,0,0,12,694.1,913.8)" />
<use xlink:href="#f0_1f" transform="matrix(12,0,0,12,709.5,913.8)" />
<use xlink:href="#f0_d" transform="matrix(12,0,0,12,722.3,913.8)" />
<use xlink:href="#f0_e" transform="matrix(12,0,0,12,733.5,913.8)" />
<use xlink:href="#f0_e" transform="matrix(12,0,0,12,745.1,913.8)" />
<use xlink:href="#f0_a" transform="matrix(12,0,0,12,756.7,913.8)" />
<use xlink:href="#f0_b" transform="matrix(12,0,0,12,768,913.8)" />
<use xlink:href="#f0_6" transform="matrix(12,0,0,12,778.1,913.8)" />
<use xlink:href="#f0_6" transform="matrix(12,0,0,12,86.8,942.3)" />
<use xlink:href="#f0_a" transform="matrix(12,0,0,12,94,942.3)" />
<use xlink:href="#f0_o" transform="matrix(12,0,0,12,105.3,942.3)" />
<use xlink:href="#f0_o" transform="matrix(12,0,0,12,110.3,942.3)" />
<use xlink:href="#f0_c" transform="matrix(12,0,0,12,115.5,942.3)" />
<use xlink:href="#f0_e" transform="matrix(12,0,0,12,120.5,942.3)" />
<use xlink:href="#f0_q" transform="matrix(12,0,0,12,132.1,942.3)" />
<use xlink:href="#f0_p" transform="matrix(12,0,0,12,149.7,942.3)" />
<use xlink:href="#f0_d" transform="matrix(12,0,0,12,160.5,942.3)" />
<use xlink:href="#f0_k" transform="matrix(12,0,0,12,171.6,942.3)" />
<use xlink:href="#f0_p" transform="matrix(12,0,0,12,189.1,942.3)" />
<use xlink:href="#f0_d" transform="matrix(12,0,0,12,199.9,942.3)" />
<use xlink:href="#f0_k" transform="matrix(12,0,0,12,211,942.3)" />
<use xlink:href="#f0_g" transform="matrix(12,0,0,12,222.8,942.3)" />
<use xlink:href="#f0_8" transform="matrix(12,0,0,12,236.1,942.3)" />
<use xlink:href="#f0_s" transform="matrix(12,0,0,12,247.4,942.3)" />
<use xlink:href="#f0_s" transform="matrix(12,0,0,12,259,942.3)" />
<use xlink:href="#f0_7" transform="matrix(12,0,0,12,276.4,942.3)" />
<use xlink:href="#f0_8" transform="matrix(12,0,0,12,288,942.3)" />
<use xlink:href="#f0_9" transform="matrix(12,0,0,12,299.2,942.3)" />
<use xlink:href="#f0_x" transform="matrix(12,0,0,12,314.7,942.3)" />
<use xlink:href="#f0_a" transform="matrix(12,0,0,12,326.3,942.3)" />
<use xlink:href="#f0_a" transform="matrix(12,0,0,12,337.4,942.3)" />
<use xlink:href="#f0_e" transform="matrix(12,0,0,12,348.7,942.3)" />
<use xlink:href="#f0_k" transform="matrix(12,0,0,12,366.3,942.3)" />
<use xlink:href="#f0_s" transform="matrix(12,0,0,12,377.9,942.3)" />
<use xlink:href="#f0_o" transform="matrix(12,0,0,12,389.5,942.3)" />
<use xlink:href="#f0_d" transform="matrix(12,0,0,12,394.5,942.3)" />
<use xlink:href="#f0_8" transform="matrix(12,0,0,12,405.7,942.3)" />
<use xlink:href="#f0_f" transform="matrix(12,0,0,12,417,942.3)" />
<use xlink:href="#f0_a" transform="matrix(12,0,0,12,428.6,942.3)" />
<use xlink:href="#f0_f" transform="matrix(12,0,0,12,439.9,942.3)" />
<use xlink:href="#f0_8" transform="matrix(12,0,0,12,457.3,942.3)" />
<use xlink:href="#f0_e" transform="matrix(12,0,0,12,468.6,942.3)" />
<use xlink:href="#f0_f" transform="matrix(12,0,0,12,480.2,942.3)" />
<use xlink:href="#f0_c" transform="matrix(12,0,0,12,497.6,942.3)" />
<use xlink:href="#f0_9" transform="matrix(12,0,0,12,502.7,942.3)" />
<use xlink:href="#f0_n" transform="matrix(12,0,0,12,518.1,942.3)" />
<use xlink:href="#f0_8" transform="matrix(12,0,0,12,533,942.3)" />
<use xlink:href="#f0_c" transform="matrix(12,0,0,12,544.3,942.3)" />
<use xlink:href="#f0_6" transform="matrix(12,0,0,12,549.4,942.3)" />
<use xlink:href="#f0_c" transform="matrix(12,0,0,12,556.6,942.3)" />
<use xlink:href="#f0_e" transform="matrix(12,0,0,12,561.6,942.3)" />
<use xlink:href="#f0_q" transform="matrix(12,0,0,12,573.4,942.3)" />
<use xlink:href="#f0_h" transform="matrix(12,0,0,12,590.8,942.3)" />
<use xlink:href="#f0_d" transform="matrix(12,0,0,12,597.2,942.3)" />
<use xlink:href="#f0_g" transform="matrix(12,0,0,12,608.5,942.3)" />
<use xlink:href="#f0_g" transform="matrix(12,0,0,12,621.8,942.3)" />
<use xlink:href="#f0_a" transform="matrix(12,0,0,12,628.8,942.3)" />
<use xlink:href="#f0_t" transform="matrix(12,0,0,12,640.1,942.3)" />
<use xlink:href="#f0_c" transform="matrix(12,0,0,12,651.1,942.3)" />
<use xlink:href="#f0_a" transform="matrix(12,0,0,12,656.1,942.3)" />
<use xlink:href="#f0_n" transform="matrix(12,0,0,12,667.4,942.3)" />
<use xlink:href="#f0_l" transform="matrix(12,0,0,12,680.7,942.3)" />
<use xlink:href="#f0_1r" transform="matrix(12,0,0,12,692.5,942.3)" />
<use xlink:href="#f0_d" transform="matrix(12,0,0,12,701.2,942.3)" />
<use xlink:href="#f0_k" transform="matrix(12,0,0,12,712.3,942.3)" />
<use xlink:href="#f0_g" transform="matrix(12,0,0,12,723.9,942.3)" />
<use xlink:href="#f0_8" transform="matrix(12,0,0,12,737.4,942.3)" />
<use xlink:href="#f0_s" transform="matrix(12,0,0,12,748.6,942.3)" />
<use xlink:href="#f0_s" transform="matrix(12,0,0,12,760.3,942.3)" />
<use xlink:href="#f0_r" transform="matrix(12,0,0,12,771.9,942.3)" />
<use xlink:href="#f0_9" transform="matrix(12,0,0,12,777.5,942.3)" />
<use xlink:href="#f0_9" transform="matrix(12,0,0,12,86.8,971.1)" />
<use xlink:href="#f0_6" transform="matrix(12,0,0,12,96.4,971.1)" />
<use xlink:href="#f0_8" transform="matrix(12,0,0,12,103.4,971.1)" />
<use xlink:href="#f0_6" transform="matrix(12,0,0,12,114.7,971.1)" />
<use xlink:href="#f0_k" transform="matrix(12,0,0,12,121.9,971.1)" />
<use xlink:href="#f0_9" transform="matrix(12,0,0,12,133.5,971.1)" />
<use xlink:href="#f0_7" transform="matrix(12,0,0,12,148.9,971.1)" />
<use xlink:href="#f0_8" transform="matrix(12,0,0,12,160.5,971.1)" />
<use xlink:href="#f0_9" transform="matrix(12,0,0,12,171.7,971.1)" />
<use xlink:href="#f0_8" transform="matrix(12,0,0,12,187.1,971.1)" />
<use xlink:href="#f0_o" transform="matrix(12,0,0,12,198.4,971.1)" />
<use xlink:href="#f0_9" transform="matrix(12,0,0,12,203.4,971.1)" />
<use xlink:href="#f0_d" transform="matrix(12,0,0,12,213,971.1)" />
<use xlink:href="#f0_b" transform="matrix(12,0,0,12,230,971.1)" />
<use xlink:href="#f0_7" transform="matrix(12,0,0,12,240,971.1)" />
<use xlink:href="#f0_8" transform="matrix(12,0,0,12,251.6,971.1)" />
<use xlink:href="#f0_e" transform="matrix(12,0,0,12,262.9,971.1)" />
<use xlink:href="#f0_q" transform="matrix(12,0,0,12,274.5,971.1)" />
<use xlink:href="#f0_a" transform="matrix(12,0,0,12,286.2,971.1)" />
<use xlink:href="#f0_f" transform="matrix(12,0,0,12,297.4,971.1)" />
<use xlink:href="#f0_1e" transform="matrix(12,0,0,12,309.1,971.1)" />
</g>
</g>
<image preserveAspectRatio="none" x="87" y="87" width="736" height="329" xlink:href="img/1.png" />
<image preserveAspectRatio="none" x="87" y="466" width="736" height="402" xlink:href="img/2.png" />
<defs>
<path d="M727,411L522,965L318,411ZM12,0L437,1114H608L1033,0H876L774,286H272L171,0Z" 
id="f0_1k"
transform="scale(0.001,-0.001)" />

<path d="M139,0V836H277V706c0,0,49,75,116,112c0,0,67,38,154,38c0,0,144,0,218,-90c0,0,74,-89,74,-262V0H702V500c0,0,0,119,-46,177c0,0,-47,59,-139,59c0,0,-112,0,-176,-71c0,0,-64,-70,-64,-193V0Z" 
id="f0_e"
transform="scale(0.001,-0.001)" />

<path d="M376,-20c0,0,-67,0,-140,12C236,-8,164,4,83,30V172c0,0,76,-40,150,-59c0,0,74,-20,146,-20c0,0,97,0,150,33c0,0,52,33,52,94c0,0,0,56,-38,85c0,0,-38,30,-165,58l-48,11c0,0,-128,27,-184,83c0,0,-57,55,-57,152c0,0,0,118,83,182c0,0,84,65,238,65c0,0,76,0,143,-12c0,0,67,-11,124,-33V681c0,0,-58,29,-121,44c0,0,-63,15,-130,15c0,0,-102,0,-153,-31c0,0,-51,-31,-51,-94c0,0,0,-48,37,-75c0,0,36,-27,147,-52l46,-10c0,0,147,-32,208,-89c0,0,62,-57,62,-159c0,0,0,-116,-93,-184c0,0,-92,-66,-253,-66Z" 
id="f0_9"
transform="scale(0.001,-0.001)" />

<path d="M283,0L65,836H202L373,184L544,836H706L878,184l171,652h137L967,0H806L626,685L445,0Z" 
id="f0_n"
transform="scale(0.001,-0.001)" />

<path d="M231,492l491,1c0,0,-2,112,-64,179c0,0,-61,67,-163,67c0,0,-115,0,-184,-65c0,0,-69,-64,-80,-182ZM517,-20c0,0,-199,0,-316,115C201,95,84,211,84,410c0,0,0,205,111,325c0,0,111,121,299,121c0,0,168,0,266,-109c0,0,98,-108,98,-295V385H227c0,0,9,-142,85,-216c0,0,77,-74,213,-74c0,0,80,0,154,19c0,0,74,19,147,58V42C826,42,752,11,675,-4c0,0,-78,-16,-158,-16Z" 
id="f0_a"
transform="scale(0.001,-0.001)" />

<path d="M139,0V836H277V706c0,0,43,76,112,113c0,0,70,37,169,37c0,0,14,0,31,-2c0,0,17,-2,38,-6l1,-141c0,0,-23,14,-51,20c0,0,-27,6,-60,6c0,0,-116,0,-178,-75c0,0,-62,-76,-62,-218V0Z" 
id="f0_g"
transform="scale(0.001,-0.001)" />

<path d="M421,0C421,0,263,0,202,59c0,0,-60,60,-60,217V729H41V836H142v238H280V836H562V729H280V276c0,0,0,-102,28,-132c0,0,28,-29,113,-29H562V0Z" 
id="f0_6"
transform="scale(0.001,-0.001)" />

<path d="M139,0V1161H277V706c0,0,49,75,116,112c0,0,67,38,154,38c0,0,144,0,218,-90c0,0,74,-89,74,-262V0H702V500c0,0,0,119,-46,177c0,0,-47,59,-139,59c0,0,-112,0,-176,-71c0,0,-64,-70,-64,-193V0Z" 
id="f0_7"
transform="scale(0.001,-0.001)" />

<path d="M460,93c0,0,109,0,171,86c0,0,63,86,63,238c0,0,0,151,-63,237c0,0,-62,86,-171,86c0,0,-109,0,-172,-86c0,0,-62,-86,-62,-237c0,0,0,-152,62,-238c0,0,63,-86,172,-86ZM694,-317V125C694,125,651,51,585,15c0,0,-66,-35,-159,-35c0,0,-151,0,-247,119c0,0,-95,121,-95,318c0,0,0,197,95,318c0,0,96,121,247,121c0,0,93,0,159,-37c0,0,66,-36,109,-110V836H831V-317Z" 
id="f0_21"
transform="scale(0.001,-0.001)" />

<path d="M424,-20c0,0,-145,0,-219,88c0,0,-75,89,-75,262V836H267V335c0,0,0,-119,46,-178c0,0,47,-59,139,-59c0,0,112,0,177,71c0,0,64,71,64,193V836H830V0H693V128C693,128,643,52,577,15c0,0,-66,-35,-153,-35Z" 
id="f0_k"
transform="scale(0.001,-0.001)" />

<path d="M144,0V836H281V0Zm0,987v174H281V987Z" 
id="f0_c"
transform="scale(0.001,-0.001)" />

<path d="M467,95c0,0,110,0,174,86c0,0,64,87,64,236c0,0,0,148,-64,235c0,0,-64,87,-174,87c0,0,-110,0,-174,-86c0,0,-64,-86,-64,-236c0,0,0,-150,64,-236c0,0,63,-86,174,-86Zm0,-115c0,0,-179,0,-281,115C186,95,84,212,84,417c0,0,0,206,102,322c0,0,102,117,281,117c0,0,179,0,282,-117c0,0,102,-116,102,-322c0,0,0,-205,-102,-322C749,95,646,-20,467,-20Z" 
id="f0_d"
transform="scale(0.001,-0.001)" />

<path d="M144,0V1161H281V0Z" 
id="f0_o"
transform="scale(0.001,-0.001)" />

<path d="M121,-317v116h81c0,0,57,0,88,26c0,0,31,27,69,127l25,62L46,836H191L453,182L714,836H859L492,-76c0,0,-58,-150,-113,-195c0,0,-55,-46,-148,-46Z" 
id="f0_p"
transform="scale(0.001,-0.001)" />

<path d="M117,-176L179,62V190H336V62L213,-176Z" 
id="f0_4"
transform="scale(0.001,-0.001)" />

<path d="M495,-20c0,0,-189,0,-300,117C195,97,84,216,84,417c0,0,0,204,112,321c0,0,113,118,308,118c0,0,64,0,124,-14c0,0,60,-13,117,-39V675c0,0,-58,32,-117,48c0,0,-58,16,-118,16c0,0,-133,0,-207,-84c0,0,-74,-85,-74,-238c0,0,0,-153,74,-238c0,0,74,-84,207,-84c0,0,60,0,118,16c0,0,59,16,117,48V32C745,32,688,5,626,-7c0,0,-61,-13,-131,-13Z" 
id="f0_b"
transform="scale(0.001,-0.001)" />

<path d="M139,0V1161H277V475L686,836H861L418,445L880,0H701L277,408V0Z" 
id="f0_i"
transform="scale(0.001,-0.001)" />

<path d="M545,-20c0,0,-106,0,-212,20C333,0,226,19,119,58V301c0,0,107,-57,207,-85c0,0,99,-29,192,-29c0,0,94,0,144,31c0,0,50,31,50,90c0,0,0,52,-34,80c0,0,-34,29,-136,51L431,464c0,0,-167,35,-244,114c0,0,-77,78,-77,211c0,0,0,166,107,256c0,0,107,89,309,89c0,0,92,0,189,-14c0,0,97,-13,200,-41V843c0,0,-92,41,-179,62c0,0,-87,21,-165,21c0,0,-103,0,-152,-28c0,0,-49,-29,-49,-88c0,0,0,-45,33,-70c0,0,33,-25,121,-43L646,672c0,0,186,-37,264,-113c0,0,79,-76,79,-216c0,0,0,-185,-110,-275c0,0,-109,-88,-334,-88Z" 
id="f1_9"
transform="scale(0.001,-0.001)" />

<path d="M415,-20c0,0,-144,0,-220,87c0,0,-76,89,-76,259V836H388V752c0,0,0,-67,-1,-170c0,0,0,-103,0,-137c0,0,0,-101,5,-145c0,0,5,-44,18,-65c0,0,16,-26,43,-40c0,0,26,-14,60,-14c0,0,84,0,132,64c0,0,47,64,47,178V836H959V0H692V121C692,121,632,48,564,13c0,0,-67,-33,-149,-33Z" 
id="f1_o"
transform="scale(0.001,-0.001)" />

<path d="M573,172c0,0,86,0,131,63c0,0,45,63,45,182c0,0,0,119,-45,182c0,0,-45,63,-131,63c0,0,-86,0,-132,-63c0,0,-46,-63,-46,-182c0,0,0,-119,46,-182c0,0,46,-63,132,-63ZM672,-20c0,0,-87,0,-155,33c0,0,-67,35,-122,108V0H128V1161H395V713c0,0,55,73,122,108c0,0,68,35,155,35c0,0,154,0,253,-123c0,0,100,-123,100,-316c0,0,0,-193,-100,-316c0,0,-99,-121,-253,-121Z" 
id="f1_13"
transform="scale(0.001,-0.001)" />

<path d="M127,0V836H396V713c0,0,49,71,113,107c0,0,64,36,141,36c0,0,86,0,152,-42c0,0,67,-42,101,-118c0,0,51,78,121,119c0,0,69,41,153,41c0,0,144,0,219,-89c0,0,76,-89,76,-258V0H1203V436c0,0,0,9,1,20c0,0,0,10,0,30c0,0,0,88,-26,128c0,0,-26,40,-84,40c0,0,-76,0,-117,-63c0,0,-42,-62,-43,-181V0H665V436c0,0,0,138,-24,178c0,0,-24,40,-85,40c0,0,-77,0,-118,-63c0,0,-42,-63,-42,-180V0Z" 
id="f1_z"
transform="scale(0.001,-0.001)" />

<path d="M128,0V836H395V0Zm0,944v217H395V944Z" 
id="f1_5"
transform="scale(0.001,-0.001)" />

<path d="M443,0C443,0,285,0,219,66c0,0,-66,66,-66,224V645H20V836H153v237H419V836H695V645H419V290c0,0,0,-58,24,-79c0,0,23,-20,91,-20H672V0Z" 
id="f1_4"
transform="scale(0.001,-0.001)" />

<path d="M179,0V190H336V0Zm0,600V790H336V600Z" 
id="f0_1e"
transform="scale(0.001,-0.001)" />

<path d="M391,0V530L-2,1114H159L468,656l307,458H937L543,530V0Z" 
id="f0_1r"
transform="scale(0.001,-0.001)" />

<path d="M132,763l62,237v114H351V1000L228,763Z" 
id="f0_r"
transform="scale(0.001,-0.001)" />

<path d="M460,93c0,0,109,0,171,86c0,0,63,86,63,238c0,0,0,151,-63,237c0,0,-62,86,-171,86c0,0,-109,0,-172,-86c0,0,-62,-86,-62,-237c0,0,0,-152,62,-238c0,0,63,-86,172,-86ZM426,-20c0,0,-151,0,-247,119c0,0,-95,121,-95,318c0,0,0,197,95,318c0,0,96,121,247,121c0,0,93,0,159,-37c0,0,66,-36,109,-110v452H831V0H694V125C694,125,651,51,585,15c0,0,-66,-35,-159,-35Z" 
id="f0_f"
transform="scale(0.001,-0.001)" />

<path d="M163,0V190H321V0Z" 
id="f0_l"
transform="scale(0.001,-0.001)" />

<path d="M359,0L46,836H191L453,134L714,836H859L546,0Z" 
id="f0_t"
transform="scale(0.001,-0.001)" />

<path d="M408,93c0,0,115,0,184,81c0,0,69,81,69,215v30H524c0,0,-167,0,-231,-38c0,0,-64,-38,-64,-129c0,0,0,-73,48,-116c0,0,48,-43,131,-43ZM372,-20c0,0,-128,0,-204,70c0,0,-76,72,-76,193c0,0,0,141,94,212c0,0,95,72,282,72H661v13c0,0,0,95,-62,147c0,0,-63,52,-175,52c0,0,-72,0,-140,-17c0,0,-68,-17,-130,-51V798c0,0,75,29,146,43c0,0,71,15,138,15c0,0,181,0,270,-95c0,0,90,-94,90,-285V0H661V127C661,127,614,51,544,15c0,0,-70,-35,-172,-35Z" 
id="f0_8"
transform="scale(0.001,-0.001)" />

<path d="M510,93c0,0,109,0,171,86c0,0,62,86,62,238c0,0,0,151,-62,237c0,0,-62,86,-171,86c0,0,-109,0,-171,-86c0,0,-62,-86,-62,-237c0,0,0,-152,62,-238c0,0,62,-86,171,-86ZM139,-317V836H277V709c0,0,43,74,109,110c0,0,66,37,158,37c0,0,152,0,247,-121c0,0,95,-121,95,-318c0,0,0,-197,-95,-318C791,99,696,-20,544,-20c0,0,-92,0,-158,35c0,0,-66,36,-109,110V-317Z" 
id="f0_s"
transform="scale(0.001,-0.001)" />

<path d="M166,0V729H35V836H166v58c0,0,0,139,65,203c0,0,65,64,206,64H567V1046H435c0,0,-74,0,-102,-29c0,0,-29,-30,-29,-107V836H530V729H304V0Z" 
id="f0_h"
transform="scale(0.001,-0.001)" />

<path d="M139,0V836H277V706c0,0,47,77,112,113c0,0,66,37,156,37c0,0,91,0,155,-47c0,0,64,-46,94,-134c0,0,52,93,123,137c0,0,72,44,169,44c0,0,130,0,201,-92c0,0,71,-91,71,-260V0H1220V500c0,0,0,120,-42,178c0,0,-43,58,-130,58c0,0,-107,0,-169,-71c0,0,-62,-70,-62,-193V0H680V500c0,0,0,121,-43,179c0,0,-42,57,-131,57c0,0,-105,0,-167,-71c0,0,-62,-71,-62,-193V0Z" 
id="f0_u"
transform="scale(0.001,-0.001)" />

<path d="M391,0V987H-3v127H938V987H543V0Z" 
id="f0_w"
transform="scale(0.001,-0.001)" />

<path d="M630,-20c0,0,-253,0,-398,153C232,133,86,288,86,556c0,0,0,269,146,423c0,0,145,155,398,155c0,0,100,0,189,-26c0,0,88,-27,166,-79V869c0,0,-76,71,-163,106c0,0,-86,35,-183,35c0,0,-191,0,-292,-117C347,893,245,777,245,556c0,0,0,-220,102,-337c0,0,101,-116,292,-116c0,0,97,0,183,35c0,0,87,35,163,105V86C985,86,906,32,817,5c0,0,-88,-25,-187,-25Z" 
id="f0_1f"
transform="scale(0.001,-0.001)" />

<path d="M460,115c0,0,111,0,173,82c0,0,61,82,61,230c0,0,0,149,-61,231c0,0,-62,82,-173,82c0,0,-111,0,-173,-82c0,0,-61,-82,-61,-231c0,0,0,-148,61,-230c0,0,62,-82,173,-82ZM446,-317c0,0,-72,0,-137,11c0,0,-64,11,-124,33v134c0,0,60,-33,119,-49c0,0,59,-15,121,-15c0,0,135,0,202,70c0,0,67,71,67,212v68C694,147,652,73,585,36C585,36,519,0,426,0C426,0,272,0,178,117c0,0,-94,117,-94,310c0,0,0,194,94,311c0,0,94,118,248,118c0,0,93,0,159,-37c0,0,67,-36,109,-110V836H831V104c0,0,0,-212,-95,-317c0,0,-94,-104,-290,-104Z" 
id="f0_q"
transform="scale(0.001,-0.001)" />

<path d="M510,93c0,0,109,0,171,86c0,0,62,86,62,238c0,0,0,151,-62,237c0,0,-62,86,-171,86c0,0,-109,0,-171,-86c0,0,-62,-86,-62,-237c0,0,0,-152,62,-238c0,0,62,-86,171,-86ZM544,-20c0,0,-92,0,-158,35c0,0,-66,36,-109,110V0H139V1161H277V709c0,0,43,74,109,110c0,0,66,37,158,37c0,0,152,0,247,-121c0,0,95,-121,95,-318c0,0,0,-197,-95,-318C791,99,696,-20,544,-20Z" 
id="f0_x"
transform="scale(0.001,-0.001)" />


</defs>
</svg>