<?xml version="1.0" encoding="UTF-8" standalone="no"?>
<!DOCTYPE svg PUBLIC "-//W3C//DTD SVG 1.1//EN"
"http://www.w3.org/Graphics/SVG/1.1/DTD/svg11.dtd">
<svg viewBox="0 0 909 1286" version="1.1" xmlns="http://www.w3.org/2000/svg" xmlns:xlink="http://www.w3.org/1999/xlink">
<defs>
<clipPath id="c0_22"><path d="M0,1286.2V.2H909.3v1286Z" /></clipPath>
<style type="text/css"><![CDATA[
.g0_22{
fill: #00FF00;
}
]]></style>
</defs>
<g clip-path="url(#c0_22)">
<g fill="#000000" >
<use xlink:href="#f0_2" transform="matrix(12,0,0,12,86.8,526.6)" />
<use xlink:href="#f0_3" transform="matrix(12,0,0,12,97.9,526.6)" />
<use xlink:href="#f0_4" transform="matrix(12,0,0,12,109.5,526.6)" />
<use xlink:href="#f0_8" transform="matrix(12,0,0,12,121,526.6)" />
<use xlink:href="#f0_4" transform="matrix(12,0,0,12,128,526.6)" />
<use xlink:href="#f0_g" transform="matrix(12,0,0,12,145.1,526.6)" />
<use xlink:href="#f0_8" transform="matrix(12,0,0,12,156.4,526.6)" />
<use xlink:href="#f0_4" transform="matrix(12,0,0,12,163.4,526.6)" />
<use xlink:href="#f0_g" transform="matrix(12,0,0,12,180.5,526.6)" />
<use xlink:href="#f0_i" transform="matrix(12,0,0,12,197.6,526.6)" />
<use xlink:href="#f0_c" transform="matrix(12,0,0,12,202.7,526.6)" />
<use xlink:href="#f0_a" transform="matrix(12,0,0,12,213.8,526.6)" />
<use xlink:href="#f0_c" transform="matrix(12,0,0,12,226.9,526.6)" />
<use xlink:href="#f0_6" transform="matrix(12,0,0,12,238.1,526.6)" />
<use xlink:href="#f0_a" transform="matrix(12,0,0,12,250.4,526.6)" />
<use xlink:href="#f0_3" transform="matrix(12,0,0,12,257.6,526.6)" />
<use xlink:href="#f0_7" transform="matrix(12,0,0,12,269.2,526.6)" />
<use xlink:href="#f0_h" transform="matrix(12,0,0,12,274.3,526.6)" />
<use xlink:href="#f0_f" transform="matrix(12,0,0,12,285.9,526.6)" />
<use xlink:href="#f0_9" transform="matrix(12,0,0,12,297.5,526.6)" />
<use xlink:href="#f0_t" transform="matrix(12,0,0,12,312.9,526.6)" />
<use xlink:href="#f0_c" transform="matrix(12,0,0,12,323.7,526.6)" />
<use xlink:href="#f0_r" transform="matrix(12,0,0,12,334.9,526.6)" />
<use xlink:href="#f0_11" transform="matrix(12,0,0,12,346.5,526.6)" />
<use xlink:href="#f0_i" transform="matrix(12,0,0,12,352.4,526.6)" />
<use xlink:href="#f0_i" transform="matrix(12,0,0,12,357.5,526.6)" />
<use xlink:href="#f0_h" transform="matrix(12,0,0,12,368.5,526.6)" />
<use xlink:href="#f0_4" transform="matrix(12,0,0,12,380.1,526.6)" />
<use xlink:href="#f0_4" transform="matrix(12,0,0,12,391.3,526.6)" />
<use xlink:href="#f0_j" transform="matrix(12,0,0,12,402.6,526.6)" />
<use xlink:href="#f0_a" transform="matrix(12,0,0,12,420.1,526.6)" />
<use xlink:href="#f0_c" transform="matrix(12,0,0,12,427.2,526.6)" />
<use xlink:href="#f0_j" transform="matrix(12,0,0,12,444.3,526.6)" />
<use xlink:href="#f0_c" transform="matrix(12,0,0,12,455.9,526.6)" />
<use xlink:href="#f0_6" transform="matrix(12,0,0,12,472.9,526.6)" />
<use xlink:href="#f0_8" transform="matrix(12,0,0,12,479.4,526.6)" />
<use xlink:href="#f0_c" transform="matrix(12,0,0,12,486.5,526.6)" />
<use xlink:href="#f0_p" transform="matrix(12,0,0,12,497.6,526.6)" />
<use xlink:href="#f0_a" transform="matrix(12,0,0,12,521.4,526.6)" />
<use xlink:href="#f0_3" transform="matrix(12,0,0,12,528.6,526.6)" />
<use xlink:href="#f0_7" transform="matrix(12,0,0,12,540.2,526.6)" />
<use xlink:href="#f0_9" transform="matrix(12,0,0,12,545.3,526.6)" />
<use xlink:href="#f0_g" transform="matrix(12,0,0,12,560.7,526.6)" />
<use xlink:href="#f0_8" transform="matrix(12,0,0,12,572,526.6)" />
<use xlink:href="#f0_4" transform="matrix(12,0,0,12,579,526.6)" />
<use xlink:href="#f0_g" transform="matrix(12,0,0,12,590.1,526.6)" />
<use xlink:href="#f0_l" transform="matrix(12,0,0,12,601.4,526.6)" />
<use xlink:href="#f0_e" transform="matrix(12,0,0,12,613.2,526.6)" />
<use xlink:href="#f0_c" transform="matrix(12,0,0,12,624.8,526.6)" />
<use xlink:href="#f0_p" transform="matrix(12,0,0,12,635.9,526.6)" />
<use xlink:href="#f0_4" transform="matrix(12,0,0,12,653.8,526.6)" />
<use xlink:href="#f0_c" transform="matrix(12,0,0,12,670.9,526.6)" />
<use xlink:href="#f0_6" transform="matrix(12,0,0,12,682,526.6)" />
<use xlink:href="#f0_a" transform="matrix(12,0,0,12,694.4,526.6)" />
<use xlink:href="#f0_3" transform="matrix(12,0,0,12,701.6,526.6)" />
<use xlink:href="#f0_4" transform="matrix(12,0,0,12,713.2,526.6)" />
<use xlink:href="#f0_p" transform="matrix(12,0,0,12,724.5,526.6)" />
<use xlink:href="#f0_t" transform="matrix(12,0,0,12,748.2,526.6)" />
<use xlink:href="#f0_c" transform="matrix(12,0,0,12,759,526.6)" />
<use xlink:href="#f0_r" transform="matrix(12,0,0,12,770.1,526.6)" />
<use xlink:href="#f0_11" transform="matrix(12,0,0,12,781.7,526.6)" />
<use xlink:href="#f0_i" transform="matrix(12,0,0,12,787.7,526.6)" />
<use xlink:href="#f0_i" transform="matrix(12,0,0,12,792.7,526.6)" />
<use xlink:href="#f0_c" transform="matrix(12,0,0,12,86.8,555.3)" />
<use xlink:href="#f0_h" transform="matrix(12,0,0,12,97.9,555.3)" />
<use xlink:href="#f0_i" transform="matrix(12,0,0,12,109.7,555.3)" />
<use xlink:href="#f0_t" transform="matrix(12,0,0,12,114.7,555.3)" />
<use xlink:href="#f0_3" transform="matrix(12,0,0,12,131.4,555.3)" />
<use xlink:href="#f0_g" transform="matrix(12,0,0,12,143,555.3)" />
<use xlink:href="#f0_k" transform="matrix(12,0,0,12,154.3,555.3)" />
<use xlink:href="#f0_4" transform="matrix(12,0,0,12,165.1,555.3)" />
<use xlink:href="#f0_a" transform="matrix(12,0,0,12,182.2,555.3)" />
<use xlink:href="#f0_c" transform="matrix(12,0,0,12,189.4,555.3)" />
<use xlink:href="#f0_j" transform="matrix(12,0,0,12,206.5,555.3)" />
<use xlink:href="#f0_c" transform="matrix(12,0,0,12,218.1,555.3)" />
<use xlink:href="#f0_c" transform="matrix(12,0,0,12,235,555.3)" />
<use xlink:href="#f0_h" transform="matrix(12,0,0,12,246.2,555.3)" />
<use xlink:href="#f0_o" transform="matrix(12,0,0,12,257.8,555.3)" />
<use xlink:href="#f0_4" transform="matrix(12,0,0,12,267.9,555.3)" />
<use xlink:href="#f0_q" transform="matrix(12,0,0,12,279.1,555.3)" />
<use xlink:href="#f0_i" transform="matrix(12,0,0,12,290.9,555.3)" />
<use xlink:href="#f0_7" transform="matrix(12,0,0,12,295.9,555.3)" />
<use xlink:href="#f0_10" transform="matrix(12,0,0,12,301,555.3)" />
<use xlink:href="#f0_4" transform="matrix(12,0,0,12,311.1,555.3)" />
<use xlink:href="#f0_f" transform="matrix(12,0,0,12,328.2,555.3)" />
<use xlink:href="#f0_4" transform="matrix(12,0,0,12,339.8,555.3)" />
<use xlink:href="#f0_h" transform="matrix(12,0,0,12,351.1,555.3)" />
<use xlink:href="#f0_4" transform="matrix(12,0,0,12,362.7,555.3)" />
<use xlink:href="#f0_8" transform="matrix(12,0,0,12,374,555.3)" />
<use xlink:href="#f0_g" transform="matrix(12,0,0,12,381.4,555.3)" />
<use xlink:href="#f0_a" transform="matrix(12,0,0,12,392.7,555.3)" />
<use xlink:href="#f0_7" transform="matrix(12,0,0,12,399.9,555.3)" />
<use xlink:href="#f0_h" transform="matrix(12,0,0,12,405,555.3)" />
<use xlink:href="#f0_f" transform="matrix(12,0,0,12,416.6,555.3)" />
<use xlink:href="#f0_t" transform="matrix(12,0,0,12,434,555.3)" />
<use xlink:href="#f0_c" transform="matrix(12,0,0,12,444.8,555.3)" />
<use xlink:href="#f0_r" transform="matrix(12,0,0,12,456,555.3)" />
<use xlink:href="#f0_8" transform="matrix(12,0,0,12,467.7,555.3)" />
<use xlink:href="#f0_o" transform="matrix(12,0,0,12,481,555.3)" />
<use xlink:href="#f0_4" transform="matrix(12,0,0,12,491.1,555.3)" />
<use xlink:href="#f0_8" transform="matrix(12,0,0,12,502.4,555.3)" />
<use xlink:href="#f0_a" transform="matrix(12,0,0,12,509.9,555.3)" />
<use xlink:href="#f0_7" transform="matrix(12,0,0,12,517.2,555.3)" />
<use xlink:href="#f0_6" transform="matrix(12,0,0,12,522.2,555.3)" />
<use xlink:href="#f0_7" transform="matrix(12,0,0,12,528.6,555.3)" />
<use xlink:href="#f0_o" transform="matrix(12,0,0,12,533.7,555.3)" />
<use xlink:href="#f0_g" transform="matrix(12,0,0,12,543.7,555.3)" />
<use xlink:href="#f0_a" transform="matrix(12,0,0,12,555,555.3)" />
<use xlink:href="#f0_4" transform="matrix(12,0,0,12,562.2,555.3)" />
<use xlink:href="#f0_9" transform="matrix(12,0,0,12,573.5,555.3)" />
<use xlink:href="#f0_g" transform="matrix(12,0,0,12,588.9,555.3)" />
<use xlink:href="#f0_h" transform="matrix(12,0,0,12,600.1,555.3)" />
<use xlink:href="#f0_j" transform="matrix(12,0,0,12,611.7,555.3)" />
<use xlink:href="#f0_8" transform="matrix(12,0,0,12,629.2,555.3)" />
<use xlink:href="#f0_4" transform="matrix(12,0,0,12,636.2,555.3)" />
<use xlink:href="#f0_f" transform="matrix(12,0,0,12,647.5,555.3)" />
<use xlink:href="#f0_7" transform="matrix(12,0,0,12,659.1,555.3)" />
<use xlink:href="#f0_9" transform="matrix(12,0,0,12,664.2,555.3)" />
<use xlink:href="#f0_a" transform="matrix(12,0,0,12,673.8,555.3)" />
<use xlink:href="#f0_4" transform="matrix(12,0,0,12,681,555.3)" />
<use xlink:href="#f0_8" transform="matrix(12,0,0,12,692.3,555.3)" />
<use xlink:href="#f0_7" transform="matrix(12,0,0,12,699.8,555.3)" />
<use xlink:href="#f0_h" transform="matrix(12,0,0,12,704.8,555.3)" />
<use xlink:href="#f0_f" transform="matrix(12,0,0,12,716.4,555.3)" />
<use xlink:href="#f0_t" transform="matrix(12,0,0,12,734,555.3)" />
<use xlink:href="#f0_c" transform="matrix(12,0,0,12,744.8,555.3)" />
<use xlink:href="#f0_r" transform="matrix(12,0,0,12,755.9,555.3)" />
<use xlink:href="#f0_8" transform="matrix(12,0,0,12,767.5,555.3)" />
<use xlink:href="#f0_j" transform="matrix(12,0,0,12,86.8,583.9)" />
<use xlink:href="#f0_4" transform="matrix(12,0,0,12,98.4,583.9)" />
<use xlink:href="#f0_k" transform="matrix(12,0,0,12,109.7,583.9)" />
<use xlink:href="#f0_7" transform="matrix(12,0,0,12,120.5,583.9)" />
<use xlink:href="#f0_o" transform="matrix(12,0,0,12,125.6,583.9)" />
<use xlink:href="#f0_4" transform="matrix(12,0,0,12,135.6,583.9)" />
<use xlink:href="#f0_9" transform="matrix(12,0,0,12,146.9,583.9)" />
<use xlink:href="#f0_l" transform="matrix(12,0,0,12,156.5,583.9)" />
<use xlink:href="#f0_13" transform="matrix(12,0,0,12,168.1,583.9)" />
<use xlink:href="#f0_a" transform="matrix(12,0,0,12,182.5,583.9)" />
<use xlink:href="#f0_3" transform="matrix(12,0,0,12,189.7,583.9)" />
<use xlink:href="#f0_4" transform="matrix(12,0,0,12,201.3,583.9)" />
<use xlink:href="#f0_8" transform="matrix(12,0,0,12,212.7,583.9)" />
<use xlink:href="#f0_a" transform="matrix(12,0,0,12,226,583.9)" />
<use xlink:href="#f0_3" transform="matrix(12,0,0,12,233.2,583.9)" />
<use xlink:href="#f0_7" transform="matrix(12,0,0,12,244.8,583.9)" />
<use xlink:href="#f0_h" transform="matrix(12,0,0,12,249.9,583.9)" />
<use xlink:href="#f0_f" transform="matrix(12,0,0,12,261.5,583.9)" />
<use xlink:href="#f0_9" transform="matrix(12,0,0,12,273.1,583.9)" />
<use xlink:href="#f0_t" transform="matrix(12,0,0,12,288.6,583.9)" />
<use xlink:href="#f0_c" transform="matrix(12,0,0,12,299.4,583.9)" />
<use xlink:href="#f0_r" transform="matrix(12,0,0,12,310.6,583.9)" />
<use xlink:href="#f0_11" transform="matrix(12,0,0,12,322.2,583.9)" />
<use xlink:href="#f0_i" transform="matrix(12,0,0,12,328,583.9)" />
<use xlink:href="#f0_i" transform="matrix(12,0,0,12,333,583.9)" />
<use xlink:href="#f0_3" transform="matrix(12,0,0,12,344,583.9)" />
<use xlink:href="#f0_g" transform="matrix(12,0,0,12,355.6,583.9)" />
<use xlink:href="#f0_k" transform="matrix(12,0,0,12,366.9,583.9)" />
<use xlink:href="#f0_4" transform="matrix(12,0,0,12,377.8,583.9)" />
<use xlink:href="#f0_a" transform="matrix(12,0,0,12,394.9,583.9)" />
<use xlink:href="#f0_c" transform="matrix(12,0,0,12,402.1,583.9)" />
<use xlink:href="#f0_8" transform="matrix(12,0,0,12,419,583.9)" />
<use xlink:href="#f0_4" transform="matrix(12,0,0,12,426,583.9)" />
<use xlink:href="#f0_b" transform="matrix(12,0,0,12,437.5,583.9)" />
<use xlink:href="#f0_4" transform="matrix(12,0,0,12,449.1,583.9)" />
<use xlink:href="#f0_g" transform="matrix(12,0,0,12,460.2,583.9)" />
<use xlink:href="#f0_a" transform="matrix(12,0,0,12,471.5,583.9)" />
<use xlink:href="#f0_6" transform="matrix(12,0,0,12,484.6,583.9)" />
<use xlink:href="#f0_c" transform="matrix(12,0,0,12,491.1,583.9)" />
<use xlink:href="#f0_8" transform="matrix(12,0,0,12,502.2,583.9)" />
<use xlink:href="#f0_4" transform="matrix(12,0,0,12,515.6,583.9)" />
<use xlink:href="#f0_k" transform="matrix(12,0,0,12,526.9,583.9)" />
<use xlink:href="#f0_4" transform="matrix(12,0,0,12,537.6,583.9)" />
<use xlink:href="#f0_8" transform="matrix(12,0,0,12,548.9,583.9)" />
<use xlink:href="#f0_t" transform="matrix(12,0,0,12,556.4,583.9)" />
<use xlink:href="#f0_g" transform="matrix(12,0,0,12,573.2,583.9)" />
<use xlink:href="#f0_b" transform="matrix(12,0,0,12,584.5,583.9)" />
<use xlink:href="#f0_b" transform="matrix(12,0,0,12,596.1,583.9)" />
<use xlink:href="#f0_t" transform="matrix(12,0,0,12,613.5,583.9)" />
<use xlink:href="#f0_c" transform="matrix(12,0,0,12,624.3,583.9)" />
<use xlink:href="#f0_r" transform="matrix(12,0,0,12,635.5,583.9)" />
<use xlink:href="#f0_p" transform="matrix(12,0,0,12,653,583.9)" />
<use xlink:href="#f0_g" transform="matrix(12,0,0,12,670.8,583.9)" />
<use xlink:href="#f0_10" transform="matrix(12,0,0,12,682.1,583.9)" />
<use xlink:href="#f0_4" transform="matrix(12,0,0,12,692,583.9)" />
<use xlink:href="#f0_q" transform="matrix(12,0,0,12,703.3,583.9)" />
<use xlink:href="#f0_i" transform="matrix(12,0,0,12,714.9,583.9)" />
<use xlink:href="#f0_7" transform="matrix(12,0,0,12,720.1,583.9)" />
<use xlink:href="#f0_10" transform="matrix(12,0,0,12,725,583.9)" />
<use xlink:href="#f0_4" transform="matrix(12,0,0,12,735.1,583.9)" />
<use xlink:href="#f0_f" transform="matrix(12,0,0,12,86.8,612.6)" />
<use xlink:href="#f0_4" transform="matrix(12,0,0,12,98.4,612.6)" />
<use xlink:href="#f0_h" transform="matrix(12,0,0,12,109.7,612.6)" />
<use xlink:href="#f0_4" transform="matrix(12,0,0,12,121.3,612.6)" />
<use xlink:href="#f0_8" transform="matrix(12,0,0,12,132.6,612.6)" />
<use xlink:href="#f0_g" transform="matrix(12,0,0,12,140.1,612.6)" />
<use xlink:href="#f0_a" transform="matrix(12,0,0,12,151.3,612.6)" />
<use xlink:href="#f0_7" transform="matrix(12,0,0,12,158.5,612.6)" />
<use xlink:href="#f0_h" transform="matrix(12,0,0,12,163.6,612.6)" />
<use xlink:href="#f0_f" transform="matrix(12,0,0,12,175.2,612.6)" />
<use xlink:href="#f0_j" transform="matrix(12,0,0,12,192.7,612.6)" />
<use xlink:href="#f0_4" transform="matrix(12,0,0,12,204.3,612.6)" />
<use xlink:href="#f0_k" transform="matrix(12,0,0,12,215.6,612.6)" />
<use xlink:href="#f0_4" transform="matrix(12,0,0,12,226.5,612.6)" />
<use xlink:href="#f0_i" transform="matrix(12,0,0,12,237.8,612.6)" />
<use xlink:href="#f0_c" transform="matrix(12,0,0,12,242.8,612.6)" />
<use xlink:href="#f0_b" transform="matrix(12,0,0,12,254,612.6)" />
<use xlink:href="#f0_p" transform="matrix(12,0,0,12,265.6,612.6)" />
<use xlink:href="#f0_4" transform="matrix(12,0,0,12,283.4,612.6)" />
<use xlink:href="#f0_h" transform="matrix(12,0,0,12,294.7,612.6)" />
<use xlink:href="#f0_a" transform="matrix(12,0,0,12,306.3,612.6)" />
<use xlink:href="#f0_g" transform="matrix(12,0,0,12,319.4,612.6)" />
<use xlink:href="#f0_h" transform="matrix(12,0,0,12,330.6,612.6)" />
<use xlink:href="#f0_j" transform="matrix(12,0,0,12,342.2,612.6)" />
<use xlink:href="#f0_j" transform="matrix(12,0,0,12,359.7,612.6)" />
<use xlink:href="#f0_7" transform="matrix(12,0,0,12,371.3,612.6)" />
<use xlink:href="#f0_9" transform="matrix(12,0,0,12,376.4,612.6)" />
<use xlink:href="#f0_a" transform="matrix(12,0,0,12,386,612.6)" />
<use xlink:href="#f0_8" transform="matrix(12,0,0,12,393.2,612.6)" />
<use xlink:href="#f0_7" transform="matrix(12,0,0,12,400.7,612.6)" />
<use xlink:href="#f0_n" transform="matrix(12,0,0,12,405.7,612.6)" />
<use xlink:href="#f0_r" transform="matrix(12,0,0,12,417.3,612.6)" />
<use xlink:href="#f0_a" transform="matrix(12,0,0,12,428.9,612.6)" />
<use xlink:href="#f0_7" transform="matrix(12,0,0,12,436.2,612.6)" />
<use xlink:href="#f0_c" transform="matrix(12,0,0,12,441.3,612.6)" />
<use xlink:href="#f0_h" transform="matrix(12,0,0,12,452.4,612.6)" />
<use xlink:href="#f0_b" transform="matrix(12,0,0,12,470,612.6)" />
<use xlink:href="#f0_8" transform="matrix(12,0,0,12,481.6,612.6)" />
<use xlink:href="#f0_c" transform="matrix(12,0,0,12,488.6,612.6)" />
<use xlink:href="#f0_6" transform="matrix(12,0,0,12,499.9,612.6)" />
<use xlink:href="#f0_7" transform="matrix(12,0,0,12,506.3,612.6)" />
<use xlink:href="#f0_i" transform="matrix(12,0,0,12,511.4,612.6)" />
<use xlink:href="#f0_4" transform="matrix(12,0,0,12,516.4,612.6)" />
<use xlink:href="#f0_9" transform="matrix(12,0,0,12,527.7,612.6)" />
<use xlink:href="#f0_l" transform="matrix(12,0,0,12,537.3,612.6)" />
</g>
</g>
<path fill-rule="evenodd" d="M86.6,645.6H388.7V618.9H86.6v26.7Z" class="g0_22" />
<g clip-path="url(#c0_22)">
<g fill="#0000FF" >
<use xlink:href="#f1_2" transform="matrix(15,0,0,15,86.8,640.3)" />
<use xlink:href="#f1_3" transform="matrix(15,0,0,15,105.6,640.3)" />
<use xlink:href="#f1_6" transform="matrix(15,0,0,15,121.1,640.3)" />
<use xlink:href="#f1_3" transform="matrix(15,0,0,15,137.4,640.3)" />
<use xlink:href="#f1_b" transform="matrix(15,0,0,15,153,640.3)" />
<use xlink:href="#f1_a" transform="matrix(15,0,0,15,164.3,640.3)" />
<use xlink:href="#f1_4" transform="matrix(15,0,0,15,179.7,640.3)" />
<use xlink:href="#f1_5" transform="matrix(15,0,0,15,190.7,640.3)" />
<use xlink:href="#f1_6" transform="matrix(15,0,0,15,198.5,640.3)" />
<use xlink:href="#f1_7" transform="matrix(15,0,0,15,214.8,640.3)" />
<use xlink:href="#f1_h" transform="matrix(15,0,0,15,239.1,640.3)" />
<use xlink:href="#f1_3" transform="matrix(15,0,0,15,255.9,640.3)" />
<use xlink:href="#f1_b" transform="matrix(15,0,0,15,271.5,640.3)" />
<use xlink:href="#f1_4" transform="matrix(15,0,0,15,282.8,640.3)" />
<use xlink:href="#f1_5" transform="matrix(15,0,0,15,293.7,640.3)" />
<use xlink:href="#f1_o" transform="matrix(15,0,0,15,301.5,640.3)" />
<use xlink:href="#f1_5" transform="matrix(15,0,0,15,311.5,640.3)" />
<use xlink:href="#f1_e" transform="matrix(15,0,0,15,319.2,640.3)" />
<use xlink:href="#f1_a" transform="matrix(15,0,0,15,333,640.3)" />
<use xlink:href="#f1_4" transform="matrix(15,0,0,15,348.4,640.3)" />
<use xlink:href="#f1_3" transform="matrix(15,0,0,15,359.2,640.3)" />
<use xlink:href="#f1_v" transform="matrix(15,0,0,15,374.8,640.3)" />
</g>
<g fill="#000000" >
<use xlink:href="#f0_16" transform="matrix(12,0,0,12,86.8,669.9)" />
<use xlink:href="#f0_7" transform="matrix(12,0,0,12,95.9,669.9)" />
<use xlink:href="#f0_8" transform="matrix(12,0,0,12,101.1,669.9)" />
<use xlink:href="#f0_9" transform="matrix(12,0,0,12,108.6,669.9)" />
<use xlink:href="#f0_a" transform="matrix(12,0,0,12,118.2,669.9)" />
<use xlink:href="#f0_t" transform="matrix(12,0,0,12,131.2,669.9)" />
<use xlink:href="#f0_c" transform="matrix(12,0,0,12,142,669.9)" />
<use xlink:href="#f0_r" transform="matrix(12,0,0,12,153.2,669.9)" />
<use xlink:href="#f0_11" transform="matrix(12,0,0,12,164.8,669.9)" />
<use xlink:href="#f0_i" transform="matrix(12,0,0,12,170.6,669.9)" />
<use xlink:href="#f0_i" transform="matrix(12,0,0,12,175.8,669.9)" />
<use xlink:href="#f0_h" transform="matrix(12,0,0,12,186.6,669.9)" />
<use xlink:href="#f0_4" transform="matrix(12,0,0,12,198.2,669.9)" />
<use xlink:href="#f0_4" transform="matrix(12,0,0,12,209.5,669.9)" />
<use xlink:href="#f0_j" transform="matrix(12,0,0,12,220.8,669.9)" />
<use xlink:href="#f0_a" transform="matrix(12,0,0,12,238.4,669.9)" />
<use xlink:href="#f0_c" transform="matrix(12,0,0,12,245.5,669.9)" />
<use xlink:href="#f0_f" transform="matrix(12,0,0,12,262.5,669.9)" />
<use xlink:href="#f0_4" transform="matrix(12,0,0,12,274.1,669.9)" />
<use xlink:href="#f0_h" transform="matrix(12,0,0,12,285.4,669.9)" />
<use xlink:href="#f0_4" transform="matrix(12,0,0,12,297,669.9)" />
<use xlink:href="#f0_8" transform="matrix(12,0,0,12,308.3,669.9)" />
<use xlink:href="#f0_g" transform="matrix(12,0,0,12,315.8,669.9)" />
<use xlink:href="#f0_a" transform="matrix(12,0,0,12,327.1,669.9)" />
<use xlink:href="#f0_4" transform="matrix(12,0,0,12,334.3,669.9)" />
<use xlink:href="#f0_a" transform="matrix(12,0,0,12,351.4,669.9)" />
<use xlink:href="#f0_y" transform="matrix(12,0,0,12,358.6,669.9)" />
<use xlink:href="#f0_c" transform="matrix(12,0,0,12,373.5,669.9)" />
<use xlink:href="#f0_o" transform="matrix(12,0,0,12,390.6,669.9)" />
<use xlink:href="#f0_4" transform="matrix(12,0,0,12,400.7,669.9)" />
<use xlink:href="#f0_8" transform="matrix(12,0,0,12,412,669.9)" />
<use xlink:href="#f0_a" transform="matrix(12,0,0,12,419.5,669.9)" />
<use xlink:href="#f0_7" transform="matrix(12,0,0,12,426.7,669.9)" />
<use xlink:href="#f0_6" transform="matrix(12,0,0,12,431.7,669.9)" />
<use xlink:href="#f0_7" transform="matrix(12,0,0,12,438.2,669.9)" />
<use xlink:href="#f0_o" transform="matrix(12,0,0,12,443.3,669.9)" />
<use xlink:href="#f0_g" transform="matrix(12,0,0,12,453.4,669.9)" />
<use xlink:href="#f0_a" transform="matrix(12,0,0,12,464.6,669.9)" />
<use xlink:href="#f0_4" transform="matrix(12,0,0,12,471.7,669.9)" />
<use xlink:href="#f0_9" transform="matrix(12,0,0,12,483,669.9)" />
<use xlink:href="#f0_q" transform="matrix(12,0,0,12,492.6,669.9)" />
<use xlink:href="#f0_c" transform="matrix(12,0,0,12,504.2,669.9)" />
<use xlink:href="#f0_h" transform="matrix(12,0,0,12,515.3,669.9)" />
<use xlink:href="#f0_4" transform="matrix(12,0,0,12,526.9,669.9)" />
<use xlink:href="#f0_6" transform="matrix(12,0,0,12,544.2,669.9)" />
<use xlink:href="#f0_c" transform="matrix(12,0,0,12,550.6,669.9)" />
<use xlink:href="#f0_8" transform="matrix(12,0,0,12,561.8,669.9)" />
<use xlink:href="#f0_t" transform="matrix(12,0,0,12,575.2,669.9)" />
<use xlink:href="#f0_c" transform="matrix(12,0,0,12,586,669.9)" />
<use xlink:href="#f0_r" transform="matrix(12,0,0,12,597.2,669.9)" />
<use xlink:href="#f0_8" transform="matrix(12,0,0,12,608.8,669.9)" />
<use xlink:href="#f0_j" transform="matrix(12,0,0,12,622.2,669.9)" />
<use xlink:href="#f0_4" transform="matrix(12,0,0,12,633.8,669.9)" />
<use xlink:href="#f0_k" transform="matrix(12,0,0,12,645.1,669.9)" />
<use xlink:href="#f0_4" transform="matrix(12,0,0,12,656,669.9)" />
<use xlink:href="#f0_i" transform="matrix(12,0,0,12,667.2,669.9)" />
<use xlink:href="#f0_c" transform="matrix(12,0,0,12,672.3,669.9)" />
<use xlink:href="#f0_b" transform="matrix(12,0,0,12,683.4,669.9)" />
<use xlink:href="#f0_p" transform="matrix(12,0,0,12,695,669.9)" />
<use xlink:href="#f0_4" transform="matrix(12,0,0,12,712.9,669.9)" />
<use xlink:href="#f0_h" transform="matrix(12,0,0,12,724.2,669.9)" />
<use xlink:href="#f0_a" transform="matrix(12,0,0,12,735.8,669.9)" />
<use xlink:href="#f0_b" transform="matrix(12,0,0,12,748.9,669.9)" />
<use xlink:href="#f0_8" transform="matrix(12,0,0,12,760.5,669.9)" />
<use xlink:href="#f0_c" transform="matrix(12,0,0,12,767.7,669.9)" />
<use xlink:href="#f0_6" transform="matrix(12,0,0,12,778.9,669.9)" />
<use xlink:href="#f0_7" transform="matrix(12,0,0,12,785.3,669.9)" />
<use xlink:href="#f0_i" transform="matrix(12,0,0,12,790.3,669.9)" />
<use xlink:href="#f0_4" transform="matrix(12,0,0,12,795.4,669.9)" />
<use xlink:href="#f0_9" transform="matrix(12,0,0,12,806.7,669.9)" />
<use xlink:href="#f0_g" transform="matrix(12,0,0,12,86.8,698.5)" />
<use xlink:href="#f0_h" transform="matrix(12,0,0,12,98.1,698.5)" />
<use xlink:href="#f0_j" transform="matrix(12,0,0,12,109.7,698.5)" />
<use xlink:href="#f0_g" transform="matrix(12,0,0,12,127.1,698.5)" />
<use xlink:href="#f0_h" transform="matrix(12,0,0,12,138.4,698.5)" />
<use xlink:href="#f0_c" transform="matrix(12,0,0,12,150,698.5)" />
<use xlink:href="#f0_a" transform="matrix(12,0,0,12,161.1,698.5)" />
<use xlink:href="#f0_3" transform="matrix(12,0,0,12,168.3,698.5)" />
<use xlink:href="#f0_4" transform="matrix(12,0,0,12,179.9,698.5)" />
<use xlink:href="#f0_8" transform="matrix(12,0,0,12,191.2,698.5)" />
<use xlink:href="#f0_6" transform="matrix(12,0,0,12,204.7,698.5)" />
<use xlink:href="#f0_c" transform="matrix(12,0,0,12,211.1,698.5)" />
<use xlink:href="#f0_8" transform="matrix(12,0,0,12,222.2,698.5)" />
<use xlink:href="#f0_t" transform="matrix(12,0,0,12,235.7,698.5)" />
<use xlink:href="#f0_c" transform="matrix(12,0,0,12,246.5,698.5)" />
<use xlink:href="#f0_r" transform="matrix(12,0,0,12,257.6,698.5)" />
<use xlink:href="#f0_8" transform="matrix(12,0,0,12,269.2,698.5)" />
<use xlink:href="#f0_j" transform="matrix(12,0,0,12,282.7,698.5)" />
<use xlink:href="#f0_7" transform="matrix(12,0,0,12,294.3,698.5)" />
<use xlink:href="#f0_9" transform="matrix(12,0,0,12,299.3,698.5)" />
<use xlink:href="#f0_a" transform="matrix(12,0,0,12,308.9,698.5)" />
<use xlink:href="#f0_8" transform="matrix(12,0,0,12,316.1,698.5)" />
<use xlink:href="#f0_7" transform="matrix(12,0,0,12,323.6,698.5)" />
<use xlink:href="#f0_n" transform="matrix(12,0,0,12,328.6,698.5)" />
<use xlink:href="#f0_r" transform="matrix(12,0,0,12,340.3,698.5)" />
<use xlink:href="#f0_a" transform="matrix(12,0,0,12,351.9,698.5)" />
<use xlink:href="#f0_7" transform="matrix(12,0,0,12,359.2,698.5)" />
<use xlink:href="#f0_c" transform="matrix(12,0,0,12,364.2,698.5)" />
<use xlink:href="#f0_h" transform="matrix(12,0,0,12,375.4,698.5)" />
<use xlink:href="#f0_b" transform="matrix(12,0,0,12,392.9,698.5)" />
<use xlink:href="#f0_8" transform="matrix(12,0,0,12,404.5,698.5)" />
<use xlink:href="#f0_c" transform="matrix(12,0,0,12,411.7,698.5)" />
<use xlink:href="#f0_6" transform="matrix(12,0,0,12,422.9,698.5)" />
<use xlink:href="#f0_7" transform="matrix(12,0,0,12,429.3,698.5)" />
<use xlink:href="#f0_i" transform="matrix(12,0,0,12,434.5,698.5)" />
<use xlink:href="#f0_4" transform="matrix(12,0,0,12,439.5,698.5)" />
<use xlink:href="#f0_9" transform="matrix(12,0,0,12,450.6,698.5)" />
<use xlink:href="#f0_l" transform="matrix(12,0,0,12,460.2,698.5)" />
<use xlink:href="#f0_d" transform="matrix(12,0,0,12,472,698.5)" />
<use xlink:href="#f0_9" transform="matrix(12,0,0,12,484.4,698.5)" />
<use xlink:href="#f0_a" transform="matrix(12,0,0,12,499.9,698.5)" />
<use xlink:href="#f0_3" transform="matrix(12,0,0,12,507.1,698.5)" />
<use xlink:href="#f0_4" transform="matrix(12,0,0,12,518.7,698.5)" />
<use xlink:href="#f0_a" transform="matrix(12,0,0,12,535.8,698.5)" />
<use xlink:href="#f0_4" transform="matrix(12,0,0,12,543,698.5)" />
<use xlink:href="#f0_14" transform="matrix(12,0,0,12,554,698.5)" />
<use xlink:href="#f0_a" transform="matrix(12,0,0,12,564.8,698.5)" />
<use xlink:href="#f0_c" transform="matrix(12,0,0,12,577.8,698.5)" />
<use xlink:href="#f0_h" transform="matrix(12,0,0,12,589,698.5)" />
<use xlink:href="#f0_a" transform="matrix(12,0,0,12,606.4,698.5)" />
<use xlink:href="#f0_3" transform="matrix(12,0,0,12,613.6,698.5)" />
<use xlink:href="#f0_4" transform="matrix(12,0,0,12,625.2,698.5)" />
<use xlink:href="#f0_b" transform="matrix(12,0,0,12,642.4,698.5)" />
<use xlink:href="#f0_g" transform="matrix(12,0,0,12,653.9,698.5)" />
<use xlink:href="#f0_f" transform="matrix(12,0,0,12,665.2,698.5)" />
<use xlink:href="#f0_4" transform="matrix(12,0,0,12,676.8,698.5)" />
<use xlink:href="#f0_4" transform="matrix(12,0,0,12,693.9,698.5)" />
<use xlink:href="#f0_14" transform="matrix(12,0,0,12,704.9,698.5)" />
<use xlink:href="#f0_b" transform="matrix(12,0,0,12,715.7,698.5)" />
<use xlink:href="#f0_i" transform="matrix(12,0,0,12,727.3,698.5)" />
<use xlink:href="#f0_g" transform="matrix(12,0,0,12,732.4,698.5)" />
<use xlink:href="#f0_7" transform="matrix(12,0,0,12,743.7,698.5)" />
<use xlink:href="#f0_h" transform="matrix(12,0,0,12,748.7,698.5)" />
<use xlink:href="#f0_9" transform="matrix(12,0,0,12,760.3,698.5)" />
<use xlink:href="#f0_q" transform="matrix(12,0,0,12,769.9,698.5)" />
<use xlink:href="#f0_t" transform="matrix(12,0,0,12,781.5,698.5)" />
<use xlink:href="#f0_c" transform="matrix(12,0,0,12,792.4,698.5)" />
<use xlink:href="#f0_r" transform="matrix(12,0,0,12,803.5,698.5)" />
<use xlink:href="#f0_o" transform="matrix(12,0,0,12,86.8,727.2)" />
<use xlink:href="#f0_g" transform="matrix(12,0,0,12,96.8,727.2)" />
<use xlink:href="#f0_h" transform="matrix(12,0,0,12,108.1,727.2)" />
<use xlink:href="#f0_8" transform="matrix(12,0,0,12,125.6,727.2)" />
<use xlink:href="#f0_4" transform="matrix(12,0,0,12,132.6,727.2)" />
<use xlink:href="#f0_17" transform="matrix(12,0,0,12,143.9,727.2)" />
<use xlink:href="#f0_r" transform="matrix(12,0,0,12,155.5,727.2)" />
<use xlink:href="#f0_4" transform="matrix(12,0,0,12,167.1,727.2)" />
<use xlink:href="#f0_9" transform="matrix(12,0,0,12,178.4,727.2)" />
<use xlink:href="#f0_a" transform="matrix(12,0,0,12,188,727.2)" />
<use xlink:href="#f0_g" transform="matrix(12,0,0,12,201,727.2)" />
<use xlink:href="#f0_o" transform="matrix(12,0,0,12,218.1,727.2)" />
<use xlink:href="#f0_4" transform="matrix(12,0,0,12,228.1,727.2)" />
<use xlink:href="#f0_8" transform="matrix(12,0,0,12,239.4,727.2)" />
<use xlink:href="#f0_a" transform="matrix(12,0,0,12,246.9,727.2)" />
<use xlink:href="#f0_7" transform="matrix(12,0,0,12,254.1,727.2)" />
<use xlink:href="#f0_6" transform="matrix(12,0,0,12,259.1,727.2)" />
<use xlink:href="#f0_7" transform="matrix(12,0,0,12,265.7,727.2)" />
<use xlink:href="#f0_o" transform="matrix(12,0,0,12,270.7,727.2)" />
<use xlink:href="#f0_g" transform="matrix(12,0,0,12,280.8,727.2)" />
<use xlink:href="#f0_a" transform="matrix(12,0,0,12,292.1,727.2)" />
<use xlink:href="#f0_4" transform="matrix(12,0,0,12,299.3,727.2)" />
<use xlink:href="#f0_k" transform="matrix(12,0,0,12,316.4,727.2)" />
<use xlink:href="#f0_7" transform="matrix(12,0,0,12,327.2,727.2)" />
<use xlink:href="#f0_g" transform="matrix(12,0,0,12,332.3,727.2)" />
<use xlink:href="#f0_1o" transform="matrix(12,0,0,12,349.4,727.2)" />
<use xlink:href="#f0_o" transform="matrix(12,0,0,12,361.9,727.2)" />
<use xlink:href="#f0_c" transform="matrix(12,0,0,12,372,727.2)" />
<use xlink:href="#f0_j" transform="matrix(12,0,0,12,383.1,727.2)" />
<use xlink:href="#f0_4" transform="matrix(12,0,0,12,394.7,727.2)" />
<use xlink:href="#f0_q" transform="matrix(12,0,0,12,406,727.2)" />
<use xlink:href="#f0_c" transform="matrix(12,0,0,12,417.7,727.2)" />
<use xlink:href="#f0_8" transform="matrix(12,0,0,12,428.9,727.2)" />
<use xlink:href="#f0_p" transform="matrix(12,0,0,12,442.3,727.2)" />
<use xlink:href="#f0_g" transform="matrix(12,0,0,12,460,727.2)" />
<use xlink:href="#f0_h" transform="matrix(12,0,0,12,471.3,727.2)" />
<use xlink:href="#f0_r" transform="matrix(12,0,0,12,482.9,727.2)" />
<use xlink:href="#f0_g" transform="matrix(12,0,0,12,494.5,727.2)" />
<use xlink:href="#f0_i" transform="matrix(12,0,0,12,505.8,727.2)" />
<use xlink:href="#f0_i" transform="matrix(12,0,0,12,510.9,727.2)" />
<use xlink:href="#f0_t" transform="matrix(12,0,0,12,515.9,727.2)" />
<use xlink:href="#f0_l" transform="matrix(12,0,0,12,524.2,727.2)" />
<use xlink:href="#f0_1c" transform="matrix(12,0,0,12,535.9,727.2)" />
<use xlink:href="#f0_r" transform="matrix(12,0,0,12,548.4,727.2)" />
<use xlink:href="#f0_a" transform="matrix(12,0,0,12,560.1,727.2)" />
<use xlink:href="#f0_7" transform="matrix(12,0,0,12,573.1,727.2)" />
<use xlink:href="#f0_a" transform="matrix(12,0,0,12,578.1,727.2)" />
<use xlink:href="#f0_11" transform="matrix(12,0,0,12,585.3,727.2)" />
<use xlink:href="#f0_9" transform="matrix(12,0,0,12,591.1,727.2)" />
<use xlink:href="#f0_8" transform="matrix(12,0,0,12,606.6,727.2)" />
<use xlink:href="#f0_4" transform="matrix(12,0,0,12,613.7,727.2)" />
<use xlink:href="#f0_g" transform="matrix(12,0,0,12,625,727.2)" />
<use xlink:href="#f0_i" transform="matrix(12,0,0,12,636.2,727.2)" />
<use xlink:href="#f0_i" transform="matrix(12,0,0,12,641.3,727.2)" />
<use xlink:href="#f0_t" transform="matrix(12,0,0,12,646.3,727.2)" />
<use xlink:href="#f0_r" transform="matrix(12,0,0,12,663,727.2)" />
<use xlink:href="#f0_9" transform="matrix(12,0,0,12,674.6,727.2)" />
<use xlink:href="#f0_4" transform="matrix(12,0,0,12,684.2,727.2)" />
<use xlink:href="#f0_6" transform="matrix(12,0,0,12,695.5,727.2)" />
<use xlink:href="#f0_r" transform="matrix(12,0,0,12,701.9,727.2)" />
<use xlink:href="#f0_i" transform="matrix(12,0,0,12,713.5,727.2)" />
<use xlink:href="#f0_6" transform="matrix(12,0,0,12,724.5,727.2)" />
<use xlink:href="#f0_c" transform="matrix(12,0,0,12,730.9,727.2)" />
<use xlink:href="#f0_8" transform="matrix(12,0,0,12,742,727.2)" />
<use xlink:href="#f0_t" transform="matrix(12,0,0,12,755.5,727.2)" />
<use xlink:href="#f0_c" transform="matrix(12,0,0,12,766.3,727.2)" />
<use xlink:href="#f0_r" transform="matrix(12,0,0,12,777.5,727.2)" />
<use xlink:href="#f0_a" transform="matrix(12,0,0,12,794.9,727.2)" />
<use xlink:href="#f0_c" transform="matrix(12,0,0,12,802.1,727.2)" />
<use xlink:href="#f0_r" transform="matrix(12,0,0,12,86.8,755.8)" />
<use xlink:href="#f0_h" transform="matrix(12,0,0,12,98.4,755.8)" />
<use xlink:href="#f0_j" transform="matrix(12,0,0,12,110,755.8)" />
<use xlink:href="#f0_4" transform="matrix(12,0,0,12,121.6,755.8)" />
<use xlink:href="#f0_8" transform="matrix(12,0,0,12,132.9,755.8)" />
<use xlink:href="#f0_9" transform="matrix(12,0,0,12,140.4,755.8)" />
<use xlink:href="#f0_a" transform="matrix(12,0,0,12,150,755.8)" />
<use xlink:href="#f0_g" transform="matrix(12,0,0,12,157.2,755.8)" />
<use xlink:href="#f0_h" transform="matrix(12,0,0,12,168.5,755.8)" />
<use xlink:href="#f0_j" transform="matrix(12,0,0,12,180.1,755.8)" />
<use xlink:href="#f0_a" transform="matrix(12,0,0,12,197.5,755.8)" />
<use xlink:href="#f0_3" transform="matrix(12,0,0,12,204.7,755.8)" />
<use xlink:href="#f0_4" transform="matrix(12,0,0,12,216.3,755.8)" />
<use xlink:href="#f0_p" transform="matrix(12,0,0,12,233.4,755.8)" />
<use xlink:href="#f0_g" transform="matrix(12,0,0,12,251.2,755.8)" />
<use xlink:href="#f0_h" transform="matrix(12,0,0,12,262.5,755.8)" />
<use xlink:href="#f0_r" transform="matrix(12,0,0,12,274.1,755.8)" />
<use xlink:href="#f0_g" transform="matrix(12,0,0,12,285.7,755.8)" />
<use xlink:href="#f0_i" transform="matrix(12,0,0,12,297,755.8)" />
<use xlink:href="#f0_b" transform="matrix(12,0,0,12,307.9,755.8)" />
<use xlink:href="#f0_8" transform="matrix(12,0,0,12,319.5,755.8)" />
<use xlink:href="#f0_c" transform="matrix(12,0,0,12,326.7,755.8)" />
<use xlink:href="#f0_o" transform="matrix(12,0,0,12,337.8,755.8)" />
<use xlink:href="#f0_4" transform="matrix(12,0,0,12,347.9,755.8)" />
<use xlink:href="#f0_9" transform="matrix(12,0,0,12,359.2,755.8)" />
<use xlink:href="#f0_9" transform="matrix(12,0,0,12,368.7,755.8)" />
<use xlink:href="#f0_9" transform="matrix(12,0,0,12,384.1,755.8)" />
<use xlink:href="#f0_c" transform="matrix(12,0,0,12,393.7,755.8)" />
<use xlink:href="#f0_t" transform="matrix(12,0,0,12,410.6,755.8)" />
<use xlink:href="#f0_c" transform="matrix(12,0,0,12,421.5,755.8)" />
<use xlink:href="#f0_r" transform="matrix(12,0,0,12,432.6,755.8)" />
<use xlink:href="#f0_11" transform="matrix(12,0,0,12,444.4,755.8)" />
<use xlink:href="#f0_i" transform="matrix(12,0,0,12,450.2,755.8)" />
<use xlink:href="#f0_i" transform="matrix(12,0,0,12,455.2,755.8)" />
<use xlink:href="#f0_n" transform="matrix(12,0,0,12,466.2,755.8)" />
<use xlink:href="#f0_4" transform="matrix(12,0,0,12,477.8,755.8)" />
<use xlink:href="#f0_r" transform="matrix(12,0,0,12,494.9,755.8)" />
<use xlink:href="#f0_b" transform="matrix(12,0,0,12,506.5,755.8)" />
<use xlink:href="#f0_i" transform="matrix(12,0,0,12,518.1,755.8)" />
<use xlink:href="#f0_c" transform="matrix(12,0,0,12,523.3,755.8)" />
<use xlink:href="#f0_g" transform="matrix(12,0,0,12,534.4,755.8)" />
<use xlink:href="#f0_j" transform="matrix(12,0,0,12,545.7,755.8)" />
<use xlink:href="#f0_7" transform="matrix(12,0,0,12,557.3,755.8)" />
<use xlink:href="#f0_h" transform="matrix(12,0,0,12,562.4,755.8)" />
<use xlink:href="#f0_f" transform="matrix(12,0,0,12,574,755.8)" />
<use xlink:href="#f0_g" transform="matrix(12,0,0,12,591.4,755.8)" />
</g>
<g fill="#0000FF" >
<use xlink:href="#f1_h" transform="matrix(12,0,0,12,608.8,755.8)" />
<use xlink:href="#f1_3" transform="matrix(12,0,0,12,622.3,755.8)" />
<use xlink:href="#f1_b" transform="matrix(12,0,0,12,634.6,755.8)" />
<use xlink:href="#f1_4" transform="matrix(12,0,0,12,643.8,755.8)" />
<use xlink:href="#f1_5" transform="matrix(12,0,0,12,652.5,755.8)" />
<use xlink:href="#f1_o" transform="matrix(12,0,0,12,658.8,755.8)" />
<use xlink:href="#f1_5" transform="matrix(12,0,0,12,666.7,755.8)" />
<use xlink:href="#f1_e" transform="matrix(12,0,0,12,673,755.8)" />
<use xlink:href="#f1_a" transform="matrix(12,0,0,12,683.8,755.8)" />
<use xlink:href="#f1_4" transform="matrix(12,0,0,12,696.3,755.8)" />
<use xlink:href="#f1_3" transform="matrix(12,0,0,12,705,755.8)" />
<use xlink:href="#f1_9" transform="matrix(12,0,0,12,723.8,755.8)" />
<use xlink:href="#f1_5" transform="matrix(12,0,0,12,737.1,755.8)" />
<use xlink:href="#f1_7" transform="matrix(12,0,0,12,743.3,755.8)" />
<use xlink:href="#f1_6" transform="matrix(12,0,0,12,756.5,755.8)" />
<use xlink:href="#f1_5" transform="matrix(12,0,0,12,769.5,755.8)" />
<use xlink:href="#f1_6" transform="matrix(12,0,0,12,775.7,755.8)" />
<use xlink:href="#f1_7" transform="matrix(12,0,0,12,788.7,755.8)" />
<use xlink:href="#f1_10" transform="matrix(12,0,0,12,86.8,784.5)" />
<use xlink:href="#f1_3" transform="matrix(12,0,0,12,101,784.5)" />
<use xlink:href="#f1_18" transform="matrix(12,0,0,12,113.3,784.5)" />
<use xlink:href="#f1_g" transform="matrix(12,0,0,12,126.5,784.5)" />
<use xlink:href="#f1_3" transform="matrix(12,0,0,12,139.4,784.5)" />
<use xlink:href="#f1_v" transform="matrix(12,0,0,12,152,784.5)" />
<use xlink:href="#f1_4" transform="matrix(12,0,0,12,162.8,784.5)" />
</g>
<g fill="#000000" >
<use xlink:href="#f0_1d" transform="matrix(12,0,0,12,178,784.5)" />
<use xlink:href="#f0_c" transform="matrix(12,0,0,12,185.2,784.5)" />
<use xlink:href="#f0_8" transform="matrix(12,0,0,12,196.3,784.5)" />
<use xlink:href="#f0_18" transform="matrix(12,0,0,12,209.7,784.5)" />
<use xlink:href="#f0_e" transform="matrix(12,0,0,12,222.6,784.5)" />
<use xlink:href="#f0_1m" transform="matrix(12,0,0,12,234.2,784.5)" />
<use xlink:href="#f0_1e" transform="matrix(12,0,0,12,246.8,784.5)" />
<use xlink:href="#f0_6" transform="matrix(12,0,0,12,259.8,784.5)" />
<use xlink:href="#f0_8" transform="matrix(12,0,0,12,266.4,784.5)" />
<use xlink:href="#f0_c" transform="matrix(12,0,0,12,273.4,784.5)" />
<use xlink:href="#f0_p" transform="matrix(12,0,0,12,284.5,784.5)" />
<use xlink:href="#f0_t" transform="matrix(12,0,0,12,308.4,784.5)" />
<use xlink:href="#f0_c" transform="matrix(12,0,0,12,319.2,784.5)" />
<use xlink:href="#f0_r" transform="matrix(12,0,0,12,330.3,784.5)" />
<use xlink:href="#f0_8" transform="matrix(12,0,0,12,341.9,784.5)" />
<use xlink:href="#f0_1f" transform="matrix(12,0,0,12,355.4,784.5)" />
<use xlink:href="#f0_g" transform="matrix(12,0,0,12,371.1,784.5)" />
<use xlink:href="#f0_o" transform="matrix(12,0,0,12,382.4,784.5)" />
<use xlink:href="#f0_l" transform="matrix(12,0,0,12,392.5,784.5)" />
<use xlink:href="#f0_1f" transform="matrix(12,0,0,12,86.8,813.1)" />
<use xlink:href="#f0_g" transform="matrix(12,0,0,12,102.7,813.1)" />
<use xlink:href="#f0_10" transform="matrix(12,0,0,12,113.8,813.1)" />
<use xlink:href="#f0_4" transform="matrix(12,0,0,12,123.9,813.1)" />
<use xlink:href="#f0_9" transform="matrix(12,0,0,12,141,813.1)" />
<use xlink:href="#f0_r" transform="matrix(12,0,0,12,150.4,813.1)" />
<use xlink:href="#f0_8" transform="matrix(12,0,0,12,162.1,813.1)" />
<use xlink:href="#f0_4" transform="matrix(12,0,0,12,169.1,813.1)" />
<use xlink:href="#f0_a" transform="matrix(12,0,0,12,186.3,813.1)" />
<use xlink:href="#f0_3" transform="matrix(12,0,0,12,193.5,813.1)" />
<use xlink:href="#f0_4" transform="matrix(12,0,0,12,205.1,813.1)" />
<use xlink:href="#f0_j" transform="matrix(12,0,0,12,222.2,813.1)" />
<use xlink:href="#f0_8" transform="matrix(12,0,0,12,233.8,813.1)" />
<use xlink:href="#f0_c" transform="matrix(12,0,0,12,241,813.1)" />
<use xlink:href="#f0_b" transform="matrix(12,0,0,12,252.2,813.1)" />
<use xlink:href="#f0_j" transform="matrix(12,0,0,12,269.7,813.1)" />
<use xlink:href="#f0_c" transform="matrix(12,0,0,12,281.3,813.1)" />
<use xlink:href="#f0_y" transform="matrix(12,0,0,12,292.5,813.1)" />
<use xlink:href="#f0_h" transform="matrix(12,0,0,12,307.4,813.1)" />
<use xlink:href="#f0_7" transform="matrix(12,0,0,12,325,813.1)" />
<use xlink:href="#f0_h" transform="matrix(12,0,0,12,330,813.1)" />
<use xlink:href="#f0_a" transform="matrix(12,0,0,12,347.4,813.1)" />
<use xlink:href="#f0_3" transform="matrix(12,0,0,12,354.6,813.1)" />
<use xlink:href="#f0_4" transform="matrix(12,0,0,12,366.2,813.1)" />
<use xlink:href="#f0_r" transform="matrix(12,0,0,12,383.3,813.1)" />
<use xlink:href="#f0_b" transform="matrix(12,0,0,12,394.9,813.1)" />
<use xlink:href="#f0_b" transform="matrix(12,0,0,12,406.5,813.1)" />
<use xlink:href="#f0_4" transform="matrix(12,0,0,12,418.2,813.1)" />
<use xlink:href="#f0_8" transform="matrix(12,0,0,12,429.4,813.1)" />
<use xlink:href="#f0_i" transform="matrix(12,0,0,12,442.9,813.1)" />
<use xlink:href="#f0_4" transform="matrix(12,0,0,12,447.9,813.1)" />
<use xlink:href="#f0_6" transform="matrix(12,0,0,12,459.2,813.1)" />
<use xlink:href="#f0_a" transform="matrix(12,0,0,12,465.3,813.1)" />
<use xlink:href="#f0_9" transform="matrix(12,0,0,12,478.5,813.1)" />
<use xlink:href="#f0_g" transform="matrix(12,0,0,12,487.9,813.1)" />
<use xlink:href="#f0_t" transform="matrix(12,0,0,12,499.2,813.1)" />
<use xlink:href="#f0_9" transform="matrix(12,0,0,12,509.9,813.1)" />
</g>
<g fill="#0000FF" >
<use xlink:href="#f1_5" transform="matrix(12,0,0,12,525.6,813.1)" />
<use xlink:href="#f1_19" transform="matrix(12,0,0,12,531.8,813.1)" />
<use xlink:href="#f1_9" transform="matrix(12,0,0,12,547.4,813.1)" />
<use xlink:href="#f1_16" transform="matrix(12,0,0,12,560.6,813.1)" />
<use xlink:href="#f1_4" transform="matrix(12,0,0,12,574,813.1)" />
<use xlink:href="#f1_t" transform="matrix(12,0,0,12,582.7,813.1)" />
<use xlink:href="#f1_19" transform="matrix(12,0,0,12,594.6,813.1)" />
<use xlink:href="#f1_9" transform="matrix(12,0,0,12,610.3,813.1)" />
<use xlink:href="#f1_16" transform="matrix(12,0,0,12,623.4,813.1)" />
<use xlink:href="#f1_11" transform="matrix(12,0,0,12,636.8,813.1)" />
<use xlink:href="#f1_a" transform="matrix(12,0,0,12,653.7,813.1)" />
<use xlink:href="#f1_4" transform="matrix(12,0,0,12,666,813.1)" />
<use xlink:href="#f1_e" transform="matrix(12,0,0,12,674.7,813.1)" />
<use xlink:href="#f1_m" transform="matrix(12,0,0,12,685.7,813.1)" />
<use xlink:href="#f1_19" transform="matrix(12,0,0,12,698.7,813.1)" />
<use xlink:href="#f1_9" transform="matrix(12,0,0,12,714.3,813.1)" />
</g>
<g fill="#000000" >
<use xlink:href="#f0_q" transform="matrix(12,0,0,12,727.7,813.1)" />
<use xlink:href="#f0_a" transform="matrix(12,0,0,12,739.3,813.1)" />
<use xlink:href="#f0_3" transform="matrix(12,0,0,12,746.5,813.1)" />
<use xlink:href="#f0_4" transform="matrix(12,0,0,12,758.1,813.1)" />
<use xlink:href="#f0_h" transform="matrix(12,0,0,12,769.4,813.1)" />
<use xlink:href="#f0_o" transform="matrix(12,0,0,12,86.8,841.8)" />
<use xlink:href="#f0_i" transform="matrix(12,0,0,12,96.8,841.8)" />
<use xlink:href="#f0_7" transform="matrix(12,0,0,12,101.9,841.8)" />
<use xlink:href="#f0_o" transform="matrix(12,0,0,12,106.9,841.8)" />
<use xlink:href="#f0_10" transform="matrix(12,0,0,12,117,841.8)" />
<use xlink:href="#f0_c" transform="matrix(12,0,0,12,133.6,841.8)" />
<use xlink:href="#f0_h" transform="matrix(12,0,0,12,144.7,841.8)" />
<use xlink:href="#f0_a" transform="matrix(12,0,0,12,162.2,841.8)" />
<use xlink:href="#f0_3" transform="matrix(12,0,0,12,169.4,841.8)" />
<use xlink:href="#f0_4" transform="matrix(12,0,0,12,181,841.8)" />
</g>
<g fill="#0000FF" >
<use xlink:href="#f1_1a" transform="matrix(12,0,0,12,198.2,841.8)" />
</g>
<g fill="#000000" >
<use xlink:href="#f0_7" transform="matrix(12,0,0,12,220,841.8)" />
<use xlink:href="#f0_h" transform="matrix(12,0,0,12,225,841.8)" />
<use xlink:href="#f0_a" transform="matrix(12,0,0,12,242.5,841.8)" />
<use xlink:href="#f0_3" transform="matrix(12,0,0,12,249.6,841.8)" />
<use xlink:href="#f0_4" transform="matrix(12,0,0,12,261.2,841.8)" />
<use xlink:href="#f0_r" transform="matrix(12,0,0,12,278.5,841.8)" />
<use xlink:href="#f0_b" transform="matrix(12,0,0,12,290.1,841.8)" />
<use xlink:href="#f0_b" transform="matrix(12,0,0,12,301.7,841.8)" />
<use xlink:href="#f0_4" transform="matrix(12,0,0,12,313.3,841.8)" />
<use xlink:href="#f0_8" transform="matrix(12,0,0,12,324.6,841.8)" />
<use xlink:href="#f0_8" transform="matrix(12,0,0,12,337.9,841.8)" />
<use xlink:href="#f0_7" transform="matrix(12,0,0,12,345.4,841.8)" />
<use xlink:href="#f0_f" transform="matrix(12,0,0,12,350.5,841.8)" />
<use xlink:href="#f0_3" transform="matrix(12,0,0,12,362.1,841.8)" />
<use xlink:href="#f0_a" transform="matrix(12,0,0,12,373.7,841.8)" />
<use xlink:href="#f0_12" transform="matrix(12,0,0,12,380.9,841.8)" />
</g>
</g>
<image preserveAspectRatio="none" x="87" y="87" width="736" height="366" xlink:href="img/1.png" />
<defs>
<path d="M391,0V987H-3v127H938V987H543V0Z" 
id="f0_2"
transform="scale(0.001,-0.001)" />

<path d="M139,0V1161H277V706c0,0,49,75,116,112c0,0,67,38,154,38c0,0,144,0,218,-90c0,0,74,-89,74,-262V0H702V500c0,0,0,119,-46,177c0,0,-47,59,-139,59c0,0,-112,0,-176,-71c0,0,-64,-70,-64,-193V0Z" 
id="f0_3"
transform="scale(0.001,-0.001)" />

<path d="M231,492l491,1c0,0,-2,112,-64,179c0,0,-61,67,-163,67c0,0,-115,0,-184,-65c0,0,-69,-64,-80,-182ZM517,-20c0,0,-199,0,-316,115C201,95,84,211,84,410c0,0,0,205,111,325c0,0,111,121,299,121c0,0,168,0,266,-109c0,0,98,-108,98,-295V385H227c0,0,9,-142,85,-216c0,0,77,-74,213,-74c0,0,80,0,154,19c0,0,74,19,147,58V42C826,42,752,11,675,-4c0,0,-78,-16,-158,-16Z" 
id="f0_4"
transform="scale(0.001,-0.001)" />

<path d="M139,0V836H277V706c0,0,43,76,112,113c0,0,70,37,169,37c0,0,14,0,31,-2c0,0,17,-2,38,-6l1,-141c0,0,-23,14,-51,20c0,0,-27,6,-60,6c0,0,-116,0,-178,-75c0,0,-62,-76,-62,-218V0Z" 
id="f0_8"
transform="scale(0.001,-0.001)" />

<path d="M408,93c0,0,115,0,184,81c0,0,69,81,69,215v30H524c0,0,-167,0,-231,-38c0,0,-64,-38,-64,-129c0,0,0,-73,48,-116c0,0,48,-43,131,-43ZM372,-20c0,0,-128,0,-204,70c0,0,-76,72,-76,193c0,0,0,141,94,212c0,0,95,72,282,72H661v13c0,0,0,95,-62,147c0,0,-63,52,-175,52c0,0,-72,0,-140,-17c0,0,-68,-17,-130,-51V798c0,0,75,29,146,43c0,0,71,15,138,15c0,0,181,0,270,-95c0,0,90,-94,90,-285V0H661V127C661,127,614,51,544,15c0,0,-70,-35,-172,-35Z" 
id="f0_g"
transform="scale(0.001,-0.001)" />

<path d="M144,0V1161H281V0Z" 
id="f0_i"
transform="scale(0.001,-0.001)" />

<path d="M467,95c0,0,110,0,174,86c0,0,64,87,64,236c0,0,0,148,-64,235c0,0,-64,87,-174,87c0,0,-110,0,-174,-86c0,0,-64,-86,-64,-236c0,0,0,-150,64,-236c0,0,63,-86,174,-86Zm0,-115c0,0,-179,0,-281,115C186,95,84,212,84,417c0,0,0,206,102,322c0,0,102,117,281,117c0,0,179,0,282,-117c0,0,102,-116,102,-322c0,0,0,-205,-102,-322C749,95,646,-20,467,-20Z" 
id="f0_c"
transform="scale(0.001,-0.001)" />

<path d="M421,0C421,0,263,0,202,59c0,0,-60,60,-60,217V729H41V836H142v238H280V836H562V729H280V276c0,0,0,-102,28,-132c0,0,28,-29,113,-29H562V0Z" 
id="f0_a"
transform="scale(0.001,-0.001)" />

<path d="M166,0V729H35V836H166v58c0,0,0,139,65,203c0,0,65,64,206,64H567V1046H435c0,0,-74,0,-102,-29c0,0,-29,-30,-29,-107V836H530V729H304V0Z" 
id="f0_6"
transform="scale(0.001,-0.001)" />

<path d="M144,0V836H281V0Zm0,987v174H281V987Z" 
id="f0_7"
transform="scale(0.001,-0.001)" />

<path d="M139,0V836H277V706c0,0,49,75,116,112c0,0,67,38,154,38c0,0,144,0,218,-90c0,0,74,-89,74,-262V0H702V500c0,0,0,119,-46,177c0,0,-47,59,-139,59c0,0,-112,0,-176,-71c0,0,-64,-70,-64,-193V0Z" 
id="f0_h"
transform="scale(0.001,-0.001)" />

<path d="M460,115c0,0,111,0,173,82c0,0,61,82,61,230c0,0,0,149,-61,231c0,0,-62,82,-173,82c0,0,-111,0,-173,-82c0,0,-61,-82,-61,-231c0,0,0,-148,61,-230c0,0,62,-82,173,-82ZM446,-317c0,0,-72,0,-137,11c0,0,-64,11,-124,33v134c0,0,60,-33,119,-49c0,0,59,-15,121,-15c0,0,135,0,202,70c0,0,67,71,67,212v68C694,147,652,73,585,36C585,36,519,0,426,0C426,0,272,0,178,117c0,0,-94,117,-94,310c0,0,0,194,94,311c0,0,94,118,248,118c0,0,93,0,159,-37c0,0,67,-36,109,-110V836H831V104c0,0,0,-212,-95,-317c0,0,-94,-104,-290,-104Z" 
id="f0_f"
transform="scale(0.001,-0.001)" />

<path d="M376,-20c0,0,-67,0,-140,12C236,-8,164,4,83,30V172c0,0,76,-40,150,-59c0,0,74,-20,146,-20c0,0,97,0,150,33c0,0,52,33,52,94c0,0,0,56,-38,85c0,0,-38,30,-165,58l-48,11c0,0,-128,27,-184,83c0,0,-57,55,-57,152c0,0,0,118,83,182c0,0,84,65,238,65c0,0,76,0,143,-12c0,0,67,-11,124,-33V681c0,0,-58,29,-121,44c0,0,-63,15,-130,15c0,0,-102,0,-153,-31c0,0,-51,-31,-51,-94c0,0,0,-48,37,-75c0,0,36,-27,147,-52l46,-10c0,0,147,-32,208,-89c0,0,62,-57,62,-159c0,0,0,-116,-93,-184c0,0,-92,-66,-253,-66Z" 
id="f0_9"
transform="scale(0.001,-0.001)" />

<path d="M121,-317v116h81c0,0,57,0,88,26c0,0,31,27,69,127l25,62L46,836H191L453,182L714,836H859L492,-76c0,0,-58,-150,-113,-195c0,0,-55,-46,-148,-46Z" 
id="f0_t"
transform="scale(0.001,-0.001)" />

<path d="M424,-20c0,0,-145,0,-219,88c0,0,-75,89,-75,262V836H267V335c0,0,0,-119,46,-178c0,0,47,-59,139,-59c0,0,112,0,177,71c0,0,64,71,64,193V836H830V0H693V128C693,128,643,52,577,15c0,0,-66,-35,-153,-35Z" 
id="f0_r"
transform="scale(0.001,-0.001)" />

<path d="M132,763l62,237v114H351V1000L228,763Z" 
id="f0_11"
transform="scale(0.001,-0.001)" />

<path d="M460,93c0,0,109,0,171,86c0,0,63,86,63,238c0,0,0,151,-63,237c0,0,-62,86,-171,86c0,0,-109,0,-172,-86c0,0,-62,-86,-62,-237c0,0,0,-152,62,-238c0,0,63,-86,172,-86ZM426,-20c0,0,-151,0,-247,119c0,0,-95,121,-95,318c0,0,0,197,95,318c0,0,96,121,247,121c0,0,93,0,159,-37c0,0,66,-36,109,-110v452H831V0H694V125C694,125,651,51,585,15c0,0,-66,-35,-159,-35Z" 
id="f0_j"
transform="scale(0.001,-0.001)" />

<path d="M139,0V836H277V706c0,0,47,77,112,113c0,0,66,37,156,37c0,0,91,0,155,-47c0,0,64,-46,94,-134c0,0,52,93,123,137c0,0,72,44,169,44c0,0,130,0,201,-92c0,0,71,-91,71,-260V0H1220V500c0,0,0,120,-42,178c0,0,-43,58,-130,58c0,0,-107,0,-169,-71c0,0,-62,-70,-62,-193V0H680V500c0,0,0,121,-43,179c0,0,-42,57,-131,57c0,0,-105,0,-167,-71c0,0,-62,-71,-62,-193V0Z" 
id="f0_p"
transform="scale(0.001,-0.001)" />

<path d="M163,0V190H321V0Z" 
id="f0_l"
transform="scale(0.001,-0.001)" />

<path d="M458,-20c0,0,-79,0,-168,17c0,0,-89,17,-184,52V204c0,0,91,-51,179,-77c0,0,88,-26,173,-26c0,0,129,0,199,50c0,0,70,51,70,145c0,0,0,82,-50,129c0,0,-50,46,-165,69l-92,18c0,0,-169,34,-244,105c0,0,-75,72,-75,199c0,0,0,148,104,233c0,0,104,85,287,85c0,0,78,0,159,-14c0,0,81,-14,166,-42V931c0,0,-85,41,-161,61c0,0,-76,20,-147,20c0,0,-123,0,-190,-48c0,0,-67,-48,-67,-136c0,0,0,-73,45,-111c0,0,44,-38,168,-61l91,-19c0,0,168,-32,249,-113c0,0,80,-81,80,-216c0,0,0,-162,-109,-246c0,0,-108,-82,-318,-82Z" 
id="f0_e"
transform="scale(0.001,-0.001)" />

<path d="M359,0L46,836H191L453,134L714,836H859L546,0Z" 
id="f0_k"
transform="scale(0.001,-0.001)" />

<path d="M495,-20c0,0,-189,0,-300,117C195,97,84,216,84,417c0,0,0,204,112,321c0,0,113,118,308,118c0,0,64,0,124,-14c0,0,60,-13,117,-39V675c0,0,-58,32,-117,48c0,0,-58,16,-118,16c0,0,-133,0,-207,-84c0,0,-74,-85,-74,-238c0,0,0,-153,74,-238c0,0,74,-84,207,-84c0,0,60,0,118,16c0,0,59,16,117,48V32C745,32,688,5,626,-7c0,0,-61,-13,-131,-13Z" 
id="f0_o"
transform="scale(0.001,-0.001)" />

<path d="M117,-176L179,62V190H336V62L213,-176Z" 
id="f0_q"
transform="scale(0.001,-0.001)" />

<path d="M139,0V1161H277V475L686,836H861L418,445L880,0H701L277,408V0Z" 
id="f0_10"
transform="scale(0.001,-0.001)" />

<path d="M602,101c0,0,164,0,260,122c0,0,95,123,95,333c0,0,0,211,-95,334c0,0,-96,122,-260,122c0,0,-164,0,-260,-122c0,0,-97,-123,-97,-334c0,0,0,-210,97,-333c0,0,96,-122,260,-122Zm0,-121c0,0,-235,0,-375,155C227,135,86,292,86,556c0,0,0,264,141,421c0,0,140,157,375,157c0,0,234,0,374,-157c0,0,141,-157,141,-421c0,0,0,-263,-141,-420C976,136,836,-20,602,-20Z" 
id="f0_13"
transform="scale(0.001,-0.001)" />

<path d="M510,93c0,0,109,0,171,86c0,0,62,86,62,238c0,0,0,151,-62,237c0,0,-62,86,-171,86c0,0,-109,0,-171,-86c0,0,-62,-86,-62,-237c0,0,0,-152,62,-238c0,0,62,-86,171,-86ZM139,-317V836H277V709c0,0,43,74,109,110c0,0,66,37,158,37c0,0,152,0,247,-121c0,0,95,-121,95,-318c0,0,0,-197,-95,-318C791,99,696,-20,544,-20c0,0,-92,0,-158,35c0,0,-66,36,-109,110V-317Z" 
id="f0_b"
transform="scale(0.001,-0.001)" />

<path d="M510,93c0,0,109,0,171,86c0,0,62,86,62,238c0,0,0,151,-62,237c0,0,-62,86,-171,86c0,0,-109,0,-171,-86c0,0,-62,-86,-62,-237c0,0,0,-152,62,-238c0,0,62,-86,171,-86ZM544,-20c0,0,-92,0,-158,35c0,0,-66,36,-109,110V0H139V1161H277V709c0,0,43,74,109,110c0,0,66,37,158,37c0,0,152,0,247,-121c0,0,95,-121,95,-318c0,0,0,-197,-95,-318C791,99,696,-20,544,-20Z" 
id="f0_n"
transform="scale(0.001,-0.001)" />

<path d="M679,-20c0,0,-278,0,-440,154C239,134,76,290,76,556c0,0,0,269,166,424c0,0,165,154,453,154c0,0,111,0,213,-21c0,0,102,-21,192,-62V820c0,0,-93,54,-185,80c0,0,-92,26,-185,26c0,0,-171,0,-264,-96c0,0,-92,-96,-92,-274c0,0,0,-177,89,-273c0,0,89,-96,254,-96c0,0,45,0,83,5c0,0,39,6,69,18V425H694V618h447V83C1141,83,1034,31,918,5C918,5,803,-20,679,-20Z" 
id="f1_2"
transform="scale(0.001,-0.001)" />

<path d="M687,509c0,0,0,76,-44,122c0,0,-44,47,-116,47c0,0,-78,0,-126,-44c0,0,-49,-43,-61,-125ZM544,-20c0,0,-227,0,-353,114C191,94,66,209,66,417c0,0,0,204,123,321c0,0,123,118,340,118c0,0,197,0,315,-119c0,0,118,-118,118,-317V344H337c0,0,10,-94,68,-141c0,0,59,-47,163,-47c0,0,85,0,173,25c0,0,89,25,182,76V51C923,51,828,15,733,-2c0,0,-94,-18,-189,-18Z" 
id="f1_3"
transform="scale(0.001,-0.001)" />

<path d="M128,0V836H395V713c0,0,60,73,128,108c0,0,68,35,150,35c0,0,145,0,220,-89c0,0,75,-89,75,-258V0H699V389c0,0,0,109,-5,150c0,0,-5,41,-16,60c0,0,-16,26,-43,41c0,0,-27,14,-61,14c0,0,-84,0,-131,-64c0,0,-48,-65,-48,-179V0Z" 
id="f1_6"
transform="scale(0.001,-0.001)" />

<path d="M128,0V836H395V698c0,0,52,82,118,120c0,0,67,38,161,38c0,0,13,0,29,-2c0,0,15,-1,45,-4l1,-242c0,0,-35,17,-70,25c0,0,-35,7,-70,7c0,0,-103,0,-158,-66c0,0,-56,-66,-56,-189V0Z" 
id="f1_b"
transform="scale(0.001,-0.001)" />

<path d="M463,156c0,0,75,0,127,54c0,0,51,54,51,135v30H502c0,0,-83,0,-125,-28c0,0,-43,-28,-43,-83c0,0,0,-50,34,-79c0,0,34,-29,95,-29ZM357,-20c0,0,-130,0,-211,74c0,0,-80,76,-80,197c0,0,0,147,101,215c0,0,101,69,317,69H641v21c0,0,0,63,-50,92c0,0,-49,30,-155,30c0,0,-86,0,-160,-17c0,0,-74,-18,-137,-52V813c0,0,86,21,172,32c0,0,86,11,173,11c0,0,226,0,326,-90c0,0,100,-89,100,-290V0H641V124C641,124,588,48,521,13c0,0,-68,-33,-164,-33Z" 
id="f1_a"
transform="scale(0.001,-0.001)" />

<path d="M443,0C443,0,285,0,219,66c0,0,-66,66,-66,224V645H20V836H153v237H419V836H695V645H419V290c0,0,0,-58,24,-79c0,0,23,-20,91,-20H672V0Z" 
id="f1_4"
transform="scale(0.001,-0.001)" />

<path d="M128,0V836H395V0Zm0,944v217H395V944Z" 
id="f1_5"
transform="scale(0.001,-0.001)" />

<path d="M520,194c0,0,84,0,130,61c0,0,46,61,46,172c0,0,0,112,-46,174c0,0,-46,61,-130,61c0,0,-82,0,-129,-61c0,0,-46,-62,-46,-174c0,0,0,-115,45,-174c0,0,45,-59,130,-59ZM469,-328c0,0,-78,0,-151,12c0,0,-73,12,-147,36V-71c0,0,70,-41,137,-61c0,0,67,-20,135,-20c0,0,131,0,192,58c0,0,61,57,61,178v58C696,142,641,69,575,34C575,34,508,0,421,0C421,0,268,0,168,121C168,121,68,241,68,428c0,0,0,187,100,307c0,0,100,120,253,120c0,0,87,0,154,-35c0,0,66,-34,121,-108V836H965V84c0,0,0,-200,-127,-306c0,0,-127,-106,-369,-106Z" 
id="f1_7"
transform="scale(0.001,-0.001)" />

<path d="M680,-20c0,0,-278,0,-441,154C239,134,76,290,76,556c0,0,0,267,163,423c0,0,163,155,441,155c0,0,93,0,179,-21c0,0,86,-21,165,-62V820c0,0,-80,55,-158,81c0,0,-77,25,-163,25c0,0,-154,0,-241,-98c0,0,-88,-99,-88,-272c0,0,0,-172,87,-271c0,0,88,-98,242,-98c0,0,86,0,163,25c0,0,78,26,158,80V61C1024,61,945,20,859,0c0,0,-86,-20,-179,-20Z" 
id="f1_h"
transform="scale(0.001,-0.001)" />

<path d="M162,0V645H29V836H162v58c0,0,0,136,76,201c0,0,76,66,236,66H679V986H531c0,0,-57,0,-79,-21c0,0,-23,-20,-23,-71V836H657V645H429V0Z" 
id="f1_o"
transform="scale(0.001,-0.001)" />

<path d="M547,-20c0,0,-226,0,-354,114C193,94,66,210,66,417c0,0,0,207,127,323c0,0,128,116,354,116c0,0,66,0,129,-12c0,0,64,-11,128,-34V592c0,0,-55,37,-110,55c0,0,-54,18,-113,18c0,0,-112,0,-175,-65c0,0,-62,-66,-62,-183c0,0,0,-117,62,-183c0,0,63,-65,175,-65c0,0,62,0,119,19c0,0,56,19,104,55V24C804,24,741,1,676,-9c0,0,-64,-11,-129,-11Z" 
id="f1_e"
transform="scale(0.001,-0.001)" />

<path d="M445,-20c0,0,-83,0,-171,12C274,-8,185,4,92,30V234c0,0,80,-39,164,-58c0,0,84,-20,170,-20c0,0,79,0,118,22c0,0,40,22,40,64c0,0,0,36,-28,53c0,0,-27,18,-108,27l-47,6c0,0,-179,23,-250,83c0,0,-72,61,-72,184c0,0,0,132,91,196c0,0,91,65,279,65c0,0,74,0,155,-12c0,0,82,-11,177,-34V606c0,0,-86,36,-165,54c0,0,-80,18,-151,18c0,0,-76,0,-113,-19c0,0,-37,-19,-37,-59c0,0,0,-32,28,-49c0,0,28,-17,100,-25l47,-7c0,0,205,-26,276,-86c0,0,71,-59,71,-187c0,0,0,-133,-98,-200c0,0,-99,-66,-294,-66Z" 
id="f1_v"
transform="scale(0.001,-0.001)" />

<path d="M150,0V1114H790V987H300V659H742V532H300V0Z" 
id="f0_16"
transform="scale(0.001,-0.001)" />

<path d="M283,0L65,836H202L373,184L544,836H706L878,184l171,652h137L967,0H806L626,685L445,0Z" 
id="f0_y"
transform="scale(0.001,-0.001)" />

<path d="M727,411L522,965L318,411ZM12,0L437,1114H608L1033,0H876L774,286H272L171,0Z" 
id="f0_d"
transform="scale(0.001,-0.001)" />

<path d="M44,0L369,437L71,836H233L455,538L677,836H839L537,429L855,0H693L449,328L206,0Z" 
id="f0_14"
transform="scale(0.001,-0.001)" />

<path d="M460,93c0,0,109,0,171,86c0,0,63,86,63,238c0,0,0,151,-63,237c0,0,-62,86,-171,86c0,0,-109,0,-172,-86c0,0,-62,-86,-62,-237c0,0,0,-152,62,-238c0,0,63,-86,172,-86ZM694,-317V125C694,125,651,51,585,15c0,0,-66,-35,-159,-35c0,0,-151,0,-247,119c0,0,-95,121,-95,318c0,0,0,197,95,318c0,0,96,121,247,121c0,0,93,0,159,-37c0,0,66,-36,109,-110V836H831V-317Z" 
id="f0_17"
transform="scale(0.001,-0.001)" />

<path d="M46,0L444,595L97,1114H259L536,700l278,414H976L618,579L999,0H837L524,474L209,0Z" 
id="f0_1o"
transform="scale(0.001,-0.001)" />

<path d="M542,124c0,0,121,0,180,50c0,0,58,51,58,154c0,0,0,105,-58,154c0,0,-59,50,-180,50H300V124ZM523,654c0,0,111,0,165,41c0,0,54,42,54,127c0,0,0,84,-54,126c0,0,-54,42,-165,42H300V654ZM150,0V1114H535c0,0,172,0,265,-72c0,0,94,-72,94,-204c0,0,0,-102,-48,-162c0,0,-48,-61,-140,-76c0,0,111,-23,172,-99c0,0,62,-76,62,-189c0,0,0,-149,-102,-231C838,81,737,0,550,0Z" 
id="f0_1c"
transform="scale(0.001,-0.001)" />

<path d="M545,-20c0,0,-106,0,-212,20C333,0,226,19,119,58V301c0,0,107,-57,207,-85c0,0,99,-29,192,-29c0,0,94,0,144,31c0,0,50,31,50,90c0,0,0,52,-34,80c0,0,-34,29,-136,51L431,464c0,0,-167,35,-244,114c0,0,-77,78,-77,211c0,0,0,166,107,256c0,0,107,89,309,89c0,0,92,0,189,-14c0,0,97,-13,200,-41V843c0,0,-92,41,-179,62c0,0,-87,21,-165,21c0,0,-103,0,-152,-28c0,0,-49,-29,-49,-88c0,0,0,-45,33,-70c0,0,33,-25,121,-43L646,672c0,0,186,-37,264,-113c0,0,79,-76,79,-216c0,0,0,-185,-110,-275c0,0,-109,-88,-334,-88Z" 
id="f1_9"
transform="scale(0.001,-0.001)" />

<path d="M548,620c0,0,90,0,129,33c0,0,39,34,39,111c0,0,0,76,-39,109c0,0,-39,32,-129,32H427V620ZM140,0V1114H578c0,0,220,0,323,-74c0,0,102,-74,102,-234c0,0,0,-110,-53,-181c0,0,-54,-71,-161,-104c0,0,59,-14,106,-61c0,0,46,-47,94,-144L1145,0H839L703,277c0,0,-41,83,-83,114c0,0,-42,30,-112,30H427V0Z" 
id="f1_10"
transform="scale(0.001,-0.001)" />

<path d="M520,172c0,0,86,0,131,63c0,0,45,63,45,182c0,0,0,119,-45,182c0,0,-45,63,-131,63c0,0,-85,0,-130,-63c0,0,-45,-63,-45,-182c0,0,0,-119,45,-182c0,0,45,-63,130,-63ZM696,-317V121C696,121,641,47,575,13c0,0,-67,-33,-154,-33c0,0,-154,0,-253,121C168,101,68,224,68,417c0,0,0,194,100,316c0,0,99,122,253,122c0,0,87,0,154,-35c0,0,66,-34,121,-108V836H965V-317Z" 
id="f1_18"
transform="scale(0.001,-0.001)" />

<path d="M415,-20c0,0,-144,0,-220,87c0,0,-76,89,-76,259V836H388V752c0,0,0,-67,-1,-170c0,0,0,-103,0,-137c0,0,0,-101,5,-145c0,0,5,-44,18,-65c0,0,16,-26,43,-40c0,0,26,-14,60,-14c0,0,84,0,132,64c0,0,47,64,47,178V836H959V0H692V121C692,121,632,48,564,13c0,0,-67,-33,-149,-33Z" 
id="f1_g"
transform="scale(0.001,-0.001)" />

<path d="M354,-200c0,0,-112,175,-167,343c0,0,-56,170,-56,337c0,0,0,166,55,335c0,0,55,169,168,345H473c0,0,-100,-172,-148,-340c0,0,-48,-168,-48,-340c0,0,0,-173,48,-342c0,0,49,-168,148,-338Z" 
id="f0_1d"
transform="scale(0.001,-0.001)" />

<path d="M630,-20c0,0,-253,0,-398,153C232,133,86,288,86,556c0,0,0,269,146,423c0,0,145,155,398,155c0,0,100,0,189,-26c0,0,88,-27,166,-79V869c0,0,-76,71,-163,106c0,0,-86,35,-183,35c0,0,-191,0,-292,-117C347,893,245,777,245,556c0,0,0,-220,102,-337c0,0,101,-116,292,-116c0,0,97,0,183,35c0,0,87,35,163,105V86C985,86,906,32,817,5c0,0,-88,-25,-187,-25Z" 
id="f0_18"
transform="scale(0.001,-0.001)" />

<path d="M489,595c0,0,109,0,164,50c0,0,56,50,56,148c0,0,0,97,-56,147c0,0,-55,50,-164,50H300V595ZM150,0V1114H489c0,0,191,0,285,-80c0,0,94,-80,94,-241c0,0,0,-105,-49,-175c0,0,-49,-69,-142,-96c0,0,48,-16,94,-70c0,0,46,-54,93,-148L1017,0H855L712,285c0,0,-55,112,-107,149c0,0,-52,36,-141,36H300V0Z" 
id="f0_1m"
transform="scale(0.001,-0.001)" />

<path d="M122,-200c0,0,99,170,148,338c0,0,49,169,49,342c0,0,0,172,-49,340c0,0,-49,168,-148,340H241c0,0,112,-176,168,-345c0,0,55,-169,55,-335c0,0,0,-167,-55,-337c0,0,-56,-168,-168,-343Z" 
id="f0_1e"
transform="scale(0.001,-0.001)" />

<path d="M150,0V1114H375L659,356l285,758h224V0H1022V978L735,214H583L296,978V0Z" 
id="f0_1f"
transform="scale(0.001,-0.001)" />

<path d="M649,187c0,0,132,0,205,97c0,0,72,97,72,272c0,0,0,176,-72,273c0,0,-73,97,-205,97c0,0,-131,0,-203,-97c0,0,-72,-97,-72,-273c0,0,0,-175,72,-272c0,0,72,-97,203,-97Zm0,-207c0,0,-268,0,-420,152C229,132,76,286,76,556c0,0,0,271,153,425c0,0,152,153,420,153c0,0,269,0,421,-153c0,0,152,-154,152,-425c0,0,0,-270,-152,-424c0,0,-152,-152,-421,-152Z" 
id="f1_19"
transform="scale(0.001,-0.001)" />

<path d="M81,-216L155,61V288H424V61L241,-216Z" 
id="f1_16"
transform="scale(0.001,-0.001)" />

<path d="M352,0L23,836H291L499,258L706,836H974L645,0Z" 
id="f1_t"
transform="scale(0.001,-0.001)" />

<path d="M274,0L54,836H313L454,260L594,836H817L958,266l141,570h259L1138,0H847L706,575L565,0Z" 
id="f1_11"
transform="scale(0.001,-0.001)" />

<path d="M128,0V1161H395V713c0,0,60,73,128,108c0,0,68,35,150,35c0,0,145,0,220,-89c0,0,75,-89,75,-258V0H699V388c0,0,0,110,-5,151c0,0,-5,41,-16,60c0,0,-16,26,-43,41c0,0,-27,14,-61,14c0,0,-84,0,-131,-64c0,0,-48,-65,-48,-179V0Z" 
id="f1_m"
transform="scale(0.001,-0.001)" />

<path d="M551,0V391H162V567H551V958H729V567h390V391H729V0Z" 
id="f1_1a"
transform="scale(0.001,-0.001)" />

<path d="M179,0V190H336V0Zm0,600V790H336V600Z" 
id="f0_12"
transform="scale(0.001,-0.001)" />


</defs>
</svg>