<?xml version="1.0" encoding="UTF-8" standalone="no"?>
<!DOCTYPE svg PUBLIC "-//W3C//DTD SVG 1.1//EN"
"http://www.w3.org/Graphics/SVG/1.1/DTD/svg11.dtd">
<svg viewBox="0 0 909 1286" version="1.1" xmlns="http://www.w3.org/2000/svg" xmlns:xlink="http://www.w3.org/1999/xlink">
<defs>
<clipPath id="c0_31"><path d="M0,1286.2V.2H909.3v1286Z" /></clipPath>
<style type="text/css"><![CDATA[
.g0_31{
fill: #FFFFCC;
}
]]></style>
</defs>
<path fill-rule="evenodd" d="M86.6,115.3h46.9V91.7H86.6v23.6Z" class="g0_31" />
<g clip-path="url(#c0_31)">
<g fill="#0000FF" >
<use xlink:href="#f0_1e" transform="matrix(12,0,0,12,86.8,109.7)" />
<use xlink:href="#f0_2b" transform="matrix(12,0,0,12,100.1,109.7)" />
<use xlink:href="#f0_2g" transform="matrix(12,0,0,12,111.2,109.7)" />
<use xlink:href="#f0_21" transform="matrix(12,0,0,12,117.3,109.7)" />
<use xlink:href="#f0_u" transform="matrix(12,0,0,12,127.5,109.7)" />
</g>
</g>
<path fill-rule="evenodd" d="M133.5,115.3h5.2V91.7h-5.2v23.6Z" class="g0_31" />
<path fill-rule="evenodd" d="M138.7,114H792.5V92.6H138.7V114Z" class="g0_31" />
<g clip-path="url(#c0_31)">
<g fill="#000000" >
<use xlink:href="#f1_x" transform="matrix(12,0,0,12,138.9,109.7)" />
<use xlink:href="#f1_c" transform="matrix(12,0,0,12,147.6,109.7)" />
<use xlink:href="#f1_r" transform="matrix(12,0,0,12,158.7,109.7)" />
<use xlink:href="#f1_p" transform="matrix(12,0,0,12,176.3,109.7)" />
<use xlink:href="#f1_g" transform="matrix(12,0,0,12,194,109.7)" />
<use xlink:href="#f1_t" transform="matrix(12,0,0,12,205.3,109.7)" />
<use xlink:href="#f1_3" transform="matrix(12,0,0,12,222,109.7)" />
<use xlink:href="#f1_g" transform="matrix(12,0,0,12,233.6,109.7)" />
<use xlink:href="#f1_k" transform="matrix(12,0,0,12,244.9,109.7)" />
<use xlink:href="#f1_4" transform="matrix(12,0,0,12,255.7,109.7)" />
<use xlink:href="#f1_9" transform="matrix(12,0,0,12,272.8,109.7)" />
<use xlink:href="#f1_4" transform="matrix(12,0,0,12,282.4,109.7)" />
<use xlink:href="#f1_4" transform="matrix(12,0,0,12,293.6,109.7)" />
<use xlink:href="#f1_h" transform="matrix(12,0,0,12,304.8,109.7)" />
<use xlink:href="#f1_9" transform="matrix(12,0,0,12,322.3,109.7)" />
<use xlink:href="#f1_c" transform="matrix(12,0,0,12,331.9,109.7)" />
<use xlink:href="#f1_p" transform="matrix(12,0,0,12,343,109.7)" />
<use xlink:href="#f1_4" transform="matrix(12,0,0,12,360.9,109.7)" />
<use xlink:href="#f1_a" transform="matrix(12,0,0,12,378,109.7)" />
<use xlink:href="#f1_4" transform="matrix(12,0,0,12,385.2,109.7)" />
<use xlink:href="#f1_14" transform="matrix(12,0,0,12,396.2,109.7)" />
<use xlink:href="#f1_a" transform="matrix(12,0,0,12,407,109.7)" />
<use xlink:href="#f1_g" transform="matrix(12,0,0,12,420,109.7)" />
<use xlink:href="#f1_a" transform="matrix(12,0,0,12,431.3,109.7)" />
<use xlink:href="#f1_a" transform="matrix(12,0,0,12,444.3,109.7)" />
<use xlink:href="#f1_3" transform="matrix(12,0,0,12,451.5,109.7)" />
<use xlink:href="#f1_4" transform="matrix(12,0,0,12,463.1,109.7)" />
<use xlink:href="#f1_n" transform="matrix(12,0,0,12,480.2,109.7)" />
<use xlink:href="#f1_c" transform="matrix(12,0,0,12,491.8,109.7)" />
<use xlink:href="#f1_a" transform="matrix(12,0,0,12,502.9,109.7)" />
<use xlink:href="#f1_a" transform="matrix(12,0,0,12,510.3,109.7)" />
<use xlink:href="#f1_c" transform="matrix(12,0,0,12,517.4,109.7)" />
<use xlink:href="#f1_p" transform="matrix(12,0,0,12,528.6,109.7)" />
<use xlink:href="#f1_c" transform="matrix(12,0,0,12,552.4,109.7)" />
<use xlink:href="#f1_6" transform="matrix(12,0,0,12,563.5,109.7)" />
<use xlink:href="#f1_a" transform="matrix(12,0,0,12,575.8,109.7)" />
<use xlink:href="#f1_3" transform="matrix(12,0,0,12,582.9,109.7)" />
<use xlink:href="#f1_4" transform="matrix(12,0,0,12,594.6,109.7)" />
<use xlink:href="#f1_9" transform="matrix(12,0,0,12,611.8,109.7)" />
<use xlink:href="#f1_o" transform="matrix(12,0,0,12,621.3,109.7)" />
<use xlink:href="#f1_8" transform="matrix(12,0,0,12,631.3,109.7)" />
<use xlink:href="#f1_4" transform="matrix(12,0,0,12,638.3,109.7)" />
<use xlink:href="#f1_4" transform="matrix(12,0,0,12,649.6,109.7)" />
<use xlink:href="#f1_h" transform="matrix(12,0,0,12,660.9,109.7)" />
<use xlink:href="#f1_9" transform="matrix(12,0,0,12,672.5,109.7)" />
<use xlink:href="#f1_n" transform="matrix(12,0,0,12,688,109.7)" />
<use xlink:href="#f1_4" transform="matrix(12,0,0,12,699.6,109.7)" />
<use xlink:href="#f1_6" transform="matrix(12,0,0,12,710.9,109.7)" />
<use xlink:href="#f1_c" transform="matrix(12,0,0,12,717.3,109.7)" />
<use xlink:href="#f1_8" transform="matrix(12,0,0,12,728.6,109.7)" />
<use xlink:href="#f1_4" transform="matrix(12,0,0,12,735.6,109.7)" />
<use xlink:href="#f1_t" transform="matrix(12,0,0,12,752.7,109.7)" />
<use xlink:href="#f1_c" transform="matrix(12,0,0,12,763.5,109.7)" />
<use xlink:href="#f1_r" transform="matrix(12,0,0,12,774.7,109.7)" />
</g>
</g>
<path fill-rule="evenodd" d="M86.6,142.7H389.4V121.3H86.6v21.4Z" class="g0_31" />
<g clip-path="url(#c0_31)">
<g fill="#000000" >
<use xlink:href="#f1_o" transform="matrix(12,0,0,12,86.8,138.3)" />
<use xlink:href="#f1_i" transform="matrix(12,0,0,12,96.8,138.3)" />
<use xlink:href="#f1_7" transform="matrix(12,0,0,12,101.9,138.3)" />
<use xlink:href="#f1_o" transform="matrix(12,0,0,12,106.9,138.3)" />
<use xlink:href="#f1_10" transform="matrix(12,0,0,12,117,138.3)" />
<use xlink:href="#f1_4" transform="matrix(12,0,0,12,127.1,138.3)" />
<use xlink:href="#f1_j" transform="matrix(12,0,0,12,138.4,138.3)" />
<use xlink:href="#f1_1j" transform="matrix(12,0,0,12,155.8,138.3)" />
<use xlink:href="#f1_18" transform="matrix(12,0,0,12,164.6,138.3)" />
<use xlink:href="#f1_c" transform="matrix(12,0,0,12,177.5,138.3)" />
<use xlink:href="#f1_h" transform="matrix(12,0,0,12,188.6,138.3)" />
<use xlink:href="#f1_a" transform="matrix(12,0,0,12,200.2,138.3)" />
<use xlink:href="#f1_7" transform="matrix(12,0,0,12,207.4,138.3)" />
<use xlink:href="#f1_h" transform="matrix(12,0,0,12,212.6,138.3)" />
<use xlink:href="#f1_r" transform="matrix(12,0,0,12,224.2,138.3)" />
<use xlink:href="#f1_4" transform="matrix(12,0,0,12,235.8,138.3)" />
<use xlink:href="#f1_1k" transform="matrix(12,0,0,12,247.1,138.3)" />
<use xlink:href="#f1_a" transform="matrix(12,0,0,12,262.4,138.3)" />
<use xlink:href="#f1_g" transform="matrix(12,0,0,12,269.5,138.3)" />
<use xlink:href="#f1_i" transform="matrix(12,0,0,12,280.8,138.3)" />
<use xlink:href="#f1_10" transform="matrix(12,0,0,12,285.9,138.3)" />
<use xlink:href="#f1_7" transform="matrix(12,0,0,12,296.5,138.3)" />
<use xlink:href="#f1_h" transform="matrix(12,0,0,12,301.6,138.3)" />
<use xlink:href="#f1_f" transform="matrix(12,0,0,12,313.2,138.3)" />
<use xlink:href="#f1_g" transform="matrix(12,0,0,12,330.6,138.3)" />
<use xlink:href="#f1_n" transform="matrix(12,0,0,12,341.9,138.3)" />
<use xlink:href="#f1_c" transform="matrix(12,0,0,12,353.5,138.3)" />
<use xlink:href="#f1_r" transform="matrix(12,0,0,12,364.7,138.3)" />
<use xlink:href="#f1_a" transform="matrix(12,0,0,12,376.3,138.3)" />
</g>
</g>
<path fill-rule="evenodd" d="M389.4,143.9H603.6V120.4H389.4v23.5Z" class="g0_31" />
<g clip-path="url(#c0_31)">
<g fill="#0000FF" >
<use xlink:href="#f0_19" transform="matrix(12,0,0,12,389.6,138.3)" />
<use xlink:href="#f0_2a" transform="matrix(12,0,0,12,394.6,138.3)" />
<use xlink:href="#f0_2g" transform="matrix(12,0,0,12,405.8,138.3)" />
<use xlink:href="#f0_21" transform="matrix(12,0,0,12,411.9,138.3)" />
<use xlink:href="#f0_2e" transform="matrix(12,0,0,12,422.1,138.3)" />
<use xlink:href="#f0_29" transform="matrix(12,0,0,12,429.3,138.3)" />
<use xlink:href="#f0_21" transform="matrix(12,0,0,12,445.4,138.3)" />
<use xlink:href="#f0_20" transform="matrix(12,0,0,12,455.7,138.3)" />
<use xlink:href="#f0_25" transform="matrix(12,0,0,12,466.8,138.3)" />
<use xlink:href="#f0_1x" transform="matrix(12,0,0,12,472,138.3)" />
<use xlink:href="#f0_2g" transform="matrix(12,0,0,12,482.1,138.3)" />
<use xlink:href="#f0_21" transform="matrix(12,0,0,12,488.2,138.3)" />
<use xlink:href="#f0_13" transform="matrix(12,0,0,12,503.4,138.3)" />
<use xlink:href="#f0_21" transform="matrix(12,0,0,12,516.7,138.3)" />
<use xlink:href="#f0_2e" transform="matrix(12,0,0,12,527.1,138.3)" />
<use xlink:href="#f0_2g" transform="matrix(12,0,0,12,534.2,138.3)" />
<use xlink:href="#f0_25" transform="matrix(12,0,0,12,540.3,138.3)" />
<use xlink:href="#f0_22" transform="matrix(12,0,0,12,545.5,138.3)" />
<use xlink:href="#f0_25" transform="matrix(12,0,0,12,551.6,138.3)" />
<use xlink:href="#f0_1z" transform="matrix(12,0,0,12,556.7,138.3)" />
<use xlink:href="#f0_1x" transform="matrix(12,0,0,12,566.9,138.3)" />
<use xlink:href="#f0_2g" transform="matrix(12,0,0,12,577.1,138.3)" />
<use xlink:href="#f0_21" transform="matrix(12,0,0,12,583,138.3)" />
<use xlink:href="#f0_2f" transform="matrix(12,0,0,12,593.2,138.3)" />
</g>
</g>
<path fill-rule="evenodd" d="M603.6,142.7H780.4V121.3H603.6v21.4Z" class="g0_31" />
<g clip-path="url(#c0_31)">
<g fill="#000000" >
<use xlink:href="#f1_l" transform="matrix(12,0,0,12,603.8,138.3)" />
<use xlink:href="#f1_1s" transform="matrix(12,0,0,12,615.5,138.3)" />
<use xlink:href="#f1_3" transform="matrix(12,0,0,12,633.6,138.3)" />
<use xlink:href="#f1_4" transform="matrix(12,0,0,12,645.2,138.3)" />
<use xlink:href="#f1_h" transform="matrix(12,0,0,12,656.4,138.3)" />
<use xlink:href="#f1_t" transform="matrix(12,0,0,12,673.9,138.3)" />
<use xlink:href="#f1_c" transform="matrix(12,0,0,12,684.7,138.3)" />
<use xlink:href="#f1_r" transform="matrix(12,0,0,12,695.8,138.3)" />
<use xlink:href="#f1_i" transform="matrix(12,0,0,12,713.4,138.3)" />
<use xlink:href="#f1_g" transform="matrix(12,0,0,12,718.5,138.3)" />
<use xlink:href="#f1_r" transform="matrix(12,0,0,12,729.7,138.3)" />
<use xlink:href="#f1_h" transform="matrix(12,0,0,12,741.4,138.3)" />
<use xlink:href="#f1_o" transform="matrix(12,0,0,12,753,138.3)" />
<use xlink:href="#f1_3" transform="matrix(12,0,0,12,763,138.3)" />
</g>
</g>
<path fill-rule="evenodd" d="M86.6,172.6h736V151.3H86.6v21.3Z" class="g0_31" />
<g clip-path="url(#c0_31)">
<g fill="#000000" >
<use xlink:href="#f1_1o" transform="matrix(12,0,0,12,86.8,168.2)" />
<use xlink:href="#f1_o" transform="matrix(12,0,0,12,99.3,168.2)" />
<use xlink:href="#f1_c" transform="matrix(12,0,0,12,109.4,168.2)" />
<use xlink:href="#f1_j" transform="matrix(12,0,0,12,120.7,168.2)" />
<use xlink:href="#f1_4" transform="matrix(12,0,0,12,132.3,168.2)" />
<use xlink:href="#f1_q" transform="matrix(12,0,0,12,143.6,168.2)" />
<use xlink:href="#f1_c" transform="matrix(12,0,0,12,155.2,168.2)" />
<use xlink:href="#f1_8" transform="matrix(12,0,0,12,166.3,168.2)" />
<use xlink:href="#f1_7" transform="matrix(12,0,0,12,179.8,168.2)" />
<use xlink:href="#f1_6" transform="matrix(12,0,0,12,184.8,168.2)" />
<use xlink:href="#f1_t" transform="matrix(12,0,0,12,197.2,168.2)" />
<use xlink:href="#f1_c" transform="matrix(12,0,0,12,208,168.2)" />
<use xlink:href="#f1_r" transform="matrix(12,0,0,12,219.1,168.2)" />
<use xlink:href="#f1_3" transform="matrix(12,0,0,12,236.7,168.2)" />
<use xlink:href="#f1_g" transform="matrix(12,0,0,12,248.1,168.2)" />
<use xlink:href="#f1_k" transform="matrix(12,0,0,12,259.4,168.2)" />
<use xlink:href="#f1_4" transform="matrix(12,0,0,12,270.3,168.2)" />
<use xlink:href="#f1_g" transform="matrix(12,0,0,12,287.4,168.2)" />
<use xlink:href="#f1_i" transform="matrix(12,0,0,12,298.7,168.2)" />
<use xlink:href="#f1_8" transform="matrix(12,0,0,12,303.7,168.2)" />
<use xlink:href="#f1_4" transform="matrix(12,0,0,12,310.7,168.2)" />
<use xlink:href="#f1_g" transform="matrix(12,0,0,12,322,168.2)" />
<use xlink:href="#f1_j" transform="matrix(12,0,0,12,333.3,168.2)" />
<use xlink:href="#f1_t" transform="matrix(12,0,0,12,344.9,168.2)" />
<use xlink:href="#f1_i" transform="matrix(12,0,0,12,361.6,168.2)" />
<use xlink:href="#f1_g" transform="matrix(12,0,0,12,366.6,168.2)" />
<use xlink:href="#f1_r" transform="matrix(12,0,0,12,377.9,168.2)" />
<use xlink:href="#f1_h" transform="matrix(12,0,0,12,389.5,168.2)" />
<use xlink:href="#f1_o" transform="matrix(12,0,0,12,401.1,168.2)" />
<use xlink:href="#f1_3" transform="matrix(12,0,0,12,411.2,168.2)" />
<use xlink:href="#f1_4" transform="matrix(12,0,0,12,422.8,168.2)" />
<use xlink:href="#f1_j" transform="matrix(12,0,0,12,434.1,168.2)" />
<use xlink:href="#f1_1o" transform="matrix(12,0,0,12,451.6,168.2)" />
<use xlink:href="#f1_o" transform="matrix(12,0,0,12,464.2,168.2)" />
<use xlink:href="#f1_c" transform="matrix(12,0,0,12,474.2,168.2)" />
<use xlink:href="#f1_j" transform="matrix(12,0,0,12,485.4,168.2)" />
<use xlink:href="#f1_4" transform="matrix(12,0,0,12,497,168.2)" />
<use xlink:href="#f1_q" transform="matrix(12,0,0,12,508.3,168.2)" />
<use xlink:href="#f1_7" transform="matrix(12,0,0,12,519.9,168.2)" />
<use xlink:href="#f1_a" transform="matrix(12,0,0,12,524.9,168.2)" />
<use xlink:href="#f1_y" transform="matrix(12,0,0,12,538.1,168.2)" />
<use xlink:href="#f1_7" transform="matrix(12,0,0,12,553,168.2)" />
<use xlink:href="#f1_i" transform="matrix(12,0,0,12,558.1,168.2)" />
<use xlink:href="#f1_i" transform="matrix(12,0,0,12,563.2,168.2)" />
<use xlink:href="#f1_7" transform="matrix(12,0,0,12,574.1,168.2)" />
<use xlink:href="#f1_h" transform="matrix(12,0,0,12,579.1,168.2)" />
<use xlink:href="#f1_9" transform="matrix(12,0,0,12,590.7,168.2)" />
<use xlink:href="#f1_a" transform="matrix(12,0,0,12,600.3,168.2)" />
<use xlink:href="#f1_g" transform="matrix(12,0,0,12,607.5,168.2)" />
<use xlink:href="#f1_i" transform="matrix(12,0,0,12,618.8,168.2)" />
<use xlink:href="#f1_i" transform="matrix(12,0,0,12,623.9,168.2)" />
<use xlink:href="#f1_a" transform="matrix(12,0,0,12,634.9,168.2)" />
<use xlink:href="#f1_3" transform="matrix(12,0,0,12,642,168.2)" />
<use xlink:href="#f1_4" transform="matrix(12,0,0,12,653.6,168.2)" />
<use xlink:href="#f1_9" transform="matrix(12,0,0,12,664.8,168.2)" />
<use xlink:href="#f1_4" transform="matrix(12,0,0,12,674.4,168.2)" />
<use xlink:href="#f1_g" transform="matrix(12,0,0,12,691.5,168.2)" />
<use xlink:href="#f1_r" transform="matrix(12,0,0,12,702.8,168.2)" />
<use xlink:href="#f1_a" transform="matrix(12,0,0,12,714.4,168.2)" />
<use xlink:href="#f1_c" transform="matrix(12,0,0,12,721.6,168.2)" />
<use xlink:href="#f1_p" transform="matrix(12,0,0,12,732.7,168.2)" />
<use xlink:href="#f1_g" transform="matrix(12,0,0,12,750.6,168.2)" />
<use xlink:href="#f1_a" transform="matrix(12,0,0,12,761.9,168.2)" />
<use xlink:href="#f1_7" transform="matrix(12,0,0,12,769.1,168.2)" />
<use xlink:href="#f1_o" transform="matrix(12,0,0,12,774.1,168.2)" />
<use xlink:href="#f1_g" transform="matrix(12,0,0,12,784.2,168.2)" />
<use xlink:href="#f1_i" transform="matrix(12,0,0,12,795.5,168.2)" />
<use xlink:href="#f1_i" transform="matrix(12,0,0,12,800.5,168.2)" />
<use xlink:href="#f1_t" transform="matrix(12,0,0,12,805.6,168.2)" />
</g>
</g>
<path fill-rule="evenodd" d="M86.6,201.2H821.9V179.8H86.6v21.4Z" class="g0_31" />
<g clip-path="url(#c0_31)">
<g fill="#000000" >
<use xlink:href="#f1_6" transform="matrix(12,0,0,12,86.8,196.9)" />
<use xlink:href="#f1_c" transform="matrix(12,0,0,12,93.2,196.9)" />
<use xlink:href="#f1_8" transform="matrix(12,0,0,12,104.5,196.9)" />
<use xlink:href="#f1_t" transform="matrix(12,0,0,12,117.8,196.9)" />
<use xlink:href="#f1_c" transform="matrix(12,0,0,12,128.6,196.9)" />
<use xlink:href="#f1_r" transform="matrix(12,0,0,12,139.8,196.9)" />
<use xlink:href="#f1_l" transform="matrix(12,0,0,12,151.5,196.9)" />
<use xlink:href="#f1_e" transform="matrix(12,0,0,12,163.1,196.9)" />
<use xlink:href="#f1_3" transform="matrix(12,0,0,12,174.7,196.9)" />
<use xlink:href="#f1_c" transform="matrix(12,0,0,12,186.3,196.9)" />
<use xlink:href="#f1_r" transform="matrix(12,0,0,12,197.6,196.9)" />
<use xlink:href="#f1_i" transform="matrix(12,0,0,12,209.2,196.9)" />
<use xlink:href="#f1_j" transform="matrix(12,0,0,12,214.3,196.9)" />
<use xlink:href="#f1_t" transform="matrix(12,0,0,12,231.8,196.9)" />
<use xlink:href="#f1_c" transform="matrix(12,0,0,12,242.7,196.9)" />
<use xlink:href="#f1_r" transform="matrix(12,0,0,12,253.8,196.9)" />
<use xlink:href="#f1_4" transform="matrix(12,0,0,12,271.2,196.9)" />
<use xlink:href="#f1_k" transform="matrix(12,0,0,12,282.5,196.9)" />
<use xlink:href="#f1_4" transform="matrix(12,0,0,12,293.4,196.9)" />
<use xlink:href="#f1_8" transform="matrix(12,0,0,12,304.7,196.9)" />
<use xlink:href="#f1_h" transform="matrix(12,0,0,12,318.1,196.9)" />
<use xlink:href="#f1_4" transform="matrix(12,0,0,12,329.5,196.9)" />
<use xlink:href="#f1_4" transform="matrix(12,0,0,12,340.8,196.9)" />
<use xlink:href="#f1_j" transform="matrix(12,0,0,12,352.1,196.9)" />
<use xlink:href="#f1_a" transform="matrix(12,0,0,12,369.7,196.9)" />
<use xlink:href="#f1_c" transform="matrix(12,0,0,12,376.9,196.9)" />
<use xlink:href="#f1_7" transform="matrix(12,0,0,12,393.8,196.9)" />
<use xlink:href="#f1_h" transform="matrix(12,0,0,12,398.9,196.9)" />
<use xlink:href="#f1_9" transform="matrix(12,0,0,12,410.5,196.9)" />
<use xlink:href="#f1_a" transform="matrix(12,0,0,12,420.1,196.9)" />
<use xlink:href="#f1_g" transform="matrix(12,0,0,12,427.3,196.9)" />
<use xlink:href="#f1_i" transform="matrix(12,0,0,12,438.6,196.9)" />
<use xlink:href="#f1_i" transform="matrix(12,0,0,12,443.6,196.9)" />
<use xlink:href="#f1_a" transform="matrix(12,0,0,12,454.6,196.9)" />
<use xlink:href="#f1_3" transform="matrix(12,0,0,12,461.8,196.9)" />
<use xlink:href="#f1_4" transform="matrix(12,0,0,12,473.4,196.9)" />
<use xlink:href="#f1_p" transform="matrix(12,0,0,12,484.7,196.9)" />
<use xlink:href="#f1_6" transform="matrix(12,0,0,12,508.3,196.9)" />
<use xlink:href="#f1_c" transform="matrix(12,0,0,12,514.8,196.9)" />
<use xlink:href="#f1_8" transform="matrix(12,0,0,12,525.9,196.9)" />
<use xlink:href="#f1_9" transform="matrix(12,0,0,12,539.3,196.9)" />
<use xlink:href="#f1_c" transform="matrix(12,0,0,12,548.9,196.9)" />
<use xlink:href="#f1_p" transform="matrix(12,0,0,12,560.1,196.9)" />
<use xlink:href="#f1_4" transform="matrix(12,0,0,12,577.9,196.9)" />
<use xlink:href="#f1_8" transform="matrix(12,0,0,12,595.1,196.9)" />
<use xlink:href="#f1_4" transform="matrix(12,0,0,12,602.1,196.9)" />
<use xlink:href="#f1_g" transform="matrix(12,0,0,12,613.4,196.9)" />
<use xlink:href="#f1_9" transform="matrix(12,0,0,12,624.5,196.9)" />
<use xlink:href="#f1_c" transform="matrix(12,0,0,12,634.1,196.9)" />
<use xlink:href="#f1_h" transform="matrix(12,0,0,12,645.3,196.9)" />
<use xlink:href="#f1_7" transform="matrix(12,0,0,12,662.8,196.9)" />
<use xlink:href="#f1_h" transform="matrix(12,0,0,12,667.9,196.9)" />
<use xlink:href="#f1_a" transform="matrix(12,0,0,12,685.3,196.9)" />
<use xlink:href="#f1_3" transform="matrix(12,0,0,12,692.5,196.9)" />
<use xlink:href="#f1_4" transform="matrix(12,0,0,12,704.1,196.9)" />
<use xlink:href="#f1_6" transform="matrix(12,0,0,12,721.3,196.9)" />
<use xlink:href="#f1_r" transform="matrix(12,0,0,12,727.7,196.9)" />
<use xlink:href="#f1_a" transform="matrix(12,0,0,12,739.3,196.9)" />
<use xlink:href="#f1_r" transform="matrix(12,0,0,12,746.5,196.9)" />
<use xlink:href="#f1_8" transform="matrix(12,0,0,12,758.1,196.9)" />
<use xlink:href="#f1_4" transform="matrix(12,0,0,12,765.1,196.9)" />
<use xlink:href="#f1_19" transform="matrix(12,0,0,12,782.4,196.9)" />
<use xlink:href="#f1_r" transform="matrix(12,0,0,12,787.4,196.9)" />
<use xlink:href="#f1_9" transform="matrix(12,0,0,12,799,196.9)" />
<use xlink:href="#f1_a" transform="matrix(12,0,0,12,808.7,196.9)" />
</g>
</g>
<path fill-rule="evenodd" d="M86.6,228.6H208.2V207.2H86.6v21.4Z" class="g0_31" />
<g clip-path="url(#c0_31)">
<g fill="#000000" >
<use xlink:href="#f1_o" transform="matrix(12,0,0,12,86.8,224.3)" />
<use xlink:href="#f1_g" transform="matrix(12,0,0,12,96.8,224.3)" />
<use xlink:href="#f1_h" transform="matrix(12,0,0,12,108.1,224.3)" />
<use xlink:href="#f1_o" transform="matrix(12,0,0,12,125.6,224.3)" />
<use xlink:href="#f1_i" transform="matrix(12,0,0,12,135.6,224.3)" />
<use xlink:href="#f1_7" transform="matrix(12,0,0,12,140.7,224.3)" />
<use xlink:href="#f1_o" transform="matrix(12,0,0,12,145.7,224.3)" />
<use xlink:href="#f1_10" transform="matrix(12,0,0,12,155.8,224.3)" />
<use xlink:href="#f1_a" transform="matrix(12,0,0,12,172.2,224.3)" />
<use xlink:href="#f1_3" transform="matrix(12,0,0,12,179.4,224.3)" />
<use xlink:href="#f1_4" transform="matrix(12,0,0,12,191,224.3)" />
</g>
</g>
<path fill-rule="evenodd" d="M208.2,229.9h10.7V206.3H208.2v23.6Z" class="g0_31" />
<g clip-path="url(#c0_31)">
<g fill="#0000FF" >
<use xlink:href="#f0_f" transform="matrix(12,0,0,12,208.4,224.3)" />
</g>
</g>
<path fill-rule="evenodd" d="M218.9,229.9H224V206.3h-5.1v23.6Z" class="g0_31" />
<path fill-rule="evenodd" d="M224,228.6H780.5V207.2H224v21.4Z" class="g0_31" />
<g clip-path="url(#c0_31)">
<g fill="#000000" >
<use xlink:href="#f1_g" transform="matrix(12,0,0,12,224.1,224.3)" />
<use xlink:href="#f1_9" transform="matrix(12,0,0,12,235.4,224.3)" />
<use xlink:href="#f1_7" transform="matrix(12,0,0,12,250.7,224.3)" />
<use xlink:href="#f1_6" transform="matrix(12,0,0,12,255.9,224.3)" />
<use xlink:href="#f1_o" transform="matrix(12,0,0,12,268.1,224.3)" />
<use xlink:href="#f1_8" transform="matrix(12,0,0,12,278.2,224.3)" />
<use xlink:href="#f1_4" transform="matrix(12,0,0,12,285.2,224.3)" />
<use xlink:href="#f1_g" transform="matrix(12,0,0,12,296.5,224.3)" />
<use xlink:href="#f1_a" transform="matrix(12,0,0,12,307.8,224.3)" />
<use xlink:href="#f1_7" transform="matrix(12,0,0,12,315,224.3)" />
<use xlink:href="#f1_h" transform="matrix(12,0,0,12,320,224.3)" />
<use xlink:href="#f1_f" transform="matrix(12,0,0,12,331.6,224.3)" />
<use xlink:href="#f1_g" transform="matrix(12,0,0,12,349.2,224.3)" />
<use xlink:href="#f1_h" transform="matrix(12,0,0,12,366.3,224.3)" />
<use xlink:href="#f1_4" transform="matrix(12,0,0,12,377.9,224.3)" />
<use xlink:href="#f1_y" transform="matrix(12,0,0,12,389.2,224.3)" />
<use xlink:href="#f1_o" transform="matrix(12,0,0,12,410,224.3)" />
<use xlink:href="#f1_4" transform="matrix(12,0,0,12,420,224.3)" />
<use xlink:href="#f1_8" transform="matrix(12,0,0,12,431.3,224.3)" />
<use xlink:href="#f1_a" transform="matrix(12,0,0,12,438.8,224.3)" />
<use xlink:href="#f1_7" transform="matrix(12,0,0,12,446,224.3)" />
<use xlink:href="#f1_6" transform="matrix(12,0,0,12,451,224.3)" />
<use xlink:href="#f1_7" transform="matrix(12,0,0,12,457.6,224.3)" />
<use xlink:href="#f1_o" transform="matrix(12,0,0,12,462.6,224.3)" />
<use xlink:href="#f1_g" transform="matrix(12,0,0,12,472.7,224.3)" />
<use xlink:href="#f1_a" transform="matrix(12,0,0,12,484,224.3)" />
<use xlink:href="#f1_4" transform="matrix(12,0,0,12,491.2,224.3)" />
<use xlink:href="#f1_g" transform="matrix(12,0,0,12,508.3,224.3)" />
<use xlink:href="#f1_h" transform="matrix(12,0,0,12,519.4,224.3)" />
<use xlink:href="#f1_j" transform="matrix(12,0,0,12,531,224.3)" />
<use xlink:href="#f1_9" transform="matrix(12,0,0,12,548.6,224.3)" />
<use xlink:href="#f1_o" transform="matrix(12,0,0,12,558,224.3)" />
<use xlink:href="#f1_8" transform="matrix(12,0,0,12,568.1,224.3)" />
<use xlink:href="#f1_c" transform="matrix(12,0,0,12,575.3,224.3)" />
<use xlink:href="#f1_i" transform="matrix(12,0,0,12,586.4,224.3)" />
<use xlink:href="#f1_i" transform="matrix(12,0,0,12,591.5,224.3)" />
<use xlink:href="#f1_j" transform="matrix(12,0,0,12,602.5,224.3)" />
<use xlink:href="#f1_c" transform="matrix(12,0,0,12,614.1,224.3)" />
<use xlink:href="#f1_y" transform="matrix(12,0,0,12,625.2,224.3)" />
<use xlink:href="#f1_h" transform="matrix(12,0,0,12,640.2,224.3)" />
<use xlink:href="#f1_a" transform="matrix(12,0,0,12,657.8,224.3)" />
<use xlink:href="#f1_c" transform="matrix(12,0,0,12,664.9,224.3)" />
<use xlink:href="#f1_a" transform="matrix(12,0,0,12,682.1,224.3)" />
<use xlink:href="#f1_3" transform="matrix(12,0,0,12,689.2,224.3)" />
<use xlink:href="#f1_4" transform="matrix(12,0,0,12,700.8,224.3)" />
<use xlink:href="#f1_i" transform="matrix(12,0,0,12,718,224.3)" />
<use xlink:href="#f1_7" transform="matrix(12,0,0,12,723,224.3)" />
<use xlink:href="#f1_h" transform="matrix(12,0,0,12,728,224.3)" />
<use xlink:href="#f1_10" transform="matrix(12,0,0,12,739.6,224.3)" />
<use xlink:href="#f1_a" transform="matrix(12,0,0,12,756.1,224.3)" />
<use xlink:href="#f1_c" transform="matrix(12,0,0,12,763.3,224.3)" />
</g>
</g>
<path fill-rule="evenodd" d="M86.6,258.5H251.2V237.1H86.6v21.4Z" class="g0_31" />
<g clip-path="url(#c0_31)">
<g fill="#000000" >
<use xlink:href="#f1_j" transform="matrix(12,0,0,12,86.8,254.2)" />
<use xlink:href="#f1_c" transform="matrix(12,0,0,12,98.4,254.2)" />
<use xlink:href="#f1_y" transform="matrix(12,0,0,12,109.7,254.2)" />
<use xlink:href="#f1_h" transform="matrix(12,0,0,12,124.7,254.2)" />
<use xlink:href="#f1_i" transform="matrix(12,0,0,12,136.3,254.2)" />
<use xlink:href="#f1_c" transform="matrix(12,0,0,12,141.3,254.2)" />
<use xlink:href="#f1_g" transform="matrix(12,0,0,12,152.4,254.2)" />
<use xlink:href="#f1_j" transform="matrix(12,0,0,12,163.7,254.2)" />
<use xlink:href="#f1_a" transform="matrix(12,0,0,12,181.3,254.2)" />
<use xlink:href="#f1_3" transform="matrix(12,0,0,12,188.5,254.2)" />
<use xlink:href="#f1_4" transform="matrix(12,0,0,12,200.1,254.2)" />
<use xlink:href="#f1_6" transform="matrix(12,0,0,12,217.2,254.2)" />
<use xlink:href="#f1_7" transform="matrix(12,0,0,12,223.6,254.2)" />
<use xlink:href="#f1_i" transform="matrix(12,0,0,12,228.7,254.2)" />
<use xlink:href="#f1_4" transform="matrix(12,0,0,12,233.7,254.2)" />
<use xlink:href="#f1_12" transform="matrix(12,0,0,12,245.1,254.2)" />
</g>
</g>
<path fill-rule="evenodd" d="M86.6,585.6h285V564.2H86.6v21.4Z" class="g0_31" />
<g clip-path="url(#c0_31)">
<g fill="#000000" >
<use xlink:href="#f1_2" transform="matrix(12,0,0,12,86.8,581.3)" />
<use xlink:href="#f1_3" transform="matrix(12,0,0,12,97.9,581.3)" />
<use xlink:href="#f1_7" transform="matrix(12,0,0,12,109.7,581.3)" />
<use xlink:href="#f1_9" transform="matrix(12,0,0,12,114.7,581.3)" />
<use xlink:href="#f1_y" transform="matrix(12,0,0,12,130.1,581.3)" />
<use xlink:href="#f1_7" transform="matrix(12,0,0,12,145.1,581.3)" />
<use xlink:href="#f1_i" transform="matrix(12,0,0,12,150.2,581.3)" />
<use xlink:href="#f1_i" transform="matrix(12,0,0,12,155.2,581.3)" />
<use xlink:href="#f1_j" transform="matrix(12,0,0,12,166.2,581.3)" />
<use xlink:href="#f1_c" transform="matrix(12,0,0,12,177.8,581.3)" />
<use xlink:href="#f1_y" transform="matrix(12,0,0,12,188.9,581.3)" />
<use xlink:href="#f1_h" transform="matrix(12,0,0,12,203.9,581.3)" />
<use xlink:href="#f1_i" transform="matrix(12,0,0,12,215.7,581.3)" />
<use xlink:href="#f1_c" transform="matrix(12,0,0,12,220.7,581.3)" />
<use xlink:href="#f1_g" transform="matrix(12,0,0,12,231.8,581.3)" />
<use xlink:href="#f1_j" transform="matrix(12,0,0,12,243.1,581.3)" />
<use xlink:href="#f1_g" transform="matrix(12,0,0,12,260.6,581.3)" />
<use xlink:href="#f1_6" transform="matrix(12,0,0,12,277.7,581.3)" />
<use xlink:href="#f1_7" transform="matrix(12,0,0,12,284.1,581.3)" />
<use xlink:href="#f1_i" transform="matrix(12,0,0,12,289.3,581.3)" />
<use xlink:href="#f1_4" transform="matrix(12,0,0,12,294.3,581.3)" />
<use xlink:href="#f1_o" transform="matrix(12,0,0,12,311.4,581.3)" />
<use xlink:href="#f1_g" transform="matrix(12,0,0,12,321.5,581.3)" />
<use xlink:href="#f1_i" transform="matrix(12,0,0,12,332.8,581.3)" />
<use xlink:href="#f1_i" transform="matrix(12,0,0,12,337.8,581.3)" />
<use xlink:href="#f1_4" transform="matrix(12,0,0,12,342.8,581.3)" />
<use xlink:href="#f1_j" transform="matrix(12,0,0,12,354.1,581.3)" />
</g>
</g>
<path fill-rule="evenodd" d="M371.6,587H542.5V563.3H371.6V587Z" class="g0_31" />
<g clip-path="url(#c0_31)">
<g fill="#0000FF" >
<use xlink:href="#f0_11" transform="matrix(12,0,0,12,371.7,581.3)" />
<use xlink:href="#f0_2c" transform="matrix(12,0,0,12,385,581.3)" />
<use xlink:href="#f0_2c" transform="matrix(12,0,0,12,396.1,581.3)" />
<use xlink:href="#f0_28" transform="matrix(12,0,0,12,407.3,581.3)" />
<use xlink:href="#f0_21" transform="matrix(12,0,0,12,412.4,581.3)" />
<use xlink:href="#f0_1n" transform="matrix(12,0,0,12,422.5,581.3)" />
<use xlink:href="#f0_1n" transform="matrix(12,0,0,12,439.9,581.3)" />
<use xlink:href="#f0_14" transform="matrix(12,0,0,12,457.2,581.3)" />
<use xlink:href="#f0_1i" transform="matrix(12,0,0,12,470.5,581.3)" />
<use xlink:href="#f0_13" transform="matrix(12,0,0,12,483.3,581.3)" />
<use xlink:href="#f0_11" transform="matrix(12,0,0,12,496.6,581.3)" />
<use xlink:href="#f0_i" transform="matrix(12,0,0,12,509.8,581.3)" />
<use xlink:href="#f0_1z" transform="matrix(12,0,0,12,514.9,581.3)" />
<use xlink:href="#f0_21" transform="matrix(12,0,0,12,525.1,581.3)" />
<use xlink:href="#f0_2e" transform="matrix(12,0,0,12,535.3,581.3)" />
</g>
</g>
<path fill-rule="evenodd" d="M542.5,585.6H769.8V564.2H542.5v21.4Z" class="g0_31" />
<g clip-path="url(#c0_31)">
<g fill="#000000" >
<use xlink:href="#f1_l" transform="matrix(12,0,0,12,542.7,581.3)" />
<use xlink:href="#f1_15" transform="matrix(12,0,0,12,554.3,581.3)" />
<use xlink:href="#f1_c" transform="matrix(12,0,0,12,568.4,581.3)" />
<use xlink:href="#f1_r" transform="matrix(12,0,0,12,579.6,581.3)" />
<use xlink:href="#f1_n" transform="matrix(12,0,0,12,591.3,581.3)" />
<use xlink:href="#f1_i" transform="matrix(12,0,0,12,602.9,581.3)" />
<use xlink:href="#f1_4" transform="matrix(12,0,0,12,607.9,581.3)" />
<use xlink:href="#f1_1n" transform="matrix(12,0,0,12,619.2,581.3)" />
<use xlink:href="#f1_o" transform="matrix(12,0,0,12,625.9,581.3)" />
<use xlink:href="#f1_i" transform="matrix(12,0,0,12,636,581.3)" />
<use xlink:href="#f1_7" transform="matrix(12,0,0,12,641,581.3)" />
<use xlink:href="#f1_o" transform="matrix(12,0,0,12,646,581.3)" />
<use xlink:href="#f1_10" transform="matrix(12,0,0,12,656.1,581.3)" />
<use xlink:href="#f1_a" transform="matrix(12,0,0,12,672.6,581.3)" />
<use xlink:href="#f1_3" transform="matrix(12,0,0,12,679.8,581.3)" />
<use xlink:href="#f1_7" transform="matrix(12,0,0,12,691.4,581.3)" />
<use xlink:href="#f1_9" transform="matrix(12,0,0,12,696.4,581.3)" />
<use xlink:href="#f1_6" transform="matrix(12,0,0,12,711.8,581.3)" />
<use xlink:href="#f1_7" transform="matrix(12,0,0,12,718.3,581.3)" />
<use xlink:href="#f1_i" transform="matrix(12,0,0,12,723.4,581.3)" />
<use xlink:href="#f1_4" transform="matrix(12,0,0,12,728.5,581.3)" />
<use xlink:href="#f1_a" transform="matrix(12,0,0,12,745.6,581.3)" />
<use xlink:href="#f1_c" transform="matrix(12,0,0,12,752.8,581.3)" />
</g>
</g>
<path fill-rule="evenodd" d="M86.6,615.5H684.3V594.2H86.6v21.3Z" class="g0_31" />
<g clip-path="url(#c0_31)">
<g fill="#000000" >
<use xlink:href="#f1_7" transform="matrix(12,0,0,12,86.8,611.3)" />
<use xlink:href="#f1_h" transform="matrix(12,0,0,12,91.8,611.3)" />
<use xlink:href="#f1_9" transform="matrix(12,0,0,12,103.4,611.3)" />
<use xlink:href="#f1_a" transform="matrix(12,0,0,12,113,611.3)" />
<use xlink:href="#f1_g" transform="matrix(12,0,0,12,120.2,611.3)" />
<use xlink:href="#f1_i" transform="matrix(12,0,0,12,131.5,611.3)" />
<use xlink:href="#f1_i" transform="matrix(12,0,0,12,136.6,611.3)" />
<use xlink:href="#f1_7" transform="matrix(12,0,0,12,147.5,611.3)" />
<use xlink:href="#f1_a" transform="matrix(12,0,0,12,152.6,611.3)" />
<use xlink:href="#f1_l" transform="matrix(12,0,0,12,159.8,611.3)" />
<use xlink:href="#f1_z" transform="matrix(12,0,0,12,171.4,611.3)" />
<use xlink:href="#f1_a" transform="matrix(12,0,0,12,176.7,611.3)" />
<use xlink:href="#f1_y" transform="matrix(12,0,0,12,189.9,611.3)" />
<use xlink:href="#f1_7" transform="matrix(12,0,0,12,204.8,611.3)" />
<use xlink:href="#f1_i" transform="matrix(12,0,0,12,209.9,611.3)" />
<use xlink:href="#f1_i" transform="matrix(12,0,0,12,215.1,611.3)" />
<use xlink:href="#f1_c" transform="matrix(12,0,0,12,225.9,611.3)" />
<use xlink:href="#f1_b" transform="matrix(12,0,0,12,237.1,611.3)" />
<use xlink:href="#f1_4" transform="matrix(12,0,0,12,248.7,611.3)" />
<use xlink:href="#f1_h" transform="matrix(12,0,0,12,260,611.3)" />
<use xlink:href="#f1_1l" transform="matrix(12,0,0,12,277.5,611.3)" />
<use xlink:href="#f1_4" transform="matrix(12,0,0,12,288.7,611.3)" />
<use xlink:href="#f1_t" transform="matrix(12,0,0,12,300,611.3)" />
<use xlink:href="#f1_o" transform="matrix(12,0,0,12,310.8,611.3)" />
<use xlink:href="#f1_3" transform="matrix(12,0,0,12,320.9,611.3)" />
<use xlink:href="#f1_g" transform="matrix(12,0,0,12,332.3,611.3)" />
<use xlink:href="#f1_7" transform="matrix(12,0,0,12,343.6,611.3)" />
<use xlink:href="#f1_h" transform="matrix(12,0,0,12,348.7,611.3)" />
<use xlink:href="#f1_d" transform="matrix(12,0,0,12,366.2,611.3)" />
<use xlink:href="#f1_o" transform="matrix(12,0,0,12,378.4,611.3)" />
<use xlink:href="#f1_o" transform="matrix(12,0,0,12,388.5,611.3)" />
<use xlink:href="#f1_4" transform="matrix(12,0,0,12,398.6,611.3)" />
<use xlink:href="#f1_9" transform="matrix(12,0,0,12,409.7,611.3)" />
<use xlink:href="#f1_9" transform="matrix(12,0,0,12,419.3,611.3)" />
<use xlink:href="#f1_g" transform="matrix(12,0,0,12,434.7,611.3)" />
<use xlink:href="#f1_f" transform="matrix(12,0,0,12,445.9,611.3)" />
<use xlink:href="#f1_g" transform="matrix(12,0,0,12,457.5,611.3)" />
<use xlink:href="#f1_7" transform="matrix(12,0,0,12,468.8,611.3)" />
<use xlink:href="#f1_h" transform="matrix(12,0,0,12,473.8,611.3)" />
<use xlink:href="#f1_7" transform="matrix(12,0,0,12,491.2,611.3)" />
<use xlink:href="#f1_h" transform="matrix(12,0,0,12,496.3,611.3)" />
<use xlink:href="#f1_o" transform="matrix(12,0,0,12,513.9,611.3)" />
<use xlink:href="#f1_g" transform="matrix(12,0,0,12,523.9,611.3)" />
<use xlink:href="#f1_9" transform="matrix(12,0,0,12,535.1,611.3)" />
<use xlink:href="#f1_4" transform="matrix(12,0,0,12,544.7,611.3)" />
<use xlink:href="#f1_t" transform="matrix(12,0,0,12,561.8,611.3)" />
<use xlink:href="#f1_c" transform="matrix(12,0,0,12,572.6,611.3)" />
<use xlink:href="#f1_r" transform="matrix(12,0,0,12,583.8,611.3)" />
<use xlink:href="#f1_o" transform="matrix(12,0,0,12,601.3,611.3)" />
<use xlink:href="#f1_i" transform="matrix(12,0,0,12,611.4,611.3)" />
<use xlink:href="#f1_c" transform="matrix(12,0,0,12,616.4,611.3)" />
<use xlink:href="#f1_9" transform="matrix(12,0,0,12,627.6,611.3)" />
<use xlink:href="#f1_4" transform="matrix(12,0,0,12,637.2,611.3)" />
<use xlink:href="#f1_j" transform="matrix(12,0,0,12,648.5,611.3)" />
<use xlink:href="#f1_7" transform="matrix(12,0,0,12,665.9,611.3)" />
<use xlink:href="#f1_a" transform="matrix(12,0,0,12,670.9,611.3)" />
<use xlink:href="#f1_l" transform="matrix(12,0,0,12,678.1,611.3)" />
<use xlink:href="#f1_m" transform="matrix(12,0,0,12,86.8,783.1)" />
<use xlink:href="#f1_c" transform="matrix(12,0,0,12,100.5,783.1)" />
<use xlink:href="#f1_y" transform="matrix(12,0,0,12,111.7,783.1)" />
<use xlink:href="#f1_i" transform="matrix(12,0,0,12,132.6,783.1)" />
<use xlink:href="#f1_c" transform="matrix(12,0,0,12,137.6,783.1)" />
<use xlink:href="#f1_c" transform="matrix(12,0,0,12,148.8,783.1)" />
<use xlink:href="#f1_10" transform="matrix(12,0,0,12,159.9,783.1)" />
<use xlink:href="#f1_7" transform="matrix(12,0,0,12,176.5,783.1)" />
<use xlink:href="#f1_h" transform="matrix(12,0,0,12,181.6,783.1)" />
<use xlink:href="#f1_1l" transform="matrix(12,0,0,12,199,783.1)" />
<use xlink:href="#f1_4" transform="matrix(12,0,0,12,210.1,783.1)" />
<use xlink:href="#f1_t" transform="matrix(12,0,0,12,221.4,783.1)" />
<use xlink:href="#f1_o" transform="matrix(12,0,0,12,232.3,783.1)" />
<use xlink:href="#f1_3" transform="matrix(12,0,0,12,242.3,783.1)" />
<use xlink:href="#f1_g" transform="matrix(12,0,0,12,253.8,783.1)" />
<use xlink:href="#f1_7" transform="matrix(12,0,0,12,265.1,783.1)" />
<use xlink:href="#f1_h" transform="matrix(12,0,0,12,270.1,783.1)" />
<use xlink:href="#f1_d" transform="matrix(12,0,0,12,287.7,783.1)" />
<use xlink:href="#f1_o" transform="matrix(12,0,0,12,299.9,783.1)" />
<use xlink:href="#f1_o" transform="matrix(12,0,0,12,310,783.1)" />
<use xlink:href="#f1_4" transform="matrix(12,0,0,12,320,783.1)" />
<use xlink:href="#f1_9" transform="matrix(12,0,0,12,331.2,783.1)" />
<use xlink:href="#f1_9" transform="matrix(12,0,0,12,340.8,783.1)" />
<use xlink:href="#f1_g" transform="matrix(12,0,0,12,356.2,783.1)" />
<use xlink:href="#f1_h" transform="matrix(12,0,0,12,367.4,783.1)" />
<use xlink:href="#f1_j" transform="matrix(12,0,0,12,379,783.1)" />
<use xlink:href="#f1_t" transform="matrix(12,0,0,12,396.5,783.1)" />
<use xlink:href="#f1_c" transform="matrix(12,0,0,12,407.4,783.1)" />
<use xlink:href="#f1_r" transform="matrix(12,0,0,12,418.5,783.1)" />
<use xlink:href="#f1_y" transform="matrix(12,0,0,12,435.9,783.1)" />
<use xlink:href="#f1_7" transform="matrix(12,0,0,12,450.9,783.1)" />
<use xlink:href="#f1_i" transform="matrix(12,0,0,12,456.1,783.1)" />
<use xlink:href="#f1_i" transform="matrix(12,0,0,12,461.1,783.1)" />
<use xlink:href="#f1_9" transform="matrix(12,0,0,12,472.1,783.1)" />
<use xlink:href="#f1_4" transform="matrix(12,0,0,12,481.6,783.1)" />
<use xlink:href="#f1_4" transform="matrix(12,0,0,12,492.9,783.1)" />
<use xlink:href="#f1_t" transform="matrix(12,0,0,12,510,783.1)" />
<use xlink:href="#f1_c" transform="matrix(12,0,0,12,520.8,783.1)" />
<use xlink:href="#f1_r" transform="matrix(12,0,0,12,531.9,783.1)" />
<use xlink:href="#f1_8" transform="matrix(12,0,0,12,543.6,783.1)" />
<use xlink:href="#f1_a" transform="matrix(12,0,0,12,557,783.1)" />
<use xlink:href="#f1_y" transform="matrix(12,0,0,12,564.2,783.1)" />
<use xlink:href="#f1_c" transform="matrix(12,0,0,12,579.2,783.1)" />
<use xlink:href="#f1_7" transform="matrix(12,0,0,12,596.3,783.1)" />
<use xlink:href="#f1_h" transform="matrix(12,0,0,12,601.3,783.1)" />
<use xlink:href="#f1_9" transform="matrix(12,0,0,12,612.9,783.1)" />
<use xlink:href="#f1_a" transform="matrix(12,0,0,12,622.5,783.1)" />
<use xlink:href="#f1_g" transform="matrix(12,0,0,12,629.5,783.1)" />
<use xlink:href="#f1_i" transform="matrix(12,0,0,12,640.8,783.1)" />
<use xlink:href="#f1_i" transform="matrix(12,0,0,12,646,783.1)" />
<use xlink:href="#f1_4" transform="matrix(12,0,0,12,651,783.1)" />
<use xlink:href="#f1_j" transform="matrix(12,0,0,12,662.3,783.1)" />
<use xlink:href="#f1_o" transform="matrix(12,0,0,12,679.8,783.1)" />
<use xlink:href="#f1_4" transform="matrix(12,0,0,12,689.8,783.1)" />
<use xlink:href="#f1_8" transform="matrix(12,0,0,12,701.1,783.1)" />
<use xlink:href="#f1_a" transform="matrix(12,0,0,12,708.6,783.1)" />
<use xlink:href="#f1_7" transform="matrix(12,0,0,12,715.8,783.1)" />
<use xlink:href="#f1_6" transform="matrix(12,0,0,12,720.9,783.1)" />
<use xlink:href="#f1_7" transform="matrix(12,0,0,12,727.4,783.1)" />
<use xlink:href="#f1_o" transform="matrix(12,0,0,12,732.4,783.1)" />
<use xlink:href="#f1_g" transform="matrix(12,0,0,12,742.5,783.1)" />
<use xlink:href="#f1_a" transform="matrix(12,0,0,12,753.8,783.1)" />
<use xlink:href="#f1_4" transform="matrix(12,0,0,12,760.9,783.1)" />
<use xlink:href="#f1_9" transform="matrix(12,0,0,12,772.1,783.1)" />
<use xlink:href="#f1_g" transform="matrix(12,0,0,12,787.6,783.1)" />
<use xlink:href="#f1_9" transform="matrix(12,0,0,12,798.8,783.1)" />
<use xlink:href="#f1_6" transform="matrix(12,0,0,12,86.8,811.7)" />
<use xlink:href="#f1_c" transform="matrix(12,0,0,12,93.2,811.7)" />
<use xlink:href="#f1_i" transform="matrix(12,0,0,12,104.5,811.7)" />
<use xlink:href="#f1_i" transform="matrix(12,0,0,12,109.5,811.7)" />
<use xlink:href="#f1_c" transform="matrix(12,0,0,12,114.7,811.7)" />
<use xlink:href="#f1_y" transform="matrix(12,0,0,12,125.8,811.7)" />
<use xlink:href="#f1_9" transform="matrix(12,0,0,12,140.8,811.7)" />
<use xlink:href="#f1_12" transform="matrix(12,0,0,12,150.4,811.7)" />
</g>
</g>
<path fill-rule="evenodd" d="M86.6,1170.7h52.1v-23.5H86.6v23.5Z" class="g0_31" />
<g clip-path="url(#c0_31)">
<g fill="#0000FF" >
<use xlink:href="#f0_1e" transform="matrix(12,0,0,12,86.8,1165.1)" />
<use xlink:href="#f0_2b" transform="matrix(12,0,0,12,100.1,1165.1)" />
<use xlink:href="#f0_2g" transform="matrix(12,0,0,12,111.2,1165.1)" />
<use xlink:href="#f0_21" transform="matrix(12,0,0,12,117.3,1165.1)" />
<use xlink:href="#f0_u" transform="matrix(12,0,0,12,127.5,1165.1)" />
</g>
</g>
<path fill-rule="evenodd" d="M138.7,1169.5H422.6v-21.4H138.7v21.4Z" class="g0_31" />
<g clip-path="url(#c0_31)">
<g fill="#000000" >
<use xlink:href="#f1_z" transform="matrix(12,0,0,12,138.9,1165.1)" />
<use xlink:href="#f1_6" transform="matrix(12,0,0,12,144.2,1165.1)" />
<use xlink:href="#f1_t" transform="matrix(12,0,0,12,156.6,1165.1)" />
<use xlink:href="#f1_c" transform="matrix(12,0,0,12,167.4,1165.1)" />
<use xlink:href="#f1_r" transform="matrix(12,0,0,12,178.6,1165.1)" />
<use xlink:href="#f1_j" transform="matrix(12,0,0,12,196,1165.1)" />
<use xlink:href="#f1_c" transform="matrix(12,0,0,12,207.6,1165.1)" />
<use xlink:href="#f1_h" transform="matrix(12,0,0,12,224.7,1165.1)" />
<use xlink:href="#f1_c" transform="matrix(12,0,0,12,236.3,1165.1)" />
<use xlink:href="#f1_a" transform="matrix(12,0,0,12,247.4,1165.1)" />
<use xlink:href="#f1_9" transform="matrix(12,0,0,12,260.6,1165.1)" />
<use xlink:href="#f1_4" transform="matrix(12,0,0,12,270,1165.1)" />
<use xlink:href="#f1_4" transform="matrix(12,0,0,12,281.3,1165.1)" />
<use xlink:href="#f1_a" transform="matrix(12,0,0,12,298.4,1165.1)" />
<use xlink:href="#f1_3" transform="matrix(12,0,0,12,305.6,1165.1)" />
<use xlink:href="#f1_4" transform="matrix(12,0,0,12,317.2,1165.1)" />
<use xlink:href="#f1_p" transform="matrix(12,0,0,12,334.3,1165.1)" />
<use xlink:href="#f1_4" transform="matrix(12,0,0,12,352.2,1165.1)" />
<use xlink:href="#f1_9" transform="matrix(12,0,0,12,363.5,1165.1)" />
<use xlink:href="#f1_9" transform="matrix(12,0,0,12,373,1165.1)" />
<use xlink:href="#f1_g" transform="matrix(12,0,0,12,382.6,1165.1)" />
<use xlink:href="#f1_f" transform="matrix(12,0,0,12,393.9,1165.1)" />
<use xlink:href="#f1_4" transform="matrix(12,0,0,12,405.5,1165.1)" />
</g>
</g>
<path fill-rule="evenodd" d="M422.6,1170.7H624.4v-23.5H422.6v23.5Z" class="g0_31" />
<g clip-path="url(#c0_31)">
<g fill="#0000FF" >
<use xlink:href="#f0_1k" transform="matrix(12,0,0,12,422.7,1165.1)" />
<use xlink:href="#f0_24" transform="matrix(12,0,0,12,433.9,1165.1)" />
<use xlink:href="#f0_25" transform="matrix(12,0,0,12,445,1165.1)" />
<use xlink:href="#f0_2f" transform="matrix(12,0,0,12,450.2,1165.1)" />
<use xlink:href="#f0_1z" transform="matrix(12,0,0,12,465.5,1165.1)" />
<use xlink:href="#f0_21" transform="matrix(12,0,0,12,475.5,1165.1)" />
<use xlink:href="#f0_2e" transform="matrix(12,0,0,12,486.1,1165.1)" />
<use xlink:href="#f0_2g" transform="matrix(12,0,0,12,493.2,1165.1)" />
<use xlink:href="#f0_25" transform="matrix(12,0,0,12,499.3,1165.1)" />
<use xlink:href="#f0_22" transform="matrix(12,0,0,12,504.5,1165.1)" />
<use xlink:href="#f0_25" transform="matrix(12,0,0,12,510.5,1165.1)" />
<use xlink:href="#f0_1z" transform="matrix(12,0,0,12,515.6,1165.1)" />
<use xlink:href="#f0_1x" transform="matrix(12,0,0,12,525.8,1165.1)" />
<use xlink:href="#f0_2g" transform="matrix(12,0,0,12,535.9,1165.1)" />
<use xlink:href="#f0_21" transform="matrix(12,0,0,12,542,1165.1)" />
<use xlink:href="#f0_25" transform="matrix(12,0,0,12,557.3,1165.1)" />
<use xlink:href="#f0_2f" transform="matrix(12,0,0,12,562.5,1165.1)" />
<use xlink:href="#f0_2i" transform="matrix(12,0,0,12,577.7,1165.1)" />
<use xlink:href="#f0_1x" transform="matrix(12,0,0,12,587.6,1165.1)" />
<use xlink:href="#f0_28" transform="matrix(12,0,0,12,597.9,1165.1)" />
<use xlink:href="#f0_25" transform="matrix(12,0,0,12,602.9,1165.1)" />
<use xlink:href="#f0_20" transform="matrix(12,0,0,12,607.9,1165.1)" />
</g>
</g>
<path fill-rule="evenodd" d="M624.4,1169.5H805.3v-21.4H624.4v21.4Z" class="g0_31" />
<g clip-path="url(#c0_31)">
<g fill="#000000" >
<use xlink:href="#f1_y" transform="matrix(12,0,0,12,624.6,1165.1)" />
<use xlink:href="#f1_7" transform="matrix(12,0,0,12,639.5,1165.1)" />
<use xlink:href="#f1_a" transform="matrix(12,0,0,12,644.6,1165.1)" />
<use xlink:href="#f1_3" transform="matrix(12,0,0,12,651.8,1165.1)" />
<use xlink:href="#f1_g" transform="matrix(12,0,0,12,669.3,1165.1)" />
<use xlink:href="#f1_f" transform="matrix(12,0,0,12,686.3,1165.1)" />
<use xlink:href="#f1_8" transform="matrix(12,0,0,12,698,1165.1)" />
<use xlink:href="#f1_4" transform="matrix(12,0,0,12,705,1165.1)" />
<use xlink:href="#f1_4" transform="matrix(12,0,0,12,716.3,1165.1)" />
<use xlink:href="#f1_h" transform="matrix(12,0,0,12,727.6,1165.1)" />
<use xlink:href="#f1_o" transform="matrix(12,0,0,12,745,1165.1)" />
<use xlink:href="#f1_3" transform="matrix(12,0,0,12,755.1,1165.1)" />
<use xlink:href="#f1_4" transform="matrix(12,0,0,12,766.7,1165.1)" />
<use xlink:href="#f1_o" transform="matrix(12,0,0,12,778,1165.1)" />
<use xlink:href="#f1_10" transform="matrix(12,0,0,12,787.9,1165.1)" />
<use xlink:href="#f1_1n" transform="matrix(12,0,0,12,798.6,1165.1)" />
</g>
</g>
<path fill-rule="evenodd" d="M86.6,1199.5H809.4v-21.4H86.6v21.4Z" class="g0_31" />
<g clip-path="url(#c0_31)">
<g fill="#000000" >
<use xlink:href="#f1_p" transform="matrix(12,0,0,12,86.8,1195)" />
<use xlink:href="#f1_g" transform="matrix(12,0,0,12,104.6,1195)" />
<use xlink:href="#f1_8" transform="matrix(12,0,0,12,115.9,1195)" />
<use xlink:href="#f1_10" transform="matrix(12,0,0,12,123.4,1195)" />
<use xlink:href="#f1_q" transform="matrix(12,0,0,12,134.1,1195)" />
<use xlink:href="#f1_a" transform="matrix(12,0,0,12,145.7,1195)" />
<use xlink:href="#f1_3" transform="matrix(12,0,0,12,152.9,1195)" />
<use xlink:href="#f1_4" transform="matrix(12,0,0,12,164.5,1195)" />
<use xlink:href="#f1_h" transform="matrix(12,0,0,12,175.8,1195)" />
<use xlink:href="#f1_t" transform="matrix(12,0,0,12,193.2,1195)" />
<use xlink:href="#f1_c" transform="matrix(12,0,0,12,204,1195)" />
<use xlink:href="#f1_r" transform="matrix(12,0,0,12,215.2,1195)" />
<use xlink:href="#f1_3" transform="matrix(12,0,0,12,232.7,1195)" />
<use xlink:href="#f1_g" transform="matrix(12,0,0,12,244.2,1195)" />
<use xlink:href="#f1_k" transform="matrix(12,0,0,12,255.5,1195)" />
<use xlink:href="#f1_4" transform="matrix(12,0,0,12,266.3,1195)" />
<use xlink:href="#f1_4" transform="matrix(12,0,0,12,283.4,1195)" />
<use xlink:href="#f1_7" transform="matrix(12,0,0,12,294.7,1195)" />
<use xlink:href="#f1_a" transform="matrix(12,0,0,12,299.8,1195)" />
<use xlink:href="#f1_3" transform="matrix(12,0,0,12,307,1195)" />
<use xlink:href="#f1_4" transform="matrix(12,0,0,12,318.6,1195)" />
<use xlink:href="#f1_8" transform="matrix(12,0,0,12,329.9,1195)" />
<use xlink:href="#f1_h" transform="matrix(12,0,0,12,343.3,1195)" />
<use xlink:href="#f1_c" transform="matrix(12,0,0,12,354.9,1195)" />
<use xlink:href="#f1_a" transform="matrix(12,0,0,12,366,1195)" />
<use xlink:href="#f1_i" transform="matrix(12,0,0,12,379.2,1195)" />
<use xlink:href="#f1_g" transform="matrix(12,0,0,12,384.2,1195)" />
<use xlink:href="#f1_r" transform="matrix(12,0,0,12,395.5,1195)" />
<use xlink:href="#f1_h" transform="matrix(12,0,0,12,407.1,1195)" />
<use xlink:href="#f1_o" transform="matrix(12,0,0,12,418.7,1195)" />
<use xlink:href="#f1_3" transform="matrix(12,0,0,12,428.8,1195)" />
<use xlink:href="#f1_4" transform="matrix(12,0,0,12,440.4,1195)" />
<use xlink:href="#f1_j" transform="matrix(12,0,0,12,451.7,1195)" />
<use xlink:href="#f1_1o" transform="matrix(12,0,0,12,469.1,1195)" />
<use xlink:href="#f1_o" transform="matrix(12,0,0,12,481.6,1195)" />
<use xlink:href="#f1_c" transform="matrix(12,0,0,12,491.7,1195)" />
<use xlink:href="#f1_j" transform="matrix(12,0,0,12,502.8,1195)" />
<use xlink:href="#f1_4" transform="matrix(12,0,0,12,514.4,1195)" />
<use xlink:href="#f1_t" transform="matrix(12,0,0,12,531.7,1195)" />
<use xlink:href="#f1_4" transform="matrix(12,0,0,12,542.5,1195)" />
<use xlink:href="#f1_a" transform="matrix(12,0,0,12,553.8,1195)" />
<use xlink:href="#f1_q" transform="matrix(12,0,0,12,561,1195)" />
<use xlink:href="#f1_c" transform="matrix(12,0,0,12,572.6,1195)" />
<use xlink:href="#f1_8" transform="matrix(12,0,0,12,583.8,1195)" />
<use xlink:href="#f1_t" transform="matrix(12,0,0,12,597.2,1195)" />
<use xlink:href="#f1_c" transform="matrix(12,0,0,12,608,1195)" />
<use xlink:href="#f1_r" transform="matrix(12,0,0,12,619.2,1195)" />
<use xlink:href="#f1_h" transform="matrix(12,0,0,12,636.7,1195)" />
<use xlink:href="#f1_4" transform="matrix(12,0,0,12,648.3,1195)" />
<use xlink:href="#f1_4" transform="matrix(12,0,0,12,659.5,1195)" />
<use xlink:href="#f1_j" transform="matrix(12,0,0,12,670.8,1195)" />
<use xlink:href="#f1_a" transform="matrix(12,0,0,12,688.3,1195)" />
<use xlink:href="#f1_c" transform="matrix(12,0,0,12,695.5,1195)" />
<use xlink:href="#f1_7" transform="matrix(12,0,0,12,712.5,1195)" />
<use xlink:href="#f1_h" transform="matrix(12,0,0,12,717.5,1195)" />
<use xlink:href="#f1_9" transform="matrix(12,0,0,12,729.1,1195)" />
<use xlink:href="#f1_a" transform="matrix(12,0,0,12,738.7,1195)" />
<use xlink:href="#f1_g" transform="matrix(12,0,0,12,745.9,1195)" />
<use xlink:href="#f1_i" transform="matrix(12,0,0,12,757.2,1195)" />
<use xlink:href="#f1_i" transform="matrix(12,0,0,12,762.3,1195)" />
<use xlink:href="#f1_a" transform="matrix(12,0,0,12,773.3,1195)" />
<use xlink:href="#f1_3" transform="matrix(12,0,0,12,780.4,1195)" />
<use xlink:href="#f1_4" transform="matrix(12,0,0,12,792,1195)" />
</g>
</g>
<image preserveAspectRatio="none" x="87" y="259" width="736" height="278" xlink:href="img/1.png" />
<image preserveAspectRatio="none" x="87" y="816" width="736" height="305" xlink:href="img/2.png" />
<defs>
<path d="M102,0V1051H354L818,235c0,0,-13,113,-13,205v611h195V0H742L284,809c0,0,14,-117,14,-189V0Z" 
id="f0_1e"
transform="scale(0.001,-0.001)" />

<path d="M461,129c0,0,193,0,193,276c0,0,0,144,-47,209c0,0,-47,65,-136,65c0,0,-191,0,-191,-274c0,0,0,-135,46,-205c0,0,47,-71,135,-71Zm2,-143c0,0,-188,0,-296,111C167,97,60,209,60,405c0,0,0,194,107,306c0,0,108,111,301,111c0,0,197,0,301,-107c0,0,105,-108,105,-310c0,0,0,-197,-109,-308C765,97,656,-14,463,-14Z" 
id="f0_2b"
transform="scale(0.001,-0.001)" />

<path d="M313,-13c0,0,-92,0,-142,50c0,0,-50,50,-50,152V666H19V808H131l66,189H328V808H481V666H328V245c0,0,0,-59,23,-87c0,0,22,-28,69,-28c0,0,25,0,70,10V11c0,0,-77,-24,-177,-24Z" 
id="f0_2g"
transform="scale(0.001,-0.001)" />

<path d="M595,495c0,0,-6,98,-47,147c0,0,-41,49,-111,49c0,0,-74,0,-114,-51c0,0,-40,-52,-42,-145ZM437,-14c0,0,-182,0,-280,107c0,0,-97,108,-97,315c0,0,0,199,99,307c0,0,99,107,281,107c0,0,174,0,266,-115c0,0,91,-115,91,-337v-6H280c0,0,0,-118,43,-179c0,0,44,-60,125,-60c0,0,111,0,140,97L786,205c0,0,-86,-219,-349,-219Z" 
id="f0_21"
transform="scale(0.001,-0.001)" />

<path d="M147,0V209H362V0Zm0,562V771H362V562Z" 
id="f0_u"
transform="scale(0.001,-0.001)" />

<path d="M391,0V530L-2,1114H159L468,656l307,458H937L543,530V0Z" 
id="f1_x"
transform="scale(0.001,-0.001)" />

<path d="M467,95c0,0,110,0,174,86c0,0,64,87,64,236c0,0,0,148,-64,235c0,0,-64,87,-174,87c0,0,-110,0,-174,-86c0,0,-64,-86,-64,-236c0,0,0,-150,64,-236c0,0,63,-86,174,-86Zm0,-115c0,0,-179,0,-281,115C186,95,84,212,84,417c0,0,0,206,102,322c0,0,102,117,281,117c0,0,179,0,282,-117c0,0,102,-116,102,-322c0,0,0,-205,-102,-322C749,95,646,-20,467,-20Z" 
id="f1_c"
transform="scale(0.001,-0.001)" />

<path d="M424,-20c0,0,-145,0,-219,88c0,0,-75,89,-75,262V836H267V335c0,0,0,-119,46,-178c0,0,47,-59,139,-59c0,0,112,0,177,71c0,0,64,71,64,193V836H830V0H693V128C693,128,643,52,577,15c0,0,-66,-35,-153,-35Z" 
id="f1_r"
transform="scale(0.001,-0.001)" />

<path d="M139,0V836H277V706c0,0,47,77,112,113c0,0,66,37,156,37c0,0,91,0,155,-47c0,0,64,-46,94,-134c0,0,52,93,123,137c0,0,72,44,169,44c0,0,130,0,201,-92c0,0,71,-91,71,-260V0H1220V500c0,0,0,120,-42,178c0,0,-43,58,-130,58c0,0,-107,0,-169,-71c0,0,-62,-70,-62,-193V0H680V500c0,0,0,121,-43,179c0,0,-42,57,-131,57c0,0,-105,0,-167,-71c0,0,-62,-71,-62,-193V0Z" 
id="f1_p"
transform="scale(0.001,-0.001)" />

<path d="M408,93c0,0,115,0,184,81c0,0,69,81,69,215v30H524c0,0,-167,0,-231,-38c0,0,-64,-38,-64,-129c0,0,0,-73,48,-116c0,0,48,-43,131,-43ZM372,-20c0,0,-128,0,-204,70c0,0,-76,72,-76,193c0,0,0,141,94,212c0,0,95,72,282,72H661v13c0,0,0,95,-62,147c0,0,-63,52,-175,52c0,0,-72,0,-140,-17c0,0,-68,-17,-130,-51V798c0,0,75,29,146,43c0,0,71,15,138,15c0,0,181,0,270,-95c0,0,90,-94,90,-285V0H661V127C661,127,614,51,544,15c0,0,-70,-35,-172,-35Z" 
id="f1_g"
transform="scale(0.001,-0.001)" />

<path d="M121,-317v116h81c0,0,57,0,88,26c0,0,31,27,69,127l25,62L46,836H191L453,182L714,836H859L492,-76c0,0,-58,-150,-113,-195c0,0,-55,-46,-148,-46Z" 
id="f1_t"
transform="scale(0.001,-0.001)" />

<path d="M139,0V1161H277V706c0,0,49,75,116,112c0,0,67,38,154,38c0,0,144,0,218,-90c0,0,74,-89,74,-262V0H702V500c0,0,0,119,-46,177c0,0,-47,59,-139,59c0,0,-112,0,-176,-71c0,0,-64,-70,-64,-193V0Z" 
id="f1_3"
transform="scale(0.001,-0.001)" />

<path d="M359,0L46,836H191L453,134L714,836H859L546,0Z" 
id="f1_k"
transform="scale(0.001,-0.001)" />

<path d="M231,492l491,1c0,0,-2,112,-64,179c0,0,-61,67,-163,67c0,0,-115,0,-184,-65c0,0,-69,-64,-80,-182ZM517,-20c0,0,-199,0,-316,115C201,95,84,211,84,410c0,0,0,205,111,325c0,0,111,121,299,121c0,0,168,0,266,-109c0,0,98,-108,98,-295V385H227c0,0,9,-142,85,-216c0,0,77,-74,213,-74c0,0,80,0,154,19c0,0,74,19,147,58V42C826,42,752,11,675,-4c0,0,-78,-16,-158,-16Z" 
id="f1_4"
transform="scale(0.001,-0.001)" />

<path d="M376,-20c0,0,-67,0,-140,12C236,-8,164,4,83,30V172c0,0,76,-40,150,-59c0,0,74,-20,146,-20c0,0,97,0,150,33c0,0,52,33,52,94c0,0,0,56,-38,85c0,0,-38,30,-165,58l-48,11c0,0,-128,27,-184,83c0,0,-57,55,-57,152c0,0,0,118,83,182c0,0,84,65,238,65c0,0,76,0,143,-12c0,0,67,-11,124,-33V681c0,0,-58,29,-121,44c0,0,-63,15,-130,15c0,0,-102,0,-153,-31c0,0,-51,-31,-51,-94c0,0,0,-48,37,-75c0,0,36,-27,147,-52l46,-10c0,0,147,-32,208,-89c0,0,62,-57,62,-159c0,0,0,-116,-93,-184c0,0,-92,-66,-253,-66Z" 
id="f1_9"
transform="scale(0.001,-0.001)" />

<path d="M139,0V836H277V706c0,0,49,75,116,112c0,0,67,38,154,38c0,0,144,0,218,-90c0,0,74,-89,74,-262V0H702V500c0,0,0,119,-46,177c0,0,-47,59,-139,59c0,0,-112,0,-176,-71c0,0,-64,-70,-64,-193V0Z" 
id="f1_h"
transform="scale(0.001,-0.001)" />

<path d="M421,0C421,0,263,0,202,59c0,0,-60,60,-60,217V729H41V836H142v238H280V836H562V729H280V276c0,0,0,-102,28,-132c0,0,28,-29,113,-29H562V0Z" 
id="f1_a"
transform="scale(0.001,-0.001)" />

<path d="M44,0L369,437L71,836H233L455,538L677,836H839L537,429L855,0H693L449,328L206,0Z" 
id="f1_14"
transform="scale(0.001,-0.001)" />

<path d="M510,93c0,0,109,0,171,86c0,0,62,86,62,238c0,0,0,151,-62,237c0,0,-62,86,-171,86c0,0,-109,0,-171,-86c0,0,-62,-86,-62,-237c0,0,0,-152,62,-238c0,0,62,-86,171,-86ZM544,-20c0,0,-92,0,-158,35c0,0,-66,36,-109,110V0H139V1161H277V709c0,0,43,74,109,110c0,0,66,37,158,37c0,0,152,0,247,-121c0,0,95,-121,95,-318c0,0,0,-197,-95,-318C791,99,696,-20,544,-20Z" 
id="f1_n"
transform="scale(0.001,-0.001)" />

<path d="M166,0V729H35V836H166v58c0,0,0,139,65,203c0,0,65,64,206,64H567V1046H435c0,0,-74,0,-102,-29c0,0,-29,-30,-29,-107V836H530V729H304V0Z" 
id="f1_6"
transform="scale(0.001,-0.001)" />

<path d="M495,-20c0,0,-189,0,-300,117C195,97,84,216,84,417c0,0,0,204,112,321c0,0,113,118,308,118c0,0,64,0,124,-14c0,0,60,-13,117,-39V675c0,0,-58,32,-117,48c0,0,-58,16,-118,16c0,0,-133,0,-207,-84c0,0,-74,-85,-74,-238c0,0,0,-153,74,-238c0,0,74,-84,207,-84c0,0,60,0,118,16c0,0,59,16,117,48V32C745,32,688,5,626,-7c0,0,-61,-13,-131,-13Z" 
id="f1_o"
transform="scale(0.001,-0.001)" />

<path d="M139,0V836H277V706c0,0,43,76,112,113c0,0,70,37,169,37c0,0,14,0,31,-2c0,0,17,-2,38,-6l1,-141c0,0,-23,14,-51,20c0,0,-27,6,-60,6c0,0,-116,0,-178,-75c0,0,-62,-76,-62,-218V0Z" 
id="f1_8"
transform="scale(0.001,-0.001)" />

<path d="M144,0V1161H281V0Z" 
id="f1_i"
transform="scale(0.001,-0.001)" />

<path d="M144,0V836H281V0Zm0,987v174H281V987Z" 
id="f1_7"
transform="scale(0.001,-0.001)" />

<path d="M139,0V1161H277V475L686,836H861L418,445L880,0H701L277,408V0Z" 
id="f1_10"
transform="scale(0.001,-0.001)" />

<path d="M460,93c0,0,109,0,171,86c0,0,63,86,63,238c0,0,0,151,-63,237c0,0,-62,86,-171,86c0,0,-109,0,-172,-86c0,0,-62,-86,-62,-237c0,0,0,-152,62,-238c0,0,63,-86,172,-86ZM426,-20c0,0,-151,0,-247,119c0,0,-95,121,-95,318c0,0,0,197,95,318c0,0,96,121,247,121c0,0,93,0,159,-37c0,0,66,-36,109,-110v452H831V0H694V125C694,125,651,51,585,15c0,0,-66,-35,-159,-35Z" 
id="f1_j"
transform="scale(0.001,-0.001)" />

<path d="M130,747V876l123,238h96L287,876V747Zm306,0V876l123,238h96L594,876V747Z" 
id="f1_1j"
transform="scale(0.001,-0.001)" />

<path d="M630,-20c0,0,-253,0,-398,153C232,133,86,288,86,556c0,0,0,269,146,423c0,0,145,155,398,155c0,0,100,0,189,-26c0,0,88,-27,166,-79V869c0,0,-76,71,-163,106c0,0,-86,35,-183,35c0,0,-191,0,-292,-117C347,893,245,777,245,556c0,0,0,-220,102,-337c0,0,101,-116,292,-116c0,0,97,0,183,35c0,0,87,35,163,105V86C985,86,906,32,817,5c0,0,-88,-25,-187,-25Z" 
id="f1_18"
transform="scale(0.001,-0.001)" />

<path d="M129,747l62,239v128H348V986L225,747Zm306,0l62,239v128H654V986L531,747Z" 
id="f1_1k"
transform="scale(0.001,-0.001)" />

<path d="M460,115c0,0,111,0,173,82c0,0,61,82,61,230c0,0,0,149,-61,231c0,0,-62,82,-173,82c0,0,-111,0,-173,-82c0,0,-61,-82,-61,-231c0,0,0,-148,61,-230c0,0,62,-82,173,-82ZM446,-317c0,0,-72,0,-137,11c0,0,-64,11,-124,33v134c0,0,60,-33,119,-49c0,0,59,-15,121,-15c0,0,135,0,202,70c0,0,67,71,67,212v68C694,147,652,73,585,36C585,36,519,0,426,0C426,0,272,0,178,117c0,0,-94,117,-94,310c0,0,0,194,94,311c0,0,94,118,248,118c0,0,93,0,159,-37c0,0,67,-36,109,-110V836H831V104c0,0,0,-212,-95,-317c0,0,-94,-104,-290,-104Z" 
id="f1_f"
transform="scale(0.001,-0.001)" />

<path d="M102,0V1051H322V0Z" 
id="f0_19"
transform="scale(0.001,-0.001)" />

<path d="M107,0V627c0,0,0,65,-2,106c0,0,-2,42,-4,75H301c0,0,2,-15,6,-77c0,0,3,-61,3,-85h3c0,0,43,93,107,135c0,0,64,41,153,41c0,0,128,0,197,-79c0,0,68,-79,68,-231V0H630V452c0,0,0,213,-144,213c0,0,-76,0,-123,-65c0,0,-47,-66,-47,-168V0Z" 
id="f0_2a"
transform="scale(0.001,-0.001)" />

<path d="M107,0V618c0,0,0,66,-2,111c0,0,-2,44,-4,79H301c0,0,2,-14,6,-83c0,0,3,-68,3,-91h3c0,0,31,85,55,120c0,0,24,35,56,52c0,0,33,16,83,16c0,0,40,0,64,-11V636c0,0,-50,11,-89,11c0,0,-78,0,-122,-63c0,0,-44,-63,-44,-188V0Z" 
id="f0_2e"
transform="scale(0.001,-0.001)" />

<path d="M107,0V627c0,0,0,65,-2,106c0,0,-2,42,-4,75H301c0,0,2,-15,6,-77c0,0,3,-61,3,-85h3c0,0,39,93,97,135c0,0,58,41,138,41c0,0,185,0,225,-176h4c0,0,41,94,99,135c0,0,57,41,146,41c0,0,118,0,180,-80c0,0,62,-80,62,-230V0H1056V452c0,0,0,213,-123,213c0,0,-61,0,-100,-59c0,0,-39,-60,-43,-164V0H582V452c0,0,0,213,-122,213c0,0,-64,0,-104,-65c0,0,-40,-65,-40,-168V0Z" 
id="f0_29"
transform="scale(0.001,-0.001)" />

<path d="M446,129c0,0,83,0,128,73c0,0,46,72,46,206c0,0,0,131,-44,201c0,0,-43,71,-128,71c0,0,-85,0,-126,-69c0,0,-41,-68,-41,-208c0,0,0,-274,165,-274ZM357,-14c0,0,-141,0,-217,109c0,0,-77,110,-77,308c0,0,0,201,81,310c0,0,81,109,229,109c0,0,86,0,148,-35c0,0,62,-36,96,-107h1l-1,132v295H827V176c0,0,0,-75,6,-176H630c0,0,-3,11,-7,56c0,0,-5,46,-5,76h-3c0,0,-67,-146,-258,-146Z" 
id="f0_20"
transform="scale(0.001,-0.001)" />

<path d="M107,0V808H316V0Zm0,952v155H316V952Z" 
id="f0_25"
transform="scale(0.001,-0.001)" />

<path d="M360,132c0,0,50,0,90,27c0,0,41,27,64,74c0,0,23,47,23,100v41L430,373c0,0,-73,-3,-104,-16c0,0,-31,-13,-47,-40c0,0,-16,-27,-16,-72c0,0,0,-57,27,-85c0,0,26,-28,70,-28ZM293,-14c0,0,-117,0,-183,63c0,0,-65,64,-65,180c0,0,0,125,81,191c0,0,82,65,237,67l174,3v41c0,0,0,79,-27,117c0,0,-28,38,-91,38c0,0,-58,0,-85,-26c0,0,-27,-27,-34,-88L81,583c0,0,20,118,108,179c0,0,88,60,239,60c0,0,153,0,236,-75c0,0,83,-75,83,-214V239c0,0,0,-67,15,-93c0,0,15,-26,51,-26c0,0,24,0,46,5V11c0,0,-18,-5,-33,-8c0,0,-15,-3,-30,-5c0,0,-15,-3,-32,-4c0,0,-17,-2,-39,-2c0,0,-79,0,-117,38c0,0,-37,39,-45,114h-4c0,0,-88,-158,-266,-158Z" 
id="f0_1x"
transform="scale(0.001,-0.001)" />

<path d="M593,-14c0,0,-254,0,-392,143C201,129,63,272,63,531c0,0,0,258,133,397c0,0,134,139,387,139c0,0,185,0,302,-74c0,0,116,-75,163,-218L854,722c0,0,-24,79,-96,125c0,0,-72,47,-170,47c0,0,-149,0,-227,-93c0,0,-77,-92,-77,-270c0,0,0,-182,80,-277c0,0,79,-96,229,-96c0,0,199,0,277,200l192,-72c0,0,-62,-152,-182,-227c0,0,-120,-73,-287,-73Z" 
id="f0_13"
transform="scale(0.001,-0.001)" />

<path d="M144,0V666H26V808H144v84c0,0,0,109,58,162c0,0,58,53,177,53c0,0,59,0,133,-12V960c0,0,-31,7,-61,7c0,0,-54,0,-76,-21c0,0,-22,-21,-22,-75V808H512V666H353V0Z" 
id="f0_22"
transform="scale(0.001,-0.001)" />

<path d="M443,-14c0,0,-183,0,-283,109C160,95,60,204,60,399c0,0,0,200,100,312c0,0,101,111,286,111c0,0,143,0,236,-71c0,0,93,-72,117,-198L588,543c0,0,-9,62,-45,99c0,0,-36,37,-101,37c0,0,-162,0,-162,-271c0,0,0,-279,165,-279c0,0,59,0,100,38c0,0,40,37,50,112L805,269c0,0,-11,-83,-59,-148C746,121,697,56,619,21c0,0,-78,-35,-176,-35Z" 
id="f0_1z"
transform="scale(0.001,-0.001)" />

<path d="M426,-14c0,0,-166,0,-255,52C171,38,83,90,54,201l184,28c0,0,16,-57,54,-81c0,0,38,-24,134,-24c0,0,88,0,128,22c0,0,41,23,41,70c0,0,0,39,-33,62c0,0,-32,23,-110,38c0,0,-177,35,-239,65c0,0,-62,31,-95,79c0,0,-32,48,-32,118c0,0,0,115,89,180c0,0,89,64,252,64c0,0,144,0,232,-56c0,0,88,-56,109,-162L583,585c0,0,-9,49,-44,74c0,0,-35,24,-112,24c0,0,-74,0,-111,-19c0,0,-38,-19,-38,-64c0,0,0,-35,29,-55c0,0,29,-21,97,-34c0,0,94,-20,168,-40c0,0,73,-21,118,-49c0,0,44,-28,71,-73c0,0,26,-44,26,-113c0,0,0,-117,-96,-184c0,0,-96,-66,-265,-66Z" 
id="f0_2f"
transform="scale(0.001,-0.001)" />

<path d="M163,0V190H321V0Z" 
id="f1_l"
transform="scale(0.001,-0.001)" />

<path d="M330,0L51,1114H203L437,172l234,942H840L1074,172l234,942h153L1181,0H992L757,967L519,0Z" 
id="f1_1s"
transform="scale(0.001,-0.001)" />

<path d="M46,0L444,595L97,1114H259L536,700l278,414H976L618,579L999,0H837L524,474L209,0Z" 
id="f1_1o"
transform="scale(0.001,-0.001)" />

<path d="M117,-176L179,62V190H336V62L213,-176Z" 
id="f1_q"
transform="scale(0.001,-0.001)" />

<path d="M283,0L65,836H202L373,184L544,836H706L878,184l171,652h137L967,0H806L626,685L445,0Z" 
id="f1_y"
transform="scale(0.001,-0.001)" />

<path d="M458,-20c0,0,-79,0,-168,17c0,0,-89,17,-184,52V204c0,0,91,-51,179,-77c0,0,88,-26,173,-26c0,0,129,0,199,50c0,0,70,51,70,145c0,0,0,82,-50,129c0,0,-50,46,-165,69l-92,18c0,0,-169,34,-244,105c0,0,-75,72,-75,199c0,0,0,148,104,233c0,0,104,85,287,85c0,0,78,0,159,-14c0,0,81,-14,166,-42V931c0,0,-85,41,-161,61c0,0,-76,20,-147,20c0,0,-123,0,-190,-48c0,0,-67,-48,-67,-136c0,0,0,-73,45,-111c0,0,44,-38,168,-61l91,-19c0,0,168,-32,249,-113c0,0,80,-81,80,-216c0,0,0,-162,-109,-246c0,0,-108,-82,-318,-82Z" 
id="f1_e"
transform="scale(0.001,-0.001)" />

<path d="M-26,-317v117H9c0,0,78,0,106,36c0,0,29,36,29,150V836H281V-14c0,0,0,-160,-61,-231c0,0,-61,-72,-195,-72ZM144,987v174H281V987Z" 
id="f1_19"
transform="scale(0.001,-0.001)" />

<path d="M362,120V424H64V592H362V896H530V592H830V424H530V120Z" 
id="f0_f"
transform="scale(0.001,-0.001)" />

<path d="M179,0V190H336V0Zm0,600V790H336V600Z" 
id="f1_12"
transform="scale(0.001,-0.001)" />

<path d="M391,0V987H-3v127H938V987H543V0Z" 
id="f1_2"
transform="scale(0.001,-0.001)" />

<path d="M703,434L599,736L567,838l-16,51l-4,-16c0,0,-8,-27,-18,-61c0,0,-11,-35,-128,-378ZM38,0L421,1051H681L1063,0H845L752,269H351L258,0Z" 
id="f0_11"
transform="scale(0.001,-0.001)" />

<path d="M484,129c0,0,168,0,168,279c0,0,0,271,-166,271c0,0,-84,0,-128,-73c0,0,-45,-73,-45,-204c0,0,0,-131,45,-202c0,0,44,-71,126,-71ZM107,-316V622c0,0,0,114,-6,186H304c0,0,4,-14,7,-54c0,0,2,-39,2,-78h3c0,0,71,148,258,148c0,0,141,0,219,-108c0,0,78,-109,78,-309c0,0,0,-202,-81,-312C790,95,709,-14,561,-14c0,0,-85,0,-148,36c0,0,-63,37,-97,107h-4c0,0,4,-23,4,-135V-316Z" 
id="f0_2c"
transform="scale(0.001,-0.001)" />

<path d="M107,0V1107H316V0Z" 
id="f0_28"
transform="scale(0.001,-0.001)" />

<path d="M272,0L1,1051H225L377,372L411,208c0,0,21,104,41,198c0,0,19,95,149,645H847L979,492c0,0,16,-63,53,-284l19,87l40,171l126,585h223L1169,0H908L765,608c0,0,-26,107,-44,225c0,0,-18,-98,-29,-149C692,684,681,633,533,0Z" 
id="f0_1n"
transform="scale(0.001,-0.001)" />

<path d="M509,170c0,0,141,0,225,98c0,0,84,98,84,265c0,0,0,170,-88,259c0,0,-88,89,-252,89H322V170ZM102,0V1051H483c0,0,265,0,411,-134c0,0,145,-134,145,-384c0,0,0,-162,-64,-283C975,250,912,128,795,64C795,64,678,0,527,0Z" 
id="f0_14"
transform="scale(0.001,-0.001)" />

<path d="M610,569c0,0,93,0,140,42c0,0,48,42,48,118c0,0,0,152,-194,152H322V569ZM102,0V1051H627c0,0,188,0,291,-81c0,0,102,-81,102,-232c0,0,0,-111,-63,-191c0,0,-63,-80,-169,-106L1072,0H824L580,399H322V0Z" 
id="f0_1i"
transform="scale(0.001,-0.001)" />

<path d="M104,0V228H319V0Z" 
id="f0_i"
transform="scale(0.001,-0.001)" />

<path d="M482,124c0,0,231,0,338,105c0,0,107,104,107,329c0,0,0,224,-107,328c0,0,-107,104,-338,104H300V124ZM150,0V1114H459c0,0,324,0,476,-135c0,0,151,-135,151,-421c0,0,0,-288,-152,-423C934,135,782,0,459,0Z" 
id="f1_15"
transform="scale(0.001,-0.001)" />

<path d="M74,357V479H476V357Z" 
id="f1_1n"
transform="scale(0.001,-0.001)" />

<path d="M150,0V1114H300V0Z" 
id="f1_z"
transform="scale(0.001,-0.001)" />

<path d="M510,93c0,0,109,0,171,86c0,0,62,86,62,238c0,0,0,151,-62,237c0,0,-62,86,-171,86c0,0,-109,0,-171,-86c0,0,-62,-86,-62,-237c0,0,0,-152,62,-238c0,0,62,-86,171,-86ZM139,-317V836H277V709c0,0,43,74,109,110c0,0,66,37,158,37c0,0,152,0,247,-121c0,0,95,-121,95,-318c0,0,0,-197,-95,-318C791,99,696,-20,544,-20c0,0,-92,0,-158,35c0,0,-66,36,-109,110V-317Z" 
id="f1_b"
transform="scale(0.001,-0.001)" />

<path d="M150,0V1114H300V643l500,471H994L441,595L1034,0H835L300,536V0Z" 
id="f1_1l"
transform="scale(0.001,-0.001)" />

<path d="M727,411L522,965L318,411ZM12,0L437,1114H608L1033,0H876L774,286H272L171,0Z" 
id="f1_d"
transform="scale(0.001,-0.001)" />

<path d="M150,0V1114H353L846,182v932H992V0H789L296,932V0Z" 
id="f1_m"
transform="scale(0.001,-0.001)" />

<path d="M357,0V881H17v170H917V881H577V0Z" 
id="f0_1k"
transform="scale(0.001,-0.001)" />

<path d="M630,0V452c0,0,0,213,-144,213c0,0,-76,0,-123,-65c0,0,-47,-66,-47,-168V0H107V1107H316V805c0,0,0,-81,-6,-159h3c0,0,43,93,107,135c0,0,64,41,153,41c0,0,128,0,197,-79c0,0,68,-79,68,-231V0Z" 
id="f0_24"
transform="scale(0.001,-0.001)" />

<path d="M295,0L6,808H228L369,356c0,0,11,-37,52,-186c0,0,8,30,31,107c0,0,23,77,172,531H843L545,0Z" 
id="f0_2i"
transform="scale(0.001,-0.001)" />


</defs>
</svg>