<?xml version="1.0" encoding="UTF-8" standalone="no"?>
<!DOCTYPE svg PUBLIC "-//W3C//DTD SVG 1.1//EN"
"http://www.w3.org/Graphics/SVG/1.1/DTD/svg11.dtd">
<svg viewBox="0 0 909 1286" version="1.1" xmlns="http://www.w3.org/2000/svg" xmlns:xlink="http://www.w3.org/1999/xlink">
<defs>
<clipPath id="c0_45"><path d="M0,1286.2V.2H909.3v1286Z" /></clipPath>
</defs>
<g clip-path="url(#c0_45)">
<g fill="#000000" >
<use xlink:href="#f0_19" transform="matrix(12,0,0,12,86.8,680.6)" />
<use xlink:href="#f0_h" transform="matrix(12,0,0,12,92.1,680.6)" />
<use xlink:href="#f0_p" transform="matrix(12,0,0,12,104.5,680.6)" />
<use xlink:href="#f0_d" transform="matrix(12,0,0,12,115.3,680.6)" />
<use xlink:href="#f0_k" transform="matrix(12,0,0,12,126.5,680.6)" />
<use xlink:href="#f0_6" transform="matrix(12,0,0,12,144,680.6)" />
<use xlink:href="#f0_g" transform="matrix(12,0,0,12,151.2,680.6)" />
<use xlink:href="#f0_p" transform="matrix(12,0,0,12,158.7,680.6)" />
<use xlink:href="#f0_6" transform="matrix(12,0,0,12,175.3,680.6)" />
<use xlink:href="#f0_d" transform="matrix(12,0,0,12,182.5,680.6)" />
<use xlink:href="#f0_b" transform="matrix(12,0,0,12,199.6,680.6)" />
<use xlink:href="#f0_o" transform="matrix(12,0,0,12,209.7,680.6)" />
<use xlink:href="#f0_c" transform="matrix(12,0,0,12,214.7,680.6)" />
<use xlink:href="#f0_b" transform="matrix(12,0,0,12,219.8,680.6)" />
<use xlink:href="#f0_i" transform="matrix(12,0,0,12,229.9,680.6)" />
</g>
<g fill="#0000FF" >
<use xlink:href="#f1_9" transform="matrix(12,0,0,12,246.4,680.6)" />
<use xlink:href="#f1_o" transform="matrix(12,0,0,12,259.7,680.6)" />
<use xlink:href="#f1_13" transform="matrix(12,0,0,12,272.7,680.6)" />
<use xlink:href="#f1_z" transform="matrix(12,0,0,12,285.8,680.6)" />
<use xlink:href="#f1_5" transform="matrix(12,0,0,12,304.9,680.6)" />
<use xlink:href="#f1_4" transform="matrix(12,0,0,12,311.2,680.6)" />
<use xlink:href="#f1_j" transform="matrix(12,0,0,12,326.3,680.6)" />
<use xlink:href="#f1_g" transform="matrix(12,0,0,12,334.2,680.6)" />
<use xlink:href="#f1_b" transform="matrix(12,0,0,12,346.9,680.6)" />
<use xlink:href="#f1_w" transform="matrix(12,0,0,12,362.3,680.6)" />
<use xlink:href="#f1_3" transform="matrix(12,0,0,12,376.4,680.6)" />
<use xlink:href="#f1_x" transform="matrix(12,0,0,12,388.7,680.6)" />
<use xlink:href="#f1_5" transform="matrix(12,0,0,12,400.8,680.6)" />
<use xlink:href="#f1_3" transform="matrix(12,0,0,12,407,680.6)" />
<use xlink:href="#f1_v" transform="matrix(12,0,0,12,419.4,680.6)" />
</g>
<g fill="#000000" >
<use xlink:href="#f0_p" transform="matrix(12,0,0,12,442.9,680.6)" />
<use xlink:href="#f0_d" transform="matrix(12,0,0,12,453.7,680.6)" />
<use xlink:href="#f0_k" transform="matrix(12,0,0,12,464.9,680.6)" />
<use xlink:href="#f0_n" transform="matrix(12,0,0,12,482.4,680.6)" />
<use xlink:href="#f0_c" transform="matrix(12,0,0,12,497.4,680.6)" />
<use xlink:href="#f0_o" transform="matrix(12,0,0,12,502.5,680.6)" />
<use xlink:href="#f0_o" transform="matrix(12,0,0,12,507.6,680.6)" />
<use xlink:href="#f0_q" transform="matrix(12,0,0,12,518.5,680.6)" />
<use xlink:href="#f0_a" transform="matrix(12,0,0,12,530.1,680.6)" />
<use xlink:href="#f0_6" transform="matrix(12,0,0,12,541.4,680.6)" />
<use xlink:href="#f0_8" transform="matrix(12,0,0,12,554.5,680.6)" />
<use xlink:href="#f0_u" transform="matrix(12,0,0,12,571.5,680.6)" />
<use xlink:href="#f0_a" transform="matrix(12,0,0,12,589.3,680.6)" />
<use xlink:href="#f0_9" transform="matrix(12,0,0,12,600.5,680.6)" />
<use xlink:href="#f0_9" transform="matrix(12,0,0,12,610.1,680.6)" />
<use xlink:href="#f0_8" transform="matrix(12,0,0,12,619.6,680.6)" />
<use xlink:href="#f0_q" transform="matrix(12,0,0,12,630.9,680.6)" />
<use xlink:href="#f0_a" transform="matrix(12,0,0,12,642.5,680.6)" />
<use xlink:href="#f0_9" transform="matrix(12,0,0,12,659.7,680.6)" />
<use xlink:href="#f0_8" transform="matrix(12,0,0,12,669.2,680.6)" />
<use xlink:href="#f0_p" transform="matrix(12,0,0,12,680.5,680.6)" />
<use xlink:href="#f0_c" transform="matrix(12,0,0,12,691.3,680.6)" />
<use xlink:href="#f0_e" transform="matrix(12,0,0,12,696.3,680.6)" />
<use xlink:href="#f0_q" transform="matrix(12,0,0,12,707.9,680.6)" />
<use xlink:href="#f0_6" transform="matrix(12,0,0,12,725.4,680.6)" />
<use xlink:href="#f0_7" transform="matrix(12,0,0,12,732.6,680.6)" />
<use xlink:href="#f0_8" transform="matrix(12,0,0,12,744.2,680.6)" />
<use xlink:href="#f0_6" transform="matrix(12,0,0,12,755.4,680.6)" />
<use xlink:href="#f0_6" transform="matrix(12,0,0,12,768.4,680.6)" />
<use xlink:href="#f0_7" transform="matrix(12,0,0,12,775.6,680.6)" />
<use xlink:href="#f0_a" transform="matrix(12,0,0,12,787.2,680.6)" />
<use xlink:href="#f0_g" transform="matrix(12,0,0,12,798.5,680.6)" />
<use xlink:href="#f0_a" transform="matrix(12,0,0,12,805.6,680.6)" />
<use xlink:href="#f0_n" transform="matrix(12,0,0,12,86.8,709.2)" />
<use xlink:href="#f0_a" transform="matrix(12,0,0,12,101.8,709.2)" />
<use xlink:href="#f0_g" transform="matrix(12,0,0,12,113,709.2)" />
<use xlink:href="#f0_a" transform="matrix(12,0,0,12,120.1,709.2)" />
<use xlink:href="#f0_d" transform="matrix(12,0,0,12,137.3,709.2)" />
<use xlink:href="#f0_e" transform="matrix(12,0,0,12,148.5,709.2)" />
<use xlink:href="#f0_a" transform="matrix(12,0,0,12,160.1,709.2)" />
<use xlink:href="#f0_d" transform="matrix(12,0,0,12,177.2,709.2)" />
<use xlink:href="#f0_g" transform="matrix(12,0,0,12,188.5,709.2)" />
<use xlink:href="#f0_u" transform="matrix(12,0,0,12,201.8,709.2)" />
<use xlink:href="#f0_d" transform="matrix(12,0,0,12,219.6,709.2)" />
<use xlink:href="#f0_g" transform="matrix(12,0,0,12,230.9,709.2)" />
<use xlink:href="#f0_a" transform="matrix(12,0,0,12,237.9,709.2)" />
<use xlink:href="#f0_a" transform="matrix(12,0,0,12,255,709.2)" />
<use xlink:href="#f0_g" transform="matrix(12,0,0,12,266.3,709.2)" />
<use xlink:href="#f0_g" transform="matrix(12,0,0,12,273.7,709.2)" />
<use xlink:href="#f0_d" transform="matrix(12,0,0,12,280.7,709.2)" />
<use xlink:href="#f0_g" transform="matrix(12,0,0,12,291.8,709.2)" />
<use xlink:href="#f0_9" transform="matrix(12,0,0,12,299.3,709.2)" />
<use xlink:href="#f0_d" transform="matrix(12,0,0,12,314.9,709.2)" />
<use xlink:href="#f0_e" transform="matrix(12,0,0,12,326,709.2)" />
<use xlink:href="#f0_6" transform="matrix(12,0,0,12,343.4,709.2)" />
<use xlink:href="#f0_7" transform="matrix(12,0,0,12,350.6,709.2)" />
<use xlink:href="#f0_a" transform="matrix(12,0,0,12,362.2,709.2)" />
<use xlink:href="#f0_s" transform="matrix(12,0,0,12,379.3,709.2)" />
<use xlink:href="#f0_8" transform="matrix(12,0,0,12,390.9,709.2)" />
<use xlink:href="#f0_q" transform="matrix(12,0,0,12,402.2,709.2)" />
<use xlink:href="#f0_a" transform="matrix(12,0,0,12,413.8,709.2)" />
<use xlink:href="#f0_1a" transform="matrix(12,0,0,12,430.9,709.2)" />
<use xlink:href="#f0_p" transform="matrix(12,0,0,12,455.1,709.2)" />
<use xlink:href="#f0_d" transform="matrix(12,0,0,12,465.9,709.2)" />
<use xlink:href="#f0_k" transform="matrix(12,0,0,12,477.1,709.2)" />
<use xlink:href="#f0_g" transform="matrix(12,0,0,12,488.8,709.2)" />
<use xlink:href="#f0_8" transform="matrix(12,0,0,12,502.1,709.2)" />
<use xlink:href="#f0_s" transform="matrix(12,0,0,12,513.4,709.2)" />
<use xlink:href="#f0_s" transform="matrix(12,0,0,12,525,709.2)" />
<use xlink:href="#f0_7" transform="matrix(12,0,0,12,542.4,709.2)" />
<use xlink:href="#f0_8" transform="matrix(12,0,0,12,554,709.2)" />
<use xlink:href="#f0_9" transform="matrix(12,0,0,12,565.2,709.2)" />
<use xlink:href="#f0_e" transform="matrix(12,0,0,12,580.7,709.2)" />
<use xlink:href="#f0_d" transform="matrix(12,0,0,12,592.3,709.2)" />
<use xlink:href="#f0_6" transform="matrix(12,0,0,12,603.5,709.2)" />
<use xlink:href="#f0_x" transform="matrix(12,0,0,12,616.5,709.2)" />
<use xlink:href="#f0_a" transform="matrix(12,0,0,12,628.1,709.2)" />
<use xlink:href="#f0_a" transform="matrix(12,0,0,12,639.4,709.2)" />
<use xlink:href="#f0_e" transform="matrix(12,0,0,12,650.7,709.2)" />
<use xlink:href="#f0_k" transform="matrix(12,0,0,12,668.1,709.2)" />
<use xlink:href="#f0_s" transform="matrix(12,0,0,12,679.7,709.2)" />
<use xlink:href="#f0_o" transform="matrix(12,0,0,12,691.4,709.2)" />
<use xlink:href="#f0_d" transform="matrix(12,0,0,12,696.5,709.2)" />
<use xlink:href="#f0_8" transform="matrix(12,0,0,12,707.6,709.2)" />
<use xlink:href="#f0_f" transform="matrix(12,0,0,12,718.9,709.2)" />
<use xlink:href="#f0_a" transform="matrix(12,0,0,12,730.5,709.2)" />
<use xlink:href="#f0_f" transform="matrix(12,0,0,12,741.8,709.2)" />
<use xlink:href="#f0_p" transform="matrix(12,0,0,12,759.2,709.2)" />
<use xlink:href="#f0_a" transform="matrix(12,0,0,12,770.1,709.2)" />
<use xlink:href="#f0_6" transform="matrix(12,0,0,12,781.4,709.2)" />
<use xlink:href="#f0_1q" transform="matrix(12,0,0,12,788.5,709.2)" />
<use xlink:href="#f0_1i" transform="matrix(12,0,0,12,86.8,1094.3)" />
<use xlink:href="#f0_a" transform="matrix(12,0,0,12,98.7,1094.3)" />
<use xlink:href="#f0_u" transform="matrix(12,0,0,12,110,1094.3)" />
<use xlink:href="#f0_a" transform="matrix(12,0,0,12,127.8,1094.3)" />
<use xlink:href="#f0_u" transform="matrix(12,0,0,12,139.1,1094.3)" />
<use xlink:href="#f0_x" transform="matrix(12,0,0,12,157,1094.3)" />
<use xlink:href="#f0_a" transform="matrix(12,0,0,12,168.6,1094.3)" />
<use xlink:href="#f0_g" transform="matrix(12,0,0,12,179.9,1094.3)" />
<use xlink:href="#f0_p" transform="matrix(12,0,0,12,193.2,1094.3)" />
<use xlink:href="#f0_d" transform="matrix(12,0,0,12,204,1094.3)" />
<use xlink:href="#f0_k" transform="matrix(12,0,0,12,215.2,1094.3)" />
<use xlink:href="#f0_9" transform="matrix(12,0,0,12,232.7,1094.3)" />
<use xlink:href="#f0_i" transform="matrix(12,0,0,12,242.2,1094.3)" />
<use xlink:href="#f0_c" transform="matrix(12,0,0,12,252.9,1094.3)" />
<use xlink:href="#f0_s" transform="matrix(12,0,0,12,257.9,1094.3)" />
<use xlink:href="#f0_s" transform="matrix(12,0,0,12,269.5,1094.3)" />
<use xlink:href="#f0_a" transform="matrix(12,0,0,12,281.1,1094.3)" />
<use xlink:href="#f0_f" transform="matrix(12,0,0,12,292.4,1094.3)" />
<use xlink:href="#f0_6" transform="matrix(12,0,0,12,310,1094.3)" />
<use xlink:href="#f0_7" transform="matrix(12,0,0,12,317.2,1094.3)" />
<use xlink:href="#f0_a" transform="matrix(12,0,0,12,328.8,1094.3)" />
</g>
<g fill="#0000FF" >
<use xlink:href="#f1_11" transform="matrix(12,0,0,12,346,1094.3)" />
<use xlink:href="#f1_o" transform="matrix(12,0,0,12,359.9,1094.3)" />
<use xlink:href="#f1_5" transform="matrix(12,0,0,12,372.9,1094.3)" />
<use xlink:href="#f1_r" transform="matrix(12,0,0,12,379.3,1094.3)" />
<use xlink:href="#f1_c" transform="matrix(12,0,0,12,385.6,1094.3)" />
</g>
<g fill="#000000" >
<use xlink:href="#f0_9" transform="matrix(12,0,0,12,405.2,1094.3)" />
<use xlink:href="#f0_a" transform="matrix(12,0,0,12,414.6,1094.3)" />
<use xlink:href="#f0_b" transform="matrix(12,0,0,12,425.9,1094.3)" />
<use xlink:href="#f0_6" transform="matrix(12,0,0,12,436,1094.3)" />
<use xlink:href="#f0_c" transform="matrix(12,0,0,12,443.2,1094.3)" />
<use xlink:href="#f0_d" transform="matrix(12,0,0,12,448.2,1094.3)" />
<use xlink:href="#f0_e" transform="matrix(12,0,0,12,459.5,1094.3)" />
<use xlink:href="#f0_2a" transform="matrix(12,0,0,12,471.1,1094.3)" />
<use xlink:href="#f0_18" transform="matrix(12,0,0,12,486.7,1094.3)" />
<use xlink:href="#f0_d" transform="matrix(12,0,0,12,498.3,1094.3)" />
<use xlink:href="#f0_e" transform="matrix(12,0,0,12,515.4,1094.3)" />
<use xlink:href="#f0_d" transform="matrix(12,0,0,12,527,1094.3)" />
<use xlink:href="#f0_n" transform="matrix(12,0,0,12,538.1,1094.3)" />
<use xlink:href="#f0_p" transform="matrix(12,0,0,12,558.9,1094.3)" />
<use xlink:href="#f0_d" transform="matrix(12,0,0,12,569.8,1094.3)" />
<use xlink:href="#f0_k" transform="matrix(12,0,0,12,580.9,1094.3)" />
<use xlink:href="#f0_e" transform="matrix(12,0,0,12,598.5,1094.3)" />
<use xlink:href="#f0_a" transform="matrix(12,0,0,12,610.1,1094.3)" />
<use xlink:href="#f0_a" transform="matrix(12,0,0,12,621.4,1094.3)" />
<use xlink:href="#f0_f" transform="matrix(12,0,0,12,632.7,1094.3)" />
<use xlink:href="#f0_6" transform="matrix(12,0,0,12,650.1,1094.3)" />
<use xlink:href="#f0_d" transform="matrix(12,0,0,12,657.3,1094.3)" />
<use xlink:href="#f0_k" transform="matrix(12,0,0,12,674.4,1094.3)" />
<use xlink:href="#f0_s" transform="matrix(12,0,0,12,686,1094.3)" />
<use xlink:href="#f0_o" transform="matrix(12,0,0,12,697.6,1094.3)" />
<use xlink:href="#f0_d" transform="matrix(12,0,0,12,702.6,1094.3)" />
<use xlink:href="#f0_8" transform="matrix(12,0,0,12,713.8,1094.3)" />
<use xlink:href="#f0_f" transform="matrix(12,0,0,12,725.1,1094.3)" />
<use xlink:href="#f0_p" transform="matrix(12,0,0,12,742.6,1094.3)" />
<use xlink:href="#f0_d" transform="matrix(12,0,0,12,753.5,1094.3)" />
<use xlink:href="#f0_k" transform="matrix(12,0,0,12,764.6,1094.3)" />
<use xlink:href="#f0_g" transform="matrix(12,0,0,12,776.2,1094.3)" />
<use xlink:href="#f0_8" transform="matrix(12,0,0,12,86.8,1123.1)" />
<use xlink:href="#f0_s" transform="matrix(12,0,0,12,98.1,1123.1)" />
<use xlink:href="#f0_s" transform="matrix(12,0,0,12,109.7,1123.1)" />
<use xlink:href="#f0_k" transform="matrix(12,0,0,12,127.1,1123.1)" />
<use xlink:href="#f0_9" transform="matrix(12,0,0,12,138.7,1123.1)" />
<use xlink:href="#f0_c" transform="matrix(12,0,0,12,148.3,1123.1)" />
<use xlink:href="#f0_e" transform="matrix(12,0,0,12,153.3,1123.1)" />
<use xlink:href="#f0_q" transform="matrix(12,0,0,12,165,1123.1)" />
<use xlink:href="#f0_z" transform="matrix(12,0,0,12,182.5,1123.1)" />
<use xlink:href="#f0_b" transform="matrix(12,0,0,12,195,1123.1)" />
<use xlink:href="#f0_d" transform="matrix(12,0,0,12,205.1,1123.1)" />
<use xlink:href="#f0_f" transform="matrix(12,0,0,12,216.2,1123.1)" />
<use xlink:href="#f0_a" transform="matrix(12,0,0,12,227.8,1123.1)" />
<use xlink:href="#f0_l" transform="matrix(12,0,0,12,239.1,1123.1)" />
</g>
</g>
<image preserveAspectRatio="none" x="87" y="87" width="736" height="548" xlink:href="img/1.png" />
<image preserveAspectRatio="none" x="87" y="714" width="736" height="135" xlink:href="img/2.png" />
<image preserveAspectRatio="none" x="87" y="870" width="736" height="179" xlink:href="img/3.png" />
<defs>
<path d="M150,0V1114H300V0Z" 
id="f0_19"
transform="scale(0.001,-0.001)" />

<path d="M166,0V729H35V836H166v58c0,0,0,139,65,203c0,0,65,64,206,64H567V1046H435c0,0,-74,0,-102,-29c0,0,-29,-30,-29,-107V836H530V729H304V0Z" 
id="f0_h"
transform="scale(0.001,-0.001)" />

<path d="M121,-317v116h81c0,0,57,0,88,26c0,0,31,27,69,127l25,62L46,836H191L453,182L714,836H859L492,-76c0,0,-58,-150,-113,-195c0,0,-55,-46,-148,-46Z" 
id="f0_p"
transform="scale(0.001,-0.001)" />

<path d="M467,95c0,0,110,0,174,86c0,0,64,87,64,236c0,0,0,148,-64,235c0,0,-64,87,-174,87c0,0,-110,0,-174,-86c0,0,-64,-86,-64,-236c0,0,0,-150,64,-236c0,0,63,-86,174,-86Zm0,-115c0,0,-179,0,-281,115C186,95,84,212,84,417c0,0,0,206,102,322c0,0,102,117,281,117c0,0,179,0,282,-117c0,0,102,-116,102,-322c0,0,0,-205,-102,-322C749,95,646,-20,467,-20Z" 
id="f0_d"
transform="scale(0.001,-0.001)" />

<path d="M424,-20c0,0,-145,0,-219,88c0,0,-75,89,-75,262V836H267V335c0,0,0,-119,46,-178c0,0,47,-59,139,-59c0,0,112,0,177,71c0,0,64,71,64,193V836H830V0H693V128C693,128,643,52,577,15c0,0,-66,-35,-153,-35Z" 
id="f0_k"
transform="scale(0.001,-0.001)" />

<path d="M421,0C421,0,263,0,202,59c0,0,-60,60,-60,217V729H41V836H142v238H280V836H562V729H280V276c0,0,0,-102,28,-132c0,0,28,-29,113,-29H562V0Z" 
id="f0_6"
transform="scale(0.001,-0.001)" />

<path d="M139,0V836H277V706c0,0,43,76,112,113c0,0,70,37,169,37c0,0,14,0,31,-2c0,0,17,-2,38,-6l1,-141c0,0,-23,14,-51,20c0,0,-27,6,-60,6c0,0,-116,0,-178,-75c0,0,-62,-76,-62,-218V0Z" 
id="f0_g"
transform="scale(0.001,-0.001)" />

<path d="M495,-20c0,0,-189,0,-300,117C195,97,84,216,84,417c0,0,0,204,112,321c0,0,113,118,308,118c0,0,64,0,124,-14c0,0,60,-13,117,-39V675c0,0,-58,32,-117,48c0,0,-58,16,-118,16c0,0,-133,0,-207,-84c0,0,-74,-85,-74,-238c0,0,0,-153,74,-238c0,0,74,-84,207,-84c0,0,60,0,118,16c0,0,59,16,117,48V32C745,32,688,5,626,-7c0,0,-61,-13,-131,-13Z" 
id="f0_b"
transform="scale(0.001,-0.001)" />

<path d="M144,0V1161H281V0Z" 
id="f0_o"
transform="scale(0.001,-0.001)" />

<path d="M144,0V836H281V0Zm0,987v174H281V987Z" 
id="f0_c"
transform="scale(0.001,-0.001)" />

<path d="M139,0V1161H277V475L686,836H861L418,445L880,0H701L277,408V0Z" 
id="f0_i"
transform="scale(0.001,-0.001)" />

<path d="M545,-20c0,0,-106,0,-212,20C333,0,226,19,119,58V301c0,0,107,-57,207,-85c0,0,99,-29,192,-29c0,0,94,0,144,31c0,0,50,31,50,90c0,0,0,52,-34,80c0,0,-34,29,-136,51L431,464c0,0,-167,35,-244,114c0,0,-77,78,-77,211c0,0,0,166,107,256c0,0,107,89,309,89c0,0,92,0,189,-14c0,0,97,-13,200,-41V843c0,0,-92,41,-179,62c0,0,-87,21,-165,21c0,0,-103,0,-152,-28c0,0,-49,-29,-49,-88c0,0,0,-45,33,-70c0,0,33,-25,121,-43L646,672c0,0,186,-37,264,-113c0,0,79,-76,79,-216c0,0,0,-185,-110,-275c0,0,-109,-88,-334,-88Z" 
id="f1_9"
transform="scale(0.001,-0.001)" />

<path d="M415,-20c0,0,-144,0,-220,87c0,0,-76,89,-76,259V836H388V752c0,0,0,-67,-1,-170c0,0,0,-103,0,-137c0,0,0,-101,5,-145c0,0,5,-44,18,-65c0,0,16,-26,43,-40c0,0,26,-14,60,-14c0,0,84,0,132,64c0,0,47,64,47,178V836H959V0H692V121C692,121,632,48,564,13c0,0,-67,-33,-149,-33Z" 
id="f1_o"
transform="scale(0.001,-0.001)" />

<path d="M573,172c0,0,86,0,131,63c0,0,45,63,45,182c0,0,0,119,-45,182c0,0,-45,63,-131,63c0,0,-86,0,-132,-63c0,0,-46,-63,-46,-182c0,0,0,-119,46,-182c0,0,46,-63,132,-63ZM672,-20c0,0,-87,0,-155,33c0,0,-67,35,-122,108V0H128V1161H395V713c0,0,55,73,122,108c0,0,68,35,155,35c0,0,154,0,253,-123c0,0,100,-123,100,-316c0,0,0,-193,-100,-316c0,0,-99,-121,-253,-121Z" 
id="f1_13"
transform="scale(0.001,-0.001)" />

<path d="M127,0V836H396V713c0,0,49,71,113,107c0,0,64,36,141,36c0,0,86,0,152,-42c0,0,67,-42,101,-118c0,0,51,78,121,119c0,0,69,41,153,41c0,0,144,0,219,-89c0,0,76,-89,76,-258V0H1203V436c0,0,0,9,1,20c0,0,0,10,0,30c0,0,0,88,-26,128c0,0,-26,40,-84,40c0,0,-76,0,-117,-63c0,0,-42,-62,-43,-181V0H665V436c0,0,0,138,-24,178c0,0,-24,40,-85,40c0,0,-77,0,-118,-63c0,0,-42,-63,-42,-180V0Z" 
id="f1_z"
transform="scale(0.001,-0.001)" />

<path d="M128,0V836H395V0Zm0,944v217H395V944Z" 
id="f1_5"
transform="scale(0.001,-0.001)" />

<path d="M443,0C443,0,285,0,219,66c0,0,-66,66,-66,224V645H20V836H153v237H419V836H695V645H419V290c0,0,0,-58,24,-79c0,0,23,-20,91,-20H672V0Z" 
id="f1_4"
transform="scale(0.001,-0.001)" />

<path d="M162,0V645H29V836H162v58c0,0,0,136,76,201c0,0,76,66,236,66H679V986H531c0,0,-57,0,-79,-21c0,0,-23,-20,-23,-71V836H657V645H429V0Z" 
id="f1_j"
transform="scale(0.001,-0.001)" />

<path d="M526,169c0,0,87,0,133,64c0,0,46,64,46,184c0,0,0,120,-46,184c0,0,-46,64,-133,64c0,0,-89,0,-135,-64c0,0,-47,-64,-47,-184c0,0,0,-120,47,-184c0,0,46,-64,135,-64Zm0,-189c0,0,-217,0,-339,115C187,95,66,211,66,417c0,0,0,206,121,322c0,0,122,117,339,117c0,0,215,0,336,-117c0,0,122,-116,122,-322c0,0,0,-206,-122,-322C862,95,741,-20,526,-20Z" 
id="f1_g"
transform="scale(0.001,-0.001)" />

<path d="M128,0V836H395V698c0,0,52,82,118,120c0,0,67,38,161,38c0,0,13,0,29,-2c0,0,15,-1,45,-4l1,-242c0,0,-35,17,-70,25c0,0,-35,7,-70,7c0,0,-103,0,-158,-66c0,0,-56,-66,-56,-189V0Z" 
id="f1_b"
transform="scale(0.001,-0.001)" />

<path d="M548,620c0,0,90,0,129,33c0,0,39,34,39,111c0,0,0,76,-39,109c0,0,-39,32,-129,32H427V620ZM140,0V1114H578c0,0,220,0,323,-74c0,0,102,-74,102,-234c0,0,0,-110,-53,-181c0,0,-54,-71,-161,-104c0,0,59,-14,106,-61c0,0,46,-47,94,-144L1145,0H839L703,277c0,0,-41,83,-83,114c0,0,-42,30,-112,30H427V0Z" 
id="f1_w"
transform="scale(0.001,-0.001)" />

<path d="M687,509c0,0,0,76,-44,122c0,0,-44,47,-116,47c0,0,-78,0,-126,-44c0,0,-49,-43,-61,-125ZM544,-20c0,0,-227,0,-353,114C191,94,66,209,66,417c0,0,0,204,123,321c0,0,123,118,340,118c0,0,197,0,315,-119c0,0,118,-118,118,-317V344H337c0,0,10,-94,68,-141c0,0,59,-47,163,-47c0,0,85,0,173,25c0,0,89,25,182,76V51C923,51,828,15,733,-2c0,0,-94,-18,-189,-18Z" 
id="f1_3"
transform="scale(0.001,-0.001)" />

<path d="M352,0L23,836H291L499,258L706,836H974L645,0Z" 
id="f1_x"
transform="scale(0.001,-0.001)" />

<path d="M274,0L54,836H313L454,260L594,836H817L958,266l141,570h259L1138,0H847L706,575L565,0Z" 
id="f1_v"
transform="scale(0.001,-0.001)" />

<path d="M283,0L65,836H202L373,184L544,836H706L878,184l171,652h137L967,0H806L626,685L445,0Z" 
id="f0_n"
transform="scale(0.001,-0.001)" />

<path d="M460,115c0,0,111,0,173,82c0,0,61,82,61,230c0,0,0,149,-61,231c0,0,-62,82,-173,82c0,0,-111,0,-173,-82c0,0,-61,-82,-61,-231c0,0,0,-148,61,-230c0,0,62,-82,173,-82ZM446,-317c0,0,-72,0,-137,11c0,0,-64,11,-124,33v134c0,0,60,-33,119,-49c0,0,59,-15,121,-15c0,0,135,0,202,70c0,0,67,71,67,212v68C694,147,652,73,585,36C585,36,519,0,426,0C426,0,272,0,178,117c0,0,-94,117,-94,310c0,0,0,194,94,311c0,0,94,118,248,118c0,0,93,0,159,-37c0,0,67,-36,109,-110V836H831V104c0,0,0,-212,-95,-317c0,0,-94,-104,-290,-104Z" 
id="f0_q"
transform="scale(0.001,-0.001)" />

<path d="M231,492l491,1c0,0,-2,112,-64,179c0,0,-61,67,-163,67c0,0,-115,0,-184,-65c0,0,-69,-64,-80,-182ZM517,-20c0,0,-199,0,-316,115C201,95,84,211,84,410c0,0,0,205,111,325c0,0,111,121,299,121c0,0,168,0,266,-109c0,0,98,-108,98,-295V385H227c0,0,9,-142,85,-216c0,0,77,-74,213,-74c0,0,80,0,154,19c0,0,74,19,147,58V42C826,42,752,11,675,-4c0,0,-78,-16,-158,-16Z" 
id="f0_a"
transform="scale(0.001,-0.001)" />

<path d="M408,93c0,0,115,0,184,81c0,0,69,81,69,215v30H524c0,0,-167,0,-231,-38c0,0,-64,-38,-64,-129c0,0,0,-73,48,-116c0,0,48,-43,131,-43ZM372,-20c0,0,-128,0,-204,70c0,0,-76,72,-76,193c0,0,0,141,94,212c0,0,95,72,282,72H661v13c0,0,0,95,-62,147c0,0,-63,52,-175,52c0,0,-72,0,-140,-17c0,0,-68,-17,-130,-51V798c0,0,75,29,146,43c0,0,71,15,138,15c0,0,181,0,270,-95c0,0,90,-94,90,-285V0H661V127C661,127,614,51,544,15c0,0,-70,-35,-172,-35Z" 
id="f0_8"
transform="scale(0.001,-0.001)" />

<path d="M139,0V836H277V706c0,0,47,77,112,113c0,0,66,37,156,37c0,0,91,0,155,-47c0,0,64,-46,94,-134c0,0,52,93,123,137c0,0,72,44,169,44c0,0,130,0,201,-92c0,0,71,-91,71,-260V0H1220V500c0,0,0,120,-42,178c0,0,-43,58,-130,58c0,0,-107,0,-169,-71c0,0,-62,-70,-62,-193V0H680V500c0,0,0,121,-43,179c0,0,-42,57,-131,57c0,0,-105,0,-167,-71c0,0,-62,-71,-62,-193V0Z" 
id="f0_u"
transform="scale(0.001,-0.001)" />

<path d="M376,-20c0,0,-67,0,-140,12C236,-8,164,4,83,30V172c0,0,76,-40,150,-59c0,0,74,-20,146,-20c0,0,97,0,150,33c0,0,52,33,52,94c0,0,0,56,-38,85c0,0,-38,30,-165,58l-48,11c0,0,-128,27,-184,83c0,0,-57,55,-57,152c0,0,0,118,83,182c0,0,84,65,238,65c0,0,76,0,143,-12c0,0,67,-11,124,-33V681c0,0,-58,29,-121,44c0,0,-63,15,-130,15c0,0,-102,0,-153,-31c0,0,-51,-31,-51,-94c0,0,0,-48,37,-75c0,0,36,-27,147,-52l46,-10c0,0,147,-32,208,-89c0,0,62,-57,62,-159c0,0,0,-116,-93,-184c0,0,-92,-66,-253,-66Z" 
id="f0_9"
transform="scale(0.001,-0.001)" />

<path d="M139,0V836H277V706c0,0,49,75,116,112c0,0,67,38,154,38c0,0,144,0,218,-90c0,0,74,-89,74,-262V0H702V500c0,0,0,119,-46,177c0,0,-47,59,-139,59c0,0,-112,0,-176,-71c0,0,-64,-70,-64,-193V0Z" 
id="f0_e"
transform="scale(0.001,-0.001)" />

<path d="M139,0V1161H277V706c0,0,49,75,116,112c0,0,67,38,154,38c0,0,144,0,218,-90c0,0,74,-89,74,-262V0H702V500c0,0,0,119,-46,177c0,0,-47,59,-139,59c0,0,-112,0,-176,-71c0,0,-64,-70,-64,-193V0Z" 
id="f0_7"
transform="scale(0.001,-0.001)" />

<path d="M510,93c0,0,109,0,171,86c0,0,62,86,62,238c0,0,0,151,-62,237c0,0,-62,86,-171,86c0,0,-109,0,-171,-86c0,0,-62,-86,-62,-237c0,0,0,-152,62,-238c0,0,62,-86,171,-86ZM139,-317V836H277V709c0,0,43,74,109,110c0,0,66,37,158,37c0,0,152,0,247,-121c0,0,95,-121,95,-318c0,0,0,-197,-95,-318C791,99,696,-20,544,-20c0,0,-92,0,-158,35c0,0,-66,36,-109,110V-317Z" 
id="f0_s"
transform="scale(0.001,-0.001)" />

<path d="M74,365V472H1453V365Z" 
id="f0_1a"
transform="scale(0.001,-0.001)" />

<path d="M510,93c0,0,109,0,171,86c0,0,62,86,62,238c0,0,0,151,-62,237c0,0,-62,86,-171,86c0,0,-109,0,-171,-86c0,0,-62,-86,-62,-237c0,0,0,-152,62,-238c0,0,62,-86,171,-86ZM544,-20c0,0,-92,0,-158,35c0,0,-66,36,-109,110V0H139V1161H277V709c0,0,43,74,109,110c0,0,66,37,158,37c0,0,152,0,247,-121c0,0,95,-121,95,-318c0,0,0,-197,-95,-318C791,99,696,-20,544,-20Z" 
id="f0_x"
transform="scale(0.001,-0.001)" />

<path d="M460,93c0,0,109,0,171,86c0,0,63,86,63,238c0,0,0,151,-63,237c0,0,-62,86,-171,86c0,0,-109,0,-172,-86c0,0,-62,-86,-62,-237c0,0,0,-152,62,-238c0,0,63,-86,172,-86ZM426,-20c0,0,-151,0,-247,119c0,0,-95,121,-95,318c0,0,0,197,95,318c0,0,96,121,247,121c0,0,93,0,159,-37c0,0,66,-36,109,-110v452H831V0H694V125C694,125,651,51,585,15c0,0,-66,-35,-159,-35Z" 
id="f0_f"
transform="scale(0.001,-0.001)" />

<path d="M231,0V190H382V0Zm15,359L231,625v489H382V625L367,359Z" 
id="f0_1q"
transform="scale(0.001,-0.001)" />

<path d="M489,595c0,0,109,0,164,50c0,0,56,50,56,148c0,0,0,97,-56,147c0,0,-55,50,-164,50H300V595ZM150,0V1114H489c0,0,191,0,285,-80c0,0,94,-80,94,-241c0,0,0,-105,-49,-175c0,0,-49,-69,-142,-96c0,0,48,-16,94,-70c0,0,46,-54,93,-148L1017,0H855L712,285c0,0,-55,112,-107,149c0,0,-52,36,-141,36H300V0Z" 
id="f0_1i"
transform="scale(0.001,-0.001)" />

<path d="M596,196c0,0,86,0,130,36c0,0,44,37,44,110c0,0,0,73,-44,109c0,0,-43,36,-130,36H427V196ZM586,683c0,0,68,0,103,29c0,0,35,30,35,88c0,0,0,58,-35,88c0,0,-35,30,-103,30H427V683ZM140,0V1114H571c0,0,232,0,336,-70c0,0,104,-71,104,-225c0,0,0,-81,-38,-138c0,0,-38,-57,-110,-85c0,0,92,-27,143,-99c0,0,51,-73,51,-178c0,0,0,-161,-109,-240C948,79,839,0,616,0Z" 
id="f1_11"
transform="scale(0.001,-0.001)" />

<path d="M128,0V1161H395V0Z" 
id="f1_r"
transform="scale(0.001,-0.001)" />

<path d="M520,172c0,0,86,0,131,63c0,0,45,63,45,182c0,0,0,119,-45,182c0,0,-45,63,-131,63c0,0,-85,0,-130,-63c0,0,-45,-63,-45,-182c0,0,0,-119,45,-182c0,0,45,-63,130,-63ZM421,-20c0,0,-154,0,-253,121C168,101,68,224,68,417c0,0,0,193,100,316c0,0,99,123,253,123c0,0,87,0,153,-35c0,0,67,-35,122,-108v448H965V0H696V121C696,121,641,47,575,13c0,0,-67,-33,-154,-33Z" 
id="f1_c"
transform="scale(0.001,-0.001)" />

<path d="M291,0V190H443V0Zm5,299V414c0,0,0,75,21,124c0,0,21,48,88,113l67,66c0,0,42,40,61,75c0,0,19,35,19,71c0,0,0,67,-48,108c0,0,-49,41,-130,41c0,0,-59,0,-125,-26c0,0,-67,-26,-139,-77v140c0,0,70,43,142,64c0,0,72,21,148,21c0,0,138,0,221,-72c0,0,83,-73,83,-191c0,0,0,-57,-27,-108c0,0,-27,-51,-94,-115L517,583c0,0,-34,-35,-49,-54c0,0,-14,-20,-20,-39c0,0,-5,-16,-7,-38c0,0,-2,-22,-2,-61V299Z" 
id="f0_2a"
transform="scale(0.001,-0.001)" />

<path d="M458,-20c0,0,-79,0,-168,17c0,0,-89,17,-184,52V204c0,0,91,-51,179,-77c0,0,88,-26,173,-26c0,0,129,0,199,50c0,0,70,51,70,145c0,0,0,82,-50,129c0,0,-50,46,-165,69l-92,18c0,0,-169,34,-244,105c0,0,-75,72,-75,199c0,0,0,148,104,233c0,0,104,85,287,85c0,0,78,0,159,-14c0,0,81,-14,166,-42V931c0,0,-85,41,-161,61c0,0,-76,20,-147,20c0,0,-123,0,-190,-48c0,0,-67,-48,-67,-136c0,0,0,-73,45,-111c0,0,44,-38,168,-61l91,-19c0,0,168,-32,249,-113c0,0,80,-81,80,-216c0,0,0,-162,-109,-246c0,0,-108,-82,-318,-82Z" 
id="f0_18"
transform="scale(0.001,-0.001)" />

<path d="M46,0L444,595L97,1114H259L536,700l278,414H976L618,579L999,0H837L524,474L209,0Z" 
id="f0_z"
transform="scale(0.001,-0.001)" />

<path d="M163,0V190H321V0Z" 
id="f0_l"
transform="scale(0.001,-0.001)" />


</defs>
</svg>