<?xml version="1.0" encoding="UTF-8" standalone="no"?>
<!DOCTYPE svg PUBLIC "-//W3C//DTD SVG 1.1//EN"
"http://www.w3.org/Graphics/SVG/1.1/DTD/svg11.dtd">
<svg viewBox="0 0 909 1286" version="1.1" xmlns="http://www.w3.org/2000/svg" xmlns:xlink="http://www.w3.org/1999/xlink">
<defs>
<clipPath id="c0_20"><path d="M0,1286.2V.2H909.3v1286Z" /></clipPath>
<style type="text/css"><![CDATA[
.g0_20{
fill: #00FF00;
}
]]></style>
</defs>
<path fill-rule="evenodd" d="M86.6,642.7H289.7V616H86.6v26.7Z" class="g0_20" />
<g clip-path="url(#c0_20)">
<g fill="#0000FF" >
<use xlink:href="#f0_10" transform="matrix(15,0,0,15,86.8,637.4)" />
<use xlink:href="#f0_a" transform="matrix(15,0,0,15,99.5,637.4)" />
<use xlink:href="#f0_16" transform="matrix(15,0,0,15,114.9,637.4)" />
<use xlink:href="#f0_s" transform="matrix(15,0,0,15,137.7,637.4)" />
<use xlink:href="#f0_6" transform="matrix(15,0,0,15,146.2,637.4)" />
<use xlink:href="#f0_j" transform="matrix(15,0,0,15,162.5,637.4)" />
<use xlink:href="#f0_g" transform="matrix(15,0,0,15,172.4,637.4)" />
<use xlink:href="#f0_b" transform="matrix(15,0,0,15,188.1,637.4)" />
<use xlink:href="#f0_z" transform="matrix(15,0,0,15,199.4,637.4)" />
<use xlink:href="#f0_a" transform="matrix(15,0,0,15,223.4,637.4)" />
<use xlink:href="#f0_4" transform="matrix(15,0,0,15,238.8,637.4)" />
<use xlink:href="#f0_5" transform="matrix(15,0,0,15,249.8,637.4)" />
<use xlink:href="#f0_g" transform="matrix(15,0,0,15,257.6,637.4)" />
<use xlink:href="#f0_6" transform="matrix(15,0,0,15,273.3,637.4)" />
</g>
<g fill="#000000" >
<use xlink:href="#f1_20" transform="matrix(12,0,0,12,86.8,667)" />
<use xlink:href="#f1_a" transform="matrix(12,0,0,12,103.9,667)" />
<use xlink:href="#f1_r" transform="matrix(12,0,0,12,115.2,667)" />
<use xlink:href="#f1_g" transform="matrix(12,0,0,12,121,667)" />
<use xlink:href="#f1_a" transform="matrix(12,0,0,12,128,667)" />
<use xlink:href="#f1_8" transform="matrix(12,0,0,12,145.2,667)" />
<use xlink:href="#f1_o" transform="matrix(12,0,0,12,156.4,667)" />
<use xlink:href="#f1_u" transform="matrix(12,0,0,12,161.4,667)" />
<use xlink:href="#f1_d" transform="matrix(12,0,0,12,179.3,667)" />
<use xlink:href="#f1_9" transform="matrix(12,0,0,12,190.4,667)" />
<use xlink:href="#f1_6" transform="matrix(12,0,0,12,200,667)" />
<use xlink:href="#f1_f" transform="matrix(12,0,0,12,213.2,667)" />
<use xlink:href="#f1_d" transform="matrix(12,0,0,12,224.8,667)" />
<use xlink:href="#f1_e" transform="matrix(12,0,0,12,235.9,667)" />
<use xlink:href="#f1_a" transform="matrix(12,0,0,12,247.5,667)" />
<use xlink:href="#f1_l" transform="matrix(12,0,0,12,258.8,667)" />
<use xlink:href="#f1_1r" transform="matrix(12,0,0,12,270.4,667)" />
<use xlink:href="#f1_d" transform="matrix(12,0,0,12,279.3,667)" />
<use xlink:href="#f1_k" transform="matrix(12,0,0,12,290.4,667)" />
<use xlink:href="#f1_r" transform="matrix(12,0,0,12,302,667)" />
<use xlink:href="#f1_o" transform="matrix(12,0,0,12,307.9,667)" />
<use xlink:href="#f1_o" transform="matrix(12,0,0,12,313,667)" />
<use xlink:href="#f1_8" transform="matrix(12,0,0,12,323.9,667)" />
<use xlink:href="#f1_6" transform="matrix(12,0,0,12,335.2,667)" />
<use xlink:href="#f1_o" transform="matrix(12,0,0,12,348.2,667)" />
<use xlink:href="#f1_a" transform="matrix(12,0,0,12,353.2,667)" />
<use xlink:href="#f1_8" transform="matrix(12,0,0,12,364.5,667)" />
<use xlink:href="#f1_9" transform="matrix(12,0,0,12,375.7,667)" />
<use xlink:href="#f1_6" transform="matrix(12,0,0,12,385.3,667)" />
<use xlink:href="#f1_7" transform="matrix(12,0,0,12,398.3,667)" />
<use xlink:href="#f1_8" transform="matrix(12,0,0,12,409.9,667)" />
<use xlink:href="#f1_t" transform="matrix(12,0,0,12,421.2,667)" />
<use xlink:href="#f1_a" transform="matrix(12,0,0,12,432,667)" />
<use xlink:href="#f1_6" transform="matrix(12,0,0,12,449.1,667)" />
<use xlink:href="#f1_d" transform="matrix(12,0,0,12,456.3,667)" />
<use xlink:href="#f1_h" transform="matrix(12,0,0,12,473.4,667)" />
<use xlink:href="#f1_c" transform="matrix(12,0,0,12,479.8,667)" />
<use xlink:href="#f1_o" transform="matrix(12,0,0,12,484.8,667)" />
<use xlink:href="#f1_o" transform="matrix(12,0,0,12,489.9,667)" />
<use xlink:href="#f1_d" transform="matrix(12,0,0,12,500.9,667)" />
<use xlink:href="#f1_k" transform="matrix(12,0,0,12,512,667)" />
<use xlink:href="#f1_6" transform="matrix(12,0,0,12,523.6,667)" />
<use xlink:href="#f1_6" transform="matrix(12,0,0,12,536.8,667)" />
<use xlink:href="#f1_7" transform="matrix(12,0,0,12,543.9,667)" />
<use xlink:href="#f1_a" transform="matrix(12,0,0,12,555.5,667)" />
<use xlink:href="#f1_1y" transform="matrix(12,0,0,12,572.6,667)" />
<use xlink:href="#f1_18" transform="matrix(12,0,0,12,586.1,667)" />
<use xlink:href="#f1_6" transform="matrix(12,0,0,12,603.5,667)" />
<use xlink:href="#f1_8" transform="matrix(12,0,0,12,610.7,667)" />
<use xlink:href="#f1_1h" transform="matrix(12,0,0,12,622,667)" />
<use xlink:href="#f1_h" transform="matrix(12,0,0,12,638.6,667)" />
<use xlink:href="#f1_d" transform="matrix(12,0,0,12,645,667)" />
<use xlink:href="#f1_g" transform="matrix(12,0,0,12,656.2,667)" />
<use xlink:href="#f1_u" transform="matrix(12,0,0,12,663.4,667)" />
<use xlink:href="#f1_9" transform="matrix(12,0,0,12,681.2,667)" />
<use xlink:href="#f1_l" transform="matrix(12,0,0,12,690.8,667)" />
<use xlink:href="#f1_1y" transform="matrix(12,0,0,12,702.6,667)" />
<use xlink:href="#f1_e" transform="matrix(12,0,0,12,716,667)" />
<use xlink:href="#f1_f" transform="matrix(12,0,0,12,727.6,667)" />
<use xlink:href="#f1_a" transform="matrix(12,0,0,12,739.2,667)" />
<use xlink:href="#f1_g" transform="matrix(12,0,0,12,750.5,667)" />
</g>
<g fill="#0000FF" >
<use xlink:href="#f0_10" transform="matrix(12,0,0,12,764.2,667)" />
<use xlink:href="#f0_a" transform="matrix(12,0,0,12,774.4,667)" />
<use xlink:href="#f0_16" transform="matrix(12,0,0,12,786.8,667)" />
<use xlink:href="#f0_s" transform="matrix(12,0,0,12,86.8,695.6)" />
<use xlink:href="#f0_6" transform="matrix(12,0,0,12,93.6,695.6)" />
<use xlink:href="#f0_j" transform="matrix(12,0,0,12,106.6,695.6)" />
<use xlink:href="#f0_g" transform="matrix(12,0,0,12,114.6,695.6)" />
</g>
<g fill="#000000" >
<use xlink:href="#f1_b" transform="matrix(12,0,0,12,133.7,695.6)" />
<use xlink:href="#f1_o" transform="matrix(12,0,0,12,143.7,695.6)" />
<use xlink:href="#f1_c" transform="matrix(12,0,0,12,148.8,695.6)" />
<use xlink:href="#f1_b" transform="matrix(12,0,0,12,153.8,695.6)" />
<use xlink:href="#f1_i" transform="matrix(12,0,0,12,163.9,695.6)" />
</g>
<g fill="#0000FF" >
<use xlink:href="#f0_9" transform="matrix(12,0,0,12,180.4,695.6)" />
<use xlink:href="#f0_3" transform="matrix(12,0,0,12,193.7,695.6)" />
<use xlink:href="#f0_4" transform="matrix(12,0,0,12,206.1,695.6)" />
<use xlink:href="#f0_1c" transform="matrix(12,0,0,12,221.2,695.6)" />
<use xlink:href="#f0_q" transform="matrix(12,0,0,12,236,695.6)" />
</g>
<g fill="#000000" >
<use xlink:href="#f1_1e" transform="matrix(12,0,0,12,249.3,695.6)" />
<use xlink:href="#f1_1r" transform="matrix(12,0,0,12,86.8,895.7)" />
<use xlink:href="#f1_d" transform="matrix(12,0,0,12,95.6,895.7)" />
<use xlink:href="#f1_k" transform="matrix(12,0,0,12,106.8,895.7)" />
<use xlink:href="#f0_z" transform="matrix(12,0,0,12,124.2,895.7)" />
<use xlink:href="#f0_o" transform="matrix(12,0,0,12,143.3,895.7)" />
<use xlink:href="#f0_k" transform="matrix(12,0,0,12,156.4,895.7)" />
<use xlink:href="#f0_4" transform="matrix(12,0,0,12,167.3,895.7)" />
<use xlink:href="#f1_b" transform="matrix(12,0,0,12,182.4,895.7)" />
<use xlink:href="#f1_d" transform="matrix(12,0,0,12,192.5,895.7)" />
<use xlink:href="#f1_u" transform="matrix(12,0,0,12,203.6,895.7)" />
<use xlink:href="#f1_s" transform="matrix(12,0,0,12,221.5,895.7)" />
<use xlink:href="#f1_o" transform="matrix(12,0,0,12,233.2,895.7)" />
<use xlink:href="#f1_a" transform="matrix(12,0,0,12,238.3,895.7)" />
<use xlink:href="#f1_6" transform="matrix(12,0,0,12,249.6,895.7)" />
<use xlink:href="#f1_a" transform="matrix(12,0,0,12,256.8,895.7)" />
<use xlink:href="#f1_6" transform="matrix(12,0,0,12,273.9,895.7)" />
<use xlink:href="#f1_7" transform="matrix(12,0,0,12,281.1,895.7)" />
<use xlink:href="#f1_a" transform="matrix(12,0,0,12,292.7,895.7)" />
<use xlink:href="#f1_1y" transform="matrix(12,0,0,12,309.8,895.7)" />
<use xlink:href="#f1_18" transform="matrix(12,0,0,12,323.2,895.7)" />
<use xlink:href="#f1_h" transform="matrix(12,0,0,12,340.6,895.7)" />
<use xlink:href="#f1_d" transform="matrix(12,0,0,12,347.1,895.7)" />
<use xlink:href="#f1_g" transform="matrix(12,0,0,12,358.3,895.7)" />
<use xlink:href="#f1_u" transform="matrix(12,0,0,12,365.5,895.7)" />
<use xlink:href="#f1_e" transform="matrix(12,0,0,12,389.1,895.7)" />
<use xlink:href="#f1_d" transform="matrix(12,0,0,12,400.7,895.7)" />
<use xlink:href="#f1_u" transform="matrix(12,0,0,12,417.9,895.7)" />
<use xlink:href="#f1_8" transform="matrix(12,0,0,12,435.7,895.7)" />
<use xlink:href="#f1_6" transform="matrix(12,0,0,12,447,895.7)" />
<use xlink:href="#f1_6" transform="matrix(12,0,0,12,454.2,895.7)" />
<use xlink:href="#f1_a" transform="matrix(12,0,0,12,461.2,895.7)" />
<use xlink:href="#f1_g" transform="matrix(12,0,0,12,472.5,895.7)" />
<use xlink:href="#f1_n" transform="matrix(12,0,0,12,485.9,895.7)" />
<use xlink:href="#f1_7" transform="matrix(12,0,0,12,500.9,895.7)" />
<use xlink:href="#f1_8" transform="matrix(12,0,0,12,512.5,895.7)" />
<use xlink:href="#f1_6" transform="matrix(12,0,0,12,523.8,895.7)" />
<use xlink:href="#f1_a" transform="matrix(12,0,0,12,531,895.7)" />
<use xlink:href="#f1_t" transform="matrix(12,0,0,12,542.3,895.7)" />
<use xlink:href="#f1_a" transform="matrix(12,0,0,12,553,895.7)" />
<use xlink:href="#f1_g" transform="matrix(12,0,0,12,564.3,895.7)" />
<use xlink:href="#f1_d" transform="matrix(12,0,0,12,577.7,895.7)" />
<use xlink:href="#f1_6" transform="matrix(12,0,0,12,588.9,895.7)" />
<use xlink:href="#f1_7" transform="matrix(12,0,0,12,596.1,895.7)" />
<use xlink:href="#f1_a" transform="matrix(12,0,0,12,607.7,895.7)" />
<use xlink:href="#f1_g" transform="matrix(12,0,0,12,619,895.7)" />
<use xlink:href="#f1_h" transform="matrix(12,0,0,12,632.4,895.7)" />
<use xlink:href="#f1_d" transform="matrix(12,0,0,12,638.8,895.7)" />
<use xlink:href="#f1_g" transform="matrix(12,0,0,12,650,895.7)" />
<use xlink:href="#f1_u" transform="matrix(12,0,0,12,657.1,895.7)" />
<use xlink:href="#f1_9" transform="matrix(12,0,0,12,675,895.7)" />
<use xlink:href="#f1_p" transform="matrix(12,0,0,12,690.4,895.7)" />
<use xlink:href="#f1_d" transform="matrix(12,0,0,12,701.2,895.7)" />
<use xlink:href="#f1_k" transform="matrix(12,0,0,12,712.4,895.7)" />
<use xlink:href="#f1_u" transform="matrix(12,0,0,12,730,895.7)" />
<use xlink:href="#f1_8" transform="matrix(12,0,0,12,747.8,895.7)" />
<use xlink:href="#f1_p" transform="matrix(12,0,0,12,759,895.7)" />
<use xlink:href="#f1_8" transform="matrix(12,0,0,12,775.7,895.7)" />
<use xlink:href="#f1_o" transform="matrix(12,0,0,12,786.9,895.7)" />
<use xlink:href="#f1_9" transform="matrix(12,0,0,12,791.9,895.7)" />
<use xlink:href="#f1_d" transform="matrix(12,0,0,12,801.5,895.7)" />
<use xlink:href="#f1_e" transform="matrix(12,0,0,12,86.8,924.5)" />
<use xlink:href="#f1_a" transform="matrix(12,0,0,12,98.4,924.5)" />
<use xlink:href="#f1_a" transform="matrix(12,0,0,12,109.7,924.5)" />
<use xlink:href="#f1_f" transform="matrix(12,0,0,12,121,924.5)" />
<use xlink:href="#f1_6" transform="matrix(12,0,0,12,138.4,924.5)" />
<use xlink:href="#f1_d" transform="matrix(12,0,0,12,145.6,924.5)" />
<use xlink:href="#f1_b" transform="matrix(12,0,0,12,162.7,924.5)" />
<use xlink:href="#f1_d" transform="matrix(12,0,0,12,172.7,924.5)" />
<use xlink:href="#f1_u" transform="matrix(12,0,0,12,183.9,924.5)" />
<use xlink:href="#f1_s" transform="matrix(12,0,0,12,201.7,924.5)" />
<use xlink:href="#f1_o" transform="matrix(12,0,0,12,213.4,924.5)" />
<use xlink:href="#f1_a" transform="matrix(12,0,0,12,218.4,924.5)" />
<use xlink:href="#f1_6" transform="matrix(12,0,0,12,229.7,924.5)" />
<use xlink:href="#f1_a" transform="matrix(12,0,0,12,236.9,924.5)" />
<use xlink:href="#f1_l" transform="matrix(12,0,0,12,248.2,924.5)" />
<use xlink:href="#f1_1f" transform="matrix(12,0,0,12,259.9,924.5)" />
<use xlink:href="#f1_o" transform="matrix(12,0,0,12,272.7,924.5)" />
<use xlink:href="#f1_c" transform="matrix(12,0,0,12,277.8,924.5)" />
<use xlink:href="#f1_b" transform="matrix(12,0,0,12,282.8,924.5)" />
<use xlink:href="#f1_i" transform="matrix(12,0,0,12,292.9,924.5)" />
</g>
<g fill="#0000FF" >
<use xlink:href="#f0_9" transform="matrix(12,0,0,12,309.5,924.5)" />
<use xlink:href="#f0_3" transform="matrix(12,0,0,12,322.8,924.5)" />
<use xlink:href="#f0_4" transform="matrix(12,0,0,12,335.2,924.5)" />
<use xlink:href="#f0_1c" transform="matrix(12,0,0,12,350.3,924.5)" />
<use xlink:href="#f0_q" transform="matrix(12,0,0,12,365.1,924.5)" />
</g>
<g fill="#000000" >
<use xlink:href="#f1_k" transform="matrix(12,0,0,12,384.8,924.5)" />
<use xlink:href="#f1_e" transform="matrix(12,0,0,12,396.5,924.5)" />
<use xlink:href="#f1_f" transform="matrix(12,0,0,12,408.1,924.5)" />
<use xlink:href="#f1_a" transform="matrix(12,0,0,12,419.7,924.5)" />
<use xlink:href="#f1_g" transform="matrix(12,0,0,12,431,924.5)" />
<use xlink:href="#f1_1y" transform="matrix(12,0,0,12,444.2,924.5)" />
<use xlink:href="#f1_l" transform="matrix(12,0,0,12,457.7,924.5)" />
<use xlink:href="#f1_18" transform="matrix(12,0,0,12,463.5,924.5)" />
<use xlink:href="#f1_l" transform="matrix(12,0,0,12,475.1,924.5)" />
<use xlink:href="#f1_w" transform="matrix(12,0,0,12,486.8,924.5)" />
<use xlink:href="#f1_8" transform="matrix(12,0,0,12,494.9,924.5)" />
<use xlink:href="#f1_1h" transform="matrix(12,0,0,12,506.2,924.5)" />
<use xlink:href="#f1_1u" transform="matrix(12,0,0,12,522.9,924.5)" />
<use xlink:href="#f1_d" transform="matrix(12,0,0,12,532.8,924.5)" />
<use xlink:href="#f1_g" transform="matrix(12,0,0,12,544,924.5)" />
<use xlink:href="#f1_u" transform="matrix(12,0,0,12,551.1,924.5)" />
<use xlink:href="#f1_9" transform="matrix(12,0,0,12,569,924.5)" />
<use xlink:href="#f1_1e" transform="matrix(12,0,0,12,578.6,924.5)" />
</g>
</g>
<image preserveAspectRatio="none" x="87" y="87" width="736" height="219" xlink:href="img/1.png" />
<image preserveAspectRatio="none" x="87" y="700" width="736" height="150" xlink:href="img/2.png" />
<defs>
<path d="M377,0V897H8v217H1034V897H665V0Z" 
id="f0_10"
transform="scale(0.001,-0.001)" />

<path d="M463,156c0,0,75,0,127,54c0,0,51,54,51,135v30H502c0,0,-83,0,-125,-28c0,0,-43,-28,-43,-83c0,0,0,-50,34,-79c0,0,34,-29,95,-29ZM357,-20c0,0,-130,0,-211,74c0,0,-80,76,-80,197c0,0,0,147,101,215c0,0,101,69,317,69H641v21c0,0,0,63,-50,92c0,0,-49,30,-155,30c0,0,-86,0,-160,-17c0,0,-74,-18,-137,-52V813c0,0,86,21,172,32c0,0,86,11,173,11c0,0,226,0,326,-90c0,0,100,-89,100,-290V0H641V124C641,124,588,48,521,13c0,0,-68,-33,-164,-33Z" 
id="f0_a"
transform="scale(0.001,-0.001)" />

<path d="M23,0L340,428L38,836H321L492,588L665,836H948L647,429L963,0H680L492,264L306,0Z" 
id="f0_16"
transform="scale(0.001,-0.001)" />

<path d="M140,0V1114H427V0Z" 
id="f0_s"
transform="scale(0.001,-0.001)" />

<path d="M128,0V836H395V713c0,0,60,73,128,108c0,0,68,35,150,35c0,0,145,0,220,-89c0,0,75,-89,75,-258V0H699V389c0,0,0,109,-5,150c0,0,-5,41,-16,60c0,0,-16,26,-43,41c0,0,-27,14,-61,14c0,0,-84,0,-131,-64c0,0,-48,-65,-48,-179V0Z" 
id="f0_6"
transform="scale(0.001,-0.001)" />

<path d="M162,0V645H29V836H162v58c0,0,0,136,76,201c0,0,76,66,236,66H679V986H531c0,0,-57,0,-79,-21c0,0,-23,-20,-23,-71V836H657V645H429V0Z" 
id="f0_j"
transform="scale(0.001,-0.001)" />

<path d="M526,169c0,0,87,0,133,64c0,0,46,64,46,184c0,0,0,120,-46,184c0,0,-46,64,-133,64c0,0,-89,0,-135,-64c0,0,-47,-64,-47,-184c0,0,0,-120,47,-184c0,0,46,-64,135,-64Zm0,-189c0,0,-217,0,-339,115C187,95,66,211,66,417c0,0,0,206,121,322c0,0,122,117,339,117c0,0,215,0,336,-117c0,0,122,-116,122,-322c0,0,0,-206,-122,-322C862,95,741,-20,526,-20Z" 
id="f0_g"
transform="scale(0.001,-0.001)" />

<path d="M128,0V836H395V698c0,0,52,82,118,120c0,0,67,38,161,38c0,0,13,0,29,-2c0,0,15,-1,45,-4l1,-242c0,0,-35,17,-70,25c0,0,-35,7,-70,7c0,0,-103,0,-158,-66c0,0,-56,-66,-56,-189V0Z" 
id="f0_b"
transform="scale(0.001,-0.001)" />

<path d="M127,0V836H396V713c0,0,49,71,113,107c0,0,64,36,141,36c0,0,86,0,152,-42c0,0,67,-42,101,-118c0,0,51,78,121,119c0,0,69,41,153,41c0,0,144,0,219,-89c0,0,76,-89,76,-258V0H1203V436c0,0,0,9,1,20c0,0,0,10,0,30c0,0,0,88,-26,128c0,0,-26,40,-84,40c0,0,-76,0,-117,-63c0,0,-42,-62,-43,-181V0H665V436c0,0,0,138,-24,178c0,0,-24,40,-85,40c0,0,-77,0,-118,-63c0,0,-42,-63,-42,-180V0Z" 
id="f0_z"
transform="scale(0.001,-0.001)" />

<path d="M443,0C443,0,285,0,219,66c0,0,-66,66,-66,224V645H20V836H153v237H419V836H695V645H419V290c0,0,0,-58,24,-79c0,0,23,-20,91,-20H672V0Z" 
id="f0_4"
transform="scale(0.001,-0.001)" />

<path d="M128,0V836H395V0Zm0,944v217H395V944Z" 
id="f0_5"
transform="scale(0.001,-0.001)" />

<path d="M330,0L51,1114H203L437,172l234,942H840L1074,172l234,942h153L1181,0H992L757,967L519,0Z" 
id="f1_20"
transform="scale(0.001,-0.001)" />

<path d="M231,492l491,1c0,0,-2,112,-64,179c0,0,-61,67,-163,67c0,0,-115,0,-184,-65c0,0,-69,-64,-80,-182ZM517,-20c0,0,-199,0,-316,115C201,95,84,211,84,410c0,0,0,205,111,325c0,0,111,121,299,121c0,0,168,0,266,-109c0,0,98,-108,98,-295V385H227c0,0,9,-142,85,-216c0,0,77,-74,213,-74c0,0,80,0,154,19c0,0,74,19,147,58V42C826,42,752,11,675,-4c0,0,-78,-16,-158,-16Z" 
id="f1_a"
transform="scale(0.001,-0.001)" />

<path d="M132,763l62,237v114H351V1000L228,763Z" 
id="f1_r"
transform="scale(0.001,-0.001)" />

<path d="M139,0V836H277V706c0,0,43,76,112,113c0,0,70,37,169,37c0,0,14,0,31,-2c0,0,17,-2,38,-6l1,-141c0,0,-23,14,-51,20c0,0,-27,6,-60,6c0,0,-116,0,-178,-75c0,0,-62,-76,-62,-218V0Z" 
id="f1_g"
transform="scale(0.001,-0.001)" />

<path d="M408,93c0,0,115,0,184,81c0,0,69,81,69,215v30H524c0,0,-167,0,-231,-38c0,0,-64,-38,-64,-129c0,0,0,-73,48,-116c0,0,48,-43,131,-43ZM372,-20c0,0,-128,0,-204,70c0,0,-76,72,-76,193c0,0,0,141,94,212c0,0,95,72,282,72H661v13c0,0,0,95,-62,147c0,0,-63,52,-175,52c0,0,-72,0,-140,-17c0,0,-68,-17,-130,-51V798c0,0,75,29,146,43c0,0,71,15,138,15c0,0,181,0,270,-95c0,0,90,-94,90,-285V0H661V127C661,127,614,51,544,15c0,0,-70,-35,-172,-35Z" 
id="f1_8"
transform="scale(0.001,-0.001)" />

<path d="M144,0V1161H281V0Z" 
id="f1_o"
transform="scale(0.001,-0.001)" />

<path d="M139,0V836H277V706c0,0,47,77,112,113c0,0,66,37,156,37c0,0,91,0,155,-47c0,0,64,-46,94,-134c0,0,52,93,123,137c0,0,72,44,169,44c0,0,130,0,201,-92c0,0,71,-91,71,-260V0H1220V500c0,0,0,120,-42,178c0,0,-43,58,-130,58c0,0,-107,0,-169,-71c0,0,-62,-70,-62,-193V0H680V500c0,0,0,121,-43,179c0,0,-42,57,-131,57c0,0,-105,0,-167,-71c0,0,-62,-71,-62,-193V0Z" 
id="f1_u"
transform="scale(0.001,-0.001)" />

<path d="M467,95c0,0,110,0,174,86c0,0,64,87,64,236c0,0,0,148,-64,235c0,0,-64,87,-174,87c0,0,-110,0,-174,-86c0,0,-64,-86,-64,-236c0,0,0,-150,64,-236c0,0,63,-86,174,-86Zm0,-115c0,0,-179,0,-281,115C186,95,84,212,84,417c0,0,0,206,102,322c0,0,102,117,281,117c0,0,179,0,282,-117c0,0,102,-116,102,-322c0,0,0,-205,-102,-322C749,95,646,-20,467,-20Z" 
id="f1_d"
transform="scale(0.001,-0.001)" />

<path d="M376,-20c0,0,-67,0,-140,12C236,-8,164,4,83,30V172c0,0,76,-40,150,-59c0,0,74,-20,146,-20c0,0,97,0,150,33c0,0,52,33,52,94c0,0,0,56,-38,85c0,0,-38,30,-165,58l-48,11c0,0,-128,27,-184,83c0,0,-57,55,-57,152c0,0,0,118,83,182c0,0,84,65,238,65c0,0,76,0,143,-12c0,0,67,-11,124,-33V681c0,0,-58,29,-121,44c0,0,-63,15,-130,15c0,0,-102,0,-153,-31c0,0,-51,-31,-51,-94c0,0,0,-48,37,-75c0,0,36,-27,147,-52l46,-10c0,0,147,-32,208,-89c0,0,62,-57,62,-159c0,0,0,-116,-93,-184c0,0,-92,-66,-253,-66Z" 
id="f1_9"
transform="scale(0.001,-0.001)" />

<path d="M421,0C421,0,263,0,202,59c0,0,-60,60,-60,217V729H41V836H142v238H280V836H562V729H280V276c0,0,0,-102,28,-132c0,0,28,-29,113,-29H562V0Z" 
id="f1_6"
transform="scale(0.001,-0.001)" />

<path d="M460,93c0,0,109,0,171,86c0,0,63,86,63,238c0,0,0,151,-63,237c0,0,-62,86,-171,86c0,0,-109,0,-172,-86c0,0,-62,-86,-62,-237c0,0,0,-152,62,-238c0,0,63,-86,172,-86ZM426,-20c0,0,-151,0,-247,119c0,0,-95,121,-95,318c0,0,0,197,95,318c0,0,96,121,247,121c0,0,93,0,159,-37c0,0,66,-36,109,-110v452H831V0H694V125C694,125,651,51,585,15c0,0,-66,-35,-159,-35Z" 
id="f1_f"
transform="scale(0.001,-0.001)" />

<path d="M139,0V836H277V706c0,0,49,75,116,112c0,0,67,38,154,38c0,0,144,0,218,-90c0,0,74,-89,74,-262V0H702V500c0,0,0,119,-46,177c0,0,-47,59,-139,59c0,0,-112,0,-176,-71c0,0,-64,-70,-64,-193V0Z" 
id="f1_e"
transform="scale(0.001,-0.001)" />

<path d="M163,0V190H321V0Z" 
id="f1_l"
transform="scale(0.001,-0.001)" />

<path d="M391,0V530L-2,1114H159L468,656l307,458H937L543,530V0Z" 
id="f1_1r"
transform="scale(0.001,-0.001)" />

<path d="M424,-20c0,0,-145,0,-219,88c0,0,-75,89,-75,262V836H267V335c0,0,0,-119,46,-178c0,0,47,-59,139,-59c0,0,112,0,177,71c0,0,64,71,64,193V836H830V0H693V128C693,128,643,52,577,15c0,0,-66,-35,-153,-35Z" 
id="f1_k"
transform="scale(0.001,-0.001)" />

<path d="M139,0V1161H277V706c0,0,49,75,116,112c0,0,67,38,154,38c0,0,144,0,218,-90c0,0,74,-89,74,-262V0H702V500c0,0,0,119,-46,177c0,0,-47,59,-139,59c0,0,-112,0,-176,-71c0,0,-64,-70,-64,-193V0Z" 
id="f1_7"
transform="scale(0.001,-0.001)" />

<path d="M359,0L46,836H191L453,134L714,836H859L546,0Z" 
id="f1_t"
transform="scale(0.001,-0.001)" />

<path d="M166,0V729H35V836H166v58c0,0,0,139,65,203c0,0,65,64,206,64H567V1046H435c0,0,-74,0,-102,-29c0,0,-29,-30,-29,-107V836H530V729H304V0Z" 
id="f1_h"
transform="scale(0.001,-0.001)" />

<path d="M144,0V836H281V0Zm0,987v174H281V987Z" 
id="f1_c"
transform="scale(0.001,-0.001)" />

<path d="M560,-20c0,0,-211,0,-319,110c0,0,-108,111,-108,328v696H285V437c0,0,0,-179,64,-258c0,0,65,-78,211,-78c0,0,144,0,209,78c0,0,65,79,65,258v677H986V418c0,0,0,-217,-108,-328C878,90,770,-20,560,-20Z" 
id="f1_1y"
transform="scale(0.001,-0.001)" />

<path d="M458,-20c0,0,-79,0,-168,17c0,0,-89,17,-184,52V204c0,0,91,-51,179,-77c0,0,88,-26,173,-26c0,0,129,0,199,50c0,0,70,51,70,145c0,0,0,82,-50,129c0,0,-50,46,-165,69l-92,18c0,0,-169,34,-244,105c0,0,-75,72,-75,199c0,0,0,148,104,233c0,0,104,85,287,85c0,0,78,0,159,-14c0,0,81,-14,166,-42V931c0,0,-85,41,-161,61c0,0,-76,20,-147,20c0,0,-123,0,-190,-48c0,0,-67,-48,-67,-136c0,0,0,-73,45,-111c0,0,44,-38,168,-61l91,-19c0,0,168,-32,249,-113c0,0,80,-81,80,-216c0,0,0,-162,-109,-246c0,0,-108,-82,-318,-82Z" 
id="f1_18"
transform="scale(0.001,-0.001)" />

<path d="M44,0L369,437L71,836H233L455,538L677,836H839L537,429L855,0H693L449,328L206,0Z" 
id="f1_1h"
transform="scale(0.001,-0.001)" />

<path d="M495,-20c0,0,-189,0,-300,117C195,97,84,216,84,417c0,0,0,204,112,321c0,0,113,118,308,118c0,0,64,0,124,-14c0,0,60,-13,117,-39V675c0,0,-58,32,-117,48c0,0,-58,16,-118,16c0,0,-133,0,-207,-84c0,0,-74,-85,-74,-238c0,0,0,-153,74,-238c0,0,74,-84,207,-84c0,0,60,0,118,16c0,0,59,16,117,48V32C745,32,688,5,626,-7c0,0,-61,-13,-131,-13Z" 
id="f1_b"
transform="scale(0.001,-0.001)" />

<path d="M139,0V1161H277V475L686,836H861L418,445L880,0H701L277,408V0Z" 
id="f1_i"
transform="scale(0.001,-0.001)" />

<path d="M545,-20c0,0,-106,0,-212,20C333,0,226,19,119,58V301c0,0,107,-57,207,-85c0,0,99,-29,192,-29c0,0,94,0,144,31c0,0,50,31,50,90c0,0,0,52,-34,80c0,0,-34,29,-136,51L431,464c0,0,-167,35,-244,114c0,0,-77,78,-77,211c0,0,0,166,107,256c0,0,107,89,309,89c0,0,92,0,189,-14c0,0,97,-13,200,-41V843c0,0,-92,41,-179,62c0,0,-87,21,-165,21c0,0,-103,0,-152,-28c0,0,-49,-29,-49,-88c0,0,0,-45,33,-70c0,0,33,-25,121,-43L646,672c0,0,186,-37,264,-113c0,0,79,-76,79,-216c0,0,0,-185,-110,-275c0,0,-109,-88,-334,-88Z" 
id="f0_9"
transform="scale(0.001,-0.001)" />

<path d="M687,509c0,0,0,76,-44,122c0,0,-44,47,-116,47c0,0,-78,0,-126,-44c0,0,-49,-43,-61,-125ZM544,-20c0,0,-227,0,-353,114C191,94,66,209,66,417c0,0,0,204,123,321c0,0,123,118,340,118c0,0,197,0,315,-119c0,0,118,-118,118,-317V344H337c0,0,10,-94,68,-141c0,0,59,-47,163,-47c0,0,85,0,173,25c0,0,89,25,182,76V51C923,51,828,15,733,-2c0,0,-94,-18,-189,-18Z" 
id="f0_3"
transform="scale(0.001,-0.001)" />

<path d="M620,-20c0,0,-243,0,-362,114c0,0,-118,116,-118,352v668H427V446c0,0,0,-138,45,-197c0,0,45,-59,148,-59c0,0,102,0,147,59c0,0,46,59,46,197v668h287V446c0,0,0,-236,-119,-352C981,94,863,-20,620,-20Z" 
id="f0_1c"
transform="scale(0.001,-0.001)" />

<path d="M573,172c0,0,86,0,131,63c0,0,45,63,45,182c0,0,0,119,-45,182c0,0,-45,63,-131,63c0,0,-86,0,-132,-63c0,0,-46,-63,-46,-182c0,0,0,-119,46,-182c0,0,46,-63,132,-63ZM128,-317V836H395V713c0,0,55,73,122,108c0,0,68,35,155,35c0,0,154,0,253,-123c0,0,100,-123,100,-316c0,0,0,-193,-100,-316c0,0,-99,-121,-253,-121c0,0,-87,0,-155,33c0,0,-67,35,-122,108V-317Z" 
id="f0_q"
transform="scale(0.001,-0.001)" />

<path d="M179,0V190H336V0Zm0,600V790H336V600Z" 
id="f1_1e"
transform="scale(0.001,-0.001)" />

<path d="M415,-20c0,0,-144,0,-220,87c0,0,-76,89,-76,259V836H388V752c0,0,0,-67,-1,-170c0,0,0,-103,0,-137c0,0,0,-101,5,-145c0,0,5,-44,18,-65c0,0,16,-26,43,-40c0,0,26,-14,60,-14c0,0,84,0,132,64c0,0,47,64,47,178V836H959V0H692V121C692,121,632,48,564,13c0,0,-67,-33,-149,-33Z" 
id="f0_o"
transform="scale(0.001,-0.001)" />

<path d="M445,-20c0,0,-83,0,-171,12C274,-8,185,4,92,30V234c0,0,80,-39,164,-58c0,0,84,-20,170,-20c0,0,79,0,118,22c0,0,40,22,40,64c0,0,0,36,-28,53c0,0,-27,18,-108,27l-47,6c0,0,-179,23,-250,83c0,0,-72,61,-72,184c0,0,0,132,91,196c0,0,91,65,279,65c0,0,74,0,155,-12c0,0,82,-11,177,-34V606c0,0,-86,36,-165,54c0,0,-80,18,-151,18c0,0,-76,0,-113,-19c0,0,-37,-19,-37,-59c0,0,0,-32,28,-49c0,0,28,-17,100,-25l47,-7c0,0,205,-26,276,-86c0,0,71,-59,71,-187c0,0,0,-133,-98,-200c0,0,-99,-66,-294,-66Z" 
id="f0_k"
transform="scale(0.001,-0.001)" />

<path d="M510,93c0,0,109,0,171,86c0,0,62,86,62,238c0,0,0,151,-62,237c0,0,-62,86,-171,86c0,0,-109,0,-171,-86c0,0,-62,-86,-62,-237c0,0,0,-152,62,-238c0,0,62,-86,171,-86ZM139,-317V836H277V709c0,0,43,74,109,110c0,0,66,37,158,37c0,0,152,0,247,-121c0,0,95,-121,95,-318c0,0,0,-197,-95,-318C791,99,696,-20,544,-20c0,0,-92,0,-158,35c0,0,-66,36,-109,110V-317Z" 
id="f1_s"
transform="scale(0.001,-0.001)" />

<path d="M283,0L65,836H202L373,184L544,836H706L878,184l171,652h137L967,0H806L626,685L445,0Z" 
id="f1_n"
transform="scale(0.001,-0.001)" />

<path d="M121,-317v116h81c0,0,57,0,88,26c0,0,31,27,69,127l25,62L46,836H191L453,182L714,836H859L492,-76c0,0,-58,-150,-113,-195c0,0,-55,-46,-148,-46Z" 
id="f1_p"
transform="scale(0.001,-0.001)" />

<path d="M630,-20c0,0,-253,0,-398,153C232,133,86,288,86,556c0,0,0,269,146,423c0,0,145,155,398,155c0,0,100,0,189,-26c0,0,88,-27,166,-79V869c0,0,-76,71,-163,106c0,0,-86,35,-183,35c0,0,-191,0,-292,-117C347,893,245,777,245,556c0,0,0,-220,102,-337c0,0,101,-116,292,-116c0,0,97,0,183,35c0,0,87,35,163,105V86C985,86,906,32,817,5c0,0,-88,-25,-187,-25Z" 
id="f1_1f"
transform="scale(0.001,-0.001)" />

<path d="M391,0V987H-3v127H938V987H543V0Z" 
id="f1_w"
transform="scale(0.001,-0.001)" />

<path d="M150,0V1114H790V987H300V659H742V532H300V0Z" 
id="f1_1u"
transform="scale(0.001,-0.001)" />


</defs>
</svg>