<?xml version="1.0" encoding="UTF-8" standalone="no"?>
<!DOCTYPE svg PUBLIC "-//W3C//DTD SVG 1.1//EN"
"http://www.w3.org/Graphics/SVG/1.1/DTD/svg11.dtd">
<svg viewBox="0 0 909 1286" version="1.1" xmlns="http://www.w3.org/2000/svg" xmlns:xlink="http://www.w3.org/1999/xlink">
<defs>
<clipPath id="c0_29"><path d="M0,1286.2V.2H909.3v1286Z" /></clipPath>
</defs>
<g clip-path="url(#c0_29)">
<g fill="#000000" >
<use xlink:href="#f0_a" transform="matrix(12,0,0,12,121.2,110.9)" />
<use xlink:href="#f0_8" transform="matrix(12,0,0,12,132.4,110.9)" />
<use xlink:href="#f0_g" transform="matrix(12,0,0,12,143.7,110.9)" />
<use xlink:href="#f0_o" transform="matrix(12,0,0,12,151.2,110.9)" />
<use xlink:href="#f0_c" transform="matrix(12,0,0,12,156.3,110.9)" />
<use xlink:href="#f0_a" transform="matrix(12,0,0,12,161.3,110.9)" />
<use xlink:href="#f0_g" transform="matrix(12,0,0,12,172.6,110.9)" />
<use xlink:href="#f0_l" transform="matrix(12,0,0,12,178.4,110.9)" />
<use xlink:href="#f1_2" transform="matrix(12,0,0,12,121.2,151.1)" />
<use xlink:href="#f0_18" transform="matrix(12,0,0,12,127.7,151.1)" />
<use xlink:href="#f0_3" transform="matrix(12,0,0,12,139.3,151.1)" />
<use xlink:href="#f0_1y" transform="matrix(12,0,0,12,150.9,151.1)" />
<use xlink:href="#f0_23" transform="matrix(12,0,0,12,170.2,151.1)" />
<use xlink:href="#f0_8" transform="matrix(12,0,0,12,185.1,151.1)" />
<use xlink:href="#f0_k" transform="matrix(12,0,0,12,202.2,151.1)" />
<use xlink:href="#f0_e" transform="matrix(12,0,0,12,213.9,151.1)" />
<use xlink:href="#f0_c" transform="matrix(12,0,0,12,225.5,151.1)" />
<use xlink:href="#f0_21" transform="matrix(12,0,0,12,230.5,151.1)" />
<use xlink:href="#f0_k" transform="matrix(12,0,0,12,242.1,151.1)" />
<use xlink:href="#f0_a" transform="matrix(12,0,0,12,253.7,151.1)" />
<use xlink:href="#f0_19" transform="matrix(12,0,0,12,270.8,151.1)" />
<use xlink:href="#f0_15" transform="matrix(12,0,0,12,276.3,151.1)" />
<use xlink:href="#f0_h" transform="matrix(12,0,0,12,296.2,151.1)" />
<use xlink:href="#f0_d" transform="matrix(12,0,0,12,302.7,151.1)" />
<use xlink:href="#f0_g" transform="matrix(12,0,0,12,313.9,151.1)" />
<use xlink:href="#f0_p" transform="matrix(12,0,0,12,327.3,151.1)" />
<use xlink:href="#f0_d" transform="matrix(12,0,0,12,338.1,151.1)" />
<use xlink:href="#f0_k" transform="matrix(12,0,0,12,349.3,151.1)" />
<use xlink:href="#f0_g" transform="matrix(12,0,0,12,360.9,151.1)" />
<use xlink:href="#f0_8" transform="matrix(12,0,0,12,374.3,151.1)" />
<use xlink:href="#f0_s" transform="matrix(12,0,0,12,385.4,151.1)" />
<use xlink:href="#f0_s" transform="matrix(12,0,0,12,397,151.1)" />
<use xlink:href="#f0_c" transform="matrix(12,0,0,12,414.6,151.1)" />
<use xlink:href="#f0_e" transform="matrix(12,0,0,12,419.6,151.1)" />
<use xlink:href="#f0_6" transform="matrix(12,0,0,12,437,151.1)" />
<use xlink:href="#f0_7" transform="matrix(12,0,0,12,444.2,151.1)" />
<use xlink:href="#f0_a" transform="matrix(12,0,0,12,455.8,151.1)" />
<use xlink:href="#f0_1k" transform="matrix(12,0,0,12,472.9,151.1)" />
<use xlink:href="#f0_s" transform="matrix(12,0,0,12,485.5,151.1)" />
<use xlink:href="#f0_s" transform="matrix(12,0,0,12,497.1,151.1)" />
<use xlink:href="#f0_o" transform="matrix(12,0,0,12,508.8,151.1)" />
<use xlink:href="#f0_a" transform="matrix(12,0,0,12,513.9,151.1)" />
<use xlink:href="#f0_9" transform="matrix(12,0,0,12,531,151.1)" />
<use xlink:href="#f0_p" transform="matrix(12,0,0,12,540.6,151.1)" />
<use xlink:href="#f0_9" transform="matrix(12,0,0,12,551.3,151.1)" />
<use xlink:href="#f0_6" transform="matrix(12,0,0,12,560.9,151.1)" />
<use xlink:href="#f0_a" transform="matrix(12,0,0,12,568.1,151.1)" />
<use xlink:href="#f0_u" transform="matrix(12,0,0,12,579.3,151.1)" />
<use xlink:href="#f0_6" transform="matrix(12,0,0,12,603,151.1)" />
<use xlink:href="#f0_7" transform="matrix(12,0,0,12,610.2,151.1)" />
<use xlink:href="#f0_8" transform="matrix(12,0,0,12,621.8,151.1)" />
<use xlink:href="#f0_6" transform="matrix(12,0,0,12,633.1,151.1)" />
<use xlink:href="#f0_c" transform="matrix(12,0,0,12,646.1,151.1)" />
<use xlink:href="#f0_9" transform="matrix(12,0,0,12,651.1,151.1)" />
<use xlink:href="#f0_e" transform="matrix(12,0,0,12,666.6,151.1)" />
<use xlink:href="#f0_d" transform="matrix(12,0,0,12,678.2,151.1)" />
<use xlink:href="#f0_6" transform="matrix(12,0,0,12,689.3,151.1)" />
<use xlink:href="#f0_9" transform="matrix(12,0,0,12,702.4,151.1)" />
<use xlink:href="#f0_a" transform="matrix(12,0,0,12,711.9,151.1)" />
<use xlink:href="#f0_a" transform="matrix(12,0,0,12,723.2,151.1)" />
<use xlink:href="#f0_e" transform="matrix(12,0,0,12,734.5,151.1)" />
<use xlink:href="#f0_x" transform="matrix(12,0,0,12,751.9,151.1)" />
<use xlink:href="#f0_p" transform="matrix(12,0,0,12,763.5,151.1)" />
<use xlink:href="#f0_k" transform="matrix(12,0,0,12,121.2,179.7)" />
<use xlink:href="#f0_9" transform="matrix(12,0,0,12,132.8,179.7)" />
<use xlink:href="#f0_a" transform="matrix(12,0,0,12,142.4,179.7)" />
<use xlink:href="#f0_g" transform="matrix(12,0,0,12,153.7,179.7)" />
<use xlink:href="#f0_9" transform="matrix(12,0,0,12,161.1,179.7)" />
<use xlink:href="#f0_l" transform="matrix(12,0,0,12,170.7,179.7)" />
<use xlink:href="#f0_1r" transform="matrix(12,0,0,12,182.4,179.7)" />
<use xlink:href="#f0_d" transform="matrix(12,0,0,12,191.1,179.7)" />
<use xlink:href="#f0_k" transform="matrix(12,0,0,12,202.2,179.7)" />
<use xlink:href="#f0_b" transform="matrix(12,0,0,12,219.8,179.7)" />
<use xlink:href="#f0_8" transform="matrix(12,0,0,12,229.7,179.7)" />
<use xlink:href="#f0_e" transform="matrix(12,0,0,12,241,179.7)" />
<use xlink:href="#f0_k" transform="matrix(12,0,0,12,258.6,179.7)" />
<use xlink:href="#f0_9" transform="matrix(12,0,0,12,270,179.7)" />
<use xlink:href="#f0_a" transform="matrix(12,0,0,12,279.6,179.7)" />
<use xlink:href="#f0_o" transform="matrix(12,0,0,12,296.7,179.7)" />
<use xlink:href="#f0_a" transform="matrix(12,0,0,12,301.8,179.7)" />
<use xlink:href="#f0_6" transform="matrix(12,0,0,12,313.1,179.7)" />
<use xlink:href="#f0_6" transform="matrix(12,0,0,12,320.3,179.7)" />
<use xlink:href="#f0_a" transform="matrix(12,0,0,12,327.5,179.7)" />
<use xlink:href="#f0_g" transform="matrix(12,0,0,12,338.8,179.7)" />
<use xlink:href="#f0_9" transform="matrix(12,0,0,12,346.2,179.7)" />
<use xlink:href="#f0_4" transform="matrix(12,0,0,12,355.8,179.7)" />
<use xlink:href="#f0_e" transform="matrix(12,0,0,12,367.6,179.7)" />
<use xlink:href="#f0_k" transform="matrix(12,0,0,12,379.2,179.7)" />
<use xlink:href="#f0_u" transform="matrix(12,0,0,12,390.8,179.7)" />
<use xlink:href="#f0_x" transform="matrix(12,0,0,12,408.7,179.7)" />
<use xlink:href="#f0_a" transform="matrix(12,0,0,12,420.3,179.7)" />
<use xlink:href="#f0_g" transform="matrix(12,0,0,12,431.6,179.7)" />
<use xlink:href="#f0_9" transform="matrix(12,0,0,12,439,179.7)" />
<use xlink:href="#f0_4" transform="matrix(12,0,0,12,448.6,179.7)" />
<use xlink:href="#f0_7" transform="matrix(12,0,0,12,460.3,179.7)" />
<use xlink:href="#f0_p" transform="matrix(12,0,0,12,471.9,179.7)" />
<use xlink:href="#f0_s" transform="matrix(12,0,0,12,482.7,179.7)" />
<use xlink:href="#f0_7" transform="matrix(12,0,0,12,494.3,179.7)" />
<use xlink:href="#f0_a" transform="matrix(12,0,0,12,505.9,179.7)" />
<use xlink:href="#f0_e" transform="matrix(12,0,0,12,517.2,179.7)" />
<use xlink:href="#f0_9" transform="matrix(12,0,0,12,528.8,179.7)" />
<use xlink:href="#f0_4" transform="matrix(12,0,0,12,538.4,179.7)" />
<use xlink:href="#f0_s" transform="matrix(12,0,0,12,550,179.7)" />
<use xlink:href="#f0_a" transform="matrix(12,0,0,12,561.6,179.7)" />
<use xlink:href="#f0_g" transform="matrix(12,0,0,12,572.9,179.7)" />
<use xlink:href="#f0_c" transform="matrix(12,0,0,12,580.4,179.7)" />
<use xlink:href="#f0_d" transform="matrix(12,0,0,12,585.6,179.7)" />
<use xlink:href="#f0_f" transform="matrix(12,0,0,12,596.7,179.7)" />
<use xlink:href="#f0_9" transform="matrix(12,0,0,12,608.3,179.7)" />
<use xlink:href="#f0_4" transform="matrix(12,0,0,12,617.9,179.7)" />
<use xlink:href="#f0_8" transform="matrix(12,0,0,12,629.6,179.7)" />
<use xlink:href="#f0_e" transform="matrix(12,0,0,12,640.9,179.7)" />
<use xlink:href="#f0_f" transform="matrix(12,0,0,12,652.5,179.7)" />
<use xlink:href="#f0_k" transform="matrix(12,0,0,12,669.9,179.7)" />
<use xlink:href="#f0_e" transform="matrix(12,0,0,12,681.5,179.7)" />
<use xlink:href="#f0_f" transform="matrix(12,0,0,12,693.1,179.7)" />
<use xlink:href="#f0_a" transform="matrix(12,0,0,12,704.7,179.7)" />
<use xlink:href="#f0_g" transform="matrix(12,0,0,12,716,179.7)" />
<use xlink:href="#f0_9" transform="matrix(12,0,0,12,723.5,179.7)" />
<use xlink:href="#f0_b" transform="matrix(12,0,0,12,733.1,179.7)" />
<use xlink:href="#f0_d" transform="matrix(12,0,0,12,743.1,179.7)" />
<use xlink:href="#f0_g" transform="matrix(12,0,0,12,754.3,179.7)" />
<use xlink:href="#f0_a" transform="matrix(12,0,0,12,761.3,179.7)" />
<use xlink:href="#f0_9" transform="matrix(12,0,0,12,772.6,179.7)" />
<use xlink:href="#f0_l" transform="matrix(12,0,0,12,782.2,179.7)" />
<use xlink:href="#f0_w" transform="matrix(12,0,0,12,121.2,208.4)" />
<use xlink:href="#f0_7" transform="matrix(12,0,0,12,132.3,208.4)" />
<use xlink:href="#f0_a" transform="matrix(12,0,0,12,143.9,208.4)" />
<use xlink:href="#f0_18" transform="matrix(12,0,0,12,161.2,208.4)" />
<use xlink:href="#f0_3" transform="matrix(12,0,0,12,172.6,208.4)" />
<use xlink:href="#f0_1y" transform="matrix(12,0,0,12,184.2,208.4)" />
<use xlink:href="#f0_b" transform="matrix(12,0,0,12,203.5,208.4)" />
<use xlink:href="#f0_8" transform="matrix(12,0,0,12,213.5,208.4)" />
<use xlink:href="#f0_e" transform="matrix(12,0,0,12,224.8,208.4)" />
<use xlink:href="#f0_r" transform="matrix(12,0,0,12,236.4,208.4)" />
<use xlink:href="#f0_6" transform="matrix(12,0,0,12,242.2,208.4)" />
<use xlink:href="#f0_9" transform="matrix(12,0,0,12,255.2,208.4)" />
<use xlink:href="#f0_6" transform="matrix(12,0,0,12,264.8,208.4)" />
<use xlink:href="#f0_8" transform="matrix(12,0,0,12,271.9,208.4)" />
<use xlink:href="#f0_g" transform="matrix(12,0,0,12,283.1,208.4)" />
<use xlink:href="#f0_6" transform="matrix(12,0,0,12,290.6,208.4)" />
<use xlink:href="#f0_n" transform="matrix(12,0,0,12,303.8,208.4)" />
<use xlink:href="#f0_c" transform="matrix(12,0,0,12,318.7,208.4)" />
<use xlink:href="#f0_6" transform="matrix(12,0,0,12,323.8,208.4)" />
<use xlink:href="#f0_7" transform="matrix(12,0,0,12,331,208.4)" />
<use xlink:href="#f0_8" transform="matrix(12,0,0,12,348.5,208.4)" />
<use xlink:href="#f0_7" transform="matrix(12,0,0,12,365.5,208.4)" />
<use xlink:href="#f0_p" transform="matrix(12,0,0,12,377.1,208.4)" />
<use xlink:href="#f0_s" transform="matrix(12,0,0,12,387.9,208.4)" />
<use xlink:href="#f0_7" transform="matrix(12,0,0,12,399.5,208.4)" />
<use xlink:href="#f0_a" transform="matrix(12,0,0,12,411.1,208.4)" />
<use xlink:href="#f0_e" transform="matrix(12,0,0,12,422.4,208.4)" />
<use xlink:href="#f0_4" transform="matrix(12,0,0,12,434,208.4)" />
<use xlink:href="#f0_s" transform="matrix(12,0,0,12,445.8,208.4)" />
<use xlink:href="#f0_a" transform="matrix(12,0,0,12,457.4,208.4)" />
<use xlink:href="#f0_g" transform="matrix(12,0,0,12,468.7,208.4)" />
<use xlink:href="#f0_c" transform="matrix(12,0,0,12,476.2,208.4)" />
<use xlink:href="#f0_d" transform="matrix(12,0,0,12,481.3,208.4)" />
<use xlink:href="#f0_f" transform="matrix(12,0,0,12,492.5,208.4)" />
<use xlink:href="#f0_4" transform="matrix(12,0,0,12,504.1,208.4)" />
<use xlink:href="#f0_d" transform="matrix(12,0,0,12,515.8,208.4)" />
<use xlink:href="#f0_g" transform="matrix(12,0,0,12,527,208.4)" />
<use xlink:href="#f0_k" transform="matrix(12,0,0,12,540.4,208.4)" />
<use xlink:href="#f0_e" transform="matrix(12,0,0,12,552,208.4)" />
<use xlink:href="#f0_f" transform="matrix(12,0,0,12,563.6,208.4)" />
<use xlink:href="#f0_a" transform="matrix(12,0,0,12,575.2,208.4)" />
<use xlink:href="#f0_g" transform="matrix(12,0,0,12,586.5,208.4)" />
<use xlink:href="#f0_9" transform="matrix(12,0,0,12,594,208.4)" />
<use xlink:href="#f0_b" transform="matrix(12,0,0,12,603.6,208.4)" />
<use xlink:href="#f0_d" transform="matrix(12,0,0,12,613.7,208.4)" />
<use xlink:href="#f0_g" transform="matrix(12,0,0,12,624.8,208.4)" />
<use xlink:href="#f0_a" transform="matrix(12,0,0,12,631.8,208.4)" />
<use xlink:href="#f0_l" transform="matrix(12,0,0,12,643.1,208.4)" />
<use xlink:href="#f0_1f" transform="matrix(12,0,0,12,86.8,277.1)" />
<use xlink:href="#f0_o" transform="matrix(12,0,0,12,99.6,277.1)" />
<use xlink:href="#f0_c" transform="matrix(12,0,0,12,104.6,277.1)" />
<use xlink:href="#f0_b" transform="matrix(12,0,0,12,109.7,277.1)" />
<use xlink:href="#f0_i" transform="matrix(12,0,0,12,119.7,277.1)" />
</g>
<g fill="#0000FF" >
<use xlink:href="#f2_12" transform="matrix(12,0,0,12,136.3,277.1)" />
<use xlink:href="#f2_b" transform="matrix(12,0,0,12,149.7,277.1)" />
<use xlink:href="#f2_3" transform="matrix(12,0,0,12,158.7,277.1)" />
<use xlink:href="#f2_a" transform="matrix(12,0,0,12,171.1,277.1)" />
<use xlink:href="#f2_4" transform="matrix(12,0,0,12,183.6,277.1)" />
<use xlink:href="#f2_3" transform="matrix(12,0,0,12,192.3,277.1)" />
</g>
<g fill="#000000" >
<use xlink:href="#f0_1e" transform="matrix(12,0,0,12,204.9,277.1)" />
<use xlink:href="#f0_10" transform="matrix(12,0,0,12,86.8,907.3)" />
<use xlink:href="#f0_d" transform="matrix(12,0,0,12,100.5,907.3)" />
<use xlink:href="#f0_n" transform="matrix(12,0,0,12,111.7,907.3)" />
<use xlink:href="#f0_6" transform="matrix(12,0,0,12,132.6,907.3)" />
<use xlink:href="#f0_7" transform="matrix(12,0,0,12,139.8,907.3)" />
<use xlink:href="#f0_a" transform="matrix(12,0,0,12,151.4,907.3)" />
<use xlink:href="#f0_f" transform="matrix(12,0,0,12,168.5,907.3)" />
<use xlink:href="#f0_a" transform="matrix(12,0,0,12,180.1,907.3)" />
<use xlink:href="#f0_6" transform="matrix(12,0,0,12,191.4,907.3)" />
<use xlink:href="#f0_8" transform="matrix(12,0,0,12,198.6,907.3)" />
<use xlink:href="#f0_c" transform="matrix(12,0,0,12,209.8,907.3)" />
<use xlink:href="#f0_o" transform="matrix(12,0,0,12,214.9,907.3)" />
<use xlink:href="#f0_9" transform="matrix(12,0,0,12,219.9,907.3)" />
<use xlink:href="#f0_9" transform="matrix(12,0,0,12,235.4,907.3)" />
<use xlink:href="#f0_b" transform="matrix(12,0,0,12,244.8,907.3)" />
<use xlink:href="#f0_g" transform="matrix(12,0,0,12,255,907.3)" />
<use xlink:href="#f0_a" transform="matrix(12,0,0,12,262.1,907.3)" />
<use xlink:href="#f0_a" transform="matrix(12,0,0,12,273.4,907.3)" />
<use xlink:href="#f0_e" transform="matrix(12,0,0,12,284.6,907.3)" />
<use xlink:href="#f0_8" transform="matrix(12,0,0,12,302.1,907.3)" />
<use xlink:href="#f0_s" transform="matrix(12,0,0,12,313.4,907.3)" />
<use xlink:href="#f0_s" transform="matrix(12,0,0,12,325,907.3)" />
<use xlink:href="#f0_a" transform="matrix(12,0,0,12,336.6,907.3)" />
<use xlink:href="#f0_8" transform="matrix(12,0,0,12,347.7,907.3)" />
<use xlink:href="#f0_g" transform="matrix(12,0,0,12,359,907.3)" />
<use xlink:href="#f0_9" transform="matrix(12,0,0,12,366.5,907.3)" />
<use xlink:href="#f0_l" transform="matrix(12,0,0,12,376.1,907.3)" />
<use xlink:href="#f0_1f" transform="matrix(12,0,0,12,387.7,907.3)" />
<use xlink:href="#f0_o" transform="matrix(12,0,0,12,400.5,907.3)" />
<use xlink:href="#f0_c" transform="matrix(12,0,0,12,405.6,907.3)" />
<use xlink:href="#f0_b" transform="matrix(12,0,0,12,410.6,907.3)" />
<use xlink:href="#f0_i" transform="matrix(12,0,0,12,420.7,907.3)" />
</g>
<g fill="#0000FF" >
<use xlink:href="#f2_n" transform="matrix(12,0,0,12,437.4,907.3)" />
<use xlink:href="#f2_q" transform="matrix(12,0,0,12,451.6,907.3)" />
<use xlink:href="#f2_q" transform="matrix(12,0,0,12,464.7,907.3)" />
<use xlink:href="#f2_s" transform="matrix(12,0,0,12,484.2,907.3)" />
<use xlink:href="#f2_6" transform="matrix(12,0,0,12,491.1,907.3)" />
<use xlink:href="#f2_j" transform="matrix(12,0,0,12,504.1,907.3)" />
<use xlink:href="#f2_g" transform="matrix(12,0,0,12,512,907.3)" />
<use xlink:href="#f2_b" transform="matrix(12,0,0,12,524.5,907.3)" />
<use xlink:href="#f2_z" transform="matrix(12,0,0,12,533.6,907.3)" />
<use xlink:href="#f2_a" transform="matrix(12,0,0,12,552.6,907.3)" />
<use xlink:href="#f2_4" transform="matrix(12,0,0,12,565,907.3)" />
<use xlink:href="#f2_5" transform="matrix(12,0,0,12,573.8,907.3)" />
<use xlink:href="#f2_g" transform="matrix(12,0,0,12,580.1,907.3)" />
<use xlink:href="#f2_6" transform="matrix(12,0,0,12,592.6,907.3)" />
</g>
<g fill="#000000" >
<use xlink:href="#f0_l" transform="matrix(12,0,0,12,605.9,907.3)" />
<use xlink:href="#f0_1u" transform="matrix(12,0,0,12,617.5,907.3)" />
<use xlink:href="#f0_c" transform="matrix(12,0,0,12,626.7,907.3)" />
<use xlink:href="#f0_o" transform="matrix(12,0,0,12,631.9,907.3)" />
<use xlink:href="#f0_o" transform="matrix(12,0,0,12,636.9,907.3)" />
<use xlink:href="#f0_d" transform="matrix(12,0,0,12,647.9,907.3)" />
<use xlink:href="#f0_k" transform="matrix(12,0,0,12,659,907.3)" />
<use xlink:href="#f0_6" transform="matrix(12,0,0,12,670.7,907.3)" />
<use xlink:href="#f0_6" transform="matrix(12,0,0,12,683.6,907.3)" />
<use xlink:href="#f0_7" transform="matrix(12,0,0,12,690.8,907.3)" />
<use xlink:href="#f0_a" transform="matrix(12,0,0,12,702.4,907.3)" />
<use xlink:href="#f0_1f" transform="matrix(12,0,0,12,719.5,907.3)" />
<use xlink:href="#f0_8" transform="matrix(12,0,0,12,732.4,907.3)" />
<use xlink:href="#f0_6" transform="matrix(12,0,0,12,743.7,907.3)" />
<use xlink:href="#f0_a" transform="matrix(12,0,0,12,750.8,907.3)" />
<use xlink:href="#f0_q" transform="matrix(12,0,0,12,762.1,907.3)" />
<use xlink:href="#f0_d" transform="matrix(12,0,0,12,773.7,907.3)" />
<use xlink:href="#f0_g" transform="matrix(12,0,0,12,784.9,907.3)" />
<use xlink:href="#f0_p" transform="matrix(12,0,0,12,792.4,907.3)" />
<use xlink:href="#f0_h" transform="matrix(12,0,0,12,86.8,935.9)" />
<use xlink:href="#f0_c" transform="matrix(12,0,0,12,93.2,935.9)" />
<use xlink:href="#f0_a" transform="matrix(12,0,0,12,98.2,935.9)" />
<use xlink:href="#f0_o" transform="matrix(12,0,0,12,109.7,935.9)" />
<use xlink:href="#f0_f" transform="matrix(12,0,0,12,114.7,935.9)" />
<use xlink:href="#f0_9" transform="matrix(12,0,0,12,126.3,935.9)" />
<use xlink:href="#f0_x" transform="matrix(12,0,0,12,141.7,935.9)" />
<use xlink:href="#f0_8" transform="matrix(12,0,0,12,153.3,935.9)" />
<use xlink:href="#f0_9" transform="matrix(12,0,0,12,164.5,935.9)" />
<use xlink:href="#f0_a" transform="matrix(12,0,0,12,174.1,935.9)" />
<use xlink:href="#f0_f" transform="matrix(12,0,0,12,185.4,935.9)" />
<use xlink:href="#f0_d" transform="matrix(12,0,0,12,202.8,935.9)" />
<use xlink:href="#f0_e" transform="matrix(12,0,0,12,214,935.9)" />
<use xlink:href="#f0_p" transform="matrix(12,0,0,12,231.5,935.9)" />
<use xlink:href="#f0_d" transform="matrix(12,0,0,12,242.4,935.9)" />
<use xlink:href="#f0_k" transform="matrix(12,0,0,12,253.5,935.9)" />
<use xlink:href="#f0_g" transform="matrix(12,0,0,12,265.1,935.9)" />
<use xlink:href="#f0_8" transform="matrix(12,0,0,12,278.5,935.9)" />
<use xlink:href="#f0_s" transform="matrix(12,0,0,12,289.8,935.9)" />
<use xlink:href="#f0_s" transform="matrix(12,0,0,12,301.4,935.9)" />
<use xlink:href="#f0_c" transform="matrix(12,0,0,12,318.9,935.9)" />
<use xlink:href="#f0_e" transform="matrix(12,0,0,12,323.9,935.9)" />
<use xlink:href="#f0_h" transform="matrix(12,0,0,12,335.5,935.9)" />
<use xlink:href="#f0_d" transform="matrix(12,0,0,12,341.9,935.9)" />
<use xlink:href="#f0_g" transform="matrix(12,0,0,12,353.2,935.9)" />
<use xlink:href="#f0_u" transform="matrix(12,0,0,12,360.4,935.9)" />
<use xlink:href="#f0_8" transform="matrix(12,0,0,12,378.3,935.9)" />
<use xlink:href="#f0_6" transform="matrix(12,0,0,12,389.6,935.9)" />
<use xlink:href="#f0_c" transform="matrix(12,0,0,12,396.7,935.9)" />
<use xlink:href="#f0_d" transform="matrix(12,0,0,12,401.8,935.9)" />
<use xlink:href="#f0_e" transform="matrix(12,0,0,12,412.9,935.9)" />
<use xlink:href="#f0_l" transform="matrix(12,0,0,12,424.5,935.9)" />
<use xlink:href="#f0_19" transform="matrix(12,0,0,12,436.3,935.9)" />
<use xlink:href="#f0_h" transform="matrix(12,0,0,12,441.6,935.9)" />
<use xlink:href="#f0_p" transform="matrix(12,0,0,12,454,935.9)" />
<use xlink:href="#f0_d" transform="matrix(12,0,0,12,464.8,935.9)" />
<use xlink:href="#f0_k" transform="matrix(12,0,0,12,476,935.9)" />
<use xlink:href="#f0_g" transform="matrix(12,0,0,12,487.6,935.9)" />
<use xlink:href="#f0_8" transform="matrix(12,0,0,12,501,935.9)" />
<use xlink:href="#f0_s" transform="matrix(12,0,0,12,512.2,935.9)" />
<use xlink:href="#f0_s" transform="matrix(12,0,0,12,523.8,935.9)" />
<use xlink:href="#f0_q" transform="matrix(12,0,0,12,541.3,935.9)" />
<use xlink:href="#f0_8" transform="matrix(12,0,0,12,552.8,935.9)" />
<use xlink:href="#f0_6" transform="matrix(12,0,0,12,564.1,935.9)" />
<use xlink:href="#f0_7" transform="matrix(12,0,0,12,571.3,935.9)" />
<use xlink:href="#f0_a" transform="matrix(12,0,0,12,582.9,935.9)" />
<use xlink:href="#f0_g" transform="matrix(12,0,0,12,594.2,935.9)" />
<use xlink:href="#f0_9" transform="matrix(12,0,0,12,601.7,935.9)" />
<use xlink:href="#f0_f" transform="matrix(12,0,0,12,617.1,935.9)" />
<use xlink:href="#f0_8" transform="matrix(12,0,0,12,628.7,935.9)" />
<use xlink:href="#f0_6" transform="matrix(12,0,0,12,640,935.9)" />
<use xlink:href="#f0_8" transform="matrix(12,0,0,12,647.2,935.9)" />
<use xlink:href="#f0_d" transform="matrix(12,0,0,12,664.3,935.9)" />
<use xlink:href="#f0_g" transform="matrix(12,0,0,12,675.4,935.9)" />
<use xlink:href="#f0_p" transform="matrix(12,0,0,12,688.8,935.9)" />
<use xlink:href="#f0_d" transform="matrix(12,0,0,12,699.7,935.9)" />
<use xlink:href="#f0_k" transform="matrix(12,0,0,12,710.8,935.9)" />
<use xlink:href="#f0_g" transform="matrix(12,0,0,12,722.4,935.9)" />
<use xlink:href="#f0_8" transform="matrix(12,0,0,12,735.9,935.9)" />
<use xlink:href="#f0_s" transform="matrix(12,0,0,12,747,935.9)" />
<use xlink:href="#f0_s" transform="matrix(12,0,0,12,758.6,935.9)" />
<use xlink:href="#f0_c" transform="matrix(12,0,0,12,776.2,935.9)" />
<use xlink:href="#f0_9" transform="matrix(12,0,0,12,781.2,935.9)" />
<use xlink:href="#f0_1b" transform="matrix(12,0,0,12,86.8,964.6)" />
<use xlink:href="#f0_1j" transform="matrix(12,0,0,12,96.3,964.6)" />
<use xlink:href="#f0_8" transform="matrix(12,0,0,12,112,964.6)" />
<use xlink:href="#f0_f" transform="matrix(12,0,0,12,123.3,964.6)" />
<use xlink:href="#f0_a" transform="matrix(12,0,0,12,134.9,964.6)" />
<use xlink:href="#f0_h" transform="matrix(12,0,0,12,152.1,964.6)" />
<use xlink:href="#f0_d" transform="matrix(12,0,0,12,158.5,964.6)" />
<use xlink:href="#f0_g" transform="matrix(12,0,0,12,169.7,964.6)" />
<use xlink:href="#f0_3" transform="matrix(12,0,0,12,183.1,964.6)" />
<use xlink:href="#f0_c" transform="matrix(12,0,0,12,195.2,964.6)" />
<use xlink:href="#f0_f" transform="matrix(12,0,0,12,200.2,964.6)" />
<use xlink:href="#f0_9" transform="matrix(12,0,0,12,211.7,964.6)" />
<use xlink:href="#f0_1c" transform="matrix(12,0,0,12,221.3,964.6)" />
<use xlink:href="#f0_p" transform="matrix(12,0,0,12,236.7,964.6)" />
<use xlink:href="#f0_d" transform="matrix(12,0,0,12,247.5,964.6)" />
<use xlink:href="#f0_k" transform="matrix(12,0,0,12,258.7,964.6)" />
<use xlink:href="#f0_u" transform="matrix(12,0,0,12,276.1,964.6)" />
<use xlink:href="#f0_k" transform="matrix(12,0,0,12,293.9,964.6)" />
<use xlink:href="#f0_9" transform="matrix(12,0,0,12,305.5,964.6)" />
<use xlink:href="#f0_6" transform="matrix(12,0,0,12,315.2,964.6)" />
<use xlink:href="#f0_7" transform="matrix(12,0,0,12,328.2,964.6)" />
<use xlink:href="#f0_8" transform="matrix(12,0,0,12,339.8,964.6)" />
<use xlink:href="#f0_t" transform="matrix(12,0,0,12,351.1,964.6)" />
<use xlink:href="#f0_a" transform="matrix(12,0,0,12,361.9,964.6)" />
<use xlink:href="#f0_8" transform="matrix(12,0,0,12,379,964.6)" />
<use xlink:href="#f0_s" transform="matrix(12,0,0,12,396,964.6)" />
<use xlink:href="#f0_g" transform="matrix(12,0,0,12,407.6,964.6)" />
<use xlink:href="#f0_c" transform="matrix(12,0,0,12,415.2,964.6)" />
<use xlink:href="#f0_t" transform="matrix(12,0,0,12,420.2,964.6)" />
<use xlink:href="#f0_8" transform="matrix(12,0,0,12,431.1,964.6)" />
<use xlink:href="#f0_b" transform="matrix(12,0,0,12,442.4,964.6)" />
<use xlink:href="#f0_p" transform="matrix(12,0,0,12,452.4,964.6)" />
<use xlink:href="#f0_s" transform="matrix(12,0,0,12,469.1,964.6)" />
<use xlink:href="#f0_d" transform="matrix(12,0,0,12,480.7,964.6)" />
<use xlink:href="#f0_o" transform="matrix(12,0,0,12,491.8,964.6)" />
<use xlink:href="#f0_c" transform="matrix(12,0,0,12,497,964.6)" />
<use xlink:href="#f0_b" transform="matrix(12,0,0,12,502,964.6)" />
<use xlink:href="#f0_p" transform="matrix(12,0,0,12,512.1,964.6)" />
<use xlink:href="#f0_s" transform="matrix(12,0,0,12,528.7,964.6)" />
<use xlink:href="#f0_d" transform="matrix(12,0,0,12,540.3,964.6)" />
<use xlink:href="#f0_9" transform="matrix(12,0,0,12,551.5,964.6)" />
<use xlink:href="#f0_6" transform="matrix(12,0,0,12,561.1,964.6)" />
<use xlink:href="#f0_a" transform="matrix(12,0,0,12,568.3,964.6)" />
<use xlink:href="#f0_f" transform="matrix(12,0,0,12,579.6,964.6)" />
<use xlink:href="#f0_1a" transform="matrix(12,0,0,12,597.1,964.6)" />
<use xlink:href="#f0_6" transform="matrix(12,0,0,12,621.3,964.6)" />
<use xlink:href="#f0_7" transform="matrix(12,0,0,12,628.5,964.6)" />
<use xlink:href="#f0_a" transform="matrix(12,0,0,12,640.1,964.6)" />
</g>
<g fill="#0000FF" >
<use xlink:href="#f2_i" transform="matrix(12,0,0,12,657.6,964.6)" />
<use xlink:href="#f2_b" transform="matrix(12,0,0,12,671,964.6)" />
<use xlink:href="#f2_5" transform="matrix(12,0,0,12,680,964.6)" />
<use xlink:href="#f2_x" transform="matrix(12,0,0,12,686.3,964.6)" />
<use xlink:href="#f2_a" transform="matrix(12,0,0,12,698.2,964.6)" />
<use xlink:href="#f2_f" transform="matrix(12,0,0,12,710.5,964.6)" />
<use xlink:href="#f2_y" transform="matrix(12,0,0,12,721.5,964.6)" />
<use xlink:href="#f2_i" transform="matrix(12,0,0,12,739.8,964.6)" />
<use xlink:href="#f2_g" transform="matrix(12,0,0,12,753.3,964.6)" />
<use xlink:href="#f2_r" transform="matrix(12,0,0,12,765.8,964.6)" />
<use xlink:href="#f2_5" transform="matrix(12,0,0,12,772,964.6)" />
<use xlink:href="#f2_f" transform="matrix(12,0,0,12,778.3,964.6)" />
<use xlink:href="#f2_y" transform="matrix(12,0,0,12,789.3,964.6)" />
<use xlink:href="#f2_1c" transform="matrix(12,0,0,12,86.8,993.2)" />
<use xlink:href="#f2_w" transform="matrix(12,0,0,12,101.7,993.2)" />
<use xlink:href="#f2_1f" transform="matrix(12,0,0,12,115.8,993.2)" />
</g>
<g fill="#000000" >
<use xlink:href="#f0_9" transform="matrix(12,0,0,12,134,993.2)" />
<use xlink:href="#f0_7" transform="matrix(12,0,0,12,143.5,993.2)" />
<use xlink:href="#f0_d" transform="matrix(12,0,0,12,155.1,993.2)" />
<use xlink:href="#f0_k" transform="matrix(12,0,0,12,166.2,993.2)" />
<use xlink:href="#f0_o" transform="matrix(12,0,0,12,178,993.2)" />
<use xlink:href="#f0_f" transform="matrix(12,0,0,12,183,993.2)" />
<use xlink:href="#f0_b" transform="matrix(12,0,0,12,200.6,993.2)" />
<use xlink:href="#f0_d" transform="matrix(12,0,0,12,210.6,993.2)" />
<use xlink:href="#f0_e" transform="matrix(12,0,0,12,221.8,993.2)" />
<use xlink:href="#f0_6" transform="matrix(12,0,0,12,233.4,993.2)" />
<use xlink:href="#f0_8" transform="matrix(12,0,0,12,240.6,993.2)" />
<use xlink:href="#f0_c" transform="matrix(12,0,0,12,251.9,993.2)" />
<use xlink:href="#f0_e" transform="matrix(12,0,0,12,256.9,993.2)" />
<use xlink:href="#f0_6" transform="matrix(12,0,0,12,274.3,993.2)" />
<use xlink:href="#f0_7" transform="matrix(12,0,0,12,281.5,993.2)" />
<use xlink:href="#f0_a" transform="matrix(12,0,0,12,293.1,993.2)" />
<use xlink:href="#f0_8" transform="matrix(12,0,0,12,310.2,993.2)" />
<use xlink:href="#f0_f" transform="matrix(12,0,0,12,321.5,993.2)" />
<use xlink:href="#f0_f" transform="matrix(12,0,0,12,333.1,993.2)" />
<use xlink:href="#f0_g" transform="matrix(12,0,0,12,344.7,993.2)" />
<use xlink:href="#f0_a" transform="matrix(12,0,0,12,351.7,993.2)" />
<use xlink:href="#f0_9" transform="matrix(12,0,0,12,363,993.2)" />
<use xlink:href="#f0_9" transform="matrix(12,0,0,12,372.6,993.2)" />
<use xlink:href="#f0_h" transform="matrix(12,0,0,12,388,993.2)" />
<use xlink:href="#f0_d" transform="matrix(12,0,0,12,394.5,993.2)" />
<use xlink:href="#f0_g" transform="matrix(12,0,0,12,405.6,993.2)" />
<use xlink:href="#f0_6" transform="matrix(12,0,0,12,419.1,993.2)" />
<use xlink:href="#f0_7" transform="matrix(12,0,0,12,426.2,993.2)" />
<use xlink:href="#f0_c" transform="matrix(12,0,0,12,437.8,993.2)" />
<use xlink:href="#f0_9" transform="matrix(12,0,0,12,442.9,993.2)" />
<use xlink:href="#f0_l" transform="matrix(12,0,0,12,452.5,993.2)" />
<use xlink:href="#f0_18" transform="matrix(12,0,0,12,464.1,993.2)" />
<use xlink:href="#f0_b" transform="matrix(12,0,0,12,475.7,993.2)" />
<use xlink:href="#f0_g" transform="matrix(12,0,0,12,485.9,993.2)" />
<use xlink:href="#f0_d" transform="matrix(12,0,0,12,493,993.2)" />
<use xlink:href="#f0_o" transform="matrix(12,0,0,12,504.1,993.2)" />
<use xlink:href="#f0_o" transform="matrix(12,0,0,12,509.3,993.2)" />
<use xlink:href="#f0_6" transform="matrix(12,0,0,12,520.1,993.2)" />
<use xlink:href="#f0_7" transform="matrix(12,0,0,12,527.3,993.2)" />
<use xlink:href="#f0_g" transform="matrix(12,0,0,12,539.1,993.2)" />
<use xlink:href="#f0_d" transform="matrix(12,0,0,12,546.1,993.2)" />
<use xlink:href="#f0_k" transform="matrix(12,0,0,12,557.2,993.2)" />
<use xlink:href="#f0_q" transform="matrix(12,0,0,12,568.8,993.2)" />
<use xlink:href="#f0_7" transform="matrix(12,0,0,12,580.6,993.2)" />
<use xlink:href="#f0_6" transform="matrix(12,0,0,12,598,993.2)" />
<use xlink:href="#f0_7" transform="matrix(12,0,0,12,605.2,993.2)" />
<use xlink:href="#f0_a" transform="matrix(12,0,0,12,616.8,993.2)" />
<use xlink:href="#f0_g" transform="matrix(12,0,0,12,633.9,993.2)" />
<use xlink:href="#f0_a" transform="matrix(12,0,0,12,640.9,993.2)" />
<use xlink:href="#f0_9" transform="matrix(12,0,0,12,652.2,993.2)" />
<use xlink:href="#f0_6" transform="matrix(12,0,0,12,661.8,993.2)" />
<use xlink:href="#f0_d" transform="matrix(12,0,0,12,674.9,993.2)" />
<use xlink:href="#f0_h" transform="matrix(12,0,0,12,686.1,993.2)" />
<use xlink:href="#f0_6" transform="matrix(12,0,0,12,698.3,993.2)" />
<use xlink:href="#f0_7" transform="matrix(12,0,0,12,705.5,993.2)" />
<use xlink:href="#f0_a" transform="matrix(12,0,0,12,717.1,993.2)" />
<use xlink:href="#f0_9" transform="matrix(12,0,0,12,734.3,993.2)" />
<use xlink:href="#f0_a" transform="matrix(12,0,0,12,743.8,993.2)" />
<use xlink:href="#f0_6" transform="matrix(12,0,0,12,755.1,993.2)" />
<use xlink:href="#f0_6" transform="matrix(12,0,0,12,762.3,993.2)" />
<use xlink:href="#f0_c" transform="matrix(12,0,0,12,769.5,993.2)" />
<use xlink:href="#f0_e" transform="matrix(12,0,0,12,774.5,993.2)" />
<use xlink:href="#f0_q" transform="matrix(12,0,0,12,786.1,993.2)" />
<use xlink:href="#f0_9" transform="matrix(12,0,0,12,797.7,993.2)" />
<use xlink:href="#f0_8" transform="matrix(12,0,0,12,86.8,1021.9)" />
<use xlink:href="#f0_e" transform="matrix(12,0,0,12,98.1,1021.9)" />
<use xlink:href="#f0_f" transform="matrix(12,0,0,12,109.7,1021.9)" />
<use xlink:href="#f0_9" transform="matrix(12,0,0,12,127.1,1021.9)" />
<use xlink:href="#f0_a" transform="matrix(12,0,0,12,136.7,1021.9)" />
<use xlink:href="#f0_6" transform="matrix(12,0,0,12,148,1021.9)" />
<use xlink:href="#f0_8" transform="matrix(12,0,0,12,161,1021.9)" />
<use xlink:href="#f0_e" transform="matrix(12,0,0,12,172.1,1021.9)" />
<use xlink:href="#f0_p" transform="matrix(12,0,0,12,183.7,1021.9)" />
<use xlink:href="#f0_8" transform="matrix(12,0,0,12,200.5,1021.9)" />
<use xlink:href="#f0_s" transform="matrix(12,0,0,12,211.7,1021.9)" />
<use xlink:href="#f0_s" transform="matrix(12,0,0,12,223.3,1021.9)" />
<use xlink:href="#f0_g" transform="matrix(12,0,0,12,235,1021.9)" />
<use xlink:href="#f0_d" transform="matrix(12,0,0,12,242,1021.9)" />
<use xlink:href="#f0_s" transform="matrix(12,0,0,12,253.2,1021.9)" />
<use xlink:href="#f0_g" transform="matrix(12,0,0,12,264.8,1021.9)" />
<use xlink:href="#f0_c" transform="matrix(12,0,0,12,272.4,1021.9)" />
<use xlink:href="#f0_8" transform="matrix(12,0,0,12,277.5,1021.9)" />
<use xlink:href="#f0_6" transform="matrix(12,0,0,12,288.8,1021.9)" />
<use xlink:href="#f0_a" transform="matrix(12,0,0,12,295.9,1021.9)" />
<use xlink:href="#f0_h" transform="matrix(12,0,0,12,313,1021.9)" />
<use xlink:href="#f0_d" transform="matrix(12,0,0,12,319.5,1021.9)" />
<use xlink:href="#f0_g" transform="matrix(12,0,0,12,330.6,1021.9)" />
<use xlink:href="#f0_p" transform="matrix(12,0,0,12,344,1021.9)" />
<use xlink:href="#f0_d" transform="matrix(12,0,0,12,354.9,1021.9)" />
<use xlink:href="#f0_k" transform="matrix(12,0,0,12,366,1021.9)" />
<use xlink:href="#f0_g" transform="matrix(12,0,0,12,377.6,1021.9)" />
<use xlink:href="#f0_8" transform="matrix(12,0,0,12,391.1,1021.9)" />
<use xlink:href="#f0_s" transform="matrix(12,0,0,12,402.4,1021.9)" />
<use xlink:href="#f0_s" transform="matrix(12,0,0,12,414,1021.9)" />
<use xlink:href="#f0_l" transform="matrix(12,0,0,12,425.6,1021.9)" />
<use xlink:href="#f0_1f" transform="matrix(12,0,0,12,437.2,1021.9)" />
<use xlink:href="#f0_o" transform="matrix(12,0,0,12,450,1021.9)" />
<use xlink:href="#f0_c" transform="matrix(12,0,0,12,455.1,1021.9)" />
<use xlink:href="#f0_b" transform="matrix(12,0,0,12,460.1,1021.9)" />
<use xlink:href="#f0_i" transform="matrix(12,0,0,12,470.2,1021.9)" />
</g>
<g fill="#0000FF" >
<use xlink:href="#f2_9" transform="matrix(12,0,0,12,486.9,1021.9)" />
<use xlink:href="#f2_a" transform="matrix(12,0,0,12,500,1021.9)" />
<use xlink:href="#f2_x" transform="matrix(12,0,0,12,512.4,1021.9)" />
<use xlink:href="#f2_3" transform="matrix(12,0,0,12,524.4,1021.9)" />
</g>
<g fill="#000000" >
<use xlink:href="#f0_1e" transform="matrix(12,0,0,12,536.9,1021.9)" />
</g>
</g>
<image preserveAspectRatio="none" x="183" y="328" width="511" height="481" xlink:href="img/1.png" />
<defs>
<path d="M231,492l491,1c0,0,-2,112,-64,179c0,0,-61,67,-163,67c0,0,-115,0,-184,-65c0,0,-69,-64,-80,-182ZM517,-20c0,0,-199,0,-316,115C201,95,84,211,84,410c0,0,0,205,111,325c0,0,111,121,299,121c0,0,168,0,266,-109c0,0,98,-108,98,-295V385H227c0,0,9,-142,85,-216c0,0,77,-74,213,-74c0,0,80,0,154,19c0,0,74,19,147,58V42C826,42,752,11,675,-4c0,0,-78,-16,-158,-16Z" 
id="f0_a"
transform="scale(0.001,-0.001)" />

<path d="M408,93c0,0,115,0,184,81c0,0,69,81,69,215v30H524c0,0,-167,0,-231,-38c0,0,-64,-38,-64,-129c0,0,0,-73,48,-116c0,0,48,-43,131,-43ZM372,-20c0,0,-128,0,-204,70c0,0,-76,72,-76,193c0,0,0,141,94,212c0,0,95,72,282,72H661v13c0,0,0,95,-62,147c0,0,-63,52,-175,52c0,0,-72,0,-140,-17c0,0,-68,-17,-130,-51V798c0,0,75,29,146,43c0,0,71,15,138,15c0,0,181,0,270,-95c0,0,90,-94,90,-285V0H661V127C661,127,614,51,544,15c0,0,-70,-35,-172,-35Z" 
id="f0_8"
transform="scale(0.001,-0.001)" />

<path d="M139,0V836H277V706c0,0,43,76,112,113c0,0,70,37,169,37c0,0,14,0,31,-2c0,0,17,-2,38,-6l1,-141c0,0,-23,14,-51,20c0,0,-27,6,-60,6c0,0,-116,0,-178,-75c0,0,-62,-76,-62,-218V0Z" 
id="f0_g"
transform="scale(0.001,-0.001)" />

<path d="M144,0V1161H281V0Z" 
id="f0_o"
transform="scale(0.001,-0.001)" />

<path d="M144,0V836H281V0Zm0,987v174H281V987Z" 
id="f0_c"
transform="scale(0.001,-0.001)" />

<path d="M163,0V190H321V0Z" 
id="f0_l"
transform="scale(0.001,-0.001)" />

<path d="M257,341c0,0,-82,0,-142,58c0,0,-60,58,-60,141c0,0,0,82,60,140c0,0,60,58,142,58c0,0,82,0,138,-59c0,0,58,-57,58,-139c0,0,0,-84,-57,-141c0,0,-56,-58,-139,-58Z" 
id="f1_2"
transform="scale(0.001,-0.001)" />

<path d="M458,-20c0,0,-79,0,-168,17c0,0,-89,17,-184,52V204c0,0,91,-51,179,-77c0,0,88,-26,173,-26c0,0,129,0,199,50c0,0,70,51,70,145c0,0,0,82,-50,129c0,0,-50,46,-165,69l-92,18c0,0,-169,34,-244,105c0,0,-75,72,-75,199c0,0,0,148,104,233c0,0,104,85,287,85c0,0,78,0,159,-14c0,0,81,-14,166,-42V931c0,0,-85,41,-161,61c0,0,-76,20,-147,20c0,0,-123,0,-190,-48c0,0,-67,-48,-67,-136c0,0,0,-73,45,-111c0,0,44,-38,168,-61l91,-19c0,0,168,-32,249,-113c0,0,80,-81,80,-216c0,0,0,-162,-109,-246c0,0,-108,-82,-318,-82Z" 
id="f0_18"
transform="scale(0.001,-0.001)" />

<path d="M150,0V1114H300V643l500,471H994L441,595L1034,0H835L300,536V0Z" 
id="f0_3"
transform="scale(0.001,-0.001)" />

<path d="M560,-20c0,0,-211,0,-319,110c0,0,-108,111,-108,328v696H285V437c0,0,0,-179,64,-258c0,0,65,-78,211,-78c0,0,144,0,209,78c0,0,65,79,65,258v677H986V418c0,0,0,-217,-108,-328C878,90,770,-20,560,-20Z" 
id="f0_1y"
transform="scale(0.001,-0.001)" />

<path d="M74,365V472H689V365Z" 
id="f0_23"
transform="scale(0.001,-0.001)" />

<path d="M424,-20c0,0,-145,0,-219,88c0,0,-75,89,-75,262V836H267V335c0,0,0,-119,46,-178c0,0,47,-59,139,-59c0,0,112,0,177,71c0,0,64,71,64,193V836H830V0H693V128C693,128,643,52,577,15c0,0,-66,-35,-153,-35Z" 
id="f0_k"
transform="scale(0.001,-0.001)" />

<path d="M139,0V836H277V706c0,0,49,75,116,112c0,0,67,38,154,38c0,0,144,0,218,-90c0,0,74,-89,74,-262V0H702V500c0,0,0,119,-46,177c0,0,-47,59,-139,59c0,0,-112,0,-176,-71c0,0,-64,-70,-64,-193V0Z" 
id="f0_e"
transform="scale(0.001,-0.001)" />

<path d="M460,93c0,0,109,0,171,86c0,0,63,86,63,238c0,0,0,151,-63,237c0,0,-62,86,-171,86c0,0,-109,0,-172,-86c0,0,-62,-86,-62,-237c0,0,0,-152,62,-238c0,0,63,-86,172,-86ZM694,-317V125C694,125,651,51,585,15c0,0,-66,-35,-159,-35c0,0,-151,0,-247,119c0,0,-95,121,-95,318c0,0,0,197,95,318c0,0,96,121,247,121c0,0,93,0,159,-37c0,0,66,-36,109,-110V836H831V-317Z" 
id="f0_21"
transform="scale(0.001,-0.001)" />

<path d="M150,0V1114H300V0Z" 
id="f0_19"
transform="scale(0.001,-0.001)" />

<path d="M482,124c0,0,231,0,338,105c0,0,107,104,107,329c0,0,0,224,-107,328c0,0,-107,104,-338,104H300V124ZM150,0V1114H459c0,0,324,0,476,-135c0,0,151,-135,151,-421c0,0,0,-288,-152,-423C934,135,782,0,459,0Z" 
id="f0_15"
transform="scale(0.001,-0.001)" />

<path d="M166,0V729H35V836H166v58c0,0,0,139,65,203c0,0,65,64,206,64H567V1046H435c0,0,-74,0,-102,-29c0,0,-29,-30,-29,-107V836H530V729H304V0Z" 
id="f0_h"
transform="scale(0.001,-0.001)" />

<path d="M467,95c0,0,110,0,174,86c0,0,64,87,64,236c0,0,0,148,-64,235c0,0,-64,87,-174,87c0,0,-110,0,-174,-86c0,0,-64,-86,-64,-236c0,0,0,-150,64,-236c0,0,63,-86,174,-86Zm0,-115c0,0,-179,0,-281,115C186,95,84,212,84,417c0,0,0,206,102,322c0,0,102,117,281,117c0,0,179,0,282,-117c0,0,102,-116,102,-322c0,0,0,-205,-102,-322C749,95,646,-20,467,-20Z" 
id="f0_d"
transform="scale(0.001,-0.001)" />

<path d="M121,-317v116h81c0,0,57,0,88,26c0,0,31,27,69,127l25,62L46,836H191L453,182L714,836H859L492,-76c0,0,-58,-150,-113,-195c0,0,-55,-46,-148,-46Z" 
id="f0_p"
transform="scale(0.001,-0.001)" />

<path d="M510,93c0,0,109,0,171,86c0,0,62,86,62,238c0,0,0,151,-62,237c0,0,-62,86,-171,86c0,0,-109,0,-171,-86c0,0,-62,-86,-62,-237c0,0,0,-152,62,-238c0,0,62,-86,171,-86ZM139,-317V836H277V709c0,0,43,74,109,110c0,0,66,37,158,37c0,0,152,0,247,-121c0,0,95,-121,95,-318c0,0,0,-197,-95,-318C791,99,696,-20,544,-20c0,0,-92,0,-158,35c0,0,-66,36,-109,110V-317Z" 
id="f0_s"
transform="scale(0.001,-0.001)" />

<path d="M421,0C421,0,263,0,202,59c0,0,-60,60,-60,217V729H41V836H142v238H280V836H562V729H280V276c0,0,0,-102,28,-132c0,0,28,-29,113,-29H562V0Z" 
id="f0_6"
transform="scale(0.001,-0.001)" />

<path d="M139,0V1161H277V706c0,0,49,75,116,112c0,0,67,38,154,38c0,0,144,0,218,-90c0,0,74,-89,74,-262V0H702V500c0,0,0,119,-46,177c0,0,-47,59,-139,59c0,0,-112,0,-176,-71c0,0,-64,-70,-64,-193V0Z" 
id="f0_7"
transform="scale(0.001,-0.001)" />

<path d="M727,411L522,965L318,411ZM12,0L437,1114H608L1033,0H876L774,286H272L171,0Z" 
id="f0_1k"
transform="scale(0.001,-0.001)" />

<path d="M376,-20c0,0,-67,0,-140,12C236,-8,164,4,83,30V172c0,0,76,-40,150,-59c0,0,74,-20,146,-20c0,0,97,0,150,33c0,0,52,33,52,94c0,0,0,56,-38,85c0,0,-38,30,-165,58l-48,11c0,0,-128,27,-184,83c0,0,-57,55,-57,152c0,0,0,118,83,182c0,0,84,65,238,65c0,0,76,0,143,-12c0,0,67,-11,124,-33V681c0,0,-58,29,-121,44c0,0,-63,15,-130,15c0,0,-102,0,-153,-31c0,0,-51,-31,-51,-94c0,0,0,-48,37,-75c0,0,36,-27,147,-52l46,-10c0,0,147,-32,208,-89c0,0,62,-57,62,-159c0,0,0,-116,-93,-184c0,0,-92,-66,-253,-66Z" 
id="f0_9"
transform="scale(0.001,-0.001)" />

<path d="M139,0V836H277V706c0,0,47,77,112,113c0,0,66,37,156,37c0,0,91,0,155,-47c0,0,64,-46,94,-134c0,0,52,93,123,137c0,0,72,44,169,44c0,0,130,0,201,-92c0,0,71,-91,71,-260V0H1220V500c0,0,0,120,-42,178c0,0,-43,58,-130,58c0,0,-107,0,-169,-71c0,0,-62,-70,-62,-193V0H680V500c0,0,0,121,-43,179c0,0,-42,57,-131,57c0,0,-105,0,-167,-71c0,0,-62,-71,-62,-193V0Z" 
id="f0_u"
transform="scale(0.001,-0.001)" />

<path d="M510,93c0,0,109,0,171,86c0,0,62,86,62,238c0,0,0,151,-62,237c0,0,-62,86,-171,86c0,0,-109,0,-171,-86c0,0,-62,-86,-62,-237c0,0,0,-152,62,-238c0,0,62,-86,171,-86ZM544,-20c0,0,-92,0,-158,35c0,0,-66,36,-109,110V0H139V1161H277V709c0,0,43,74,109,110c0,0,66,37,158,37c0,0,152,0,247,-121c0,0,95,-121,95,-318c0,0,0,-197,-95,-318C791,99,696,-20,544,-20Z" 
id="f0_x"
transform="scale(0.001,-0.001)" />

<path d="M391,0V530L-2,1114H159L468,656l307,458H937L543,530V0Z" 
id="f0_1r"
transform="scale(0.001,-0.001)" />

<path d="M495,-20c0,0,-189,0,-300,117C195,97,84,216,84,417c0,0,0,204,112,321c0,0,113,118,308,118c0,0,64,0,124,-14c0,0,60,-13,117,-39V675c0,0,-58,32,-117,48c0,0,-58,16,-118,16c0,0,-133,0,-207,-84c0,0,-74,-85,-74,-238c0,0,0,-153,74,-238c0,0,74,-84,207,-84c0,0,60,0,118,16c0,0,59,16,117,48V32C745,32,688,5,626,-7c0,0,-61,-13,-131,-13Z" 
id="f0_b"
transform="scale(0.001,-0.001)" />

<path d="M117,-176L179,62V190H336V62L213,-176Z" 
id="f0_4"
transform="scale(0.001,-0.001)" />

<path d="M460,93c0,0,109,0,171,86c0,0,63,86,63,238c0,0,0,151,-63,237c0,0,-62,86,-171,86c0,0,-109,0,-172,-86c0,0,-62,-86,-62,-237c0,0,0,-152,62,-238c0,0,63,-86,172,-86ZM426,-20c0,0,-151,0,-247,119c0,0,-95,121,-95,318c0,0,0,197,95,318c0,0,96,121,247,121c0,0,93,0,159,-37c0,0,66,-36,109,-110v452H831V0H694V125C694,125,651,51,585,15c0,0,-66,-35,-159,-35Z" 
id="f0_f"
transform="scale(0.001,-0.001)" />

<path d="M391,0V987H-3v127H938V987H543V0Z" 
id="f0_w"
transform="scale(0.001,-0.001)" />

<path d="M132,763l62,237v114H351V1000L228,763Z" 
id="f0_r"
transform="scale(0.001,-0.001)" />

<path d="M283,0L65,836H202L373,184L544,836H706L878,184l171,652h137L967,0H806L626,685L445,0Z" 
id="f0_n"
transform="scale(0.001,-0.001)" />

<path d="M630,-20c0,0,-253,0,-398,153C232,133,86,288,86,556c0,0,0,269,146,423c0,0,145,155,398,155c0,0,100,0,189,-26c0,0,88,-27,166,-79V869c0,0,-76,71,-163,106c0,0,-86,35,-183,35c0,0,-191,0,-292,-117C347,893,245,777,245,556c0,0,0,-220,102,-337c0,0,101,-116,292,-116c0,0,97,0,183,35c0,0,87,35,163,105V86C985,86,906,32,817,5c0,0,-88,-25,-187,-25Z" 
id="f0_1f"
transform="scale(0.001,-0.001)" />

<path d="M139,0V1161H277V475L686,836H861L418,445L880,0H701L277,408V0Z" 
id="f0_i"
transform="scale(0.001,-0.001)" />

<path d="M680,-20c0,0,-278,0,-441,154C239,134,76,290,76,556c0,0,0,267,163,423c0,0,163,155,441,155c0,0,93,0,179,-21c0,0,86,-21,165,-62V820c0,0,-80,55,-158,81c0,0,-77,25,-163,25c0,0,-154,0,-241,-98c0,0,-88,-99,-88,-272c0,0,0,-172,87,-271c0,0,88,-98,242,-98c0,0,86,0,163,25c0,0,78,26,158,80V61C1024,61,945,20,859,0c0,0,-86,-20,-179,-20Z" 
id="f2_12"
transform="scale(0.001,-0.001)" />

<path d="M128,0V836H395V698c0,0,52,82,118,120c0,0,67,38,161,38c0,0,13,0,29,-2c0,0,15,-1,45,-4l1,-242c0,0,-35,17,-70,25c0,0,-35,7,-70,7c0,0,-103,0,-158,-66c0,0,-56,-66,-56,-189V0Z" 
id="f2_b"
transform="scale(0.001,-0.001)" />

<path d="M687,509c0,0,0,76,-44,122c0,0,-44,47,-116,47c0,0,-78,0,-126,-44c0,0,-49,-43,-61,-125ZM544,-20c0,0,-227,0,-353,114C191,94,66,209,66,417c0,0,0,204,123,321c0,0,123,118,340,118c0,0,197,0,315,-119c0,0,118,-118,118,-317V344H337c0,0,10,-94,68,-141c0,0,59,-47,163,-47c0,0,85,0,173,25c0,0,89,25,182,76V51C923,51,828,15,733,-2c0,0,-94,-18,-189,-18Z" 
id="f2_3"
transform="scale(0.001,-0.001)" />

<path d="M463,156c0,0,75,0,127,54c0,0,51,54,51,135v30H502c0,0,-83,0,-125,-28c0,0,-43,-28,-43,-83c0,0,0,-50,34,-79c0,0,34,-29,95,-29ZM357,-20c0,0,-130,0,-211,74c0,0,-80,76,-80,197c0,0,0,147,101,215c0,0,101,69,317,69H641v21c0,0,0,63,-50,92c0,0,-49,30,-155,30c0,0,-86,0,-160,-17c0,0,-74,-18,-137,-52V813c0,0,86,21,172,32c0,0,86,11,173,11c0,0,226,0,326,-90c0,0,100,-89,100,-290V0H641V124C641,124,588,48,521,13c0,0,-68,-33,-164,-33Z" 
id="f2_a"
transform="scale(0.001,-0.001)" />

<path d="M443,0C443,0,285,0,219,66c0,0,-66,66,-66,224V645H20V836H153v237H419V836H695V645H419V290c0,0,0,-58,24,-79c0,0,23,-20,91,-20H672V0Z" 
id="f2_4"
transform="scale(0.001,-0.001)" />

<path d="M179,0V190H336V0Zm0,600V790H336V600Z" 
id="f0_1e"
transform="scale(0.001,-0.001)" />

<path d="M150,0V1114H353L846,182v932H992V0H789L296,932V0Z" 
id="f0_10"
transform="scale(0.001,-0.001)" />

<path d="M744,410L592,853L439,410ZM8,0L420,1114H763L1175,0H887L816,203H367L297,0Z" 
id="f2_n"
transform="scale(0.001,-0.001)" />

<path d="M573,172c0,0,86,0,131,63c0,0,45,63,45,182c0,0,0,119,-45,182c0,0,-45,63,-131,63c0,0,-86,0,-132,-63c0,0,-46,-63,-46,-182c0,0,0,-119,46,-182c0,0,46,-63,132,-63ZM128,-317V836H395V713c0,0,55,73,122,108c0,0,68,35,155,35c0,0,154,0,253,-123c0,0,100,-123,100,-316c0,0,0,-193,-100,-316c0,0,-99,-121,-253,-121c0,0,-87,0,-155,33c0,0,-67,35,-122,108V-317Z" 
id="f2_q"
transform="scale(0.001,-0.001)" />

<path d="M140,0V1114H427V0Z" 
id="f2_s"
transform="scale(0.001,-0.001)" />

<path d="M128,0V836H395V713c0,0,60,73,128,108c0,0,68,35,150,35c0,0,145,0,220,-89c0,0,75,-89,75,-258V0H699V389c0,0,0,109,-5,150c0,0,-5,41,-16,60c0,0,-16,26,-43,41c0,0,-27,14,-61,14c0,0,-84,0,-131,-64c0,0,-48,-65,-48,-179V0Z" 
id="f2_6"
transform="scale(0.001,-0.001)" />

<path d="M162,0V645H29V836H162v58c0,0,0,136,76,201c0,0,76,66,236,66H679V986H531c0,0,-57,0,-79,-21c0,0,-23,-20,-23,-71V836H657V645H429V0Z" 
id="f2_j"
transform="scale(0.001,-0.001)" />

<path d="M526,169c0,0,87,0,133,64c0,0,46,64,46,184c0,0,0,120,-46,184c0,0,-46,64,-133,64c0,0,-89,0,-135,-64c0,0,-47,-64,-47,-184c0,0,0,-120,47,-184c0,0,46,-64,135,-64Zm0,-189c0,0,-217,0,-339,115C187,95,66,211,66,417c0,0,0,206,121,322c0,0,122,117,339,117c0,0,215,0,336,-117c0,0,122,-116,122,-322c0,0,0,-206,-122,-322C862,95,741,-20,526,-20Z" 
id="f2_g"
transform="scale(0.001,-0.001)" />

<path d="M127,0V836H396V713c0,0,49,71,113,107c0,0,64,36,141,36c0,0,86,0,152,-42c0,0,67,-42,101,-118c0,0,51,78,121,119c0,0,69,41,153,41c0,0,144,0,219,-89c0,0,76,-89,76,-258V0H1203V436c0,0,0,9,1,20c0,0,0,10,0,30c0,0,0,88,-26,128c0,0,-26,40,-84,40c0,0,-76,0,-117,-63c0,0,-42,-62,-43,-181V0H665V436c0,0,0,138,-24,178c0,0,-24,40,-85,40c0,0,-77,0,-118,-63c0,0,-42,-63,-42,-180V0Z" 
id="f2_z"
transform="scale(0.001,-0.001)" />

<path d="M128,0V836H395V0Zm0,944v217H395V944Z" 
id="f2_5"
transform="scale(0.001,-0.001)" />

<path d="M150,0V1114H790V987H300V659H742V532H300V0Z" 
id="f0_1u"
transform="scale(0.001,-0.001)" />

<path d="M460,115c0,0,111,0,173,82c0,0,61,82,61,230c0,0,0,149,-61,231c0,0,-62,82,-173,82c0,0,-111,0,-173,-82c0,0,-61,-82,-61,-231c0,0,0,-148,61,-230c0,0,62,-82,173,-82ZM446,-317c0,0,-72,0,-137,11c0,0,-64,11,-124,33v134c0,0,60,-33,119,-49c0,0,59,-15,121,-15c0,0,135,0,202,70c0,0,67,71,67,212v68C694,147,652,73,585,36C585,36,519,0,426,0C426,0,272,0,178,117c0,0,-94,117,-94,310c0,0,0,194,94,311c0,0,94,118,248,118c0,0,93,0,159,-37c0,0,67,-36,109,-110V836H831V104c0,0,0,-212,-95,-317c0,0,-94,-104,-290,-104Z" 
id="f0_q"
transform="scale(0.001,-0.001)" />

<path d="M130,747V876l123,238h96L287,876V747Zm306,0V876l123,238h96L594,876V747Z" 
id="f0_1b"
transform="scale(0.001,-0.001)" />

<path d="M150,0V1114H375L659,356l285,758h224V0H1022V978L735,214H583L296,978V0Z" 
id="f0_1j"
transform="scale(0.001,-0.001)" />

<path d="M129,747l62,239v128H348V986L225,747Zm306,0l62,239v128H654V986L531,747Z" 
id="f0_1c"
transform="scale(0.001,-0.001)" />

<path d="M359,0L46,836H191L453,134L714,836H859L546,0Z" 
id="f0_t"
transform="scale(0.001,-0.001)" />

<path d="M74,365V472H1453V365Z" 
id="f0_1a"
transform="scale(0.001,-0.001)" />

<path d="M586,595c0,0,84,0,129,40c0,0,46,41,46,115c0,0,0,75,-46,115c0,0,-45,40,-129,40H427V595ZM140,0V1114H617c0,0,212,0,326,-95c0,0,114,-94,114,-269c0,0,0,-175,-114,-269c0,0,-114,-95,-326,-95H427V0Z" 
id="f2_i"
transform="scale(0.001,-0.001)" />

<path d="M352,0L23,836H291L499,258L706,836H974L645,0Z" 
id="f2_x"
transform="scale(0.001,-0.001)" />

<path d="M547,-20c0,0,-226,0,-354,114C193,94,66,210,66,417c0,0,0,207,127,323c0,0,128,116,354,116c0,0,66,0,129,-12c0,0,64,-11,128,-34V592c0,0,-55,37,-110,55c0,0,-54,18,-113,18c0,0,-112,0,-175,-65c0,0,-62,-66,-62,-183c0,0,0,-117,62,-183c0,0,63,-65,175,-65c0,0,62,0,119,19c0,0,56,19,104,55V24C804,24,741,1,676,-9c0,0,-64,-11,-129,-11Z" 
id="f2_f"
transform="scale(0.001,-0.001)" />

<path d="M153,-328v175h83c0,0,68,0,99,21c0,0,31,22,48,78l8,23L19,836H286L510,269L701,836H968L617,-78c0,0,-53,-139,-124,-195c0,0,-70,-55,-186,-55Z" 
id="f2_y"
transform="scale(0.001,-0.001)" />

<path d="M128,0V1161H395V0Z" 
id="f2_r"
transform="scale(0.001,-0.001)" />

<path d="M620,-20c0,0,-243,0,-362,114c0,0,-118,116,-118,352v668H427V446c0,0,0,-138,45,-197c0,0,45,-59,148,-59c0,0,102,0,147,59c0,0,46,59,46,197v668h287V446c0,0,0,-236,-119,-352C981,94,863,-20,620,-20Z" 
id="f2_1c"
transform="scale(0.001,-0.001)" />

<path d="M548,620c0,0,90,0,129,33c0,0,39,34,39,111c0,0,0,76,-39,109c0,0,-39,32,-129,32H427V620ZM140,0V1114H578c0,0,220,0,323,-74c0,0,102,-74,102,-234c0,0,0,-110,-53,-181c0,0,-54,-71,-161,-104c0,0,59,-14,106,-61c0,0,46,-47,94,-144L1145,0H839L703,277c0,0,-41,83,-83,114c0,0,-42,30,-112,30H427V0Z" 
id="f2_w"
transform="scale(0.001,-0.001)" />

<path d="M140,0V1114H427V217H931V0Z" 
id="f2_1f"
transform="scale(0.001,-0.001)" />

<path d="M545,-20c0,0,-106,0,-212,20C333,0,226,19,119,58V301c0,0,107,-57,207,-85c0,0,99,-29,192,-29c0,0,94,0,144,31c0,0,50,31,50,90c0,0,0,52,-34,80c0,0,-34,29,-136,51L431,464c0,0,-167,35,-244,114c0,0,-77,78,-77,211c0,0,0,166,107,256c0,0,107,89,309,89c0,0,92,0,189,-14c0,0,97,-13,200,-41V843c0,0,-92,41,-179,62c0,0,-87,21,-165,21c0,0,-103,0,-152,-28c0,0,-49,-29,-49,-88c0,0,0,-45,33,-70c0,0,33,-25,121,-43L646,672c0,0,186,-37,264,-113c0,0,79,-76,79,-216c0,0,0,-185,-110,-275c0,0,-109,-88,-334,-88Z" 
id="f2_9"
transform="scale(0.001,-0.001)" />


</defs>
</svg>