<?xml version="1.0" encoding="UTF-8" standalone="no"?>
<!DOCTYPE svg PUBLIC "-//W3C//DTD SVG 1.1//EN"
"http://www.w3.org/Graphics/SVG/1.1/DTD/svg11.dtd">
<svg viewBox="0 0 909 1286" version="1.1" xmlns="http://www.w3.org/2000/svg" xmlns:xlink="http://www.w3.org/1999/xlink">
<defs>
<clipPath id="c0_17"><path d="M0,1286.2V.2H909.3v1286Z" /></clipPath>
</defs>
<g clip-path="url(#c0_17)">
<g fill="#000000" >
<use xlink:href="#f0_1k" transform="matrix(12,0,0,12,86.8,341.3)" />
<use xlink:href="#f0_q" transform="matrix(12,0,0,12,99.3,341.3)" />
<use xlink:href="#f0_8" transform="matrix(12,0,0,12,110.9,341.3)" />
<use xlink:href="#f0_c" transform="matrix(12,0,0,12,122.2,341.3)" />
<use xlink:href="#f0_e" transform="matrix(12,0,0,12,127.2,341.3)" />
<use xlink:href="#f0_4" transform="matrix(12,0,0,12,138.8,341.3)" />
<use xlink:href="#f0_9" transform="matrix(12,0,0,12,150.6,341.3)" />
<use xlink:href="#f0_c" transform="matrix(12,0,0,12,160.2,341.3)" />
<use xlink:href="#f0_e" transform="matrix(12,0,0,12,165.2,341.3)" />
<use xlink:href="#f0_b" transform="matrix(12,0,0,12,176.8,341.3)" />
<use xlink:href="#f0_a" transform="matrix(12,0,0,12,186.9,341.3)" />
<use xlink:href="#f0_6" transform="matrix(12,0,0,12,204,341.3)" />
<use xlink:href="#f0_7" transform="matrix(12,0,0,12,211.2,341.3)" />
<use xlink:href="#f0_c" transform="matrix(12,0,0,12,222.8,341.3)" />
<use xlink:href="#f0_9" transform="matrix(12,0,0,12,227.9,341.3)" />
<use xlink:href="#f0_c" transform="matrix(12,0,0,12,243.3,341.3)" />
<use xlink:href="#f0_9" transform="matrix(12,0,0,12,248.3,341.3)" />
<use xlink:href="#f0_p" transform="matrix(12,0,0,12,263.7,341.3)" />
<use xlink:href="#f0_d" transform="matrix(12,0,0,12,274.6,341.3)" />
<use xlink:href="#f0_k" transform="matrix(12,0,0,12,285.7,341.3)" />
<use xlink:href="#f0_g" transform="matrix(12,0,0,12,297.3,341.3)" />
<use xlink:href="#f0_h" transform="matrix(12,0,0,12,310.8,341.3)" />
<use xlink:href="#f0_c" transform="matrix(12,0,0,12,317.2,341.3)" />
<use xlink:href="#f0_g" transform="matrix(12,0,0,12,322.2,341.3)" />
<use xlink:href="#f0_9" transform="matrix(12,0,0,12,329.7,341.3)" />
<use xlink:href="#f0_6" transform="matrix(12,0,0,12,339.3,341.3)" />
<use xlink:href="#f0_6" transform="matrix(12,0,0,12,352.4,341.3)" />
<use xlink:href="#f0_c" transform="matrix(12,0,0,12,359.6,341.3)" />
<use xlink:href="#f0_u" transform="matrix(12,0,0,12,364.7,341.3)" />
<use xlink:href="#f0_a" transform="matrix(12,0,0,12,382.5,341.3)" />
<use xlink:href="#f0_7" transform="matrix(12,0,0,12,399.6,341.3)" />
<use xlink:href="#f0_a" transform="matrix(12,0,0,12,411.2,341.3)" />
<use xlink:href="#f0_g" transform="matrix(12,0,0,12,422.5,341.3)" />
<use xlink:href="#f0_a" transform="matrix(12,0,0,12,429.5,341.3)" />
<use xlink:href="#f0_4" transform="matrix(12,0,0,12,440.8,341.3)" />
<use xlink:href="#f0_p" transform="matrix(12,0,0,12,452.6,341.3)" />
<use xlink:href="#f0_d" transform="matrix(12,0,0,12,463.4,341.3)" />
<use xlink:href="#f0_k" transform="matrix(12,0,0,12,474.6,341.3)" />
<use xlink:href="#f0_r" transform="matrix(12,0,0,12,486.2,341.3)" />
<use xlink:href="#f0_o" transform="matrix(12,0,0,12,492,341.3)" />
<use xlink:href="#f0_o" transform="matrix(12,0,0,12,497,341.3)" />
<use xlink:href="#f0_7" transform="matrix(12,0,0,12,508,341.3)" />
<use xlink:href="#f0_8" transform="matrix(12,0,0,12,519.6,341.3)" />
<use xlink:href="#f0_t" transform="matrix(12,0,0,12,530.9,341.3)" />
<use xlink:href="#f0_a" transform="matrix(12,0,0,12,541.7,341.3)" />
<use xlink:href="#f0_6" transform="matrix(12,0,0,12,558.8,341.3)" />
<use xlink:href="#f0_d" transform="matrix(12,0,0,12,566,341.3)" />
<use xlink:href="#f0_h" transform="matrix(12,0,0,12,583,341.3)" />
<use xlink:href="#f0_c" transform="matrix(12,0,0,12,589.4,341.3)" />
<use xlink:href="#f0_g" transform="matrix(12,0,0,12,594.6,341.3)" />
<use xlink:href="#f0_9" transform="matrix(12,0,0,12,602.1,341.3)" />
<use xlink:href="#f0_6" transform="matrix(12,0,0,12,611.7,341.3)" />
<use xlink:href="#f0_b" transform="matrix(12,0,0,12,624.7,341.3)" />
<use xlink:href="#f0_o" transform="matrix(12,0,0,12,634.7,341.3)" />
<use xlink:href="#f0_c" transform="matrix(12,0,0,12,639.8,341.3)" />
<use xlink:href="#f0_b" transform="matrix(12,0,0,12,644.8,341.3)" />
<use xlink:href="#f0_i" transform="matrix(12,0,0,12,654.9,341.3)" />
</g>
<g fill="#0000FF" >
<use xlink:href="#f1_n" transform="matrix(12,0,0,12,671.8,341.3)" />
<use xlink:href="#f1_c" transform="matrix(12,0,0,12,686,341.3)" />
<use xlink:href="#f1_c" transform="matrix(12,0,0,12,699.1,341.3)" />
<use xlink:href="#f1_11" transform="matrix(12,0,0,12,718.6,341.3)" />
<use xlink:href="#f1_a" transform="matrix(12,0,0,12,732.5,341.3)" />
<use xlink:href="#f1_6" transform="matrix(12,0,0,12,744.9,341.3)" />
<use xlink:href="#f1_18" transform="matrix(12,0,0,12,757.8,341.3)" />
<use xlink:href="#f1_n" transform="matrix(12,0,0,12,86.8,369.9)" />
<use xlink:href="#f1_f" transform="matrix(12,0,0,12,101,369.9)" />
<use xlink:href="#f1_f" transform="matrix(12,0,0,12,111.8,369.9)" />
<use xlink:href="#f1_g" transform="matrix(12,0,0,12,122.7,369.9)" />
<use xlink:href="#f1_o" transform="matrix(12,0,0,12,135.3,369.9)" />
<use xlink:href="#f1_6" transform="matrix(12,0,0,12,148.3,369.9)" />
<use xlink:href="#f1_4" transform="matrix(12,0,0,12,161.4,369.9)" />
</g>
<g fill="#000000" >
<use xlink:href="#f0_1e" transform="matrix(12,0,0,12,170.2,369.9)" />
<use xlink:href="#f0_1f" transform="matrix(12,0,0,12,86.8,640.4)" />
<use xlink:href="#f0_7" transform="matrix(12,0,0,12,99.6,640.4)" />
<use xlink:href="#f0_d" transform="matrix(12,0,0,12,111.2,640.4)" />
<use xlink:href="#f0_d" transform="matrix(12,0,0,12,122.3,640.4)" />
<use xlink:href="#f0_9" transform="matrix(12,0,0,12,133.5,640.4)" />
<use xlink:href="#f0_a" transform="matrix(12,0,0,12,143.1,640.4)" />
<use xlink:href="#f0_6" transform="matrix(12,0,0,12,160.2,640.4)" />
<use xlink:href="#f0_7" transform="matrix(12,0,0,12,167.4,640.4)" />
<use xlink:href="#f0_a" transform="matrix(12,0,0,12,179,640.4)" />
<use xlink:href="#f0_8" transform="matrix(12,0,0,12,196.2,640.4)" />
<use xlink:href="#f0_s" transform="matrix(12,0,0,12,207.4,640.4)" />
<use xlink:href="#f0_s" transform="matrix(12,0,0,12,219,640.4)" />
<use xlink:href="#f0_g" transform="matrix(12,0,0,12,230.7,640.4)" />
<use xlink:href="#f0_d" transform="matrix(12,0,0,12,237.8,640.4)" />
<use xlink:href="#f0_s" transform="matrix(12,0,0,12,248.9,640.4)" />
<use xlink:href="#f0_g" transform="matrix(12,0,0,12,260.7,640.4)" />
<use xlink:href="#f0_c" transform="matrix(12,0,0,12,268.1,640.4)" />
<use xlink:href="#f0_8" transform="matrix(12,0,0,12,273.2,640.4)" />
<use xlink:href="#f0_6" transform="matrix(12,0,0,12,284.5,640.4)" />
<use xlink:href="#f0_a" transform="matrix(12,0,0,12,291.7,640.4)" />
</g>
<g fill="#0000FF" >
<use xlink:href="#f1_11" transform="matrix(12,0,0,12,308.9,640.4)" />
<use xlink:href="#f1_a" transform="matrix(12,0,0,12,322.8,640.4)" />
<use xlink:href="#f1_6" transform="matrix(12,0,0,12,335.2,640.4)" />
<use xlink:href="#f1_18" transform="matrix(12,0,0,12,348.2,640.4)" />
<use xlink:href="#f1_12" transform="matrix(12,0,0,12,366.8,640.4)" />
<use xlink:href="#f1_g" transform="matrix(12,0,0,12,380.2,640.4)" />
<use xlink:href="#f1_o" transform="matrix(12,0,0,12,392.9,640.4)" />
<use xlink:href="#f1_6" transform="matrix(12,0,0,12,405.9,640.4)" />
<use xlink:href="#f1_4" transform="matrix(12,0,0,12,418.8,640.4)" />
<use xlink:href="#f1_b" transform="matrix(12,0,0,12,427.7,640.4)" />
<use xlink:href="#f1_y" transform="matrix(12,0,0,12,436.7,640.4)" />
</g>
<g fill="#000000" >
<use xlink:href="#f0_l" transform="matrix(12,0,0,12,448.7,640.4)" />
<use xlink:href="#f0_19" transform="matrix(12,0,0,12,460.5,640.4)" />
<use xlink:href="#f0_h" transform="matrix(12,0,0,12,465.8,640.4)" />
<use xlink:href="#f0_p" transform="matrix(12,0,0,12,478,640.4)" />
<use xlink:href="#f0_d" transform="matrix(12,0,0,12,488.9,640.4)" />
<use xlink:href="#f0_k" transform="matrix(12,0,0,12,500,640.4)" />
<use xlink:href="#f0_b" transform="matrix(12,0,0,12,517.6,640.4)" />
<use xlink:href="#f0_7" transform="matrix(12,0,0,12,527.7,640.4)" />
<use xlink:href="#f0_d" transform="matrix(12,0,0,12,539.3,640.4)" />
<use xlink:href="#f0_d" transform="matrix(12,0,0,12,550.6,640.4)" />
<use xlink:href="#f0_9" transform="matrix(12,0,0,12,561.7,640.4)" />
<use xlink:href="#f0_a" transform="matrix(12,0,0,12,571.2,640.4)" />
<use xlink:href="#f0_8" transform="matrix(12,0,0,12,588.4,640.4)" />
<use xlink:href="#f0_e" transform="matrix(12,0,0,12,599.6,640.4)" />
<use xlink:href="#f0_p" transform="matrix(12,0,0,12,611.2,640.4)" />
<use xlink:href="#f0_6" transform="matrix(12,0,0,12,622,640.4)" />
<use xlink:href="#f0_7" transform="matrix(12,0,0,12,629.2,640.4)" />
<use xlink:href="#f0_c" transform="matrix(12,0,0,12,640.8,640.4)" />
<use xlink:href="#f0_e" transform="matrix(12,0,0,12,645.8,640.4)" />
<use xlink:href="#f0_q" transform="matrix(12,0,0,12,657.4,640.4)" />
<use xlink:href="#f0_d" transform="matrix(12,0,0,12,675,640.4)" />
<use xlink:href="#f0_6" transform="matrix(12,0,0,12,686.1,640.4)" />
<use xlink:href="#f0_7" transform="matrix(12,0,0,12,693.3,640.4)" />
<use xlink:href="#f0_a" transform="matrix(12,0,0,12,704.9,640.4)" />
<use xlink:href="#f0_g" transform="matrix(12,0,0,12,716.2,640.4)" />
<use xlink:href="#f0_6" transform="matrix(12,0,0,12,729.7,640.4)" />
<use xlink:href="#f0_7" transform="matrix(12,0,0,12,736.9,640.4)" />
<use xlink:href="#f0_8" transform="matrix(12,0,0,12,748.5,640.4)" />
<use xlink:href="#f0_e" transform="matrix(12,0,0,12,759.8,640.4)" />
<use xlink:href="#f0_1y" transform="matrix(12,0,0,12,86.8,669.2)" />
<use xlink:href="#f0_e" transform="matrix(12,0,0,12,100.2,669.2)" />
<use xlink:href="#f0_c" transform="matrix(12,0,0,12,111.8,669.2)" />
<use xlink:href="#f0_6" transform="matrix(12,0,0,12,116.8,669.2)" />
<use xlink:href="#f0_a" transform="matrix(12,0,0,12,124,669.2)" />
<use xlink:href="#f0_f" transform="matrix(12,0,0,12,135.3,669.2)" />
<use xlink:href="#f0_18" transform="matrix(12,0,0,12,152.9,669.2)" />
<use xlink:href="#f0_6" transform="matrix(12,0,0,12,164.5,669.2)" />
<use xlink:href="#f0_8" transform="matrix(12,0,0,12,171.7,669.2)" />
<use xlink:href="#f0_6" transform="matrix(12,0,0,12,183,669.2)" />
<use xlink:href="#f0_a" transform="matrix(12,0,0,12,190,669.2)" />
<use xlink:href="#f0_9" transform="matrix(12,0,0,12,201.3,669.2)" />
<use xlink:href="#f0_4" transform="matrix(12,0,0,12,210.9,669.2)" />
<use xlink:href="#f0_x" transform="matrix(12,0,0,12,222.5,669.2)" />
<use xlink:href="#f0_a" transform="matrix(12,0,0,12,234.1,669.2)" />
<use xlink:href="#f0_8" transform="matrix(12,0,0,12,251.2,669.2)" />
<use xlink:href="#f0_n" transform="matrix(12,0,0,12,262.5,669.2)" />
<use xlink:href="#f0_8" transform="matrix(12,0,0,12,277.5,669.2)" />
<use xlink:href="#f0_g" transform="matrix(12,0,0,12,288.8,669.2)" />
<use xlink:href="#f0_a" transform="matrix(12,0,0,12,295.8,669.2)" />
<use xlink:href="#f0_6" transform="matrix(12,0,0,12,312.9,669.2)" />
<use xlink:href="#f0_7" transform="matrix(12,0,0,12,320.1,669.2)" />
<use xlink:href="#f0_8" transform="matrix(12,0,0,12,331.7,669.2)" />
<use xlink:href="#f0_6" transform="matrix(12,0,0,12,343,669.2)" />
<use xlink:href="#f0_6" transform="matrix(12,0,0,12,356,669.2)" />
<use xlink:href="#f0_7" transform="matrix(12,0,0,12,363.2,669.2)" />
<use xlink:href="#f0_a" transform="matrix(12,0,0,12,374.8,669.2)" />
<use xlink:href="#f0_9" transform="matrix(12,0,0,12,391.9,669.2)" />
<use xlink:href="#f0_6" transform="matrix(12,0,0,12,401.5,669.2)" />
<use xlink:href="#f0_a" transform="matrix(12,0,0,12,408.7,669.2)" />
<use xlink:href="#f0_s" transform="matrix(12,0,0,12,420,669.2)" />
<use xlink:href="#f0_9" transform="matrix(12,0,0,12,431.4,669.2)" />
<use xlink:href="#f0_h" transform="matrix(12,0,0,12,447,669.2)" />
<use xlink:href="#f0_g" transform="matrix(12,0,0,12,453.4,669.2)" />
<use xlink:href="#f0_d" transform="matrix(12,0,0,12,460.4,669.2)" />
<use xlink:href="#f0_u" transform="matrix(12,0,0,12,471.6,669.2)" />
<use xlink:href="#f0_e" transform="matrix(12,0,0,12,495.4,669.2)" />
<use xlink:href="#f0_d" transform="matrix(12,0,0,12,507,669.2)" />
<use xlink:href="#f0_n" transform="matrix(12,0,0,12,518.1,669.2)" />
<use xlink:href="#f0_d" transform="matrix(12,0,0,12,539.1,669.2)" />
<use xlink:href="#f0_e" transform="matrix(12,0,0,12,550.2,669.2)" />
<use xlink:href="#f0_u" transform="matrix(12,0,0,12,567.8,669.2)" />
<use xlink:href="#f0_8" transform="matrix(12,0,0,12,585.5,669.2)" />
<use xlink:href="#f0_p" transform="matrix(12,0,0,12,596.8,669.2)" />
<use xlink:href="#f0_x" transform="matrix(12,0,0,12,613.4,669.2)" />
<use xlink:href="#f0_a" transform="matrix(12,0,0,12,625,669.2)" />
<use xlink:href="#f0_f" transform="matrix(12,0,0,12,642.1,669.2)" />
<use xlink:href="#f0_c" transform="matrix(12,0,0,12,653.7,669.2)" />
<use xlink:href="#f0_h" transform="matrix(12,0,0,12,658.9,669.2)" />
<use xlink:href="#f0_h" transform="matrix(12,0,0,12,665.3,669.2)" />
<use xlink:href="#f0_a" transform="matrix(12,0,0,12,671.7,669.2)" />
<use xlink:href="#f0_g" transform="matrix(12,0,0,12,683,669.2)" />
<use xlink:href="#f0_a" transform="matrix(12,0,0,12,690.1,669.2)" />
<use xlink:href="#f0_e" transform="matrix(12,0,0,12,701.3,669.2)" />
<use xlink:href="#f0_6" transform="matrix(12,0,0,12,713,669.2)" />
<use xlink:href="#f0_l" transform="matrix(12,0,0,12,720.1,669.2)" />
<use xlink:href="#f0_1f" transform="matrix(12,0,0,12,731.9,669.2)" />
<use xlink:href="#f0_o" transform="matrix(12,0,0,12,744.7,669.2)" />
<use xlink:href="#f0_c" transform="matrix(12,0,0,12,749.7,669.2)" />
<use xlink:href="#f0_b" transform="matrix(12,0,0,12,754.8,669.2)" />
<use xlink:href="#f0_i" transform="matrix(12,0,0,12,764.9,669.2)" />
</g>
<g fill="#0000FF" >
<use xlink:href="#f1_1d" transform="matrix(12,0,0,12,86.8,697.7)" />
<use xlink:href="#f1_3" transform="matrix(12,0,0,12,102.2,697.7)" />
<use xlink:href="#f1_16" transform="matrix(12,0,0,12,114.6,697.7)" />
<use xlink:href="#f1_4" transform="matrix(12,0,0,12,126.3,697.7)" />
</g>
<g fill="#000000" >
<use xlink:href="#f0_1e" transform="matrix(12,0,0,12,135.2,697.7)" />
<use xlink:href="#f0_1r" transform="matrix(12,0,0,12,86.8,917.9)" />
<use xlink:href="#f0_d" transform="matrix(12,0,0,12,95.6,917.9)" />
<use xlink:href="#f0_k" transform="matrix(12,0,0,12,106.8,917.9)" />
<use xlink:href="#f0_g" transform="matrix(12,0,0,12,118.4,917.9)" />
<use xlink:href="#f0_x" transform="matrix(12,0,0,12,131.8,917.9)" />
<use xlink:href="#f0_8" transform="matrix(12,0,0,12,143.3,917.9)" />
<use xlink:href="#f0_e" transform="matrix(12,0,0,12,154.6,917.9)" />
<use xlink:href="#f0_i" transform="matrix(12,0,0,12,166.2,917.9)" />
<use xlink:href="#f0_r" transform="matrix(12,0,0,12,176.8,917.9)" />
<use xlink:href="#f0_9" transform="matrix(12,0,0,12,182.7,917.9)" />
<use xlink:href="#f0_1k" transform="matrix(12,0,0,12,198.1,917.9)" />
<use xlink:href="#f0_m" transform="matrix(12,0,0,12,210.6,917.9)" />
<use xlink:href="#f0_1k" transform="matrix(12,0,0,12,223.1,917.9)" />
<use xlink:href="#f0_1i" transform="matrix(12,0,0,12,241.5,917.9)" />
<use xlink:href="#f0_d" transform="matrix(12,0,0,12,253.4,917.9)" />
<use xlink:href="#f0_k" transform="matrix(12,0,0,12,264.5,917.9)" />
<use xlink:href="#f0_6" transform="matrix(12,0,0,12,276.3,917.9)" />
<use xlink:href="#f0_c" transform="matrix(12,0,0,12,283.5,917.9)" />
<use xlink:href="#f0_e" transform="matrix(12,0,0,12,288.5,917.9)" />
<use xlink:href="#f0_q" transform="matrix(12,0,0,12,300.1,917.9)" />
<use xlink:href="#f0_e" transform="matrix(12,0,0,12,317.7,917.9)" />
<use xlink:href="#f0_k" transform="matrix(12,0,0,12,329.3,917.9)" />
<use xlink:href="#f0_u" transform="matrix(12,0,0,12,340.9,917.9)" />
<use xlink:href="#f0_x" transform="matrix(12,0,0,12,358.7,917.9)" />
<use xlink:href="#f0_a" transform="matrix(12,0,0,12,370.3,917.9)" />
<use xlink:href="#f0_g" transform="matrix(12,0,0,12,381.6,917.9)" />
<use xlink:href="#f0_c" transform="matrix(12,0,0,12,394.9,917.9)" />
<use xlink:href="#f0_9" transform="matrix(12,0,0,12,400,917.9)" />
<use xlink:href="#f0_o" transform="matrix(12,0,0,12,415.4,917.9)" />
<use xlink:href="#f0_d" transform="matrix(12,0,0,12,420.6,917.9)" />
<use xlink:href="#f0_b" transform="matrix(12,0,0,12,431.7,917.9)" />
<use xlink:href="#f0_8" transform="matrix(12,0,0,12,441.8,917.9)" />
<use xlink:href="#f0_6" transform="matrix(12,0,0,12,453.1,917.9)" />
<use xlink:href="#f0_a" transform="matrix(12,0,0,12,460.2,917.9)" />
<use xlink:href="#f0_f" transform="matrix(12,0,0,12,471.5,917.9)" />
<use xlink:href="#f0_d" transform="matrix(12,0,0,12,489,917.9)" />
<use xlink:href="#f0_e" transform="matrix(12,0,0,12,500.1,917.9)" />
<use xlink:href="#f0_p" transform="matrix(12,0,0,12,517.6,917.9)" />
<use xlink:href="#f0_d" transform="matrix(12,0,0,12,528.5,917.9)" />
<use xlink:href="#f0_k" transform="matrix(12,0,0,12,539.6,917.9)" />
<use xlink:href="#f0_g" transform="matrix(12,0,0,12,551.2,917.9)" />
<use xlink:href="#f0_b" transform="matrix(12,0,0,12,564.7,917.9)" />
<use xlink:href="#f0_7" transform="matrix(12,0,0,12,574.7,917.9)" />
<use xlink:href="#f0_a" transform="matrix(12,0,0,12,586.2,917.9)" />
<use xlink:href="#f0_b" transform="matrix(12,0,0,12,597.5,917.9)" />
<use xlink:href="#f0_i" transform="matrix(12,0,0,12,607.5,917.9)" />
<use xlink:href="#f0_9" transform="matrix(12,0,0,12,618.1,917.9)" />
<use xlink:href="#f0_d" transform="matrix(12,0,0,12,633.6,917.9)" />
<use xlink:href="#f0_g" transform="matrix(12,0,0,12,644.8,917.9)" />
<use xlink:href="#f0_9" transform="matrix(12,0,0,12,658.2,917.9)" />
<use xlink:href="#f0_6" transform="matrix(12,0,0,12,667.7,917.9)" />
<use xlink:href="#f0_8" transform="matrix(12,0,0,12,674.9,917.9)" />
<use xlink:href="#f0_6" transform="matrix(12,0,0,12,686.1,917.9)" />
<use xlink:href="#f0_a" transform="matrix(12,0,0,12,693.3,917.9)" />
<use xlink:href="#f0_u" transform="matrix(12,0,0,12,704.5,917.9)" />
<use xlink:href="#f0_a" transform="matrix(12,0,0,12,722.3,917.9)" />
<use xlink:href="#f0_e" transform="matrix(12,0,0,12,733.6,917.9)" />
<use xlink:href="#f0_6" transform="matrix(12,0,0,12,745.2,917.9)" />
<use xlink:href="#f0_9" transform="matrix(12,0,0,12,752.4,917.9)" />
<use xlink:href="#f0_4" transform="matrix(12,0,0,12,762,917.9)" />
<use xlink:href="#f0_8" transform="matrix(12,0,0,12,773.7,917.9)" />
<use xlink:href="#f0_9" transform="matrix(12,0,0,12,784.9,917.9)" />
<use xlink:href="#f0_c" transform="matrix(12,0,0,12,86.8,946.5)" />
<use xlink:href="#f0_e" transform="matrix(12,0,0,12,91.8,946.5)" />
<use xlink:href="#f0_f" transform="matrix(12,0,0,12,103.4,946.5)" />
<use xlink:href="#f0_c" transform="matrix(12,0,0,12,115.2,946.5)" />
<use xlink:href="#f0_b" transform="matrix(12,0,0,12,120.2,946.5)" />
<use xlink:href="#f0_8" transform="matrix(12,0,0,12,130.3,946.5)" />
<use xlink:href="#f0_6" transform="matrix(12,0,0,12,141.6,946.5)" />
<use xlink:href="#f0_a" transform="matrix(12,0,0,12,148.8,946.5)" />
<use xlink:href="#f0_f" transform="matrix(12,0,0,12,160.1,946.5)" />
<use xlink:href="#f0_x" transform="matrix(12,0,0,12,177.5,946.5)" />
<use xlink:href="#f0_a" transform="matrix(12,0,0,12,189.1,946.5)" />
<use xlink:href="#f0_o" transform="matrix(12,0,0,12,200.4,946.5)" />
<use xlink:href="#f0_d" transform="matrix(12,0,0,12,205.4,946.5)" />
<use xlink:href="#f0_n" transform="matrix(12,0,0,12,216.6,946.5)" />
<use xlink:href="#f0_c" transform="matrix(12,0,0,12,237.5,946.5)" />
<use xlink:href="#f0_e" transform="matrix(12,0,0,12,242.5,946.5)" />
<use xlink:href="#f0_6" transform="matrix(12,0,0,12,260.1,946.5)" />
<use xlink:href="#f0_7" transform="matrix(12,0,0,12,267.3,946.5)" />
<use xlink:href="#f0_a" transform="matrix(12,0,0,12,278.9,946.5)" />
<use xlink:href="#f0_d" transform="matrix(12,0,0,12,296,946.5)" />
<use xlink:href="#f0_g" transform="matrix(12,0,0,12,307.1,946.5)" />
<use xlink:href="#f0_8" transform="matrix(12,0,0,12,314.6,946.5)" />
<use xlink:href="#f0_e" transform="matrix(12,0,0,12,325.9,946.5)" />
<use xlink:href="#f0_q" transform="matrix(12,0,0,12,337.5,946.5)" />
<use xlink:href="#f0_a" transform="matrix(12,0,0,12,349.1,946.5)" />
<use xlink:href="#f0_x" transform="matrix(12,0,0,12,366.2,946.5)" />
<use xlink:href="#f0_d" transform="matrix(12,0,0,12,377.9,946.5)" />
<use xlink:href="#f0_1h" transform="matrix(12,0,0,12,388.5,946.5)" />
<use xlink:href="#f0_l" transform="matrix(12,0,0,12,399.3,946.5)" />
<use xlink:href="#f0_1d" transform="matrix(12,0,0,12,411.1,946.5)" />
<use xlink:href="#f0_e" transform="matrix(12,0,0,12,422.5,946.5)" />
<use xlink:href="#f0_6" transform="matrix(12,0,0,12,434.1,946.5)" />
<use xlink:href="#f0_a" transform="matrix(12,0,0,12,441.3,946.5)" />
<use xlink:href="#f0_g" transform="matrix(12,0,0,12,452.6,946.5)" />
<use xlink:href="#f0_6" transform="matrix(12,0,0,12,466.1,946.5)" />
<use xlink:href="#f0_7" transform="matrix(12,0,0,12,473.2,946.5)" />
<use xlink:href="#f0_a" transform="matrix(12,0,0,12,484.8,946.5)" />
<use xlink:href="#f0_b" transform="matrix(12,0,0,12,502,946.5)" />
<use xlink:href="#f0_d" transform="matrix(12,0,0,12,512,946.5)" />
<use xlink:href="#f0_g" transform="matrix(12,0,0,12,523.2,946.5)" />
<use xlink:href="#f0_g" transform="matrix(12,0,0,12,530.5,946.5)" />
<use xlink:href="#f0_a" transform="matrix(12,0,0,12,537.5,946.5)" />
<use xlink:href="#f0_b" transform="matrix(12,0,0,12,548.8,946.5)" />
<use xlink:href="#f0_6" transform="matrix(12,0,0,12,558.9,946.5)" />
</g>
<g fill="#0000FF" >
<use xlink:href="#f1_n" transform="matrix(12,0,0,12,572.2,946.5)" />
<use xlink:href="#f1_11" transform="matrix(12,0,0,12,586.3,946.5)" />
<use xlink:href="#f1_n" transform="matrix(12,0,0,12,600.2,946.5)" />
<use xlink:href="#f1_w" transform="matrix(12,0,0,12,620.8,946.5)" />
<use xlink:href="#f1_g" transform="matrix(12,0,0,12,635,946.5)" />
<use xlink:href="#f1_o" transform="matrix(12,0,0,12,647.5,946.5)" />
<use xlink:href="#f1_4" transform="matrix(12,0,0,12,660.5,946.5)" />
<use xlink:href="#f1_5" transform="matrix(12,0,0,12,669.2,946.5)" />
<use xlink:href="#f1_6" transform="matrix(12,0,0,12,675.6,946.5)" />
<use xlink:href="#f1_7" transform="matrix(12,0,0,12,688.6,946.5)" />
<use xlink:href="#f1_1d" transform="matrix(12,0,0,12,708.1,946.5)" />
<use xlink:href="#f1_o" transform="matrix(12,0,0,12,723.4,946.5)" />
<use xlink:href="#f1_z" transform="matrix(12,0,0,12,736.4,946.5)" />
<use xlink:href="#f1_13" transform="matrix(12,0,0,12,755.5,946.5)" />
<use xlink:href="#f1_3" transform="matrix(12,0,0,12,768.7,946.5)" />
<use xlink:href="#f1_b" transform="matrix(12,0,0,12,781.1,946.5)" />
</g>
<g fill="#000000" >
<use xlink:href="#f0_4" transform="matrix(12,0,0,12,790.3,946.5)" />
<use xlink:href="#f0_b" transform="matrix(12,0,0,12,86.8,975.2)" />
<use xlink:href="#f0_o" transform="matrix(12,0,0,12,96.8,975.2)" />
<use xlink:href="#f0_c" transform="matrix(12,0,0,12,101.9,975.2)" />
<use xlink:href="#f0_b" transform="matrix(12,0,0,12,106.9,975.2)" />
<use xlink:href="#f0_i" transform="matrix(12,0,0,12,117,975.2)" />
</g>
<g fill="#0000FF" >
<use xlink:href="#f1_1d" transform="matrix(12,0,0,12,133.7,975.2)" />
<use xlink:href="#f1_3" transform="matrix(12,0,0,12,149,975.2)" />
<use xlink:href="#f1_16" transform="matrix(12,0,0,12,161.5,975.2)" />
<use xlink:href="#f1_4" transform="matrix(12,0,0,12,173.2,975.2)" />
</g>
<g fill="#000000" >
<use xlink:href="#f0_1e" transform="matrix(12,0,0,12,182,975.2)" />
</g>
</g>
<image preserveAspectRatio="none" x="87" y="87" width="736" height="209" xlink:href="img/1.png" />
<image preserveAspectRatio="none" x="87" y="374" width="736" height="221" xlink:href="img/2.png" />
<image preserveAspectRatio="none" x="87" y="702" width="736" height="171" xlink:href="img/3.png" />
<image preserveAspectRatio="none" x="87" y="979" width="736" height="217" xlink:href="img/4.png" />
<defs>
<path d="M727,411L522,965L318,411ZM12,0L437,1114H608L1033,0H876L774,286H272L171,0Z" 
id="f0_1k"
transform="scale(0.001,-0.001)" />

<path d="M460,115c0,0,111,0,173,82c0,0,61,82,61,230c0,0,0,149,-61,231c0,0,-62,82,-173,82c0,0,-111,0,-173,-82c0,0,-61,-82,-61,-231c0,0,0,-148,61,-230c0,0,62,-82,173,-82ZM446,-317c0,0,-72,0,-137,11c0,0,-64,11,-124,33v134c0,0,60,-33,119,-49c0,0,59,-15,121,-15c0,0,135,0,202,70c0,0,67,71,67,212v68C694,147,652,73,585,36C585,36,519,0,426,0C426,0,272,0,178,117c0,0,-94,117,-94,310c0,0,0,194,94,311c0,0,94,118,248,118c0,0,93,0,159,-37c0,0,67,-36,109,-110V836H831V104c0,0,0,-212,-95,-317c0,0,-94,-104,-290,-104Z" 
id="f0_q"
transform="scale(0.001,-0.001)" />

<path d="M408,93c0,0,115,0,184,81c0,0,69,81,69,215v30H524c0,0,-167,0,-231,-38c0,0,-64,-38,-64,-129c0,0,0,-73,48,-116c0,0,48,-43,131,-43ZM372,-20c0,0,-128,0,-204,70c0,0,-76,72,-76,193c0,0,0,141,94,212c0,0,95,72,282,72H661v13c0,0,0,95,-62,147c0,0,-63,52,-175,52c0,0,-72,0,-140,-17c0,0,-68,-17,-130,-51V798c0,0,75,29,146,43c0,0,71,15,138,15c0,0,181,0,270,-95c0,0,90,-94,90,-285V0H661V127C661,127,614,51,544,15c0,0,-70,-35,-172,-35Z" 
id="f0_8"
transform="scale(0.001,-0.001)" />

<path d="M144,0V836H281V0Zm0,987v174H281V987Z" 
id="f0_c"
transform="scale(0.001,-0.001)" />

<path d="M139,0V836H277V706c0,0,49,75,116,112c0,0,67,38,154,38c0,0,144,0,218,-90c0,0,74,-89,74,-262V0H702V500c0,0,0,119,-46,177c0,0,-47,59,-139,59c0,0,-112,0,-176,-71c0,0,-64,-70,-64,-193V0Z" 
id="f0_e"
transform="scale(0.001,-0.001)" />

<path d="M117,-176L179,62V190H336V62L213,-176Z" 
id="f0_4"
transform="scale(0.001,-0.001)" />

<path d="M376,-20c0,0,-67,0,-140,12C236,-8,164,4,83,30V172c0,0,76,-40,150,-59c0,0,74,-20,146,-20c0,0,97,0,150,33c0,0,52,33,52,94c0,0,0,56,-38,85c0,0,-38,30,-165,58l-48,11c0,0,-128,27,-184,83c0,0,-57,55,-57,152c0,0,0,118,83,182c0,0,84,65,238,65c0,0,76,0,143,-12c0,0,67,-11,124,-33V681c0,0,-58,29,-121,44c0,0,-63,15,-130,15c0,0,-102,0,-153,-31c0,0,-51,-31,-51,-94c0,0,0,-48,37,-75c0,0,36,-27,147,-52l46,-10c0,0,147,-32,208,-89c0,0,62,-57,62,-159c0,0,0,-116,-93,-184c0,0,-92,-66,-253,-66Z" 
id="f0_9"
transform="scale(0.001,-0.001)" />

<path d="M495,-20c0,0,-189,0,-300,117C195,97,84,216,84,417c0,0,0,204,112,321c0,0,113,118,308,118c0,0,64,0,124,-14c0,0,60,-13,117,-39V675c0,0,-58,32,-117,48c0,0,-58,16,-118,16c0,0,-133,0,-207,-84c0,0,-74,-85,-74,-238c0,0,0,-153,74,-238c0,0,74,-84,207,-84c0,0,60,0,118,16c0,0,59,16,117,48V32C745,32,688,5,626,-7c0,0,-61,-13,-131,-13Z" 
id="f0_b"
transform="scale(0.001,-0.001)" />

<path d="M231,492l491,1c0,0,-2,112,-64,179c0,0,-61,67,-163,67c0,0,-115,0,-184,-65c0,0,-69,-64,-80,-182ZM517,-20c0,0,-199,0,-316,115C201,95,84,211,84,410c0,0,0,205,111,325c0,0,111,121,299,121c0,0,168,0,266,-109c0,0,98,-108,98,-295V385H227c0,0,9,-142,85,-216c0,0,77,-74,213,-74c0,0,80,0,154,19c0,0,74,19,147,58V42C826,42,752,11,675,-4c0,0,-78,-16,-158,-16Z" 
id="f0_a"
transform="scale(0.001,-0.001)" />

<path d="M421,0C421,0,263,0,202,59c0,0,-60,60,-60,217V729H41V836H142v238H280V836H562V729H280V276c0,0,0,-102,28,-132c0,0,28,-29,113,-29H562V0Z" 
id="f0_6"
transform="scale(0.001,-0.001)" />

<path d="M139,0V1161H277V706c0,0,49,75,116,112c0,0,67,38,154,38c0,0,144,0,218,-90c0,0,74,-89,74,-262V0H702V500c0,0,0,119,-46,177c0,0,-47,59,-139,59c0,0,-112,0,-176,-71c0,0,-64,-70,-64,-193V0Z" 
id="f0_7"
transform="scale(0.001,-0.001)" />

<path d="M121,-317v116h81c0,0,57,0,88,26c0,0,31,27,69,127l25,62L46,836H191L453,182L714,836H859L492,-76c0,0,-58,-150,-113,-195c0,0,-55,-46,-148,-46Z" 
id="f0_p"
transform="scale(0.001,-0.001)" />

<path d="M467,95c0,0,110,0,174,86c0,0,64,87,64,236c0,0,0,148,-64,235c0,0,-64,87,-174,87c0,0,-110,0,-174,-86c0,0,-64,-86,-64,-236c0,0,0,-150,64,-236c0,0,63,-86,174,-86Zm0,-115c0,0,-179,0,-281,115C186,95,84,212,84,417c0,0,0,206,102,322c0,0,102,117,281,117c0,0,179,0,282,-117c0,0,102,-116,102,-322c0,0,0,-205,-102,-322C749,95,646,-20,467,-20Z" 
id="f0_d"
transform="scale(0.001,-0.001)" />

<path d="M424,-20c0,0,-145,0,-219,88c0,0,-75,89,-75,262V836H267V335c0,0,0,-119,46,-178c0,0,47,-59,139,-59c0,0,112,0,177,71c0,0,64,71,64,193V836H830V0H693V128C693,128,643,52,577,15c0,0,-66,-35,-153,-35Z" 
id="f0_k"
transform="scale(0.001,-0.001)" />

<path d="M139,0V836H277V706c0,0,43,76,112,113c0,0,70,37,169,37c0,0,14,0,31,-2c0,0,17,-2,38,-6l1,-141c0,0,-23,14,-51,20c0,0,-27,6,-60,6c0,0,-116,0,-178,-75c0,0,-62,-76,-62,-218V0Z" 
id="f0_g"
transform="scale(0.001,-0.001)" />

<path d="M166,0V729H35V836H166v58c0,0,0,139,65,203c0,0,65,64,206,64H567V1046H435c0,0,-74,0,-102,-29c0,0,-29,-30,-29,-107V836H530V729H304V0Z" 
id="f0_h"
transform="scale(0.001,-0.001)" />

<path d="M139,0V836H277V706c0,0,47,77,112,113c0,0,66,37,156,37c0,0,91,0,155,-47c0,0,64,-46,94,-134c0,0,52,93,123,137c0,0,72,44,169,44c0,0,130,0,201,-92c0,0,71,-91,71,-260V0H1220V500c0,0,0,120,-42,178c0,0,-43,58,-130,58c0,0,-107,0,-169,-71c0,0,-62,-70,-62,-193V0H680V500c0,0,0,121,-43,179c0,0,-42,57,-131,57c0,0,-105,0,-167,-71c0,0,-62,-71,-62,-193V0Z" 
id="f0_u"
transform="scale(0.001,-0.001)" />

<path d="M132,763l62,237v114H351V1000L228,763Z" 
id="f0_r"
transform="scale(0.001,-0.001)" />

<path d="M144,0V1161H281V0Z" 
id="f0_o"
transform="scale(0.001,-0.001)" />

<path d="M359,0L46,836H191L453,134L714,836H859L546,0Z" 
id="f0_t"
transform="scale(0.001,-0.001)" />

<path d="M139,0V1161H277V475L686,836H861L418,445L880,0H701L277,408V0Z" 
id="f0_i"
transform="scale(0.001,-0.001)" />

<path d="M744,410L592,853L439,410ZM8,0L420,1114H763L1175,0H887L816,203H367L297,0Z" 
id="f1_n"
transform="scale(0.001,-0.001)" />

<path d="M520,172c0,0,86,0,131,63c0,0,45,63,45,182c0,0,0,119,-45,182c0,0,-45,63,-131,63c0,0,-85,0,-130,-63c0,0,-45,-63,-45,-182c0,0,0,-119,45,-182c0,0,45,-63,130,-63ZM421,-20c0,0,-154,0,-253,121C168,101,68,224,68,417c0,0,0,193,100,316c0,0,99,123,253,123c0,0,87,0,153,-35c0,0,67,-35,122,-108v448H965V0H696V121C696,121,641,47,575,13c0,0,-67,-33,-154,-33Z" 
id="f1_c"
transform="scale(0.001,-0.001)" />

<path d="M596,196c0,0,86,0,130,36c0,0,44,37,44,110c0,0,0,73,-44,109c0,0,-43,36,-130,36H427V196ZM586,683c0,0,68,0,103,29c0,0,35,30,35,88c0,0,0,58,-35,88c0,0,-35,30,-103,30H427V683ZM140,0V1114H571c0,0,232,0,336,-70c0,0,104,-71,104,-225c0,0,0,-81,-38,-138c0,0,-38,-57,-110,-85c0,0,92,-27,143,-99c0,0,51,-73,51,-178c0,0,0,-161,-109,-240C948,79,839,0,616,0Z" 
id="f1_11"
transform="scale(0.001,-0.001)" />

<path d="M463,156c0,0,75,0,127,54c0,0,51,54,51,135v30H502c0,0,-83,0,-125,-28c0,0,-43,-28,-43,-83c0,0,0,-50,34,-79c0,0,34,-29,95,-29ZM357,-20c0,0,-130,0,-211,74c0,0,-80,76,-80,197c0,0,0,147,101,215c0,0,101,69,317,69H641v21c0,0,0,63,-50,92c0,0,-49,30,-155,30c0,0,-86,0,-160,-17c0,0,-74,-18,-137,-52V813c0,0,86,21,172,32c0,0,86,11,173,11c0,0,226,0,326,-90c0,0,100,-89,100,-290V0H641V124C641,124,588,48,521,13c0,0,-68,-33,-164,-33Z" 
id="f1_a"
transform="scale(0.001,-0.001)" />

<path d="M128,0V836H395V713c0,0,60,73,128,108c0,0,68,35,150,35c0,0,145,0,220,-89c0,0,75,-89,75,-258V0H699V389c0,0,0,109,-5,150c0,0,-5,41,-16,60c0,0,-16,26,-43,41c0,0,-27,14,-61,14c0,0,-84,0,-131,-64c0,0,-48,-65,-48,-179V0Z" 
id="f1_6"
transform="scale(0.001,-0.001)" />

<path d="M128,0V1161H395V529L703,836h310L605,452L1045,0H721L395,349V0Z" 
id="f1_18"
transform="scale(0.001,-0.001)" />

<path d="M547,-20c0,0,-226,0,-354,114C193,94,66,210,66,417c0,0,0,207,127,323c0,0,128,116,354,116c0,0,66,0,129,-12c0,0,64,-11,128,-34V592c0,0,-55,37,-110,55c0,0,-54,18,-113,18c0,0,-112,0,-175,-65c0,0,-62,-66,-62,-183c0,0,0,-117,62,-183c0,0,63,-65,175,-65c0,0,62,0,119,19c0,0,56,19,104,55V24C804,24,741,1,676,-9c0,0,-64,-11,-129,-11Z" 
id="f1_f"
transform="scale(0.001,-0.001)" />

<path d="M526,169c0,0,87,0,133,64c0,0,46,64,46,184c0,0,0,120,-46,184c0,0,-46,64,-133,64c0,0,-89,0,-135,-64c0,0,-47,-64,-47,-184c0,0,0,-120,47,-184c0,0,46,-64,135,-64Zm0,-189c0,0,-217,0,-339,115C187,95,66,211,66,417c0,0,0,206,121,322c0,0,122,117,339,117c0,0,215,0,336,-117c0,0,122,-116,122,-322c0,0,0,-206,-122,-322C862,95,741,-20,526,-20Z" 
id="f1_g"
transform="scale(0.001,-0.001)" />

<path d="M415,-20c0,0,-144,0,-220,87c0,0,-76,89,-76,259V836H388V752c0,0,0,-67,-1,-170c0,0,0,-103,0,-137c0,0,0,-101,5,-145c0,0,5,-44,18,-65c0,0,16,-26,43,-40c0,0,26,-14,60,-14c0,0,84,0,132,64c0,0,47,64,47,178V836H959V0H692V121C692,121,632,48,564,13c0,0,-67,-33,-149,-33Z" 
id="f1_o"
transform="scale(0.001,-0.001)" />

<path d="M443,0C443,0,285,0,219,66c0,0,-66,66,-66,224V645H20V836H153v237H419V836H695V645H419V290c0,0,0,-58,24,-79c0,0,23,-20,91,-20H672V0Z" 
id="f1_4"
transform="scale(0.001,-0.001)" />

<path d="M179,0V190H336V0Zm0,600V790H336V600Z" 
id="f0_1e"
transform="scale(0.001,-0.001)" />

<path d="M630,-20c0,0,-253,0,-398,153C232,133,86,288,86,556c0,0,0,269,146,423c0,0,145,155,398,155c0,0,100,0,189,-26c0,0,88,-27,166,-79V869c0,0,-76,71,-163,106c0,0,-86,35,-183,35c0,0,-191,0,-292,-117C347,893,245,777,245,556c0,0,0,-220,102,-337c0,0,101,-116,292,-116c0,0,97,0,183,35c0,0,87,35,163,105V86C985,86,906,32,817,5c0,0,-88,-25,-187,-25Z" 
id="f0_1f"
transform="scale(0.001,-0.001)" />

<path d="M510,93c0,0,109,0,171,86c0,0,62,86,62,238c0,0,0,151,-62,237c0,0,-62,86,-171,86c0,0,-109,0,-171,-86c0,0,-62,-86,-62,-237c0,0,0,-152,62,-238c0,0,62,-86,171,-86ZM139,-317V836H277V709c0,0,43,74,109,110c0,0,66,37,158,37c0,0,152,0,247,-121c0,0,95,-121,95,-318c0,0,0,-197,-95,-318C791,99,696,-20,544,-20c0,0,-92,0,-158,35c0,0,-66,36,-109,110V-317Z" 
id="f0_s"
transform="scale(0.001,-0.001)" />

<path d="M680,-20c0,0,-278,0,-441,154C239,134,76,290,76,556c0,0,0,267,163,423c0,0,163,155,441,155c0,0,93,0,179,-21c0,0,86,-21,165,-62V820c0,0,-80,55,-158,81c0,0,-77,25,-163,25c0,0,-154,0,-241,-98c0,0,-88,-99,-88,-272c0,0,0,-172,87,-271c0,0,88,-98,242,-98c0,0,86,0,163,25c0,0,78,26,158,80V61C1024,61,945,20,859,0c0,0,-86,-20,-179,-20Z" 
id="f1_12"
transform="scale(0.001,-0.001)" />

<path d="M128,0V836H395V698c0,0,52,82,118,120c0,0,67,38,161,38c0,0,13,0,29,-2c0,0,15,-1,45,-4l1,-242c0,0,-35,17,-70,25c0,0,-35,7,-70,7c0,0,-103,0,-158,-66c0,0,-56,-66,-56,-189V0Z" 
id="f1_b"
transform="scale(0.001,-0.001)" />

<path d="M153,-328v175h83c0,0,68,0,99,21c0,0,31,22,48,78l8,23L19,836H286L510,269L701,836H968L617,-78c0,0,-53,-139,-124,-195c0,0,-70,-55,-186,-55Z" 
id="f1_y"
transform="scale(0.001,-0.001)" />

<path d="M163,0V190H321V0Z" 
id="f0_l"
transform="scale(0.001,-0.001)" />

<path d="M150,0V1114H300V0Z" 
id="f0_19"
transform="scale(0.001,-0.001)" />

<path d="M560,-20c0,0,-211,0,-319,110c0,0,-108,111,-108,328v696H285V437c0,0,0,-179,64,-258c0,0,65,-78,211,-78c0,0,144,0,209,78c0,0,65,79,65,258v677H986V418c0,0,0,-217,-108,-328C878,90,770,-20,560,-20Z" 
id="f0_1y"
transform="scale(0.001,-0.001)" />

<path d="M460,93c0,0,109,0,171,86c0,0,63,86,63,238c0,0,0,151,-63,237c0,0,-62,86,-171,86c0,0,-109,0,-172,-86c0,0,-62,-86,-62,-237c0,0,0,-152,62,-238c0,0,63,-86,172,-86ZM426,-20c0,0,-151,0,-247,119c0,0,-95,121,-95,318c0,0,0,197,95,318c0,0,96,121,247,121c0,0,93,0,159,-37c0,0,66,-36,109,-110v452H831V0H694V125C694,125,651,51,585,15c0,0,-66,-35,-159,-35Z" 
id="f0_f"
transform="scale(0.001,-0.001)" />

<path d="M458,-20c0,0,-79,0,-168,17c0,0,-89,17,-184,52V204c0,0,91,-51,179,-77c0,0,88,-26,173,-26c0,0,129,0,199,50c0,0,70,51,70,145c0,0,0,82,-50,129c0,0,-50,46,-165,69l-92,18c0,0,-169,34,-244,105c0,0,-75,72,-75,199c0,0,0,148,104,233c0,0,104,85,287,85c0,0,78,0,159,-14c0,0,81,-14,166,-42V931c0,0,-85,41,-161,61c0,0,-76,20,-147,20c0,0,-123,0,-190,-48c0,0,-67,-48,-67,-136c0,0,0,-73,45,-111c0,0,44,-38,168,-61l91,-19c0,0,168,-32,249,-113c0,0,80,-81,80,-216c0,0,0,-162,-109,-246c0,0,-108,-82,-318,-82Z" 
id="f0_18"
transform="scale(0.001,-0.001)" />

<path d="M510,93c0,0,109,0,171,86c0,0,62,86,62,238c0,0,0,151,-62,237c0,0,-62,86,-171,86c0,0,-109,0,-171,-86c0,0,-62,-86,-62,-237c0,0,0,-152,62,-238c0,0,62,-86,171,-86ZM544,-20c0,0,-92,0,-158,35c0,0,-66,36,-109,110V0H139V1161H277V709c0,0,43,74,109,110c0,0,66,37,158,37c0,0,152,0,247,-121c0,0,95,-121,95,-318c0,0,0,-197,-95,-318C791,99,696,-20,544,-20Z" 
id="f0_x"
transform="scale(0.001,-0.001)" />

<path d="M283,0L65,836H202L373,184L544,836H706L878,184l171,652h137L967,0H806L626,685L445,0Z" 
id="f0_n"
transform="scale(0.001,-0.001)" />

<path d="M140,0V1114H460L866,350v764h272V0H818L412,764V0Z" 
id="f1_1d"
transform="scale(0.001,-0.001)" />

<path d="M687,509c0,0,0,76,-44,122c0,0,-44,47,-116,47c0,0,-78,0,-126,-44c0,0,-49,-43,-61,-125ZM544,-20c0,0,-227,0,-353,114C191,94,66,209,66,417c0,0,0,204,123,321c0,0,123,118,340,118c0,0,197,0,315,-119c0,0,118,-118,118,-317V344H337c0,0,10,-94,68,-141c0,0,59,-47,163,-47c0,0,85,0,173,25c0,0,89,25,182,76V51C923,51,828,15,733,-2c0,0,-94,-18,-189,-18Z" 
id="f1_3"
transform="scale(0.001,-0.001)" />

<path d="M23,0L340,428L38,836H321L492,588L665,836H948L647,429L963,0H680L492,264L306,0Z" 
id="f1_16"
transform="scale(0.001,-0.001)" />

<path d="M391,0V530L-2,1114H159L468,656l307,458H937L543,530V0Z" 
id="f0_1r"
transform="scale(0.001,-0.001)" />

<path d="M542,124c0,0,121,0,180,50c0,0,58,51,58,154c0,0,0,105,-58,154c0,0,-59,50,-180,50H300V124ZM523,654c0,0,111,0,165,41c0,0,54,42,54,127c0,0,0,84,-54,126c0,0,-54,42,-165,42H300V654ZM150,0V1114H535c0,0,172,0,265,-72c0,0,94,-72,94,-204c0,0,0,-102,-48,-162c0,0,-48,-61,-140,-76c0,0,111,-23,172,-99c0,0,62,-76,62,-189c0,0,0,-149,-102,-231C838,81,737,0,550,0Z" 
id="f0_m"
transform="scale(0.001,-0.001)" />

<path d="M489,595c0,0,109,0,164,50c0,0,56,50,56,148c0,0,0,97,-56,147c0,0,-55,50,-164,50H300V595ZM150,0V1114H489c0,0,191,0,285,-80c0,0,94,-80,94,-241c0,0,0,-105,-49,-175c0,0,-49,-69,-142,-96c0,0,48,-16,94,-70c0,0,46,-54,93,-148L1017,0H855L712,285c0,0,-55,112,-107,149c0,0,-52,36,-141,36H300V0Z" 
id="f0_1i"
transform="scale(0.001,-0.001)" />

<path d="M44,0L369,437L71,836H233L455,538L677,836H839L537,429L855,0H693L449,328L206,0Z" 
id="f0_1h"
transform="scale(0.001,-0.001)" />

<path d="M150,0V1114H854V987H300V657H831V530H300V127H867V0Z" 
id="f0_1d"
transform="scale(0.001,-0.001)" />

<path d="M548,620c0,0,90,0,129,33c0,0,39,34,39,111c0,0,0,76,-39,109c0,0,-39,32,-129,32H427V620ZM140,0V1114H578c0,0,220,0,323,-74c0,0,102,-74,102,-234c0,0,0,-110,-53,-181c0,0,-54,-71,-161,-104c0,0,59,-14,106,-61c0,0,46,-47,94,-144L1145,0H839L703,277c0,0,-41,83,-83,114c0,0,-42,30,-112,30H427V0Z" 
id="f1_w"
transform="scale(0.001,-0.001)" />

<path d="M128,0V836H395V0Zm0,944v217H395V944Z" 
id="f1_5"
transform="scale(0.001,-0.001)" />

<path d="M520,194c0,0,84,0,130,61c0,0,46,61,46,172c0,0,0,112,-46,174c0,0,-46,61,-130,61c0,0,-82,0,-129,-61c0,0,-46,-62,-46,-174c0,0,0,-115,45,-174c0,0,45,-59,130,-59ZM469,-328c0,0,-78,0,-151,12c0,0,-73,12,-147,36V-71c0,0,70,-41,137,-61c0,0,67,-20,135,-20c0,0,131,0,192,58c0,0,61,57,61,178v58C696,142,641,69,575,34C575,34,508,0,421,0C421,0,268,0,168,121C168,121,68,241,68,428c0,0,0,187,100,307c0,0,100,120,253,120c0,0,87,0,154,-35c0,0,66,-34,121,-108V836H965V84c0,0,0,-200,-127,-306c0,0,-127,-106,-369,-106Z" 
id="f1_7"
transform="scale(0.001,-0.001)" />

<path d="M127,0V836H396V713c0,0,49,71,113,107c0,0,64,36,141,36c0,0,86,0,152,-42c0,0,67,-42,101,-118c0,0,51,78,121,119c0,0,69,41,153,41c0,0,144,0,219,-89c0,0,76,-89,76,-258V0H1203V436c0,0,0,9,1,20c0,0,0,10,0,30c0,0,0,88,-26,128c0,0,-26,40,-84,40c0,0,-76,0,-117,-63c0,0,-42,-62,-43,-181V0H665V436c0,0,0,138,-24,178c0,0,-24,40,-85,40c0,0,-77,0,-118,-63c0,0,-42,-63,-42,-180V0Z" 
id="f1_z"
transform="scale(0.001,-0.001)" />

<path d="M573,172c0,0,86,0,131,63c0,0,45,63,45,182c0,0,0,119,-45,182c0,0,-45,63,-131,63c0,0,-86,0,-132,-63c0,0,-46,-63,-46,-182c0,0,0,-119,46,-182c0,0,46,-63,132,-63ZM672,-20c0,0,-87,0,-155,33c0,0,-67,35,-122,108V0H128V1161H395V713c0,0,55,73,122,108c0,0,68,35,155,35c0,0,154,0,253,-123c0,0,100,-123,100,-316c0,0,0,-193,-100,-316c0,0,-99,-121,-253,-121Z" 
id="f1_13"
transform="scale(0.001,-0.001)" />


</defs>
</svg>