<?xml version="1.0" encoding="UTF-8" standalone="no"?>
<!DOCTYPE svg PUBLIC "-//W3C//DTD SVG 1.1//EN"
"http://www.w3.org/Graphics/SVG/1.1/DTD/svg11.dtd">
<svg viewBox="0 0 909 1286" version="1.1" xmlns="http://www.w3.org/2000/svg" xmlns:xlink="http://www.w3.org/1999/xlink">
<defs>
<clipPath id="c0_3"><path d="M0,1286.2V.2H909.3v1286Z" /></clipPath>
</defs>
<g clip-path="url(#c0_3)">
<g fill="#000000" >
<use xlink:href="#f0_10" transform="matrix(12,0,0,12,86.8,110.9)" />
<use xlink:href="#f0_d" transform="matrix(12,0,0,12,100.5,110.9)" />
<use xlink:href="#f0_n" transform="matrix(12,0,0,12,111.7,110.9)" />
<use xlink:href="#f0_9" transform="matrix(12,0,0,12,132.6,110.9)" />
<use xlink:href="#f0_a" transform="matrix(12,0,0,12,142.1,110.9)" />
<use xlink:href="#f0_o" transform="matrix(12,0,0,12,153.3,110.9)" />
<use xlink:href="#f0_a" transform="matrix(12,0,0,12,158.4,110.9)" />
<use xlink:href="#f0_b" transform="matrix(12,0,0,12,169.7,110.9)" />
<use xlink:href="#f0_6" transform="matrix(12,0,0,12,179.7,110.9)" />
</g>
<g fill="#0000FF" >
<use xlink:href="#f1_e" transform="matrix(12,0,0,12,193,110.9)" />
<use xlink:href="#f1_f" transform="matrix(12,0,0,12,207,110.9)" />
<use xlink:href="#f1_g" transform="matrix(12,0,0,12,217.9,110.9)" />
<use xlink:href="#f1_c" transform="matrix(12,0,0,12,230.4,110.9)" />
<use xlink:href="#f1_3" transform="matrix(12,0,0,12,243.7,110.9)" />
<use xlink:href="#f1_h" transform="matrix(12,0,0,12,256,110.9)" />
<use xlink:href="#f1_i" transform="matrix(12,0,0,12,262.8,110.9)" />
<use xlink:href="#f1_b" transform="matrix(12,0,0,12,276.2,110.9)" />
<use xlink:href="#f1_3" transform="matrix(12,0,0,12,285.2,110.9)" />
<use xlink:href="#f1_j" transform="matrix(12,0,0,12,297.6,110.9)" />
<use xlink:href="#f1_3" transform="matrix(12,0,0,12,305.7,110.9)" />
<use xlink:href="#f1_b" transform="matrix(12,0,0,12,318,110.9)" />
<use xlink:href="#f1_3" transform="matrix(12,0,0,12,327,110.9)" />
<use xlink:href="#f1_6" transform="matrix(12,0,0,12,339.6,110.9)" />
<use xlink:href="#f1_f" transform="matrix(12,0,0,12,352.5,110.9)" />
<use xlink:href="#f1_3" transform="matrix(12,0,0,12,363.4,110.9)" />
<use xlink:href="#f1_k" transform="matrix(12,0,0,12,375.9,110.9)" />
<use xlink:href="#f1_l" transform="matrix(12,0,0,12,386.7,110.9)" />
</g>
<g fill="#000000" >
<use xlink:href="#f0_13" transform="matrix(12,0,0,12,405.2,110.9)" />
<use xlink:href="#f0_d" transform="matrix(12,0,0,12,412.3,110.9)" />
<use xlink:href="#f0_g" transform="matrix(12,0,0,12,423.5,110.9)" />
</g>
<g fill="#0000FF" >
<use xlink:href="#f0_17" transform="matrix(12,0,0,12,436.9,110.9)" />
<use xlink:href="#f1_m" transform="matrix(12,0,0,12,455.3,110.9)" />
<use xlink:href="#f0_14" transform="matrix(12,0,0,12,462.3,110.9)" />
</g>
<g fill="#000000" >
<use xlink:href="#f0_8" transform="matrix(12,0,0,12,475.3,110.9)" />
<use xlink:href="#f0_e" transform="matrix(12,0,0,12,486.6,110.9)" />
<use xlink:href="#f0_f" transform="matrix(12,0,0,12,498.2,110.9)" />
<use xlink:href="#f0_b" transform="matrix(12,0,0,12,515.6,110.9)" />
<use xlink:href="#f0_7" transform="matrix(12,0,0,12,525.7,110.9)" />
<use xlink:href="#f0_d" transform="matrix(12,0,0,12,537.3,110.9)" />
<use xlink:href="#f0_d" transform="matrix(12,0,0,12,548.4,110.9)" />
<use xlink:href="#f0_9" transform="matrix(12,0,0,12,559.6,110.9)" />
<use xlink:href="#f0_a" transform="matrix(12,0,0,12,569.2,110.9)" />
<use xlink:href="#f0_6" transform="matrix(12,0,0,12,586.3,110.9)" />
<use xlink:href="#f0_7" transform="matrix(12,0,0,12,593.5,110.9)" />
<use xlink:href="#f0_a" transform="matrix(12,0,0,12,605.1,110.9)" />
</g>
<g fill="#0000FF" >
<use xlink:href="#f1_n" transform="matrix(12,0,0,12,622.3,110.9)" />
<use xlink:href="#f1_f" transform="matrix(12,0,0,12,636.5,110.9)" />
<use xlink:href="#f1_f" transform="matrix(12,0,0,12,647.3,110.9)" />
<use xlink:href="#f1_g" transform="matrix(12,0,0,12,658.2,110.9)" />
<use xlink:href="#f1_o" transform="matrix(12,0,0,12,670.8,110.9)" />
<use xlink:href="#f1_6" transform="matrix(12,0,0,12,683.8,110.9)" />
<use xlink:href="#f1_4" transform="matrix(12,0,0,12,696.9,110.9)" />
<use xlink:href="#f1_k" transform="matrix(12,0,0,12,705.6,110.9)" />
</g>
<g fill="#000000" >
<use xlink:href="#f0_c" transform="matrix(12,0,0,12,722.9,110.9)" />
<use xlink:href="#f0_b" transform="matrix(12,0,0,12,728,110.9)" />
<use xlink:href="#f0_d" transform="matrix(12,0,0,12,738.2,110.9)" />
<use xlink:href="#f0_e" transform="matrix(12,0,0,12,749.3,110.9)" />
<use xlink:href="#f0_1e" transform="matrix(12,0,0,12,760.9,110.9)" />
</g>
</g>
<image preserveAspectRatio="none" x="87" y="115" width="736" height="540" xlink:href="img/1.png" />
<defs>
<path d="M150,0V1114H353L846,182v932H992V0H789L296,932V0Z" 
id="f0_10"
transform="scale(0.001,-0.001)" />

<path d="M467,95c0,0,110,0,174,86c0,0,64,87,64,236c0,0,0,148,-64,235c0,0,-64,87,-174,87c0,0,-110,0,-174,-86c0,0,-64,-86,-64,-236c0,0,0,-150,64,-236c0,0,63,-86,174,-86Zm0,-115c0,0,-179,0,-281,115C186,95,84,212,84,417c0,0,0,206,102,322c0,0,102,117,281,117c0,0,179,0,282,-117c0,0,102,-116,102,-322c0,0,0,-205,-102,-322C749,95,646,-20,467,-20Z" 
id="f0_d"
transform="scale(0.001,-0.001)" />

<path d="M283,0L65,836H202L373,184L544,836H706L878,184l171,652h137L967,0H806L626,685L445,0Z" 
id="f0_n"
transform="scale(0.001,-0.001)" />

<path d="M376,-20c0,0,-67,0,-140,12C236,-8,164,4,83,30V172c0,0,76,-40,150,-59c0,0,74,-20,146,-20c0,0,97,0,150,33c0,0,52,33,52,94c0,0,0,56,-38,85c0,0,-38,30,-165,58l-48,11c0,0,-128,27,-184,83c0,0,-57,55,-57,152c0,0,0,118,83,182c0,0,84,65,238,65c0,0,76,0,143,-12c0,0,67,-11,124,-33V681c0,0,-58,29,-121,44c0,0,-63,15,-130,15c0,0,-102,0,-153,-31c0,0,-51,-31,-51,-94c0,0,0,-48,37,-75c0,0,36,-27,147,-52l46,-10c0,0,147,-32,208,-89c0,0,62,-57,62,-159c0,0,0,-116,-93,-184c0,0,-92,-66,-253,-66Z" 
id="f0_9"
transform="scale(0.001,-0.001)" />

<path d="M231,492l491,1c0,0,-2,112,-64,179c0,0,-61,67,-163,67c0,0,-115,0,-184,-65c0,0,-69,-64,-80,-182ZM517,-20c0,0,-199,0,-316,115C201,95,84,211,84,410c0,0,0,205,111,325c0,0,111,121,299,121c0,0,168,0,266,-109c0,0,98,-108,98,-295V385H227c0,0,9,-142,85,-216c0,0,77,-74,213,-74c0,0,80,0,154,19c0,0,74,19,147,58V42C826,42,752,11,675,-4c0,0,-78,-16,-158,-16Z" 
id="f0_a"
transform="scale(0.001,-0.001)" />

<path d="M144,0V1161H281V0Z" 
id="f0_o"
transform="scale(0.001,-0.001)" />

<path d="M495,-20c0,0,-189,0,-300,117C195,97,84,216,84,417c0,0,0,204,112,321c0,0,113,118,308,118c0,0,64,0,124,-14c0,0,60,-13,117,-39V675c0,0,-58,32,-117,48c0,0,-58,16,-118,16c0,0,-133,0,-207,-84c0,0,-74,-85,-74,-238c0,0,0,-153,74,-238c0,0,74,-84,207,-84c0,0,60,0,118,16c0,0,59,16,117,48V32C745,32,688,5,626,-7c0,0,-61,-13,-131,-13Z" 
id="f0_b"
transform="scale(0.001,-0.001)" />

<path d="M421,0C421,0,263,0,202,59c0,0,-60,60,-60,217V729H41V836H142v238H280V836H562V729H280V276c0,0,0,-102,28,-132c0,0,28,-29,113,-29H562V0Z" 
id="f0_6"
transform="scale(0.001,-0.001)" />

<path d="M29,0L416,568L44,1114H344L588,755l244,359h301L761,568L1148,0H849L588,380L330,0Z" 
id="f1_e"
transform="scale(0.001,-0.001)" />

<path d="M547,-20c0,0,-226,0,-354,114C193,94,66,210,66,417c0,0,0,207,127,323c0,0,128,116,354,116c0,0,66,0,129,-12c0,0,64,-11,128,-34V592c0,0,-55,37,-110,55c0,0,-54,18,-113,18c0,0,-112,0,-175,-65c0,0,-62,-66,-62,-183c0,0,0,-117,62,-183c0,0,63,-65,175,-65c0,0,62,0,119,19c0,0,56,19,104,55V24C804,24,741,1,676,-9c0,0,-64,-11,-129,-11Z" 
id="f1_f"
transform="scale(0.001,-0.001)" />

<path d="M526,169c0,0,87,0,133,64c0,0,46,64,46,184c0,0,0,120,-46,184c0,0,-46,64,-133,64c0,0,-89,0,-135,-64c0,0,-47,-64,-47,-184c0,0,0,-120,47,-184c0,0,46,-64,135,-64Zm0,-189c0,0,-217,0,-339,115C187,95,66,211,66,417c0,0,0,206,121,322c0,0,122,117,339,117c0,0,215,0,336,-117c0,0,122,-116,122,-322c0,0,0,-206,-122,-322C862,95,741,-20,526,-20Z" 
id="f1_g"
transform="scale(0.001,-0.001)" />

<path d="M520,172c0,0,86,0,131,63c0,0,45,63,45,182c0,0,0,119,-45,182c0,0,-45,63,-131,63c0,0,-85,0,-130,-63c0,0,-45,-63,-45,-182c0,0,0,-119,45,-182c0,0,45,-63,130,-63ZM421,-20c0,0,-154,0,-253,121C168,101,68,224,68,417c0,0,0,193,100,316c0,0,99,123,253,123c0,0,87,0,153,-35c0,0,67,-35,122,-108v448H965V0H696V121C696,121,641,47,575,13c0,0,-67,-33,-154,-33Z" 
id="f1_c"
transform="scale(0.001,-0.001)" />

<path d="M687,509c0,0,0,76,-44,122c0,0,-44,47,-116,47c0,0,-78,0,-126,-44c0,0,-49,-43,-61,-125ZM544,-20c0,0,-227,0,-353,114C191,94,66,209,66,417c0,0,0,204,123,321c0,0,123,118,340,118c0,0,197,0,315,-119c0,0,118,-118,118,-317V344H337c0,0,10,-94,68,-141c0,0,59,-47,163,-47c0,0,85,0,173,25c0,0,89,25,182,76V51C923,51,828,15,733,-2c0,0,-94,-18,-189,-18Z" 
id="f1_3"
transform="scale(0.001,-0.001)" />

<path d="M393,-141L0,1114H165L558,-141Z" 
id="f1_h"
transform="scale(0.001,-0.001)" />

<path d="M586,595c0,0,84,0,129,40c0,0,46,41,46,115c0,0,0,75,-46,115c0,0,-45,40,-129,40H427V595ZM140,0V1114H617c0,0,212,0,326,-95c0,0,114,-94,114,-269c0,0,0,-175,-114,-269c0,0,-114,-95,-326,-95H427V0Z" 
id="f1_i"
transform="scale(0.001,-0.001)" />

<path d="M128,0V836H395V698c0,0,52,82,118,120c0,0,67,38,161,38c0,0,13,0,29,-2c0,0,15,-1,45,-4l1,-242c0,0,-35,17,-70,25c0,0,-35,7,-70,7c0,0,-103,0,-158,-66c0,0,-56,-66,-56,-189V0Z" 
id="f1_b"
transform="scale(0.001,-0.001)" />

<path d="M162,0V645H29V836H162v58c0,0,0,136,76,201c0,0,76,66,236,66H679V986H531c0,0,-57,0,-79,-21c0,0,-23,-20,-23,-71V836H657V645H429V0Z" 
id="f1_j"
transform="scale(0.001,-0.001)" />

<path d="M128,0V836H395V713c0,0,60,73,128,108c0,0,68,35,150,35c0,0,145,0,220,-89c0,0,75,-89,75,-258V0H699V389c0,0,0,109,-5,150c0,0,-5,41,-16,60c0,0,-16,26,-43,41c0,0,-27,14,-61,14c0,0,-84,0,-131,-64c0,0,-48,-65,-48,-179V0Z" 
id="f1_6"
transform="scale(0.001,-0.001)" />

<path d="M445,-20c0,0,-83,0,-171,12C274,-8,185,4,92,30V234c0,0,80,-39,164,-58c0,0,84,-20,170,-20c0,0,79,0,118,22c0,0,40,22,40,64c0,0,0,36,-28,53c0,0,-27,18,-108,27l-47,6c0,0,-179,23,-250,83c0,0,-72,61,-72,184c0,0,0,132,91,196c0,0,91,65,279,65c0,0,74,0,155,-12c0,0,82,-11,177,-34V606c0,0,-86,36,-165,54c0,0,-80,18,-151,18c0,0,-76,0,-113,-19c0,0,-37,-19,-37,-59c0,0,0,-32,28,-49c0,0,28,-17,100,-25l47,-7c0,0,205,-26,276,-86c0,0,71,-59,71,-187c0,0,0,-133,-98,-200c0,0,-99,-66,-294,-66Z" 
id="f1_k"
transform="scale(0.001,-0.001)" />

<path d="M121,0V288H390V0ZM631,0V288H900V0Zm509,0V288h269V0Z" 
id="f1_l"
transform="scale(0.001,-0.001)" />

<path d="M354,-200c0,0,-112,175,-167,343c0,0,-56,170,-56,337c0,0,0,166,55,335c0,0,55,169,168,345H473c0,0,-100,-172,-148,-340c0,0,-48,-168,-48,-340c0,0,0,-173,48,-342c0,0,49,-168,148,-338Z" 
id="f0_13"
transform="scale(0.001,-0.001)" />

<path d="M139,0V836H277V706c0,0,43,76,112,113c0,0,70,37,169,37c0,0,14,0,31,-2c0,0,17,-2,38,-6l1,-141c0,0,-23,14,-51,20c0,0,-27,6,-60,6c0,0,-116,0,-178,-75c0,0,-62,-76,-62,-218V0Z" 
id="f0_g"
transform="scale(0.001,-0.001)" />

<path d="M419,111c0,0,51,0,88,37c0,0,36,36,36,87V360H419c0,0,-51,0,-88,-37c0,0,-36,-37,-36,-87c0,0,0,-52,36,-88c0,0,37,-37,88,-37Zm690,0c0,0,52,0,88,37c0,0,36,36,36,88c0,0,0,50,-36,87c0,0,-37,37,-88,37H985V235c0,0,0,-51,36,-87c0,0,37,-37,88,-37ZM874,470V691H653V470ZM543,801V926c0,0,0,51,-36,87c0,0,-37,37,-88,37c0,0,-51,0,-88,-37c0,0,-36,-36,-36,-87c0,0,0,-52,36,-88c0,0,37,-37,88,-37Zm566,0c0,0,51,0,88,37c0,0,36,36,36,88c0,0,0,51,-36,87c0,0,-36,37,-88,37c0,0,-51,0,-88,-37c0,0,-36,-36,-36,-87V801ZM419,1c0,0,-97,0,-166,68c0,0,-69,69,-69,167c0,0,0,95,69,165c0,0,69,69,163,69H543V691H416c0,0,-94,0,-163,69c0,0,-69,70,-69,166c0,0,0,97,69,165c0,0,69,69,165,69c0,0,97,0,166,-68c0,0,69,-69,69,-164V801H874V928c0,0,0,95,69,164c0,0,69,68,166,68c0,0,98,0,166,-69c0,0,69,-68,69,-165c0,0,0,-96,-69,-166c0,0,-68,-69,-163,-69H985V470h127c0,0,95,0,163,-69c0,0,69,-70,69,-165c0,0,0,-98,-69,-167c0,0,-68,-68,-166,-68c0,0,-97,0,-166,68c0,0,-69,68,-69,164V360H653V233c0,0,0,-96,-69,-164C584,69,515,1,419,1Z" 
id="f0_17"
transform="scale(0.001,-0.001)" />

<path d="M81,-216L155,61V288H424V61L241,-216Z" 
id="f1_m"
transform="scale(0.001,-0.001)" />

<path d="M122,-200c0,0,99,170,148,338c0,0,49,169,49,342c0,0,0,172,-49,340c0,0,-49,168,-148,340H241c0,0,112,-176,168,-345c0,0,55,-169,55,-335c0,0,0,-167,-55,-337c0,0,-56,-168,-168,-343Z" 
id="f0_14"
transform="scale(0.001,-0.001)" />

<path d="M408,93c0,0,115,0,184,81c0,0,69,81,69,215v30H524c0,0,-167,0,-231,-38c0,0,-64,-38,-64,-129c0,0,0,-73,48,-116c0,0,48,-43,131,-43ZM372,-20c0,0,-128,0,-204,70c0,0,-76,72,-76,193c0,0,0,141,94,212c0,0,95,72,282,72H661v13c0,0,0,95,-62,147c0,0,-63,52,-175,52c0,0,-72,0,-140,-17c0,0,-68,-17,-130,-51V798c0,0,75,29,146,43c0,0,71,15,138,15c0,0,181,0,270,-95c0,0,90,-94,90,-285V0H661V127C661,127,614,51,544,15c0,0,-70,-35,-172,-35Z" 
id="f0_8"
transform="scale(0.001,-0.001)" />

<path d="M139,0V836H277V706c0,0,49,75,116,112c0,0,67,38,154,38c0,0,144,0,218,-90c0,0,74,-89,74,-262V0H702V500c0,0,0,119,-46,177c0,0,-47,59,-139,59c0,0,-112,0,-176,-71c0,0,-64,-70,-64,-193V0Z" 
id="f0_e"
transform="scale(0.001,-0.001)" />

<path d="M460,93c0,0,109,0,171,86c0,0,63,86,63,238c0,0,0,151,-63,237c0,0,-62,86,-171,86c0,0,-109,0,-172,-86c0,0,-62,-86,-62,-237c0,0,0,-152,62,-238c0,0,63,-86,172,-86ZM426,-20c0,0,-151,0,-247,119c0,0,-95,121,-95,318c0,0,0,197,95,318c0,0,96,121,247,121c0,0,93,0,159,-37c0,0,66,-36,109,-110v452H831V0H694V125C694,125,651,51,585,15c0,0,-66,-35,-159,-35Z" 
id="f0_f"
transform="scale(0.001,-0.001)" />

<path d="M139,0V1161H277V706c0,0,49,75,116,112c0,0,67,38,154,38c0,0,144,0,218,-90c0,0,74,-89,74,-262V0H702V500c0,0,0,119,-46,177c0,0,-47,59,-139,59c0,0,-112,0,-176,-71c0,0,-64,-70,-64,-193V0Z" 
id="f0_7"
transform="scale(0.001,-0.001)" />

<path d="M744,410L592,853L439,410ZM8,0L420,1114H763L1175,0H887L816,203H367L297,0Z" 
id="f1_n"
transform="scale(0.001,-0.001)" />

<path d="M415,-20c0,0,-144,0,-220,87c0,0,-76,89,-76,259V836H388V752c0,0,0,-67,-1,-170c0,0,0,-103,0,-137c0,0,0,-101,5,-145c0,0,5,-44,18,-65c0,0,16,-26,43,-40c0,0,26,-14,60,-14c0,0,84,0,132,64c0,0,47,64,47,178V836H959V0H692V121C692,121,632,48,564,13c0,0,-67,-33,-149,-33Z" 
id="f1_o"
transform="scale(0.001,-0.001)" />

<path d="M443,0C443,0,285,0,219,66c0,0,-66,66,-66,224V645H20V836H153v237H419V836H695V645H419V290c0,0,0,-58,24,-79c0,0,23,-20,91,-20H672V0Z" 
id="f1_4"
transform="scale(0.001,-0.001)" />

<path d="M144,0V836H281V0Zm0,987v174H281V987Z" 
id="f0_c"
transform="scale(0.001,-0.001)" />

<path d="M179,0V190H336V0Zm0,600V790H336V600Z" 
id="f0_1e"
transform="scale(0.001,-0.001)" />


</defs>
</svg>