<?xml version="1.0" encoding="UTF-8" standalone="no"?>
<!DOCTYPE svg PUBLIC "-//W3C//DTD SVG 1.1//EN"
"http://www.w3.org/Graphics/SVG/1.1/DTD/svg11.dtd">
<svg viewBox="0 0 909 1286" version="1.1" xmlns="http://www.w3.org/2000/svg" xmlns:xlink="http://www.w3.org/1999/xlink">
<defs>
<clipPath id="c0_5"><path d="M0,1286.2V.2H909.3v1286Z" /></clipPath>
</defs>
<g clip-path="url(#c0_5)">
<g fill="#000000" >
<use xlink:href="#f0_2" transform="matrix(12,0,0,12,86.8,611.7)" />
<use xlink:href="#f0_3" transform="matrix(12,0,0,12,97.9,611.7)" />
<use xlink:href="#f0_4" transform="matrix(12,0,0,12,109.5,611.7)" />
<use xlink:href="#f0_h" transform="matrix(12,0,0,12,126.8,611.7)" />
<use xlink:href="#f0_4" transform="matrix(12,0,0,12,138.4,611.7)" />
<use xlink:href="#f0_14" transform="matrix(12,0,0,12,149.4,611.7)" />
<use xlink:href="#f0_a" transform="matrix(12,0,0,12,160.2,611.7)" />
<use xlink:href="#f0_b" transform="matrix(12,0,0,12,173.2,611.7)" />
<use xlink:href="#f0_g" transform="matrix(12,0,0,12,184.7,611.7)" />
<use xlink:href="#f0_f" transform="matrix(12,0,0,12,196,611.7)" />
<use xlink:href="#f0_4" transform="matrix(12,0,0,12,207.6,611.7)" />
<use xlink:href="#f0_7" transform="matrix(12,0,0,12,224.8,611.7)" />
<use xlink:href="#f0_9" transform="matrix(12,0,0,12,229.7,611.7)" />
<use xlink:href="#f0_a" transform="matrix(12,0,0,12,245.3,611.7)" />
<use xlink:href="#f0_3" transform="matrix(12,0,0,12,252.4,611.7)" />
<use xlink:href="#f0_4" transform="matrix(12,0,0,12,264,611.7)" />
<use xlink:href="#f0_i" transform="matrix(12,0,0,12,281.1,611.7)" />
<use xlink:href="#f0_4" transform="matrix(12,0,0,12,286.2,611.7)" />
<use xlink:href="#f0_f" transform="matrix(12,0,0,12,297.5,611.7)" />
<use xlink:href="#f0_g" transform="matrix(12,0,0,12,309.1,611.7)" />
<use xlink:href="#f0_i" transform="matrix(12,0,0,12,320.4,611.7)" />
<use xlink:href="#f0_g" transform="matrix(12,0,0,12,331.2,611.7)" />
<use xlink:href="#f0_f" transform="matrix(12,0,0,12,342.5,611.7)" />
<use xlink:href="#f0_8" transform="matrix(12,0,0,12,354.1,611.7)" />
<use xlink:href="#f0_4" transform="matrix(12,0,0,12,361.2,611.7)" />
<use xlink:href="#f0_4" transform="matrix(12,0,0,12,372.4,611.7)" />
<use xlink:href="#f0_p" transform="matrix(12,0,0,12,383.7,611.7)" />
<use xlink:href="#f0_4" transform="matrix(12,0,0,12,401.6,611.7)" />
<use xlink:href="#f0_h" transform="matrix(12,0,0,12,412.9,611.7)" />
<use xlink:href="#f0_a" transform="matrix(12,0,0,12,424.5,611.7)" />
<use xlink:href="#f0_l" transform="matrix(12,0,0,12,431.7,611.7)" />
<use xlink:href="#f0_d" transform="matrix(12,0,0,12,443.3,611.7)" />
<use xlink:href="#f0_f" transform="matrix(12,0,0,12,455.8,611.7)" />
<use xlink:href="#f0_8" transform="matrix(12,0,0,12,467.6,611.7)" />
<use xlink:href="#f0_4" transform="matrix(12,0,0,12,474.6,611.7)" />
<use xlink:href="#f0_4" transform="matrix(12,0,0,12,485.9,611.7)" />
<use xlink:href="#f0_c" transform="matrix(12,0,0,12,503,611.7)" />
<use xlink:href="#f0_h" transform="matrix(12,0,0,12,514.1,611.7)" />
<use xlink:href="#f0_o" transform="matrix(12,0,0,12,531.7,611.7)" />
<use xlink:href="#f0_c" transform="matrix(12,0,0,12,541.8,611.7)" />
<use xlink:href="#f0_h" transform="matrix(12,0,0,12,552.9,611.7)" />
<use xlink:href="#f0_j" transform="matrix(12,0,0,12,564.5,611.7)" />
<use xlink:href="#f0_7" transform="matrix(12,0,0,12,576.1,611.7)" />
<use xlink:href="#f0_a" transform="matrix(12,0,0,12,581.2,611.7)" />
<use xlink:href="#f0_7" transform="matrix(12,0,0,12,588.5,611.7)" />
<use xlink:href="#f0_c" transform="matrix(12,0,0,12,593.5,611.7)" />
<use xlink:href="#f0_h" transform="matrix(12,0,0,12,604.7,611.7)" />
<use xlink:href="#f0_9" transform="matrix(12,0,0,12,616.3,611.7)" />
<use xlink:href="#f0_a" transform="matrix(12,0,0,12,631.7,611.7)" />
<use xlink:href="#f0_3" transform="matrix(12,0,0,12,638.9,611.7)" />
<use xlink:href="#f0_g" transform="matrix(12,0,0,12,650.5,611.7)" />
<use xlink:href="#f0_h" transform="matrix(12,0,0,12,661.8,611.7)" />
<use xlink:href="#f0_o" transform="matrix(12,0,0,12,679.2,611.7)" />
<use xlink:href="#f0_i" transform="matrix(12,0,0,12,689.3,611.7)" />
<use xlink:href="#f0_7" transform="matrix(12,0,0,12,694.3,611.7)" />
<use xlink:href="#f0_o" transform="matrix(12,0,0,12,699.3,611.7)" />
<use xlink:href="#f0_10" transform="matrix(12,0,0,12,709.4,611.7)" />
</g>
<g fill="#0000FF" >
<use xlink:href="#f1_9" transform="matrix(12,0,0,12,726.5,611.7)" />
<use xlink:href="#f1_g" transform="matrix(12,0,0,12,739.6,611.7)" />
<use xlink:href="#f1_q" transform="matrix(12,0,0,12,752.6,611.7)" />
<use xlink:href="#f1_r" transform="matrix(12,0,0,12,765.7,611.7)" />
<use xlink:href="#f1_5" transform="matrix(12,0,0,12,784.8,611.7)" />
<use xlink:href="#f1_4" transform="matrix(12,0,0,12,791.2,611.7)" />
</g>
<g fill="#000000" >
<use xlink:href="#f0_12" transform="matrix(12,0,0,12,799.9,611.7)" />
</g>
</g>
<image preserveAspectRatio="none" x="123" y="87" width="654" height="479" xlink:href="img/1.png" />
<image preserveAspectRatio="none" x="87" y="673" width="736" height="507" xlink:href="img/2.png" />
<defs>
<path d="M391,0V987H-3v127H938V987H543V0Z" 
id="f0_2"
transform="scale(0.001,-0.001)" />

<path d="M139,0V1161H277V706c0,0,49,75,116,112c0,0,67,38,154,38c0,0,144,0,218,-90c0,0,74,-89,74,-262V0H702V500c0,0,0,119,-46,177c0,0,-47,59,-139,59c0,0,-112,0,-176,-71c0,0,-64,-70,-64,-193V0Z" 
id="f0_3"
transform="scale(0.001,-0.001)" />

<path d="M231,492l491,1c0,0,-2,112,-64,179c0,0,-61,67,-163,67c0,0,-115,0,-184,-65c0,0,-69,-64,-80,-182ZM517,-20c0,0,-199,0,-316,115C201,95,84,211,84,410c0,0,0,205,111,325c0,0,111,121,299,121c0,0,168,0,266,-109c0,0,98,-108,98,-295V385H227c0,0,9,-142,85,-216c0,0,77,-74,213,-74c0,0,80,0,154,19c0,0,74,19,147,58V42C826,42,752,11,675,-4c0,0,-78,-16,-158,-16Z" 
id="f0_4"
transform="scale(0.001,-0.001)" />

<path d="M139,0V836H277V706c0,0,49,75,116,112c0,0,67,38,154,38c0,0,144,0,218,-90c0,0,74,-89,74,-262V0H702V500c0,0,0,119,-46,177c0,0,-47,59,-139,59c0,0,-112,0,-176,-71c0,0,-64,-70,-64,-193V0Z" 
id="f0_h"
transform="scale(0.001,-0.001)" />

<path d="M44,0L369,437L71,836H233L455,538L677,836H839L537,429L855,0H693L449,328L206,0Z" 
id="f0_14"
transform="scale(0.001,-0.001)" />

<path d="M421,0C421,0,263,0,202,59c0,0,-60,60,-60,217V729H41V836H142v238H280V836H562V729H280V276c0,0,0,-102,28,-132c0,0,28,-29,113,-29H562V0Z" 
id="f0_a"
transform="scale(0.001,-0.001)" />

<path d="M510,93c0,0,109,0,171,86c0,0,62,86,62,238c0,0,0,151,-62,237c0,0,-62,86,-171,86c0,0,-109,0,-171,-86c0,0,-62,-86,-62,-237c0,0,0,-152,62,-238c0,0,62,-86,171,-86ZM139,-317V836H277V709c0,0,43,74,109,110c0,0,66,37,158,37c0,0,152,0,247,-121c0,0,95,-121,95,-318c0,0,0,-197,-95,-318C791,99,696,-20,544,-20c0,0,-92,0,-158,35c0,0,-66,36,-109,110V-317Z" 
id="f0_b"
transform="scale(0.001,-0.001)" />

<path d="M408,93c0,0,115,0,184,81c0,0,69,81,69,215v30H524c0,0,-167,0,-231,-38c0,0,-64,-38,-64,-129c0,0,0,-73,48,-116c0,0,48,-43,131,-43ZM372,-20c0,0,-128,0,-204,70c0,0,-76,72,-76,193c0,0,0,141,94,212c0,0,95,72,282,72H661v13c0,0,0,95,-62,147c0,0,-63,52,-175,52c0,0,-72,0,-140,-17c0,0,-68,-17,-130,-51V798c0,0,75,29,146,43c0,0,71,15,138,15c0,0,181,0,270,-95c0,0,90,-94,90,-285V0H661V127C661,127,614,51,544,15c0,0,-70,-35,-172,-35Z" 
id="f0_g"
transform="scale(0.001,-0.001)" />

<path d="M460,115c0,0,111,0,173,82c0,0,61,82,61,230c0,0,0,149,-61,231c0,0,-62,82,-173,82c0,0,-111,0,-173,-82c0,0,-61,-82,-61,-231c0,0,0,-148,61,-230c0,0,62,-82,173,-82ZM446,-317c0,0,-72,0,-137,11c0,0,-64,11,-124,33v134c0,0,60,-33,119,-49c0,0,59,-15,121,-15c0,0,135,0,202,70c0,0,67,71,67,212v68C694,147,652,73,585,36C585,36,519,0,426,0C426,0,272,0,178,117c0,0,-94,117,-94,310c0,0,0,194,94,311c0,0,94,118,248,118c0,0,93,0,159,-37c0,0,67,-36,109,-110V836H831V104c0,0,0,-212,-95,-317c0,0,-94,-104,-290,-104Z" 
id="f0_f"
transform="scale(0.001,-0.001)" />

<path d="M144,0V836H281V0Zm0,987v174H281V987Z" 
id="f0_7"
transform="scale(0.001,-0.001)" />

<path d="M376,-20c0,0,-67,0,-140,12C236,-8,164,4,83,30V172c0,0,76,-40,150,-59c0,0,74,-20,146,-20c0,0,97,0,150,33c0,0,52,33,52,94c0,0,0,56,-38,85c0,0,-38,30,-165,58l-48,11c0,0,-128,27,-184,83c0,0,-57,55,-57,152c0,0,0,118,83,182c0,0,84,65,238,65c0,0,76,0,143,-12c0,0,67,-11,124,-33V681c0,0,-58,29,-121,44c0,0,-63,15,-130,15c0,0,-102,0,-153,-31c0,0,-51,-31,-51,-94c0,0,0,-48,37,-75c0,0,36,-27,147,-52l46,-10c0,0,147,-32,208,-89c0,0,62,-57,62,-159c0,0,0,-116,-93,-184c0,0,-92,-66,-253,-66Z" 
id="f0_9"
transform="scale(0.001,-0.001)" />

<path d="M144,0V1161H281V0Z" 
id="f0_i"
transform="scale(0.001,-0.001)" />

<path d="M139,0V836H277V706c0,0,43,76,112,113c0,0,70,37,169,37c0,0,14,0,31,-2c0,0,17,-2,38,-6l1,-141c0,0,-23,14,-51,20c0,0,-27,6,-60,6c0,0,-116,0,-178,-75c0,0,-62,-76,-62,-218V0Z" 
id="f0_8"
transform="scale(0.001,-0.001)" />

<path d="M139,0V836H277V706c0,0,47,77,112,113c0,0,66,37,156,37c0,0,91,0,155,-47c0,0,64,-46,94,-134c0,0,52,93,123,137c0,0,72,44,169,44c0,0,130,0,201,-92c0,0,71,-91,71,-260V0H1220V500c0,0,0,120,-42,178c0,0,-43,58,-130,58c0,0,-107,0,-169,-71c0,0,-62,-70,-62,-193V0H680V500c0,0,0,121,-43,179c0,0,-42,57,-131,57c0,0,-105,0,-167,-71c0,0,-62,-71,-62,-193V0Z" 
id="f0_p"
transform="scale(0.001,-0.001)" />

<path d="M163,0V190H321V0Z" 
id="f0_l"
transform="scale(0.001,-0.001)" />

<path d="M727,411L522,965L318,411ZM12,0L437,1114H608L1033,0H876L774,286H272L171,0Z" 
id="f0_d"
transform="scale(0.001,-0.001)" />

<path d="M467,95c0,0,110,0,174,86c0,0,64,87,64,236c0,0,0,148,-64,235c0,0,-64,87,-174,87c0,0,-110,0,-174,-86c0,0,-64,-86,-64,-236c0,0,0,-150,64,-236c0,0,63,-86,174,-86Zm0,-115c0,0,-179,0,-281,115C186,95,84,212,84,417c0,0,0,206,102,322c0,0,102,117,281,117c0,0,179,0,282,-117c0,0,102,-116,102,-322c0,0,0,-205,-102,-322C749,95,646,-20,467,-20Z" 
id="f0_c"
transform="scale(0.001,-0.001)" />

<path d="M495,-20c0,0,-189,0,-300,117C195,97,84,216,84,417c0,0,0,204,112,321c0,0,113,118,308,118c0,0,64,0,124,-14c0,0,60,-13,117,-39V675c0,0,-58,32,-117,48c0,0,-58,16,-118,16c0,0,-133,0,-207,-84c0,0,-74,-85,-74,-238c0,0,0,-153,74,-238c0,0,74,-84,207,-84c0,0,60,0,118,16c0,0,59,16,117,48V32C745,32,688,5,626,-7c0,0,-61,-13,-131,-13Z" 
id="f0_o"
transform="scale(0.001,-0.001)" />

<path d="M460,93c0,0,109,0,171,86c0,0,63,86,63,238c0,0,0,151,-63,237c0,0,-62,86,-171,86c0,0,-109,0,-172,-86c0,0,-62,-86,-62,-237c0,0,0,-152,62,-238c0,0,63,-86,172,-86ZM426,-20c0,0,-151,0,-247,119c0,0,-95,121,-95,318c0,0,0,197,95,318c0,0,96,121,247,121c0,0,93,0,159,-37c0,0,66,-36,109,-110v452H831V0H694V125C694,125,651,51,585,15c0,0,-66,-35,-159,-35Z" 
id="f0_j"
transform="scale(0.001,-0.001)" />

<path d="M139,0V1161H277V475L686,836H861L418,445L880,0H701L277,408V0Z" 
id="f0_10"
transform="scale(0.001,-0.001)" />

<path d="M545,-20c0,0,-106,0,-212,20C333,0,226,19,119,58V301c0,0,107,-57,207,-85c0,0,99,-29,192,-29c0,0,94,0,144,31c0,0,50,31,50,90c0,0,0,52,-34,80c0,0,-34,29,-136,51L431,464c0,0,-167,35,-244,114c0,0,-77,78,-77,211c0,0,0,166,107,256c0,0,107,89,309,89c0,0,92,0,189,-14c0,0,97,-13,200,-41V843c0,0,-92,41,-179,62c0,0,-87,21,-165,21c0,0,-103,0,-152,-28c0,0,-49,-29,-49,-88c0,0,0,-45,33,-70c0,0,33,-25,121,-43L646,672c0,0,186,-37,264,-113c0,0,79,-76,79,-216c0,0,0,-185,-110,-275c0,0,-109,-88,-334,-88Z" 
id="f1_9"
transform="scale(0.001,-0.001)" />

<path d="M415,-20c0,0,-144,0,-220,87c0,0,-76,89,-76,259V836H388V752c0,0,0,-67,-1,-170c0,0,0,-103,0,-137c0,0,0,-101,5,-145c0,0,5,-44,18,-65c0,0,16,-26,43,-40c0,0,26,-14,60,-14c0,0,84,0,132,64c0,0,47,64,47,178V836H959V0H692V121C692,121,632,48,564,13c0,0,-67,-33,-149,-33Z" 
id="f1_g"
transform="scale(0.001,-0.001)" />

<path d="M573,172c0,0,86,0,131,63c0,0,45,63,45,182c0,0,0,119,-45,182c0,0,-45,63,-131,63c0,0,-86,0,-132,-63c0,0,-46,-63,-46,-182c0,0,0,-119,46,-182c0,0,46,-63,132,-63ZM672,-20c0,0,-87,0,-155,33c0,0,-67,35,-122,108V0H128V1161H395V713c0,0,55,73,122,108c0,0,68,35,155,35c0,0,154,0,253,-123c0,0,100,-123,100,-316c0,0,0,-193,-100,-316c0,0,-99,-121,-253,-121Z" 
id="f1_q"
transform="scale(0.001,-0.001)" />

<path d="M127,0V836H396V713c0,0,49,71,113,107c0,0,64,36,141,36c0,0,86,0,152,-42c0,0,67,-42,101,-118c0,0,51,78,121,119c0,0,69,41,153,41c0,0,144,0,219,-89c0,0,76,-89,76,-258V0H1203V436c0,0,0,9,1,20c0,0,0,10,0,30c0,0,0,88,-26,128c0,0,-26,40,-84,40c0,0,-76,0,-117,-63c0,0,-42,-62,-43,-181V0H665V436c0,0,0,138,-24,178c0,0,-24,40,-85,40c0,0,-77,0,-118,-63c0,0,-42,-63,-42,-180V0Z" 
id="f1_r"
transform="scale(0.001,-0.001)" />

<path d="M128,0V836H395V0Zm0,944v217H395V944Z" 
id="f1_5"
transform="scale(0.001,-0.001)" />

<path d="M443,0C443,0,285,0,219,66c0,0,-66,66,-66,224V645H20V836H153v237H419V836H695V645H419V290c0,0,0,-58,24,-79c0,0,23,-20,91,-20H672V0Z" 
id="f1_4"
transform="scale(0.001,-0.001)" />

<path d="M179,0V190H336V0Zm0,600V790H336V600Z" 
id="f0_12"
transform="scale(0.001,-0.001)" />


</defs>
</svg>