<?xml version="1.0" encoding="UTF-8" standalone="no"?>
<!DOCTYPE svg PUBLIC "-//W3C//DTD SVG 1.1//EN"
"http://www.w3.org/Graphics/SVG/1.1/DTD/svg11.dtd">
<svg viewBox="0 0 909 1286" version="1.1" xmlns="http://www.w3.org/2000/svg" xmlns:xlink="http://www.w3.org/1999/xlink">
<defs>
<clipPath id="c0_16"><path d="M0,1286.2V.2H909.3v1286Z" /></clipPath>
</defs>
<g clip-path="url(#c0_16)">
<g fill="#000000" >
<use xlink:href="#f0_e" transform="matrix(12,0,0,12,86.8,574.8)" />
<use xlink:href="#f0_3" transform="matrix(12,0,0,12,98.4,574.8)" />
<use xlink:href="#f0_c" transform="matrix(12,0,0,12,110,574.8)" />
<use xlink:href="#f0_8" transform="matrix(12,0,0,12,121.3,574.8)" />
<use xlink:href="#f0_a" transform="matrix(12,0,0,12,128.8,574.8)" />
<use xlink:href="#f0_i" transform="matrix(12,0,0,12,135.9,574.8)" />
<use xlink:href="#f0_t" transform="matrix(12,0,0,12,141,574.8)" />
<use xlink:href="#f0_g" transform="matrix(12,0,0,12,157.8,574.8)" />
<use xlink:href="#f0_6" transform="matrix(12,0,0,12,169.1,574.8)" />
<use xlink:href="#f0_a" transform="matrix(12,0,0,12,175.2,574.8)" />
<use xlink:href="#f0_4" transform="matrix(12,0,0,12,182.2,574.8)" />
<use xlink:href="#f0_8" transform="matrix(12,0,0,12,193.5,574.8)" />
<use xlink:href="#f0_y" transform="matrix(12,0,0,12,201,574.8)" />
<use xlink:href="#f0_g" transform="matrix(12,0,0,12,216,574.8)" />
<use xlink:href="#f0_8" transform="matrix(12,0,0,12,227.2,574.8)" />
<use xlink:href="#f0_j" transform="matrix(12,0,0,12,234.4,574.8)" />
<use xlink:href="#f0_9" transform="matrix(12,0,0,12,246,574.8)" />
<use xlink:href="#f0_t" transform="matrix(12,0,0,12,261.6,574.8)" />
<use xlink:href="#f0_c" transform="matrix(12,0,0,12,272.4,574.8)" />
<use xlink:href="#f0_r" transform="matrix(12,0,0,12,283.6,574.8)" />
<use xlink:href="#f0_y" transform="matrix(12,0,0,12,301,574.8)" />
<use xlink:href="#f0_7" transform="matrix(12,0,0,12,316,574.8)" />
<use xlink:href="#f0_i" transform="matrix(12,0,0,12,321.1,574.8)" />
<use xlink:href="#f0_i" transform="matrix(12,0,0,12,326.2,574.8)" />
<use xlink:href="#f0_n" transform="matrix(12,0,0,12,337.2,574.8)" />
<use xlink:href="#f0_4" transform="matrix(12,0,0,12,348.8,574.8)" />
<use xlink:href="#f0_f" transform="matrix(12,0,0,12,365.9,574.8)" />
<use xlink:href="#f0_8" transform="matrix(12,0,0,12,377.5,574.8)" />
<use xlink:href="#f0_4" transform="matrix(12,0,0,12,384.5,574.8)" />
<use xlink:href="#f0_4" transform="matrix(12,0,0,12,395.8,574.8)" />
<use xlink:href="#f0_a" transform="matrix(12,0,0,12,407.1,574.8)" />
<use xlink:href="#f0_4" transform="matrix(12,0,0,12,414.3,574.8)" />
<use xlink:href="#f0_j" transform="matrix(12,0,0,12,425.6,574.8)" />
<use xlink:href="#f0_n" transform="matrix(12,0,0,12,443,574.8)" />
<use xlink:href="#f0_t" transform="matrix(12,0,0,12,454.6,574.8)" />
<use xlink:href="#f0_g" transform="matrix(12,0,0,12,471.4,574.8)" />
<use xlink:href="#f0_a" transform="matrix(12,0,0,12,488.3,574.8)" />
<use xlink:href="#f0_3" transform="matrix(12,0,0,12,495.5,574.8)" />
<use xlink:href="#f0_g" transform="matrix(12,0,0,12,507.1,574.8)" />
<use xlink:href="#f0_h" transform="matrix(12,0,0,12,518.4,574.8)" />
<use xlink:href="#f0_10" transform="matrix(12,0,0,12,530,574.8)" />
<use xlink:href="#f0_t" transform="matrix(12,0,0,12,546.5,574.8)" />
<use xlink:href="#f0_c" transform="matrix(12,0,0,12,557.3,574.8)" />
<use xlink:href="#f0_r" transform="matrix(12,0,0,12,568.5,574.8)" />
<use xlink:href="#f0_9" transform="matrix(12,0,0,12,586,574.8)" />
<use xlink:href="#f0_o" transform="matrix(12,0,0,12,595.5,574.8)" />
<use xlink:href="#f0_8" transform="matrix(12,0,0,12,605.6,574.8)" />
<use xlink:href="#f0_4" transform="matrix(12,0,0,12,612.6,574.8)" />
<use xlink:href="#f0_4" transform="matrix(12,0,0,12,623.9,574.8)" />
<use xlink:href="#f0_h" transform="matrix(12,0,0,12,635.2,574.8)" />
<use xlink:href="#f0_12" transform="matrix(12,0,0,12,646.8,574.8)" />
</g>
</g>
<image preserveAspectRatio="none" x="87" y="87" width="736" height="442" xlink:href="img/1.png" />
<image preserveAspectRatio="none" x="115" y="579" width="679" height="573" xlink:href="img/2.png" />
<defs>
<path d="M458,-20c0,0,-79,0,-168,17c0,0,-89,17,-184,52V204c0,0,91,-51,179,-77c0,0,88,-26,173,-26c0,0,129,0,199,50c0,0,70,51,70,145c0,0,0,82,-50,129c0,0,-50,46,-165,69l-92,18c0,0,-169,34,-244,105c0,0,-75,72,-75,199c0,0,0,148,104,233c0,0,104,85,287,85c0,0,78,0,159,-14c0,0,81,-14,166,-42V931c0,0,-85,41,-161,61c0,0,-76,20,-147,20c0,0,-123,0,-190,-48c0,0,-67,-48,-67,-136c0,0,0,-73,45,-111c0,0,44,-38,168,-61l91,-19c0,0,168,-32,249,-113c0,0,80,-81,80,-216c0,0,0,-162,-109,-246c0,0,-108,-82,-318,-82Z" 
id="f0_e"
transform="scale(0.001,-0.001)" />

<path d="M139,0V1161H277V706c0,0,49,75,116,112c0,0,67,38,154,38c0,0,144,0,218,-90c0,0,74,-89,74,-262V0H702V500c0,0,0,119,-46,177c0,0,-47,59,-139,59c0,0,-112,0,-176,-71c0,0,-64,-70,-64,-193V0Z" 
id="f0_3"
transform="scale(0.001,-0.001)" />

<path d="M467,95c0,0,110,0,174,86c0,0,64,87,64,236c0,0,0,148,-64,235c0,0,-64,87,-174,87c0,0,-110,0,-174,-86c0,0,-64,-86,-64,-236c0,0,0,-150,64,-236c0,0,63,-86,174,-86Zm0,-115c0,0,-179,0,-281,115C186,95,84,212,84,417c0,0,0,206,102,322c0,0,102,117,281,117c0,0,179,0,282,-117c0,0,102,-116,102,-322c0,0,0,-205,-102,-322C749,95,646,-20,467,-20Z" 
id="f0_c"
transform="scale(0.001,-0.001)" />

<path d="M139,0V836H277V706c0,0,43,76,112,113c0,0,70,37,169,37c0,0,14,0,31,-2c0,0,17,-2,38,-6l1,-141c0,0,-23,14,-51,20c0,0,-27,6,-60,6c0,0,-116,0,-178,-75c0,0,-62,-76,-62,-218V0Z" 
id="f0_8"
transform="scale(0.001,-0.001)" />

<path d="M421,0C421,0,263,0,202,59c0,0,-60,60,-60,217V729H41V836H142v238H280V836H562V729H280V276c0,0,0,-102,28,-132c0,0,28,-29,113,-29H562V0Z" 
id="f0_a"
transform="scale(0.001,-0.001)" />

<path d="M144,0V1161H281V0Z" 
id="f0_i"
transform="scale(0.001,-0.001)" />

<path d="M121,-317v116h81c0,0,57,0,88,26c0,0,31,27,69,127l25,62L46,836H191L453,182L714,836H859L492,-76c0,0,-58,-150,-113,-195c0,0,-55,-46,-148,-46Z" 
id="f0_t"
transform="scale(0.001,-0.001)" />

<path d="M408,93c0,0,115,0,184,81c0,0,69,81,69,215v30H524c0,0,-167,0,-231,-38c0,0,-64,-38,-64,-129c0,0,0,-73,48,-116c0,0,48,-43,131,-43ZM372,-20c0,0,-128,0,-204,70c0,0,-76,72,-76,193c0,0,0,141,94,212c0,0,95,72,282,72H661v13c0,0,0,95,-62,147c0,0,-63,52,-175,52c0,0,-72,0,-140,-17c0,0,-68,-17,-130,-51V798c0,0,75,29,146,43c0,0,71,15,138,15c0,0,181,0,270,-95c0,0,90,-94,90,-285V0H661V127C661,127,614,51,544,15c0,0,-70,-35,-172,-35Z" 
id="f0_g"
transform="scale(0.001,-0.001)" />

<path d="M166,0V729H35V836H166v58c0,0,0,139,65,203c0,0,65,64,206,64H567V1046H435c0,0,-74,0,-102,-29c0,0,-29,-30,-29,-107V836H530V729H304V0Z" 
id="f0_6"
transform="scale(0.001,-0.001)" />

<path d="M231,492l491,1c0,0,-2,112,-64,179c0,0,-61,67,-163,67c0,0,-115,0,-184,-65c0,0,-69,-64,-80,-182ZM517,-20c0,0,-199,0,-316,115C201,95,84,211,84,410c0,0,0,205,111,325c0,0,111,121,299,121c0,0,168,0,266,-109c0,0,98,-108,98,-295V385H227c0,0,9,-142,85,-216c0,0,77,-74,213,-74c0,0,80,0,154,19c0,0,74,19,147,58V42C826,42,752,11,675,-4c0,0,-78,-16,-158,-16Z" 
id="f0_4"
transform="scale(0.001,-0.001)" />

<path d="M283,0L65,836H202L373,184L544,836H706L878,184l171,652h137L967,0H806L626,685L445,0Z" 
id="f0_y"
transform="scale(0.001,-0.001)" />

<path d="M460,93c0,0,109,0,171,86c0,0,63,86,63,238c0,0,0,151,-63,237c0,0,-62,86,-171,86c0,0,-109,0,-172,-86c0,0,-62,-86,-62,-237c0,0,0,-152,62,-238c0,0,63,-86,172,-86ZM426,-20c0,0,-151,0,-247,119c0,0,-95,121,-95,318c0,0,0,197,95,318c0,0,96,121,247,121c0,0,93,0,159,-37c0,0,66,-36,109,-110v452H831V0H694V125C694,125,651,51,585,15c0,0,-66,-35,-159,-35Z" 
id="f0_j"
transform="scale(0.001,-0.001)" />

<path d="M376,-20c0,0,-67,0,-140,12C236,-8,164,4,83,30V172c0,0,76,-40,150,-59c0,0,74,-20,146,-20c0,0,97,0,150,33c0,0,52,33,52,94c0,0,0,56,-38,85c0,0,-38,30,-165,58l-48,11c0,0,-128,27,-184,83c0,0,-57,55,-57,152c0,0,0,118,83,182c0,0,84,65,238,65c0,0,76,0,143,-12c0,0,67,-11,124,-33V681c0,0,-58,29,-121,44c0,0,-63,15,-130,15c0,0,-102,0,-153,-31c0,0,-51,-31,-51,-94c0,0,0,-48,37,-75c0,0,36,-27,147,-52l46,-10c0,0,147,-32,208,-89c0,0,62,-57,62,-159c0,0,0,-116,-93,-184c0,0,-92,-66,-253,-66Z" 
id="f0_9"
transform="scale(0.001,-0.001)" />

<path d="M424,-20c0,0,-145,0,-219,88c0,0,-75,89,-75,262V836H267V335c0,0,0,-119,46,-178c0,0,47,-59,139,-59c0,0,112,0,177,71c0,0,64,71,64,193V836H830V0H693V128C693,128,643,52,577,15c0,0,-66,-35,-153,-35Z" 
id="f0_r"
transform="scale(0.001,-0.001)" />

<path d="M144,0V836H281V0Zm0,987v174H281V987Z" 
id="f0_7"
transform="scale(0.001,-0.001)" />

<path d="M510,93c0,0,109,0,171,86c0,0,62,86,62,238c0,0,0,151,-62,237c0,0,-62,86,-171,86c0,0,-109,0,-171,-86c0,0,-62,-86,-62,-237c0,0,0,-152,62,-238c0,0,62,-86,171,-86ZM544,-20c0,0,-92,0,-158,35c0,0,-66,36,-109,110V0H139V1161H277V709c0,0,43,74,109,110c0,0,66,37,158,37c0,0,152,0,247,-121c0,0,95,-121,95,-318c0,0,0,-197,-95,-318C791,99,696,-20,544,-20Z" 
id="f0_n"
transform="scale(0.001,-0.001)" />

<path d="M460,115c0,0,111,0,173,82c0,0,61,82,61,230c0,0,0,149,-61,231c0,0,-62,82,-173,82c0,0,-111,0,-173,-82c0,0,-61,-82,-61,-231c0,0,0,-148,61,-230c0,0,62,-82,173,-82ZM446,-317c0,0,-72,0,-137,11c0,0,-64,11,-124,33v134c0,0,60,-33,119,-49c0,0,59,-15,121,-15c0,0,135,0,202,70c0,0,67,71,67,212v68C694,147,652,73,585,36C585,36,519,0,426,0C426,0,272,0,178,117c0,0,-94,117,-94,310c0,0,0,194,94,311c0,0,94,118,248,118c0,0,93,0,159,-37c0,0,67,-36,109,-110V836H831V104c0,0,0,-212,-95,-317c0,0,-94,-104,-290,-104Z" 
id="f0_f"
transform="scale(0.001,-0.001)" />

<path d="M139,0V836H277V706c0,0,49,75,116,112c0,0,67,38,154,38c0,0,144,0,218,-90c0,0,74,-89,74,-262V0H702V500c0,0,0,119,-46,177c0,0,-47,59,-139,59c0,0,-112,0,-176,-71c0,0,-64,-70,-64,-193V0Z" 
id="f0_h"
transform="scale(0.001,-0.001)" />

<path d="M139,0V1161H277V475L686,836H861L418,445L880,0H701L277,408V0Z" 
id="f0_10"
transform="scale(0.001,-0.001)" />

<path d="M495,-20c0,0,-189,0,-300,117C195,97,84,216,84,417c0,0,0,204,112,321c0,0,113,118,308,118c0,0,64,0,124,-14c0,0,60,-13,117,-39V675c0,0,-58,32,-117,48c0,0,-58,16,-118,16c0,0,-133,0,-207,-84c0,0,-74,-85,-74,-238c0,0,0,-153,74,-238c0,0,74,-84,207,-84c0,0,60,0,118,16c0,0,59,16,117,48V32C745,32,688,5,626,-7c0,0,-61,-13,-131,-13Z" 
id="f0_o"
transform="scale(0.001,-0.001)" />

<path d="M179,0V190H336V0Zm0,600V790H336V600Z" 
id="f0_12"
transform="scale(0.001,-0.001)" />


</defs>
</svg>