<?xml version="1.0" encoding="UTF-8" standalone="no"?>
<!DOCTYPE svg PUBLIC "-//W3C//DTD SVG 1.1//EN"
"http://www.w3.org/Graphics/SVG/1.1/DTD/svg11.dtd">
<svg viewBox="0 0 909 1286" version="1.1" xmlns="http://www.w3.org/2000/svg" xmlns:xlink="http://www.w3.org/1999/xlink">
<defs>
<clipPath id="c0_32"><path d="M0,1286.2V.2H909.3v1286Z" /></clipPath>
</defs>
<g clip-path="url(#c0_32)">
<g fill="#000000" >
<use xlink:href="#f0_18" transform="matrix(12,0,0,12,86.8,595.8)" />
<use xlink:href="#f0_a" transform="matrix(12,0,0,12,98.4,595.8)" />
<use xlink:href="#f0_o" transform="matrix(12,0,0,12,109.7,595.8)" />
<use xlink:href="#f0_a" transform="matrix(12,0,0,12,114.7,595.8)" />
<use xlink:href="#f0_b" transform="matrix(12,0,0,12,126,595.8)" />
<use xlink:href="#f0_6" transform="matrix(12,0,0,12,136.1,595.8)" />
</g>
<g fill="#0000FF" >
<use xlink:href="#f1_n" transform="matrix(12,0,0,12,149.3,595.8)" />
<use xlink:href="#f1_r" transform="matrix(12,0,0,12,163.5,595.8)" />
<use xlink:href="#f1_r" transform="matrix(12,0,0,12,169.7,595.8)" />
<use xlink:href="#f1_i" transform="matrix(12,0,0,12,182.4,595.8)" />
<use xlink:href="#f1_b" transform="matrix(12,0,0,12,195.8,595.8)" />
<use xlink:href="#f1_5" transform="matrix(12,0,0,12,204.8,595.8)" />
<use xlink:href="#f1_f" transform="matrix(12,0,0,12,211.1,595.8)" />
<use xlink:href="#f1_3" transform="matrix(12,0,0,12,222,595.8)" />
<use xlink:href="#f1_k" transform="matrix(12,0,0,12,234.3,595.8)" />
<use xlink:href="#f1_a" transform="matrix(12,0,0,12,251.7,595.8)" />
<use xlink:href="#f1_6" transform="matrix(12,0,0,12,264.1,595.8)" />
<use xlink:href="#f1_c" transform="matrix(12,0,0,12,277,595.8)" />
<use xlink:href="#f1_12" transform="matrix(12,0,0,12,296.6,595.8)" />
<use xlink:href="#f1_o" transform="matrix(12,0,0,12,310,595.8)" />
<use xlink:href="#f1_b" transform="matrix(12,0,0,12,323,595.8)" />
<use xlink:href="#f1_b" transform="matrix(12,0,0,12,332,595.8)" />
<use xlink:href="#f1_3" transform="matrix(12,0,0,12,341.2,595.8)" />
<use xlink:href="#f1_6" transform="matrix(12,0,0,12,353.5,595.8)" />
<use xlink:href="#f1_f" transform="matrix(12,0,0,12,366.5,595.8)" />
<use xlink:href="#f1_5" transform="matrix(12,0,0,12,377.4,595.8)" />
<use xlink:href="#f1_3" transform="matrix(12,0,0,12,383.8,595.8)" />
<use xlink:href="#f1_k" transform="matrix(12,0,0,12,396.1,595.8)" />
</g>
<g fill="#000000" >
<use xlink:href="#f0_h" transform="matrix(12,0,0,12,413.6,595.8)" />
<use xlink:href="#f0_d" transform="matrix(12,0,0,12,420,595.8)" />
<use xlink:href="#f0_g" transform="matrix(12,0,0,12,431.3,595.8)" />
<use xlink:href="#f0_u" transform="matrix(12,0,0,12,444.6,595.8)" />
<use xlink:href="#f0_d" transform="matrix(12,0,0,12,462.4,595.8)" />
<use xlink:href="#f0_g" transform="matrix(12,0,0,12,473.7,595.8)" />
<use xlink:href="#f0_a" transform="matrix(12,0,0,12,480.7,595.8)" />
<use xlink:href="#f0_c" transform="matrix(12,0,0,12,497.8,595.8)" />
<use xlink:href="#f0_e" transform="matrix(12,0,0,12,502.9,595.8)" />
<use xlink:href="#f0_h" transform="matrix(12,0,0,12,514.6,595.8)" />
<use xlink:href="#f0_d" transform="matrix(12,0,0,12,521.1,595.8)" />
<use xlink:href="#f0_g" transform="matrix(12,0,0,12,532.2,595.8)" />
<use xlink:href="#f0_u" transform="matrix(12,0,0,12,539.4,595.8)" />
<use xlink:href="#f0_8" transform="matrix(12,0,0,12,557.2,595.8)" />
<use xlink:href="#f0_6" transform="matrix(12,0,0,12,568.5,595.8)" />
<use xlink:href="#f0_c" transform="matrix(12,0,0,12,575.7,595.8)" />
<use xlink:href="#f0_d" transform="matrix(12,0,0,12,580.9,595.8)" />
<use xlink:href="#f0_e" transform="matrix(12,0,0,12,592,595.8)" />
<use xlink:href="#f0_8" transform="matrix(12,0,0,12,609.5,595.8)" />
<use xlink:href="#f0_x" transform="matrix(12,0,0,12,620.8,595.8)" />
<use xlink:href="#f0_d" transform="matrix(12,0,0,12,632.4,595.8)" />
<use xlink:href="#f0_k" transform="matrix(12,0,0,12,643.5,595.8)" />
<use xlink:href="#f0_6" transform="matrix(12,0,0,12,655.1,595.8)" />
<use xlink:href="#f0_6" transform="matrix(12,0,0,12,668.2,595.8)" />
<use xlink:href="#f0_7" transform="matrix(12,0,0,12,675.4,595.8)" />
<use xlink:href="#f0_a" transform="matrix(12,0,0,12,687,595.8)" />
<use xlink:href="#f0_s" transform="matrix(12,0,0,12,704.1,595.8)" />
<use xlink:href="#f0_g" transform="matrix(12,0,0,12,715.7,595.8)" />
<use xlink:href="#f0_c" transform="matrix(12,0,0,12,723.2,595.8)" />
<use xlink:href="#f0_b" transform="matrix(12,0,0,12,728.3,595.8)" />
<use xlink:href="#f0_a" transform="matrix(12,0,0,12,738.3,595.8)" />
<use xlink:href="#f0_6" transform="matrix(12,0,0,12,755.6,595.8)" />
<use xlink:href="#f0_c" transform="matrix(12,0,0,12,762.8,595.8)" />
<use xlink:href="#f0_a" transform="matrix(12,0,0,12,767.8,595.8)" />
<use xlink:href="#f0_g" transform="matrix(12,0,0,12,779.1,595.8)" />
<use xlink:href="#f0_9" transform="matrix(12,0,0,12,786.6,595.8)" />
<use xlink:href="#f0_l" transform="matrix(12,0,0,12,796.2,595.8)" />
<use xlink:href="#f0_10" transform="matrix(12,0,0,12,86.8,624.6)" />
<use xlink:href="#f0_d" transform="matrix(12,0,0,12,100.5,624.6)" />
<use xlink:href="#f0_n" transform="matrix(12,0,0,12,111.7,624.6)" />
<use xlink:href="#f0_b" transform="matrix(12,0,0,12,132.6,624.6)" />
<use xlink:href="#f0_7" transform="matrix(12,0,0,12,142.6,624.6)" />
<use xlink:href="#f0_d" transform="matrix(12,0,0,12,154.2,624.6)" />
<use xlink:href="#f0_d" transform="matrix(12,0,0,12,165.4,624.6)" />
<use xlink:href="#f0_9" transform="matrix(12,0,0,12,176.5,624.6)" />
<use xlink:href="#f0_a" transform="matrix(12,0,0,12,186.1,624.6)" />
<use xlink:href="#f0_p" transform="matrix(12,0,0,12,203.2,624.6)" />
<use xlink:href="#f0_d" transform="matrix(12,0,0,12,214.1,624.6)" />
<use xlink:href="#f0_k" transform="matrix(12,0,0,12,225.2,624.6)" />
<use xlink:href="#f0_g" transform="matrix(12,0,0,12,237,624.6)" />
<use xlink:href="#f0_f" transform="matrix(12,0,0,12,250.3,624.6)" />
<use xlink:href="#f0_a" transform="matrix(12,0,0,12,261.9,624.6)" />
<use xlink:href="#f0_9" transform="matrix(12,0,0,12,273.2,624.6)" />
<use xlink:href="#f0_c" transform="matrix(12,0,0,12,282.8,624.6)" />
<use xlink:href="#f0_g" transform="matrix(12,0,0,12,287.8,624.6)" />
<use xlink:href="#f0_a" transform="matrix(12,0,0,12,294.8,624.6)" />
<use xlink:href="#f0_f" transform="matrix(12,0,0,12,306.1,624.6)" />
<use xlink:href="#f0_s" transform="matrix(12,0,0,12,323.7,624.6)" />
<use xlink:href="#f0_g" transform="matrix(12,0,0,12,335.3,624.6)" />
<use xlink:href="#f0_c" transform="matrix(12,0,0,12,342.8,624.6)" />
<use xlink:href="#f0_b" transform="matrix(12,0,0,12,347.8,624.6)" />
<use xlink:href="#f0_a" transform="matrix(12,0,0,12,357.9,624.6)" />
<use xlink:href="#f0_6" transform="matrix(12,0,0,12,375.1,624.6)" />
<use xlink:href="#f0_c" transform="matrix(12,0,0,12,382.3,624.6)" />
<use xlink:href="#f0_a" transform="matrix(12,0,0,12,387.4,624.6)" />
<use xlink:href="#f0_g" transform="matrix(12,0,0,12,398.7,624.6)" />
<use xlink:href="#f0_d" transform="matrix(12,0,0,12,412,624.6)" />
<use xlink:href="#f0_g" transform="matrix(12,0,0,12,423.2,624.6)" />
<use xlink:href="#f0_c" transform="matrix(12,0,0,12,436.5,624.6)" />
<use xlink:href="#f0_e" transform="matrix(12,0,0,12,441.6,624.6)" />
<use xlink:href="#f0_f" transform="matrix(12,0,0,12,453.2,624.6)" />
<use xlink:href="#f0_c" transform="matrix(12,0,0,12,464.9,624.6)" />
<use xlink:href="#f0_b" transform="matrix(12,0,0,12,470,624.6)" />
<use xlink:href="#f0_8" transform="matrix(12,0,0,12,480,624.6)" />
<use xlink:href="#f0_6" transform="matrix(12,0,0,12,491.3,624.6)" />
<use xlink:href="#f0_a" transform="matrix(12,0,0,12,498.5,624.6)" />
<use xlink:href="#f0_6" transform="matrix(12,0,0,12,515.6,624.6)" />
<use xlink:href="#f0_7" transform="matrix(12,0,0,12,522.8,624.6)" />
<use xlink:href="#f0_8" transform="matrix(12,0,0,12,534.4,624.6)" />
<use xlink:href="#f0_6" transform="matrix(12,0,0,12,545.7,624.6)" />
<use xlink:href="#f0_p" transform="matrix(12,0,0,12,558.7,624.6)" />
<use xlink:href="#f0_d" transform="matrix(12,0,0,12,569.5,624.6)" />
<use xlink:href="#f0_k" transform="matrix(12,0,0,12,580.7,624.6)" />
<use xlink:href="#f0_g" transform="matrix(12,0,0,12,592.3,624.6)" />
<use xlink:href="#f0_8" transform="matrix(12,0,0,12,605.7,624.6)" />
<use xlink:href="#f0_s" transform="matrix(12,0,0,12,616.9,624.6)" />
<use xlink:href="#f0_s" transform="matrix(12,0,0,12,628.5,624.6)" />
<use xlink:href="#f0_n" transform="matrix(12,0,0,12,646.1,624.6)" />
<use xlink:href="#f0_c" transform="matrix(12,0,0,12,661,624.6)" />
<use xlink:href="#f0_o" transform="matrix(12,0,0,12,666.1,624.6)" />
<use xlink:href="#f0_o" transform="matrix(12,0,0,12,671.1,624.6)" />
<use xlink:href="#f0_x" transform="matrix(12,0,0,12,682.1,624.6)" />
<use xlink:href="#f0_a" transform="matrix(12,0,0,12,693.7,624.6)" />
<use xlink:href="#f0_h" transform="matrix(12,0,0,12,710.8,624.6)" />
<use xlink:href="#f0_g" transform="matrix(12,0,0,12,717.4,624.6)" />
<use xlink:href="#f0_a" transform="matrix(12,0,0,12,724.4,624.6)" />
<use xlink:href="#f0_a" transform="matrix(12,0,0,12,735.7,624.6)" />
<use xlink:href="#f0_l" transform="matrix(12,0,0,12,747,624.6)" />
<use xlink:href="#f0_1r" transform="matrix(12,0,0,12,758.6,624.6)" />
<use xlink:href="#f0_d" transform="matrix(12,0,0,12,767.4,624.6)" />
<use xlink:href="#f0_k" transform="matrix(12,0,0,12,778.6,624.6)" />
<use xlink:href="#f0_b" transform="matrix(12,0,0,12,86.8,653.1)" />
<use xlink:href="#f0_8" transform="matrix(12,0,0,12,96.8,653.1)" />
<use xlink:href="#f0_e" transform="matrix(12,0,0,12,108.1,653.1)" />
<use xlink:href="#f0_9" transform="matrix(12,0,0,12,125.6,653.1)" />
<use xlink:href="#f0_s" transform="matrix(12,0,0,12,135.2,653.1)" />
<use xlink:href="#f0_a" transform="matrix(12,0,0,12,146.8,653.1)" />
<use xlink:href="#f0_b" transform="matrix(12,0,0,12,158.1,653.1)" />
<use xlink:href="#f0_c" transform="matrix(12,0,0,12,168.1,653.1)" />
<use xlink:href="#f0_h" transform="matrix(12,0,0,12,173.2,653.1)" />
<use xlink:href="#f0_p" transform="matrix(12,0,0,12,179.3,653.1)" />
<use xlink:href="#f0_f" transform="matrix(12,0,0,12,195.9,653.1)" />
<use xlink:href="#f0_c" transform="matrix(12,0,0,12,207.5,653.1)" />
<use xlink:href="#f0_h" transform="matrix(12,0,0,12,212.6,653.1)" />
<use xlink:href="#f0_h" transform="matrix(12,0,0,12,219.1,653.1)" />
<use xlink:href="#f0_a" transform="matrix(12,0,0,12,225.5,653.1)" />
<use xlink:href="#f0_g" transform="matrix(12,0,0,12,236.8,653.1)" />
<use xlink:href="#f0_a" transform="matrix(12,0,0,12,243.8,653.1)" />
<use xlink:href="#f0_e" transform="matrix(12,0,0,12,255.1,653.1)" />
<use xlink:href="#f0_6" transform="matrix(12,0,0,12,266.7,653.1)" />
<use xlink:href="#f0_s" transform="matrix(12,0,0,12,279.9,653.1)" />
<use xlink:href="#f0_g" transform="matrix(12,0,0,12,291.5,653.1)" />
<use xlink:href="#f0_c" transform="matrix(12,0,0,12,298.9,653.1)" />
<use xlink:href="#f0_b" transform="matrix(12,0,0,12,304,653.1)" />
<use xlink:href="#f0_a" transform="matrix(12,0,0,12,314.1,653.1)" />
<use xlink:href="#f0_9" transform="matrix(12,0,0,12,325.3,653.1)" />
<use xlink:href="#f0_n" transform="matrix(12,0,0,12,340.8,653.1)" />
<use xlink:href="#f0_c" transform="matrix(12,0,0,12,355.7,653.1)" />
<use xlink:href="#f0_6" transform="matrix(12,0,0,12,360.8,653.1)" />
<use xlink:href="#f0_7" transform="matrix(12,0,0,12,368,653.1)" />
<use xlink:href="#f0_c" transform="matrix(12,0,0,12,379.7,653.1)" />
<use xlink:href="#f0_e" transform="matrix(12,0,0,12,384.8,653.1)" />
<use xlink:href="#f0_f" transform="matrix(12,0,0,12,402.2,653.1)" />
<use xlink:href="#f0_c" transform="matrix(12,0,0,12,413.8,653.1)" />
<use xlink:href="#f0_h" transform="matrix(12,0,0,12,419,653.1)" />
<use xlink:href="#f0_h" transform="matrix(12,0,0,12,425.4,653.1)" />
<use xlink:href="#f0_a" transform="matrix(12,0,0,12,431.8,653.1)" />
<use xlink:href="#f0_g" transform="matrix(12,0,0,12,443.1,653.1)" />
<use xlink:href="#f0_a" transform="matrix(12,0,0,12,450.1,653.1)" />
<use xlink:href="#f0_e" transform="matrix(12,0,0,12,461.4,653.1)" />
<use xlink:href="#f0_6" transform="matrix(12,0,0,12,473,653.1)" />
<use xlink:href="#f0_f" transform="matrix(12,0,0,12,486.1,653.1)" />
<use xlink:href="#f0_8" transform="matrix(12,0,0,12,497.7,653.1)" />
<use xlink:href="#f0_6" transform="matrix(12,0,0,12,509,653.1)" />
<use xlink:href="#f0_a" transform="matrix(12,0,0,12,516.2,653.1)" />
<use xlink:href="#f0_g" transform="matrix(12,0,0,12,533.3,653.1)" />
<use xlink:href="#f0_8" transform="matrix(12,0,0,12,540.8,653.1)" />
<use xlink:href="#f0_e" transform="matrix(12,0,0,12,552.1,653.1)" />
<use xlink:href="#f0_q" transform="matrix(12,0,0,12,563.7,653.1)" />
<use xlink:href="#f0_a" transform="matrix(12,0,0,12,575.3,653.1)" />
<use xlink:href="#f0_9" transform="matrix(12,0,0,12,586.5,653.1)" />
<use xlink:href="#f0_c" transform="matrix(12,0,0,12,601.9,653.1)" />
<use xlink:href="#f0_h" transform="matrix(12,0,0,12,607,653.1)" />
<use xlink:href="#f0_p" transform="matrix(12,0,0,12,619.3,653.1)" />
<use xlink:href="#f0_d" transform="matrix(12,0,0,12,630.1,653.1)" />
<use xlink:href="#f0_k" transform="matrix(12,0,0,12,641.3,653.1)" />
<use xlink:href="#f0_n" transform="matrix(12,0,0,12,658.8,653.1)" />
<use xlink:href="#f0_c" transform="matrix(12,0,0,12,673.8,653.1)" />
<use xlink:href="#f0_9" transform="matrix(12,0,0,12,678.8,653.1)" />
<use xlink:href="#f0_7" transform="matrix(12,0,0,12,688.4,653.1)" />
<use xlink:href="#f0_x" transform="matrix(12,0,0,12,705.9,653.1)" />
<use xlink:href="#f0_p" transform="matrix(12,0,0,12,717.5,653.1)" />
<use xlink:href="#f0_9" transform="matrix(12,0,0,12,734.1,653.1)" />
<use xlink:href="#f0_a" transform="matrix(12,0,0,12,743.7,653.1)" />
<use xlink:href="#f0_o" transform="matrix(12,0,0,12,755,653.1)" />
<use xlink:href="#f0_a" transform="matrix(12,0,0,12,760.1,653.1)" />
<use xlink:href="#f0_b" transform="matrix(12,0,0,12,771.3,653.1)" />
<use xlink:href="#f0_6" transform="matrix(12,0,0,12,781.4,653.1)" />
<use xlink:href="#f0_c" transform="matrix(12,0,0,12,788.6,653.1)" />
<use xlink:href="#f0_e" transform="matrix(12,0,0,12,793.6,653.1)" />
<use xlink:href="#f0_q" transform="matrix(12,0,0,12,805.2,653.1)" />
</g>
<g fill="#0000FF" >
<use xlink:href="#f1_i" transform="matrix(12,0,0,12,86.8,681.8)" />
<use xlink:href="#f1_r" transform="matrix(12,0,0,12,100.2,681.8)" />
<use xlink:href="#f1_a" transform="matrix(12,0,0,12,106.5,681.8)" />
<use xlink:href="#f1_6" transform="matrix(12,0,0,12,118.8,681.8)" />
<use xlink:href="#f1_a" transform="matrix(12,0,0,12,138.3,681.8)" />
<use xlink:href="#f1_i" transform="matrix(12,0,0,12,157,681.8)" />
<use xlink:href="#f1_b" transform="matrix(12,0,0,12,170.4,681.8)" />
<use xlink:href="#f1_5" transform="matrix(12,0,0,12,179.4,681.8)" />
<use xlink:href="#f1_f" transform="matrix(12,0,0,12,185.7,681.8)" />
<use xlink:href="#f1_3" transform="matrix(12,0,0,12,196.7,681.8)" />
<use xlink:href="#f1_12" transform="matrix(12,0,0,12,215.4,681.8)" />
<use xlink:href="#f1_17" transform="matrix(12,0,0,12,228.9,681.8)" />
<use xlink:href="#f1_a" transform="matrix(12,0,0,12,241.9,681.8)" />
<use xlink:href="#f1_6" transform="matrix(12,0,0,12,254.2,681.8)" />
<use xlink:href="#f1_7" transform="matrix(12,0,0,12,267.2,681.8)" />
<use xlink:href="#f1_3" transform="matrix(12,0,0,12,280.5,681.8)" />
</g>
<g fill="#000000" >
<use xlink:href="#f0_l" transform="matrix(12,0,0,12,293,681.8)" />
<use xlink:href="#f0_m" transform="matrix(12,0,0,12,304.8,681.8)" />
<use xlink:href="#f0_k" transform="matrix(12,0,0,12,317.3,681.8)" />
<use xlink:href="#f0_6" transform="matrix(12,0,0,12,328.9,681.8)" />
<use xlink:href="#f0_h" transform="matrix(12,0,0,12,341.9,681.8)" />
<use xlink:href="#f0_d" transform="matrix(12,0,0,12,348.3,681.8)" />
<use xlink:href="#f0_g" transform="matrix(12,0,0,12,359.6,681.8)" />
<use xlink:href="#f0_e" transform="matrix(12,0,0,12,372.9,681.8)" />
<use xlink:href="#f0_d" transform="matrix(12,0,0,12,384.5,681.8)" />
<use xlink:href="#f0_n" transform="matrix(12,0,0,12,395.8,681.8)" />
<use xlink:href="#f0_4" transform="matrix(12,0,0,12,410.8,681.8)" />
<use xlink:href="#f0_y" transform="matrix(12,0,0,12,422.4,681.8)" />
<use xlink:href="#f0_k" transform="matrix(12,0,0,12,427.4,681.8)" />
<use xlink:href="#f0_9" transform="matrix(12,0,0,12,439.1,681.8)" />
<use xlink:href="#f0_6" transform="matrix(12,0,0,12,448.7,681.8)" />
<use xlink:href="#f0_8" transform="matrix(12,0,0,12,461.8,681.8)" />
<use xlink:href="#f0_f" transform="matrix(12,0,0,12,472.9,681.8)" />
<use xlink:href="#f0_f" transform="matrix(12,0,0,12,484.5,681.8)" />
<use xlink:href="#f0_d" transform="matrix(12,0,0,12,502.1,681.8)" />
<use xlink:href="#f0_e" transform="matrix(12,0,0,12,513.2,681.8)" />
<use xlink:href="#f0_a" transform="matrix(12,0,0,12,524.8,681.8)" />
<use xlink:href="#f0_a" transform="matrix(12,0,0,12,541.9,681.8)" />
<use xlink:href="#f0_e" transform="matrix(12,0,0,12,553.2,681.8)" />
<use xlink:href="#f0_6" transform="matrix(12,0,0,12,564.8,681.8)" />
<use xlink:href="#f0_g" transform="matrix(12,0,0,12,572,681.8)" />
<use xlink:href="#f0_p" transform="matrix(12,0,0,12,579.5,681.8)" />
<use xlink:href="#f0_1a" transform="matrix(12,0,0,12,596.3,681.8)" />
<use xlink:href="#f0_6" transform="matrix(12,0,0,12,620.4,681.8)" />
<use xlink:href="#f0_7" transform="matrix(12,0,0,12,627.6,681.8)" />
<use xlink:href="#f0_a" transform="matrix(12,0,0,12,639.2,681.8)" />
<use xlink:href="#f0_18" transform="matrix(12,0,0,12,656.3,681.8)" />
<use xlink:href="#f0_6" transform="matrix(12,0,0,12,667.9,681.8)" />
<use xlink:href="#f0_8" transform="matrix(12,0,0,12,675.1,681.8)" />
<use xlink:href="#f0_g" transform="matrix(12,0,0,12,686.4,681.8)" />
<use xlink:href="#f0_6" transform="matrix(12,0,0,12,693.9,681.8)" />
<use xlink:href="#f0_15" transform="matrix(12,0,0,12,706.9,681.8)" />
<use xlink:href="#f0_8" transform="matrix(12,0,0,12,720.9,681.8)" />
<use xlink:href="#f0_6" transform="matrix(12,0,0,12,732.2,681.8)" />
<use xlink:href="#f0_a" transform="matrix(12,0,0,12,739.4,681.8)" />
<use xlink:href="#f0_n" transform="matrix(12,0,0,12,756.5,681.8)" />
<use xlink:href="#f0_c" transform="matrix(12,0,0,12,771.5,681.8)" />
<use xlink:href="#f0_o" transform="matrix(12,0,0,12,776.7,681.8)" />
<use xlink:href="#f0_o" transform="matrix(12,0,0,12,781.7,681.8)" />
<use xlink:href="#f0_f" transform="matrix(12,0,0,12,86.8,710.4)" />
<use xlink:href="#f0_a" transform="matrix(12,0,0,12,98.4,710.4)" />
<use xlink:href="#f0_h" transform="matrix(12,0,0,12,109.7,710.4)" />
<use xlink:href="#f0_8" transform="matrix(12,0,0,12,116.1,710.4)" />
<use xlink:href="#f0_k" transform="matrix(12,0,0,12,127.4,710.4)" />
<use xlink:href="#f0_o" transform="matrix(12,0,0,12,139,710.4)" />
<use xlink:href="#f0_6" transform="matrix(12,0,0,12,144,710.4)" />
<use xlink:href="#f0_6" transform="matrix(12,0,0,12,157.2,710.4)" />
<use xlink:href="#f0_d" transform="matrix(12,0,0,12,164.3,710.4)" />
<use xlink:href="#f0_6" transform="matrix(12,0,0,12,181.3,710.4)" />
<use xlink:href="#f0_d" transform="matrix(12,0,0,12,188.5,710.4)" />
<use xlink:href="#f0_f" transform="matrix(12,0,0,12,199.8,710.4)" />
<use xlink:href="#f0_8" transform="matrix(12,0,0,12,211.4,710.4)" />
<use xlink:href="#f0_p" transform="matrix(12,0,0,12,222.7,710.4)" />
<use xlink:href="#f0_26" transform="matrix(12,0,0,12,233.5,710.4)" />
<use xlink:href="#f0_6" transform="matrix(12,0,0,12,245.4,710.4)" />
<use xlink:href="#f0_7" transform="matrix(12,0,0,12,252.6,710.4)" />
<use xlink:href="#f0_a" transform="matrix(12,0,0,12,264.2,710.4)" />
<use xlink:href="#f0_1d" transform="matrix(12,0,0,12,281.3,710.4)" />
<use xlink:href="#f0_e" transform="matrix(12,0,0,12,292.9,710.4)" />
<use xlink:href="#f0_f" transform="matrix(12,0,0,12,304.5,710.4)" />
<use xlink:href="#f0_15" transform="matrix(12,0,0,12,322.1,710.4)" />
<use xlink:href="#f0_8" transform="matrix(12,0,0,12,336,710.4)" />
<use xlink:href="#f0_6" transform="matrix(12,0,0,12,347.3,710.4)" />
<use xlink:href="#f0_a" transform="matrix(12,0,0,12,354.4,710.4)" />
<use xlink:href="#f0_n" transform="matrix(12,0,0,12,371.7,710.4)" />
<use xlink:href="#f0_c" transform="matrix(12,0,0,12,386.7,710.4)" />
<use xlink:href="#f0_o" transform="matrix(12,0,0,12,391.7,710.4)" />
<use xlink:href="#f0_o" transform="matrix(12,0,0,12,396.7,710.4)" />
<use xlink:href="#f0_x" transform="matrix(12,0,0,12,407.7,710.4)" />
<use xlink:href="#f0_a" transform="matrix(12,0,0,12,419.3,710.4)" />
<use xlink:href="#f0_9" transform="matrix(12,0,0,12,436.4,710.4)" />
<use xlink:href="#f0_a" transform="matrix(12,0,0,12,446,710.4)" />
<use xlink:href="#f0_6" transform="matrix(12,0,0,12,457.2,710.4)" />
<use xlink:href="#f0_6" transform="matrix(12,0,0,12,470.3,710.4)" />
<use xlink:href="#f0_d" transform="matrix(12,0,0,12,477.5,710.4)" />
<use xlink:href="#f0_1b" transform="matrix(12,0,0,12,494.5,710.4)" />
<use xlink:href="#f0_10" transform="matrix(12,0,0,12,503.9,710.4)" />
<use xlink:href="#f0_d" transform="matrix(12,0,0,12,517.7,710.4)" />
<use xlink:href="#f0_1d" transform="matrix(12,0,0,12,534.8,710.4)" />
<use xlink:href="#f0_e" transform="matrix(12,0,0,12,546.4,710.4)" />
<use xlink:href="#f0_f" transform="matrix(12,0,0,12,558,710.4)" />
<use xlink:href="#f0_15" transform="matrix(12,0,0,12,575.4,710.4)" />
<use xlink:href="#f0_8" transform="matrix(12,0,0,12,589.4,710.4)" />
<use xlink:href="#f0_6" transform="matrix(12,0,0,12,600.7,710.4)" />
<use xlink:href="#f0_a" transform="matrix(12,0,0,12,607.9,710.4)" />
<use xlink:href="#f0_1c" transform="matrix(12,0,0,12,619.2,710.4)" />
<use xlink:href="#f0_l" transform="matrix(12,0,0,12,628.7,710.4)" />
<use xlink:href="#f0_1f" transform="matrix(12,0,0,12,86.8,739.1)" />
<use xlink:href="#f0_7" transform="matrix(12,0,0,12,99.6,739.1)" />
<use xlink:href="#f0_a" transform="matrix(12,0,0,12,111.2,739.1)" />
<use xlink:href="#f0_b" transform="matrix(12,0,0,12,122.5,739.1)" />
<use xlink:href="#f0_i" transform="matrix(12,0,0,12,132.4,739.1)" />
<use xlink:href="#f0_6" transform="matrix(12,0,0,12,149,739.1)" />
<use xlink:href="#f0_7" transform="matrix(12,0,0,12,156.2,739.1)" />
<use xlink:href="#f0_a" transform="matrix(12,0,0,12,167.8,739.1)" />
<use xlink:href="#f0_g" transform="matrix(12,0,0,12,184.9,739.1)" />
<use xlink:href="#f0_8" transform="matrix(12,0,0,12,192.4,739.1)" />
<use xlink:href="#f0_f" transform="matrix(12,0,0,12,203.7,739.1)" />
<use xlink:href="#f0_c" transform="matrix(12,0,0,12,215.3,739.1)" />
<use xlink:href="#f0_d" transform="matrix(12,0,0,12,220.4,739.1)" />
<use xlink:href="#f0_x" transform="matrix(12,0,0,12,237.5,739.1)" />
<use xlink:href="#f0_k" transform="matrix(12,0,0,12,249.1,739.1)" />
<use xlink:href="#f0_6" transform="matrix(12,0,0,12,260.7,739.1)" />
<use xlink:href="#f0_6" transform="matrix(12,0,0,12,267.9,739.1)" />
<use xlink:href="#f0_d" transform="matrix(12,0,0,12,275,739.1)" />
<use xlink:href="#f0_e" transform="matrix(12,0,0,12,286.2,739.1)" />
<use xlink:href="#f0_c" transform="matrix(12,0,0,12,303.8,739.1)" />
<use xlink:href="#f0_h" transform="matrix(12,0,0,12,308.8,739.1)" />
<use xlink:href="#f0_p" transform="matrix(12,0,0,12,321.2,739.1)" />
<use xlink:href="#f0_d" transform="matrix(12,0,0,12,332,739.1)" />
<use xlink:href="#f0_k" transform="matrix(12,0,0,12,343.1,739.1)" />
<use xlink:href="#f0_n" transform="matrix(12,0,0,12,360.5,739.1)" />
<use xlink:href="#f0_8" transform="matrix(12,0,0,12,375.5,739.1)" />
<use xlink:href="#f0_e" transform="matrix(12,0,0,12,386.8,739.1)" />
<use xlink:href="#f0_6" transform="matrix(12,0,0,12,398.4,739.1)" />
<use xlink:href="#f0_p" transform="matrix(12,0,0,12,411.4,739.1)" />
<use xlink:href="#f0_d" transform="matrix(12,0,0,12,422.3,739.1)" />
<use xlink:href="#f0_k" transform="matrix(12,0,0,12,433.4,739.1)" />
<use xlink:href="#f0_g" transform="matrix(12,0,0,12,445.2,739.1)" />
<use xlink:href="#f0_8" transform="matrix(12,0,0,12,458.4,739.1)" />
<use xlink:href="#f0_s" transform="matrix(12,0,0,12,469.7,739.1)" />
<use xlink:href="#f0_s" transform="matrix(12,0,0,12,481.3,739.1)" />
<use xlink:href="#f0_6" transform="matrix(12,0,0,12,498.8,739.1)" />
<use xlink:href="#f0_d" transform="matrix(12,0,0,12,506,739.1)" />
<use xlink:href="#f0_x" transform="matrix(12,0,0,12,523.1,739.1)" />
<use xlink:href="#f0_a" transform="matrix(12,0,0,12,534.7,739.1)" />
<use xlink:href="#f0_d" transform="matrix(12,0,0,12,551.8,739.1)" />
<use xlink:href="#f0_h" transform="matrix(12,0,0,12,562.9,739.1)" />
<use xlink:href="#f0_h" transform="matrix(12,0,0,12,569.3,739.1)" />
<use xlink:href="#f0_a" transform="matrix(12,0,0,12,575.7,739.1)" />
<use xlink:href="#f0_g" transform="matrix(12,0,0,12,587.2,739.1)" />
<use xlink:href="#f0_a" transform="matrix(12,0,0,12,594.2,739.1)" />
<use xlink:href="#f0_f" transform="matrix(12,0,0,12,605.5,739.1)" />
<use xlink:href="#f0_8" transform="matrix(12,0,0,12,623,739.1)" />
<use xlink:href="#f0_6" transform="matrix(12,0,0,12,634.2,739.1)" />
<use xlink:href="#f0_8" transform="matrix(12,0,0,12,647.2,739.1)" />
<use xlink:href="#f0_f" transform="matrix(12,0,0,12,664.3,739.1)" />
<use xlink:href="#f0_c" transform="matrix(12,0,0,12,675.9,739.1)" />
<use xlink:href="#f0_9" transform="matrix(12,0,0,12,680.9,739.1)" />
<use xlink:href="#f0_b" transform="matrix(12,0,0,12,690.5,739.1)" />
<use xlink:href="#f0_d" transform="matrix(12,0,0,12,700.6,739.1)" />
<use xlink:href="#f0_k" transform="matrix(12,0,0,12,711.8,739.1)" />
<use xlink:href="#f0_e" transform="matrix(12,0,0,12,723.4,739.1)" />
<use xlink:href="#f0_6" transform="matrix(12,0,0,12,735,739.1)" />
<use xlink:href="#f0_6" transform="matrix(12,0,0,12,748.1,739.1)" />
<use xlink:href="#f0_d" transform="matrix(12,0,0,12,755.3,739.1)" />
<use xlink:href="#f0_a" transform="matrix(12,0,0,12,86.8,767.7)" />
<use xlink:href="#f0_f" transform="matrix(12,0,0,12,98.1,767.7)" />
<use xlink:href="#f0_k" transform="matrix(12,0,0,12,109.7,767.7)" />
<use xlink:href="#f0_b" transform="matrix(12,0,0,12,121.3,767.7)" />
<use xlink:href="#f0_8" transform="matrix(12,0,0,12,131.3,767.7)" />
<use xlink:href="#f0_6" transform="matrix(12,0,0,12,142.6,767.7)" />
<use xlink:href="#f0_c" transform="matrix(12,0,0,12,149.8,767.7)" />
<use xlink:href="#f0_d" transform="matrix(12,0,0,12,154.9,767.7)" />
<use xlink:href="#f0_e" transform="matrix(12,0,0,12,166,767.7)" />
<use xlink:href="#f0_8" transform="matrix(12,0,0,12,177.6,767.7)" />
<use xlink:href="#f0_o" transform="matrix(12,0,0,12,188.9,767.7)" />
<use xlink:href="#f0_c" transform="matrix(12,0,0,12,199.9,767.7)" />
<use xlink:href="#f0_e" transform="matrix(12,0,0,12,204.9,767.7)" />
<use xlink:href="#f0_9" transform="matrix(12,0,0,12,216.5,767.7)" />
<use xlink:href="#f0_6" transform="matrix(12,0,0,12,226.1,767.7)" />
<use xlink:href="#f0_c" transform="matrix(12,0,0,12,233.3,767.7)" />
<use xlink:href="#f0_6" transform="matrix(12,0,0,12,238.4,767.7)" />
<use xlink:href="#f0_k" transform="matrix(12,0,0,12,245.6,767.7)" />
<use xlink:href="#f0_6" transform="matrix(12,0,0,12,257.2,767.7)" />
<use xlink:href="#f0_c" transform="matrix(12,0,0,12,264.4,767.7)" />
<use xlink:href="#f0_d" transform="matrix(12,0,0,12,269.5,767.7)" />
<use xlink:href="#f0_e" transform="matrix(12,0,0,12,280.7,767.7)" />
<use xlink:href="#f0_9" transform="matrix(12,0,0,12,292.3,767.7)" />
<use xlink:href="#f0_n" transform="matrix(12,0,0,12,307.7,767.7)" />
<use xlink:href="#f0_7" transform="matrix(12,0,0,12,322.7,767.7)" />
<use xlink:href="#f0_a" transform="matrix(12,0,0,12,334.3,767.7)" />
<use xlink:href="#f0_e" transform="matrix(12,0,0,12,345.6,767.7)" />
<use xlink:href="#f0_6" transform="matrix(12,0,0,12,363,767.7)" />
<use xlink:href="#f0_7" transform="matrix(12,0,0,12,370.2,767.7)" />
<use xlink:href="#f0_a" transform="matrix(12,0,0,12,381.8,767.7)" />
<use xlink:href="#f0_p" transform="matrix(12,0,0,12,393.1,767.7)" />
<use xlink:href="#f0_s" transform="matrix(12,0,0,12,409.7,767.7)" />
<use xlink:href="#f0_k" transform="matrix(12,0,0,12,421.3,767.7)" />
<use xlink:href="#f0_g" transform="matrix(12,0,0,12,433.1,767.7)" />
<use xlink:href="#f0_b" transform="matrix(12,0,0,12,440.1,767.7)" />
<use xlink:href="#f0_7" transform="matrix(12,0,0,12,450.2,767.7)" />
<use xlink:href="#f0_8" transform="matrix(12,0,0,12,461.8,767.7)" />
<use xlink:href="#f0_9" transform="matrix(12,0,0,12,472.9,767.7)" />
<use xlink:href="#f0_a" transform="matrix(12,0,0,12,482.5,767.7)" />
<use xlink:href="#f0_u" transform="matrix(12,0,0,12,499.6,767.7)" />
<use xlink:href="#f0_k" transform="matrix(12,0,0,12,517.5,767.7)" />
<use xlink:href="#f0_o" transform="matrix(12,0,0,12,529.1,767.7)" />
<use xlink:href="#f0_6" transform="matrix(12,0,0,12,534.1,767.7)" />
<use xlink:href="#f0_c" transform="matrix(12,0,0,12,541.4,767.7)" />
<use xlink:href="#f0_s" transform="matrix(12,0,0,12,546.5,767.7)" />
<use xlink:href="#f0_o" transform="matrix(12,0,0,12,558.1,767.7)" />
<use xlink:href="#f0_a" transform="matrix(12,0,0,12,563.1,767.7)" />
<use xlink:href="#f0_b" transform="matrix(12,0,0,12,580.4,767.7)" />
<use xlink:href="#f0_d" transform="matrix(12,0,0,12,590.4,767.7)" />
<use xlink:href="#f0_s" transform="matrix(12,0,0,12,601.6,767.7)" />
<use xlink:href="#f0_c" transform="matrix(12,0,0,12,613.2,767.7)" />
<use xlink:href="#f0_a" transform="matrix(12,0,0,12,618.2,767.7)" />
<use xlink:href="#f0_9" transform="matrix(12,0,0,12,629.5,767.7)" />
<use xlink:href="#f0_8" transform="matrix(12,0,0,12,644.9,767.7)" />
<use xlink:href="#f0_6" transform="matrix(12,0,0,12,656.2,767.7)" />
<use xlink:href="#f0_d" transform="matrix(12,0,0,12,669.2,767.7)" />
<use xlink:href="#f0_e" transform="matrix(12,0,0,12,680.4,767.7)" />
<use xlink:href="#f0_b" transform="matrix(12,0,0,12,692,767.7)" />
<use xlink:href="#f0_a" transform="matrix(12,0,0,12,702,767.7)" />
<use xlink:href="#f0_l" transform="matrix(12,0,0,12,713.3,767.7)" />
<use xlink:href="#f0_1r" transform="matrix(12,0,0,12,725,767.7)" />
<use xlink:href="#f0_d" transform="matrix(12,0,0,12,733.8,767.7)" />
<use xlink:href="#f0_k" transform="matrix(12,0,0,12,745,767.7)" />
<use xlink:href="#f0_b" transform="matrix(12,0,0,12,762.5,767.7)" />
<use xlink:href="#f0_8" transform="matrix(12,0,0,12,772.4,767.7)" />
<use xlink:href="#f0_e" transform="matrix(12,0,0,12,783.7,767.7)" />
<use xlink:href="#f0_8" transform="matrix(12,0,0,12,86.8,796.4)" />
<use xlink:href="#f0_o" transform="matrix(12,0,0,12,98.1,796.4)" />
<use xlink:href="#f0_9" transform="matrix(12,0,0,12,103.1,796.4)" />
<use xlink:href="#f0_d" transform="matrix(12,0,0,12,112.7,796.4)" />
<use xlink:href="#f0_d" transform="matrix(12,0,0,12,129.7,796.4)" />
<use xlink:href="#f0_h" transform="matrix(12,0,0,12,140.8,796.4)" />
<use xlink:href="#f0_h" transform="matrix(12,0,0,12,147.4,796.4)" />
<use xlink:href="#f0_a" transform="matrix(12,0,0,12,153.8,796.4)" />
<use xlink:href="#f0_g" transform="matrix(12,0,0,12,165.1,796.4)" />
<use xlink:href="#f0_p" transform="matrix(12,0,0,12,178.4,796.4)" />
<use xlink:href="#f0_d" transform="matrix(12,0,0,12,189.2,796.4)" />
<use xlink:href="#f0_k" transform="matrix(12,0,0,12,200.4,796.4)" />
<use xlink:href="#f0_g" transform="matrix(12,0,0,12,212.1,796.4)" />
<use xlink:href="#f0_8" transform="matrix(12,0,0,12,225.4,796.4)" />
<use xlink:href="#f0_s" transform="matrix(12,0,0,12,236.7,796.4)" />
<use xlink:href="#f0_s" transform="matrix(12,0,0,12,248.3,796.4)" />
<use xlink:href="#f0_6" transform="matrix(12,0,0,12,265.7,796.4)" />
<use xlink:href="#f0_d" transform="matrix(12,0,0,12,272.9,796.4)" />
<use xlink:href="#f0_x" transform="matrix(12,0,0,12,290,796.4)" />
<use xlink:href="#f0_k" transform="matrix(12,0,0,12,301.6,796.4)" />
<use xlink:href="#f0_9" transform="matrix(12,0,0,12,313.2,796.4)" />
<use xlink:href="#f0_c" transform="matrix(12,0,0,12,322.8,796.4)" />
<use xlink:href="#f0_e" transform="matrix(12,0,0,12,327.9,796.4)" />
<use xlink:href="#f0_a" transform="matrix(12,0,0,12,339.5,796.4)" />
<use xlink:href="#f0_9" transform="matrix(12,0,0,12,350.8,796.4)" />
<use xlink:href="#f0_9" transform="matrix(12,0,0,12,360.2,796.4)" />
<use xlink:href="#f0_a" transform="matrix(12,0,0,12,369.8,796.4)" />
<use xlink:href="#f0_9" transform="matrix(12,0,0,12,381,796.4)" />
<use xlink:href="#f0_8" transform="matrix(12,0,0,12,396.5,796.4)" />
<use xlink:href="#f0_6" transform="matrix(12,0,0,12,407.7,796.4)" />
<use xlink:href="#f0_8" transform="matrix(12,0,0,12,420.7,796.4)" />
<use xlink:href="#f0_f" transform="matrix(12,0,0,12,437.8,796.4)" />
<use xlink:href="#f0_c" transform="matrix(12,0,0,12,449.4,796.4)" />
<use xlink:href="#f0_9" transform="matrix(12,0,0,12,454.4,796.4)" />
<use xlink:href="#f0_b" transform="matrix(12,0,0,12,464,796.4)" />
<use xlink:href="#f0_d" transform="matrix(12,0,0,12,474.1,796.4)" />
<use xlink:href="#f0_k" transform="matrix(12,0,0,12,485.3,796.4)" />
<use xlink:href="#f0_e" transform="matrix(12,0,0,12,496.9,796.4)" />
<use xlink:href="#f0_6" transform="matrix(12,0,0,12,508.5,796.4)" />
<use xlink:href="#f0_h" transform="matrix(12,0,0,12,521.6,796.4)" />
<use xlink:href="#f0_d" transform="matrix(12,0,0,12,528,796.4)" />
<use xlink:href="#f0_g" transform="matrix(12,0,0,12,539.2,796.4)" />
<use xlink:href="#f0_u" transform="matrix(12,0,0,12,552.6,796.4)" />
<use xlink:href="#f0_k" transform="matrix(12,0,0,12,570.4,796.4)" />
<use xlink:href="#f0_o" transform="matrix(12,0,0,12,582.1,796.4)" />
<use xlink:href="#f0_6" transform="matrix(12,0,0,12,587.1,796.4)" />
<use xlink:href="#f0_c" transform="matrix(12,0,0,12,594.3,796.4)" />
<use xlink:href="#f0_s" transform="matrix(12,0,0,12,599.3,796.4)" />
<use xlink:href="#f0_o" transform="matrix(12,0,0,12,611.1,796.4)" />
<use xlink:href="#f0_a" transform="matrix(12,0,0,12,616.1,796.4)" />
<use xlink:href="#f0_s" transform="matrix(12,0,0,12,633.2,796.4)" />
<use xlink:href="#f0_k" transform="matrix(12,0,0,12,644.8,796.4)" />
<use xlink:href="#f0_g" transform="matrix(12,0,0,12,656.6,796.4)" />
<use xlink:href="#f0_b" transform="matrix(12,0,0,12,663.6,796.4)" />
<use xlink:href="#f0_7" transform="matrix(12,0,0,12,673.7,796.4)" />
<use xlink:href="#f0_8" transform="matrix(12,0,0,12,685.3,796.4)" />
<use xlink:href="#f0_9" transform="matrix(12,0,0,12,696.4,796.4)" />
<use xlink:href="#f0_a" transform="matrix(12,0,0,12,706,796.4)" />
<use xlink:href="#f0_9" transform="matrix(12,0,0,12,717.3,796.4)" />
<use xlink:href="#f0_l" transform="matrix(12,0,0,12,726.9,796.4)" />
<use xlink:href="#f0_2" transform="matrix(12,0,0,12,86.8,825)" />
<use xlink:href="#f0_e" transform="matrix(12,0,0,12,101.1,825)" />
<use xlink:href="#f0_b" transform="matrix(12,0,0,12,112.7,825)" />
<use xlink:href="#f0_a" transform="matrix(12,0,0,12,122.8,825)" />
<use xlink:href="#f0_p" transform="matrix(12,0,0,12,140.1,825)" />
<use xlink:href="#f0_d" transform="matrix(12,0,0,12,150.9,825)" />
<use xlink:href="#f0_k" transform="matrix(12,0,0,12,162,825)" />
<use xlink:href="#f0_r" transform="matrix(12,0,0,12,173.6,825)" />
<use xlink:href="#f0_g" transform="matrix(12,0,0,12,179.5,825)" />
<use xlink:href="#f0_a" transform="matrix(12,0,0,12,186.5,825)" />
<use xlink:href="#f0_f" transform="matrix(12,0,0,12,203.7,825)" />
<use xlink:href="#f0_d" transform="matrix(12,0,0,12,215.3,825)" />
<use xlink:href="#f0_e" transform="matrix(12,0,0,12,226.5,825)" />
<use xlink:href="#f0_a" transform="matrix(12,0,0,12,238.1,825)" />
<use xlink:href="#f0_4" transform="matrix(12,0,0,12,249.4,825)" />
<use xlink:href="#f0_b" transform="matrix(12,0,0,12,261.1,825)" />
<use xlink:href="#f0_o" transform="matrix(12,0,0,12,271.2,825)" />
<use xlink:href="#f0_c" transform="matrix(12,0,0,12,276.2,825)" />
<use xlink:href="#f0_b" transform="matrix(12,0,0,12,281.3,825)" />
<use xlink:href="#f0_i" transform="matrix(12,0,0,12,291.3,825)" />
</g>
<g fill="#0000FF" >
<use xlink:href="#f1_9" transform="matrix(12,0,0,12,308,825)" />
<use xlink:href="#f1_a" transform="matrix(12,0,0,12,321.1,825)" />
<use xlink:href="#f1_x" transform="matrix(12,0,0,12,333.5,825)" />
<use xlink:href="#f1_3" transform="matrix(12,0,0,12,345.5,825)" />
</g>
<g fill="#000000" >
<use xlink:href="#f0_1e" transform="matrix(12,0,0,12,358,825)" />
</g>
</g>
<image preserveAspectRatio="none" x="87" y="87" width="736" height="463" xlink:href="img/1.png" />
<defs>
<path d="M458,-20c0,0,-79,0,-168,17c0,0,-89,17,-184,52V204c0,0,91,-51,179,-77c0,0,88,-26,173,-26c0,0,129,0,199,50c0,0,70,51,70,145c0,0,0,82,-50,129c0,0,-50,46,-165,69l-92,18c0,0,-169,34,-244,105c0,0,-75,72,-75,199c0,0,0,148,104,233c0,0,104,85,287,85c0,0,78,0,159,-14c0,0,81,-14,166,-42V931c0,0,-85,41,-161,61c0,0,-76,20,-147,20c0,0,-123,0,-190,-48c0,0,-67,-48,-67,-136c0,0,0,-73,45,-111c0,0,44,-38,168,-61l91,-19c0,0,168,-32,249,-113c0,0,80,-81,80,-216c0,0,0,-162,-109,-246c0,0,-108,-82,-318,-82Z" 
id="f0_18"
transform="scale(0.001,-0.001)" />

<path d="M231,492l491,1c0,0,-2,112,-64,179c0,0,-61,67,-163,67c0,0,-115,0,-184,-65c0,0,-69,-64,-80,-182ZM517,-20c0,0,-199,0,-316,115C201,95,84,211,84,410c0,0,0,205,111,325c0,0,111,121,299,121c0,0,168,0,266,-109c0,0,98,-108,98,-295V385H227c0,0,9,-142,85,-216c0,0,77,-74,213,-74c0,0,80,0,154,19c0,0,74,19,147,58V42C826,42,752,11,675,-4c0,0,-78,-16,-158,-16Z" 
id="f0_a"
transform="scale(0.001,-0.001)" />

<path d="M144,0V1161H281V0Z" 
id="f0_o"
transform="scale(0.001,-0.001)" />

<path d="M495,-20c0,0,-189,0,-300,117C195,97,84,216,84,417c0,0,0,204,112,321c0,0,113,118,308,118c0,0,64,0,124,-14c0,0,60,-13,117,-39V675c0,0,-58,32,-117,48c0,0,-58,16,-118,16c0,0,-133,0,-207,-84c0,0,-74,-85,-74,-238c0,0,0,-153,74,-238c0,0,74,-84,207,-84c0,0,60,0,118,16c0,0,59,16,117,48V32C745,32,688,5,626,-7c0,0,-61,-13,-131,-13Z" 
id="f0_b"
transform="scale(0.001,-0.001)" />

<path d="M421,0C421,0,263,0,202,59c0,0,-60,60,-60,217V729H41V836H142v238H280V836H562V729H280V276c0,0,0,-102,28,-132c0,0,28,-29,113,-29H562V0Z" 
id="f0_6"
transform="scale(0.001,-0.001)" />

<path d="M744,410L592,853L439,410ZM8,0L420,1114H763L1175,0H887L816,203H367L297,0Z" 
id="f1_n"
transform="scale(0.001,-0.001)" />

<path d="M128,0V1161H395V0Z" 
id="f1_r"
transform="scale(0.001,-0.001)" />

<path d="M586,595c0,0,84,0,129,40c0,0,46,41,46,115c0,0,0,75,-46,115c0,0,-45,40,-129,40H427V595ZM140,0V1114H617c0,0,212,0,326,-95c0,0,114,-94,114,-269c0,0,0,-175,-114,-269c0,0,-114,-95,-326,-95H427V0Z" 
id="f1_i"
transform="scale(0.001,-0.001)" />

<path d="M128,0V836H395V698c0,0,52,82,118,120c0,0,67,38,161,38c0,0,13,0,29,-2c0,0,15,-1,45,-4l1,-242c0,0,-35,17,-70,25c0,0,-35,7,-70,7c0,0,-103,0,-158,-66c0,0,-56,-66,-56,-189V0Z" 
id="f1_b"
transform="scale(0.001,-0.001)" />

<path d="M128,0V836H395V0Zm0,944v217H395V944Z" 
id="f1_5"
transform="scale(0.001,-0.001)" />

<path d="M547,-20c0,0,-226,0,-354,114C193,94,66,210,66,417c0,0,0,207,127,323c0,0,128,116,354,116c0,0,66,0,129,-12c0,0,64,-11,128,-34V592c0,0,-55,37,-110,55c0,0,-54,18,-113,18c0,0,-112,0,-175,-65c0,0,-62,-66,-62,-183c0,0,0,-117,62,-183c0,0,63,-65,175,-65c0,0,62,0,119,19c0,0,56,19,104,55V24C804,24,741,1,676,-9c0,0,-64,-11,-129,-11Z" 
id="f1_f"
transform="scale(0.001,-0.001)" />

<path d="M687,509c0,0,0,76,-44,122c0,0,-44,47,-116,47c0,0,-78,0,-126,-44c0,0,-49,-43,-61,-125ZM544,-20c0,0,-227,0,-353,114C191,94,66,209,66,417c0,0,0,204,123,321c0,0,123,118,340,118c0,0,197,0,315,-119c0,0,118,-118,118,-317V344H337c0,0,10,-94,68,-141c0,0,59,-47,163,-47c0,0,85,0,173,25c0,0,89,25,182,76V51C923,51,828,15,733,-2c0,0,-94,-18,-189,-18Z" 
id="f1_3"
transform="scale(0.001,-0.001)" />

<path d="M445,-20c0,0,-83,0,-171,12C274,-8,185,4,92,30V234c0,0,80,-39,164,-58c0,0,84,-20,170,-20c0,0,79,0,118,22c0,0,40,22,40,64c0,0,0,36,-28,53c0,0,-27,18,-108,27l-47,6c0,0,-179,23,-250,83c0,0,-72,61,-72,184c0,0,0,132,91,196c0,0,91,65,279,65c0,0,74,0,155,-12c0,0,82,-11,177,-34V606c0,0,-86,36,-165,54c0,0,-80,18,-151,18c0,0,-76,0,-113,-19c0,0,-37,-19,-37,-59c0,0,0,-32,28,-49c0,0,28,-17,100,-25l47,-7c0,0,205,-26,276,-86c0,0,71,-59,71,-187c0,0,0,-133,-98,-200c0,0,-99,-66,-294,-66Z" 
id="f1_k"
transform="scale(0.001,-0.001)" />

<path d="M463,156c0,0,75,0,127,54c0,0,51,54,51,135v30H502c0,0,-83,0,-125,-28c0,0,-43,-28,-43,-83c0,0,0,-50,34,-79c0,0,34,-29,95,-29ZM357,-20c0,0,-130,0,-211,74c0,0,-80,76,-80,197c0,0,0,147,101,215c0,0,101,69,317,69H641v21c0,0,0,63,-50,92c0,0,-49,30,-155,30c0,0,-86,0,-160,-17c0,0,-74,-18,-137,-52V813c0,0,86,21,172,32c0,0,86,11,173,11c0,0,226,0,326,-90c0,0,100,-89,100,-290V0H641V124C641,124,588,48,521,13c0,0,-68,-33,-164,-33Z" 
id="f1_a"
transform="scale(0.001,-0.001)" />

<path d="M128,0V836H395V713c0,0,60,73,128,108c0,0,68,35,150,35c0,0,145,0,220,-89c0,0,75,-89,75,-258V0H699V389c0,0,0,109,-5,150c0,0,-5,41,-16,60c0,0,-16,26,-43,41c0,0,-27,14,-61,14c0,0,-84,0,-131,-64c0,0,-48,-65,-48,-179V0Z" 
id="f1_6"
transform="scale(0.001,-0.001)" />

<path d="M520,172c0,0,86,0,131,63c0,0,45,63,45,182c0,0,0,119,-45,182c0,0,-45,63,-131,63c0,0,-85,0,-130,-63c0,0,-45,-63,-45,-182c0,0,0,-119,45,-182c0,0,45,-63,130,-63ZM421,-20c0,0,-154,0,-253,121C168,101,68,224,68,417c0,0,0,193,100,316c0,0,99,123,253,123c0,0,87,0,153,-35c0,0,67,-35,122,-108v448H965V0H696V121C696,121,641,47,575,13c0,0,-67,-33,-154,-33Z" 
id="f1_c"
transform="scale(0.001,-0.001)" />

<path d="M680,-20c0,0,-278,0,-441,154C239,134,76,290,76,556c0,0,0,267,163,423c0,0,163,155,441,155c0,0,93,0,179,-21c0,0,86,-21,165,-62V820c0,0,-80,55,-158,81c0,0,-77,25,-163,25c0,0,-154,0,-241,-98c0,0,-88,-99,-88,-272c0,0,0,-172,87,-271c0,0,88,-98,242,-98c0,0,86,0,163,25c0,0,78,26,158,80V61C1024,61,945,20,859,0c0,0,-86,-20,-179,-20Z" 
id="f1_12"
transform="scale(0.001,-0.001)" />

<path d="M415,-20c0,0,-144,0,-220,87c0,0,-76,89,-76,259V836H388V752c0,0,0,-67,-1,-170c0,0,0,-103,0,-137c0,0,0,-101,5,-145c0,0,5,-44,18,-65c0,0,16,-26,43,-40c0,0,26,-14,60,-14c0,0,84,0,132,64c0,0,47,64,47,178V836H959V0H692V121C692,121,632,48,564,13c0,0,-67,-33,-149,-33Z" 
id="f1_o"
transform="scale(0.001,-0.001)" />

<path d="M166,0V729H35V836H166v58c0,0,0,139,65,203c0,0,65,64,206,64H567V1046H435c0,0,-74,0,-102,-29c0,0,-29,-30,-29,-107V836H530V729H304V0Z" 
id="f0_h"
transform="scale(0.001,-0.001)" />

<path d="M467,95c0,0,110,0,174,86c0,0,64,87,64,236c0,0,0,148,-64,235c0,0,-64,87,-174,87c0,0,-110,0,-174,-86c0,0,-64,-86,-64,-236c0,0,0,-150,64,-236c0,0,63,-86,174,-86Zm0,-115c0,0,-179,0,-281,115C186,95,84,212,84,417c0,0,0,206,102,322c0,0,102,117,281,117c0,0,179,0,282,-117c0,0,102,-116,102,-322c0,0,0,-205,-102,-322C749,95,646,-20,467,-20Z" 
id="f0_d"
transform="scale(0.001,-0.001)" />

<path d="M139,0V836H277V706c0,0,43,76,112,113c0,0,70,37,169,37c0,0,14,0,31,-2c0,0,17,-2,38,-6l1,-141c0,0,-23,14,-51,20c0,0,-27,6,-60,6c0,0,-116,0,-178,-75c0,0,-62,-76,-62,-218V0Z" 
id="f0_g"
transform="scale(0.001,-0.001)" />

<path d="M139,0V836H277V706c0,0,47,77,112,113c0,0,66,37,156,37c0,0,91,0,155,-47c0,0,64,-46,94,-134c0,0,52,93,123,137c0,0,72,44,169,44c0,0,130,0,201,-92c0,0,71,-91,71,-260V0H1220V500c0,0,0,120,-42,178c0,0,-43,58,-130,58c0,0,-107,0,-169,-71c0,0,-62,-70,-62,-193V0H680V500c0,0,0,121,-43,179c0,0,-42,57,-131,57c0,0,-105,0,-167,-71c0,0,-62,-71,-62,-193V0Z" 
id="f0_u"
transform="scale(0.001,-0.001)" />

<path d="M144,0V836H281V0Zm0,987v174H281V987Z" 
id="f0_c"
transform="scale(0.001,-0.001)" />

<path d="M139,0V836H277V706c0,0,49,75,116,112c0,0,67,38,154,38c0,0,144,0,218,-90c0,0,74,-89,74,-262V0H702V500c0,0,0,119,-46,177c0,0,-47,59,-139,59c0,0,-112,0,-176,-71c0,0,-64,-70,-64,-193V0Z" 
id="f0_e"
transform="scale(0.001,-0.001)" />

<path d="M408,93c0,0,115,0,184,81c0,0,69,81,69,215v30H524c0,0,-167,0,-231,-38c0,0,-64,-38,-64,-129c0,0,0,-73,48,-116c0,0,48,-43,131,-43ZM372,-20c0,0,-128,0,-204,70c0,0,-76,72,-76,193c0,0,0,141,94,212c0,0,95,72,282,72H661v13c0,0,0,95,-62,147c0,0,-63,52,-175,52c0,0,-72,0,-140,-17c0,0,-68,-17,-130,-51V798c0,0,75,29,146,43c0,0,71,15,138,15c0,0,181,0,270,-95c0,0,90,-94,90,-285V0H661V127C661,127,614,51,544,15c0,0,-70,-35,-172,-35Z" 
id="f0_8"
transform="scale(0.001,-0.001)" />

<path d="M510,93c0,0,109,0,171,86c0,0,62,86,62,238c0,0,0,151,-62,237c0,0,-62,86,-171,86c0,0,-109,0,-171,-86c0,0,-62,-86,-62,-237c0,0,0,-152,62,-238c0,0,62,-86,171,-86ZM544,-20c0,0,-92,0,-158,35c0,0,-66,36,-109,110V0H139V1161H277V709c0,0,43,74,109,110c0,0,66,37,158,37c0,0,152,0,247,-121c0,0,95,-121,95,-318c0,0,0,-197,-95,-318C791,99,696,-20,544,-20Z" 
id="f0_x"
transform="scale(0.001,-0.001)" />

<path d="M424,-20c0,0,-145,0,-219,88c0,0,-75,89,-75,262V836H267V335c0,0,0,-119,46,-178c0,0,47,-59,139,-59c0,0,112,0,177,71c0,0,64,71,64,193V836H830V0H693V128C693,128,643,52,577,15c0,0,-66,-35,-153,-35Z" 
id="f0_k"
transform="scale(0.001,-0.001)" />

<path d="M139,0V1161H277V706c0,0,49,75,116,112c0,0,67,38,154,38c0,0,144,0,218,-90c0,0,74,-89,74,-262V0H702V500c0,0,0,119,-46,177c0,0,-47,59,-139,59c0,0,-112,0,-176,-71c0,0,-64,-70,-64,-193V0Z" 
id="f0_7"
transform="scale(0.001,-0.001)" />

<path d="M510,93c0,0,109,0,171,86c0,0,62,86,62,238c0,0,0,151,-62,237c0,0,-62,86,-171,86c0,0,-109,0,-171,-86c0,0,-62,-86,-62,-237c0,0,0,-152,62,-238c0,0,62,-86,171,-86ZM139,-317V836H277V709c0,0,43,74,109,110c0,0,66,37,158,37c0,0,152,0,247,-121c0,0,95,-121,95,-318c0,0,0,-197,-95,-318C791,99,696,-20,544,-20c0,0,-92,0,-158,35c0,0,-66,36,-109,110V-317Z" 
id="f0_s"
transform="scale(0.001,-0.001)" />

<path d="M376,-20c0,0,-67,0,-140,12C236,-8,164,4,83,30V172c0,0,76,-40,150,-59c0,0,74,-20,146,-20c0,0,97,0,150,33c0,0,52,33,52,94c0,0,0,56,-38,85c0,0,-38,30,-165,58l-48,11c0,0,-128,27,-184,83c0,0,-57,55,-57,152c0,0,0,118,83,182c0,0,84,65,238,65c0,0,76,0,143,-12c0,0,67,-11,124,-33V681c0,0,-58,29,-121,44c0,0,-63,15,-130,15c0,0,-102,0,-153,-31c0,0,-51,-31,-51,-94c0,0,0,-48,37,-75c0,0,36,-27,147,-52l46,-10c0,0,147,-32,208,-89c0,0,62,-57,62,-159c0,0,0,-116,-93,-184c0,0,-92,-66,-253,-66Z" 
id="f0_9"
transform="scale(0.001,-0.001)" />

<path d="M163,0V190H321V0Z" 
id="f0_l"
transform="scale(0.001,-0.001)" />

<path d="M150,0V1114H353L846,182v932H992V0H789L296,932V0Z" 
id="f0_10"
transform="scale(0.001,-0.001)" />

<path d="M283,0L65,836H202L373,184L544,836H706L878,184l171,652h137L967,0H806L626,685L445,0Z" 
id="f0_n"
transform="scale(0.001,-0.001)" />

<path d="M121,-317v116h81c0,0,57,0,88,26c0,0,31,27,69,127l25,62L46,836H191L453,182L714,836H859L492,-76c0,0,-58,-150,-113,-195c0,0,-55,-46,-148,-46Z" 
id="f0_p"
transform="scale(0.001,-0.001)" />

<path d="M460,93c0,0,109,0,171,86c0,0,63,86,63,238c0,0,0,151,-63,237c0,0,-62,86,-171,86c0,0,-109,0,-172,-86c0,0,-62,-86,-62,-237c0,0,0,-152,62,-238c0,0,63,-86,172,-86ZM426,-20c0,0,-151,0,-247,119c0,0,-95,121,-95,318c0,0,0,197,95,318c0,0,96,121,247,121c0,0,93,0,159,-37c0,0,66,-36,109,-110v452H831V0H694V125C694,125,651,51,585,15c0,0,-66,-35,-159,-35Z" 
id="f0_f"
transform="scale(0.001,-0.001)" />

<path d="M391,0V530L-2,1114H159L468,656l307,458H937L543,530V0Z" 
id="f0_1r"
transform="scale(0.001,-0.001)" />

<path d="M460,115c0,0,111,0,173,82c0,0,61,82,61,230c0,0,0,149,-61,231c0,0,-62,82,-173,82c0,0,-111,0,-173,-82c0,0,-61,-82,-61,-231c0,0,0,-148,61,-230c0,0,62,-82,173,-82ZM446,-317c0,0,-72,0,-137,11c0,0,-64,11,-124,33v134c0,0,60,-33,119,-49c0,0,59,-15,121,-15c0,0,135,0,202,70c0,0,67,71,67,212v68C694,147,652,73,585,36C585,36,519,0,426,0C426,0,272,0,178,117c0,0,-94,117,-94,310c0,0,0,194,94,311c0,0,94,118,248,118c0,0,93,0,159,-37c0,0,67,-36,109,-110V836H831V104c0,0,0,-212,-95,-317c0,0,-94,-104,-290,-104Z" 
id="f0_q"
transform="scale(0.001,-0.001)" />

<path d="M128,0V1161H395V713c0,0,60,73,128,108c0,0,68,35,150,35c0,0,145,0,220,-89c0,0,75,-89,75,-258V0H699V388c0,0,0,110,-5,151c0,0,-5,41,-16,60c0,0,-16,26,-43,41c0,0,-27,14,-61,14c0,0,-84,0,-131,-64c0,0,-48,-65,-48,-179V0Z" 
id="f1_17"
transform="scale(0.001,-0.001)" />

<path d="M520,194c0,0,84,0,130,61c0,0,46,61,46,172c0,0,0,112,-46,174c0,0,-46,61,-130,61c0,0,-82,0,-129,-61c0,0,-46,-62,-46,-174c0,0,0,-115,45,-174c0,0,45,-59,130,-59ZM469,-328c0,0,-78,0,-151,12c0,0,-73,12,-147,36V-71c0,0,70,-41,137,-61c0,0,67,-20,135,-20c0,0,131,0,192,58c0,0,61,57,61,178v58C696,142,641,69,575,34C575,34,508,0,421,0C421,0,268,0,168,121C168,121,68,241,68,428c0,0,0,187,100,307c0,0,100,120,253,120c0,0,87,0,154,-35c0,0,66,-34,121,-108V836H965V84c0,0,0,-200,-127,-306c0,0,-127,-106,-369,-106Z" 
id="f1_7"
transform="scale(0.001,-0.001)" />

<path d="M542,124c0,0,121,0,180,50c0,0,58,51,58,154c0,0,0,105,-58,154c0,0,-59,50,-180,50H300V124ZM523,654c0,0,111,0,165,41c0,0,54,42,54,127c0,0,0,84,-54,126c0,0,-54,42,-165,42H300V654ZM150,0V1114H535c0,0,172,0,265,-72c0,0,94,-72,94,-204c0,0,0,-102,-48,-162c0,0,-48,-61,-140,-76c0,0,111,-23,172,-99c0,0,62,-76,62,-189c0,0,0,-149,-102,-231C838,81,737,0,550,0Z" 
id="f0_m"
transform="scale(0.001,-0.001)" />

<path d="M117,-176L179,62V190H336V62L213,-176Z" 
id="f0_4"
transform="scale(0.001,-0.001)" />

<path d="M-26,-317v117H9c0,0,78,0,106,36c0,0,29,36,29,150V836H281V-14c0,0,0,-160,-61,-231c0,0,-61,-72,-195,-72ZM144,987v174H281V987Z" 
id="f0_y"
transform="scale(0.001,-0.001)" />

<path d="M74,365V472H1453V365Z" 
id="f0_1a"
transform="scale(0.001,-0.001)" />

<path d="M482,124c0,0,231,0,338,105c0,0,107,104,107,329c0,0,0,224,-107,328c0,0,-107,104,-338,104H300V124ZM150,0V1114H459c0,0,324,0,476,-135c0,0,151,-135,151,-421c0,0,0,-288,-152,-423C934,135,782,0,459,0Z" 
id="f0_15"
transform="scale(0.001,-0.001)" />

<path d="M117,-176L179,62V190H336V62L213,-176Zm62,776V790H336V600Z" 
id="f0_26"
transform="scale(0.001,-0.001)" />

<path d="M150,0V1114H854V987H300V657H831V530H300V127H867V0Z" 
id="f0_1d"
transform="scale(0.001,-0.001)" />

<path d="M130,747V876l123,238h96L287,876V747Zm306,0V876l123,238h96L594,876V747Z" 
id="f0_1b"
transform="scale(0.001,-0.001)" />

<path d="M129,747l62,239v128H348V986L225,747Zm306,0l62,239v128H654V986L531,747Z" 
id="f0_1c"
transform="scale(0.001,-0.001)" />

<path d="M630,-20c0,0,-253,0,-398,153C232,133,86,288,86,556c0,0,0,269,146,423c0,0,145,155,398,155c0,0,100,0,189,-26c0,0,88,-27,166,-79V869c0,0,-76,71,-163,106c0,0,-86,35,-183,35c0,0,-191,0,-292,-117C347,893,245,777,245,556c0,0,0,-220,102,-337c0,0,101,-116,292,-116c0,0,97,0,183,35c0,0,87,35,163,105V86C985,86,906,32,817,5c0,0,-88,-25,-187,-25Z" 
id="f0_1f"
transform="scale(0.001,-0.001)" />

<path d="M139,0V1161H277V475L686,836H861L418,445L880,0H701L277,408V0Z" 
id="f0_i"
transform="scale(0.001,-0.001)" />

<path d="M602,101c0,0,164,0,260,122c0,0,95,123,95,333c0,0,0,211,-95,334c0,0,-96,122,-260,122c0,0,-164,0,-260,-122c0,0,-97,-123,-97,-334c0,0,0,-210,97,-333c0,0,96,-122,260,-122Zm0,-121c0,0,-235,0,-375,155C227,135,86,292,86,556c0,0,0,264,141,421c0,0,140,157,375,157c0,0,234,0,374,-157c0,0,141,-157,141,-421c0,0,0,-263,-141,-420C976,136,836,-20,602,-20Z" 
id="f0_2"
transform="scale(0.001,-0.001)" />

<path d="M132,763l62,237v114H351V1000L228,763Z" 
id="f0_r"
transform="scale(0.001,-0.001)" />

<path d="M545,-20c0,0,-106,0,-212,20C333,0,226,19,119,58V301c0,0,107,-57,207,-85c0,0,99,-29,192,-29c0,0,94,0,144,31c0,0,50,31,50,90c0,0,0,52,-34,80c0,0,-34,29,-136,51L431,464c0,0,-167,35,-244,114c0,0,-77,78,-77,211c0,0,0,166,107,256c0,0,107,89,309,89c0,0,92,0,189,-14c0,0,97,-13,200,-41V843c0,0,-92,41,-179,62c0,0,-87,21,-165,21c0,0,-103,0,-152,-28c0,0,-49,-29,-49,-88c0,0,0,-45,33,-70c0,0,33,-25,121,-43L646,672c0,0,186,-37,264,-113c0,0,79,-76,79,-216c0,0,0,-185,-110,-275c0,0,-109,-88,-334,-88Z" 
id="f1_9"
transform="scale(0.001,-0.001)" />

<path d="M352,0L23,836H291L499,258L706,836H974L645,0Z" 
id="f1_x"
transform="scale(0.001,-0.001)" />

<path d="M179,0V190H336V0Zm0,600V790H336V600Z" 
id="f0_1e"
transform="scale(0.001,-0.001)" />


</defs>
</svg>