<?xml version="1.0" encoding="UTF-8" standalone="no"?>
<!DOCTYPE svg PUBLIC "-//W3C//DTD SVG 1.1//EN"
"http://www.w3.org/Graphics/SVG/1.1/DTD/svg11.dtd">
<svg viewBox="0 0 909 1286" version="1.1" xmlns="http://www.w3.org/2000/svg" xmlns:xlink="http://www.w3.org/1999/xlink">
<defs>
<clipPath id="c0_1"><path d="M0,1286.2V.2H909.3v1286Z" /></clipPath>
<style type="text/css"><![CDATA[
.g0_1{
fill: #00FF00;
}
]]></style>
</defs>
<path fill-rule="evenodd" d="M86.6,139.6H349.2V105H86.6v34.6Z" class="g0_1" />
<g clip-path="url(#c0_1)">
<g fill="#0000FF" >
<use xlink:href="#f0_2" transform="matrix(19.5,0,0,19.5,86.8,132.6)" />
<use xlink:href="#f0_3" transform="matrix(19.5,0,0,19.5,111.2,132.6)" />
<use xlink:href="#f0_4" transform="matrix(19.5,0,0,19.5,131.4,132.6)" />
<use xlink:href="#f0_4" transform="matrix(19.5,0,0,19.5,145.7,132.6)" />
<use xlink:href="#f0_5" transform="matrix(19.5,0,0,19.5,159.9,132.6)" />
<use xlink:href="#f0_6" transform="matrix(19.5,0,0,19.5,170.1,132.6)" />
<use xlink:href="#f0_7" transform="matrix(19.5,0,0,19.5,191.2,132.6)" />
<use xlink:href="#f0_9" transform="matrix(19.5,0,0,19.5,223,132.6)" />
<use xlink:href="#f0_4" transform="matrix(19.5,0,0,19.5,244.3,132.6)" />
<use xlink:href="#f0_a" transform="matrix(19.5,0,0,19.5,258.6,132.6)" />
<use xlink:href="#f0_b" transform="matrix(19.5,0,0,19.5,278.7,132.6)" />
<use xlink:href="#f0_4" transform="matrix(19.5,0,0,19.5,293.4,132.6)" />
<use xlink:href="#f0_3" transform="matrix(19.5,0,0,19.5,307.7,132.6)" />
<use xlink:href="#f0_c" transform="matrix(19.5,0,0,19.5,327.9,132.6)" />
</g>
<g fill="#000000" >
<use xlink:href="#f1_2" transform="matrix(12,0,0,12,86.8,173.1)" />
<use xlink:href="#f1_3" transform="matrix(12,0,0,12,101.1,173.1)" />
<use xlink:href="#f1_4" transform="matrix(12,0,0,12,113.2,173.1)" />
<use xlink:href="#f1_6" transform="matrix(12,0,0,12,124.9,173.1)" />
<use xlink:href="#f1_7" transform="matrix(12,0,0,12,132.1,173.1)" />
<use xlink:href="#f1_8" transform="matrix(12,0,0,12,143.6,173.1)" />
<use xlink:href="#f1_6" transform="matrix(12,0,0,12,154.9,173.1)" />
<use xlink:href="#f1_9" transform="matrix(12,0,0,12,168,173.1)" />
<use xlink:href="#f1_a" transform="matrix(12,0,0,12,177.5,173.1)" />
<use xlink:href="#f1_b" transform="matrix(12,0,0,12,188.8,173.1)" />
<use xlink:href="#f1_6" transform="matrix(12,0,0,12,198.8,173.1)" />
<use xlink:href="#f1_c" transform="matrix(12,0,0,12,206,173.1)" />
<use xlink:href="#f1_d" transform="matrix(12,0,0,12,211.1,173.1)" />
<use xlink:href="#f1_e" transform="matrix(12,0,0,12,222.2,173.1)" />
<use xlink:href="#f1_7" transform="matrix(12,0,0,12,239.8,173.1)" />
<use xlink:href="#f1_a" transform="matrix(12,0,0,12,251.4,173.1)" />
<use xlink:href="#f1_8" transform="matrix(12,0,0,12,262.5,173.1)" />
<use xlink:href="#f1_f" transform="matrix(12,0,0,12,273.8,173.1)" />
<use xlink:href="#f1_a" transform="matrix(12,0,0,12,285.4,173.1)" />
<use xlink:href="#f1_g" transform="matrix(12,0,0,12,296.7,173.1)" />
<use xlink:href="#f1_c" transform="matrix(12,0,0,12,310.2,173.1)" />
<use xlink:href="#f1_9" transform="matrix(12,0,0,12,315.2,173.1)" />
<use xlink:href="#f1_8" transform="matrix(12,0,0,12,330.6,173.1)" />
<use xlink:href="#f1_h" transform="matrix(12,0,0,12,347.7,173.1)" />
<use xlink:href="#f1_8" transform="matrix(12,0,0,12,354,173.1)" />
<use xlink:href="#f1_i" transform="matrix(12,0,0,12,365.3,173.1)" />
<use xlink:href="#f1_a" transform="matrix(12,0,0,12,375.2,173.1)" />
<use xlink:href="#f1_j" transform="matrix(12,0,0,12,386.6,173.1)" />
<use xlink:href="#f1_d" transform="matrix(12,0,0,12,393.5,173.1)" />
<use xlink:href="#f1_k" transform="matrix(12,0,0,12,404.6,173.1)" />
<use xlink:href="#f1_6" transform="matrix(12,0,0,12,416.2,173.1)" />
<use xlink:href="#f1_l" transform="matrix(12,0,0,12,423.4,173.1)" />
<use xlink:href="#f1_m" transform="matrix(12,0,0,12,435.2,173.1)" />
<use xlink:href="#f1_a" transform="matrix(12,0,0,12,447.7,173.1)" />
<use xlink:href="#f1_h" transform="matrix(12,0,0,12,459,173.1)" />
<use xlink:href="#f1_d" transform="matrix(12,0,0,12,465.4,173.1)" />
<use xlink:href="#f1_g" transform="matrix(12,0,0,12,476.7,173.1)" />
<use xlink:href="#f1_a" transform="matrix(12,0,0,12,483.7,173.1)" />
<use xlink:href="#f1_n" transform="matrix(12,0,0,12,500.8,173.1)" />
<use xlink:href="#f1_a" transform="matrix(12,0,0,12,515.8,173.1)" />
<use xlink:href="#f1_8" transform="matrix(12,0,0,12,533,173.1)" />
<use xlink:href="#f1_b" transform="matrix(12,0,0,12,544.2,173.1)" />
<use xlink:href="#f1_6" transform="matrix(12,0,0,12,554.3,173.1)" />
<use xlink:href="#f1_k" transform="matrix(12,0,0,12,561.4,173.1)" />
<use xlink:href="#f1_8" transform="matrix(12,0,0,12,573.1,173.1)" />
<use xlink:href="#f1_o" transform="matrix(12,0,0,12,584.3,173.1)" />
<use xlink:href="#f1_o" transform="matrix(12,0,0,12,589.4,173.1)" />
<use xlink:href="#f1_p" transform="matrix(12,0,0,12,594.4,173.1)" />
<use xlink:href="#f1_q" transform="matrix(12,0,0,12,611.2,173.1)" />
<use xlink:href="#f1_a" transform="matrix(12,0,0,12,622.8,173.1)" />
<use xlink:href="#f1_6" transform="matrix(12,0,0,12,634.1,173.1)" />
<use xlink:href="#f1_9" transform="matrix(12,0,0,12,647.1,173.1)" />
<use xlink:href="#f1_6" transform="matrix(12,0,0,12,656.6,173.1)" />
<use xlink:href="#f1_8" transform="matrix(12,0,0,12,663.8,173.1)" />
<use xlink:href="#f1_g" transform="matrix(12,0,0,12,675.1,173.1)" />
<use xlink:href="#f1_6" transform="matrix(12,0,0,12,682.5,173.1)" />
<use xlink:href="#f1_a" transform="matrix(12,0,0,12,689.7,173.1)" />
<use xlink:href="#f1_f" transform="matrix(12,0,0,12,701,173.1)" />
<use xlink:href="#f1_4" transform="matrix(12,0,0,12,712.6,173.1)" />
<use xlink:href="#f1_6" transform="matrix(12,0,0,12,724.4,173.1)" />
<use xlink:href="#f1_7" transform="matrix(12,0,0,12,731.6,173.1)" />
<use xlink:href="#f1_a" transform="matrix(12,0,0,12,743.2,173.1)" />
<use xlink:href="#f1_g" transform="matrix(12,0,0,12,754.5,173.1)" />
<use xlink:href="#f1_a" transform="matrix(12,0,0,12,761.5,173.1)" />
<use xlink:href="#f1_r" transform="matrix(12,0,0,12,772.8,173.1)" />
<use xlink:href="#f1_9" transform="matrix(12,0,0,12,778.6,173.1)" />
<use xlink:href="#f1_8" transform="matrix(12,0,0,12,794,173.1)" />
<use xlink:href="#f1_e" transform="matrix(12,0,0,12,805.3,173.1)" />
<use xlink:href="#f1_a" transform="matrix(12,0,0,12,86.8,201.8)" />
<use xlink:href="#f1_8" transform="matrix(12,0,0,12,98.1,201.8)" />
<use xlink:href="#f1_9" transform="matrix(12,0,0,12,109.2,201.8)" />
<use xlink:href="#f1_c" transform="matrix(12,0,0,12,118.8,201.8)" />
<use xlink:href="#f1_a" transform="matrix(12,0,0,12,123.9,201.8)" />
<use xlink:href="#f1_g" transform="matrix(12,0,0,12,135.2,201.8)" />
<use xlink:href="#f1_n" transform="matrix(12,0,0,12,148.6,201.8)" />
<use xlink:href="#f1_8" transform="matrix(12,0,0,12,163.4,201.8)" />
<use xlink:href="#f1_p" transform="matrix(12,0,0,12,174.7,201.8)" />
<use xlink:href="#f1_6" transform="matrix(12,0,0,12,191.5,201.8)" />
<use xlink:href="#f1_d" transform="matrix(12,0,0,12,198.7,201.8)" />
<use xlink:href="#f1_q" transform="matrix(12,0,0,12,215.6,201.8)" />
<use xlink:href="#f1_a" transform="matrix(12,0,0,12,227.2,201.8)" />
<use xlink:href="#f1_6" transform="matrix(12,0,0,12,238.5,201.8)" />
<use xlink:href="#f1_p" transform="matrix(12,0,0,12,251.6,201.8)" />
<use xlink:href="#f1_d" transform="matrix(12,0,0,12,262.5,201.8)" />
<use xlink:href="#f1_k" transform="matrix(12,0,0,12,273.6,201.8)" />
<use xlink:href="#f1_g" transform="matrix(12,0,0,12,285.2,201.8)" />
<use xlink:href="#f1_8" transform="matrix(12,0,0,12,298.7,201.8)" />
<use xlink:href="#f1_s" transform="matrix(12,0,0,12,309.8,201.8)" />
<use xlink:href="#f1_s" transform="matrix(12,0,0,12,321.4,201.8)" />
<use xlink:href="#f1_9" transform="matrix(12,0,0,12,333,201.8)" />
<use xlink:href="#f1_g" transform="matrix(12,0,0,12,348.4,201.8)" />
<use xlink:href="#f1_k" transform="matrix(12,0,0,12,355.9,201.8)" />
<use xlink:href="#f1_e" transform="matrix(12,0,0,12,367.5,201.8)" />
<use xlink:href="#f1_e" transform="matrix(12,0,0,12,379.1,201.8)" />
<use xlink:href="#f1_c" transform="matrix(12,0,0,12,390.7,201.8)" />
<use xlink:href="#f1_e" transform="matrix(12,0,0,12,395.9,201.8)" />
<use xlink:href="#f1_q" transform="matrix(12,0,0,12,407.5,201.8)" />
<use xlink:href="#f1_d" transform="matrix(12,0,0,12,424.9,201.8)" />
<use xlink:href="#f1_e" transform="matrix(12,0,0,12,436.1,201.8)" />
<use xlink:href="#f1_p" transform="matrix(12,0,0,12,453.6,201.8)" />
<use xlink:href="#f1_d" transform="matrix(12,0,0,12,464.5,201.8)" />
<use xlink:href="#f1_k" transform="matrix(12,0,0,12,475.6,201.8)" />
<use xlink:href="#f1_g" transform="matrix(12,0,0,12,487.2,201.8)" />
<use xlink:href="#f1_f" transform="matrix(12,0,0,12,500.7,201.8)" />
<use xlink:href="#f1_a" transform="matrix(12,0,0,12,512.3,201.8)" />
<use xlink:href="#f1_t" transform="matrix(12,0,0,12,523.6,201.8)" />
<use xlink:href="#f1_c" transform="matrix(12,0,0,12,534.4,201.8)" />
<use xlink:href="#f1_b" transform="matrix(12,0,0,12,539.4,201.8)" />
<use xlink:href="#f1_a" transform="matrix(12,0,0,12,549.5,201.8)" />
<use xlink:href="#f1_9" transform="matrix(12,0,0,12,560.8,201.8)" />
<use xlink:href="#f1_4" transform="matrix(12,0,0,12,570.4,201.8)" />
<use xlink:href="#f1_g" transform="matrix(12,0,0,12,582,201.8)" />
<use xlink:href="#f1_8" transform="matrix(12,0,0,12,589.5,201.8)" />
<use xlink:href="#f1_6" transform="matrix(12,0,0,12,600.8,201.8)" />
<use xlink:href="#f1_7" transform="matrix(12,0,0,12,608,201.8)" />
<use xlink:href="#f1_a" transform="matrix(12,0,0,12,619.6,201.8)" />
<use xlink:href="#f1_g" transform="matrix(12,0,0,12,630.9,201.8)" />
<use xlink:href="#f1_6" transform="matrix(12,0,0,12,644.2,201.8)" />
<use xlink:href="#f1_7" transform="matrix(12,0,0,12,651.4,201.8)" />
<use xlink:href="#f1_8" transform="matrix(12,0,0,12,663,201.8)" />
<use xlink:href="#f1_e" transform="matrix(12,0,0,12,674.3,201.8)" />
<use xlink:href="#f1_9" transform="matrix(12,0,0,12,691.7,201.8)" />
<use xlink:href="#f1_a" transform="matrix(12,0,0,12,701.3,201.8)" />
<use xlink:href="#f1_6" transform="matrix(12,0,0,12,712.6,201.8)" />
<use xlink:href="#f1_6" transform="matrix(12,0,0,12,719.8,201.8)" />
<use xlink:href="#f1_c" transform="matrix(12,0,0,12,726.9,201.8)" />
<use xlink:href="#f1_e" transform="matrix(12,0,0,12,732,201.8)" />
<use xlink:href="#f1_q" transform="matrix(12,0,0,12,743.6,201.8)" />
<use xlink:href="#f1_k" transform="matrix(12,0,0,12,761.1,201.8)" />
<use xlink:href="#f1_s" transform="matrix(12,0,0,12,772.7,201.8)" />
<use xlink:href="#f1_6" transform="matrix(12,0,0,12,790.2,201.8)" />
<use xlink:href="#f1_7" transform="matrix(12,0,0,12,797.3,201.8)" />
<use xlink:href="#f1_a" transform="matrix(12,0,0,12,808.9,201.8)" />
<use xlink:href="#f1_s" transform="matrix(12,0,0,12,86.8,230.4)" />
<use xlink:href="#f1_g" transform="matrix(12,0,0,12,98.5,230.4)" />
<use xlink:href="#f1_d" transform="matrix(12,0,0,12,105.6,230.4)" />
<use xlink:href="#f1_t" transform="matrix(12,0,0,12,116.7,230.4)" />
<use xlink:href="#f1_c" transform="matrix(12,0,0,12,127.5,230.4)" />
<use xlink:href="#f1_9" transform="matrix(12,0,0,12,132.6,230.4)" />
<use xlink:href="#f1_c" transform="matrix(12,0,0,12,142.2,230.4)" />
<use xlink:href="#f1_d" transform="matrix(12,0,0,12,147.4,230.4)" />
<use xlink:href="#f1_e" transform="matrix(12,0,0,12,158.5,230.4)" />
<use xlink:href="#f1_c" transform="matrix(12,0,0,12,170.1,230.4)" />
<use xlink:href="#f1_e" transform="matrix(12,0,0,12,175.1,230.4)" />
<use xlink:href="#f1_q" transform="matrix(12,0,0,12,186.7,230.4)" />
<use xlink:href="#f1_s" transform="matrix(12,0,0,12,204.3,230.4)" />
<use xlink:href="#f1_g" transform="matrix(12,0,0,12,215.9,230.4)" />
<use xlink:href="#f1_d" transform="matrix(12,0,0,12,223.1,230.4)" />
<use xlink:href="#f1_h" transform="matrix(12,0,0,12,234.3,230.4)" />
<use xlink:href="#f1_c" transform="matrix(12,0,0,12,240.7,230.4)" />
<use xlink:href="#f1_o" transform="matrix(12,0,0,12,245.8,230.4)" />
<use xlink:href="#f1_a" transform="matrix(12,0,0,12,250.9,230.4)" />
<use xlink:href="#f1_9" transform="matrix(12,0,0,12,262,230.4)" />
<use xlink:href="#f1_u" transform="matrix(12,0,0,12,277.6,230.4)" />
<use xlink:href="#f1_8" transform="matrix(12,0,0,12,295.3,230.4)" />
<use xlink:href="#f1_e" transform="matrix(12,0,0,12,306.6,230.4)" />
<use xlink:href="#f1_k" transform="matrix(12,0,0,12,318.2,230.4)" />
<use xlink:href="#f1_8" transform="matrix(12,0,0,12,329.8,230.4)" />
<use xlink:href="#f1_o" transform="matrix(12,0,0,12,341.1,230.4)" />
<use xlink:href="#f1_o" transform="matrix(12,0,0,12,346.1,230.4)" />
<use xlink:href="#f1_p" transform="matrix(12,0,0,12,351.2,230.4)" />
<use xlink:href="#f1_o" transform="matrix(12,0,0,12,368,230.4)" />
<use xlink:href="#f1_c" transform="matrix(12,0,0,12,373,230.4)" />
<use xlink:href="#f1_i" transform="matrix(12,0,0,12,377.9,230.4)" />
<use xlink:href="#f1_a" transform="matrix(12,0,0,12,388,230.4)" />
<use xlink:href="#f1_p" transform="matrix(12,0,0,12,405.1,230.4)" />
<use xlink:href="#f1_d" transform="matrix(12,0,0,12,415.9,230.4)" />
<use xlink:href="#f1_k" transform="matrix(12,0,0,12,427.1,230.4)" />
<use xlink:href="#f1_f" transform="matrix(12,0,0,12,444.6,230.4)" />
<use xlink:href="#f1_c" transform="matrix(12,0,0,12,456.2,230.4)" />
<use xlink:href="#f1_f" transform="matrix(12,0,0,12,461.3,230.4)" />
<use xlink:href="#f1_c" transform="matrix(12,0,0,12,478.8,230.4)" />
<use xlink:href="#f1_e" transform="matrix(12,0,0,12,483.9,230.4)" />
<use xlink:href="#f1_s" transform="matrix(12,0,0,12,501.4,230.4)" />
<use xlink:href="#f1_8" transform="matrix(12,0,0,12,512.9,230.4)" />
<use xlink:href="#f1_g" transform="matrix(12,0,0,12,524.2,230.4)" />
<use xlink:href="#f1_6" transform="matrix(12,0,0,12,531.7,230.4)" />
<use xlink:href="#f1_v" transform="matrix(12,0,0,12,544.8,230.4)" />
<use xlink:href="#f1_l" transform="matrix(12,0,0,12,556.4,230.4)" />
<use xlink:href="#f1_w" transform="matrix(12,0,0,12,86.8,287.7)" />
<use xlink:href="#f1_7" transform="matrix(12,0,0,12,97.9,287.7)" />
<use xlink:href="#f1_a" transform="matrix(12,0,0,12,109.5,287.7)" />
<use xlink:href="#f1_6" transform="matrix(12,0,0,12,126.8,287.7)" />
<use xlink:href="#f1_g" transform="matrix(12,0,0,12,134,287.7)" />
<use xlink:href="#f1_k" transform="matrix(12,0,0,12,141.4,287.7)" />
<use xlink:href="#f1_6" transform="matrix(12,0,0,12,153.1,287.7)" />
<use xlink:href="#f1_7" transform="matrix(12,0,0,12,160.2,287.7)" />
<use xlink:href="#f1_c" transform="matrix(12,0,0,12,177.8,287.7)" />
<use xlink:href="#f1_9" transform="matrix(12,0,0,12,182.7,287.7)" />
<use xlink:href="#f1_4" transform="matrix(12,0,0,12,192.3,287.7)" />
<use xlink:href="#f1_c" transform="matrix(12,0,0,12,204,287.7)" />
<use xlink:href="#f1_e" transform="matrix(12,0,0,12,209.1,287.7)" />
<use xlink:href="#f1_9" transform="matrix(12,0,0,12,226.5,287.7)" />
<use xlink:href="#f1_d" transform="matrix(12,0,0,12,236.1,287.7)" />
<use xlink:href="#f1_u" transform="matrix(12,0,0,12,247.2,287.7)" />
<use xlink:href="#f1_a" transform="matrix(12,0,0,12,265.1,287.7)" />
<use xlink:href="#f1_9" transform="matrix(12,0,0,12,282.2,287.7)" />
<use xlink:href="#f1_c" transform="matrix(12,0,0,12,291.8,287.7)" />
<use xlink:href="#f1_6" transform="matrix(12,0,0,12,296.9,287.7)" />
<use xlink:href="#f1_k" transform="matrix(12,0,0,12,304,287.7)" />
<use xlink:href="#f1_8" transform="matrix(12,0,0,12,315.7,287.7)" />
<use xlink:href="#f1_6" transform="matrix(12,0,0,12,326.9,287.7)" />
<use xlink:href="#f1_c" transform="matrix(12,0,0,12,334.1,287.7)" />
<use xlink:href="#f1_d" transform="matrix(12,0,0,12,339.2,287.7)" />
<use xlink:href="#f1_e" transform="matrix(12,0,0,12,350.3,287.7)" />
<use xlink:href="#f1_9" transform="matrix(12,0,0,12,361.9,287.7)" />
<use xlink:href="#f1_4" transform="matrix(12,0,0,12,371.5,287.7)" />
<use xlink:href="#f1_9" transform="matrix(12,0,0,12,383.2,287.7)" />
<use xlink:href="#f1_k" transform="matrix(12,0,0,12,392.8,287.7)" />
<use xlink:href="#f1_b" transform="matrix(12,0,0,12,404.4,287.7)" />
<use xlink:href="#f1_7" transform="matrix(12,0,0,12,414.4,287.7)" />
<use xlink:href="#f1_8" transform="matrix(12,0,0,12,431.8,287.7)" />
<use xlink:href="#f1_9" transform="matrix(12,0,0,12,443.1,287.7)" />
<use xlink:href="#f1_n" transform="matrix(12,0,0,12,458.4,287.7)" />
<use xlink:href="#f1_7" transform="matrix(12,0,0,12,473.4,287.7)" />
<use xlink:href="#f1_a" transform="matrix(12,0,0,12,485,287.7)" />
<use xlink:href="#f1_e" transform="matrix(12,0,0,12,496.3,287.7)" />
<use xlink:href="#f1_n" transform="matrix(12,0,0,12,513.9,287.7)" />
<use xlink:href="#f1_d" transform="matrix(12,0,0,12,528.8,287.7)" />
<use xlink:href="#f1_g" transform="matrix(12,0,0,12,540,287.7)" />
<use xlink:href="#f1_i" transform="matrix(12,0,0,12,547.5,287.7)" />
<use xlink:href="#f1_c" transform="matrix(12,0,0,12,558.1,287.7)" />
<use xlink:href="#f1_e" transform="matrix(12,0,0,12,563.2,287.7)" />
<use xlink:href="#f1_q" transform="matrix(12,0,0,12,574.8,287.7)" />
<use xlink:href="#f1_n" transform="matrix(12,0,0,12,592.4,287.7)" />
<use xlink:href="#f1_c" transform="matrix(12,0,0,12,607.3,287.7)" />
<use xlink:href="#f1_6" transform="matrix(12,0,0,12,612.4,287.7)" />
<use xlink:href="#f1_7" transform="matrix(12,0,0,12,619.6,287.7)" />
<use xlink:href="#f1_u" transform="matrix(12,0,0,12,637.1,287.7)" />
<use xlink:href="#f1_d" transform="matrix(12,0,0,12,655,287.7)" />
<use xlink:href="#f1_g" transform="matrix(12,0,0,12,666.1,287.7)" />
<use xlink:href="#f1_a" transform="matrix(12,0,0,12,673.2,287.7)" />
<use xlink:href="#f1_6" transform="matrix(12,0,0,12,690.4,287.7)" />
<use xlink:href="#f1_7" transform="matrix(12,0,0,12,697.6,287.7)" />
<use xlink:href="#f1_8" transform="matrix(12,0,0,12,709,287.7)" />
<use xlink:href="#f1_e" transform="matrix(12,0,0,12,720.3,287.7)" />
<use xlink:href="#f1_d" transform="matrix(12,0,0,12,737.9,287.7)" />
<use xlink:href="#f1_e" transform="matrix(12,0,0,12,749,287.7)" />
<use xlink:href="#f1_a" transform="matrix(12,0,0,12,760.6,287.7)" />
<use xlink:href="#f1_f" transform="matrix(12,0,0,12,86.8,316.4)" />
<use xlink:href="#f1_a" transform="matrix(12,0,0,12,98.4,316.4)" />
<use xlink:href="#f1_t" transform="matrix(12,0,0,12,109.7,316.4)" />
<use xlink:href="#f1_a" transform="matrix(12,0,0,12,120.5,316.4)" />
<use xlink:href="#f1_o" transform="matrix(12,0,0,12,131.8,316.4)" />
<use xlink:href="#f1_d" transform="matrix(12,0,0,12,136.8,316.4)" />
<use xlink:href="#f1_s" transform="matrix(12,0,0,12,148.1,316.4)" />
<use xlink:href="#f1_a" transform="matrix(12,0,0,12,159.7,316.4)" />
<use xlink:href="#f1_g" transform="matrix(12,0,0,12,171,316.4)" />
<use xlink:href="#f1_8" transform="matrix(12,0,0,12,184.3,316.4)" />
<use xlink:href="#f1_b" transform="matrix(12,0,0,12,195.6,316.4)" />
<use xlink:href="#f1_b" transform="matrix(12,0,0,12,205.7,316.4)" />
<use xlink:href="#f1_d" transform="matrix(12,0,0,12,215.8,316.4)" />
<use xlink:href="#f1_k" transform="matrix(12,0,0,12,226.9,316.4)" />
<use xlink:href="#f1_e" transform="matrix(12,0,0,12,238.5,316.4)" />
<use xlink:href="#f1_6" transform="matrix(12,0,0,12,250.1,316.4)" />
<use xlink:href="#f1_4" transform="matrix(12,0,0,12,257.3,316.4)" />
<use xlink:href="#f1_6" transform="matrix(12,0,0,12,269,316.4)" />
<use xlink:href="#f1_7" transform="matrix(12,0,0,12,276.2,316.4)" />
<use xlink:href="#f1_a" transform="matrix(12,0,0,12,287.8,316.4)" />
<use xlink:href="#f1_8" transform="matrix(12,0,0,12,304.9,316.4)" />
<use xlink:href="#f1_k" transform="matrix(12,0,0,12,316.2,316.4)" />
<use xlink:href="#f1_6" transform="matrix(12,0,0,12,327.8,316.4)" />
<use xlink:href="#f1_d" transform="matrix(12,0,0,12,335,316.4)" />
<use xlink:href="#f1_u" transform="matrix(12,0,0,12,346.2,316.4)" />
<use xlink:href="#f1_8" transform="matrix(12,0,0,12,364,316.4)" />
<use xlink:href="#f1_6" transform="matrix(12,0,0,12,375.3,316.4)" />
<use xlink:href="#f1_c" transform="matrix(12,0,0,12,382.5,316.4)" />
<use xlink:href="#f1_b" transform="matrix(12,0,0,12,387.6,316.4)" />
<use xlink:href="#f1_s" transform="matrix(12,0,0,12,403.4,316.4)" />
<use xlink:href="#f1_g" transform="matrix(12,0,0,12,415,316.4)" />
<use xlink:href="#f1_d" transform="matrix(12,0,0,12,422.2,316.4)" />
<use xlink:href="#f1_t" transform="matrix(12,0,0,12,433.4,316.4)" />
<use xlink:href="#f1_c" transform="matrix(12,0,0,12,444.2,316.4)" />
<use xlink:href="#f1_9" transform="matrix(12,0,0,12,449.2,316.4)" />
<use xlink:href="#f1_c" transform="matrix(12,0,0,12,458.9,316.4)" />
<use xlink:href="#f1_d" transform="matrix(12,0,0,12,463.9,316.4)" />
<use xlink:href="#f1_e" transform="matrix(12,0,0,12,475.2,316.4)" />
<use xlink:href="#f1_c" transform="matrix(12,0,0,12,486.8,316.4)" />
<use xlink:href="#f1_e" transform="matrix(12,0,0,12,491.8,316.4)" />
<use xlink:href="#f1_q" transform="matrix(12,0,0,12,503.4,316.4)" />
<use xlink:href="#f1_p" transform="matrix(12,0,0,12,521,316.4)" />
<use xlink:href="#f1_d" transform="matrix(12,0,0,12,531.8,316.4)" />
<use xlink:href="#f1_k" transform="matrix(12,0,0,12,543,316.4)" />
<use xlink:href="#f1_r" transform="matrix(12,0,0,12,554.6,316.4)" />
<use xlink:href="#f1_g" transform="matrix(12,0,0,12,560.4,316.4)" />
<use xlink:href="#f1_a" transform="matrix(12,0,0,12,567.4,316.4)" />
<use xlink:href="#f1_8" transform="matrix(12,0,0,12,584.7,316.4)" />
<use xlink:href="#f1_x" transform="matrix(12,0,0,12,596,316.4)" />
<use xlink:href="#f1_d" transform="matrix(12,0,0,12,607.6,316.4)" />
<use xlink:href="#f1_k" transform="matrix(12,0,0,12,618.7,316.4)" />
<use xlink:href="#f1_6" transform="matrix(12,0,0,12,630.3,316.4)" />
<use xlink:href="#f1_6" transform="matrix(12,0,0,12,643.5,316.4)" />
<use xlink:href="#f1_d" transform="matrix(12,0,0,12,650.6,316.4)" />
<use xlink:href="#f1_9" transform="matrix(12,0,0,12,667.6,316.4)" />
<use xlink:href="#f1_a" transform="matrix(12,0,0,12,677.2,316.4)" />
<use xlink:href="#f1_a" transform="matrix(12,0,0,12,688.3,316.4)" />
<use xlink:href="#f1_y" transform="matrix(12,0,0,12,705.6,316.4)" />
<use xlink:href="#f1_k" transform="matrix(12,0,0,12,710.6,316.4)" />
<use xlink:href="#f1_9" transform="matrix(12,0,0,12,722.1,316.4)" />
<use xlink:href="#f1_6" transform="matrix(12,0,0,12,731.7,316.4)" />
<use xlink:href="#f1_f" transform="matrix(12,0,0,12,744.8,316.4)" />
<use xlink:href="#f1_d" transform="matrix(12,0,0,12,756.4,316.4)" />
<use xlink:href="#f1_a" transform="matrix(12,0,0,12,767.6,316.4)" />
<use xlink:href="#f1_9" transform="matrix(12,0,0,12,778.9,316.4)" />
<use xlink:href="#f1_e" transform="matrix(12,0,0,12,788.5,316.4)" />
<use xlink:href="#f1_r" transform="matrix(12,0,0,12,800.1,316.4)" />
<use xlink:href="#f1_6" transform="matrix(12,0,0,12,805.9,316.4)" />
<use xlink:href="#f1_n" transform="matrix(12,0,0,12,86.8,345)" />
<use xlink:href="#f1_d" transform="matrix(12,0,0,12,101.8,345)" />
<use xlink:href="#f1_g" transform="matrix(12,0,0,12,113,345)" />
<use xlink:href="#f1_i" transform="matrix(12,0,0,12,120.5,345)" />
<use xlink:href="#f1_l" transform="matrix(12,0,0,12,131.2,345)" />
<use xlink:href="#f1_m" transform="matrix(12,0,0,12,142.8,345)" />
<use xlink:href="#f1_k" transform="matrix(12,0,0,12,155.3,345)" />
<use xlink:href="#f1_6" transform="matrix(12,0,0,12,166.9,345)" />
<use xlink:href="#f1_7" transform="matrix(12,0,0,12,180.1,345)" />
<use xlink:href="#f1_a" transform="matrix(12,0,0,12,191.7,345)" />
<use xlink:href="#f1_g" transform="matrix(12,0,0,12,203,345)" />
<use xlink:href="#f1_a" transform="matrix(12,0,0,12,210,345)" />
<use xlink:href="#f1_r" transform="matrix(12,0,0,12,221.3,345)" />
<use xlink:href="#f1_9" transform="matrix(12,0,0,12,227.1,345)" />
<use xlink:href="#f1_7" transform="matrix(12,0,0,12,242.5,345)" />
<use xlink:href="#f1_d" transform="matrix(12,0,0,12,254.1,345)" />
<use xlink:href="#f1_n" transform="matrix(12,0,0,12,265.3,345)" />
<use xlink:href="#f1_6" transform="matrix(12,0,0,12,286.2,345)" />
<use xlink:href="#f1_d" transform="matrix(12,0,0,12,293.4,345)" />
<use xlink:href="#f1_f" transform="matrix(12,0,0,12,310.3,345)" />
<use xlink:href="#f1_d" transform="matrix(12,0,0,12,322.1,345)" />
<use xlink:href="#f1_c" transform="matrix(12,0,0,12,339,345)" />
<use xlink:href="#f1_6" transform="matrix(12,0,0,12,344.1,345)" />
<use xlink:href="#f1_6" transform="matrix(12,0,0,12,357.2,345)" />
<use xlink:href="#f1_d" transform="matrix(12,0,0,12,364.4,345)" />
<use xlink:href="#f1_9" transform="matrix(12,0,0,12,381.4,345)" />
<use xlink:href="#f1_8" transform="matrix(12,0,0,12,391,345)" />
<use xlink:href="#f1_t" transform="matrix(12,0,0,12,402.1,345)" />
<use xlink:href="#f1_a" transform="matrix(12,0,0,12,412.9,345)" />
<use xlink:href="#f1_p" transform="matrix(12,0,0,12,430.1,345)" />
<use xlink:href="#f1_d" transform="matrix(12,0,0,12,440.9,345)" />
<use xlink:href="#f1_k" transform="matrix(12,0,0,12,452,345)" />
<use xlink:href="#f1_g" transform="matrix(12,0,0,12,463.8,345)" />
<use xlink:href="#f1_9" transform="matrix(12,0,0,12,471.3,345)" />
<use xlink:href="#f1_a" transform="matrix(12,0,0,12,480.9,345)" />
<use xlink:href="#f1_o" transform="matrix(12,0,0,12,492.2,345)" />
<use xlink:href="#f1_h" transform="matrix(12,0,0,12,497.2,345)" />
<use xlink:href="#f1_6" transform="matrix(12,0,0,12,509.4,345)" />
<use xlink:href="#f1_c" transform="matrix(12,0,0,12,516.6,345)" />
<use xlink:href="#f1_u" transform="matrix(12,0,0,12,521.7,345)" />
<use xlink:href="#f1_a" transform="matrix(12,0,0,12,539.5,345)" />
<use xlink:href="#f1_4" transform="matrix(12,0,0,12,550.8,345)" />
<use xlink:href="#f1_n" transform="matrix(12,0,0,12,562.6,345)" />
<use xlink:href="#f1_7" transform="matrix(12,0,0,12,577.5,345)" />
<use xlink:href="#f1_a" transform="matrix(12,0,0,12,589.1,345)" />
<use xlink:href="#f1_e" transform="matrix(12,0,0,12,600.4,345)" />
<use xlink:href="#f1_p" transform="matrix(12,0,0,12,617.9,345)" />
<use xlink:href="#f1_d" transform="matrix(12,0,0,12,628.7,345)" />
<use xlink:href="#f1_k" transform="matrix(12,0,0,12,639.8,345)" />
<use xlink:href="#f1_b" transform="matrix(12,0,0,12,657.4,345)" />
<use xlink:href="#f1_8" transform="matrix(12,0,0,12,667.3,345)" />
<use xlink:href="#f1_e" transform="matrix(12,0,0,12,678.6,345)" />
<use xlink:href="#f1_l" transform="matrix(12,0,0,12,690.2,345)" />
<use xlink:href="#f1_2" transform="matrix(12,0,0,12,86.8,402.3)" />
<use xlink:href="#f1_s" transform="matrix(12,0,0,12,101.1,402.3)" />
<use xlink:href="#f1_a" transform="matrix(12,0,0,12,112.7,402.3)" />
<use xlink:href="#f1_e" transform="matrix(12,0,0,12,124,402.3)" />
<use xlink:href="#f1_z" transform="matrix(12,0,0,12,141.6,402.3)" />
<use xlink:href="#f1_b" transform="matrix(12,0,0,12,154.1,402.3)" />
<use xlink:href="#f1_d" transform="matrix(12,0,0,12,164.2,402.3)" />
<use xlink:href="#f1_f" transform="matrix(12,0,0,12,175.3,402.3)" />
<use xlink:href="#f1_a" transform="matrix(12,0,0,12,186.9,402.3)" />
<use xlink:href="#f1_c" transform="matrix(12,0,0,12,204.2,402.3)" />
<use xlink:href="#f1_h" transform="matrix(12,0,0,12,209.2,402.3)" />
<use xlink:href="#f1_p" transform="matrix(12,0,0,12,221.5,402.3)" />
<use xlink:href="#f1_d" transform="matrix(12,0,0,12,232.3,402.3)" />
<use xlink:href="#f1_k" transform="matrix(12,0,0,12,243.4,402.3)" />
<use xlink:href="#f1_7" transform="matrix(12,0,0,12,261,402.3)" />
<use xlink:href="#f1_8" transform="matrix(12,0,0,12,272.6,402.3)" />
<use xlink:href="#f1_t" transform="matrix(12,0,0,12,283.9,402.3)" />
<use xlink:href="#f1_a" transform="matrix(12,0,0,12,294.7,402.3)" />
<use xlink:href="#f1_e" transform="matrix(12,0,0,12,306,402.3)" />
<use xlink:href="#f1_r" transform="matrix(12,0,0,12,317.6,402.3)" />
<use xlink:href="#f1_6" transform="matrix(12,0,0,12,323.4,402.3)" />
<use xlink:href="#f1_8" transform="matrix(12,0,0,12,336.4,402.3)" />
<use xlink:href="#f1_o" transform="matrix(12,0,0,12,347.7,402.3)" />
<use xlink:href="#f1_g" transform="matrix(12,0,0,12,352.8,402.3)" />
<use xlink:href="#f1_a" transform="matrix(12,0,0,12,359.8,402.3)" />
<use xlink:href="#f1_8" transform="matrix(12,0,0,12,371.1,402.3)" />
<use xlink:href="#f1_f" transform="matrix(12,0,0,12,382.4,402.3)" />
<use xlink:href="#f1_p" transform="matrix(12,0,0,12,394,402.3)" />
<use xlink:href="#f1_l" transform="matrix(12,0,0,12,402.2,402.3)" />
<use xlink:href="#f1_10" transform="matrix(12,0,0,12,413.9,402.3)" />
<use xlink:href="#f1_d" transform="matrix(12,0,0,12,427.6,402.3)" />
<use xlink:href="#f1_6" transform="matrix(12,0,0,12,438.7,402.3)" />
<use xlink:href="#f1_a" transform="matrix(12,0,0,12,445.9,402.3)" />
<use xlink:href="#f1_6" transform="matrix(12,0,0,12,463.2,402.3)" />
<use xlink:href="#f1_7" transform="matrix(12,0,0,12,470.3,402.3)" />
<use xlink:href="#f1_8" transform="matrix(12,0,0,12,481.8,402.3)" />
<use xlink:href="#f1_6" transform="matrix(12,0,0,12,493.1,402.3)" />
<use xlink:href="#f1_h" transform="matrix(12,0,0,12,506.1,402.3)" />
<use xlink:href="#f1_d" transform="matrix(12,0,0,12,512.6,402.3)" />
<use xlink:href="#f1_g" transform="matrix(12,0,0,12,523.8,402.3)" />
<use xlink:href="#f1_6" transform="matrix(12,0,0,12,537.2,402.3)" />
<use xlink:href="#f1_7" transform="matrix(12,0,0,12,544.4,402.3)" />
<use xlink:href="#f1_c" transform="matrix(12,0,0,12,556,402.3)" />
<use xlink:href="#f1_9" transform="matrix(12,0,0,12,561,402.3)" />
<use xlink:href="#f1_6" transform="matrix(12,0,0,12,576.5,402.3)" />
<use xlink:href="#f1_k" transform="matrix(12,0,0,12,583.6,402.3)" />
<use xlink:href="#f1_6" transform="matrix(12,0,0,12,595.3,402.3)" />
<use xlink:href="#f1_d" transform="matrix(12,0,0,12,602.4,402.3)" />
<use xlink:href="#f1_g" transform="matrix(12,0,0,12,613.6,402.3)" />
<use xlink:href="#f1_c" transform="matrix(12,0,0,12,621.2,402.3)" />
<use xlink:href="#f1_8" transform="matrix(12,0,0,12,626.3,402.3)" />
<use xlink:href="#f1_o" transform="matrix(12,0,0,12,637.5,402.3)" />
<use xlink:href="#f1_4" transform="matrix(12,0,0,12,642.6,402.3)" />
<use xlink:href="#f1_6" transform="matrix(12,0,0,12,654.2,402.3)" />
<use xlink:href="#f1_7" transform="matrix(12,0,0,12,661.4,402.3)" />
<use xlink:href="#f1_a" transform="matrix(12,0,0,12,673,402.3)" />
<use xlink:href="#f1_9" transform="matrix(12,0,0,12,690.1,402.3)" />
<use xlink:href="#f1_b" transform="matrix(12,0,0,12,699.7,402.3)" />
<use xlink:href="#f1_g" transform="matrix(12,0,0,12,709.8,402.3)" />
<use xlink:href="#f1_a" transform="matrix(12,0,0,12,716.8,402.3)" />
<use xlink:href="#f1_a" transform="matrix(12,0,0,12,728.1,402.3)" />
<use xlink:href="#f1_e" transform="matrix(12,0,0,12,739.4,402.3)" />
<use xlink:href="#f1_9" transform="matrix(12,0,0,12,751,402.3)" />
<use xlink:href="#f1_7" transform="matrix(12,0,0,12,760.6,402.3)" />
<use xlink:href="#f1_d" transform="matrix(12,0,0,12,772.2,402.3)" />
<use xlink:href="#f1_6" transform="matrix(12,0,0,12,783.4,402.3)" />
<use xlink:href="#f1_9" transform="matrix(12,0,0,12,790.5,402.3)" />
<use xlink:href="#f1_8" transform="matrix(12,0,0,12,86.8,431)" />
<use xlink:href="#f1_e" transform="matrix(12,0,0,12,98.1,431)" />
<use xlink:href="#f1_f" transform="matrix(12,0,0,12,109.7,431)" />
<use xlink:href="#f1_c" transform="matrix(12,0,0,12,127.1,431)" />
<use xlink:href="#f1_e" transform="matrix(12,0,0,12,132.1,431)" />
<use xlink:href="#f1_9" transform="matrix(12,0,0,12,143.7,431)" />
<use xlink:href="#f1_6" transform="matrix(12,0,0,12,153.3,431)" />
<use xlink:href="#f1_g" transform="matrix(12,0,0,12,160.5,431)" />
<use xlink:href="#f1_k" transform="matrix(12,0,0,12,168,431)" />
<use xlink:href="#f1_b" transform="matrix(12,0,0,12,179.6,431)" />
<use xlink:href="#f1_6" transform="matrix(12,0,0,12,189.7,431)" />
<use xlink:href="#f1_c" transform="matrix(12,0,0,12,197,431)" />
<use xlink:href="#f1_d" transform="matrix(12,0,0,12,202,431)" />
<use xlink:href="#f1_e" transform="matrix(12,0,0,12,213.2,431)" />
<use xlink:href="#f1_9" transform="matrix(12,0,0,12,224.8,431)" />
<use xlink:href="#f1_8" transform="matrix(12,0,0,12,240.2,431)" />
<use xlink:href="#f1_g" transform="matrix(12,0,0,12,251.5,431)" />
<use xlink:href="#f1_a" transform="matrix(12,0,0,12,258.5,431)" />
<use xlink:href="#f1_8" transform="matrix(12,0,0,12,275.6,431)" />
<use xlink:href="#f1_s" transform="matrix(12,0,0,12,286.9,431)" />
<use xlink:href="#f1_s" transform="matrix(12,0,0,12,298.5,431)" />
<use xlink:href="#f1_o" transform="matrix(12,0,0,12,310.1,431)" />
<use xlink:href="#f1_c" transform="matrix(12,0,0,12,315.2,431)" />
<use xlink:href="#f1_b" transform="matrix(12,0,0,12,320.2,431)" />
<use xlink:href="#f1_8" transform="matrix(12,0,0,12,330.3,431)" />
<use xlink:href="#f1_x" transform="matrix(12,0,0,12,341.6,431)" />
<use xlink:href="#f1_o" transform="matrix(12,0,0,12,353.2,431)" />
<use xlink:href="#f1_a" transform="matrix(12,0,0,12,358.2,431)" />
<use xlink:href="#f1_h" transform="matrix(12,0,0,12,375.5,431)" />
<use xlink:href="#f1_d" transform="matrix(12,0,0,12,381.9,431)" />
<use xlink:href="#f1_g" transform="matrix(12,0,0,12,393,431)" />
<use xlink:href="#f1_t" transform="matrix(12,0,0,12,406.5,431)" />
<use xlink:href="#f1_a" transform="matrix(12,0,0,12,417.3,431)" />
<use xlink:href="#f1_g" transform="matrix(12,0,0,12,428.6,431)" />
<use xlink:href="#f1_9" transform="matrix(12,0,0,12,436.1,431)" />
<use xlink:href="#f1_c" transform="matrix(12,0,0,12,445.7,431)" />
<use xlink:href="#f1_d" transform="matrix(12,0,0,12,450.7,431)" />
<use xlink:href="#f1_e" transform="matrix(12,0,0,12,461.9,431)" />
<use xlink:href="#f1_11" transform="matrix(12,0,0,12,479.4,431)" />
<use xlink:href="#f1_l" transform="matrix(12,0,0,12,491,431)" />
<use xlink:href="#f1_12" transform="matrix(12,0,0,12,496.9,431)" />
<use xlink:href="#f1_13" transform="matrix(12,0,0,12,514.4,431)" />
<use xlink:href="#f1_x" transform="matrix(12,0,0,12,521.6,431)" />
<use xlink:href="#f1_k" transform="matrix(12,0,0,12,533.2,431)" />
<use xlink:href="#f1_6" transform="matrix(12,0,0,12,544.8,431)" />
<use xlink:href="#f1_c" transform="matrix(12,0,0,12,557.8,431)" />
<use xlink:href="#f1_6" transform="matrix(12,0,0,12,562.8,431)" />
<use xlink:href="#f1_9" transform="matrix(12,0,0,12,576,431)" />
<use xlink:href="#f1_7" transform="matrix(12,0,0,12,585.4,431)" />
<use xlink:href="#f1_d" transform="matrix(12,0,0,12,597,431)" />
<use xlink:href="#f1_k" transform="matrix(12,0,0,12,608.2,431)" />
<use xlink:href="#f1_o" transform="matrix(12,0,0,12,619.9,431)" />
<use xlink:href="#f1_f" transform="matrix(12,0,0,12,625,431)" />
<use xlink:href="#f1_n" transform="matrix(12,0,0,12,642.4,431)" />
<use xlink:href="#f1_d" transform="matrix(12,0,0,12,657.4,431)" />
<use xlink:href="#f1_g" transform="matrix(12,0,0,12,668.7,431)" />
<use xlink:href="#f1_i" transform="matrix(12,0,0,12,676.2,431)" />
<use xlink:href="#f1_h" transform="matrix(12,0,0,12,692.6,431)" />
<use xlink:href="#f1_d" transform="matrix(12,0,0,12,699.1,431)" />
<use xlink:href="#f1_g" transform="matrix(12,0,0,12,710.2,431)" />
<use xlink:href="#f1_h" transform="matrix(12,0,0,12,723.6,431)" />
<use xlink:href="#f1_k" transform="matrix(12,0,0,12,730.1,431)" />
<use xlink:href="#f1_6" transform="matrix(12,0,0,12,741.7,431)" />
<use xlink:href="#f1_k" transform="matrix(12,0,0,12,748.8,431)" />
<use xlink:href="#f1_g" transform="matrix(12,0,0,12,760.6,431)" />
<use xlink:href="#f1_a" transform="matrix(12,0,0,12,767.6,431)" />
<use xlink:href="#f1_z" transform="matrix(12,0,0,12,86.8,459.6)" />
<use xlink:href="#f1_b" transform="matrix(12,0,0,12,99.3,459.6)" />
<use xlink:href="#f1_d" transform="matrix(12,0,0,12,109.4,459.6)" />
<use xlink:href="#f1_f" transform="matrix(12,0,0,12,120.7,459.6)" />
<use xlink:href="#f1_a" transform="matrix(12,0,0,12,132.3,459.6)" />
<use xlink:href="#f1_t" transform="matrix(12,0,0,12,149.4,459.6)" />
<use xlink:href="#f1_a" transform="matrix(12,0,0,12,160.2,459.6)" />
<use xlink:href="#f1_g" transform="matrix(12,0,0,12,171.5,459.6)" />
<use xlink:href="#f1_9" transform="matrix(12,0,0,12,179,459.6)" />
<use xlink:href="#f1_c" transform="matrix(12,0,0,12,188.6,459.6)" />
<use xlink:href="#f1_d" transform="matrix(12,0,0,12,193.6,459.6)" />
<use xlink:href="#f1_e" transform="matrix(12,0,0,12,204.8,459.6)" />
<use xlink:href="#f1_9" transform="matrix(12,0,0,12,216.4,459.6)" />
<use xlink:href="#f1_8" transform="matrix(12,0,0,12,231.8,459.6)" />
<use xlink:href="#f1_9" transform="matrix(12,0,0,12,243.1,459.6)" />
<use xlink:href="#f1_n" transform="matrix(12,0,0,12,258.4,459.6)" />
<use xlink:href="#f1_a" transform="matrix(12,0,0,12,273.4,459.6)" />
<use xlink:href="#f1_o" transform="matrix(12,0,0,12,284.6,459.6)" />
<use xlink:href="#f1_o" transform="matrix(12,0,0,12,289.8,459.6)" />
<use xlink:href="#f1_14" transform="matrix(12,0,0,12,294.9,459.6)" />
<use xlink:href="#f1_l" transform="matrix(12,0,0,12,302,459.6)" />
<use xlink:href="#f1_2" transform="matrix(12,0,0,12,86.8,488.3)" />
<use xlink:href="#f1_e" transform="matrix(12,0,0,12,101.1,488.3)" />
<use xlink:href="#f1_b" transform="matrix(12,0,0,12,112.7,488.3)" />
<use xlink:href="#f1_a" transform="matrix(12,0,0,12,122.8,488.3)" />
<use xlink:href="#f1_c" transform="matrix(12,0,0,12,140.1,488.3)" />
<use xlink:href="#f1_e" transform="matrix(12,0,0,12,145.1,488.3)" />
<use xlink:href="#f1_z" transform="matrix(12,0,0,12,162.5,488.3)" />
<use xlink:href="#f1_b" transform="matrix(12,0,0,12,175,488.3)" />
<use xlink:href="#f1_d" transform="matrix(12,0,0,12,185.1,488.3)" />
<use xlink:href="#f1_f" transform="matrix(12,0,0,12,196.4,488.3)" />
<use xlink:href="#f1_a" transform="matrix(12,0,0,12,208,488.3)" />
<use xlink:href="#f1_4" transform="matrix(12,0,0,12,219.3,488.3)" />
<use xlink:href="#f1_d" transform="matrix(12,0,0,12,230.9,488.3)" />
<use xlink:href="#f1_s" transform="matrix(12,0,0,12,242.1,488.3)" />
<use xlink:href="#f1_a" transform="matrix(12,0,0,12,253.7,488.3)" />
<use xlink:href="#f1_e" transform="matrix(12,0,0,12,265,488.3)" />
<use xlink:href="#f1_6" transform="matrix(12,0,0,12,282.5,488.3)" />
<use xlink:href="#f1_7" transform="matrix(12,0,0,12,289.7,488.3)" />
<use xlink:href="#f1_a" transform="matrix(12,0,0,12,301.3,488.3)" />
<use xlink:href="#f1_15" transform="matrix(12,0,0,12,318.4,488.3)" />
<use xlink:href="#f1_a" transform="matrix(12,0,0,12,332.5,488.3)" />
<use xlink:href="#f1_t" transform="matrix(12,0,0,12,343.8,488.3)" />
<use xlink:href="#f1_c" transform="matrix(12,0,0,12,354.6,488.3)" />
<use xlink:href="#f1_b" transform="matrix(12,0,0,12,359.7,488.3)" />
<use xlink:href="#f1_a" transform="matrix(12,0,0,12,369.7,488.3)" />
<use xlink:href="#f1_9" transform="matrix(12,0,0,12,381,488.3)" />
<use xlink:href="#f1_n" transform="matrix(12,0,0,12,396.4,488.3)" />
<use xlink:href="#f1_c" transform="matrix(12,0,0,12,411.4,488.3)" />
<use xlink:href="#f1_e" transform="matrix(12,0,0,12,416.4,488.3)" />
<use xlink:href="#f1_f" transform="matrix(12,0,0,12,428.1,488.3)" />
<use xlink:href="#f1_d" transform="matrix(12,0,0,12,439.8,488.3)" />
<use xlink:href="#f1_n" transform="matrix(12,0,0,12,451,488.3)" />
<use xlink:href="#f1_13" transform="matrix(12,0,0,12,471.9,488.3)" />
</g>
<g fill="#0000FF" >
<use xlink:href="#f1_16" transform="matrix(12,0,0,12,479.3,488.3)" />
<use xlink:href="#f1_17" transform="matrix(12,0,0,12,494.5,488.3)" />
<use xlink:href="#f0_d" transform="matrix(12,0,0,12,512.9,488.3)" />
</g>
<g fill="#000000" >
<use xlink:href="#f1_14" transform="matrix(12,0,0,12,525.7,488.3)" />
<use xlink:href="#f1_4" transform="matrix(12,0,0,12,532.9,488.3)" />
<use xlink:href="#f1_s" transform="matrix(12,0,0,12,544.5,488.3)" />
<use xlink:href="#f1_o" transform="matrix(12,0,0,12,556.1,488.3)" />
<use xlink:href="#f1_k" transform="matrix(12,0,0,12,561.1,488.3)" />
<use xlink:href="#f1_q" transform="matrix(12,0,0,12,572.8,488.3)" />
<use xlink:href="#f1_c" transform="matrix(12,0,0,12,590.3,488.3)" />
<use xlink:href="#f1_e" transform="matrix(12,0,0,12,595.4,488.3)" />
<use xlink:href="#f1_p" transform="matrix(12,0,0,12,612.8,488.3)" />
<use xlink:href="#f1_d" transform="matrix(12,0,0,12,623.6,488.3)" />
<use xlink:href="#f1_k" transform="matrix(12,0,0,12,634.8,488.3)" />
<use xlink:href="#f1_g" transform="matrix(12,0,0,12,646.5,488.3)" />
<use xlink:href="#f1_c" transform="matrix(12,0,0,12,659.8,488.3)" />
<use xlink:href="#f1_2" transform="matrix(12,0,0,12,665,488.3)" />
<use xlink:href="#f1_18" transform="matrix(12,0,0,12,679.3,488.3)" />
<use xlink:href="#f1_f" transform="matrix(12,0,0,12,696.9,488.3)" />
<use xlink:href="#f1_a" transform="matrix(12,0,0,12,708.5,488.3)" />
<use xlink:href="#f1_t" transform="matrix(12,0,0,12,719.8,488.3)" />
<use xlink:href="#f1_c" transform="matrix(12,0,0,12,730.6,488.3)" />
<use xlink:href="#f1_b" transform="matrix(12,0,0,12,735.6,488.3)" />
<use xlink:href="#f1_a" transform="matrix(12,0,0,12,745.7,488.3)" />
<use xlink:href="#f1_8" transform="matrix(12,0,0,12,762.8,488.3)" />
<use xlink:href="#f1_e" transform="matrix(12,0,0,12,774,488.3)" />
<use xlink:href="#f1_f" transform="matrix(12,0,0,12,785.6,488.3)" />
<use xlink:href="#f1_9" transform="matrix(12,0,0,12,86.8,516.8)" />
<use xlink:href="#f1_a" transform="matrix(12,0,0,12,96.4,516.8)" />
<use xlink:href="#f1_o" transform="matrix(12,0,0,12,107.7,516.8)" />
<use xlink:href="#f1_a" transform="matrix(12,0,0,12,112.7,516.8)" />
<use xlink:href="#f1_b" transform="matrix(12,0,0,12,124,516.8)" />
<use xlink:href="#f1_6" transform="matrix(12,0,0,12,134.1,516.8)" />
<use xlink:href="#f1_c" transform="matrix(12,0,0,12,147.1,516.8)" />
<use xlink:href="#f1_6" transform="matrix(12,0,0,12,152.1,516.8)" />
<use xlink:href="#f1_h" transform="matrix(12,0,0,12,165.2,516.8)" />
<use xlink:href="#f1_g" transform="matrix(12,0,0,12,171.7,516.8)" />
<use xlink:href="#f1_d" transform="matrix(12,0,0,12,178.7,516.8)" />
<use xlink:href="#f1_u" transform="matrix(12,0,0,12,189.8,516.8)" />
<use xlink:href="#f1_6" transform="matrix(12,0,0,12,213.6,516.8)" />
<use xlink:href="#f1_7" transform="matrix(12,0,0,12,220.8,516.8)" />
<use xlink:href="#f1_a" transform="matrix(12,0,0,12,232.4,516.8)" />
<use xlink:href="#f1_u" transform="matrix(12,0,0,12,249.5,516.8)" />
<use xlink:href="#f1_a" transform="matrix(12,0,0,12,267.4,516.8)" />
<use xlink:href="#f1_e" transform="matrix(12,0,0,12,278.7,516.8)" />
<use xlink:href="#f1_k" transform="matrix(12,0,0,12,290.3,516.8)" />
<use xlink:href="#f1_d" transform="matrix(12,0,0,12,307.7,516.8)" />
<use xlink:href="#f1_e" transform="matrix(12,0,0,12,318.9,516.8)" />
<use xlink:href="#f1_6" transform="matrix(12,0,0,12,336.4,516.8)" />
<use xlink:href="#f1_7" transform="matrix(12,0,0,12,343.6,516.8)" />
<use xlink:href="#f1_a" transform="matrix(12,0,0,12,355.2,516.8)" />
<use xlink:href="#f1_o" transform="matrix(12,0,0,12,372.3,516.8)" />
<use xlink:href="#f1_a" transform="matrix(12,0,0,12,377.4,516.8)" />
<use xlink:href="#f1_h" transform="matrix(12,0,0,12,388.7,516.8)" />
<use xlink:href="#f1_6" transform="matrix(12,0,0,12,394.8,516.8)" />
<use xlink:href="#f1_l" transform="matrix(12,0,0,12,401.9,516.8)" />
<use xlink:href="#f1_19" transform="matrix(12,0,0,12,413.7,516.8)" />
<use xlink:href="#f1_h" transform="matrix(12,0,0,12,419.1,516.8)" />
<use xlink:href="#f1_6" transform="matrix(12,0,0,12,431.4,516.8)" />
<use xlink:href="#f1_7" transform="matrix(12,0,0,12,438.6,516.8)" />
<use xlink:href="#f1_c" transform="matrix(12,0,0,12,450.2,516.8)" />
<use xlink:href="#f1_9" transform="matrix(12,0,0,12,455.2,516.8)" />
<use xlink:href="#f1_c" transform="matrix(12,0,0,12,470.7,516.8)" />
<use xlink:href="#f1_9" transform="matrix(12,0,0,12,475.7,516.8)" />
<use xlink:href="#f1_6" transform="matrix(12,0,0,12,491.1,516.8)" />
<use xlink:href="#f1_7" transform="matrix(12,0,0,12,498.3,516.8)" />
<use xlink:href="#f1_a" transform="matrix(12,0,0,12,509.9,516.8)" />
<use xlink:href="#f1_h" transform="matrix(12,0,0,12,527,516.8)" />
<use xlink:href="#f1_c" transform="matrix(12,0,0,12,533.4,516.8)" />
<use xlink:href="#f1_g" transform="matrix(12,0,0,12,538.5,516.8)" />
<use xlink:href="#f1_9" transform="matrix(12,0,0,12,546,516.8)" />
<use xlink:href="#f1_6" transform="matrix(12,0,0,12,555.6,516.8)" />
<use xlink:href="#f1_6" transform="matrix(12,0,0,12,568.7,516.8)" />
<use xlink:href="#f1_c" transform="matrix(12,0,0,12,575.9,516.8)" />
<use xlink:href="#f1_u" transform="matrix(12,0,0,12,580.9,516.8)" />
<use xlink:href="#f1_a" transform="matrix(12,0,0,12,598.8,516.8)" />
<use xlink:href="#f1_p" transform="matrix(12,0,0,12,615.9,516.8)" />
<use xlink:href="#f1_d" transform="matrix(12,0,0,12,626.7,516.8)" />
<use xlink:href="#f1_k" transform="matrix(12,0,0,12,637.9,516.8)" />
<use xlink:href="#f1_r" transform="matrix(12,0,0,12,649.5,516.8)" />
<use xlink:href="#f1_t" transform="matrix(12,0,0,12,655.3,516.8)" />
<use xlink:href="#f1_a" transform="matrix(12,0,0,12,666.1,516.8)" />
<use xlink:href="#f1_b" transform="matrix(12,0,0,12,683.4,516.8)" />
<use xlink:href="#f1_d" transform="matrix(12,0,0,12,693.4,516.8)" />
<use xlink:href="#f1_e" transform="matrix(12,0,0,12,704.6,516.8)" />
<use xlink:href="#f1_e" transform="matrix(12,0,0,12,716.2,516.8)" />
<use xlink:href="#f1_a" transform="matrix(12,0,0,12,727.8,516.8)" />
<use xlink:href="#f1_b" transform="matrix(12,0,0,12,739.1,516.8)" />
<use xlink:href="#f1_6" transform="matrix(12,0,0,12,749.1,516.8)" />
<use xlink:href="#f1_a" transform="matrix(12,0,0,12,756.3,516.8)" />
<use xlink:href="#f1_f" transform="matrix(12,0,0,12,767.6,516.8)" />
<use xlink:href="#f1_p" transform="matrix(12,0,0,12,86.8,545.6)" />
<use xlink:href="#f1_d" transform="matrix(12,0,0,12,97.6,545.6)" />
<use xlink:href="#f1_k" transform="matrix(12,0,0,12,108.8,545.6)" />
<use xlink:href="#f1_g" transform="matrix(12,0,0,12,120.5,545.6)" />
<use xlink:href="#f1_f" transform="matrix(12,0,0,12,133.8,545.6)" />
<use xlink:href="#f1_a" transform="matrix(12,0,0,12,145.4,545.6)" />
<use xlink:href="#f1_t" transform="matrix(12,0,0,12,156.7,545.6)" />
<use xlink:href="#f1_c" transform="matrix(12,0,0,12,167.5,545.6)" />
<use xlink:href="#f1_b" transform="matrix(12,0,0,12,172.6,545.6)" />
<use xlink:href="#f1_a" transform="matrix(12,0,0,12,182.6,545.6)" />
<use xlink:href="#f1_n" transform="matrix(12,0,0,12,199.9,545.6)" />
<use xlink:href="#f1_7" transform="matrix(12,0,0,12,214.9,545.6)" />
<use xlink:href="#f1_c" transform="matrix(12,0,0,12,226.5,545.6)" />
<use xlink:href="#f1_o" transform="matrix(12,0,0,12,231.5,545.6)" />
<use xlink:href="#f1_9" transform="matrix(12,0,0,12,236.5,545.6)" />
<use xlink:href="#f1_6" transform="matrix(12,0,0,12,246.1,545.6)" />
<use xlink:href="#f1_z" transform="matrix(12,0,0,12,259.1,545.6)" />
<use xlink:href="#f1_b" transform="matrix(12,0,0,12,271.7,545.6)" />
<use xlink:href="#f1_d" transform="matrix(12,0,0,12,281.7,545.6)" />
<use xlink:href="#f1_f" transform="matrix(12,0,0,12,293,545.6)" />
<use xlink:href="#f1_a" transform="matrix(12,0,0,12,304.6,545.6)" />
<use xlink:href="#f1_c" transform="matrix(12,0,0,12,321.7,545.6)" />
<use xlink:href="#f1_9" transform="matrix(12,0,0,12,326.8,545.6)" />
<use xlink:href="#f1_g" transform="matrix(12,0,0,12,342.2,545.6)" />
<use xlink:href="#f1_k" transform="matrix(12,0,0,12,349.7,545.6)" />
<use xlink:href="#f1_e" transform="matrix(12,0,0,12,361.3,545.6)" />
<use xlink:href="#f1_e" transform="matrix(12,0,0,12,372.9,545.6)" />
<use xlink:href="#f1_c" transform="matrix(12,0,0,12,384.5,545.6)" />
<use xlink:href="#f1_e" transform="matrix(12,0,0,12,389.7,545.6)" />
<use xlink:href="#f1_q" transform="matrix(12,0,0,12,401.3,545.6)" />
<use xlink:href="#f1_4" transform="matrix(12,0,0,12,412.9,545.6)" />
<use xlink:href="#f1_z" transform="matrix(12,0,0,12,424.6,545.6)" />
<use xlink:href="#f1_b" transform="matrix(12,0,0,12,437.1,545.6)" />
<use xlink:href="#f1_d" transform="matrix(12,0,0,12,447.2,545.6)" />
<use xlink:href="#f1_f" transform="matrix(12,0,0,12,458.4,545.6)" />
<use xlink:href="#f1_a" transform="matrix(12,0,0,12,470,545.6)" />
<use xlink:href="#f1_u" transform="matrix(12,0,0,12,487.1,545.6)" />
<use xlink:href="#f1_8" transform="matrix(12,0,0,12,504.9,545.6)" />
<use xlink:href="#f1_p" transform="matrix(12,0,0,12,516.2,545.6)" />
<use xlink:href="#f1_6" transform="matrix(12,0,0,12,532.9,545.6)" />
<use xlink:href="#f1_8" transform="matrix(12,0,0,12,539.9,545.6)" />
<use xlink:href="#f1_i" transform="matrix(12,0,0,12,551.2,545.6)" />
<use xlink:href="#f1_a" transform="matrix(12,0,0,12,561.3,545.6)" />
<use xlink:href="#f1_9" transform="matrix(12,0,0,12,578.4,545.6)" />
<use xlink:href="#f1_d" transform="matrix(12,0,0,12,588,545.6)" />
<use xlink:href="#f1_u" transform="matrix(12,0,0,12,599.1,545.6)" />
<use xlink:href="#f1_a" transform="matrix(12,0,0,12,616.8,545.6)" />
<use xlink:href="#f1_6" transform="matrix(12,0,0,12,634.1,545.6)" />
<use xlink:href="#f1_c" transform="matrix(12,0,0,12,641.3,545.6)" />
<use xlink:href="#f1_u" transform="matrix(12,0,0,12,646.3,545.6)" />
<use xlink:href="#f1_a" transform="matrix(12,0,0,12,664.2,545.6)" />
<use xlink:href="#f1_6" transform="matrix(12,0,0,12,681.3,545.6)" />
<use xlink:href="#f1_d" transform="matrix(12,0,0,12,688.5,545.6)" />
<use xlink:href="#f1_9" transform="matrix(12,0,0,12,705.5,545.6)" />
<use xlink:href="#f1_d" transform="matrix(12,0,0,12,715,545.6)" />
<use xlink:href="#f1_g" transform="matrix(12,0,0,12,726.2,545.6)" />
<use xlink:href="#f1_6" transform="matrix(12,0,0,12,733.7,545.6)" />
<use xlink:href="#f1_c" transform="matrix(12,0,0,12,746.8,545.6)" />
<use xlink:href="#f1_6" transform="matrix(12,0,0,12,751.8,545.6)" />
<use xlink:href="#f1_9" transform="matrix(12,0,0,12,759,545.6)" />
<use xlink:href="#f1_a" transform="matrix(12,0,0,12,768.6,545.6)" />
<use xlink:href="#f1_o" transform="matrix(12,0,0,12,779.9,545.6)" />
<use xlink:href="#f1_h" transform="matrix(12,0,0,12,784.9,545.6)" />
<use xlink:href="#f1_d" transform="matrix(12,0,0,12,86.8,574.1)" />
<use xlink:href="#f1_k" transform="matrix(12,0,0,12,97.9,574.1)" />
<use xlink:href="#f1_6" transform="matrix(12,0,0,12,109.5,574.1)" />
<use xlink:href="#f1_1a" transform="matrix(12,0,0,12,122.7,574.1)" />
<use xlink:href="#f1_8" transform="matrix(12,0,0,12,146.8,574.1)" />
<use xlink:href="#f1_e" transform="matrix(12,0,0,12,158.1,574.1)" />
<use xlink:href="#f1_f" transform="matrix(12,0,0,12,169.7,574.1)" />
<use xlink:href="#f1_p" transform="matrix(12,0,0,12,187.1,574.1)" />
<use xlink:href="#f1_d" transform="matrix(12,0,0,12,198,574.1)" />
<use xlink:href="#f1_k" transform="matrix(12,0,0,12,209.1,574.1)" />
<use xlink:href="#f1_r" transform="matrix(12,0,0,12,220.7,574.1)" />
<use xlink:href="#f1_o" transform="matrix(12,0,0,12,226.6,574.1)" />
<use xlink:href="#f1_o" transform="matrix(12,0,0,12,231.7,574.1)" />
<use xlink:href="#f1_9" transform="matrix(12,0,0,12,242.7,574.1)" />
<use xlink:href="#f1_a" transform="matrix(12,0,0,12,252.1,574.1)" />
<use xlink:href="#f1_a" transform="matrix(12,0,0,12,263.4,574.1)" />
<use xlink:href="#f1_8" transform="matrix(12,0,0,12,280.5,574.1)" />
<use xlink:href="#f1_u" transform="matrix(12,0,0,12,297.6,574.1)" />
<use xlink:href="#f1_a" transform="matrix(12,0,0,12,315.4,574.1)" />
<use xlink:href="#f1_9" transform="matrix(12,0,0,12,326.7,574.1)" />
<use xlink:href="#f1_9" transform="matrix(12,0,0,12,336.1,574.1)" />
<use xlink:href="#f1_8" transform="matrix(12,0,0,12,345.7,574.1)" />
<use xlink:href="#f1_q" transform="matrix(12,0,0,12,357,574.1)" />
<use xlink:href="#f1_a" transform="matrix(12,0,0,12,368.6,574.1)" />
<use xlink:href="#f1_9" transform="matrix(12,0,0,12,385.7,574.1)" />
<use xlink:href="#f1_8" transform="matrix(12,0,0,12,395.3,574.1)" />
<use xlink:href="#f1_p" transform="matrix(12,0,0,12,406.5,574.1)" />
<use xlink:href="#f1_c" transform="matrix(12,0,0,12,417.3,574.1)" />
<use xlink:href="#f1_e" transform="matrix(12,0,0,12,422.4,574.1)" />
<use xlink:href="#f1_q" transform="matrix(12,0,0,12,434,574.1)" />
<use xlink:href="#f1_6" transform="matrix(12,0,0,12,451.5,574.1)" />
<use xlink:href="#f1_7" transform="matrix(12,0,0,12,458.7,574.1)" />
<use xlink:href="#f1_8" transform="matrix(12,0,0,12,470.2,574.1)" />
<use xlink:href="#f1_6" transform="matrix(12,0,0,12,481.5,574.1)" />
<use xlink:href="#f1_c" transform="matrix(12,0,0,12,494.6,574.1)" />
<use xlink:href="#f1_6" transform="matrix(12,0,0,12,499.6,574.1)" />
<use xlink:href="#f1_r" transform="matrix(12,0,0,12,506.8,574.1)" />
<use xlink:href="#f1_9" transform="matrix(12,0,0,12,512.6,574.1)" />
<use xlink:href="#f1_1b" transform="matrix(12,0,0,12,528.1,574.1)" />
<use xlink:href="#f1_s" transform="matrix(12,0,0,12,537.5,574.1)" />
<use xlink:href="#f1_g" transform="matrix(12,0,0,12,549.1,574.1)" />
<use xlink:href="#f1_d" transform="matrix(12,0,0,12,556.3,574.1)" />
<use xlink:href="#f1_b" transform="matrix(12,0,0,12,567.5,574.1)" />
<use xlink:href="#f1_a" transform="matrix(12,0,0,12,577.5,574.1)" />
<use xlink:href="#f1_9" transform="matrix(12,0,0,12,588.8,574.1)" />
<use xlink:href="#f1_9" transform="matrix(12,0,0,12,598.3,574.1)" />
<use xlink:href="#f1_c" transform="matrix(12,0,0,12,607.9,574.1)" />
<use xlink:href="#f1_e" transform="matrix(12,0,0,12,613,574.1)" />
<use xlink:href="#f1_q" transform="matrix(12,0,0,12,624.6,574.1)" />
<use xlink:href="#f1_9" transform="matrix(12,0,0,12,642.1,574.1)" />
<use xlink:href="#f1_p" transform="matrix(12,0,0,12,651.6,574.1)" />
<use xlink:href="#f1_u" transform="matrix(12,0,0,12,662.4,574.1)" />
<use xlink:href="#f1_x" transform="matrix(12,0,0,12,680.3,574.1)" />
<use xlink:href="#f1_d" transform="matrix(12,0,0,12,691.9,574.1)" />
<use xlink:href="#f1_o" transform="matrix(12,0,0,12,703.2,574.1)" />
<use xlink:href="#f1_h" transform="matrix(12,0,0,12,714.1,574.1)" />
<use xlink:href="#f1_c" transform="matrix(12,0,0,12,720.6,574.1)" />
<use xlink:href="#f1_o" transform="matrix(12,0,0,12,725.6,574.1)" />
<use xlink:href="#f1_a" transform="matrix(12,0,0,12,730.7,574.1)" />
<use xlink:href="#f1_9" transform="matrix(12,0,0,12,742,574.1)" />
<use xlink:href="#f1_1c" transform="matrix(12,0,0,12,751.6,574.1)" />
<use xlink:href="#f1_l" transform="matrix(12,0,0,12,761.1,574.1)" />
<use xlink:href="#f1_1d" transform="matrix(12,0,0,12,86.8,602.9)" />
<use xlink:href="#f1_t" transform="matrix(12,0,0,12,98.4,602.9)" />
<use xlink:href="#f1_a" transform="matrix(12,0,0,12,109.2,602.9)" />
<use xlink:href="#f1_e" transform="matrix(12,0,0,12,120.5,602.9)" />
<use xlink:href="#f1_6" transform="matrix(12,0,0,12,132.1,602.9)" />
<use xlink:href="#f1_k" transform="matrix(12,0,0,12,139.3,602.9)" />
<use xlink:href="#f1_8" transform="matrix(12,0,0,12,150.9,602.9)" />
<use xlink:href="#f1_o" transform="matrix(12,0,0,12,162.2,602.9)" />
<use xlink:href="#f1_o" transform="matrix(12,0,0,12,167.2,602.9)" />
<use xlink:href="#f1_p" transform="matrix(12,0,0,12,172.3,602.9)" />
<use xlink:href="#f1_4" transform="matrix(12,0,0,12,183.1,602.9)" />
<use xlink:href="#f1_6" transform="matrix(12,0,0,12,194.9,602.9)" />
<use xlink:href="#f1_7" transform="matrix(12,0,0,12,202,602.9)" />
<use xlink:href="#f1_c" transform="matrix(12,0,0,12,213.6,602.9)" />
<use xlink:href="#f1_9" transform="matrix(12,0,0,12,218.7,602.9)" />
<use xlink:href="#f1_n" transform="matrix(12,0,0,12,234.1,602.9)" />
<use xlink:href="#f1_c" transform="matrix(12,0,0,12,249.1,602.9)" />
<use xlink:href="#f1_o" transform="matrix(12,0,0,12,254.1,602.9)" />
<use xlink:href="#f1_o" transform="matrix(12,0,0,12,259.3,602.9)" />
<use xlink:href="#f1_x" transform="matrix(12,0,0,12,270.1,602.9)" />
<use xlink:href="#f1_a" transform="matrix(12,0,0,12,281.8,602.9)" />
<use xlink:href="#f1_b" transform="matrix(12,0,0,12,298.9,602.9)" />
<use xlink:href="#f1_d" transform="matrix(12,0,0,12,308.9,602.9)" />
<use xlink:href="#f1_u" transform="matrix(12,0,0,12,320.1,602.9)" />
<use xlink:href="#f1_s" transform="matrix(12,0,0,12,337.9,602.9)" />
<use xlink:href="#f1_o" transform="matrix(12,0,0,12,349.7,602.9)" />
<use xlink:href="#f1_a" transform="matrix(12,0,0,12,354.7,602.9)" />
<use xlink:href="#f1_6" transform="matrix(12,0,0,12,366,602.9)" />
<use xlink:href="#f1_a" transform="matrix(12,0,0,12,373.2,602.9)" />
<use xlink:href="#f1_8" transform="matrix(12,0,0,12,390.3,602.9)" />
<use xlink:href="#f1_e" transform="matrix(12,0,0,12,401.6,602.9)" />
<use xlink:href="#f1_f" transform="matrix(12,0,0,12,413.2,602.9)" />
<use xlink:href="#f1_p" transform="matrix(12,0,0,12,430.6,602.9)" />
<use xlink:href="#f1_d" transform="matrix(12,0,0,12,441.5,602.9)" />
<use xlink:href="#f1_k" transform="matrix(12,0,0,12,452.6,602.9)" />
<use xlink:href="#f1_g" transform="matrix(12,0,0,12,464.2,602.9)" />
<use xlink:href="#f1_9" transform="matrix(12,0,0,12,477.6,602.9)" />
<use xlink:href="#f1_b" transform="matrix(12,0,0,12,487.3,602.9)" />
<use xlink:href="#f1_g" transform="matrix(12,0,0,12,497.3,602.9)" />
<use xlink:href="#f1_a" transform="matrix(12,0,0,12,504.3,602.9)" />
<use xlink:href="#f1_a" transform="matrix(12,0,0,12,515.6,602.9)" />
<use xlink:href="#f1_e" transform="matrix(12,0,0,12,526.9,602.9)" />
<use xlink:href="#f1_9" transform="matrix(12,0,0,12,544.3,602.9)" />
<use xlink:href="#f1_7" transform="matrix(12,0,0,12,553.9,602.9)" />
<use xlink:href="#f1_d" transform="matrix(12,0,0,12,565.6,602.9)" />
<use xlink:href="#f1_k" transform="matrix(12,0,0,12,576.7,602.9)" />
<use xlink:href="#f1_o" transform="matrix(12,0,0,12,588.3,602.9)" />
<use xlink:href="#f1_f" transform="matrix(12,0,0,12,593.3,602.9)" />
<use xlink:href="#f1_o" transform="matrix(12,0,0,12,610.9,602.9)" />
<use xlink:href="#f1_d" transform="matrix(12,0,0,12,616,602.9)" />
<use xlink:href="#f1_d" transform="matrix(12,0,0,12,627.2,602.9)" />
<use xlink:href="#f1_i" transform="matrix(12,0,0,12,638.4,602.9)" />
<use xlink:href="#f1_9" transform="matrix(12,0,0,12,654.9,602.9)" />
<use xlink:href="#f1_d" transform="matrix(12,0,0,12,664.5,602.9)" />
<use xlink:href="#f1_u" transform="matrix(12,0,0,12,675.6,602.9)" />
<use xlink:href="#f1_a" transform="matrix(12,0,0,12,693.4,602.9)" />
<use xlink:href="#f1_6" transform="matrix(12,0,0,12,704.6,602.9)" />
<use xlink:href="#f1_7" transform="matrix(12,0,0,12,711.8,602.9)" />
<use xlink:href="#f1_c" transform="matrix(12,0,0,12,723.4,602.9)" />
<use xlink:href="#f1_e" transform="matrix(12,0,0,12,728.5,602.9)" />
<use xlink:href="#f1_q" transform="matrix(12,0,0,12,740.2,602.9)" />
<use xlink:href="#f1_o" transform="matrix(12,0,0,12,757.6,602.9)" />
<use xlink:href="#f1_c" transform="matrix(12,0,0,12,762.7,602.9)" />
<use xlink:href="#f1_i" transform="matrix(12,0,0,12,767.7,602.9)" />
<use xlink:href="#f1_a" transform="matrix(12,0,0,12,777.8,602.9)" />
<use xlink:href="#f1_x" transform="matrix(12,0,0,12,86.8,631.4)" />
<use xlink:href="#f1_a" transform="matrix(12,0,0,12,98.4,631.4)" />
<use xlink:href="#f1_o" transform="matrix(12,0,0,12,109.7,631.4)" />
<use xlink:href="#f1_d" transform="matrix(12,0,0,12,114.8,631.4)" />
<use xlink:href="#f1_n" transform="matrix(12,0,0,12,126,631.4)" />
<use xlink:href="#f1_1e" transform="matrix(12,0,0,12,140.1,631.4)" />
</g>
</g>
<defs>
<path d="M679,-20c0,0,-278,0,-440,154C239,134,76,290,76,556c0,0,0,269,166,424c0,0,165,154,453,154c0,0,111,0,213,-21c0,0,102,-21,192,-62V820c0,0,-93,54,-185,80c0,0,-92,26,-185,26c0,0,-171,0,-264,-96c0,0,-92,-96,-92,-274c0,0,0,-177,89,-273c0,0,89,-96,254,-96c0,0,45,0,83,5c0,0,39,6,69,18V425H694V618h447V83C1141,83,1034,31,918,5C918,5,803,-20,679,-20Z" 
id="f0_2"
transform="scale(0.001,-0.001)" />

<path d="M687,509c0,0,0,76,-44,122c0,0,-44,47,-116,47c0,0,-78,0,-126,-44c0,0,-49,-43,-61,-125ZM544,-20c0,0,-227,0,-353,114C191,94,66,209,66,417c0,0,0,204,123,321c0,0,123,118,340,118c0,0,197,0,315,-119c0,0,118,-118,118,-317V344H337c0,0,10,-94,68,-141c0,0,59,-47,163,-47c0,0,85,0,173,25c0,0,89,25,182,76V51C923,51,828,15,733,-2c0,0,-94,-18,-189,-18Z" 
id="f0_3"
transform="scale(0.001,-0.001)" />

<path d="M443,0C443,0,285,0,219,66c0,0,-66,66,-66,224V645H20V836H153v237H419V836H695V645H419V290c0,0,0,-58,24,-79c0,0,23,-20,91,-20H672V0Z" 
id="f0_4"
transform="scale(0.001,-0.001)" />

<path d="M128,0V836H395V0Zm0,944v217H395V944Z" 
id="f0_5"
transform="scale(0.001,-0.001)" />

<path d="M128,0V836H395V713c0,0,60,73,128,108c0,0,68,35,150,35c0,0,145,0,220,-89c0,0,75,-89,75,-258V0H699V389c0,0,0,109,-5,150c0,0,-5,41,-16,60c0,0,-16,26,-43,41c0,0,-27,14,-61,14c0,0,-84,0,-131,-64c0,0,-48,-65,-48,-179V0Z" 
id="f0_6"
transform="scale(0.001,-0.001)" />

<path d="M520,194c0,0,84,0,130,61c0,0,46,61,46,172c0,0,0,112,-46,174c0,0,-46,61,-130,61c0,0,-82,0,-129,-61c0,0,-46,-62,-46,-174c0,0,0,-115,45,-174c0,0,45,-59,130,-59ZM469,-328c0,0,-78,0,-151,12c0,0,-73,12,-147,36V-71c0,0,70,-41,137,-61c0,0,67,-20,135,-20c0,0,131,0,192,58c0,0,61,57,61,178v58C696,142,641,69,575,34C575,34,508,0,421,0C421,0,268,0,168,121C168,121,68,241,68,428c0,0,0,187,100,307c0,0,100,120,253,120c0,0,87,0,154,-35c0,0,66,-34,121,-108V836H965V84c0,0,0,-200,-127,-306c0,0,-127,-106,-369,-106Z" 
id="f0_7"
transform="scale(0.001,-0.001)" />

<path d="M545,-20c0,0,-106,0,-212,20C333,0,226,19,119,58V301c0,0,107,-57,207,-85c0,0,99,-29,192,-29c0,0,94,0,144,31c0,0,50,31,50,90c0,0,0,52,-34,80c0,0,-34,29,-136,51L431,464c0,0,-167,35,-244,114c0,0,-77,78,-77,211c0,0,0,166,107,256c0,0,107,89,309,89c0,0,92,0,189,-14c0,0,97,-13,200,-41V843c0,0,-92,41,-179,62c0,0,-87,21,-165,21c0,0,-103,0,-152,-28c0,0,-49,-29,-49,-88c0,0,0,-45,33,-70c0,0,33,-25,121,-43L646,672c0,0,186,-37,264,-113c0,0,79,-76,79,-216c0,0,0,-185,-110,-275c0,0,-109,-88,-334,-88Z" 
id="f0_9"
transform="scale(0.001,-0.001)" />

<path d="M463,156c0,0,75,0,127,54c0,0,51,54,51,135v30H502c0,0,-83,0,-125,-28c0,0,-43,-28,-43,-83c0,0,0,-50,34,-79c0,0,34,-29,95,-29ZM357,-20c0,0,-130,0,-211,74c0,0,-80,76,-80,197c0,0,0,147,101,215c0,0,101,69,317,69H641v21c0,0,0,63,-50,92c0,0,-49,30,-155,30c0,0,-86,0,-160,-17c0,0,-74,-18,-137,-52V813c0,0,86,21,172,32c0,0,86,11,173,11c0,0,226,0,326,-90c0,0,100,-89,100,-290V0H641V124C641,124,588,48,521,13c0,0,-68,-33,-164,-33Z" 
id="f0_a"
transform="scale(0.001,-0.001)" />

<path d="M128,0V836H395V698c0,0,52,82,118,120c0,0,67,38,161,38c0,0,13,0,29,-2c0,0,15,-1,45,-4l1,-242c0,0,-35,17,-70,25c0,0,-35,7,-70,7c0,0,-103,0,-158,-66c0,0,-56,-66,-56,-189V0Z" 
id="f0_b"
transform="scale(0.001,-0.001)" />

<path d="M520,172c0,0,86,0,131,63c0,0,45,63,45,182c0,0,0,119,-45,182c0,0,-45,63,-131,63c0,0,-85,0,-130,-63c0,0,-45,-63,-45,-182c0,0,0,-119,45,-182c0,0,45,-63,130,-63ZM421,-20c0,0,-154,0,-253,121C168,101,68,224,68,417c0,0,0,193,100,316c0,0,99,123,253,123c0,0,87,0,153,-35c0,0,67,-35,122,-108v448H965V0H696V121C696,121,641,47,575,13c0,0,-67,-33,-154,-33Z" 
id="f0_c"
transform="scale(0.001,-0.001)" />

<path d="M602,101c0,0,164,0,260,122c0,0,95,123,95,333c0,0,0,211,-95,334c0,0,-96,122,-260,122c0,0,-164,0,-260,-122c0,0,-97,-123,-97,-334c0,0,0,-210,97,-333c0,0,96,-122,260,-122Zm0,-121c0,0,-235,0,-375,155C227,135,86,292,86,556c0,0,0,264,141,421c0,0,140,157,375,157c0,0,234,0,374,-157c0,0,141,-157,141,-421c0,0,0,-263,-141,-420C976,136,836,-20,602,-20Z" 
id="f1_2"
transform="scale(0.001,-0.001)" />

<path d="M150,0V1114H300V643l500,471H994L441,595L1034,0H835L300,536V0Z" 
id="f1_3"
transform="scale(0.001,-0.001)" />

<path d="M117,-176L179,62V190H336V62L213,-176Z" 
id="f1_4"
transform="scale(0.001,-0.001)" />

<path d="M421,0C421,0,263,0,202,59c0,0,-60,60,-60,217V729H41V836H142v238H280V836H562V729H280V276c0,0,0,-102,28,-132c0,0,28,-29,113,-29H562V0Z" 
id="f1_6"
transform="scale(0.001,-0.001)" />

<path d="M139,0V1161H277V706c0,0,49,75,116,112c0,0,67,38,154,38c0,0,144,0,218,-90c0,0,74,-89,74,-262V0H702V500c0,0,0,119,-46,177c0,0,-47,59,-139,59c0,0,-112,0,-176,-71c0,0,-64,-70,-64,-193V0Z" 
id="f1_7"
transform="scale(0.001,-0.001)" />

<path d="M408,93c0,0,115,0,184,81c0,0,69,81,69,215v30H524c0,0,-167,0,-231,-38c0,0,-64,-38,-64,-129c0,0,0,-73,48,-116c0,0,48,-43,131,-43ZM372,-20c0,0,-128,0,-204,70c0,0,-76,72,-76,193c0,0,0,141,94,212c0,0,95,72,282,72H661v13c0,0,0,95,-62,147c0,0,-63,52,-175,52c0,0,-72,0,-140,-17c0,0,-68,-17,-130,-51V798c0,0,75,29,146,43c0,0,71,15,138,15c0,0,181,0,270,-95c0,0,90,-94,90,-285V0H661V127C661,127,614,51,544,15c0,0,-70,-35,-172,-35Z" 
id="f1_8"
transform="scale(0.001,-0.001)" />

<path d="M376,-20c0,0,-67,0,-140,12C236,-8,164,4,83,30V172c0,0,76,-40,150,-59c0,0,74,-20,146,-20c0,0,97,0,150,33c0,0,52,33,52,94c0,0,0,56,-38,85c0,0,-38,30,-165,58l-48,11c0,0,-128,27,-184,83c0,0,-57,55,-57,152c0,0,0,118,83,182c0,0,84,65,238,65c0,0,76,0,143,-12c0,0,67,-11,124,-33V681c0,0,-58,29,-121,44c0,0,-63,15,-130,15c0,0,-102,0,-153,-31c0,0,-51,-31,-51,-94c0,0,0,-48,37,-75c0,0,36,-27,147,-52l46,-10c0,0,147,-32,208,-89c0,0,62,-57,62,-159c0,0,0,-116,-93,-184c0,0,-92,-66,-253,-66Z" 
id="f1_9"
transform="scale(0.001,-0.001)" />

<path d="M231,492l491,1c0,0,-2,112,-64,179c0,0,-61,67,-163,67c0,0,-115,0,-184,-65c0,0,-69,-64,-80,-182ZM517,-20c0,0,-199,0,-316,115C201,95,84,211,84,410c0,0,0,205,111,325c0,0,111,121,299,121c0,0,168,0,266,-109c0,0,98,-108,98,-295V385H227c0,0,9,-142,85,-216c0,0,77,-74,213,-74c0,0,80,0,154,19c0,0,74,19,147,58V42C826,42,752,11,675,-4c0,0,-78,-16,-158,-16Z" 
id="f1_a"
transform="scale(0.001,-0.001)" />

<path d="M495,-20c0,0,-189,0,-300,117C195,97,84,216,84,417c0,0,0,204,112,321c0,0,113,118,308,118c0,0,64,0,124,-14c0,0,60,-13,117,-39V675c0,0,-58,32,-117,48c0,0,-58,16,-118,16c0,0,-133,0,-207,-84c0,0,-74,-85,-74,-238c0,0,0,-153,74,-238c0,0,74,-84,207,-84c0,0,60,0,118,16c0,0,59,16,117,48V32C745,32,688,5,626,-7c0,0,-61,-13,-131,-13Z" 
id="f1_b"
transform="scale(0.001,-0.001)" />

<path d="M144,0V836H281V0Zm0,987v174H281V987Z" 
id="f1_c"
transform="scale(0.001,-0.001)" />

<path d="M467,95c0,0,110,0,174,86c0,0,64,87,64,236c0,0,0,148,-64,235c0,0,-64,87,-174,87c0,0,-110,0,-174,-86c0,0,-64,-86,-64,-236c0,0,0,-150,64,-236c0,0,63,-86,174,-86Zm0,-115c0,0,-179,0,-281,115C186,95,84,212,84,417c0,0,0,206,102,322c0,0,102,117,281,117c0,0,179,0,282,-117c0,0,102,-116,102,-322c0,0,0,-205,-102,-322C749,95,646,-20,467,-20Z" 
id="f1_d"
transform="scale(0.001,-0.001)" />

<path d="M139,0V836H277V706c0,0,49,75,116,112c0,0,67,38,154,38c0,0,144,0,218,-90c0,0,74,-89,74,-262V0H702V500c0,0,0,119,-46,177c0,0,-47,59,-139,59c0,0,-112,0,-176,-71c0,0,-64,-70,-64,-193V0Z" 
id="f1_e"
transform="scale(0.001,-0.001)" />

<path d="M460,93c0,0,109,0,171,86c0,0,63,86,63,238c0,0,0,151,-63,237c0,0,-62,86,-171,86c0,0,-109,0,-172,-86c0,0,-62,-86,-62,-237c0,0,0,-152,62,-238c0,0,63,-86,172,-86ZM426,-20c0,0,-151,0,-247,119c0,0,-95,121,-95,318c0,0,0,197,95,318c0,0,96,121,247,121c0,0,93,0,159,-37c0,0,66,-36,109,-110v452H831V0H694V125C694,125,651,51,585,15c0,0,-66,-35,-159,-35Z" 
id="f1_f"
transform="scale(0.001,-0.001)" />

<path d="M139,0V836H277V706c0,0,43,76,112,113c0,0,70,37,169,37c0,0,14,0,31,-2c0,0,17,-2,38,-6l1,-141c0,0,-23,14,-51,20c0,0,-27,6,-60,6c0,0,-116,0,-178,-75c0,0,-62,-76,-62,-218V0Z" 
id="f1_g"
transform="scale(0.001,-0.001)" />

<path d="M166,0V729H35V836H166v58c0,0,0,139,65,203c0,0,65,64,206,64H567V1046H435c0,0,-74,0,-102,-29c0,0,-29,-30,-29,-107V836H530V729H304V0Z" 
id="f1_h"
transform="scale(0.001,-0.001)" />

<path d="M139,0V1161H277V475L686,836H861L418,445L880,0H701L277,408V0Z" 
id="f1_i"
transform="scale(0.001,-0.001)" />

<path d="M74,357V479H476V357Z" 
id="f1_j"
transform="scale(0.001,-0.001)" />

<path d="M424,-20c0,0,-145,0,-219,88c0,0,-75,89,-75,262V836H267V335c0,0,0,-119,46,-178c0,0,47,-59,139,-59c0,0,112,0,177,71c0,0,64,71,64,193V836H830V0H693V128C693,128,643,52,577,15c0,0,-66,-35,-153,-35Z" 
id="f1_k"
transform="scale(0.001,-0.001)" />

<path d="M163,0V190H321V0Z" 
id="f1_l"
transform="scale(0.001,-0.001)" />

<path d="M542,124c0,0,121,0,180,50c0,0,58,51,58,154c0,0,0,105,-58,154c0,0,-59,50,-180,50H300V124ZM523,654c0,0,111,0,165,41c0,0,54,42,54,127c0,0,0,84,-54,126c0,0,-54,42,-165,42H300V654ZM150,0V1114H535c0,0,172,0,265,-72c0,0,94,-72,94,-204c0,0,0,-102,-48,-162c0,0,-48,-61,-140,-76c0,0,111,-23,172,-99c0,0,62,-76,62,-189c0,0,0,-149,-102,-231C838,81,737,0,550,0Z" 
id="f1_m"
transform="scale(0.001,-0.001)" />

<path d="M283,0L65,836H202L373,184L544,836H706L878,184l171,652h137L967,0H806L626,685L445,0Z" 
id="f1_n"
transform="scale(0.001,-0.001)" />

<path d="M144,0V1161H281V0Z" 
id="f1_o"
transform="scale(0.001,-0.001)" />

<path d="M121,-317v116h81c0,0,57,0,88,26c0,0,31,27,69,127l25,62L46,836H191L453,182L714,836H859L492,-76c0,0,-58,-150,-113,-195c0,0,-55,-46,-148,-46Z" 
id="f1_p"
transform="scale(0.001,-0.001)" />

<path d="M460,115c0,0,111,0,173,82c0,0,61,82,61,230c0,0,0,149,-61,231c0,0,-62,82,-173,82c0,0,-111,0,-173,-82c0,0,-61,-82,-61,-231c0,0,0,-148,61,-230c0,0,62,-82,173,-82ZM446,-317c0,0,-72,0,-137,11c0,0,-64,11,-124,33v134c0,0,60,-33,119,-49c0,0,59,-15,121,-15c0,0,135,0,202,70c0,0,67,71,67,212v68C694,147,652,73,585,36C585,36,519,0,426,0C426,0,272,0,178,117c0,0,-94,117,-94,310c0,0,0,194,94,311c0,0,94,118,248,118c0,0,93,0,159,-37c0,0,67,-36,109,-110V836H831V104c0,0,0,-212,-95,-317c0,0,-94,-104,-290,-104Z" 
id="f1_q"
transform="scale(0.001,-0.001)" />

<path d="M132,763l62,237v114H351V1000L228,763Z" 
id="f1_r"
transform="scale(0.001,-0.001)" />

<path d="M510,93c0,0,109,0,171,86c0,0,62,86,62,238c0,0,0,151,-62,237c0,0,-62,86,-171,86c0,0,-109,0,-171,-86c0,0,-62,-86,-62,-237c0,0,0,-152,62,-238c0,0,62,-86,171,-86ZM139,-317V836H277V709c0,0,43,74,109,110c0,0,66,37,158,37c0,0,152,0,247,-121c0,0,95,-121,95,-318c0,0,0,-197,-95,-318C791,99,696,-20,544,-20c0,0,-92,0,-158,35c0,0,-66,36,-109,110V-317Z" 
id="f1_s"
transform="scale(0.001,-0.001)" />

<path d="M359,0L46,836H191L453,134L714,836H859L546,0Z" 
id="f1_t"
transform="scale(0.001,-0.001)" />

<path d="M139,0V836H277V706c0,0,47,77,112,113c0,0,66,37,156,37c0,0,91,0,155,-47c0,0,64,-46,94,-134c0,0,52,93,123,137c0,0,72,44,169,44c0,0,130,0,201,-92c0,0,71,-91,71,-260V0H1220V500c0,0,0,120,-42,178c0,0,-43,58,-130,58c0,0,-107,0,-169,-71c0,0,-62,-70,-62,-193V0H680V500c0,0,0,121,-43,179c0,0,-42,57,-131,57c0,0,-105,0,-167,-71c0,0,-62,-71,-62,-193V0Z" 
id="f1_u"
transform="scale(0.001,-0.001)" />

<path d="M190,0V127H436V977L168,923v137l267,54H586V127H832V0Z" 
id="f1_v"
transform="scale(0.001,-0.001)" />

<path d="M391,0V987H-3v127H938V987H543V0Z" 
id="f1_w"
transform="scale(0.001,-0.001)" />

<path d="M510,93c0,0,109,0,171,86c0,0,62,86,62,238c0,0,0,151,-62,237c0,0,-62,86,-171,86c0,0,-109,0,-171,-86c0,0,-62,-86,-62,-237c0,0,0,-152,62,-238c0,0,62,-86,171,-86ZM544,-20c0,0,-92,0,-158,35c0,0,-66,36,-109,110V0H139V1161H277V709c0,0,43,74,109,110c0,0,66,37,158,37c0,0,152,0,247,-121c0,0,95,-121,95,-318c0,0,0,-197,-95,-318C791,99,696,-20,544,-20Z" 
id="f1_x"
transform="scale(0.001,-0.001)" />

<path d="M-26,-317v117H9c0,0,78,0,106,36c0,0,29,36,29,150V836H281V-14c0,0,0,-160,-61,-231c0,0,-61,-72,-195,-72ZM144,987v174H281V987Z" 
id="f1_y"
transform="scale(0.001,-0.001)" />

<path d="M46,0L444,595L97,1114H259L536,700l278,414H976L618,579L999,0H837L524,474L209,0Z" 
id="f1_z"
transform="scale(0.001,-0.001)" />

<path d="M150,0V1114H353L846,182v932H992V0H789L296,932V0Z" 
id="f1_10"
transform="scale(0.001,-0.001)" />

<path d="M280,0L660,987H125v127H841v-64L437,0Z" 
id="f1_11"
transform="scale(0.001,-0.001)" />

<path d="M414,-20c0,0,-70,0,-144,13c0,0,-75,13,-154,40V179c0,0,63,-36,138,-55c0,0,74,-18,156,-18c0,0,142,0,216,55c0,0,74,56,74,163c0,0,0,98,-69,153c0,0,-69,56,-192,56H309V657H445c0,0,111,0,170,44c0,0,59,45,59,128c0,0,0,86,-61,132c0,0,-61,46,-174,46c0,0,-62,0,-133,-13c0,0,-71,-14,-156,-42v134c0,0,85,24,160,36c0,0,75,12,142,12c0,0,171,0,271,-78c0,0,100,-78,100,-211c0,0,0,-92,-53,-156c0,0,-52,-64,-150,-89c0,0,108,-23,169,-96c0,0,61,-73,61,-180c0,0,0,-165,-114,-255c0,0,-113,-89,-322,-89Z" 
id="f1_12"
transform="scale(0.001,-0.001)" />

<path d="M354,-200c0,0,-112,175,-167,343c0,0,-56,170,-56,337c0,0,0,166,55,335c0,0,55,169,168,345H473c0,0,-100,-172,-148,-340c0,0,-48,-168,-48,-340c0,0,0,-173,48,-342c0,0,49,-168,148,-338Z" 
id="f1_13"
transform="scale(0.001,-0.001)" />

<path d="M122,-200c0,0,99,170,148,338c0,0,49,169,49,342c0,0,0,172,-49,340c0,0,-49,168,-148,340H241c0,0,112,-176,168,-345c0,0,55,-169,55,-335c0,0,0,-167,-55,-337c0,0,-56,-168,-168,-343Z" 
id="f1_14"
transform="scale(0.001,-0.001)" />

<path d="M482,124c0,0,231,0,338,105c0,0,107,104,107,329c0,0,0,224,-107,328c0,0,-107,104,-338,104H300V124ZM150,0V1114H459c0,0,324,0,476,-135c0,0,151,-135,151,-421c0,0,0,-288,-152,-423C934,135,782,0,459,0Z" 
id="f1_15"
transform="scale(0.001,-0.001)" />

<path d="M741,75V847h97L640,1046L442,847h97V75ZM465,0V773H261l379,379L1019,773H815V0Z" 
id="f1_16"
transform="scale(0.001,-0.001)" />

<path d="M419,111c0,0,51,0,88,37c0,0,36,36,36,87V360H419c0,0,-51,0,-88,-37c0,0,-36,-37,-36,-87c0,0,0,-52,36,-88c0,0,37,-37,88,-37Zm690,0c0,0,52,0,88,37c0,0,36,36,36,88c0,0,0,50,-36,87c0,0,-37,37,-88,37H985V235c0,0,0,-51,36,-87c0,0,37,-37,88,-37ZM874,470V691H653V470ZM543,801V926c0,0,0,51,-36,87c0,0,-37,37,-88,37c0,0,-51,0,-88,-37c0,0,-36,-36,-36,-87c0,0,0,-52,36,-88c0,0,37,-37,88,-37Zm566,0c0,0,51,0,88,37c0,0,36,36,36,88c0,0,0,51,-36,87c0,0,-36,37,-88,37c0,0,-51,0,-88,-37c0,0,-36,-36,-36,-87V801ZM419,1c0,0,-97,0,-166,68c0,0,-69,69,-69,167c0,0,0,95,69,165c0,0,69,69,163,69H543V691H416c0,0,-94,0,-163,69c0,0,-69,70,-69,166c0,0,0,97,69,165c0,0,69,69,165,69c0,0,97,0,166,-68c0,0,69,-69,69,-164V801H874V928c0,0,0,95,69,164c0,0,69,68,166,68c0,0,98,0,166,-69c0,0,69,-68,69,-165c0,0,0,-96,-69,-166c0,0,-68,-69,-163,-69H985V470h127c0,0,95,0,163,-69c0,0,69,-70,69,-165c0,0,0,-98,-69,-167c0,0,-68,-68,-166,-68c0,0,-97,0,-166,68c0,0,-69,68,-69,164V360H653V233c0,0,0,-96,-69,-164C584,69,515,1,419,1Z" 
id="f1_17"
transform="scale(0.001,-0.001)" />

<path d="M121,0V211L528,570c0,0,54,50,80,96c0,0,27,47,27,98c0,0,0,78,-53,126c0,0,-53,48,-140,48c0,0,-67,0,-147,-29c0,0,-80,-28,-171,-85v245c0,0,97,32,192,48c0,0,95,17,186,17c0,0,199,0,310,-88c0,0,111,-88,111,-245c0,0,0,-91,-47,-170c0,0,-47,-79,-197,-211L441,211H931V0Z" 
id="f0_d"
transform="scale(0.001,-0.001)" />

<path d="M458,-20c0,0,-79,0,-168,17c0,0,-89,17,-184,52V204c0,0,91,-51,179,-77c0,0,88,-26,173,-26c0,0,129,0,199,50c0,0,70,51,70,145c0,0,0,82,-50,129c0,0,-50,46,-165,69l-92,18c0,0,-169,34,-244,105c0,0,-75,72,-75,199c0,0,0,148,104,233c0,0,104,85,287,85c0,0,78,0,159,-14c0,0,81,-14,166,-42V931c0,0,-85,41,-161,61c0,0,-76,20,-147,20c0,0,-123,0,-190,-48c0,0,-67,-48,-67,-136c0,0,0,-73,45,-111c0,0,44,-38,168,-61l91,-19c0,0,168,-32,249,-113c0,0,80,-81,80,-216c0,0,0,-162,-109,-246c0,0,-108,-82,-318,-82Z" 
id="f1_18"
transform="scale(0.001,-0.001)" />

<path d="M150,0V1114H300V0Z" 
id="f1_19"
transform="scale(0.001,-0.001)" />

<path d="M74,365V472H1453V365Z" 
id="f1_1a"
transform="scale(0.001,-0.001)" />

<path d="M130,747V876l123,238h96L287,876V747Zm306,0V876l123,238h96L594,876V747Z" 
id="f1_1b"
transform="scale(0.001,-0.001)" />

<path d="M129,747l62,239v128H348V986L225,747Zm306,0l62,239v128H654V986L531,747Z" 
id="f1_1c"
transform="scale(0.001,-0.001)" />

<path d="M150,0V1114H854V987H300V657H831V530H300V127H867V0Z" 
id="f1_1d"
transform="scale(0.001,-0.001)" />

<path d="M179,0V190H336V0Zm0,600V790H336V600Z" 
id="f1_1e"
transform="scale(0.001,-0.001)" />


</defs>
</svg>