<?xml version="1.0" encoding="UTF-8" standalone="no"?>
<!DOCTYPE svg PUBLIC "-//W3C//DTD SVG 1.1//EN"
"http://www.w3.org/Graphics/SVG/1.1/DTD/svg11.dtd">
<svg viewBox="0 0 909 1286" version="1.1" xmlns="http://www.w3.org/2000/svg" xmlns:xlink="http://www.w3.org/1999/xlink">
<defs>
<clipPath id="c0_34"><path d="M0,1286.2V.2H909.3v1286Z" /></clipPath>
<style type="text/css"><![CDATA[
.g0_34{
fill: #FFFFCC;
}
]]></style>
</defs>
<g clip-path="url(#c0_34)">
<g fill="#000000" >
<use xlink:href="#f0_x" transform="matrix(12,0,0,12,86.8,712.6)" />
<use xlink:href="#f0_c" transform="matrix(12,0,0,12,95.6,712.6)" />
<use xlink:href="#f0_r" transform="matrix(12,0,0,12,106.8,712.6)" />
<use xlink:href="#f0_8" transform="matrix(12,0,0,12,118.4,712.6)" />
<use xlink:href="#f0_j" transform="matrix(12,0,0,12,131.8,712.6)" />
<use xlink:href="#f0_4" transform="matrix(12,0,0,12,143.4,712.6)" />
<use xlink:href="#f0_k" transform="matrix(12,0,0,12,154.7,712.6)" />
<use xlink:href="#f0_7" transform="matrix(12,0,0,12,165.6,712.6)" />
<use xlink:href="#f0_o" transform="matrix(12,0,0,12,170.6,712.6)" />
<use xlink:href="#f0_4" transform="matrix(12,0,0,12,180.7,712.6)" />
<use xlink:href="#f0_7" transform="matrix(12,0,0,12,197.8,712.6)" />
<use xlink:href="#f0_9" transform="matrix(12,0,0,12,202.8,712.6)" />
<use xlink:href="#f0_h" transform="matrix(12,0,0,12,218.2,712.6)" />
<use xlink:href="#f0_c" transform="matrix(12,0,0,12,229.8,712.6)" />
<use xlink:href="#f0_y" transform="matrix(12,0,0,12,241,712.6)" />
<use xlink:href="#f0_8" transform="matrix(12,0,0,12,261.9,712.6)" />
<use xlink:href="#f0_4" transform="matrix(12,0,0,12,268.9,712.6)" />
<use xlink:href="#f0_f" transform="matrix(12,0,0,12,280.2,712.6)" />
<use xlink:href="#f0_7" transform="matrix(12,0,0,12,291.8,712.6)" />
<use xlink:href="#f0_9" transform="matrix(12,0,0,12,296.9,712.6)" />
<use xlink:href="#f0_a" transform="matrix(12,0,0,12,306.5,712.6)" />
<use xlink:href="#f0_4" transform="matrix(12,0,0,12,313.7,712.6)" />
<use xlink:href="#f0_8" transform="matrix(12,0,0,12,324.9,712.6)" />
<use xlink:href="#f0_4" transform="matrix(12,0,0,12,332,712.6)" />
<use xlink:href="#f0_j" transform="matrix(12,0,0,12,343.3,712.6)" />
<use xlink:href="#f0_q" transform="matrix(12,0,0,12,355,712.6)" />
<use xlink:href="#f0_g" transform="matrix(12,0,0,12,366.6,712.6)" />
<use xlink:href="#f0_h" transform="matrix(12,0,0,12,377.9,712.6)" />
<use xlink:href="#f0_j" transform="matrix(12,0,0,12,389.5,712.6)" />
<use xlink:href="#f0_y" transform="matrix(12,0,0,12,407,712.6)" />
<use xlink:href="#f0_7" transform="matrix(12,0,0,12,421.9,712.6)" />
<use xlink:href="#f0_i" transform="matrix(12,0,0,12,427.1,712.6)" />
<use xlink:href="#f0_i" transform="matrix(12,0,0,12,432.1,712.6)" />
<use xlink:href="#f0_g" transform="matrix(12,0,0,12,443.1,712.6)" />
<use xlink:href="#f0_b" transform="matrix(12,0,0,12,454.3,712.6)" />
<use xlink:href="#f0_b" transform="matrix(12,0,0,12,465.9,712.6)" />
<use xlink:href="#f0_4" transform="matrix(12,0,0,12,477.5,712.6)" />
<use xlink:href="#f0_g" transform="matrix(12,0,0,12,488.8,712.6)" />
<use xlink:href="#f0_8" transform="matrix(12,0,0,12,500.1,712.6)" />
<use xlink:href="#f0_7" transform="matrix(12,0,0,12,513.4,712.6)" />
<use xlink:href="#f0_h" transform="matrix(12,0,0,12,518.4,712.6)" />
<use xlink:href="#f0_t" transform="matrix(12,0,0,12,536,712.6)" />
<use xlink:href="#f0_c" transform="matrix(12,0,0,12,546.8,712.6)" />
<use xlink:href="#f0_r" transform="matrix(12,0,0,12,557.9,712.6)" />
<use xlink:href="#f0_8" transform="matrix(12,0,0,12,569.5,712.6)" />
<use xlink:href="#f0_i" transform="matrix(12,0,0,12,583,712.6)" />
<use xlink:href="#f0_7" transform="matrix(12,0,0,12,588,712.6)" />
<use xlink:href="#f0_9" transform="matrix(12,0,0,12,593.1,712.6)" />
<use xlink:href="#f0_a" transform="matrix(12,0,0,12,602.7,712.6)" />
<use xlink:href="#f0_c" transform="matrix(12,0,0,12,615.7,712.6)" />
<use xlink:href="#f0_6" transform="matrix(12,0,0,12,626.8,712.6)" />
<use xlink:href="#f0_j" transform="matrix(12,0,0,12,639.2,712.6)" />
<use xlink:href="#f0_4" transform="matrix(12,0,0,12,650.8,712.6)" />
<use xlink:href="#f0_k" transform="matrix(12,0,0,12,662.1,712.6)" />
<use xlink:href="#f0_7" transform="matrix(12,0,0,12,672.9,712.6)" />
<use xlink:href="#f0_o" transform="matrix(12,0,0,12,678,712.6)" />
<use xlink:href="#f0_4" transform="matrix(12,0,0,12,688,712.6)" />
<use xlink:href="#f0_9" transform="matrix(12,0,0,12,699.3,712.6)" />
<use xlink:href="#f0_12" transform="matrix(12,0,0,12,708.9,712.6)" />
<use xlink:href="#f0_x" transform="matrix(12,0,0,12,86.8,1044.2)" />
<use xlink:href="#f0_c" transform="matrix(12,0,0,12,95.6,1044.2)" />
<use xlink:href="#f0_r" transform="matrix(12,0,0,12,106.8,1044.2)" />
<use xlink:href="#f0_o" transform="matrix(12,0,0,12,124.2,1044.2)" />
<use xlink:href="#f0_g" transform="matrix(12,0,0,12,134.3,1044.2)" />
<use xlink:href="#f0_h" transform="matrix(12,0,0,12,145.6,1044.2)" />
<use xlink:href="#f0_g" transform="matrix(12,0,0,12,163,1044.2)" />
<use xlink:href="#f0_i" transform="matrix(12,0,0,12,174.3,1044.2)" />
<use xlink:href="#f0_y" transform="matrix(12,0,0,12,179.3,1044.2)" />
<use xlink:href="#f0_g" transform="matrix(12,0,0,12,194.3,1044.2)" />
<use xlink:href="#f0_t" transform="matrix(12,0,0,12,205.6,1044.2)" />
<use xlink:href="#f0_9" transform="matrix(12,0,0,12,216.3,1044.2)" />
<use xlink:href="#f0_f" transform="matrix(12,0,0,12,231.7,1044.2)" />
<use xlink:href="#f0_c" transform="matrix(12,0,0,12,243.3,1044.2)" />
<use xlink:href="#f0_n" transform="matrix(12,0,0,12,260.4,1044.2)" />
<use xlink:href="#f0_g" transform="matrix(12,0,0,12,272,1044.2)" />
<use xlink:href="#f0_o" transform="matrix(12,0,0,12,283.3,1044.2)" />
<use xlink:href="#f0_10" transform="matrix(12,0,0,12,293.2,1044.2)" />
<use xlink:href="#f0_i" transform="matrix(12,0,0,12,309.7,1044.2)" />
<use xlink:href="#f0_g" transform="matrix(12,0,0,12,314.8,1044.2)" />
<use xlink:href="#f0_a" transform="matrix(12,0,0,12,326,1044.2)" />
<use xlink:href="#f0_4" transform="matrix(12,0,0,12,333.2,1044.2)" />
<use xlink:href="#f0_8" transform="matrix(12,0,0,12,344.5,1044.2)" />
<use xlink:href="#f0_a" transform="matrix(12,0,0,12,357.9,1044.2)" />
<use xlink:href="#f0_c" transform="matrix(12,0,0,12,365.1,1044.2)" />
<use xlink:href="#f0_8" transform="matrix(12,0,0,12,382.1,1044.2)" />
<use xlink:href="#f0_4" transform="matrix(12,0,0,12,389.1,1044.2)" />
<use xlink:href="#f0_f" transform="matrix(12,0,0,12,400.4,1044.2)" />
<use xlink:href="#f0_7" transform="matrix(12,0,0,12,412.2,1044.2)" />
<use xlink:href="#f0_9" transform="matrix(12,0,0,12,417.2,1044.2)" />
<use xlink:href="#f0_a" transform="matrix(12,0,0,12,426.8,1044.2)" />
<use xlink:href="#f0_4" transform="matrix(12,0,0,12,434,1044.2)" />
<use xlink:href="#f0_8" transform="matrix(12,0,0,12,445.3,1044.2)" />
<use xlink:href="#f0_p" transform="matrix(12,0,0,12,458.6,1044.2)" />
<use xlink:href="#f0_c" transform="matrix(12,0,0,12,476.4,1044.2)" />
<use xlink:href="#f0_8" transform="matrix(12,0,0,12,487.7,1044.2)" />
<use xlink:href="#f0_4" transform="matrix(12,0,0,12,494.7,1044.2)" />
<use xlink:href="#f0_j" transform="matrix(12,0,0,12,511.9,1044.2)" />
<use xlink:href="#f0_4" transform="matrix(12,0,0,12,523.5,1044.2)" />
<use xlink:href="#f0_k" transform="matrix(12,0,0,12,534.8,1044.2)" />
<use xlink:href="#f0_7" transform="matrix(12,0,0,12,545.6,1044.2)" />
<use xlink:href="#f0_o" transform="matrix(12,0,0,12,550.6,1044.2)" />
<use xlink:href="#f0_4" transform="matrix(12,0,0,12,560.7,1044.2)" />
<use xlink:href="#f0_9" transform="matrix(12,0,0,12,572,1044.2)" />
<use xlink:href="#f0_q" transform="matrix(12,0,0,12,581.6,1044.2)" />
<use xlink:href="#f0_9" transform="matrix(12,0,0,12,593.2,1044.2)" />
<use xlink:href="#f0_r" transform="matrix(12,0,0,12,602.8,1044.2)" />
<use xlink:href="#f0_o" transform="matrix(12,0,0,12,614.4,1044.2)" />
<use xlink:href="#f0_3" transform="matrix(12,0,0,12,624.5,1044.2)" />
<use xlink:href="#f0_g" transform="matrix(12,0,0,12,641.9,1044.2)" />
<use xlink:href="#f0_a" transform="matrix(12,0,0,12,659,1044.2)" />
<use xlink:href="#f0_3" transform="matrix(12,0,0,12,666.2,1044.2)" />
<use xlink:href="#f0_c" transform="matrix(12,0,0,12,677.8,1044.2)" />
<use xlink:href="#f0_9" transform="matrix(12,0,0,12,689,1044.2)" />
<use xlink:href="#f0_4" transform="matrix(12,0,0,12,698.6,1044.2)" />
<use xlink:href="#f0_n" transform="matrix(12,0,0,12,715.7,1044.2)" />
<use xlink:href="#f0_4" transform="matrix(12,0,0,12,727.3,1044.2)" />
<use xlink:href="#f0_i" transform="matrix(12,0,0,12,738.6,1044.2)" />
<use xlink:href="#f0_c" transform="matrix(12,0,0,12,743.6,1044.2)" />
<use xlink:href="#f0_h" transform="matrix(12,0,0,12,754.8,1044.2)" />
<use xlink:href="#f0_f" transform="matrix(12,0,0,12,766.4,1044.2)" />
<use xlink:href="#f0_7" transform="matrix(12,0,0,12,778.1,1044.2)" />
<use xlink:href="#f0_h" transform="matrix(12,0,0,12,783.2,1044.2)" />
<use xlink:href="#f0_f" transform="matrix(12,0,0,12,794.8,1044.2)" />
<use xlink:href="#f0_a" transform="matrix(12,0,0,12,86.8,1073)" />
<use xlink:href="#f0_c" transform="matrix(12,0,0,12,94,1073)" />
<use xlink:href="#f0_6" transform="matrix(12,0,0,12,111.1,1073)" />
<use xlink:href="#f0_8" transform="matrix(12,0,0,12,117.5,1073)" />
<use xlink:href="#f0_7" transform="matrix(12,0,0,12,125,1073)" />
<use xlink:href="#f0_4" transform="matrix(12,0,0,12,130,1073)" />
<use xlink:href="#f0_h" transform="matrix(12,0,0,12,141.3,1073)" />
<use xlink:href="#f0_j" transform="matrix(12,0,0,12,152.9,1073)" />
<use xlink:href="#f0_9" transform="matrix(12,0,0,12,164.5,1073)" />
<use xlink:href="#f0_g" transform="matrix(12,0,0,12,180.1,1073)" />
<use xlink:href="#f0_h" transform="matrix(12,0,0,12,191.2,1073)" />
<use xlink:href="#f0_j" transform="matrix(12,0,0,12,202.8,1073)" />
<use xlink:href="#f0_n" transform="matrix(12,0,0,12,220.4,1073)" />
<use xlink:href="#f0_4" transform="matrix(12,0,0,12,232,1073)" />
<use xlink:href="#f0_a" transform="matrix(12,0,0,12,243.3,1073)" />
<use xlink:href="#f0_g" transform="matrix(12,0,0,12,250.3,1073)" />
<use xlink:href="#f0_1n" transform="matrix(12,0,0,12,261.6,1073)" />
<use xlink:href="#f0_a" transform="matrix(12,0,0,12,268.1,1073)" />
<use xlink:href="#f0_4" transform="matrix(12,0,0,12,275.3,1073)" />
<use xlink:href="#f0_9" transform="matrix(12,0,0,12,286.6,1073)" />
<use xlink:href="#f0_a" transform="matrix(12,0,0,12,296.2,1073)" />
<use xlink:href="#f0_4" transform="matrix(12,0,0,12,303.4,1073)" />
<use xlink:href="#f0_8" transform="matrix(12,0,0,12,314.7,1073)" />
<use xlink:href="#f0_9" transform="matrix(12,0,0,12,322.2,1073)" />
<use xlink:href="#f0_l" transform="matrix(12,0,0,12,331.8,1073)" />
</g>
</g>
<path fill-rule="evenodd" d="M86.6,1106h46.9v-23.7H86.6V1106Z" class="g0_34" />
<g clip-path="url(#c0_34)">
<g fill="#0000FF" >
<use xlink:href="#f1_1e" transform="matrix(12,0,0,12,86.8,1100.3)" />
<use xlink:href="#f1_2b" transform="matrix(12,0,0,12,100.1,1100.3)" />
<use xlink:href="#f1_2g" transform="matrix(12,0,0,12,111.2,1100.3)" />
<use xlink:href="#f1_21" transform="matrix(12,0,0,12,117.3,1100.3)" />
<use xlink:href="#f1_u" transform="matrix(12,0,0,12,127.5,1100.3)" />
</g>
</g>
<path fill-rule="evenodd" d="M133.5,1106h5.2v-23.7h-5.2V1106Z" class="g0_34" />
<path fill-rule="evenodd" d="M138.7,1104.6H820.6v-21.4H138.7v21.4Z" class="g0_34" />
<g clip-path="url(#c0_34)">
<g fill="#000000" >
<use xlink:href="#f0_d" transform="matrix(12,0,0,12,138.9,1100.3)" />
<use xlink:href="#f0_b" transform="matrix(12,0,0,12,151.4,1100.3)" />
<use xlink:href="#f0_b" transform="matrix(12,0,0,12,163,1100.3)" />
<use xlink:href="#f0_i" transform="matrix(12,0,0,12,174.6,1100.3)" />
<use xlink:href="#f0_4" transform="matrix(12,0,0,12,179.6,1100.3)" />
<use xlink:href="#f0_g" transform="matrix(12,0,0,12,196.9,1100.3)" />
<use xlink:href="#f0_i" transform="matrix(12,0,0,12,208,1100.3)" />
<use xlink:href="#f0_i" transform="matrix(12,0,0,12,213.1,1100.3)" />
<use xlink:href="#f0_c" transform="matrix(12,0,0,12,218.2,1100.3)" />
<use xlink:href="#f0_y" transform="matrix(12,0,0,12,229.4,1100.3)" />
<use xlink:href="#f0_9" transform="matrix(12,0,0,12,244.4,1100.3)" />
<use xlink:href="#f0_t" transform="matrix(12,0,0,12,259.8,1100.3)" />
<use xlink:href="#f0_c" transform="matrix(12,0,0,12,270.6,1100.3)" />
<use xlink:href="#f0_r" transform="matrix(12,0,0,12,281.8,1100.3)" />
<use xlink:href="#f0_a" transform="matrix(12,0,0,12,299.3,1100.3)" />
<use xlink:href="#f0_c" transform="matrix(12,0,0,12,306.5,1100.3)" />
<use xlink:href="#f0_8" transform="matrix(12,0,0,12,323.5,1100.3)" />
<use xlink:href="#f0_4" transform="matrix(12,0,0,12,330.5,1100.3)" />
<use xlink:href="#f0_f" transform="matrix(12,0,0,12,341.8,1100.3)" />
<use xlink:href="#f0_7" transform="matrix(12,0,0,12,353.5,1100.3)" />
<use xlink:href="#f0_9" transform="matrix(12,0,0,12,358.6,1100.3)" />
<use xlink:href="#f0_a" transform="matrix(12,0,0,12,368.2,1100.3)" />
<use xlink:href="#f0_4" transform="matrix(12,0,0,12,375.4,1100.3)" />
<use xlink:href="#f0_8" transform="matrix(12,0,0,12,386.7,1100.3)" />
<use xlink:href="#f0_r" transform="matrix(12,0,0,12,399.9,1100.3)" />
<use xlink:href="#f0_b" transform="matrix(12,0,0,12,411.5,1100.3)" />
<use xlink:href="#f0_a" transform="matrix(12,0,0,12,429.1,1100.3)" />
<use xlink:href="#f0_c" transform="matrix(12,0,0,12,436.3,1100.3)" />
<use xlink:href="#f0_1u" transform="matrix(12,0,0,12,453.2,1100.3)" />
<use xlink:href="#f0_1v" transform="matrix(12,0,0,12,464.8,1100.3)" />
<use xlink:href="#f0_1v" transform="matrix(12,0,0,12,476.6,1100.3)" />
<use xlink:href="#f0_j" transform="matrix(12,0,0,12,494,1100.3)" />
<use xlink:href="#f0_4" transform="matrix(12,0,0,12,505.6,1100.3)" />
<use xlink:href="#f0_k" transform="matrix(12,0,0,12,516.9,1100.3)" />
<use xlink:href="#f0_7" transform="matrix(12,0,0,12,527.7,1100.3)" />
<use xlink:href="#f0_o" transform="matrix(12,0,0,12,532.8,1100.3)" />
<use xlink:href="#f0_4" transform="matrix(12,0,0,12,542.9,1100.3)" />
<use xlink:href="#f0_9" transform="matrix(12,0,0,12,554.1,1100.3)" />
<use xlink:href="#f0_b" transform="matrix(12,0,0,12,569.6,1100.3)" />
<use xlink:href="#f0_4" transform="matrix(12,0,0,12,581.2,1100.3)" />
<use xlink:href="#f0_8" transform="matrix(12,0,0,12,592.5,1100.3)" />
<use xlink:href="#f0_t" transform="matrix(12,0,0,12,605.9,1100.3)" />
<use xlink:href="#f0_4" transform="matrix(12,0,0,12,616.7,1100.3)" />
<use xlink:href="#f0_g" transform="matrix(12,0,0,12,627.9,1100.3)" />
<use xlink:href="#f0_8" transform="matrix(12,0,0,12,639.2,1100.3)" />
<use xlink:href="#f0_a" transform="matrix(12,0,0,12,652.6,1100.3)" />
<use xlink:href="#f0_c" transform="matrix(12,0,0,12,659.8,1100.3)" />
<use xlink:href="#f0_t" transform="matrix(12,0,0,12,676.7,1100.3)" />
<use xlink:href="#f0_c" transform="matrix(12,0,0,12,687.6,1100.3)" />
<use xlink:href="#f0_r" transform="matrix(12,0,0,12,698.7,1100.3)" />
<use xlink:href="#f0_8" transform="matrix(12,0,0,12,710.5,1100.3)" />
<use xlink:href="#f0_g" transform="matrix(12,0,0,12,723.8,1100.3)" />
<use xlink:href="#f0_o" transform="matrix(12,0,0,12,735.1,1100.3)" />
<use xlink:href="#f0_o" transform="matrix(12,0,0,12,745.1,1100.3)" />
<use xlink:href="#f0_c" transform="matrix(12,0,0,12,755.2,1100.3)" />
<use xlink:href="#f0_r" transform="matrix(12,0,0,12,766.3,1100.3)" />
<use xlink:href="#f0_h" transform="matrix(12,0,0,12,777.9,1100.3)" />
<use xlink:href="#f0_a" transform="matrix(12,0,0,12,789.5,1100.3)" />
<use xlink:href="#f0_l" transform="matrix(12,0,0,12,796.7,1100.3)" />
<use xlink:href="#f0_z" transform="matrix(12,0,0,12,808.5,1100.3)" />
<use xlink:href="#f0_6" transform="matrix(12,0,0,12,813.8,1100.3)" />
</g>
</g>
<path fill-rule="evenodd" d="M86.6,1134.5H801.5v-21.4H86.6v21.4Z" class="g0_34" />
<g clip-path="url(#c0_34)">
<g fill="#000000" >
<use xlink:href="#f0_t" transform="matrix(12,0,0,12,86.8,1130.3)" />
<use xlink:href="#f0_c" transform="matrix(12,0,0,12,97.6,1130.3)" />
<use xlink:href="#f0_r" transform="matrix(12,0,0,12,108.8,1130.3)" />
<use xlink:href="#f0_8" transform="matrix(12,0,0,12,126.3,1130.3)" />
<use xlink:href="#f0_4" transform="matrix(12,0,0,12,133.3,1130.3)" />
<use xlink:href="#f0_f" transform="matrix(12,0,0,12,144.6,1130.3)" />
<use xlink:href="#f0_7" transform="matrix(12,0,0,12,156.2,1130.3)" />
<use xlink:href="#f0_9" transform="matrix(12,0,0,12,161.3,1130.3)" />
<use xlink:href="#f0_a" transform="matrix(12,0,0,12,170.9,1130.3)" />
<use xlink:href="#f0_4" transform="matrix(12,0,0,12,178.1,1130.3)" />
<use xlink:href="#f0_8" transform="matrix(12,0,0,12,189.4,1130.3)" />
<use xlink:href="#f0_g" transform="matrix(12,0,0,12,202.8,1130.3)" />
<use xlink:href="#f0_j" transform="matrix(12,0,0,12,219.9,1130.3)" />
<use xlink:href="#f0_4" transform="matrix(12,0,0,12,231.5,1130.3)" />
<use xlink:href="#f0_k" transform="matrix(12,0,0,12,242.8,1130.3)" />
<use xlink:href="#f0_7" transform="matrix(12,0,0,12,253.6,1130.3)" />
<use xlink:href="#f0_o" transform="matrix(12,0,0,12,258.7,1130.3)" />
<use xlink:href="#f0_4" transform="matrix(12,0,0,12,268.7,1130.3)" />
<use xlink:href="#f0_g" transform="matrix(12,0,0,12,285.8,1130.3)" />
<use xlink:href="#f0_h" transform="matrix(12,0,0,12,297,1130.3)" />
<use xlink:href="#f0_j" transform="matrix(12,0,0,12,308.6,1130.3)" />
<use xlink:href="#f0_i" transform="matrix(12,0,0,12,326.2,1130.3)" />
<use xlink:href="#f0_g" transform="matrix(12,0,0,12,331.2,1130.3)" />
<use xlink:href="#f0_a" transform="matrix(12,0,0,12,342.5,1130.3)" />
<use xlink:href="#f0_4" transform="matrix(12,0,0,12,349.7,1130.3)" />
<use xlink:href="#f0_8" transform="matrix(12,0,0,12,361,1130.3)" />
<use xlink:href="#f0_8" transform="matrix(12,0,0,12,374.3,1130.3)" />
<use xlink:href="#f0_4" transform="matrix(12,0,0,12,381.3,1130.3)" />
<use xlink:href="#f0_p" transform="matrix(12,0,0,12,392.6,1130.3)" />
<use xlink:href="#f0_c" transform="matrix(12,0,0,12,410.4,1130.3)" />
<use xlink:href="#f0_k" transform="matrix(12,0,0,12,421.6,1130.3)" />
<use xlink:href="#f0_4" transform="matrix(12,0,0,12,432.4,1130.3)" />
<use xlink:href="#f0_7" transform="matrix(12,0,0,12,449.7,1130.3)" />
<use xlink:href="#f0_a" transform="matrix(12,0,0,12,454.7,1130.3)" />
<use xlink:href="#f0_q" transform="matrix(12,0,0,12,461.9,1130.3)" />
<use xlink:href="#f0_7" transform="matrix(12,0,0,12,473.6,1130.3)" />
<use xlink:href="#f0_a" transform="matrix(12,0,0,12,478.7,1130.3)" />
<use xlink:href="#f0_9" transform="matrix(12,0,0,12,491.7,1130.3)" />
<use xlink:href="#f0_a" transform="matrix(12,0,0,12,501.3,1130.3)" />
<use xlink:href="#f0_7" transform="matrix(12,0,0,12,508.5,1130.3)" />
<use xlink:href="#f0_i" transform="matrix(12,0,0,12,513.5,1130.3)" />
<use xlink:href="#f0_i" transform="matrix(12,0,0,12,518.6,1130.3)" />
<use xlink:href="#f0_o" transform="matrix(12,0,0,12,529.5,1130.3)" />
<use xlink:href="#f0_c" transform="matrix(12,0,0,12,539.6,1130.3)" />
<use xlink:href="#f0_r" transform="matrix(12,0,0,12,550.8,1130.3)" />
<use xlink:href="#f0_h" transform="matrix(12,0,0,12,562.4,1130.3)" />
<use xlink:href="#f0_a" transform="matrix(12,0,0,12,574,1130.3)" />
<use xlink:href="#f0_9" transform="matrix(12,0,0,12,581.2,1130.3)" />
<use xlink:href="#f0_a" transform="matrix(12,0,0,12,596.6,1130.3)" />
<use xlink:href="#f0_c" transform="matrix(12,0,0,12,603.8,1130.3)" />
<use xlink:href="#f0_y" transform="matrix(12,0,0,12,614.9,1130.3)" />
<use xlink:href="#f0_g" transform="matrix(12,0,0,12,629.9,1130.3)" />
<use xlink:href="#f0_8" transform="matrix(12,0,0,12,641.2,1130.3)" />
<use xlink:href="#f0_j" transform="matrix(12,0,0,12,648.4,1130.3)" />
<use xlink:href="#f0_9" transform="matrix(12,0,0,12,660,1130.3)" />
<use xlink:href="#f0_t" transform="matrix(12,0,0,12,675.5,1130.3)" />
<use xlink:href="#f0_c" transform="matrix(12,0,0,12,686.4,1130.3)" />
<use xlink:href="#f0_r" transform="matrix(12,0,0,12,697.5,1130.3)" />
<use xlink:href="#f0_8" transform="matrix(12,0,0,12,709.1,1130.3)" />
<use xlink:href="#f0_a" transform="matrix(12,0,0,12,722.5,1130.3)" />
<use xlink:href="#f0_c" transform="matrix(12,0,0,12,729.7,1130.3)" />
<use xlink:href="#f0_a" transform="matrix(12,0,0,12,740.9,1130.3)" />
<use xlink:href="#f0_g" transform="matrix(12,0,0,12,748,1130.3)" />
<use xlink:href="#f0_i" transform="matrix(12,0,0,12,759.3,1130.3)" />
<use xlink:href="#f0_6" transform="matrix(12,0,0,12,770.2,1130.3)" />
<use xlink:href="#f0_c" transform="matrix(12,0,0,12,776.6,1130.3)" />
<use xlink:href="#f0_8" transform="matrix(12,0,0,12,787.9,1130.3)" />
</g>
</g>
<path fill-rule="evenodd" d="M86.6,1163.3h81v-21.4h-81v21.4Z" class="g0_34" />
<g clip-path="url(#c0_34)">
<g fill="#000000" >
<use xlink:href="#f0_a" transform="matrix(12,0,0,12,86.8,1158.8)" />
<use xlink:href="#f0_3" transform="matrix(12,0,0,12,94,1158.8)" />
<use xlink:href="#f0_4" transform="matrix(12,0,0,12,105.6,1158.8)" />
<use xlink:href="#f0_t" transform="matrix(12,0,0,12,122.7,1158.8)" />
<use xlink:href="#f0_4" transform="matrix(12,0,0,12,133.5,1158.8)" />
<use xlink:href="#f0_g" transform="matrix(12,0,0,12,144.8,1158.8)" />
<use xlink:href="#f0_8" transform="matrix(12,0,0,12,156.1,1158.8)" />
<use xlink:href="#f0_l" transform="matrix(12,0,0,12,161.9,1158.8)" />
</g>
</g>
<image preserveAspectRatio="none" x="254" y="87" width="402" height="573" xlink:href="img/1.png" />
<image preserveAspectRatio="none" x="87" y="717" width="736" height="253" xlink:href="img/2.png" />
<defs>
<path d="M391,0V530L-2,1114H159L468,656l307,458H937L543,530V0Z" 
id="f0_x"
transform="scale(0.001,-0.001)" />

<path d="M467,95c0,0,110,0,174,86c0,0,64,87,64,236c0,0,0,148,-64,235c0,0,-64,87,-174,87c0,0,-110,0,-174,-86c0,0,-64,-86,-64,-236c0,0,0,-150,64,-236c0,0,63,-86,174,-86Zm0,-115c0,0,-179,0,-281,115C186,95,84,212,84,417c0,0,0,206,102,322c0,0,102,117,281,117c0,0,179,0,282,-117c0,0,102,-116,102,-322c0,0,0,-205,-102,-322C749,95,646,-20,467,-20Z" 
id="f0_c"
transform="scale(0.001,-0.001)" />

<path d="M424,-20c0,0,-145,0,-219,88c0,0,-75,89,-75,262V836H267V335c0,0,0,-119,46,-178c0,0,47,-59,139,-59c0,0,112,0,177,71c0,0,64,71,64,193V836H830V0H693V128C693,128,643,52,577,15c0,0,-66,-35,-153,-35Z" 
id="f0_r"
transform="scale(0.001,-0.001)" />

<path d="M139,0V836H277V706c0,0,43,76,112,113c0,0,70,37,169,37c0,0,14,0,31,-2c0,0,17,-2,38,-6l1,-141c0,0,-23,14,-51,20c0,0,-27,6,-60,6c0,0,-116,0,-178,-75c0,0,-62,-76,-62,-218V0Z" 
id="f0_8"
transform="scale(0.001,-0.001)" />

<path d="M460,93c0,0,109,0,171,86c0,0,63,86,63,238c0,0,0,151,-63,237c0,0,-62,86,-171,86c0,0,-109,0,-172,-86c0,0,-62,-86,-62,-237c0,0,0,-152,62,-238c0,0,63,-86,172,-86ZM426,-20c0,0,-151,0,-247,119c0,0,-95,121,-95,318c0,0,0,197,95,318c0,0,96,121,247,121c0,0,93,0,159,-37c0,0,66,-36,109,-110v452H831V0H694V125C694,125,651,51,585,15c0,0,-66,-35,-159,-35Z" 
id="f0_j"
transform="scale(0.001,-0.001)" />

<path d="M231,492l491,1c0,0,-2,112,-64,179c0,0,-61,67,-163,67c0,0,-115,0,-184,-65c0,0,-69,-64,-80,-182ZM517,-20c0,0,-199,0,-316,115C201,95,84,211,84,410c0,0,0,205,111,325c0,0,111,121,299,121c0,0,168,0,266,-109c0,0,98,-108,98,-295V385H227c0,0,9,-142,85,-216c0,0,77,-74,213,-74c0,0,80,0,154,19c0,0,74,19,147,58V42C826,42,752,11,675,-4c0,0,-78,-16,-158,-16Z" 
id="f0_4"
transform="scale(0.001,-0.001)" />

<path d="M359,0L46,836H191L453,134L714,836H859L546,0Z" 
id="f0_k"
transform="scale(0.001,-0.001)" />

<path d="M144,0V836H281V0Zm0,987v174H281V987Z" 
id="f0_7"
transform="scale(0.001,-0.001)" />

<path d="M495,-20c0,0,-189,0,-300,117C195,97,84,216,84,417c0,0,0,204,112,321c0,0,113,118,308,118c0,0,64,0,124,-14c0,0,60,-13,117,-39V675c0,0,-58,32,-117,48c0,0,-58,16,-118,16c0,0,-133,0,-207,-84c0,0,-74,-85,-74,-238c0,0,0,-153,74,-238c0,0,74,-84,207,-84c0,0,60,0,118,16c0,0,59,16,117,48V32C745,32,688,5,626,-7c0,0,-61,-13,-131,-13Z" 
id="f0_o"
transform="scale(0.001,-0.001)" />

<path d="M376,-20c0,0,-67,0,-140,12C236,-8,164,4,83,30V172c0,0,76,-40,150,-59c0,0,74,-20,146,-20c0,0,97,0,150,33c0,0,52,33,52,94c0,0,0,56,-38,85c0,0,-38,30,-165,58l-48,11c0,0,-128,27,-184,83c0,0,-57,55,-57,152c0,0,0,118,83,182c0,0,84,65,238,65c0,0,76,0,143,-12c0,0,67,-11,124,-33V681c0,0,-58,29,-121,44c0,0,-63,15,-130,15c0,0,-102,0,-153,-31c0,0,-51,-31,-51,-94c0,0,0,-48,37,-75c0,0,36,-27,147,-52l46,-10c0,0,147,-32,208,-89c0,0,62,-57,62,-159c0,0,0,-116,-93,-184c0,0,-92,-66,-253,-66Z" 
id="f0_9"
transform="scale(0.001,-0.001)" />

<path d="M139,0V836H277V706c0,0,49,75,116,112c0,0,67,38,154,38c0,0,144,0,218,-90c0,0,74,-89,74,-262V0H702V500c0,0,0,119,-46,177c0,0,-47,59,-139,59c0,0,-112,0,-176,-71c0,0,-64,-70,-64,-193V0Z" 
id="f0_h"
transform="scale(0.001,-0.001)" />

<path d="M283,0L65,836H202L373,184L544,836H706L878,184l171,652h137L967,0H806L626,685L445,0Z" 
id="f0_y"
transform="scale(0.001,-0.001)" />

<path d="M460,115c0,0,111,0,173,82c0,0,61,82,61,230c0,0,0,149,-61,231c0,0,-62,82,-173,82c0,0,-111,0,-173,-82c0,0,-61,-82,-61,-231c0,0,0,-148,61,-230c0,0,62,-82,173,-82ZM446,-317c0,0,-72,0,-137,11c0,0,-64,11,-124,33v134c0,0,60,-33,119,-49c0,0,59,-15,121,-15c0,0,135,0,202,70c0,0,67,71,67,212v68C694,147,652,73,585,36C585,36,519,0,426,0C426,0,272,0,178,117c0,0,-94,117,-94,310c0,0,0,194,94,311c0,0,94,118,248,118c0,0,93,0,159,-37c0,0,67,-36,109,-110V836H831V104c0,0,0,-212,-95,-317c0,0,-94,-104,-290,-104Z" 
id="f0_f"
transform="scale(0.001,-0.001)" />

<path d="M421,0C421,0,263,0,202,59c0,0,-60,60,-60,217V729H41V836H142v238H280V836H562V729H280V276c0,0,0,-102,28,-132c0,0,28,-29,113,-29H562V0Z" 
id="f0_a"
transform="scale(0.001,-0.001)" />

<path d="M117,-176L179,62V190H336V62L213,-176Z" 
id="f0_q"
transform="scale(0.001,-0.001)" />

<path d="M408,93c0,0,115,0,184,81c0,0,69,81,69,215v30H524c0,0,-167,0,-231,-38c0,0,-64,-38,-64,-129c0,0,0,-73,48,-116c0,0,48,-43,131,-43ZM372,-20c0,0,-128,0,-204,70c0,0,-76,72,-76,193c0,0,0,141,94,212c0,0,95,72,282,72H661v13c0,0,0,95,-62,147c0,0,-63,52,-175,52c0,0,-72,0,-140,-17c0,0,-68,-17,-130,-51V798c0,0,75,29,146,43c0,0,71,15,138,15c0,0,181,0,270,-95c0,0,90,-94,90,-285V0H661V127C661,127,614,51,544,15c0,0,-70,-35,-172,-35Z" 
id="f0_g"
transform="scale(0.001,-0.001)" />

<path d="M144,0V1161H281V0Z" 
id="f0_i"
transform="scale(0.001,-0.001)" />

<path d="M510,93c0,0,109,0,171,86c0,0,62,86,62,238c0,0,0,151,-62,237c0,0,-62,86,-171,86c0,0,-109,0,-171,-86c0,0,-62,-86,-62,-237c0,0,0,-152,62,-238c0,0,62,-86,171,-86ZM139,-317V836H277V709c0,0,43,74,109,110c0,0,66,37,158,37c0,0,152,0,247,-121c0,0,95,-121,95,-318c0,0,0,-197,-95,-318C791,99,696,-20,544,-20c0,0,-92,0,-158,35c0,0,-66,36,-109,110V-317Z" 
id="f0_b"
transform="scale(0.001,-0.001)" />

<path d="M121,-317v116h81c0,0,57,0,88,26c0,0,31,27,69,127l25,62L46,836H191L453,182L714,836H859L492,-76c0,0,-58,-150,-113,-195c0,0,-55,-46,-148,-46Z" 
id="f0_t"
transform="scale(0.001,-0.001)" />

<path d="M166,0V729H35V836H166v58c0,0,0,139,65,203c0,0,65,64,206,64H567V1046H435c0,0,-74,0,-102,-29c0,0,-29,-30,-29,-107V836H530V729H304V0Z" 
id="f0_6"
transform="scale(0.001,-0.001)" />

<path d="M179,0V190H336V0Zm0,600V790H336V600Z" 
id="f0_12"
transform="scale(0.001,-0.001)" />

<path d="M510,93c0,0,109,0,171,86c0,0,62,86,62,238c0,0,0,151,-62,237c0,0,-62,86,-171,86c0,0,-109,0,-171,-86c0,0,-62,-86,-62,-237c0,0,0,-152,62,-238c0,0,62,-86,171,-86ZM544,-20c0,0,-92,0,-158,35c0,0,-66,36,-109,110V0H139V1161H277V709c0,0,43,74,109,110c0,0,66,37,158,37c0,0,152,0,247,-121c0,0,95,-121,95,-318c0,0,0,-197,-95,-318C791,99,696,-20,544,-20Z" 
id="f0_n"
transform="scale(0.001,-0.001)" />

<path d="M139,0V1161H277V475L686,836H861L418,445L880,0H701L277,408V0Z" 
id="f0_10"
transform="scale(0.001,-0.001)" />

<path d="M139,0V836H277V706c0,0,47,77,112,113c0,0,66,37,156,37c0,0,91,0,155,-47c0,0,64,-46,94,-134c0,0,52,93,123,137c0,0,72,44,169,44c0,0,130,0,201,-92c0,0,71,-91,71,-260V0H1220V500c0,0,0,120,-42,178c0,0,-43,58,-130,58c0,0,-107,0,-169,-71c0,0,-62,-70,-62,-193V0H680V500c0,0,0,121,-43,179c0,0,-42,57,-131,57c0,0,-105,0,-167,-71c0,0,-62,-71,-62,-193V0Z" 
id="f0_p"
transform="scale(0.001,-0.001)" />

<path d="M139,0V1161H277V706c0,0,49,75,116,112c0,0,67,38,154,38c0,0,144,0,218,-90c0,0,74,-89,74,-262V0H702V500c0,0,0,119,-46,177c0,0,-47,59,-139,59c0,0,-112,0,-176,-71c0,0,-64,-70,-64,-193V0Z" 
id="f0_3"
transform="scale(0.001,-0.001)" />

<path d="M74,357V479H476V357Z" 
id="f0_1n"
transform="scale(0.001,-0.001)" />

<path d="M163,0V190H321V0Z" 
id="f0_l"
transform="scale(0.001,-0.001)" />

<path d="M102,0V1051H354L818,235c0,0,-13,113,-13,205v611h195V0H742L284,809c0,0,14,-117,14,-189V0Z" 
id="f1_1e"
transform="scale(0.001,-0.001)" />

<path d="M461,129c0,0,193,0,193,276c0,0,0,144,-47,209c0,0,-47,65,-136,65c0,0,-191,0,-191,-274c0,0,0,-135,46,-205c0,0,47,-71,135,-71Zm2,-143c0,0,-188,0,-296,111C167,97,60,209,60,405c0,0,0,194,107,306c0,0,108,111,301,111c0,0,197,0,301,-107c0,0,105,-108,105,-310c0,0,0,-197,-109,-308C765,97,656,-14,463,-14Z" 
id="f1_2b"
transform="scale(0.001,-0.001)" />

<path d="M313,-13c0,0,-92,0,-142,50c0,0,-50,50,-50,152V666H19V808H131l66,189H328V808H481V666H328V245c0,0,0,-59,23,-87c0,0,22,-28,69,-28c0,0,25,0,70,10V11c0,0,-77,-24,-177,-24Z" 
id="f1_2g"
transform="scale(0.001,-0.001)" />

<path d="M595,495c0,0,-6,98,-47,147c0,0,-41,49,-111,49c0,0,-74,0,-114,-51c0,0,-40,-52,-42,-145ZM437,-14c0,0,-182,0,-280,107c0,0,-97,108,-97,315c0,0,0,199,99,307c0,0,99,107,281,107c0,0,174,0,266,-115c0,0,91,-115,91,-337v-6H280c0,0,0,-118,43,-179c0,0,44,-60,125,-60c0,0,111,0,140,97L786,205c0,0,-86,-219,-349,-219Z" 
id="f1_21"
transform="scale(0.001,-0.001)" />

<path d="M147,0V209H362V0Zm0,562V771H362V562Z" 
id="f1_u"
transform="scale(0.001,-0.001)" />

<path d="M727,411L522,965L318,411ZM12,0L437,1114H608L1033,0H876L774,286H272L171,0Z" 
id="f0_d"
transform="scale(0.001,-0.001)" />

<path d="M190,0V127H436V977L168,923v137l267,54H586V127H832V0Z" 
id="f0_1u"
transform="scale(0.001,-0.001)" />

<path d="M486,98c0,0,117,0,175,114c0,0,59,115,59,344c0,0,0,230,-59,344c0,0,-58,115,-175,115c0,0,-117,0,-175,-115c0,0,-59,-114,-59,-344c0,0,0,-229,59,-344c0,0,58,-114,175,-114ZM485,-20c0,0,-187,0,-285,147c0,0,-99,148,-99,429c0,0,0,282,98,430c0,0,99,148,286,148c0,0,188,0,286,-148c0,0,99,-148,99,-430c0,0,0,-281,-99,-429c0,0,-98,-147,-286,-147Z" 
id="f0_1v"
transform="scale(0.001,-0.001)" />

<path d="M150,0V1114H300V0Z" 
id="f0_z"
transform="scale(0.001,-0.001)" />


</defs>
</svg>