<?xml version="1.0" encoding="UTF-8" standalone="no"?>
<!DOCTYPE svg PUBLIC "-//W3C//DTD SVG 1.1//EN"
"http://www.w3.org/Graphics/SVG/1.1/DTD/svg11.dtd">
<svg viewBox="0 0 909 1286" version="1.1" xmlns="http://www.w3.org/2000/svg" xmlns:xlink="http://www.w3.org/1999/xlink">
<defs>
<clipPath id="c0_30"><path d="M0,1286.2V.2H909.3v1286Z" /></clipPath>
<style type="text/css"><![CDATA[
.g0_30{
fill: #FFFFCC;
}
]]></style>
</defs>
<g clip-path="url(#c0_30)">
<g fill="#000000" >
<use xlink:href="#f0_g" transform="matrix(12,0,0,12,86.8,110.9)" />
<use xlink:href="#f0_h" transform="matrix(12,0,0,12,98.1,110.9)" />
<use xlink:href="#f0_j" transform="matrix(12,0,0,12,109.7,110.9)" />
<use xlink:href="#f0_o" transform="matrix(12,0,0,12,127.1,110.9)" />
<use xlink:href="#f0_i" transform="matrix(12,0,0,12,137.2,110.9)" />
<use xlink:href="#f0_7" transform="matrix(12,0,0,12,142.2,110.9)" />
<use xlink:href="#f0_o" transform="matrix(12,0,0,12,147.2,110.9)" />
<use xlink:href="#f0_10" transform="matrix(12,0,0,12,157.3,110.9)" />
</g>
<g fill="#0000FF" >
<use xlink:href="#f1_h" transform="matrix(12,0,0,12,174,110.9)" />
<use xlink:href="#f1_f" transform="matrix(12,0,0,12,187.5,110.9)" />
<use xlink:href="#f1_6" transform="matrix(12,0,0,12,200,110.9)" />
<use xlink:href="#f1_4" transform="matrix(12,0,0,12,213.1,110.9)" />
<use xlink:href="#f1_5" transform="matrix(12,0,0,12,221.8,110.9)" />
<use xlink:href="#f1_6" transform="matrix(12,0,0,12,228.1,110.9)" />
<use xlink:href="#f1_g" transform="matrix(12,0,0,12,241.2,110.9)" />
<use xlink:href="#f1_3" transform="matrix(12,0,0,12,254.2,110.9)" />
</g>
<g fill="#000000" >
<use xlink:href="#f0_g" transform="matrix(12,0,0,12,273,110.9)" />
<use xlink:href="#f0_a" transform="matrix(12,0,0,12,284.3,110.9)" />
<use xlink:href="#f0_a" transform="matrix(12,0,0,12,297.3,110.9)" />
<use xlink:href="#f0_3" transform="matrix(12,0,0,12,304.5,110.9)" />
<use xlink:href="#f0_4" transform="matrix(12,0,0,12,316.1,110.9)" />
<use xlink:href="#f0_n" transform="matrix(12,0,0,12,333.2,110.9)" />
<use xlink:href="#f0_c" transform="matrix(12,0,0,12,344.8,110.9)" />
<use xlink:href="#f0_a" transform="matrix(12,0,0,12,356,110.9)" />
<use xlink:href="#f0_a" transform="matrix(12,0,0,12,363.1,110.9)" />
<use xlink:href="#f0_c" transform="matrix(12,0,0,12,370.5,110.9)" />
<use xlink:href="#f0_p" transform="matrix(12,0,0,12,381.6,110.9)" />
<use xlink:href="#f0_g" transform="matrix(12,0,0,12,405.3,110.9)" />
<use xlink:href="#f0_9" transform="matrix(12,0,0,12,416.6,110.9)" />
<use xlink:href="#f0_n" transform="matrix(12,0,0,12,432,110.9)" />
<use xlink:href="#f0_4" transform="matrix(12,0,0,12,443.6,110.9)" />
<use xlink:href="#f0_6" transform="matrix(12,0,0,12,454.9,110.9)" />
<use xlink:href="#f0_c" transform="matrix(12,0,0,12,461.3,110.9)" />
<use xlink:href="#f0_8" transform="matrix(12,0,0,12,472.4,110.9)" />
<use xlink:href="#f0_4" transform="matrix(12,0,0,12,479.5,110.9)" />
<use xlink:href="#f0_12" transform="matrix(12,0,0,12,490.9,110.9)" />
<use xlink:href="#f0_1r" transform="matrix(12,0,0,12,86.8,396.3)" />
<use xlink:href="#f0_c" transform="matrix(12,0,0,12,101,396.3)" />
<use xlink:href="#f0_a" transform="matrix(12,0,0,12,118.1,396.3)" />
<use xlink:href="#f0_3" transform="matrix(12,0,0,12,125.3,396.3)" />
<use xlink:href="#f0_8" transform="matrix(12,0,0,12,136.9,396.3)" />
<use xlink:href="#f0_c" transform="matrix(12,0,0,12,144.1,396.3)" />
<use xlink:href="#f0_r" transform="matrix(12,0,0,12,155.2,396.3)" />
<use xlink:href="#f0_f" transform="matrix(12,0,0,12,166.8,396.3)" />
<use xlink:href="#f0_3" transform="matrix(12,0,0,12,178.4,396.3)" />
<use xlink:href="#f0_a" transform="matrix(12,0,0,12,196,396.3)" />
<use xlink:href="#f0_3" transform="matrix(12,0,0,12,203.1,396.3)" />
<use xlink:href="#f0_4" transform="matrix(12,0,0,12,214.7,396.3)" />
<use xlink:href="#f0_9" transform="matrix(12,0,0,12,231.8,396.3)" />
<use xlink:href="#f0_g" transform="matrix(12,0,0,12,241.3,396.3)" />
<use xlink:href="#f0_p" transform="matrix(12,0,0,12,252.6,396.3)" />
<use xlink:href="#f0_4" transform="matrix(12,0,0,12,270.5,396.3)" />
<use xlink:href="#f0_b" transform="matrix(12,0,0,12,287.6,396.3)" />
<use xlink:href="#f0_8" transform="matrix(12,0,0,12,299.2,396.3)" />
<use xlink:href="#f0_c" transform="matrix(12,0,0,12,306.2,396.3)" />
<use xlink:href="#f0_o" transform="matrix(12,0,0,12,317.4,396.3)" />
<use xlink:href="#f0_4" transform="matrix(12,0,0,12,327.4,396.3)" />
<use xlink:href="#f0_9" transform="matrix(12,0,0,12,338.7,396.3)" />
<use xlink:href="#f0_9" transform="matrix(12,0,0,12,348.3,396.3)" />
<use xlink:href="#f0_g" transform="matrix(12,0,0,12,363.7,396.3)" />
<use xlink:href="#f0_9" transform="matrix(12,0,0,12,374.9,396.3)" />
<use xlink:href="#f0_n" transform="matrix(12,0,0,12,390.3,396.3)" />
<use xlink:href="#f0_4" transform="matrix(12,0,0,12,401.9,396.3)" />
<use xlink:href="#f0_6" transform="matrix(12,0,0,12,413.2,396.3)" />
<use xlink:href="#f0_c" transform="matrix(12,0,0,12,419.6,396.3)" />
<use xlink:href="#f0_8" transform="matrix(12,0,0,12,430.9,396.3)" />
<use xlink:href="#f0_4" transform="matrix(12,0,0,12,437.9,396.3)" />
<use xlink:href="#f0_a" transform="matrix(12,0,0,12,455,396.3)" />
<use xlink:href="#f0_c" transform="matrix(12,0,0,12,462.2,396.3)" />
<use xlink:href="#f0_9" transform="matrix(12,0,0,12,479.3,396.3)" />
<use xlink:href="#f0_r" transform="matrix(12,0,0,12,488.9,396.3)" />
<use xlink:href="#f0_n" transform="matrix(12,0,0,12,500.5,396.3)" />
<use xlink:href="#f0_p" transform="matrix(12,0,0,12,512.1,396.3)" />
<use xlink:href="#f0_7" transform="matrix(12,0,0,12,530,396.3)" />
<use xlink:href="#f0_a" transform="matrix(12,0,0,12,535,396.3)" />
<use xlink:href="#f0_a" transform="matrix(12,0,0,12,548,396.3)" />
<use xlink:href="#f0_3" transform="matrix(12,0,0,12,555.2,396.3)" />
<use xlink:href="#f0_4" transform="matrix(12,0,0,12,566.8,396.3)" />
<use xlink:href="#f0_9" transform="matrix(12,0,0,12,584.1,396.3)" />
<use xlink:href="#f0_g" transform="matrix(12,0,0,12,593.5,396.3)" />
<use xlink:href="#f0_p" transform="matrix(12,0,0,12,604.8,396.3)" />
<use xlink:href="#f0_4" transform="matrix(12,0,0,12,622.6,396.3)" />
<use xlink:href="#f0_o" transform="matrix(12,0,0,12,639.7,396.3)" />
<use xlink:href="#f0_4" transform="matrix(12,0,0,12,649.7,396.3)" />
<use xlink:href="#f0_8" transform="matrix(12,0,0,12,661,396.3)" />
<use xlink:href="#f0_a" transform="matrix(12,0,0,12,668.5,396.3)" />
<use xlink:href="#f0_7" transform="matrix(12,0,0,12,675.8,396.3)" />
<use xlink:href="#f0_6" transform="matrix(12,0,0,12,680.9,396.3)" />
<use xlink:href="#f0_7" transform="matrix(12,0,0,12,687.3,396.3)" />
<use xlink:href="#f0_o" transform="matrix(12,0,0,12,692.3,396.3)" />
<use xlink:href="#f0_g" transform="matrix(12,0,0,12,702.4,396.3)" />
<use xlink:href="#f0_a" transform="matrix(12,0,0,12,713.7,396.3)" />
<use xlink:href="#f0_4" transform="matrix(12,0,0,12,720.9,396.3)" />
<use xlink:href="#f0_9" transform="matrix(12,0,0,12,738,396.3)" />
<use xlink:href="#f0_7" transform="matrix(12,0,0,12,747.6,396.3)" />
<use xlink:href="#f0_f" transform="matrix(12,0,0,12,752.6,396.3)" />
<use xlink:href="#f0_h" transform="matrix(12,0,0,12,764.2,396.3)" />
<use xlink:href="#f0_7" transform="matrix(12,0,0,12,775.8,396.3)" />
<use xlink:href="#f0_h" transform="matrix(12,0,0,12,780.9,396.3)" />
<use xlink:href="#f0_f" transform="matrix(12,0,0,12,792.5,396.3)" />
<use xlink:href="#f0_8" transform="matrix(12,0,0,12,86.8,424.9)" />
<use xlink:href="#f0_4" transform="matrix(12,0,0,12,93.8,424.9)" />
<use xlink:href="#f0_17" transform="matrix(12,0,0,12,105.1,424.9)" />
<use xlink:href="#f0_r" transform="matrix(12,0,0,12,116.8,424.9)" />
<use xlink:href="#f0_4" transform="matrix(12,0,0,12,128.4,424.9)" />
<use xlink:href="#f0_9" transform="matrix(12,0,0,12,139.6,424.9)" />
<use xlink:href="#f0_a" transform="matrix(12,0,0,12,149.2,424.9)" />
<use xlink:href="#f0_g" transform="matrix(12,0,0,12,162.3,424.9)" />
<use xlink:href="#f0_9" transform="matrix(12,0,0,12,173.5,424.9)" />
<use xlink:href="#f0_t" transform="matrix(12,0,0,12,188.9,424.9)" />
<use xlink:href="#f0_c" transform="matrix(12,0,0,12,199.7,424.9)" />
<use xlink:href="#f0_r" transform="matrix(12,0,0,12,210.9,424.9)" />
<use xlink:href="#f0_j" transform="matrix(12,0,0,12,228.3,424.9)" />
<use xlink:href="#f0_7" transform="matrix(12,0,0,12,239.9,424.9)" />
<use xlink:href="#f0_j" transform="matrix(12,0,0,12,245.1,424.9)" />
<use xlink:href="#f0_6" transform="matrix(12,0,0,12,262.5,424.9)" />
<use xlink:href="#f0_c" transform="matrix(12,0,0,12,268.9,424.9)" />
<use xlink:href="#f0_8" transform="matrix(12,0,0,12,280.2,424.9)" />
<use xlink:href="#f0_a" transform="matrix(12,0,0,12,293.5,424.9)" />
<use xlink:href="#f0_3" transform="matrix(12,0,0,12,300.7,424.9)" />
<use xlink:href="#f0_4" transform="matrix(12,0,0,12,312.3,424.9)" />
<use xlink:href="#f0_j" transform="matrix(12,0,0,12,329.5,424.9)" />
<use xlink:href="#f0_4" transform="matrix(12,0,0,12,341.1,424.9)" />
<use xlink:href="#f0_k" transform="matrix(12,0,0,12,352.4,424.9)" />
<use xlink:href="#f0_4" transform="matrix(12,0,0,12,363.1,424.9)" />
<use xlink:href="#f0_i" transform="matrix(12,0,0,12,374.4,424.9)" />
<use xlink:href="#f0_c" transform="matrix(12,0,0,12,379.6,424.9)" />
<use xlink:href="#f0_b" transform="matrix(12,0,0,12,390.7,424.9)" />
<use xlink:href="#f0_p" transform="matrix(12,0,0,12,402.3,424.9)" />
<use xlink:href="#f0_4" transform="matrix(12,0,0,12,420.2,424.9)" />
<use xlink:href="#f0_h" transform="matrix(12,0,0,12,431.5,424.9)" />
<use xlink:href="#f0_a" transform="matrix(12,0,0,12,443.1,424.9)" />
<use xlink:href="#f0_o" transform="matrix(12,0,0,12,456.1,424.9)" />
<use xlink:href="#f0_4" transform="matrix(12,0,0,12,466.1,424.9)" />
<use xlink:href="#f0_8" transform="matrix(12,0,0,12,477.4,424.9)" />
<use xlink:href="#f0_a" transform="matrix(12,0,0,12,484.9,424.9)" />
<use xlink:href="#f0_7" transform="matrix(12,0,0,12,492.2,424.9)" />
<use xlink:href="#f0_6" transform="matrix(12,0,0,12,497.3,424.9)" />
<use xlink:href="#f0_7" transform="matrix(12,0,0,12,503.7,424.9)" />
<use xlink:href="#f0_o" transform="matrix(12,0,0,12,508.7,424.9)" />
<use xlink:href="#f0_g" transform="matrix(12,0,0,12,518.8,424.9)" />
<use xlink:href="#f0_a" transform="matrix(12,0,0,12,530.1,424.9)" />
<use xlink:href="#f0_4" transform="matrix(12,0,0,12,537.3,424.9)" />
<use xlink:href="#f0_l" transform="matrix(12,0,0,12,548.6,424.9)" />
<use xlink:href="#f0_1s" transform="matrix(12,0,0,12,86.8,453.6)" />
<use xlink:href="#f0_3" transform="matrix(12,0,0,12,104.9,453.6)" />
<use xlink:href="#f0_4" transform="matrix(12,0,0,12,116.6,453.6)" />
<use xlink:href="#f0_h" transform="matrix(12,0,0,12,127.8,453.6)" />
<use xlink:href="#f0_7" transform="matrix(12,0,0,12,145.3,453.6)" />
<use xlink:href="#f0_a" transform="matrix(12,0,0,12,150.3,453.6)" />
<use xlink:href="#f0_7" transform="matrix(12,0,0,12,163.4,453.6)" />
<use xlink:href="#f0_9" transform="matrix(12,0,0,12,168.5,453.6)" />
<use xlink:href="#f0_8" transform="matrix(12,0,0,12,183.9,453.6)" />
<use xlink:href="#f0_4" transform="matrix(12,0,0,12,190.9,453.6)" />
<use xlink:href="#f0_g" transform="matrix(12,0,0,12,202.2,453.6)" />
<use xlink:href="#f0_j" transform="matrix(12,0,0,12,213.5,453.6)" />
<use xlink:href="#f0_t" transform="matrix(12,0,0,12,225.1,453.6)" />
<use xlink:href="#f0_q" transform="matrix(12,0,0,12,235.9,453.6)" />
<use xlink:href="#f0_o" transform="matrix(12,0,0,12,247.6,453.6)" />
<use xlink:href="#f0_i" transform="matrix(12,0,0,12,257.6,453.6)" />
<use xlink:href="#f0_7" transform="matrix(12,0,0,12,262.7,453.6)" />
<use xlink:href="#f0_o" transform="matrix(12,0,0,12,267.7,453.6)" />
<use xlink:href="#f0_10" transform="matrix(12,0,0,12,277.8,453.6)" />
</g>
<g fill="#0000FF" >
<use xlink:href="#f1_l" transform="matrix(12,0,0,12,294.6,453.6)" />
<use xlink:href="#f1_f" transform="matrix(12,0,0,12,309.8,453.6)" />
<use xlink:href="#f1_11" transform="matrix(12,0,0,12,322.3,453.6)" />
<use xlink:href="#f1_6" transform="matrix(12,0,0,12,339.3,453.6)" />
<use xlink:href="#f1_j" transform="matrix(12,0,0,12,352.3,453.6)" />
<use xlink:href="#f1_f" transform="matrix(12,0,0,12,358.5,453.6)" />
<use xlink:href="#f1_a" transform="matrix(12,0,0,12,371,453.6)" />
<use xlink:href="#f1_c" transform="matrix(12,0,0,12,383.4,453.6)" />
</g>
<g fill="#000000" >
<use xlink:href="#f0_q" transform="matrix(12,0,0,12,396.8,453.6)" />
<use xlink:href="#f0_g" transform="matrix(12,0,0,12,408.4,453.6)" />
<use xlink:href="#f0_h" transform="matrix(12,0,0,12,419.7,453.6)" />
<use xlink:href="#f0_j" transform="matrix(12,0,0,12,431.3,453.6)" />
<use xlink:href="#f0_j" transform="matrix(12,0,0,12,448.7,453.6)" />
<use xlink:href="#f0_c" transform="matrix(12,0,0,12,460.3,453.6)" />
<use xlink:href="#f0_r" transform="matrix(12,0,0,12,471.5,453.6)" />
<use xlink:href="#f0_n" transform="matrix(12,0,0,12,483.1,453.6)" />
<use xlink:href="#f0_i" transform="matrix(12,0,0,12,494.8,453.6)" />
<use xlink:href="#f0_4" transform="matrix(12,0,0,12,499.9,453.6)" />
<use xlink:href="#f0_o" transform="matrix(12,0,0,12,517,453.6)" />
<use xlink:href="#f0_i" transform="matrix(12,0,0,12,527,453.6)" />
<use xlink:href="#f0_7" transform="matrix(12,0,0,12,532.1,453.6)" />
<use xlink:href="#f0_o" transform="matrix(12,0,0,12,537.1,453.6)" />
<use xlink:href="#f0_10" transform="matrix(12,0,0,12,547.2,453.6)" />
<use xlink:href="#f0_a" transform="matrix(12,0,0,12,563.8,453.6)" />
<use xlink:href="#f0_3" transform="matrix(12,0,0,12,571,453.6)" />
<use xlink:href="#f0_4" transform="matrix(12,0,0,12,582.6,453.6)" />
<use xlink:href="#f0_j" transform="matrix(12,0,0,12,599.7,453.6)" />
<use xlink:href="#f0_7" transform="matrix(12,0,0,12,611.3,453.6)" />
<use xlink:href="#f0_9" transform="matrix(12,0,0,12,616.3,453.6)" />
<use xlink:href="#f0_a" transform="matrix(12,0,0,12,625.9,453.6)" />
<use xlink:href="#f0_8" transform="matrix(12,0,0,12,633.1,453.6)" />
<use xlink:href="#f0_7" transform="matrix(12,0,0,12,640.6,453.6)" />
<use xlink:href="#f0_n" transform="matrix(12,0,0,12,645.6,453.6)" />
<use xlink:href="#f0_r" transform="matrix(12,0,0,12,657.2,453.6)" />
<use xlink:href="#f0_a" transform="matrix(12,0,0,12,668.8,453.6)" />
<use xlink:href="#f0_7" transform="matrix(12,0,0,12,676.2,453.6)" />
<use xlink:href="#f0_c" transform="matrix(12,0,0,12,681.2,453.6)" />
<use xlink:href="#f0_h" transform="matrix(12,0,0,12,692.4,453.6)" />
<use xlink:href="#f0_o" transform="matrix(12,0,0,12,709.9,453.6)" />
<use xlink:href="#f0_4" transform="matrix(12,0,0,12,720,453.6)" />
<use xlink:href="#f0_8" transform="matrix(12,0,0,12,731.3,453.6)" />
<use xlink:href="#f0_a" transform="matrix(12,0,0,12,738.8,453.6)" />
<use xlink:href="#f0_7" transform="matrix(12,0,0,12,745.9,453.6)" />
<use xlink:href="#f0_6" transform="matrix(12,0,0,12,751,453.6)" />
<use xlink:href="#f0_7" transform="matrix(12,0,0,12,757.4,453.6)" />
<use xlink:href="#f0_o" transform="matrix(12,0,0,12,762.4,453.6)" />
<use xlink:href="#f0_g" transform="matrix(12,0,0,12,772.5,453.6)" />
<use xlink:href="#f0_a" transform="matrix(12,0,0,12,783.8,453.6)" />
<use xlink:href="#f0_4" transform="matrix(12,0,0,12,791,453.6)" />
<use xlink:href="#f0_6" transform="matrix(12,0,0,12,86.8,482.2)" />
<use xlink:href="#f0_7" transform="matrix(12,0,0,12,93.2,482.2)" />
<use xlink:href="#f0_i" transform="matrix(12,0,0,12,98.4,482.2)" />
<use xlink:href="#f0_4" transform="matrix(12,0,0,12,103.4,482.2)" />
<use xlink:href="#f0_a" transform="matrix(12,0,0,12,120.5,482.2)" />
<use xlink:href="#f0_c" transform="matrix(12,0,0,12,127.7,482.2)" />
<use xlink:href="#f0_7" transform="matrix(12,0,0,12,144.8,482.2)" />
<use xlink:href="#f0_h" transform="matrix(12,0,0,12,149.8,482.2)" />
<use xlink:href="#f0_9" transform="matrix(12,0,0,12,161.4,482.2)" />
<use xlink:href="#f0_a" transform="matrix(12,0,0,12,171.1,482.2)" />
<use xlink:href="#f0_g" transform="matrix(12,0,0,12,178.1,482.2)" />
<use xlink:href="#f0_i" transform="matrix(12,0,0,12,189.4,482.2)" />
<use xlink:href="#f0_i" transform="matrix(12,0,0,12,194.5,482.2)" />
<use xlink:href="#f0_7" transform="matrix(12,0,0,12,205.4,482.2)" />
<use xlink:href="#f0_a" transform="matrix(12,0,0,12,210.4,482.2)" />
<use xlink:href="#f0_7" transform="matrix(12,0,0,12,223.6,482.2)" />
<use xlink:href="#f0_h" transform="matrix(12,0,0,12,228.6,482.2)" />
<use xlink:href="#f0_a" transform="matrix(12,0,0,12,246,482.2)" />
<use xlink:href="#f0_3" transform="matrix(12,0,0,12,253.2,482.2)" />
<use xlink:href="#f0_4" transform="matrix(12,0,0,12,264.8,482.2)" />
<use xlink:href="#f0_10" transform="matrix(12,0,0,12,282,482.2)" />
<use xlink:href="#f0_4" transform="matrix(12,0,0,12,292,482.2)" />
<use xlink:href="#f0_t" transform="matrix(12,0,0,12,303.3,482.2)" />
<use xlink:href="#f0_o" transform="matrix(12,0,0,12,314.1,482.2)" />
<use xlink:href="#f0_3" transform="matrix(12,0,0,12,324.2,482.2)" />
<use xlink:href="#f0_g" transform="matrix(12,0,0,12,335.6,482.2)" />
<use xlink:href="#f0_7" transform="matrix(12,0,0,12,346.9,482.2)" />
<use xlink:href="#f0_h" transform="matrix(12,0,0,12,352,482.2)" />
<use xlink:href="#f0_12" transform="matrix(12,0,0,12,363.7,482.2)" />
</g>
</g>
<path fill-rule="evenodd" d="M86.6,1166.5h52.1v-23.7H86.6v23.7Z" class="g0_30" />
<g clip-path="url(#c0_30)">
<g fill="#0000FF" >
<use xlink:href="#f2_1e" transform="matrix(12,0,0,12,86.8,1160.8)" />
<use xlink:href="#f2_2b" transform="matrix(12,0,0,12,100.1,1160.8)" />
<use xlink:href="#f2_2g" transform="matrix(12,0,0,12,111.2,1160.8)" />
<use xlink:href="#f2_21" transform="matrix(12,0,0,12,117.3,1160.8)" />
<use xlink:href="#f2_u" transform="matrix(12,0,0,12,127.5,1160.8)" />
</g>
</g>
<path fill-rule="evenodd" d="M138.7,1165.1H468v-21.4H138.7v21.4Z" class="g0_30" />
<g clip-path="url(#c0_30)">
<g fill="#000000" >
<use xlink:href="#f0_2" transform="matrix(12,0,0,12,138.9,1160.8)" />
<use xlink:href="#f0_3" transform="matrix(12,0,0,12,150,1160.8)" />
<use xlink:href="#f0_4" transform="matrix(12,0,0,12,161.6,1160.8)" />
<use xlink:href="#f0_j" transform="matrix(12,0,0,12,178.7,1160.8)" />
<use xlink:href="#f0_7" transform="matrix(12,0,0,12,190.3,1160.8)" />
<use xlink:href="#f0_9" transform="matrix(12,0,0,12,195.4,1160.8)" />
<use xlink:href="#f0_a" transform="matrix(12,0,0,12,205,1160.8)" />
<use xlink:href="#f0_8" transform="matrix(12,0,0,12,212.2,1160.8)" />
<use xlink:href="#f0_7" transform="matrix(12,0,0,12,219.7,1160.8)" />
<use xlink:href="#f0_n" transform="matrix(12,0,0,12,224.8,1160.8)" />
<use xlink:href="#f0_r" transform="matrix(12,0,0,12,236.4,1160.8)" />
<use xlink:href="#f0_a" transform="matrix(12,0,0,12,248,1160.8)" />
<use xlink:href="#f0_7" transform="matrix(12,0,0,12,255.2,1160.8)" />
<use xlink:href="#f0_c" transform="matrix(12,0,0,12,260.4,1160.8)" />
<use xlink:href="#f0_h" transform="matrix(12,0,0,12,271.5,1160.8)" />
<use xlink:href="#f0_o" transform="matrix(12,0,0,12,289,1160.8)" />
<use xlink:href="#f0_4" transform="matrix(12,0,0,12,299,1160.8)" />
<use xlink:href="#f0_8" transform="matrix(12,0,0,12,310.3,1160.8)" />
<use xlink:href="#f0_a" transform="matrix(12,0,0,12,317.8,1160.8)" />
<use xlink:href="#f0_7" transform="matrix(12,0,0,12,325,1160.8)" />
<use xlink:href="#f0_6" transform="matrix(12,0,0,12,330.1,1160.8)" />
<use xlink:href="#f0_7" transform="matrix(12,0,0,12,336.6,1160.8)" />
<use xlink:href="#f0_o" transform="matrix(12,0,0,12,341.6,1160.8)" />
<use xlink:href="#f0_g" transform="matrix(12,0,0,12,351.7,1160.8)" />
<use xlink:href="#f0_a" transform="matrix(12,0,0,12,363,1160.8)" />
<use xlink:href="#f0_4" transform="matrix(12,0,0,12,370.1,1160.8)" />
<use xlink:href="#f0_7" transform="matrix(12,0,0,12,387.3,1160.8)" />
<use xlink:href="#f0_9" transform="matrix(12,0,0,12,392.3,1160.8)" />
<use xlink:href="#f0_o" transform="matrix(12,0,0,12,407.7,1160.8)" />
<use xlink:href="#f0_g" transform="matrix(12,0,0,12,417.8,1160.8)" />
<use xlink:href="#f0_i" transform="matrix(12,0,0,12,429.1,1160.8)" />
<use xlink:href="#f0_i" transform="matrix(12,0,0,12,434.1,1160.8)" />
<use xlink:href="#f0_4" transform="matrix(12,0,0,12,439.2,1160.8)" />
<use xlink:href="#f0_j" transform="matrix(12,0,0,12,450.4,1160.8)" />
</g>
</g>
<path fill-rule="evenodd" d="M468,1166.5H638.2v-23.7H468v23.7Z" class="g0_30" />
<g clip-path="url(#c0_30)">
<g fill="#0000FF" >
<use xlink:href="#f2_25" transform="matrix(12,0,0,12,468.1,1160.8)" />
<use xlink:href="#f2_2b" transform="matrix(12,0,0,12,473.2,1160.8)" />
<use xlink:href="#f2_2f" transform="matrix(12,0,0,12,484.4,1160.8)" />
<use xlink:href="#f2_1v" transform="matrix(12,0,0,12,494.5,1160.8)" />
<use xlink:href="#f2_20" transform="matrix(12,0,0,12,504.7,1160.8)" />
<use xlink:href="#f2_25" transform="matrix(12,0,0,12,515.9,1160.8)" />
<use xlink:href="#f2_2f" transform="matrix(12,0,0,12,521.1,1160.8)" />
<use xlink:href="#f2_2g" transform="matrix(12,0,0,12,531.3,1160.8)" />
<use xlink:href="#f2_2e" transform="matrix(12,0,0,12,537.2,1160.8)" />
<use xlink:href="#f2_25" transform="matrix(12,0,0,12,544.4,1160.8)" />
<use xlink:href="#f2_1y" transform="matrix(12,0,0,12,549.4,1160.8)" />
<use xlink:href="#f2_2h" transform="matrix(12,0,0,12,560.6,1160.8)" />
<use xlink:href="#f2_2g" transform="matrix(12,0,0,12,571.9,1160.8)" />
<use xlink:href="#f2_25" transform="matrix(12,0,0,12,578,1160.8)" />
<use xlink:href="#f2_2b" transform="matrix(12,0,0,12,583,1160.8)" />
<use xlink:href="#f2_2a" transform="matrix(12,0,0,12,594.2,1160.8)" />
<use xlink:href="#f2_i" transform="matrix(12,0,0,12,605.5,1160.8)" />
<use xlink:href="#f2_1z" transform="matrix(12,0,0,12,610.5,1160.8)" />
<use xlink:href="#f2_21" transform="matrix(12,0,0,12,620.7,1160.8)" />
<use xlink:href="#f2_2e" transform="matrix(12,0,0,12,630.8,1160.8)" />
</g>
</g>
<path fill-rule="evenodd" d="M638.2,1165.1H768.6v-21.4H638.2v21.4Z" class="g0_30" />
<g clip-path="url(#c0_30)">
<g fill="#000000" >
<use xlink:href="#f0_q" transform="matrix(12,0,0,12,638.3,1160.8)" />
<use xlink:href="#f0_y" transform="matrix(12,0,0,12,649.9,1160.8)" />
<use xlink:href="#f0_3" transform="matrix(12,0,0,12,664.9,1160.8)" />
<use xlink:href="#f0_4" transform="matrix(12,0,0,12,676.5,1160.8)" />
<use xlink:href="#f0_8" transform="matrix(12,0,0,12,687.8,1160.8)" />
<use xlink:href="#f0_4" transform="matrix(12,0,0,12,694.8,1160.8)" />
<use xlink:href="#f0_g" transform="matrix(12,0,0,12,706.1,1160.8)" />
<use xlink:href="#f0_9" transform="matrix(12,0,0,12,717.4,1160.8)" />
<use xlink:href="#f0_a" transform="matrix(12,0,0,12,732.8,1160.8)" />
<use xlink:href="#f0_3" transform="matrix(12,0,0,12,740,1160.8)" />
<use xlink:href="#f0_4" transform="matrix(12,0,0,12,751.6,1160.8)" />
</g>
</g>
<path fill-rule="evenodd" d="M86.6,1193.8H614.3v-21.4H86.6v21.4Z" class="g0_30" />
<g clip-path="url(#c0_30)">
<g fill="#000000" >
<use xlink:href="#f0_j" transform="matrix(12,0,0,12,86.8,1189.4)" />
<use xlink:href="#f0_4" transform="matrix(12,0,0,12,98.4,1189.4)" />
<use xlink:href="#f0_k" transform="matrix(12,0,0,12,109.7,1189.4)" />
<use xlink:href="#f0_4" transform="matrix(12,0,0,12,120.5,1189.4)" />
<use xlink:href="#f0_i" transform="matrix(12,0,0,12,131.8,1189.4)" />
<use xlink:href="#f0_c" transform="matrix(12,0,0,12,136.8,1189.4)" />
<use xlink:href="#f0_b" transform="matrix(12,0,0,12,148.1,1189.4)" />
<use xlink:href="#f0_p" transform="matrix(12,0,0,12,159.7,1189.4)" />
<use xlink:href="#f0_4" transform="matrix(12,0,0,12,177.6,1189.4)" />
<use xlink:href="#f0_h" transform="matrix(12,0,0,12,188.9,1189.4)" />
<use xlink:href="#f0_a" transform="matrix(12,0,0,12,200.5,1189.4)" />
<use xlink:href="#f0_o" transform="matrix(12,0,0,12,213.5,1189.4)" />
<use xlink:href="#f0_4" transform="matrix(12,0,0,12,223.6,1189.4)" />
<use xlink:href="#f0_8" transform="matrix(12,0,0,12,234.9,1189.4)" />
<use xlink:href="#f0_a" transform="matrix(12,0,0,12,242.3,1189.4)" />
<use xlink:href="#f0_7" transform="matrix(12,0,0,12,249.5,1189.4)" />
<use xlink:href="#f0_6" transform="matrix(12,0,0,12,254.6,1189.4)" />
<use xlink:href="#f0_7" transform="matrix(12,0,0,12,261.1,1189.4)" />
<use xlink:href="#f0_o" transform="matrix(12,0,0,12,266.2,1189.4)" />
<use xlink:href="#f0_g" transform="matrix(12,0,0,12,276.2,1189.4)" />
<use xlink:href="#f0_a" transform="matrix(12,0,0,12,287.5,1189.4)" />
<use xlink:href="#f0_4" transform="matrix(12,0,0,12,294.7,1189.4)" />
<use xlink:href="#f0_t" transform="matrix(12,0,0,12,311.8,1189.4)" />
<use xlink:href="#f0_c" transform="matrix(12,0,0,12,322.6,1189.4)" />
<use xlink:href="#f0_r" transform="matrix(12,0,0,12,333.8,1189.4)" />
<use xlink:href="#f0_j" transform="matrix(12,0,0,12,351.3,1189.4)" />
<use xlink:href="#f0_c" transform="matrix(12,0,0,12,362.9,1189.4)" />
<use xlink:href="#f0_y" transform="matrix(12,0,0,12,374.1,1189.4)" />
<use xlink:href="#f0_h" transform="matrix(12,0,0,12,389.1,1189.4)" />
<use xlink:href="#f0_i" transform="matrix(12,0,0,12,400.7,1189.4)" />
<use xlink:href="#f0_c" transform="matrix(12,0,0,12,405.8,1189.4)" />
<use xlink:href="#f0_g" transform="matrix(12,0,0,12,417,1189.4)" />
<use xlink:href="#f0_j" transform="matrix(12,0,0,12,428.3,1189.4)" />
<use xlink:href="#f0_4" transform="matrix(12,0,0,12,439.9,1189.4)" />
<use xlink:href="#f0_j" transform="matrix(12,0,0,12,451.2,1189.4)" />
<use xlink:href="#f0_n" transform="matrix(12,0,0,12,468.6,1189.4)" />
<use xlink:href="#f0_4" transform="matrix(12,0,0,12,480.2,1189.4)" />
<use xlink:href="#f0_6" transform="matrix(12,0,0,12,491.5,1189.4)" />
<use xlink:href="#f0_c" transform="matrix(12,0,0,12,497.9,1189.4)" />
<use xlink:href="#f0_8" transform="matrix(12,0,0,12,509.2,1189.4)" />
<use xlink:href="#f0_4" transform="matrix(12,0,0,12,516.2,1189.4)" />
<use xlink:href="#f0_7" transform="matrix(12,0,0,12,533.3,1189.4)" />
<use xlink:href="#f0_9" transform="matrix(12,0,0,12,538.4,1189.4)" />
<use xlink:href="#f0_o" transform="matrix(12,0,0,12,553.8,1189.4)" />
<use xlink:href="#f0_g" transform="matrix(12,0,0,12,563.8,1189.4)" />
<use xlink:href="#f0_i" transform="matrix(12,0,0,12,575.1,1189.4)" />
<use xlink:href="#f0_i" transform="matrix(12,0,0,12,580.2,1189.4)" />
<use xlink:href="#f0_4" transform="matrix(12,0,0,12,585.2,1189.4)" />
<use xlink:href="#f0_j" transform="matrix(12,0,0,12,596.5,1189.4)" />
</g>
</g>
<path fill-rule="evenodd" d="M614.3,1195H796.1v-23.5H614.3V1195Z" class="g0_30" />
<g clip-path="url(#c0_30)">
<g fill="#0000FF" >
<use xlink:href="#f2_25" transform="matrix(12,0,0,12,614.5,1189.4)" />
<use xlink:href="#f2_2b" transform="matrix(12,0,0,12,619.5,1189.4)" />
<use xlink:href="#f2_2f" transform="matrix(12,0,0,12,630.7,1189.4)" />
<use xlink:href="#f2_1v" transform="matrix(12,0,0,12,640.9,1189.4)" />
<use xlink:href="#f2_20" transform="matrix(12,0,0,12,651.1,1189.4)" />
<use xlink:href="#f2_21" transform="matrix(12,0,0,12,662.1,1189.4)" />
<use xlink:href="#f2_2i" transform="matrix(12,0,0,12,672,1189.4)" />
<use xlink:href="#f2_21" transform="matrix(12,0,0,12,682.1,1189.4)" />
<use xlink:href="#f2_28" transform="matrix(12,0,0,12,692.3,1189.4)" />
<use xlink:href="#f2_2b" transform="matrix(12,0,0,12,697.4,1189.4)" />
<use xlink:href="#f2_2c" transform="matrix(12,0,0,12,708.5,1189.4)" />
<use xlink:href="#f2_29" transform="matrix(12,0,0,12,719.8,1189.4)" />
<use xlink:href="#f2_21" transform="matrix(12,0,0,12,736,1189.4)" />
<use xlink:href="#f2_2a" transform="matrix(12,0,0,12,746.2,1189.4)" />
<use xlink:href="#f2_2g" transform="matrix(12,0,0,12,757.3,1189.4)" />
<use xlink:href="#f2_i" transform="matrix(12,0,0,12,763.4,1189.4)" />
<use xlink:href="#f2_1z" transform="matrix(12,0,0,12,768.6,1189.4)" />
<use xlink:href="#f2_21" transform="matrix(12,0,0,12,778.7,1189.4)" />
<use xlink:href="#f2_2e" transform="matrix(12,0,0,12,788.9,1189.4)" />
</g>
</g>
<path fill-rule="evenodd" d="M796.1,1193.8h5.8v-21.4h-5.8v21.4Z" class="g0_30" />
<g clip-path="url(#c0_30)">
<g fill="#000000" >
<use xlink:href="#f0_l" transform="matrix(12,0,0,12,796.3,1189.4)" />
</g>
</g>
<image preserveAspectRatio="none" x="87" y="115" width="736" height="179" xlink:href="img/1.png" />
<image preserveAspectRatio="none" x="171" y="515" width="567" height="573" xlink:href="img/2.png" />
<defs>
<path d="M408,93c0,0,115,0,184,81c0,0,69,81,69,215v30H524c0,0,-167,0,-231,-38c0,0,-64,-38,-64,-129c0,0,0,-73,48,-116c0,0,48,-43,131,-43ZM372,-20c0,0,-128,0,-204,70c0,0,-76,72,-76,193c0,0,0,141,94,212c0,0,95,72,282,72H661v13c0,0,0,95,-62,147c0,0,-63,52,-175,52c0,0,-72,0,-140,-17c0,0,-68,-17,-130,-51V798c0,0,75,29,146,43c0,0,71,15,138,15c0,0,181,0,270,-95c0,0,90,-94,90,-285V0H661V127C661,127,614,51,544,15c0,0,-70,-35,-172,-35Z" 
id="f0_g"
transform="scale(0.001,-0.001)" />

<path d="M139,0V836H277V706c0,0,49,75,116,112c0,0,67,38,154,38c0,0,144,0,218,-90c0,0,74,-89,74,-262V0H702V500c0,0,0,119,-46,177c0,0,-47,59,-139,59c0,0,-112,0,-176,-71c0,0,-64,-70,-64,-193V0Z" 
id="f0_h"
transform="scale(0.001,-0.001)" />

<path d="M460,93c0,0,109,0,171,86c0,0,63,86,63,238c0,0,0,151,-63,237c0,0,-62,86,-171,86c0,0,-109,0,-172,-86c0,0,-62,-86,-62,-237c0,0,0,-152,62,-238c0,0,63,-86,172,-86ZM426,-20c0,0,-151,0,-247,119c0,0,-95,121,-95,318c0,0,0,197,95,318c0,0,96,121,247,121c0,0,93,0,159,-37c0,0,66,-36,109,-110v452H831V0H694V125C694,125,651,51,585,15c0,0,-66,-35,-159,-35Z" 
id="f0_j"
transform="scale(0.001,-0.001)" />

<path d="M495,-20c0,0,-189,0,-300,117C195,97,84,216,84,417c0,0,0,204,112,321c0,0,113,118,308,118c0,0,64,0,124,-14c0,0,60,-13,117,-39V675c0,0,-58,32,-117,48c0,0,-58,16,-118,16c0,0,-133,0,-207,-84c0,0,-74,-85,-74,-238c0,0,0,-153,74,-238c0,0,74,-84,207,-84c0,0,60,0,118,16c0,0,59,16,117,48V32C745,32,688,5,626,-7c0,0,-61,-13,-131,-13Z" 
id="f0_o"
transform="scale(0.001,-0.001)" />

<path d="M144,0V1161H281V0Z" 
id="f0_i"
transform="scale(0.001,-0.001)" />

<path d="M144,0V836H281V0Zm0,987v174H281V987Z" 
id="f0_7"
transform="scale(0.001,-0.001)" />

<path d="M139,0V1161H277V475L686,836H861L418,445L880,0H701L277,408V0Z" 
id="f0_10"
transform="scale(0.001,-0.001)" />

<path d="M680,-20c0,0,-278,0,-441,154C239,134,76,290,76,556c0,0,0,267,163,423c0,0,163,155,441,155c0,0,93,0,179,-21c0,0,86,-21,165,-62V820c0,0,-80,55,-158,81c0,0,-77,25,-163,25c0,0,-154,0,-241,-98c0,0,-88,-99,-88,-272c0,0,0,-172,87,-271c0,0,88,-98,242,-98c0,0,86,0,163,25c0,0,78,26,158,80V61C1024,61,945,20,859,0c0,0,-86,-20,-179,-20Z" 
id="f1_h"
transform="scale(0.001,-0.001)" />

<path d="M526,169c0,0,87,0,133,64c0,0,46,64,46,184c0,0,0,120,-46,184c0,0,-46,64,-133,64c0,0,-89,0,-135,-64c0,0,-47,-64,-47,-184c0,0,0,-120,47,-184c0,0,46,-64,135,-64Zm0,-189c0,0,-217,0,-339,115C187,95,66,211,66,417c0,0,0,206,121,322c0,0,122,117,339,117c0,0,215,0,336,-117c0,0,122,-116,122,-322c0,0,0,-206,-122,-322C862,95,741,-20,526,-20Z" 
id="f1_f"
transform="scale(0.001,-0.001)" />

<path d="M128,0V836H395V713c0,0,60,73,128,108c0,0,68,35,150,35c0,0,145,0,220,-89c0,0,75,-89,75,-258V0H699V389c0,0,0,109,-5,150c0,0,-5,41,-16,60c0,0,-16,26,-43,41c0,0,-27,14,-61,14c0,0,-84,0,-131,-64c0,0,-48,-65,-48,-179V0Z" 
id="f1_6"
transform="scale(0.001,-0.001)" />

<path d="M443,0C443,0,285,0,219,66c0,0,-66,66,-66,224V645H20V836H153v237H419V836H695V645H419V290c0,0,0,-58,24,-79c0,0,23,-20,91,-20H672V0Z" 
id="f1_4"
transform="scale(0.001,-0.001)" />

<path d="M128,0V836H395V0Zm0,944v217H395V944Z" 
id="f1_5"
transform="scale(0.001,-0.001)" />

<path d="M415,-20c0,0,-144,0,-220,87c0,0,-76,89,-76,259V836H388V752c0,0,0,-67,-1,-170c0,0,0,-103,0,-137c0,0,0,-101,5,-145c0,0,5,-44,18,-65c0,0,16,-26,43,-40c0,0,26,-14,60,-14c0,0,84,0,132,64c0,0,47,64,47,178V836H959V0H692V121C692,121,632,48,564,13c0,0,-67,-33,-149,-33Z" 
id="f1_g"
transform="scale(0.001,-0.001)" />

<path d="M687,509c0,0,0,76,-44,122c0,0,-44,47,-116,47c0,0,-78,0,-126,-44c0,0,-49,-43,-61,-125ZM544,-20c0,0,-227,0,-353,114C191,94,66,209,66,417c0,0,0,204,123,321c0,0,123,118,340,118c0,0,197,0,315,-119c0,0,118,-118,118,-317V344H337c0,0,10,-94,68,-141c0,0,59,-47,163,-47c0,0,85,0,173,25c0,0,89,25,182,76V51C923,51,828,15,733,-2c0,0,-94,-18,-189,-18Z" 
id="f1_3"
transform="scale(0.001,-0.001)" />

<path d="M421,0C421,0,263,0,202,59c0,0,-60,60,-60,217V729H41V836H142v238H280V836H562V729H280V276c0,0,0,-102,28,-132c0,0,28,-29,113,-29H562V0Z" 
id="f0_a"
transform="scale(0.001,-0.001)" />

<path d="M139,0V1161H277V706c0,0,49,75,116,112c0,0,67,38,154,38c0,0,144,0,218,-90c0,0,74,-89,74,-262V0H702V500c0,0,0,119,-46,177c0,0,-47,59,-139,59c0,0,-112,0,-176,-71c0,0,-64,-70,-64,-193V0Z" 
id="f0_3"
transform="scale(0.001,-0.001)" />

<path d="M231,492l491,1c0,0,-2,112,-64,179c0,0,-61,67,-163,67c0,0,-115,0,-184,-65c0,0,-69,-64,-80,-182ZM517,-20c0,0,-199,0,-316,115C201,95,84,211,84,410c0,0,0,205,111,325c0,0,111,121,299,121c0,0,168,0,266,-109c0,0,98,-108,98,-295V385H227c0,0,9,-142,85,-216c0,0,77,-74,213,-74c0,0,80,0,154,19c0,0,74,19,147,58V42C826,42,752,11,675,-4c0,0,-78,-16,-158,-16Z" 
id="f0_4"
transform="scale(0.001,-0.001)" />

<path d="M510,93c0,0,109,0,171,86c0,0,62,86,62,238c0,0,0,151,-62,237c0,0,-62,86,-171,86c0,0,-109,0,-171,-86c0,0,-62,-86,-62,-237c0,0,0,-152,62,-238c0,0,62,-86,171,-86ZM544,-20c0,0,-92,0,-158,35c0,0,-66,36,-109,110V0H139V1161H277V709c0,0,43,74,109,110c0,0,66,37,158,37c0,0,152,0,247,-121c0,0,95,-121,95,-318c0,0,0,-197,-95,-318C791,99,696,-20,544,-20Z" 
id="f0_n"
transform="scale(0.001,-0.001)" />

<path d="M467,95c0,0,110,0,174,86c0,0,64,87,64,236c0,0,0,148,-64,235c0,0,-64,87,-174,87c0,0,-110,0,-174,-86c0,0,-64,-86,-64,-236c0,0,0,-150,64,-236c0,0,63,-86,174,-86Zm0,-115c0,0,-179,0,-281,115C186,95,84,212,84,417c0,0,0,206,102,322c0,0,102,117,281,117c0,0,179,0,282,-117c0,0,102,-116,102,-322c0,0,0,-205,-102,-322C749,95,646,-20,467,-20Z" 
id="f0_c"
transform="scale(0.001,-0.001)" />

<path d="M139,0V836H277V706c0,0,47,77,112,113c0,0,66,37,156,37c0,0,91,0,155,-47c0,0,64,-46,94,-134c0,0,52,93,123,137c0,0,72,44,169,44c0,0,130,0,201,-92c0,0,71,-91,71,-260V0H1220V500c0,0,0,120,-42,178c0,0,-43,58,-130,58c0,0,-107,0,-169,-71c0,0,-62,-70,-62,-193V0H680V500c0,0,0,121,-43,179c0,0,-42,57,-131,57c0,0,-105,0,-167,-71c0,0,-62,-71,-62,-193V0Z" 
id="f0_p"
transform="scale(0.001,-0.001)" />

<path d="M376,-20c0,0,-67,0,-140,12C236,-8,164,4,83,30V172c0,0,76,-40,150,-59c0,0,74,-20,146,-20c0,0,97,0,150,33c0,0,52,33,52,94c0,0,0,56,-38,85c0,0,-38,30,-165,58l-48,11c0,0,-128,27,-184,83c0,0,-57,55,-57,152c0,0,0,118,83,182c0,0,84,65,238,65c0,0,76,0,143,-12c0,0,67,-11,124,-33V681c0,0,-58,29,-121,44c0,0,-63,15,-130,15c0,0,-102,0,-153,-31c0,0,-51,-31,-51,-94c0,0,0,-48,37,-75c0,0,36,-27,147,-52l46,-10c0,0,147,-32,208,-89c0,0,62,-57,62,-159c0,0,0,-116,-93,-184c0,0,-92,-66,-253,-66Z" 
id="f0_9"
transform="scale(0.001,-0.001)" />

<path d="M166,0V729H35V836H166v58c0,0,0,139,65,203c0,0,65,64,206,64H567V1046H435c0,0,-74,0,-102,-29c0,0,-29,-30,-29,-107V836H530V729H304V0Z" 
id="f0_6"
transform="scale(0.001,-0.001)" />

<path d="M139,0V836H277V706c0,0,43,76,112,113c0,0,70,37,169,37c0,0,14,0,31,-2c0,0,17,-2,38,-6l1,-141c0,0,-23,14,-51,20c0,0,-27,6,-60,6c0,0,-116,0,-178,-75c0,0,-62,-76,-62,-218V0Z" 
id="f0_8"
transform="scale(0.001,-0.001)" />

<path d="M179,0V190H336V0Zm0,600V790H336V600Z" 
id="f0_12"
transform="scale(0.001,-0.001)" />

<path d="M642,-20c0,0,-261,0,-409,151C233,131,86,284,86,556c0,0,0,273,147,426c0,0,148,152,409,152c0,0,109,0,207,-27c0,0,98,-26,181,-78V868c0,0,-84,71,-178,106c0,0,-94,36,-197,36c0,0,-205,0,-307,-114C348,896,245,782,245,556c0,0,0,-225,103,-339c0,0,102,-114,307,-114c0,0,79,0,142,13c0,0,62,14,112,43V459H663V583h396V104c0,0,-87,-62,-193,-94c0,0,-105,-30,-224,-30Z" 
id="f0_1r"
transform="scale(0.001,-0.001)" />

<path d="M424,-20c0,0,-145,0,-219,88c0,0,-75,89,-75,262V836H267V335c0,0,0,-119,46,-178c0,0,47,-59,139,-59c0,0,112,0,177,71c0,0,64,71,64,193V836H830V0H693V128C693,128,643,52,577,15c0,0,-66,-35,-153,-35Z" 
id="f0_r"
transform="scale(0.001,-0.001)" />

<path d="M460,115c0,0,111,0,173,82c0,0,61,82,61,230c0,0,0,149,-61,231c0,0,-62,82,-173,82c0,0,-111,0,-173,-82c0,0,-61,-82,-61,-231c0,0,0,-148,61,-230c0,0,62,-82,173,-82ZM446,-317c0,0,-72,0,-137,11c0,0,-64,11,-124,33v134c0,0,60,-33,119,-49c0,0,59,-15,121,-15c0,0,135,0,202,70c0,0,67,71,67,212v68C694,147,652,73,585,36C585,36,519,0,426,0C426,0,272,0,178,117c0,0,-94,117,-94,310c0,0,0,194,94,311c0,0,94,118,248,118c0,0,93,0,159,-37c0,0,67,-36,109,-110V836H831V104c0,0,0,-212,-95,-317c0,0,-94,-104,-290,-104Z" 
id="f0_f"
transform="scale(0.001,-0.001)" />

<path d="M510,93c0,0,109,0,171,86c0,0,62,86,62,238c0,0,0,151,-62,237c0,0,-62,86,-171,86c0,0,-109,0,-171,-86c0,0,-62,-86,-62,-237c0,0,0,-152,62,-238c0,0,62,-86,171,-86ZM139,-317V836H277V709c0,0,43,74,109,110c0,0,66,37,158,37c0,0,152,0,247,-121c0,0,95,-121,95,-318c0,0,0,-197,-95,-318C791,99,696,-20,544,-20c0,0,-92,0,-158,35c0,0,-66,36,-109,110V-317Z" 
id="f0_b"
transform="scale(0.001,-0.001)" />

<path d="M460,93c0,0,109,0,171,86c0,0,63,86,63,238c0,0,0,151,-63,237c0,0,-62,86,-171,86c0,0,-109,0,-172,-86c0,0,-62,-86,-62,-237c0,0,0,-152,62,-238c0,0,63,-86,172,-86ZM694,-317V125C694,125,651,51,585,15c0,0,-66,-35,-159,-35c0,0,-151,0,-247,119c0,0,-95,121,-95,318c0,0,0,197,95,318c0,0,96,121,247,121c0,0,93,0,159,-37c0,0,66,-36,109,-110V836H831V-317Z" 
id="f0_17"
transform="scale(0.001,-0.001)" />

<path d="M121,-317v116h81c0,0,57,0,88,26c0,0,31,27,69,127l25,62L46,836H191L453,182L714,836H859L492,-76c0,0,-58,-150,-113,-195c0,0,-55,-46,-148,-46Z" 
id="f0_t"
transform="scale(0.001,-0.001)" />

<path d="M359,0L46,836H191L453,134L714,836H859L546,0Z" 
id="f0_k"
transform="scale(0.001,-0.001)" />

<path d="M163,0V190H321V0Z" 
id="f0_l"
transform="scale(0.001,-0.001)" />

<path d="M330,0L51,1114H203L437,172l234,942H840L1074,172l234,942h153L1181,0H992L757,967L519,0Z" 
id="f0_1s"
transform="scale(0.001,-0.001)" />

<path d="M117,-176L179,62V190H336V62L213,-176Z" 
id="f0_q"
transform="scale(0.001,-0.001)" />

<path d="M530,217c0,0,176,0,269,87c0,0,93,88,93,254c0,0,0,166,-93,252c0,0,-92,87,-269,87H427V217ZM140,0V1114H443c0,0,253,0,378,-36c0,0,124,-37,213,-123c0,0,78,-76,116,-174c0,0,38,-98,38,-223c0,0,0,-126,-38,-225c0,0,-38,-99,-116,-174c0,0,-90,-87,-215,-123C819,36,694,0,443,0Z" 
id="f1_l"
transform="scale(0.001,-0.001)" />

<path d="M274,0L54,836H313L454,260L594,836H817L958,266l141,570h259L1138,0H847L706,575L565,0Z" 
id="f1_11"
transform="scale(0.001,-0.001)" />

<path d="M128,0V1161H395V0Z" 
id="f1_j"
transform="scale(0.001,-0.001)" />

<path d="M463,156c0,0,75,0,127,54c0,0,51,54,51,135v30H502c0,0,-83,0,-125,-28c0,0,-43,-28,-43,-83c0,0,0,-50,34,-79c0,0,34,-29,95,-29ZM357,-20c0,0,-130,0,-211,74c0,0,-80,76,-80,197c0,0,0,147,101,215c0,0,101,69,317,69H641v21c0,0,0,63,-50,92c0,0,-49,30,-155,30c0,0,-86,0,-160,-17c0,0,-74,-18,-137,-52V813c0,0,86,21,172,32c0,0,86,11,173,11c0,0,226,0,326,-90c0,0,100,-89,100,-290V0H641V124C641,124,588,48,521,13c0,0,-68,-33,-164,-33Z" 
id="f1_a"
transform="scale(0.001,-0.001)" />

<path d="M520,172c0,0,86,0,131,63c0,0,45,63,45,182c0,0,0,119,-45,182c0,0,-45,63,-131,63c0,0,-85,0,-130,-63c0,0,-45,-63,-45,-182c0,0,0,-119,45,-182c0,0,45,-63,130,-63ZM421,-20c0,0,-154,0,-253,121C168,101,68,224,68,417c0,0,0,193,100,316c0,0,99,123,253,123c0,0,87,0,153,-35c0,0,67,-35,122,-108v448H965V0H696V121C696,121,641,47,575,13c0,0,-67,-33,-154,-33Z" 
id="f1_c"
transform="scale(0.001,-0.001)" />

<path d="M102,0V1051H354L818,235c0,0,-13,113,-13,205v611h195V0H742L284,809c0,0,14,-117,14,-189V0Z" 
id="f2_1e"
transform="scale(0.001,-0.001)" />

<path d="M461,129c0,0,193,0,193,276c0,0,0,144,-47,209c0,0,-47,65,-136,65c0,0,-191,0,-191,-274c0,0,0,-135,46,-205c0,0,47,-71,135,-71Zm2,-143c0,0,-188,0,-296,111C167,97,60,209,60,405c0,0,0,194,107,306c0,0,108,111,301,111c0,0,197,0,301,-107c0,0,105,-108,105,-310c0,0,0,-197,-109,-308C765,97,656,-14,463,-14Z" 
id="f2_2b"
transform="scale(0.001,-0.001)" />

<path d="M313,-13c0,0,-92,0,-142,50c0,0,-50,50,-50,152V666H19V808H131l66,189H328V808H481V666H328V245c0,0,0,-59,23,-87c0,0,22,-28,69,-28c0,0,25,0,70,10V11c0,0,-77,-24,-177,-24Z" 
id="f2_2g"
transform="scale(0.001,-0.001)" />

<path d="M595,495c0,0,-6,98,-47,147c0,0,-41,49,-111,49c0,0,-74,0,-114,-51c0,0,-40,-52,-42,-145ZM437,-14c0,0,-182,0,-280,107c0,0,-97,108,-97,315c0,0,0,199,99,307c0,0,99,107,281,107c0,0,174,0,266,-115c0,0,91,-115,91,-337v-6H280c0,0,0,-118,43,-179c0,0,44,-60,125,-60c0,0,111,0,140,97L786,205c0,0,-86,-219,-349,-219Z" 
id="f2_21"
transform="scale(0.001,-0.001)" />

<path d="M147,0V209H362V0Zm0,562V771H362V562Z" 
id="f2_u"
transform="scale(0.001,-0.001)" />

<path d="M391,0V987H-3v127H938V987H543V0Z" 
id="f0_2"
transform="scale(0.001,-0.001)" />

<path d="M107,0V808H316V0Zm0,952v155H316V952Z" 
id="f2_25"
transform="scale(0.001,-0.001)" />

<path d="M426,-14c0,0,-166,0,-255,52C171,38,83,90,54,201l184,28c0,0,16,-57,54,-81c0,0,38,-24,134,-24c0,0,88,0,128,22c0,0,41,23,41,70c0,0,0,39,-33,62c0,0,-32,23,-110,38c0,0,-177,35,-239,65c0,0,-62,31,-95,79c0,0,-32,48,-32,118c0,0,0,115,89,180c0,0,89,64,252,64c0,0,144,0,232,-56c0,0,88,-56,109,-162L583,585c0,0,-9,49,-44,74c0,0,-35,24,-112,24c0,0,-74,0,-111,-19c0,0,-38,-19,-38,-64c0,0,0,-35,29,-55c0,0,29,-21,97,-34c0,0,94,-20,168,-40c0,0,73,-21,118,-49c0,0,44,-28,71,-73c0,0,26,-44,26,-113c0,0,0,-117,-96,-184c0,0,-96,-66,-265,-66Z" 
id="f2_2f"
transform="scale(0.001,-0.001)" />

<path d="M-14,-186v59H863v-59Z" 
id="f2_1v"
transform="scale(0.001,-0.001)" />

<path d="M446,129c0,0,83,0,128,73c0,0,46,72,46,206c0,0,0,131,-44,201c0,0,-43,71,-128,71c0,0,-85,0,-126,-69c0,0,-41,-68,-41,-208c0,0,0,-274,165,-274ZM357,-14c0,0,-141,0,-217,109c0,0,-77,110,-77,308c0,0,0,201,81,310c0,0,81,109,229,109c0,0,86,0,148,-35c0,0,62,-36,96,-107h1l-1,132v295H827V176c0,0,0,-75,6,-176H630c0,0,-3,11,-7,56c0,0,-5,46,-5,76h-3c0,0,-67,-146,-258,-146Z" 
id="f2_20"
transform="scale(0.001,-0.001)" />

<path d="M107,0V618c0,0,0,66,-2,111c0,0,-2,44,-4,79H301c0,0,2,-14,6,-83c0,0,3,-68,3,-91h3c0,0,31,85,55,120c0,0,24,35,56,52c0,0,33,16,83,16c0,0,40,0,64,-11V636c0,0,-50,11,-89,11c0,0,-78,0,-122,-63c0,0,-44,-63,-44,-188V0Z" 
id="f2_2e"
transform="scale(0.001,-0.001)" />

<path d="M486,129c0,0,166,0,166,278c0,0,0,137,-40,203c0,0,-41,67,-125,67c0,0,-85,0,-129,-72c0,0,-45,-71,-45,-205c0,0,0,-128,44,-199c0,0,44,-72,129,-72ZM561,-14c0,0,-86,0,-148,37c0,0,-63,37,-97,107h-1c0,0,0,-26,-4,-72c0,0,-3,-45,-7,-58H101c0,0,6,69,6,184v923H316V798L313,667h3c0,0,71,155,258,155c0,0,144,0,220,-108c0,0,77,-109,77,-307c0,0,0,-200,-81,-311C790,96,710,-14,561,-14Z" 
id="f2_1y"
transform="scale(0.001,-0.001)" />

<path d="M360,-14c0,0,-128,0,-197,78c0,0,-68,79,-68,231V808H304V355c0,0,0,-212,144,-212c0,0,76,0,122,65c0,0,47,65,47,167V808H827V181c0,0,0,-103,6,-181H633c0,0,-9,108,-9,161h-4C620,161,578,69,514,27c0,0,-65,-41,-154,-41Z" 
id="f2_2h"
transform="scale(0.001,-0.001)" />

<path d="M107,0V627c0,0,0,65,-2,106c0,0,-2,42,-4,75H301c0,0,2,-15,6,-77c0,0,3,-61,3,-85h3c0,0,43,93,107,135c0,0,64,41,153,41c0,0,128,0,197,-79c0,0,68,-79,68,-231V0H630V452c0,0,0,213,-144,213c0,0,-76,0,-123,-65c0,0,-47,-66,-47,-168V0Z" 
id="f2_2a"
transform="scale(0.001,-0.001)" />

<path d="M104,0V228H319V0Z" 
id="f2_i"
transform="scale(0.001,-0.001)" />

<path d="M443,-14c0,0,-183,0,-283,109C160,95,60,204,60,399c0,0,0,200,100,312c0,0,101,111,286,111c0,0,143,0,236,-71c0,0,93,-72,117,-198L588,543c0,0,-9,62,-45,99c0,0,-36,37,-101,37c0,0,-162,0,-162,-271c0,0,0,-279,165,-279c0,0,59,0,100,38c0,0,40,37,50,112L805,269c0,0,-11,-83,-59,-148C746,121,697,56,619,21c0,0,-78,-35,-176,-35Z" 
id="f2_1z"
transform="scale(0.001,-0.001)" />

<path d="M283,0L65,836H202L373,184L544,836H706L878,184l171,652h137L967,0H806L626,685L445,0Z" 
id="f0_y"
transform="scale(0.001,-0.001)" />

<path d="M295,0L6,808H228L369,356c0,0,11,-37,52,-186c0,0,8,30,31,107c0,0,23,77,172,531H843L545,0Z" 
id="f2_2i"
transform="scale(0.001,-0.001)" />

<path d="M107,0V1107H316V0Z" 
id="f2_28"
transform="scale(0.001,-0.001)" />

<path d="M484,129c0,0,168,0,168,279c0,0,0,271,-166,271c0,0,-84,0,-128,-73c0,0,-45,-73,-45,-204c0,0,0,-131,45,-202c0,0,44,-71,126,-71ZM107,-316V622c0,0,0,114,-6,186H304c0,0,4,-14,7,-54c0,0,2,-39,2,-78h3c0,0,71,148,258,148c0,0,141,0,219,-108c0,0,78,-109,78,-309c0,0,0,-202,-81,-312C790,95,709,-14,561,-14c0,0,-85,0,-148,36c0,0,-63,37,-97,107h-4c0,0,4,-23,4,-135V-316Z" 
id="f2_2c"
transform="scale(0.001,-0.001)" />

<path d="M107,0V627c0,0,0,65,-2,106c0,0,-2,42,-4,75H301c0,0,2,-15,6,-77c0,0,3,-61,3,-85h3c0,0,39,93,97,135c0,0,58,41,138,41c0,0,185,0,225,-176h4c0,0,41,94,99,135c0,0,57,41,146,41c0,0,118,0,180,-80c0,0,62,-80,62,-230V0H1056V452c0,0,0,213,-123,213c0,0,-61,0,-100,-59c0,0,-39,-60,-43,-164V0H582V452c0,0,0,213,-122,213c0,0,-64,0,-104,-65c0,0,-40,-65,-40,-168V0Z" 
id="f2_29"
transform="scale(0.001,-0.001)" />


</defs>
</svg>