<?xml version="1.0" encoding="UTF-8" standalone="no"?>
<!DOCTYPE svg PUBLIC "-//W3C//DTD SVG 1.1//EN"
"http://www.w3.org/Graphics/SVG/1.1/DTD/svg11.dtd">
<svg viewBox="0 0 909 1286" version="1.1" xmlns="http://www.w3.org/2000/svg" xmlns:xlink="http://www.w3.org/1999/xlink">
<defs>
<clipPath id="c0_46"><path d="M0,1286.2V.2H909.3v1286Z" /></clipPath>
</defs>
<g clip-path="url(#c0_46)">
<g fill="#000000" >
<use xlink:href="#f0_2" transform="matrix(12,0,0,12,86.8,110.9)" />
<use xlink:href="#f0_3" transform="matrix(12,0,0,12,97.9,110.9)" />
<use xlink:href="#f0_4" transform="matrix(12,0,0,12,109.5,110.9)" />
<use xlink:href="#f0_h" transform="matrix(12,0,0,12,126.8,110.9)" />
<use xlink:href="#f0_4" transform="matrix(12,0,0,12,138.4,110.9)" />
<use xlink:href="#f0_14" transform="matrix(12,0,0,12,149.4,110.9)" />
<use xlink:href="#f0_a" transform="matrix(12,0,0,12,160.2,110.9)" />
<use xlink:href="#f0_6" transform="matrix(12,0,0,12,173.2,110.9)" />
<use xlink:href="#f0_4" transform="matrix(12,0,0,12,179.6,110.9)" />
<use xlink:href="#f0_y" transform="matrix(12,0,0,12,190.9,110.9)" />
<use xlink:href="#f0_9" transform="matrix(12,0,0,12,211.7,110.9)" />
<use xlink:href="#f0_a" transform="matrix(12,0,0,12,221.3,110.9)" />
<use xlink:href="#f0_4" transform="matrix(12,0,0,12,228.5,110.9)" />
<use xlink:href="#f0_b" transform="matrix(12,0,0,12,239.8,110.9)" />
<use xlink:href="#f0_9" transform="matrix(12,0,0,12,251.3,110.9)" />
<use xlink:href="#f0_g" transform="matrix(12,0,0,12,266.7,110.9)" />
<use xlink:href="#f0_8" transform="matrix(12,0,0,12,278,110.9)" />
<use xlink:href="#f0_4" transform="matrix(12,0,0,12,285,110.9)" />
<use xlink:href="#f0_a" transform="matrix(12,0,0,12,302.2,110.9)" />
<use xlink:href="#f0_3" transform="matrix(12,0,0,12,309.4,110.9)" />
<use xlink:href="#f0_4" transform="matrix(12,0,0,12,321,110.9)" />
<use xlink:href="#f0_9" transform="matrix(12,0,0,12,338.1,110.9)" />
<use xlink:href="#f0_g" transform="matrix(12,0,0,12,347.6,110.9)" />
<use xlink:href="#f0_p" transform="matrix(12,0,0,12,358.9,110.9)" />
<use xlink:href="#f0_4" transform="matrix(12,0,0,12,376.8,110.9)" />
<use xlink:href="#f0_g" transform="matrix(12,0,0,12,393.9,110.9)" />
<use xlink:href="#f0_9" transform="matrix(12,0,0,12,405,110.9)" />
<use xlink:href="#f0_6" transform="matrix(12,0,0,12,420.4,110.9)" />
<use xlink:href="#f0_c" transform="matrix(12,0,0,12,426.8,110.9)" />
<use xlink:href="#f0_8" transform="matrix(12,0,0,12,438,110.9)" />
<use xlink:href="#f0_a" transform="matrix(12,0,0,12,451.4,110.9)" />
<use xlink:href="#f0_3" transform="matrix(12,0,0,12,458.6,110.9)" />
<use xlink:href="#f0_4" transform="matrix(12,0,0,12,470.2,110.9)" />
<use xlink:href="#f0_j" transform="matrix(12,0,0,12,487.3,110.9)" />
<use xlink:href="#f0_4" transform="matrix(12,0,0,12,498.9,110.9)" />
<use xlink:href="#f0_k" transform="matrix(12,0,0,12,510.2,110.9)" />
<use xlink:href="#f0_4" transform="matrix(12,0,0,12,521.1,110.9)" />
<use xlink:href="#f0_i" transform="matrix(12,0,0,12,532.4,110.9)" />
<use xlink:href="#f0_c" transform="matrix(12,0,0,12,537.4,110.9)" />
<use xlink:href="#f0_b" transform="matrix(12,0,0,12,548.5,110.9)" />
<use xlink:href="#f0_p" transform="matrix(12,0,0,12,560.1,110.9)" />
<use xlink:href="#f0_4" transform="matrix(12,0,0,12,578,110.9)" />
<use xlink:href="#f0_h" transform="matrix(12,0,0,12,589.3,110.9)" />
<use xlink:href="#f0_a" transform="matrix(12,0,0,12,600.9,110.9)" />
<use xlink:href="#f0_b" transform="matrix(12,0,0,12,614,110.9)" />
<use xlink:href="#f0_8" transform="matrix(12,0,0,12,625.6,110.9)" />
<use xlink:href="#f0_c" transform="matrix(12,0,0,12,632.8,110.9)" />
<use xlink:href="#f0_6" transform="matrix(12,0,0,12,644,110.9)" />
<use xlink:href="#f0_7" transform="matrix(12,0,0,12,650.4,110.9)" />
<use xlink:href="#f0_i" transform="matrix(12,0,0,12,655.6,110.9)" />
<use xlink:href="#f0_4" transform="matrix(12,0,0,12,660.6,110.9)" />
<use xlink:href="#f0_l" transform="matrix(12,0,0,12,671.9,110.9)" />
<use xlink:href="#f0_16" transform="matrix(12,0,0,12,683.5,110.9)" />
<use xlink:href="#f0_c" transform="matrix(12,0,0,12,693.4,110.9)" />
<use xlink:href="#f0_i" transform="matrix(12,0,0,12,704.6,110.9)" />
<use xlink:href="#f0_i" transform="matrix(12,0,0,12,709.8,110.9)" />
<use xlink:href="#f0_c" transform="matrix(12,0,0,12,714.8,110.9)" />
<use xlink:href="#f0_y" transform="matrix(12,0,0,12,726,110.9)" />
<use xlink:href="#f0_a" transform="matrix(12,0,0,12,746.9,110.9)" />
<use xlink:href="#f0_3" transform="matrix(12,0,0,12,754.1,110.9)" />
<use xlink:href="#f0_4" transform="matrix(12,0,0,12,765.7,110.9)" />
<use xlink:href="#f0_9" transform="matrix(12,0,0,12,86.8,139.6)" />
<use xlink:href="#f0_o" transform="matrix(12,0,0,12,96.4,139.6)" />
<use xlink:href="#f0_8" transform="matrix(12,0,0,12,106.4,139.6)" />
<use xlink:href="#f0_4" transform="matrix(12,0,0,12,113.5,139.6)" />
<use xlink:href="#f0_4" transform="matrix(12,0,0,12,124.8,139.6)" />
<use xlink:href="#f0_h" transform="matrix(12,0,0,12,136.1,139.6)" />
<use xlink:href="#f0_9" transform="matrix(12,0,0,12,147.7,139.6)" />
<use xlink:href="#f0_g" transform="matrix(12,0,0,12,163.1,139.6)" />
<use xlink:href="#f0_i" transform="matrix(12,0,0,12,174.4,139.6)" />
<use xlink:href="#f0_c" transform="matrix(12,0,0,12,179.4,139.6)" />
<use xlink:href="#f0_h" transform="matrix(12,0,0,12,190.6,139.6)" />
<use xlink:href="#f0_f" transform="matrix(12,0,0,12,202.2,139.6)" />
<use xlink:href="#f0_q" transform="matrix(12,0,0,12,213.8,139.6)" />
<use xlink:href="#f0_h" transform="matrix(12,0,0,12,225.5,139.6)" />
<use xlink:href="#f0_g" transform="matrix(12,0,0,12,237,139.6)" />
<use xlink:href="#f0_p" transform="matrix(12,0,0,12,248.3,139.6)" />
<use xlink:href="#f0_4" transform="matrix(12,0,0,12,266.1,139.6)" />
<use xlink:href="#f0_a" transform="matrix(12,0,0,12,283.2,139.6)" />
<use xlink:href="#f0_3" transform="matrix(12,0,0,12,290.4,139.6)" />
<use xlink:href="#f0_4" transform="matrix(12,0,0,12,302,139.6)" />
<use xlink:href="#f0_j" transform="matrix(12,0,0,12,319.1,139.6)" />
<use xlink:href="#f0_7" transform="matrix(12,0,0,12,330.7,139.6)" />
<use xlink:href="#f0_9" transform="matrix(12,0,0,12,335.8,139.6)" />
<use xlink:href="#f0_a" transform="matrix(12,0,0,12,345.4,139.6)" />
<use xlink:href="#f0_8" transform="matrix(12,0,0,12,352.6,139.6)" />
<use xlink:href="#f0_7" transform="matrix(12,0,0,12,360.2,139.6)" />
<use xlink:href="#f0_n" transform="matrix(12,0,0,12,365.2,139.6)" />
<use xlink:href="#f0_r" transform="matrix(12,0,0,12,376.8,139.6)" />
<use xlink:href="#f0_a" transform="matrix(12,0,0,12,388.5,139.6)" />
<use xlink:href="#f0_7" transform="matrix(12,0,0,12,395.6,139.6)" />
<use xlink:href="#f0_c" transform="matrix(12,0,0,12,400.8,139.6)" />
<use xlink:href="#f0_h" transform="matrix(12,0,0,12,412,139.6)" />
<use xlink:href="#f0_b" transform="matrix(12,0,0,12,429.4,139.6)" />
<use xlink:href="#f0_8" transform="matrix(12,0,0,12,441.1,139.6)" />
<use xlink:href="#f0_c" transform="matrix(12,0,0,12,448.1,139.6)" />
<use xlink:href="#f0_6" transform="matrix(12,0,0,12,459.3,139.6)" />
<use xlink:href="#f0_7" transform="matrix(12,0,0,12,465.8,139.6)" />
<use xlink:href="#f0_i" transform="matrix(12,0,0,12,470.9,139.6)" />
<use xlink:href="#f0_4" transform="matrix(12,0,0,12,475.9,139.6)" />
<use xlink:href="#f0_9" transform="matrix(12,0,0,12,493.2,139.6)" />
<use xlink:href="#f0_c" transform="matrix(12,0,0,12,502.8,139.6)" />
<use xlink:href="#f0_p" transform="matrix(12,0,0,12,513.8,139.6)" />
<use xlink:href="#f0_4" transform="matrix(12,0,0,12,531.6,139.6)" />
<use xlink:href="#f0_a" transform="matrix(12,0,0,12,542.9,139.6)" />
<use xlink:href="#f0_3" transform="matrix(12,0,0,12,550.1,139.6)" />
<use xlink:href="#f0_7" transform="matrix(12,0,0,12,561.7,139.6)" />
<use xlink:href="#f0_h" transform="matrix(12,0,0,12,566.7,139.6)" />
<use xlink:href="#f0_f" transform="matrix(12,0,0,12,578.5,139.6)" />
<use xlink:href="#f0_j" transform="matrix(12,0,0,12,595.9,139.6)" />
<use xlink:href="#f0_4" transform="matrix(12,0,0,12,607.5,139.6)" />
<use xlink:href="#f0_9" transform="matrix(12,0,0,12,618.8,139.6)" />
<use xlink:href="#f0_o" transform="matrix(12,0,0,12,628.4,139.6)" />
<use xlink:href="#f0_8" transform="matrix(12,0,0,12,638.5,139.6)" />
<use xlink:href="#f0_7" transform="matrix(12,0,0,12,646,139.6)" />
<use xlink:href="#f0_b" transform="matrix(12,0,0,12,651,139.6)" />
<use xlink:href="#f0_a" transform="matrix(12,0,0,12,662.6,139.6)" />
<use xlink:href="#f0_7" transform="matrix(12,0,0,12,669.8,139.6)" />
<use xlink:href="#f0_k" transform="matrix(12,0,0,12,674.8,139.6)" />
<use xlink:href="#f0_4" transform="matrix(12,0,0,12,685.7,139.6)" />
<use xlink:href="#f0_g" transform="matrix(12,0,0,12,702.9,139.6)" />
<use xlink:href="#f0_h" transform="matrix(12,0,0,12,714.2,139.6)" />
<use xlink:href="#f0_j" transform="matrix(12,0,0,12,725.8,139.6)" />
<use xlink:href="#f0_r" transform="matrix(12,0,0,12,743.2,139.6)" />
<use xlink:href="#f0_h" transform="matrix(12,0,0,12,754.8,139.6)" />
<use xlink:href="#f0_7" transform="matrix(12,0,0,12,766.4,139.6)" />
<use xlink:href="#f0_17" transform="matrix(12,0,0,12,771.5,139.6)" />
<use xlink:href="#f0_r" transform="matrix(12,0,0,12,783.1,139.6)" />
<use xlink:href="#f0_4" transform="matrix(12,0,0,12,794.7,139.6)" />
<use xlink:href="#f0_g" transform="matrix(12,0,0,12,86.8,168.2)" />
<use xlink:href="#f0_h" transform="matrix(12,0,0,12,98.1,168.2)" />
<use xlink:href="#f0_j" transform="matrix(12,0,0,12,109.7,168.2)" />
<use xlink:href="#f0_j" transform="matrix(12,0,0,12,127.1,168.2)" />
<use xlink:href="#f0_c" transform="matrix(12,0,0,12,138.7,168.2)" />
<use xlink:href="#f0_y" transform="matrix(12,0,0,12,149.8,168.2)" />
<use xlink:href="#f0_h" transform="matrix(12,0,0,12,165,168.2)" />
<use xlink:href="#f0_i" transform="matrix(12,0,0,12,176.6,168.2)" />
<use xlink:href="#f0_c" transform="matrix(12,0,0,12,181.6,168.2)" />
<use xlink:href="#f0_g" transform="matrix(12,0,0,12,192.7,168.2)" />
<use xlink:href="#f0_j" transform="matrix(12,0,0,12,204,168.2)" />
<use xlink:href="#f0_7" transform="matrix(12,0,0,12,221.6,168.2)" />
<use xlink:href="#f0_a" transform="matrix(12,0,0,12,226.6,168.2)" />
<use xlink:href="#f0_g" transform="matrix(12,0,0,12,239.6,168.2)" />
<use xlink:href="#f0_9" transform="matrix(12,0,0,12,250.9,168.2)" />
<use xlink:href="#f0_t" transform="matrix(12,0,0,12,266.2,168.2)" />
<use xlink:href="#f0_c" transform="matrix(12,0,0,12,277,168.2)" />
<use xlink:href="#f0_r" transform="matrix(12,0,0,12,288.2,168.2)" />
<use xlink:href="#f0_j" transform="matrix(12,0,0,12,305.8,168.2)" />
<use xlink:href="#f0_7" transform="matrix(12,0,0,12,317.4,168.2)" />
<use xlink:href="#f0_j" transform="matrix(12,0,0,12,322.4,168.2)" />
<use xlink:href="#f0_a" transform="matrix(12,0,0,12,340,168.2)" />
<use xlink:href="#f0_3" transform="matrix(12,0,0,12,347.1,168.2)" />
<use xlink:href="#f0_4" transform="matrix(12,0,0,12,358.8,168.2)" />
<use xlink:href="#f0_j" transform="matrix(12,0,0,12,375.9,168.2)" />
<use xlink:href="#f0_4" transform="matrix(12,0,0,12,387.5,168.2)" />
<use xlink:href="#f0_k" transform="matrix(12,0,0,12,398.8,168.2)" />
<use xlink:href="#f0_4" transform="matrix(12,0,0,12,409.6,168.2)" />
<use xlink:href="#f0_i" transform="matrix(12,0,0,12,420.9,168.2)" />
<use xlink:href="#f0_c" transform="matrix(12,0,0,12,425.9,168.2)" />
<use xlink:href="#f0_b" transform="matrix(12,0,0,12,437.1,168.2)" />
<use xlink:href="#f0_p" transform="matrix(12,0,0,12,448.7,168.2)" />
<use xlink:href="#f0_4" transform="matrix(12,0,0,12,466.5,168.2)" />
<use xlink:href="#f0_h" transform="matrix(12,0,0,12,477.8,168.2)" />
<use xlink:href="#f0_a" transform="matrix(12,0,0,12,489.4,168.2)" />
<use xlink:href="#f0_b" transform="matrix(12,0,0,12,502.6,168.2)" />
<use xlink:href="#f0_8" transform="matrix(12,0,0,12,514.2,168.2)" />
<use xlink:href="#f0_c" transform="matrix(12,0,0,12,521.4,168.2)" />
<use xlink:href="#f0_6" transform="matrix(12,0,0,12,532.5,168.2)" />
<use xlink:href="#f0_7" transform="matrix(12,0,0,12,538.9,168.2)" />
<use xlink:href="#f0_i" transform="matrix(12,0,0,12,544.1,168.2)" />
<use xlink:href="#f0_4" transform="matrix(12,0,0,12,549.1,168.2)" />
<use xlink:href="#f0_l" transform="matrix(12,0,0,12,560.4,168.2)" />
<use xlink:href="#f0_m" transform="matrix(12,0,0,12,86.8,196.9)" />
<use xlink:href="#f0_c" transform="matrix(12,0,0,12,100.5,196.9)" />
<use xlink:href="#f0_y" transform="matrix(12,0,0,12,111.7,196.9)" />
<use xlink:href="#f0_6" transform="matrix(12,0,0,12,132.6,196.9)" />
<use xlink:href="#f0_7" transform="matrix(12,0,0,12,139,196.9)" />
<use xlink:href="#f0_h" transform="matrix(12,0,0,12,144,196.9)" />
<use xlink:href="#f0_j" transform="matrix(12,0,0,12,155.6,196.9)" />
<use xlink:href="#f0_a" transform="matrix(12,0,0,12,173.2,196.9)" />
<use xlink:href="#f0_3" transform="matrix(12,0,0,12,180.4,196.9)" />
<use xlink:href="#f0_4" transform="matrix(12,0,0,12,192,196.9)" />
<use xlink:href="#f0_6" transform="matrix(12,0,0,12,209.1,196.9)" />
<use xlink:href="#f0_7" transform="matrix(12,0,0,12,215.5,196.9)" />
<use xlink:href="#f0_i" transform="matrix(12,0,0,12,220.6,196.9)" />
<use xlink:href="#f0_4" transform="matrix(12,0,0,12,225.6,196.9)" />
<use xlink:href="#f0_9" transform="matrix(12,0,0,12,236.9,196.9)" />
<use xlink:href="#f0_t" transform="matrix(12,0,0,12,252.3,196.9)" />
<use xlink:href="#f0_c" transform="matrix(12,0,0,12,263.1,196.9)" />
<use xlink:href="#f0_r" transform="matrix(12,0,0,12,274.3,196.9)" />
<use xlink:href="#f0_19" transform="matrix(12,0,0,12,291.9,196.9)" />
<use xlink:href="#f0_r" transform="matrix(12,0,0,12,296.9,196.9)" />
<use xlink:href="#f0_9" transform="matrix(12,0,0,12,308.5,196.9)" />
<use xlink:href="#f0_a" transform="matrix(12,0,0,12,318.1,196.9)" />
<use xlink:href="#f0_j" transform="matrix(12,0,0,12,331.1,196.9)" />
<use xlink:href="#f0_c" transform="matrix(12,0,0,12,342.7,196.9)" />
<use xlink:href="#f0_y" transform="matrix(12,0,0,12,353.9,196.9)" />
<use xlink:href="#f0_h" transform="matrix(12,0,0,12,369,196.9)" />
<use xlink:href="#f0_i" transform="matrix(12,0,0,12,380.6,196.9)" />
<use xlink:href="#f0_c" transform="matrix(12,0,0,12,385.6,196.9)" />
<use xlink:href="#f0_g" transform="matrix(12,0,0,12,396.8,196.9)" />
<use xlink:href="#f0_j" transform="matrix(12,0,0,12,408.1,196.9)" />
<use xlink:href="#f0_4" transform="matrix(12,0,0,12,419.7,196.9)" />
<use xlink:href="#f0_j" transform="matrix(12,0,0,12,430.9,196.9)" />
<use xlink:href="#f0_c" transform="matrix(12,0,0,12,448.5,196.9)" />
<use xlink:href="#f0_h" transform="matrix(12,0,0,12,459.6,196.9)" />
<use xlink:href="#f0_t" transform="matrix(12,0,0,12,477.1,196.9)" />
<use xlink:href="#f0_c" transform="matrix(12,0,0,12,487.9,196.9)" />
<use xlink:href="#f0_r" transform="matrix(12,0,0,12,499,196.9)" />
<use xlink:href="#f0_8" transform="matrix(12,0,0,12,510.8,196.9)" />
<use xlink:href="#f0_o" transform="matrix(12,0,0,12,524.1,196.9)" />
<use xlink:href="#f0_c" transform="matrix(12,0,0,12,534.1,196.9)" />
<use xlink:href="#f0_p" transform="matrix(12,0,0,12,545.3,196.9)" />
<use xlink:href="#f0_b" transform="matrix(12,0,0,12,563.2,196.9)" />
<use xlink:href="#f0_r" transform="matrix(12,0,0,12,574.8,196.9)" />
<use xlink:href="#f0_a" transform="matrix(12,0,0,12,586.4,196.9)" />
<use xlink:href="#f0_4" transform="matrix(12,0,0,12,593.5,196.9)" />
<use xlink:href="#f0_8" transform="matrix(12,0,0,12,605,196.9)" />
<use xlink:href="#f0_q" transform="matrix(12,0,0,12,612.5,196.9)" />
<use xlink:href="#f0_g" transform="matrix(12,0,0,12,624.1,196.9)" />
<use xlink:href="#f0_h" transform="matrix(12,0,0,12,635.4,196.9)" />
<use xlink:href="#f0_j" transform="matrix(12,0,0,12,647,196.9)" />
<use xlink:href="#f0_j" transform="matrix(12,0,0,12,664.4,196.9)" />
<use xlink:href="#f0_c" transform="matrix(12,0,0,12,676,196.9)" />
<use xlink:href="#f0_r" transform="matrix(12,0,0,12,687.3,196.9)" />
<use xlink:href="#f0_n" transform="matrix(12,0,0,12,698.9,196.9)" />
<use xlink:href="#f0_i" transform="matrix(12,0,0,12,710.5,196.9)" />
<use xlink:href="#f0_4" transform="matrix(12,0,0,12,715.6,196.9)" />
<use xlink:href="#f0_1n" transform="matrix(12,0,0,12,726.8,196.9)" />
<use xlink:href="#f0_o" transform="matrix(12,0,0,12,733.6,196.9)" />
<use xlink:href="#f0_i" transform="matrix(12,0,0,12,743.6,196.9)" />
<use xlink:href="#f0_7" transform="matrix(12,0,0,12,748.7,196.9)" />
<use xlink:href="#f0_o" transform="matrix(12,0,0,12,753.7,196.9)" />
<use xlink:href="#f0_10" transform="matrix(12,0,0,12,763.8,196.9)" />
<use xlink:href="#f0_4" transform="matrix(12,0,0,12,86.8,225.5)" />
<use xlink:href="#f0_g" transform="matrix(12,0,0,12,98.1,225.5)" />
<use xlink:href="#f0_o" transform="matrix(12,0,0,12,109.4,225.5)" />
<use xlink:href="#f0_3" transform="matrix(12,0,0,12,119.4,225.5)" />
<use xlink:href="#f0_c" transform="matrix(12,0,0,12,136.8,225.5)" />
<use xlink:href="#f0_6" transform="matrix(12,0,0,12,148,225.5)" />
<use xlink:href="#f0_a" transform="matrix(12,0,0,12,160.3,225.5)" />
<use xlink:href="#f0_3" transform="matrix(12,0,0,12,167.5,225.5)" />
<use xlink:href="#f0_4" transform="matrix(12,0,0,12,179.1,225.5)" />
<use xlink:href="#f0_p" transform="matrix(12,0,0,12,190.4,225.5)" />
<use xlink:href="#f0_7" transform="matrix(12,0,0,12,214.1,225.5)" />
<use xlink:href="#f0_h" transform="matrix(12,0,0,12,219.1,225.5)" />
<use xlink:href="#f0_a" transform="matrix(12,0,0,12,236.6,225.5)" />
<use xlink:href="#f0_r" transform="matrix(12,0,0,12,243.7,225.5)" />
<use xlink:href="#f0_8" transform="matrix(12,0,0,12,255.4,225.5)" />
<use xlink:href="#f0_h" transform="matrix(12,0,0,12,262.5,225.5)" />
<use xlink:href="#f0_o" transform="matrix(12,0,0,12,280.1,225.5)" />
<use xlink:href="#f0_g" transform="matrix(12,0,0,12,290.2,225.5)" />
<use xlink:href="#f0_r" transform="matrix(12,0,0,12,301.5,225.5)" />
<use xlink:href="#f0_9" transform="matrix(12,0,0,12,312.9,225.5)" />
<use xlink:href="#f0_7" transform="matrix(12,0,0,12,322.5,225.5)" />
<use xlink:href="#f0_h" transform="matrix(12,0,0,12,327.6,225.5)" />
<use xlink:href="#f0_f" transform="matrix(12,0,0,12,339.2,225.5)" />
<use xlink:href="#f0_1o" transform="matrix(12,0,0,12,356.7,225.5)" />
<use xlink:href="#f0_o" transform="matrix(12,0,0,12,369.3,225.5)" />
<use xlink:href="#f0_c" transform="matrix(12,0,0,12,379.3,225.5)" />
<use xlink:href="#f0_j" transform="matrix(12,0,0,12,390.5,225.5)" />
<use xlink:href="#f0_4" transform="matrix(12,0,0,12,402.1,225.5)" />
<use xlink:href="#f0_a" transform="matrix(12,0,0,12,419.3,225.5)" />
<use xlink:href="#f0_c" transform="matrix(12,0,0,12,426.5,225.5)" />
<use xlink:href="#f0_i" transform="matrix(12,0,0,12,443.5,225.5)" />
<use xlink:href="#f0_g" transform="matrix(12,0,0,12,448.5,225.5)" />
<use xlink:href="#f0_r" transform="matrix(12,0,0,12,459.8,225.5)" />
<use xlink:href="#f0_h" transform="matrix(12,0,0,12,471.4,225.5)" />
<use xlink:href="#f0_o" transform="matrix(12,0,0,12,483,225.5)" />
<use xlink:href="#f0_3" transform="matrix(12,0,0,12,493.1,225.5)" />
<use xlink:href="#f0_l" transform="matrix(12,0,0,12,504.7,225.5)" />
<use xlink:href="#f0_1z" transform="matrix(12,0,0,12,516.4,225.5)" />
<use xlink:href="#f0_4" transform="matrix(12,0,0,12,527.4,225.5)" />
<use xlink:href="#f0_8" transform="matrix(12,0,0,12,538.7,225.5)" />
<use xlink:href="#f0_7" transform="matrix(12,0,0,12,546.2,225.5)" />
<use xlink:href="#f0_6" transform="matrix(12,0,0,12,551.4,225.5)" />
<use xlink:href="#f0_t" transform="matrix(12,0,0,12,557.5,225.5)" />
<use xlink:href="#f0_a" transform="matrix(12,0,0,12,574.1,225.5)" />
<use xlink:href="#f0_3" transform="matrix(12,0,0,12,581.3,225.5)" />
<use xlink:href="#f0_4" transform="matrix(12,0,0,12,592.9,225.5)" />
<use xlink:href="#f0_b" transform="matrix(12,0,0,12,610,225.5)" />
<use xlink:href="#f0_8" transform="matrix(12,0,0,12,621.8,225.5)" />
<use xlink:href="#f0_c" transform="matrix(12,0,0,12,628.8,225.5)" />
<use xlink:href="#f0_6" transform="matrix(12,0,0,12,639.9,225.5)" />
<use xlink:href="#f0_7" transform="matrix(12,0,0,12,646.5,225.5)" />
<use xlink:href="#f0_i" transform="matrix(12,0,0,12,651.5,225.5)" />
<use xlink:href="#f0_4" transform="matrix(12,0,0,12,656.6,225.5)" />
<use xlink:href="#f0_9" transform="matrix(12,0,0,12,667.9,225.5)" />
<use xlink:href="#f0_g" transform="matrix(12,0,0,12,683.3,225.5)" />
<use xlink:href="#f0_8" transform="matrix(12,0,0,12,694.6,225.5)" />
<use xlink:href="#f0_4" transform="matrix(12,0,0,12,701.6,225.5)" />
<use xlink:href="#f0_a" transform="matrix(12,0,0,12,718.7,225.5)" />
<use xlink:href="#f0_3" transform="matrix(12,0,0,12,725.9,225.5)" />
<use xlink:href="#f0_4" transform="matrix(12,0,0,12,737.5,225.5)" />
<use xlink:href="#f0_8" transform="matrix(12,0,0,12,748.8,225.5)" />
<use xlink:href="#f0_4" transform="matrix(12,0,0,12,755.8,225.5)" />
<use xlink:href="#f0_n" transform="matrix(12,0,0,12,773,225.5)" />
<use xlink:href="#f0_t" transform="matrix(12,0,0,12,784.7,225.5)" />
<use xlink:href="#f0_c" transform="matrix(12,0,0,12,86.8,254.2)" />
<use xlink:href="#f0_b" transform="matrix(12,0,0,12,97.9,254.2)" />
<use xlink:href="#f0_4" transform="matrix(12,0,0,12,109.5,254.2)" />
<use xlink:href="#f0_h" transform="matrix(12,0,0,12,120.8,254.2)" />
<use xlink:href="#f0_7" transform="matrix(12,0,0,12,132.6,254.2)" />
<use xlink:href="#f0_h" transform="matrix(12,0,0,12,137.6,254.2)" />
<use xlink:href="#f0_f" transform="matrix(12,0,0,12,149.2,254.2)" />
<use xlink:href="#f0_g" transform="matrix(12,0,0,12,166.8,254.2)" />
<use xlink:href="#f0_b" transform="matrix(12,0,0,12,183.7,254.2)" />
<use xlink:href="#f0_8" transform="matrix(12,0,0,12,195.5,254.2)" />
<use xlink:href="#f0_c" transform="matrix(12,0,0,12,202.5,254.2)" />
<use xlink:href="#f0_19" transform="matrix(12,0,0,12,213.6,254.2)" />
<use xlink:href="#f0_4" transform="matrix(12,0,0,12,218.7,254.2)" />
<use xlink:href="#f0_o" transform="matrix(12,0,0,12,230,254.2)" />
<use xlink:href="#f0_a" transform="matrix(12,0,0,12,240,254.2)" />
<use xlink:href="#f0_c" transform="matrix(12,0,0,12,253.2,254.2)" />
<use xlink:href="#f0_8" transform="matrix(12,0,0,12,264.3,254.2)" />
<use xlink:href="#f0_9" transform="matrix(12,0,0,12,277.8,254.2)" />
<use xlink:href="#f0_a" transform="matrix(12,0,0,12,287.2,254.2)" />
<use xlink:href="#f0_g" transform="matrix(12,0,0,12,294.4,254.2)" />
<use xlink:href="#f0_8" transform="matrix(12,0,0,12,305.7,254.2)" />
<use xlink:href="#f0_a" transform="matrix(12,0,0,12,313.2,254.2)" />
<use xlink:href="#f0_7" transform="matrix(12,0,0,12,320.4,254.2)" />
<use xlink:href="#f0_h" transform="matrix(12,0,0,12,325.4,254.2)" />
<use xlink:href="#f0_f" transform="matrix(12,0,0,12,337,254.2)" />
<use xlink:href="#f0_g" transform="matrix(12,0,0,12,354.6,254.2)" />
<use xlink:href="#f0_h" transform="matrix(12,0,0,12,371.7,254.2)" />
<use xlink:href="#f0_4" transform="matrix(12,0,0,12,383.3,254.2)" />
<use xlink:href="#f0_y" transform="matrix(12,0,0,12,394.6,254.2)" />
<use xlink:href="#f0_c" transform="matrix(12,0,0,12,415.4,254.2)" />
<use xlink:href="#f0_h" transform="matrix(12,0,0,12,426.5,254.2)" />
<use xlink:href="#f0_4" transform="matrix(12,0,0,12,438.1,254.2)" />
<use xlink:href="#f0_6" transform="matrix(12,0,0,12,455.2,254.2)" />
<use xlink:href="#f0_c" transform="matrix(12,0,0,12,461.8,254.2)" />
<use xlink:href="#f0_8" transform="matrix(12,0,0,12,472.9,254.2)" />
<use xlink:href="#f0_a" transform="matrix(12,0,0,12,486.4,254.2)" />
<use xlink:href="#f0_3" transform="matrix(12,0,0,12,493.5,254.2)" />
<use xlink:href="#f0_7" transform="matrix(12,0,0,12,505.1,254.2)" />
<use xlink:href="#f0_9" transform="matrix(12,0,0,12,510.2,254.2)" />
<use xlink:href="#f0_a" transform="matrix(12,0,0,12,525.6,254.2)" />
<use xlink:href="#f0_4" transform="matrix(12,0,0,12,532.8,254.2)" />
<use xlink:href="#f0_9" transform="matrix(12,0,0,12,543.9,254.2)" />
<use xlink:href="#f0_a" transform="matrix(12,0,0,12,553.5,254.2)" />
<use xlink:href="#f0_l" transform="matrix(12,0,0,12,560.7,254.2)" />
<use xlink:href="#f0_18" transform="matrix(12,0,0,12,572.5,254.2)" />
<use xlink:href="#f0_i" transform="matrix(12,0,0,12,585.3,254.2)" />
<use xlink:href="#f0_7" transform="matrix(12,0,0,12,590.3,254.2)" />
<use xlink:href="#f0_o" transform="matrix(12,0,0,12,595.4,254.2)" />
<use xlink:href="#f0_10" transform="matrix(12,0,0,12,605.4,254.2)" />
<use xlink:href="#f0_c" transform="matrix(12,0,0,12,621.9,254.2)" />
<use xlink:href="#f0_h" transform="matrix(12,0,0,12,633.1,254.2)" />
<use xlink:href="#f0_a" transform="matrix(12,0,0,12,650.5,254.2)" />
<use xlink:href="#f0_3" transform="matrix(12,0,0,12,657.7,254.2)" />
<use xlink:href="#f0_4" transform="matrix(12,0,0,12,669.3,254.2)" />
<use xlink:href="#f0_1p" transform="matrix(12,0,0,12,686.5,254.2)" />
<use xlink:href="#f0_8" transform="matrix(12,0,0,12,697.2,254.2)" />
<use xlink:href="#f0_c" transform="matrix(12,0,0,12,704.2,254.2)" />
<use xlink:href="#f0_19" transform="matrix(12,0,0,12,715.5,254.2)" />
<use xlink:href="#f0_4" transform="matrix(12,0,0,12,720.6,254.2)" />
<use xlink:href="#f0_o" transform="matrix(12,0,0,12,731.9,254.2)" />
<use xlink:href="#f0_a" transform="matrix(12,0,0,12,741.9,254.2)" />
<use xlink:href="#f0_7" transform="matrix(12,0,0,12,754.9,254.2)" />
<use xlink:href="#f0_h" transform="matrix(12,0,0,12,760,254.2)" />
<use xlink:href="#f0_a" transform="matrix(12,0,0,12,777.5,254.2)" />
<use xlink:href="#f0_3" transform="matrix(12,0,0,12,784.7,254.2)" />
<use xlink:href="#f0_4" transform="matrix(12,0,0,12,796.3,254.2)" />
<use xlink:href="#f0_i" transform="matrix(12,0,0,12,86.8,282.8)" />
<use xlink:href="#f0_4" transform="matrix(12,0,0,12,91.8,282.8)" />
<use xlink:href="#f0_6" transform="matrix(12,0,0,12,103.1,282.8)" />
<use xlink:href="#f0_a" transform="matrix(12,0,0,12,109.2,282.8)" />
<use xlink:href="#f0_b" transform="matrix(12,0,0,12,122.3,282.8)" />
<use xlink:href="#f0_g" transform="matrix(12,0,0,12,133.9,282.8)" />
<use xlink:href="#f0_h" transform="matrix(12,0,0,12,145.2,282.8)" />
<use xlink:href="#f0_4" transform="matrix(12,0,0,12,156.7,282.8)" />
<use xlink:href="#f0_l" transform="matrix(12,0,0,12,168,282.8)" />
<use xlink:href="#f0_e" transform="matrix(12,0,0,12,179.7,282.8)" />
<use xlink:href="#f0_4" transform="matrix(12,0,0,12,191.4,282.8)" />
<use xlink:href="#f0_i" transform="matrix(12,0,0,12,202.6,282.8)" />
<use xlink:href="#f0_4" transform="matrix(12,0,0,12,207.7,282.8)" />
<use xlink:href="#f0_o" transform="matrix(12,0,0,12,219,282.8)" />
<use xlink:href="#f0_a" transform="matrix(12,0,0,12,229,282.8)" />
</g>
<g fill="#0000FF" >
<use xlink:href="#f1_z" transform="matrix(12,0,0,12,242.2,282.8)" />
<use xlink:href="#f1_g" transform="matrix(12,0,0,12,256.2,282.8)" />
<use xlink:href="#f1_5" transform="matrix(12,0,0,12,269.2,282.8)" />
<use xlink:href="#f1_j" transform="matrix(12,0,0,12,275.4,282.8)" />
<use xlink:href="#f1_c" transform="matrix(12,0,0,12,281.7,282.8)" />
<use xlink:href="#f1_9" transform="matrix(12,0,0,12,301.2,282.8)" />
<use xlink:href="#f1_3" transform="matrix(12,0,0,12,314.5,282.8)" />
<use xlink:href="#f1_4" transform="matrix(12,0,0,12,326.9,282.8)" />
<use xlink:href="#f1_4" transform="matrix(12,0,0,12,335.6,282.8)" />
<use xlink:href="#f1_5" transform="matrix(12,0,0,12,344.3,282.8)" />
<use xlink:href="#f1_6" transform="matrix(12,0,0,12,350.7,282.8)" />
<use xlink:href="#f1_7" transform="matrix(12,0,0,12,363.7,282.8)" />
<use xlink:href="#f1_v" transform="matrix(12,0,0,12,376.8,282.8)" />
</g>
<g fill="#000000" >
<use xlink:href="#f0_q" transform="matrix(12,0,0,12,387.9,282.8)" />
<use xlink:href="#f0_9" transform="matrix(12,0,0,12,399.5,282.8)" />
<use xlink:href="#f0_4" transform="matrix(12,0,0,12,409.1,282.8)" />
<use xlink:href="#f0_i" transform="matrix(12,0,0,12,420.4,282.8)" />
<use xlink:href="#f0_4" transform="matrix(12,0,0,12,425.5,282.8)" />
<use xlink:href="#f0_o" transform="matrix(12,0,0,12,436.8,282.8)" />
<use xlink:href="#f0_a" transform="matrix(12,0,0,12,446.8,282.8)" />
</g>
<g fill="#0000FF" >
<use xlink:href="#f1_d" transform="matrix(12,0,0,12,459.9,282.8)" />
<use xlink:href="#f1_j" transform="matrix(12,0,0,12,474.1,282.8)" />
<use xlink:href="#f1_j" transform="matrix(12,0,0,12,480.3,282.8)" />
</g>
<g fill="#000000" >
<use xlink:href="#f0_q" transform="matrix(12,0,0,12,486.6,282.8)" />
<use xlink:href="#f0_9" transform="matrix(12,0,0,12,498.2,282.8)" />
<use xlink:href="#f0_o" transform="matrix(12,0,0,12,507.8,282.8)" />
<use xlink:href="#f0_8" transform="matrix(12,0,0,12,517.9,282.8)" />
<use xlink:href="#f0_c" transform="matrix(12,0,0,12,524.9,282.8)" />
<use xlink:href="#f0_i" transform="matrix(12,0,0,12,536.2,282.8)" />
<use xlink:href="#f0_i" transform="matrix(12,0,0,12,541.2,282.8)" />
<use xlink:href="#f0_j" transform="matrix(12,0,0,12,552.2,282.8)" />
<use xlink:href="#f0_c" transform="matrix(12,0,0,12,563.8,282.8)" />
<use xlink:href="#f0_y" transform="matrix(12,0,0,12,575,282.8)" />
<use xlink:href="#f0_h" transform="matrix(12,0,0,12,590,282.8)" />
<use xlink:href="#f0_a" transform="matrix(12,0,0,12,607.5,282.8)" />
<use xlink:href="#f0_c" transform="matrix(12,0,0,12,614.7,282.8)" />
</g>
<g fill="#0000FF" >
<use xlink:href="#f1_h" transform="matrix(12,0,0,12,631.7,282.8)" />
<use xlink:href="#f1_f" transform="matrix(12,0,0,12,645.2,282.8)" />
<use xlink:href="#f1_c" transform="matrix(12,0,0,12,657.7,282.8)" />
<use xlink:href="#f1_3" transform="matrix(12,0,0,12,671,282.8)" />
<use xlink:href="#f1_9" transform="matrix(12,0,0,12,689.7,282.8)" />
<use xlink:href="#f1_5" transform="matrix(12,0,0,12,702.9,282.8)" />
<use xlink:href="#f1_7" transform="matrix(12,0,0,12,709.2,282.8)" />
<use xlink:href="#f1_6" transform="matrix(12,0,0,12,722.3,282.8)" />
<use xlink:href="#f1_5" transform="matrix(12,0,0,12,735.3,282.8)" />
<use xlink:href="#f1_6" transform="matrix(12,0,0,12,741.7,282.8)" />
<use xlink:href="#f1_7" transform="matrix(12,0,0,12,754.6,282.8)" />
</g>
<g fill="#000000" >
<use xlink:href="#f0_g" transform="matrix(12,0,0,12,774.3,282.8)" />
<use xlink:href="#f0_h" transform="matrix(12,0,0,12,785.6,282.8)" />
<use xlink:href="#f0_j" transform="matrix(12,0,0,12,797.2,282.8)" />
<use xlink:href="#f0_o" transform="matrix(12,0,0,12,86.8,311.5)" />
<use xlink:href="#f0_i" transform="matrix(12,0,0,12,96.8,311.5)" />
<use xlink:href="#f0_7" transform="matrix(12,0,0,12,101.9,311.5)" />
<use xlink:href="#f0_o" transform="matrix(12,0,0,12,106.9,311.5)" />
<use xlink:href="#f0_10" transform="matrix(12,0,0,12,117,311.5)" />
<use xlink:href="#f0_c" transform="matrix(12,0,0,12,133.6,311.5)" />
<use xlink:href="#f0_h" transform="matrix(12,0,0,12,144.7,311.5)" />
<use xlink:href="#f0_a" transform="matrix(12,0,0,12,162.2,311.5)" />
<use xlink:href="#f0_3" transform="matrix(12,0,0,12,169.4,311.5)" />
<use xlink:href="#f0_4" transform="matrix(12,0,0,12,181,311.5)" />
<use xlink:href="#f0_y" transform="matrix(12,0,0,12,198.1,311.5)" />
<use xlink:href="#f0_c" transform="matrix(12,0,0,12,213.2,311.5)" />
<use xlink:href="#f0_8" transform="matrix(12,0,0,12,224.3,311.5)" />
<use xlink:href="#f0_j" transform="matrix(12,0,0,12,231.5,311.5)" />
</g>
<g fill="#0000FF" >
<use xlink:href="#f1_d" transform="matrix(12,0,0,12,249.2,311.5)" />
<use xlink:href="#f1_g" transform="matrix(12,0,0,12,263.4,311.5)" />
<use xlink:href="#f1_4" transform="matrix(12,0,0,12,276.4,311.5)" />
<use xlink:href="#f1_f" transform="matrix(12,0,0,12,285.1,311.5)" />
<use xlink:href="#f1_r" transform="matrix(12,0,0,12,297.6,311.5)" />
<use xlink:href="#f1_a" transform="matrix(12,0,0,12,316.7,311.5)" />
<use xlink:href="#f1_4" transform="matrix(12,0,0,12,329.2,311.5)" />
<use xlink:href="#f1_5" transform="matrix(12,0,0,12,337.9,311.5)" />
<use xlink:href="#f1_e" transform="matrix(12,0,0,12,344.1,311.5)" />
</g>
<g fill="#000000" >
<use xlink:href="#f0_h" transform="matrix(12,0,0,12,361.5,311.5)" />
<use xlink:href="#f0_4" transform="matrix(12,0,0,12,373.1,311.5)" />
<use xlink:href="#f0_14" transform="matrix(12,0,0,12,384.1,311.5)" />
<use xlink:href="#f0_a" transform="matrix(12,0,0,12,394.9,311.5)" />
<use xlink:href="#f0_a" transform="matrix(12,0,0,12,407.9,311.5)" />
<use xlink:href="#f0_c" transform="matrix(12,0,0,12,415.1,311.5)" />
<use xlink:href="#f0_a" transform="matrix(12,0,0,12,432.2,311.5)" />
<use xlink:href="#f0_3" transform="matrix(12,0,0,12,439.4,311.5)" />
<use xlink:href="#f0_4" transform="matrix(12,0,0,12,451,311.5)" />
<use xlink:href="#f0_4" transform="matrix(12,0,0,12,468.1,311.5)" />
<use xlink:href="#f0_h" transform="matrix(12,0,0,12,479.4,311.5)" />
<use xlink:href="#f0_a" transform="matrix(12,0,0,12,491,311.5)" />
<use xlink:href="#f0_8" transform="matrix(12,0,0,12,498.2,311.5)" />
<use xlink:href="#f0_t" transform="matrix(12,0,0,12,505.7,311.5)" />
<use xlink:href="#f0_6" transform="matrix(12,0,0,12,522.5,311.5)" />
<use xlink:href="#f0_c" transform="matrix(12,0,0,12,528.9,311.5)" />
<use xlink:href="#f0_8" transform="matrix(12,0,0,12,540,311.5)" />
</g>
<g fill="#0000FF" >
<use xlink:href="#f1_u" transform="matrix(12,0,0,12,553.5,311.5)" />
<use xlink:href="#f1_b" transform="matrix(12,0,0,12,566.9,311.5)" />
<use xlink:href="#f1_f" transform="matrix(12,0,0,12,576,311.5)" />
<use xlink:href="#f1_t" transform="matrix(12,0,0,12,588.5,311.5)" />
<use xlink:href="#f1_5" transform="matrix(12,0,0,12,600.4,311.5)" />
<use xlink:href="#f1_v" transform="matrix(12,0,0,12,606.8,311.5)" />
<use xlink:href="#f1_5" transform="matrix(12,0,0,12,617.6,311.5)" />
<use xlink:href="#f1_f" transform="matrix(12,0,0,12,623.9,311.5)" />
<use xlink:href="#f1_6" transform="matrix(12,0,0,12,636.6,311.5)" />
<use xlink:href="#f1_5" transform="matrix(12,0,0,12,649.6,311.5)" />
<use xlink:href="#f1_6" transform="matrix(12,0,0,12,655.8,311.5)" />
<use xlink:href="#f1_7" transform="matrix(12,0,0,12,668.8,311.5)" />
<use xlink:href="#f1_u" transform="matrix(12,0,0,12,688.4,311.5)" />
<use xlink:href="#f1_b" transform="matrix(12,0,0,12,701.8,311.5)" />
<use xlink:href="#f1_f" transform="matrix(12,0,0,12,710.8,311.5)" />
<use xlink:href="#f1_o" transform="matrix(12,0,0,12,723.5,311.5)" />
<use xlink:href="#f1_5" transform="matrix(12,0,0,12,731.4,311.5)" />
<use xlink:href="#f1_j" transform="matrix(12,0,0,12,737.7,311.5)" />
<use xlink:href="#f1_3" transform="matrix(12,0,0,12,743.9,311.5)" />
</g>
<g fill="#000000" >
<use xlink:href="#f0_l" transform="matrix(12,0,0,12,756.6,311.5)" />
<use xlink:href="#f0_x" transform="matrix(12,0,0,12,768.2,311.5)" />
<use xlink:href="#f0_c" transform="matrix(12,0,0,12,776.9,311.5)" />
<use xlink:href="#f0_r" transform="matrix(12,0,0,12,788.2,311.5)" />
<use xlink:href="#f0_8" transform="matrix(12,0,0,12,799.8,311.5)" />
<use xlink:href="#f0_b" transform="matrix(12,0,0,12,86.8,340.1)" />
<use xlink:href="#f0_8" transform="matrix(12,0,0,12,98.5,340.1)" />
<use xlink:href="#f0_c" transform="matrix(12,0,0,12,105.6,340.1)" />
<use xlink:href="#f0_6" transform="matrix(12,0,0,12,116.7,340.1)" />
<use xlink:href="#f0_7" transform="matrix(12,0,0,12,123.2,340.1)" />
<use xlink:href="#f0_i" transform="matrix(12,0,0,12,128.3,340.1)" />
<use xlink:href="#f0_4" transform="matrix(12,0,0,12,133.3,340.1)" />
<use xlink:href="#f0_9" transform="matrix(12,0,0,12,144.6,340.1)" />
<use xlink:href="#f0_9" transform="matrix(12,0,0,12,160,340.1)" />
<use xlink:href="#f0_3" transform="matrix(12,0,0,12,169.6,340.1)" />
<use xlink:href="#f0_c" transform="matrix(12,0,0,12,181.2,340.1)" />
<use xlink:href="#f0_r" transform="matrix(12,0,0,12,192.4,340.1)" />
<use xlink:href="#f0_i" transform="matrix(12,0,0,12,204,340.1)" />
<use xlink:href="#f0_j" transform="matrix(12,0,0,12,209,340.1)" />
<use xlink:href="#f0_n" transform="matrix(12,0,0,12,226.6,340.1)" />
<use xlink:href="#f0_4" transform="matrix(12,0,0,12,238.2,340.1)" />
<use xlink:href="#f0_i" transform="matrix(12,0,0,12,255.3,340.1)" />
<use xlink:href="#f0_7" transform="matrix(12,0,0,12,260.4,340.1)" />
<use xlink:href="#f0_9" transform="matrix(12,0,0,12,265.4,340.1)" />
<use xlink:href="#f0_a" transform="matrix(12,0,0,12,275,340.1)" />
<use xlink:href="#f0_4" transform="matrix(12,0,0,12,282.2,340.1)" />
<use xlink:href="#f0_j" transform="matrix(12,0,0,12,293.5,340.1)" />
<use xlink:href="#f0_12" transform="matrix(12,0,0,12,305.1,340.1)" />
</g>
</g>
<image preserveAspectRatio="none" x="87" y="345" width="736" height="349" xlink:href="img/1.png" />
<defs>
<path d="M391,0V987H-3v127H938V987H543V0Z" 
id="f0_2"
transform="scale(0.001,-0.001)" />

<path d="M139,0V1161H277V706c0,0,49,75,116,112c0,0,67,38,154,38c0,0,144,0,218,-90c0,0,74,-89,74,-262V0H702V500c0,0,0,119,-46,177c0,0,-47,59,-139,59c0,0,-112,0,-176,-71c0,0,-64,-70,-64,-193V0Z" 
id="f0_3"
transform="scale(0.001,-0.001)" />

<path d="M231,492l491,1c0,0,-2,112,-64,179c0,0,-61,67,-163,67c0,0,-115,0,-184,-65c0,0,-69,-64,-80,-182ZM517,-20c0,0,-199,0,-316,115C201,95,84,211,84,410c0,0,0,205,111,325c0,0,111,121,299,121c0,0,168,0,266,-109c0,0,98,-108,98,-295V385H227c0,0,9,-142,85,-216c0,0,77,-74,213,-74c0,0,80,0,154,19c0,0,74,19,147,58V42C826,42,752,11,675,-4c0,0,-78,-16,-158,-16Z" 
id="f0_4"
transform="scale(0.001,-0.001)" />

<path d="M139,0V836H277V706c0,0,49,75,116,112c0,0,67,38,154,38c0,0,144,0,218,-90c0,0,74,-89,74,-262V0H702V500c0,0,0,119,-46,177c0,0,-47,59,-139,59c0,0,-112,0,-176,-71c0,0,-64,-70,-64,-193V0Z" 
id="f0_h"
transform="scale(0.001,-0.001)" />

<path d="M44,0L369,437L71,836H233L455,538L677,836H839L537,429L855,0H693L449,328L206,0Z" 
id="f0_14"
transform="scale(0.001,-0.001)" />

<path d="M421,0C421,0,263,0,202,59c0,0,-60,60,-60,217V729H41V836H142v238H280V836H562V729H280V276c0,0,0,-102,28,-132c0,0,28,-29,113,-29H562V0Z" 
id="f0_a"
transform="scale(0.001,-0.001)" />

<path d="M166,0V729H35V836H166v58c0,0,0,139,65,203c0,0,65,64,206,64H567V1046H435c0,0,-74,0,-102,-29c0,0,-29,-30,-29,-107V836H530V729H304V0Z" 
id="f0_6"
transform="scale(0.001,-0.001)" />

<path d="M283,0L65,836H202L373,184L544,836H706L878,184l171,652h137L967,0H806L626,685L445,0Z" 
id="f0_y"
transform="scale(0.001,-0.001)" />

<path d="M376,-20c0,0,-67,0,-140,12C236,-8,164,4,83,30V172c0,0,76,-40,150,-59c0,0,74,-20,146,-20c0,0,97,0,150,33c0,0,52,33,52,94c0,0,0,56,-38,85c0,0,-38,30,-165,58l-48,11c0,0,-128,27,-184,83c0,0,-57,55,-57,152c0,0,0,118,83,182c0,0,84,65,238,65c0,0,76,0,143,-12c0,0,67,-11,124,-33V681c0,0,-58,29,-121,44c0,0,-63,15,-130,15c0,0,-102,0,-153,-31c0,0,-51,-31,-51,-94c0,0,0,-48,37,-75c0,0,36,-27,147,-52l46,-10c0,0,147,-32,208,-89c0,0,62,-57,62,-159c0,0,0,-116,-93,-184c0,0,-92,-66,-253,-66Z" 
id="f0_9"
transform="scale(0.001,-0.001)" />

<path d="M510,93c0,0,109,0,171,86c0,0,62,86,62,238c0,0,0,151,-62,237c0,0,-62,86,-171,86c0,0,-109,0,-171,-86c0,0,-62,-86,-62,-237c0,0,0,-152,62,-238c0,0,62,-86,171,-86ZM139,-317V836H277V709c0,0,43,74,109,110c0,0,66,37,158,37c0,0,152,0,247,-121c0,0,95,-121,95,-318c0,0,0,-197,-95,-318C791,99,696,-20,544,-20c0,0,-92,0,-158,35c0,0,-66,36,-109,110V-317Z" 
id="f0_b"
transform="scale(0.001,-0.001)" />

<path d="M408,93c0,0,115,0,184,81c0,0,69,81,69,215v30H524c0,0,-167,0,-231,-38c0,0,-64,-38,-64,-129c0,0,0,-73,48,-116c0,0,48,-43,131,-43ZM372,-20c0,0,-128,0,-204,70c0,0,-76,72,-76,193c0,0,0,141,94,212c0,0,95,72,282,72H661v13c0,0,0,95,-62,147c0,0,-63,52,-175,52c0,0,-72,0,-140,-17c0,0,-68,-17,-130,-51V798c0,0,75,29,146,43c0,0,71,15,138,15c0,0,181,0,270,-95c0,0,90,-94,90,-285V0H661V127C661,127,614,51,544,15c0,0,-70,-35,-172,-35Z" 
id="f0_g"
transform="scale(0.001,-0.001)" />

<path d="M139,0V836H277V706c0,0,43,76,112,113c0,0,70,37,169,37c0,0,14,0,31,-2c0,0,17,-2,38,-6l1,-141c0,0,-23,14,-51,20c0,0,-27,6,-60,6c0,0,-116,0,-178,-75c0,0,-62,-76,-62,-218V0Z" 
id="f0_8"
transform="scale(0.001,-0.001)" />

<path d="M139,0V836H277V706c0,0,47,77,112,113c0,0,66,37,156,37c0,0,91,0,155,-47c0,0,64,-46,94,-134c0,0,52,93,123,137c0,0,72,44,169,44c0,0,130,0,201,-92c0,0,71,-91,71,-260V0H1220V500c0,0,0,120,-42,178c0,0,-43,58,-130,58c0,0,-107,0,-169,-71c0,0,-62,-70,-62,-193V0H680V500c0,0,0,121,-43,179c0,0,-42,57,-131,57c0,0,-105,0,-167,-71c0,0,-62,-71,-62,-193V0Z" 
id="f0_p"
transform="scale(0.001,-0.001)" />

<path d="M467,95c0,0,110,0,174,86c0,0,64,87,64,236c0,0,0,148,-64,235c0,0,-64,87,-174,87c0,0,-110,0,-174,-86c0,0,-64,-86,-64,-236c0,0,0,-150,64,-236c0,0,63,-86,174,-86Zm0,-115c0,0,-179,0,-281,115C186,95,84,212,84,417c0,0,0,206,102,322c0,0,102,117,281,117c0,0,179,0,282,-117c0,0,102,-116,102,-322c0,0,0,-205,-102,-322C749,95,646,-20,467,-20Z" 
id="f0_c"
transform="scale(0.001,-0.001)" />

<path d="M460,93c0,0,109,0,171,86c0,0,63,86,63,238c0,0,0,151,-63,237c0,0,-62,86,-171,86c0,0,-109,0,-172,-86c0,0,-62,-86,-62,-237c0,0,0,-152,62,-238c0,0,63,-86,172,-86ZM426,-20c0,0,-151,0,-247,119c0,0,-95,121,-95,318c0,0,0,197,95,318c0,0,96,121,247,121c0,0,93,0,159,-37c0,0,66,-36,109,-110v452H831V0H694V125C694,125,651,51,585,15c0,0,-66,-35,-159,-35Z" 
id="f0_j"
transform="scale(0.001,-0.001)" />

<path d="M359,0L46,836H191L453,134L714,836H859L546,0Z" 
id="f0_k"
transform="scale(0.001,-0.001)" />

<path d="M144,0V1161H281V0Z" 
id="f0_i"
transform="scale(0.001,-0.001)" />

<path d="M144,0V836H281V0Zm0,987v174H281V987Z" 
id="f0_7"
transform="scale(0.001,-0.001)" />

<path d="M163,0V190H321V0Z" 
id="f0_l"
transform="scale(0.001,-0.001)" />

<path d="M150,0V1114H790V987H300V659H742V532H300V0Z" 
id="f0_16"
transform="scale(0.001,-0.001)" />

<path d="M495,-20c0,0,-189,0,-300,117C195,97,84,216,84,417c0,0,0,204,112,321c0,0,113,118,308,118c0,0,64,0,124,-14c0,0,60,-13,117,-39V675c0,0,-58,32,-117,48c0,0,-58,16,-118,16c0,0,-133,0,-207,-84c0,0,-74,-85,-74,-238c0,0,0,-153,74,-238c0,0,74,-84,207,-84c0,0,60,0,118,16c0,0,59,16,117,48V32C745,32,688,5,626,-7c0,0,-61,-13,-131,-13Z" 
id="f0_o"
transform="scale(0.001,-0.001)" />

<path d="M460,115c0,0,111,0,173,82c0,0,61,82,61,230c0,0,0,149,-61,231c0,0,-62,82,-173,82c0,0,-111,0,-173,-82c0,0,-61,-82,-61,-231c0,0,0,-148,61,-230c0,0,62,-82,173,-82ZM446,-317c0,0,-72,0,-137,11c0,0,-64,11,-124,33v134c0,0,60,-33,119,-49c0,0,59,-15,121,-15c0,0,135,0,202,70c0,0,67,71,67,212v68C694,147,652,73,585,36C585,36,519,0,426,0C426,0,272,0,178,117c0,0,-94,117,-94,310c0,0,0,194,94,311c0,0,94,118,248,118c0,0,93,0,159,-37c0,0,67,-36,109,-110V836H831V104c0,0,0,-212,-95,-317c0,0,-94,-104,-290,-104Z" 
id="f0_f"
transform="scale(0.001,-0.001)" />

<path d="M117,-176L179,62V190H336V62L213,-176Z" 
id="f0_q"
transform="scale(0.001,-0.001)" />

<path d="M510,93c0,0,109,0,171,86c0,0,62,86,62,238c0,0,0,151,-62,237c0,0,-62,86,-171,86c0,0,-109,0,-171,-86c0,0,-62,-86,-62,-237c0,0,0,-152,62,-238c0,0,62,-86,171,-86ZM544,-20c0,0,-92,0,-158,35c0,0,-66,36,-109,110V0H139V1161H277V709c0,0,43,74,109,110c0,0,66,37,158,37c0,0,152,0,247,-121c0,0,95,-121,95,-318c0,0,0,-197,-95,-318C791,99,696,-20,544,-20Z" 
id="f0_n"
transform="scale(0.001,-0.001)" />

<path d="M424,-20c0,0,-145,0,-219,88c0,0,-75,89,-75,262V836H267V335c0,0,0,-119,46,-178c0,0,47,-59,139,-59c0,0,112,0,177,71c0,0,64,71,64,193V836H830V0H693V128C693,128,643,52,577,15c0,0,-66,-35,-153,-35Z" 
id="f0_r"
transform="scale(0.001,-0.001)" />

<path d="M460,93c0,0,109,0,171,86c0,0,63,86,63,238c0,0,0,151,-63,237c0,0,-62,86,-171,86c0,0,-109,0,-172,-86c0,0,-62,-86,-62,-237c0,0,0,-152,62,-238c0,0,63,-86,172,-86ZM694,-317V125C694,125,651,51,585,15c0,0,-66,-35,-159,-35c0,0,-151,0,-247,119c0,0,-95,121,-95,318c0,0,0,197,95,318c0,0,96,121,247,121c0,0,93,0,159,-37c0,0,66,-36,109,-110V836H831V-317Z" 
id="f0_17"
transform="scale(0.001,-0.001)" />

<path d="M121,-317v116h81c0,0,57,0,88,26c0,0,31,27,69,127l25,62L46,836H191L453,182L714,836H859L492,-76c0,0,-58,-150,-113,-195c0,0,-55,-46,-148,-46Z" 
id="f0_t"
transform="scale(0.001,-0.001)" />

<path d="M150,0V1114H353L846,182v932H992V0H789L296,932V0Z" 
id="f0_m"
transform="scale(0.001,-0.001)" />

<path d="M-26,-317v117H9c0,0,78,0,106,36c0,0,29,36,29,150V836H281V-14c0,0,0,-160,-61,-231c0,0,-61,-72,-195,-72ZM144,987v174H281V987Z" 
id="f0_19"
transform="scale(0.001,-0.001)" />

<path d="M74,357V479H476V357Z" 
id="f0_1n"
transform="scale(0.001,-0.001)" />

<path d="M139,0V1161H277V475L686,836H861L418,445L880,0H701L277,408V0Z" 
id="f0_10"
transform="scale(0.001,-0.001)" />

<path d="M46,0L444,595L97,1114H259L536,700l278,414H976L618,579L999,0H837L524,474L209,0Z" 
id="f0_1o"
transform="scale(0.001,-0.001)" />

<path d="M437,0L12,1114H169L522,176l354,938h157L608,0Z" 
id="f0_1z"
transform="scale(0.001,-0.001)" />

<path d="M630,-20c0,0,-253,0,-398,153C232,133,86,288,86,556c0,0,0,269,146,423c0,0,145,155,398,155c0,0,100,0,189,-26c0,0,88,-27,166,-79V869c0,0,-76,71,-163,106c0,0,-86,35,-183,35c0,0,-191,0,-292,-117C347,893,245,777,245,556c0,0,0,-220,102,-337c0,0,101,-116,292,-116c0,0,97,0,183,35c0,0,87,35,163,105V86C985,86,906,32,817,5c0,0,-88,-25,-187,-25Z" 
id="f0_18"
transform="scale(0.001,-0.001)" />

<path d="M489,572c0,0,105,0,163,54c0,0,57,55,57,155c0,0,0,100,-57,154c0,0,-58,55,-163,55H300V572ZM150,0V1114H489c0,0,188,0,283,-85c0,0,96,-85,96,-248c0,0,0,-165,-96,-249c0,0,-95,-84,-283,-84H300V0Z" 
id="f0_1p"
transform="scale(0.001,-0.001)" />

<path d="M458,-20c0,0,-79,0,-168,17c0,0,-89,17,-184,52V204c0,0,91,-51,179,-77c0,0,88,-26,173,-26c0,0,129,0,199,50c0,0,70,51,70,145c0,0,0,82,-50,129c0,0,-50,46,-165,69l-92,18c0,0,-169,34,-244,105c0,0,-75,72,-75,199c0,0,0,148,104,233c0,0,104,85,287,85c0,0,78,0,159,-14c0,0,81,-14,166,-42V931c0,0,-85,41,-161,61c0,0,-76,20,-147,20c0,0,-123,0,-190,-48c0,0,-67,-48,-67,-136c0,0,0,-73,45,-111c0,0,44,-38,168,-61l91,-19c0,0,168,-32,249,-113c0,0,80,-81,80,-216c0,0,0,-162,-109,-246c0,0,-108,-82,-318,-82Z" 
id="f0_e"
transform="scale(0.001,-0.001)" />

<path d="M596,196c0,0,86,0,130,36c0,0,44,37,44,110c0,0,0,73,-44,109c0,0,-43,36,-130,36H427V196ZM586,683c0,0,68,0,103,29c0,0,35,30,35,88c0,0,0,58,-35,88c0,0,-35,30,-103,30H427V683ZM140,0V1114H571c0,0,232,0,336,-70c0,0,104,-71,104,-225c0,0,0,-81,-38,-138c0,0,-38,-57,-110,-85c0,0,92,-27,143,-99c0,0,51,-73,51,-178c0,0,0,-161,-109,-240C948,79,839,0,616,0Z" 
id="f1_z"
transform="scale(0.001,-0.001)" />

<path d="M415,-20c0,0,-144,0,-220,87c0,0,-76,89,-76,259V836H388V752c0,0,0,-67,-1,-170c0,0,0,-103,0,-137c0,0,0,-101,5,-145c0,0,5,-44,18,-65c0,0,16,-26,43,-40c0,0,26,-14,60,-14c0,0,84,0,132,64c0,0,47,64,47,178V836H959V0H692V121C692,121,632,48,564,13c0,0,-67,-33,-149,-33Z" 
id="f1_g"
transform="scale(0.001,-0.001)" />

<path d="M128,0V836H395V0Zm0,944v217H395V944Z" 
id="f1_5"
transform="scale(0.001,-0.001)" />

<path d="M128,0V1161H395V0Z" 
id="f1_j"
transform="scale(0.001,-0.001)" />

<path d="M520,172c0,0,86,0,131,63c0,0,45,63,45,182c0,0,0,119,-45,182c0,0,-45,63,-131,63c0,0,-85,0,-130,-63c0,0,-45,-63,-45,-182c0,0,0,-119,45,-182c0,0,45,-63,130,-63ZM421,-20c0,0,-154,0,-253,121C168,101,68,224,68,417c0,0,0,193,100,316c0,0,99,123,253,123c0,0,87,0,153,-35c0,0,67,-35,122,-108v448H965V0H696V121C696,121,641,47,575,13c0,0,-67,-33,-154,-33Z" 
id="f1_c"
transform="scale(0.001,-0.001)" />

<path d="M545,-20c0,0,-106,0,-212,20C333,0,226,19,119,58V301c0,0,107,-57,207,-85c0,0,99,-29,192,-29c0,0,94,0,144,31c0,0,50,31,50,90c0,0,0,52,-34,80c0,0,-34,29,-136,51L431,464c0,0,-167,35,-244,114c0,0,-77,78,-77,211c0,0,0,166,107,256c0,0,107,89,309,89c0,0,92,0,189,-14c0,0,97,-13,200,-41V843c0,0,-92,41,-179,62c0,0,-87,21,-165,21c0,0,-103,0,-152,-28c0,0,-49,-29,-49,-88c0,0,0,-45,33,-70c0,0,33,-25,121,-43L646,672c0,0,186,-37,264,-113c0,0,79,-76,79,-216c0,0,0,-185,-110,-275c0,0,-109,-88,-334,-88Z" 
id="f1_9"
transform="scale(0.001,-0.001)" />

<path d="M687,509c0,0,0,76,-44,122c0,0,-44,47,-116,47c0,0,-78,0,-126,-44c0,0,-49,-43,-61,-125ZM544,-20c0,0,-227,0,-353,114C191,94,66,209,66,417c0,0,0,204,123,321c0,0,123,118,340,118c0,0,197,0,315,-119c0,0,118,-118,118,-317V344H337c0,0,10,-94,68,-141c0,0,59,-47,163,-47c0,0,85,0,173,25c0,0,89,25,182,76V51C923,51,828,15,733,-2c0,0,-94,-18,-189,-18Z" 
id="f1_3"
transform="scale(0.001,-0.001)" />

<path d="M443,0C443,0,285,0,219,66c0,0,-66,66,-66,224V645H20V836H153v237H419V836H695V645H419V290c0,0,0,-58,24,-79c0,0,23,-20,91,-20H672V0Z" 
id="f1_4"
transform="scale(0.001,-0.001)" />

<path d="M128,0V836H395V713c0,0,60,73,128,108c0,0,68,35,150,35c0,0,145,0,220,-89c0,0,75,-89,75,-258V0H699V389c0,0,0,109,-5,150c0,0,-5,41,-16,60c0,0,-16,26,-43,41c0,0,-27,14,-61,14c0,0,-84,0,-131,-64c0,0,-48,-65,-48,-179V0Z" 
id="f1_6"
transform="scale(0.001,-0.001)" />

<path d="M520,194c0,0,84,0,130,61c0,0,46,61,46,172c0,0,0,112,-46,174c0,0,-46,61,-130,61c0,0,-82,0,-129,-61c0,0,-46,-62,-46,-174c0,0,0,-115,45,-174c0,0,45,-59,130,-59ZM469,-328c0,0,-78,0,-151,12c0,0,-73,12,-147,36V-71c0,0,70,-41,137,-61c0,0,67,-20,135,-20c0,0,131,0,192,58c0,0,61,57,61,178v58C696,142,641,69,575,34C575,34,508,0,421,0C421,0,268,0,168,121C168,121,68,241,68,428c0,0,0,187,100,307c0,0,100,120,253,120c0,0,87,0,154,-35c0,0,66,-34,121,-108V836H965V84c0,0,0,-200,-127,-306c0,0,-127,-106,-369,-106Z" 
id="f1_7"
transform="scale(0.001,-0.001)" />

<path d="M445,-20c0,0,-83,0,-171,12C274,-8,185,4,92,30V234c0,0,80,-39,164,-58c0,0,84,-20,170,-20c0,0,79,0,118,22c0,0,40,22,40,64c0,0,0,36,-28,53c0,0,-27,18,-108,27l-47,6c0,0,-179,23,-250,83c0,0,-72,61,-72,184c0,0,0,132,91,196c0,0,91,65,279,65c0,0,74,0,155,-12c0,0,82,-11,177,-34V606c0,0,-86,36,-165,54c0,0,-80,18,-151,18c0,0,-76,0,-113,-19c0,0,-37,-19,-37,-59c0,0,0,-32,28,-49c0,0,28,-17,100,-25l47,-7c0,0,205,-26,276,-86c0,0,71,-59,71,-187c0,0,0,-133,-98,-200c0,0,-99,-66,-294,-66Z" 
id="f1_v"
transform="scale(0.001,-0.001)" />

<path d="M744,410L592,853L439,410ZM8,0L420,1114H763L1175,0H887L816,203H367L297,0Z" 
id="f1_d"
transform="scale(0.001,-0.001)" />

<path d="M680,-20c0,0,-278,0,-441,154C239,134,76,290,76,556c0,0,0,267,163,423c0,0,163,155,441,155c0,0,93,0,179,-21c0,0,86,-21,165,-62V820c0,0,-80,55,-158,81c0,0,-77,25,-163,25c0,0,-154,0,-241,-98c0,0,-88,-99,-88,-272c0,0,0,-172,87,-271c0,0,88,-98,242,-98c0,0,86,0,163,25c0,0,78,26,158,80V61C1024,61,945,20,859,0c0,0,-86,-20,-179,-20Z" 
id="f1_h"
transform="scale(0.001,-0.001)" />

<path d="M526,169c0,0,87,0,133,64c0,0,46,64,46,184c0,0,0,120,-46,184c0,0,-46,64,-133,64c0,0,-89,0,-135,-64c0,0,-47,-64,-47,-184c0,0,0,-120,47,-184c0,0,46,-64,135,-64Zm0,-189c0,0,-217,0,-339,115C187,95,66,211,66,417c0,0,0,206,121,322c0,0,122,117,339,117c0,0,215,0,336,-117c0,0,122,-116,122,-322c0,0,0,-206,-122,-322C862,95,741,-20,526,-20Z" 
id="f1_f"
transform="scale(0.001,-0.001)" />

<path d="M127,0V836H396V713c0,0,49,71,113,107c0,0,64,36,141,36c0,0,86,0,152,-42c0,0,67,-42,101,-118c0,0,51,78,121,119c0,0,69,41,153,41c0,0,144,0,219,-89c0,0,76,-89,76,-258V0H1203V436c0,0,0,9,1,20c0,0,0,10,0,30c0,0,0,88,-26,128c0,0,-26,40,-84,40c0,0,-76,0,-117,-63c0,0,-42,-62,-43,-181V0H665V436c0,0,0,138,-24,178c0,0,-24,40,-85,40c0,0,-77,0,-118,-63c0,0,-42,-63,-42,-180V0Z" 
id="f1_r"
transform="scale(0.001,-0.001)" />

<path d="M463,156c0,0,75,0,127,54c0,0,51,54,51,135v30H502c0,0,-83,0,-125,-28c0,0,-43,-28,-43,-83c0,0,0,-50,34,-79c0,0,34,-29,95,-29ZM357,-20c0,0,-130,0,-211,74c0,0,-80,76,-80,197c0,0,0,147,101,215c0,0,101,69,317,69H641v21c0,0,0,63,-50,92c0,0,-49,30,-155,30c0,0,-86,0,-160,-17c0,0,-74,-18,-137,-52V813c0,0,86,21,172,32c0,0,86,11,173,11c0,0,226,0,326,-90c0,0,100,-89,100,-290V0H641V124C641,124,588,48,521,13c0,0,-68,-33,-164,-33Z" 
id="f1_a"
transform="scale(0.001,-0.001)" />

<path d="M547,-20c0,0,-226,0,-354,114C193,94,66,210,66,417c0,0,0,207,127,323c0,0,128,116,354,116c0,0,66,0,129,-12c0,0,64,-11,128,-34V592c0,0,-55,37,-110,55c0,0,-54,18,-113,18c0,0,-112,0,-175,-65c0,0,-62,-66,-62,-183c0,0,0,-117,62,-183c0,0,63,-65,175,-65c0,0,62,0,119,19c0,0,56,19,104,55V24C804,24,741,1,676,-9c0,0,-64,-11,-129,-11Z" 
id="f1_e"
transform="scale(0.001,-0.001)" />

<path d="M586,595c0,0,84,0,129,40c0,0,46,41,46,115c0,0,0,75,-46,115c0,0,-45,40,-129,40H427V595ZM140,0V1114H617c0,0,212,0,326,-95c0,0,114,-94,114,-269c0,0,0,-175,-114,-269c0,0,-114,-95,-326,-95H427V0Z" 
id="f1_u"
transform="scale(0.001,-0.001)" />

<path d="M128,0V836H395V698c0,0,52,82,118,120c0,0,67,38,161,38c0,0,13,0,29,-2c0,0,15,-1,45,-4l1,-242c0,0,-35,17,-70,25c0,0,-35,7,-70,7c0,0,-103,0,-158,-66c0,0,-56,-66,-56,-189V0Z" 
id="f1_b"
transform="scale(0.001,-0.001)" />

<path d="M352,0L23,836H291L499,258L706,836H974L645,0Z" 
id="f1_t"
transform="scale(0.001,-0.001)" />

<path d="M162,0V645H29V836H162v58c0,0,0,136,76,201c0,0,76,66,236,66H679V986H531c0,0,-57,0,-79,-21c0,0,-23,-20,-23,-71V836H657V645H429V0Z" 
id="f1_o"
transform="scale(0.001,-0.001)" />

<path d="M391,0V530L-2,1114H159L468,656l307,458H937L543,530V0Z" 
id="f0_x"
transform="scale(0.001,-0.001)" />

<path d="M179,0V190H336V0Zm0,600V790H336V600Z" 
id="f0_12"
transform="scale(0.001,-0.001)" />


</defs>
</svg>