<?xml version="1.0" encoding="UTF-8" standalone="no"?>
<!DOCTYPE svg PUBLIC "-//W3C//DTD SVG 1.1//EN"
"http://www.w3.org/Graphics/SVG/1.1/DTD/svg11.dtd">
<svg viewBox="0 0 909 1286" version="1.1" xmlns="http://www.w3.org/2000/svg" xmlns:xlink="http://www.w3.org/1999/xlink">
<defs>
<clipPath id="c0_28"><path d="M0,1286.2V.2H909.3v1286Z" /></clipPath>
</defs>
<g clip-path="url(#c0_28)">
<g fill="#000000" >
<use xlink:href="#f0_x" transform="matrix(12,0,0,12,86.8,712.6)" />
<use xlink:href="#f0_c" transform="matrix(12,0,0,12,95.6,712.6)" />
<use xlink:href="#f0_r" transform="matrix(12,0,0,12,106.8,712.6)" />
<use xlink:href="#f0_y" transform="matrix(12,0,0,12,124.2,712.6)" />
<use xlink:href="#f0_7" transform="matrix(12,0,0,12,139.2,712.6)" />
<use xlink:href="#f0_i" transform="matrix(12,0,0,12,144.3,712.6)" />
<use xlink:href="#f0_i" transform="matrix(12,0,0,12,149.4,712.6)" />
<use xlink:href="#f0_h" transform="matrix(12,0,0,12,160.4,712.6)" />
<use xlink:href="#f0_c" transform="matrix(12,0,0,12,172,712.6)" />
<use xlink:href="#f0_y" transform="matrix(12,0,0,12,183.1,712.6)" />
<use xlink:href="#f0_9" transform="matrix(12,0,0,12,204,712.6)" />
<use xlink:href="#f0_4" transform="matrix(12,0,0,12,213.5,712.6)" />
<use xlink:href="#f0_4" transform="matrix(12,0,0,12,224.8,712.6)" />
<use xlink:href="#f0_g" transform="matrix(12,0,0,12,241.9,712.6)" />
<use xlink:href="#f0_9" transform="matrix(12,0,0,12,259,712.6)" />
<use xlink:href="#f0_o" transform="matrix(12,0,0,12,268.5,712.6)" />
<use xlink:href="#f0_8" transform="matrix(12,0,0,12,278.5,712.6)" />
<use xlink:href="#f0_4" transform="matrix(12,0,0,12,285.6,712.6)" />
<use xlink:href="#f0_4" transform="matrix(12,0,0,12,296.9,712.6)" />
<use xlink:href="#f0_h" transform="matrix(12,0,0,12,308.2,712.6)" />
<use xlink:href="#f0_a" transform="matrix(12,0,0,12,325.7,712.6)" />
<use xlink:href="#f0_3" transform="matrix(12,0,0,12,332.9,712.6)" />
<use xlink:href="#f0_g" transform="matrix(12,0,0,12,344.3,712.6)" />
<use xlink:href="#f0_a" transform="matrix(12,0,0,12,355.6,712.6)" />
<use xlink:href="#f0_9" transform="matrix(12,0,0,12,368.8,712.6)" />
<use xlink:href="#f0_g" transform="matrix(12,0,0,12,378.2,712.6)" />
<use xlink:href="#f0_t" transform="matrix(12,0,0,12,389.5,712.6)" />
<use xlink:href="#f0_9" transform="matrix(12,0,0,12,400.2,712.6)" />
<use xlink:href="#f0_t" transform="matrix(12,0,0,12,415.6,712.6)" />
<use xlink:href="#f0_c" transform="matrix(12,0,0,12,426.5,712.6)" />
<use xlink:href="#f0_r" transform="matrix(12,0,0,12,437.6,712.6)" />
<use xlink:href="#f0_8" transform="matrix(12,0,0,12,449.4,712.6)" />
<use xlink:href="#f0_o" transform="matrix(12,0,0,12,462.7,712.6)" />
<use xlink:href="#f0_4" transform="matrix(12,0,0,12,472.7,712.6)" />
<use xlink:href="#f0_8" transform="matrix(12,0,0,12,484,712.6)" />
<use xlink:href="#f0_a" transform="matrix(12,0,0,12,491.5,712.6)" />
<use xlink:href="#f0_7" transform="matrix(12,0,0,12,498.7,712.6)" />
<use xlink:href="#f0_6" transform="matrix(12,0,0,12,503.9,712.6)" />
<use xlink:href="#f0_7" transform="matrix(12,0,0,12,510.3,712.6)" />
<use xlink:href="#f0_o" transform="matrix(12,0,0,12,515.3,712.6)" />
<use xlink:href="#f0_g" transform="matrix(12,0,0,12,525.4,712.6)" />
<use xlink:href="#f0_a" transform="matrix(12,0,0,12,536.7,712.6)" />
<use xlink:href="#f0_4" transform="matrix(12,0,0,12,543.9,712.6)" />
<use xlink:href="#f0_7" transform="matrix(12,0,0,12,561,712.6)" />
<use xlink:href="#f0_9" transform="matrix(12,0,0,12,566,712.6)" />
<use xlink:href="#f0_8" transform="matrix(12,0,0,12,581.4,712.6)" />
<use xlink:href="#f0_4" transform="matrix(12,0,0,12,588.5,712.6)" />
<use xlink:href="#f0_g" transform="matrix(12,0,0,12,599.7,712.6)" />
<use xlink:href="#f0_j" transform="matrix(12,0,0,12,611,712.6)" />
<use xlink:href="#f0_t" transform="matrix(12,0,0,12,622.6,712.6)" />
<use xlink:href="#f0_l" transform="matrix(12,0,0,12,630.9,712.6)" />
<use xlink:href="#f0_18" transform="matrix(12,0,0,12,642.5,712.6)" />
<use xlink:href="#f0_i" transform="matrix(12,0,0,12,655.3,712.6)" />
<use xlink:href="#f0_7" transform="matrix(12,0,0,12,660.4,712.6)" />
<use xlink:href="#f0_o" transform="matrix(12,0,0,12,665.4,712.6)" />
<use xlink:href="#f0_10" transform="matrix(12,0,0,12,675.5,712.6)" />
</g>
<g fill="#0000FF" >
<use xlink:href="#f1_l" transform="matrix(12,0,0,12,692.4,712.6)" />
<use xlink:href="#f1_f" transform="matrix(12,0,0,12,707.6,712.6)" />
<use xlink:href="#f1_11" transform="matrix(12,0,0,12,720.2,712.6)" />
<use xlink:href="#f1_6" transform="matrix(12,0,0,12,737.1,712.6)" />
<use xlink:href="#f1_j" transform="matrix(12,0,0,12,750.1,712.6)" />
<use xlink:href="#f1_f" transform="matrix(12,0,0,12,756.5,712.6)" />
<use xlink:href="#f1_a" transform="matrix(12,0,0,12,769,712.6)" />
<use xlink:href="#f1_c" transform="matrix(12,0,0,12,781.4,712.6)" />
</g>
<g fill="#000000" >
<use xlink:href="#f0_q" transform="matrix(12,0,0,12,794.6,712.6)" />
<use xlink:href="#f0_g" transform="matrix(12,0,0,12,86.8,741.1)" />
<use xlink:href="#f0_h" transform="matrix(12,0,0,12,98.1,741.1)" />
<use xlink:href="#f0_j" transform="matrix(12,0,0,12,109.7,741.1)" />
<use xlink:href="#f0_j" transform="matrix(12,0,0,12,127.1,741.1)" />
<use xlink:href="#f0_c" transform="matrix(12,0,0,12,138.7,741.1)" />
<use xlink:href="#f0_r" transform="matrix(12,0,0,12,149.8,741.1)" />
<use xlink:href="#f0_n" transform="matrix(12,0,0,12,161.6,741.1)" />
<use xlink:href="#f0_i" transform="matrix(12,0,0,12,173.2,741.1)" />
<use xlink:href="#f0_4" transform="matrix(12,0,0,12,178.2,741.1)" />
<use xlink:href="#f0_o" transform="matrix(12,0,0,12,195.3,741.1)" />
<use xlink:href="#f0_i" transform="matrix(12,0,0,12,205.4,741.1)" />
<use xlink:href="#f0_7" transform="matrix(12,0,0,12,210.6,741.1)" />
<use xlink:href="#f0_o" transform="matrix(12,0,0,12,215.6,741.1)" />
<use xlink:href="#f0_10" transform="matrix(12,0,0,12,225.7,741.1)" />
<use xlink:href="#f0_a" transform="matrix(12,0,0,12,242.2,741.1)" />
<use xlink:href="#f0_3" transform="matrix(12,0,0,12,249.4,741.1)" />
<use xlink:href="#f0_4" transform="matrix(12,0,0,12,261,741.1)" />
<use xlink:href="#f0_j" transform="matrix(12,0,0,12,278.1,741.1)" />
<use xlink:href="#f0_4" transform="matrix(12,0,0,12,289.7,741.1)" />
<use xlink:href="#f0_k" transform="matrix(12,0,0,12,301,741.1)" />
<use xlink:href="#f0_4" transform="matrix(12,0,0,12,311.8,741.1)" />
<use xlink:href="#f0_i" transform="matrix(12,0,0,12,323.1,741.1)" />
<use xlink:href="#f0_c" transform="matrix(12,0,0,12,328.1,741.1)" />
<use xlink:href="#f0_b" transform="matrix(12,0,0,12,339.3,741.1)" />
<use xlink:href="#f0_p" transform="matrix(12,0,0,12,350.9,741.1)" />
<use xlink:href="#f0_4" transform="matrix(12,0,0,12,368.7,741.1)" />
<use xlink:href="#f0_h" transform="matrix(12,0,0,12,380,741.1)" />
<use xlink:href="#f0_a" transform="matrix(12,0,0,12,391.6,741.1)" />
<use xlink:href="#f0_o" transform="matrix(12,0,0,12,404.8,741.1)" />
<use xlink:href="#f0_4" transform="matrix(12,0,0,12,414.8,741.1)" />
<use xlink:href="#f0_8" transform="matrix(12,0,0,12,426.1,741.1)" />
<use xlink:href="#f0_a" transform="matrix(12,0,0,12,433.6,741.1)" />
<use xlink:href="#f0_7" transform="matrix(12,0,0,12,440.8,741.1)" />
<use xlink:href="#f0_6" transform="matrix(12,0,0,12,445.8,741.1)" />
<use xlink:href="#f0_7" transform="matrix(12,0,0,12,452.3,741.1)" />
<use xlink:href="#f0_o" transform="matrix(12,0,0,12,457.3,741.1)" />
<use xlink:href="#f0_g" transform="matrix(12,0,0,12,467.4,741.1)" />
<use xlink:href="#f0_a" transform="matrix(12,0,0,12,478.7,741.1)" />
<use xlink:href="#f0_4" transform="matrix(12,0,0,12,485.8,741.1)" />
<use xlink:href="#f0_6" transform="matrix(12,0,0,12,502.9,741.1)" />
<use xlink:href="#f0_7" transform="matrix(12,0,0,12,509.5,741.1)" />
<use xlink:href="#f0_i" transform="matrix(12,0,0,12,514.5,741.1)" />
<use xlink:href="#f0_4" transform="matrix(12,0,0,12,519.6,741.1)" />
<use xlink:href="#f0_a" transform="matrix(12,0,0,12,536.7,741.1)" />
<use xlink:href="#f0_c" transform="matrix(12,0,0,12,543.9,741.1)" />
<use xlink:href="#f0_7" transform="matrix(12,0,0,12,561,741.1)" />
<use xlink:href="#f0_h" transform="matrix(12,0,0,12,566,741.1)" />
<use xlink:href="#f0_9" transform="matrix(12,0,0,12,577.6,741.1)" />
<use xlink:href="#f0_a" transform="matrix(12,0,0,12,587.2,741.1)" />
<use xlink:href="#f0_g" transform="matrix(12,0,0,12,594.4,741.1)" />
<use xlink:href="#f0_i" transform="matrix(12,0,0,12,605.7,741.1)" />
<use xlink:href="#f0_i" transform="matrix(12,0,0,12,610.7,741.1)" />
<use xlink:href="#f0_7" transform="matrix(12,0,0,12,621.6,741.1)" />
<use xlink:href="#f0_a" transform="matrix(12,0,0,12,626.6,741.1)" />
<use xlink:href="#f0_7" transform="matrix(12,0,0,12,639.8,741.1)" />
<use xlink:href="#f0_h" transform="matrix(12,0,0,12,644.8,741.1)" />
<use xlink:href="#f0_a" transform="matrix(12,0,0,12,662.4,741.1)" />
<use xlink:href="#f0_3" transform="matrix(12,0,0,12,669.5,741.1)" />
<use xlink:href="#f0_4" transform="matrix(12,0,0,12,681.1,741.1)" />
<use xlink:href="#f0_10" transform="matrix(12,0,0,12,698.2,741.1)" />
<use xlink:href="#f0_4" transform="matrix(12,0,0,12,708.2,741.1)" />
<use xlink:href="#f0_t" transform="matrix(12,0,0,12,719.5,741.1)" />
<use xlink:href="#f0_o" transform="matrix(12,0,0,12,730.3,741.1)" />
<use xlink:href="#f0_3" transform="matrix(12,0,0,12,740.4,741.1)" />
<use xlink:href="#f0_g" transform="matrix(12,0,0,12,751.8,741.1)" />
<use xlink:href="#f0_7" transform="matrix(12,0,0,12,763.1,741.1)" />
<use xlink:href="#f0_h" transform="matrix(12,0,0,12,768.2,741.1)" />
<use xlink:href="#f0_12" transform="matrix(12,0,0,12,779.9,741.1)" />
</g>
</g>
<image preserveAspectRatio="none" x="193" y="87" width="524" height="573" xlink:href="img/1.png" />
<defs>
<path d="M391,0V530L-2,1114H159L468,656l307,458H937L543,530V0Z" 
id="f0_x"
transform="scale(0.001,-0.001)" />

<path d="M467,95c0,0,110,0,174,86c0,0,64,87,64,236c0,0,0,148,-64,235c0,0,-64,87,-174,87c0,0,-110,0,-174,-86c0,0,-64,-86,-64,-236c0,0,0,-150,64,-236c0,0,63,-86,174,-86Zm0,-115c0,0,-179,0,-281,115C186,95,84,212,84,417c0,0,0,206,102,322c0,0,102,117,281,117c0,0,179,0,282,-117c0,0,102,-116,102,-322c0,0,0,-205,-102,-322C749,95,646,-20,467,-20Z" 
id="f0_c"
transform="scale(0.001,-0.001)" />

<path d="M424,-20c0,0,-145,0,-219,88c0,0,-75,89,-75,262V836H267V335c0,0,0,-119,46,-178c0,0,47,-59,139,-59c0,0,112,0,177,71c0,0,64,71,64,193V836H830V0H693V128C693,128,643,52,577,15c0,0,-66,-35,-153,-35Z" 
id="f0_r"
transform="scale(0.001,-0.001)" />

<path d="M283,0L65,836H202L373,184L544,836H706L878,184l171,652h137L967,0H806L626,685L445,0Z" 
id="f0_y"
transform="scale(0.001,-0.001)" />

<path d="M144,0V836H281V0Zm0,987v174H281V987Z" 
id="f0_7"
transform="scale(0.001,-0.001)" />

<path d="M144,0V1161H281V0Z" 
id="f0_i"
transform="scale(0.001,-0.001)" />

<path d="M139,0V836H277V706c0,0,49,75,116,112c0,0,67,38,154,38c0,0,144,0,218,-90c0,0,74,-89,74,-262V0H702V500c0,0,0,119,-46,177c0,0,-47,59,-139,59c0,0,-112,0,-176,-71c0,0,-64,-70,-64,-193V0Z" 
id="f0_h"
transform="scale(0.001,-0.001)" />

<path d="M376,-20c0,0,-67,0,-140,12C236,-8,164,4,83,30V172c0,0,76,-40,150,-59c0,0,74,-20,146,-20c0,0,97,0,150,33c0,0,52,33,52,94c0,0,0,56,-38,85c0,0,-38,30,-165,58l-48,11c0,0,-128,27,-184,83c0,0,-57,55,-57,152c0,0,0,118,83,182c0,0,84,65,238,65c0,0,76,0,143,-12c0,0,67,-11,124,-33V681c0,0,-58,29,-121,44c0,0,-63,15,-130,15c0,0,-102,0,-153,-31c0,0,-51,-31,-51,-94c0,0,0,-48,37,-75c0,0,36,-27,147,-52l46,-10c0,0,147,-32,208,-89c0,0,62,-57,62,-159c0,0,0,-116,-93,-184c0,0,-92,-66,-253,-66Z" 
id="f0_9"
transform="scale(0.001,-0.001)" />

<path d="M231,492l491,1c0,0,-2,112,-64,179c0,0,-61,67,-163,67c0,0,-115,0,-184,-65c0,0,-69,-64,-80,-182ZM517,-20c0,0,-199,0,-316,115C201,95,84,211,84,410c0,0,0,205,111,325c0,0,111,121,299,121c0,0,168,0,266,-109c0,0,98,-108,98,-295V385H227c0,0,9,-142,85,-216c0,0,77,-74,213,-74c0,0,80,0,154,19c0,0,74,19,147,58V42C826,42,752,11,675,-4c0,0,-78,-16,-158,-16Z" 
id="f0_4"
transform="scale(0.001,-0.001)" />

<path d="M408,93c0,0,115,0,184,81c0,0,69,81,69,215v30H524c0,0,-167,0,-231,-38c0,0,-64,-38,-64,-129c0,0,0,-73,48,-116c0,0,48,-43,131,-43ZM372,-20c0,0,-128,0,-204,70c0,0,-76,72,-76,193c0,0,0,141,94,212c0,0,95,72,282,72H661v13c0,0,0,95,-62,147c0,0,-63,52,-175,52c0,0,-72,0,-140,-17c0,0,-68,-17,-130,-51V798c0,0,75,29,146,43c0,0,71,15,138,15c0,0,181,0,270,-95c0,0,90,-94,90,-285V0H661V127C661,127,614,51,544,15c0,0,-70,-35,-172,-35Z" 
id="f0_g"
transform="scale(0.001,-0.001)" />

<path d="M495,-20c0,0,-189,0,-300,117C195,97,84,216,84,417c0,0,0,204,112,321c0,0,113,118,308,118c0,0,64,0,124,-14c0,0,60,-13,117,-39V675c0,0,-58,32,-117,48c0,0,-58,16,-118,16c0,0,-133,0,-207,-84c0,0,-74,-85,-74,-238c0,0,0,-153,74,-238c0,0,74,-84,207,-84c0,0,60,0,118,16c0,0,59,16,117,48V32C745,32,688,5,626,-7c0,0,-61,-13,-131,-13Z" 
id="f0_o"
transform="scale(0.001,-0.001)" />

<path d="M139,0V836H277V706c0,0,43,76,112,113c0,0,70,37,169,37c0,0,14,0,31,-2c0,0,17,-2,38,-6l1,-141c0,0,-23,14,-51,20c0,0,-27,6,-60,6c0,0,-116,0,-178,-75c0,0,-62,-76,-62,-218V0Z" 
id="f0_8"
transform="scale(0.001,-0.001)" />

<path d="M421,0C421,0,263,0,202,59c0,0,-60,60,-60,217V729H41V836H142v238H280V836H562V729H280V276c0,0,0,-102,28,-132c0,0,28,-29,113,-29H562V0Z" 
id="f0_a"
transform="scale(0.001,-0.001)" />

<path d="M139,0V1161H277V706c0,0,49,75,116,112c0,0,67,38,154,38c0,0,144,0,218,-90c0,0,74,-89,74,-262V0H702V500c0,0,0,119,-46,177c0,0,-47,59,-139,59c0,0,-112,0,-176,-71c0,0,-64,-70,-64,-193V0Z" 
id="f0_3"
transform="scale(0.001,-0.001)" />

<path d="M121,-317v116h81c0,0,57,0,88,26c0,0,31,27,69,127l25,62L46,836H191L453,182L714,836H859L492,-76c0,0,-58,-150,-113,-195c0,0,-55,-46,-148,-46Z" 
id="f0_t"
transform="scale(0.001,-0.001)" />

<path d="M166,0V729H35V836H166v58c0,0,0,139,65,203c0,0,65,64,206,64H567V1046H435c0,0,-74,0,-102,-29c0,0,-29,-30,-29,-107V836H530V729H304V0Z" 
id="f0_6"
transform="scale(0.001,-0.001)" />

<path d="M460,93c0,0,109,0,171,86c0,0,63,86,63,238c0,0,0,151,-63,237c0,0,-62,86,-171,86c0,0,-109,0,-172,-86c0,0,-62,-86,-62,-237c0,0,0,-152,62,-238c0,0,63,-86,172,-86ZM426,-20c0,0,-151,0,-247,119c0,0,-95,121,-95,318c0,0,0,197,95,318c0,0,96,121,247,121c0,0,93,0,159,-37c0,0,66,-36,109,-110v452H831V0H694V125C694,125,651,51,585,15c0,0,-66,-35,-159,-35Z" 
id="f0_j"
transform="scale(0.001,-0.001)" />

<path d="M163,0V190H321V0Z" 
id="f0_l"
transform="scale(0.001,-0.001)" />

<path d="M630,-20c0,0,-253,0,-398,153C232,133,86,288,86,556c0,0,0,269,146,423c0,0,145,155,398,155c0,0,100,0,189,-26c0,0,88,-27,166,-79V869c0,0,-76,71,-163,106c0,0,-86,35,-183,35c0,0,-191,0,-292,-117C347,893,245,777,245,556c0,0,0,-220,102,-337c0,0,101,-116,292,-116c0,0,97,0,183,35c0,0,87,35,163,105V86C985,86,906,32,817,5c0,0,-88,-25,-187,-25Z" 
id="f0_18"
transform="scale(0.001,-0.001)" />

<path d="M139,0V1161H277V475L686,836H861L418,445L880,0H701L277,408V0Z" 
id="f0_10"
transform="scale(0.001,-0.001)" />

<path d="M530,217c0,0,176,0,269,87c0,0,93,88,93,254c0,0,0,166,-93,252c0,0,-92,87,-269,87H427V217ZM140,0V1114H443c0,0,253,0,378,-36c0,0,124,-37,213,-123c0,0,78,-76,116,-174c0,0,38,-98,38,-223c0,0,0,-126,-38,-225c0,0,-38,-99,-116,-174c0,0,-90,-87,-215,-123C819,36,694,0,443,0Z" 
id="f1_l"
transform="scale(0.001,-0.001)" />

<path d="M526,169c0,0,87,0,133,64c0,0,46,64,46,184c0,0,0,120,-46,184c0,0,-46,64,-133,64c0,0,-89,0,-135,-64c0,0,-47,-64,-47,-184c0,0,0,-120,47,-184c0,0,46,-64,135,-64Zm0,-189c0,0,-217,0,-339,115C187,95,66,211,66,417c0,0,0,206,121,322c0,0,122,117,339,117c0,0,215,0,336,-117c0,0,122,-116,122,-322c0,0,0,-206,-122,-322C862,95,741,-20,526,-20Z" 
id="f1_f"
transform="scale(0.001,-0.001)" />

<path d="M274,0L54,836H313L454,260L594,836H817L958,266l141,570h259L1138,0H847L706,575L565,0Z" 
id="f1_11"
transform="scale(0.001,-0.001)" />

<path d="M128,0V836H395V713c0,0,60,73,128,108c0,0,68,35,150,35c0,0,145,0,220,-89c0,0,75,-89,75,-258V0H699V389c0,0,0,109,-5,150c0,0,-5,41,-16,60c0,0,-16,26,-43,41c0,0,-27,14,-61,14c0,0,-84,0,-131,-64c0,0,-48,-65,-48,-179V0Z" 
id="f1_6"
transform="scale(0.001,-0.001)" />

<path d="M128,0V1161H395V0Z" 
id="f1_j"
transform="scale(0.001,-0.001)" />

<path d="M463,156c0,0,75,0,127,54c0,0,51,54,51,135v30H502c0,0,-83,0,-125,-28c0,0,-43,-28,-43,-83c0,0,0,-50,34,-79c0,0,34,-29,95,-29ZM357,-20c0,0,-130,0,-211,74c0,0,-80,76,-80,197c0,0,0,147,101,215c0,0,101,69,317,69H641v21c0,0,0,63,-50,92c0,0,-49,30,-155,30c0,0,-86,0,-160,-17c0,0,-74,-18,-137,-52V813c0,0,86,21,172,32c0,0,86,11,173,11c0,0,226,0,326,-90c0,0,100,-89,100,-290V0H641V124C641,124,588,48,521,13c0,0,-68,-33,-164,-33Z" 
id="f1_a"
transform="scale(0.001,-0.001)" />

<path d="M520,172c0,0,86,0,131,63c0,0,45,63,45,182c0,0,0,119,-45,182c0,0,-45,63,-131,63c0,0,-85,0,-130,-63c0,0,-45,-63,-45,-182c0,0,0,-119,45,-182c0,0,45,-63,130,-63ZM421,-20c0,0,-154,0,-253,121C168,101,68,224,68,417c0,0,0,193,100,316c0,0,99,123,253,123c0,0,87,0,153,-35c0,0,67,-35,122,-108v448H965V0H696V121C696,121,641,47,575,13c0,0,-67,-33,-154,-33Z" 
id="f1_c"
transform="scale(0.001,-0.001)" />

<path d="M117,-176L179,62V190H336V62L213,-176Z" 
id="f0_q"
transform="scale(0.001,-0.001)" />

<path d="M510,93c0,0,109,0,171,86c0,0,62,86,62,238c0,0,0,151,-62,237c0,0,-62,86,-171,86c0,0,-109,0,-171,-86c0,0,-62,-86,-62,-237c0,0,0,-152,62,-238c0,0,62,-86,171,-86ZM544,-20c0,0,-92,0,-158,35c0,0,-66,36,-109,110V0H139V1161H277V709c0,0,43,74,109,110c0,0,66,37,158,37c0,0,152,0,247,-121c0,0,95,-121,95,-318c0,0,0,-197,-95,-318C791,99,696,-20,544,-20Z" 
id="f0_n"
transform="scale(0.001,-0.001)" />

<path d="M359,0L46,836H191L453,134L714,836H859L546,0Z" 
id="f0_k"
transform="scale(0.001,-0.001)" />

<path d="M510,93c0,0,109,0,171,86c0,0,62,86,62,238c0,0,0,151,-62,237c0,0,-62,86,-171,86c0,0,-109,0,-171,-86c0,0,-62,-86,-62,-237c0,0,0,-152,62,-238c0,0,62,-86,171,-86ZM139,-317V836H277V709c0,0,43,74,109,110c0,0,66,37,158,37c0,0,152,0,247,-121c0,0,95,-121,95,-318c0,0,0,-197,-95,-318C791,99,696,-20,544,-20c0,0,-92,0,-158,35c0,0,-66,36,-109,110V-317Z" 
id="f0_b"
transform="scale(0.001,-0.001)" />

<path d="M139,0V836H277V706c0,0,47,77,112,113c0,0,66,37,156,37c0,0,91,0,155,-47c0,0,64,-46,94,-134c0,0,52,93,123,137c0,0,72,44,169,44c0,0,130,0,201,-92c0,0,71,-91,71,-260V0H1220V500c0,0,0,120,-42,178c0,0,-43,58,-130,58c0,0,-107,0,-169,-71c0,0,-62,-70,-62,-193V0H680V500c0,0,0,121,-43,179c0,0,-42,57,-131,57c0,0,-105,0,-167,-71c0,0,-62,-71,-62,-193V0Z" 
id="f0_p"
transform="scale(0.001,-0.001)" />

<path d="M179,0V190H336V0Zm0,600V790H336V600Z" 
id="f0_12"
transform="scale(0.001,-0.001)" />


</defs>
</svg>