<?xml version="1.0" encoding="UTF-8" standalone="no"?>
<!DOCTYPE svg PUBLIC "-//W3C//DTD SVG 1.1//EN"
"http://www.w3.org/Graphics/SVG/1.1/DTD/svg11.dtd">
<svg viewBox="0 0 909 1286" version="1.1" xmlns="http://www.w3.org/2000/svg" xmlns:xlink="http://www.w3.org/1999/xlink">
<defs>
<clipPath id="c0_4"><path d="M0,1286.2V.2H909.3v1286Z" /></clipPath>
</defs>
<g clip-path="url(#c0_4)">
<g fill="#000000" >
<use xlink:href="#f0_1f" transform="matrix(12,0,0,12,86.8,168.2)" />
<use xlink:href="#f0_o" transform="matrix(12,0,0,12,99.6,168.2)" />
<use xlink:href="#f0_c" transform="matrix(12,0,0,12,104.6,168.2)" />
<use xlink:href="#f0_b" transform="matrix(12,0,0,12,109.7,168.2)" />
<use xlink:href="#f0_i" transform="matrix(12,0,0,12,119.7,168.2)" />
<use xlink:href="#f0_6" transform="matrix(12,0,0,12,136.2,168.2)" />
<use xlink:href="#f0_7" transform="matrix(12,0,0,12,143.4,168.2)" />
<use xlink:href="#f0_a" transform="matrix(12,0,0,12,155,168.2)" />
</g>
<g fill="#0000FF" >
<use xlink:href="#f1_p" transform="matrix(12,0,0,12,172.3,168.2)" />
</g>
<g fill="#000000" >
<use xlink:href="#f0_c" transform="matrix(12,0,0,12,194,168.2)" />
<use xlink:href="#f0_e" transform="matrix(12,0,0,12,199.1,168.2)" />
<use xlink:href="#f0_6" transform="matrix(12,0,0,12,216.6,168.2)" />
<use xlink:href="#f0_7" transform="matrix(12,0,0,12,223.8,168.2)" />
<use xlink:href="#f0_a" transform="matrix(12,0,0,12,235.4,168.2)" />
<use xlink:href="#f0_o" transform="matrix(12,0,0,12,252.5,168.2)" />
<use xlink:href="#f0_d" transform="matrix(12,0,0,12,257.6,168.2)" />
<use xlink:href="#f0_n" transform="matrix(12,0,0,12,268.7,168.2)" />
<use xlink:href="#f0_a" transform="matrix(12,0,0,12,283.7,168.2)" />
<use xlink:href="#f0_g" transform="matrix(12,0,0,12,295.1,168.2)" />
<use xlink:href="#f0_o" transform="matrix(12,0,0,12,308.4,168.2)" />
<use xlink:href="#f0_a" transform="matrix(12,0,0,12,313.5,168.2)" />
<use xlink:href="#f0_h" transform="matrix(12,0,0,12,324.8,168.2)" />
<use xlink:href="#f0_6" transform="matrix(12,0,0,12,330.9,168.2)" />
<use xlink:href="#f0_8" transform="matrix(12,0,0,12,344,168.2)" />
<use xlink:href="#f0_e" transform="matrix(12,0,0,12,355.1,168.2)" />
<use xlink:href="#f0_f" transform="matrix(12,0,0,12,366.7,168.2)" />
<use xlink:href="#f0_9" transform="matrix(12,0,0,12,384.3,168.2)" />
<use xlink:href="#f0_a" transform="matrix(12,0,0,12,393.8,168.2)" />
<use xlink:href="#f0_o" transform="matrix(12,0,0,12,405.1,168.2)" />
<use xlink:href="#f0_a" transform="matrix(12,0,0,12,410.1,168.2)" />
<use xlink:href="#f0_b" transform="matrix(12,0,0,12,421.4,168.2)" />
<use xlink:href="#f0_6" transform="matrix(12,0,0,12,431.5,168.2)" />
</g>
<g fill="#0000FF" >
<use xlink:href="#f1_n" transform="matrix(12,0,0,12,444.7,168.2)" />
<use xlink:href="#f1_c" transform="matrix(12,0,0,12,458.9,168.2)" />
<use xlink:href="#f1_c" transform="matrix(12,0,0,12,471.9,168.2)" />
<use xlink:href="#f1_n" transform="matrix(12,0,0,12,491.4,168.2)" />
<use xlink:href="#f1_q" transform="matrix(12,0,0,12,505.6,168.2)" />
<use xlink:href="#f1_q" transform="matrix(12,0,0,12,518.7,168.2)" />
<use xlink:href="#f1_r" transform="matrix(12,0,0,12,531.9,168.2)" />
<use xlink:href="#f1_3" transform="matrix(12,0,0,12,538.1,168.2)" />
<use xlink:href="#f1_s" transform="matrix(12,0,0,12,556.9,168.2)" />
<use xlink:href="#f1_t" transform="matrix(12,0,0,12,563.8,168.2)" />
<use xlink:href="#f1_l" transform="matrix(12,0,0,12,578.9,168.2)" />
</g>
<g fill="#000000" >
<use xlink:href="#f0_1e" transform="matrix(12,0,0,12,597.4,168.2)" />
<use xlink:href="#f0_1d" transform="matrix(12,0,0,12,86.8,796.3)" />
<use xlink:href="#f0_e" transform="matrix(12,0,0,12,98.4,796.3)" />
<use xlink:href="#f0_6" transform="matrix(12,0,0,12,110,796.3)" />
<use xlink:href="#f0_a" transform="matrix(12,0,0,12,117.2,796.3)" />
<use xlink:href="#f0_g" transform="matrix(12,0,0,12,128.4,796.3)" />
<use xlink:href="#f0_p" transform="matrix(12,0,0,12,141.9,796.3)" />
<use xlink:href="#f0_d" transform="matrix(12,0,0,12,152.7,796.3)" />
<use xlink:href="#f0_k" transform="matrix(12,0,0,12,163.9,796.3)" />
<use xlink:href="#f0_g" transform="matrix(12,0,0,12,175.5,796.3)" />
<use xlink:href="#f0_f" transform="matrix(12,0,0,12,188.9,796.3)" />
<use xlink:href="#f0_a" transform="matrix(12,0,0,12,200.5,796.3)" />
<use xlink:href="#f0_t" transform="matrix(12,0,0,12,211.8,796.3)" />
<use xlink:href="#f0_a" transform="matrix(12,0,0,12,222.5,796.3)" />
<use xlink:href="#f0_o" transform="matrix(12,0,0,12,233.8,796.3)" />
<use xlink:href="#f0_d" transform="matrix(12,0,0,12,238.9,796.3)" />
<use xlink:href="#f0_s" transform="matrix(12,0,0,12,250.1,796.3)" />
<use xlink:href="#f0_a" transform="matrix(12,0,0,12,261.7,796.3)" />
<use xlink:href="#f0_g" transform="matrix(12,0,0,12,273,796.3)" />
<use xlink:href="#f0_8" transform="matrix(12,0,0,12,286.4,796.3)" />
<use xlink:href="#f0_b" transform="matrix(12,0,0,12,297.6,796.3)" />
<use xlink:href="#f0_b" transform="matrix(12,0,0,12,307.6,796.3)" />
<use xlink:href="#f0_d" transform="matrix(12,0,0,12,317.7,796.3)" />
<use xlink:href="#f0_k" transform="matrix(12,0,0,12,328.8,796.3)" />
<use xlink:href="#f0_e" transform="matrix(12,0,0,12,340.4,796.3)" />
<use xlink:href="#f0_6" transform="matrix(12,0,0,12,352,796.3)" />
<use xlink:href="#f0_b" transform="matrix(12,0,0,12,365.2,796.3)" />
<use xlink:href="#f0_g" transform="matrix(12,0,0,12,375.2,796.3)" />
<use xlink:href="#f0_a" transform="matrix(12,0,0,12,382.3,796.3)" />
<use xlink:href="#f0_f" transform="matrix(12,0,0,12,393.5,796.3)" />
<use xlink:href="#f0_a" transform="matrix(12,0,0,12,405.2,796.3)" />
<use xlink:href="#f0_e" transform="matrix(12,0,0,12,416.4,796.3)" />
<use xlink:href="#f0_6" transform="matrix(12,0,0,12,428.1,796.3)" />
<use xlink:href="#f0_c" transform="matrix(12,0,0,12,435.4,796.3)" />
<use xlink:href="#f0_8" transform="matrix(12,0,0,12,440.4,796.3)" />
<use xlink:href="#f0_o" transform="matrix(12,0,0,12,451.7,796.3)" />
<use xlink:href="#f0_9" transform="matrix(12,0,0,12,456.6,796.3)" />
<use xlink:href="#f0_8" transform="matrix(12,0,0,12,472.1,796.3)" />
<use xlink:href="#f0_e" transform="matrix(12,0,0,12,483.3,796.3)" />
<use xlink:href="#f0_f" transform="matrix(12,0,0,12,494.9,796.3)" />
<use xlink:href="#f0_b" transform="matrix(12,0,0,12,512.3,796.3)" />
<use xlink:href="#f0_o" transform="matrix(12,0,0,12,522.4,796.3)" />
<use xlink:href="#f0_c" transform="matrix(12,0,0,12,527.5,796.3)" />
<use xlink:href="#f0_b" transform="matrix(12,0,0,12,532.6,796.3)" />
<use xlink:href="#f0_i" transform="matrix(12,0,0,12,542.7,796.3)" />
</g>
<g fill="#0000FF" >
<use xlink:href="#f1_9" transform="matrix(12,0,0,12,559.6,796.3)" />
<use xlink:href="#f1_5" transform="matrix(12,0,0,12,572.8,796.3)" />
<use xlink:href="#f1_7" transform="matrix(12,0,0,12,579,796.3)" />
<use xlink:href="#f1_6" transform="matrix(12,0,0,12,592.2,796.3)" />
<use xlink:href="#f1_s" transform="matrix(12,0,0,12,611.6,796.3)" />
<use xlink:href="#f1_6" transform="matrix(12,0,0,12,618.4,796.3)" />
</g>
<g fill="#000000" >
<use xlink:href="#f0_1e" transform="matrix(12,0,0,12,631.6,796.3)" />
</g>
</g>
<image preserveAspectRatio="none" x="87" y="173" width="736" height="578" xlink:href="img/1.png" />
<defs>
<path d="M630,-20c0,0,-253,0,-398,153C232,133,86,288,86,556c0,0,0,269,146,423c0,0,145,155,398,155c0,0,100,0,189,-26c0,0,88,-27,166,-79V869c0,0,-76,71,-163,106c0,0,-86,35,-183,35c0,0,-191,0,-292,-117C347,893,245,777,245,556c0,0,0,-220,102,-337c0,0,101,-116,292,-116c0,0,97,0,183,35c0,0,87,35,163,105V86C985,86,906,32,817,5c0,0,-88,-25,-187,-25Z" 
id="f0_1f"
transform="scale(0.001,-0.001)" />

<path d="M144,0V1161H281V0Z" 
id="f0_o"
transform="scale(0.001,-0.001)" />

<path d="M144,0V836H281V0Zm0,987v174H281V987Z" 
id="f0_c"
transform="scale(0.001,-0.001)" />

<path d="M495,-20c0,0,-189,0,-300,117C195,97,84,216,84,417c0,0,0,204,112,321c0,0,113,118,308,118c0,0,64,0,124,-14c0,0,60,-13,117,-39V675c0,0,-58,32,-117,48c0,0,-58,16,-118,16c0,0,-133,0,-207,-84c0,0,-74,-85,-74,-238c0,0,0,-153,74,-238c0,0,74,-84,207,-84c0,0,60,0,118,16c0,0,59,16,117,48V32C745,32,688,5,626,-7c0,0,-61,-13,-131,-13Z" 
id="f0_b"
transform="scale(0.001,-0.001)" />

<path d="M139,0V1161H277V475L686,836H861L418,445L880,0H701L277,408V0Z" 
id="f0_i"
transform="scale(0.001,-0.001)" />

<path d="M421,0C421,0,263,0,202,59c0,0,-60,60,-60,217V729H41V836H142v238H280V836H562V729H280V276c0,0,0,-102,28,-132c0,0,28,-29,113,-29H562V0Z" 
id="f0_6"
transform="scale(0.001,-0.001)" />

<path d="M139,0V1161H277V706c0,0,49,75,116,112c0,0,67,38,154,38c0,0,144,0,218,-90c0,0,74,-89,74,-262V0H702V500c0,0,0,119,-46,177c0,0,-47,59,-139,59c0,0,-112,0,-176,-71c0,0,-64,-70,-64,-193V0Z" 
id="f0_7"
transform="scale(0.001,-0.001)" />

<path d="M231,492l491,1c0,0,-2,112,-64,179c0,0,-61,67,-163,67c0,0,-115,0,-184,-65c0,0,-69,-64,-80,-182ZM517,-20c0,0,-199,0,-316,115C201,95,84,211,84,410c0,0,0,205,111,325c0,0,111,121,299,121c0,0,168,0,266,-109c0,0,98,-108,98,-295V385H227c0,0,9,-142,85,-216c0,0,77,-74,213,-74c0,0,80,0,154,19c0,0,74,19,147,58V42C826,42,752,11,675,-4c0,0,-78,-16,-158,-16Z" 
id="f0_a"
transform="scale(0.001,-0.001)" />

<path d="M551,0V391H162V567H551V958H729V567h390V391H729V0Z" 
id="f1_p"
transform="scale(0.001,-0.001)" />

<path d="M139,0V836H277V706c0,0,49,75,116,112c0,0,67,38,154,38c0,0,144,0,218,-90c0,0,74,-89,74,-262V0H702V500c0,0,0,119,-46,177c0,0,-47,59,-139,59c0,0,-112,0,-176,-71c0,0,-64,-70,-64,-193V0Z" 
id="f0_e"
transform="scale(0.001,-0.001)" />

<path d="M467,95c0,0,110,0,174,86c0,0,64,87,64,236c0,0,0,148,-64,235c0,0,-64,87,-174,87c0,0,-110,0,-174,-86c0,0,-64,-86,-64,-236c0,0,0,-150,64,-236c0,0,63,-86,174,-86Zm0,-115c0,0,-179,0,-281,115C186,95,84,212,84,417c0,0,0,206,102,322c0,0,102,117,281,117c0,0,179,0,282,-117c0,0,102,-116,102,-322c0,0,0,-205,-102,-322C749,95,646,-20,467,-20Z" 
id="f0_d"
transform="scale(0.001,-0.001)" />

<path d="M283,0L65,836H202L373,184L544,836H706L878,184l171,652h137L967,0H806L626,685L445,0Z" 
id="f0_n"
transform="scale(0.001,-0.001)" />

<path d="M139,0V836H277V706c0,0,43,76,112,113c0,0,70,37,169,37c0,0,14,0,31,-2c0,0,17,-2,38,-6l1,-141c0,0,-23,14,-51,20c0,0,-27,6,-60,6c0,0,-116,0,-178,-75c0,0,-62,-76,-62,-218V0Z" 
id="f0_g"
transform="scale(0.001,-0.001)" />

<path d="M166,0V729H35V836H166v58c0,0,0,139,65,203c0,0,65,64,206,64H567V1046H435c0,0,-74,0,-102,-29c0,0,-29,-30,-29,-107V836H530V729H304V0Z" 
id="f0_h"
transform="scale(0.001,-0.001)" />

<path d="M408,93c0,0,115,0,184,81c0,0,69,81,69,215v30H524c0,0,-167,0,-231,-38c0,0,-64,-38,-64,-129c0,0,0,-73,48,-116c0,0,48,-43,131,-43ZM372,-20c0,0,-128,0,-204,70c0,0,-76,72,-76,193c0,0,0,141,94,212c0,0,95,72,282,72H661v13c0,0,0,95,-62,147c0,0,-63,52,-175,52c0,0,-72,0,-140,-17c0,0,-68,-17,-130,-51V798c0,0,75,29,146,43c0,0,71,15,138,15c0,0,181,0,270,-95c0,0,90,-94,90,-285V0H661V127C661,127,614,51,544,15c0,0,-70,-35,-172,-35Z" 
id="f0_8"
transform="scale(0.001,-0.001)" />

<path d="M460,93c0,0,109,0,171,86c0,0,63,86,63,238c0,0,0,151,-63,237c0,0,-62,86,-171,86c0,0,-109,0,-172,-86c0,0,-62,-86,-62,-237c0,0,0,-152,62,-238c0,0,63,-86,172,-86ZM426,-20c0,0,-151,0,-247,119c0,0,-95,121,-95,318c0,0,0,197,95,318c0,0,96,121,247,121c0,0,93,0,159,-37c0,0,66,-36,109,-110v452H831V0H694V125C694,125,651,51,585,15c0,0,-66,-35,-159,-35Z" 
id="f0_f"
transform="scale(0.001,-0.001)" />

<path d="M376,-20c0,0,-67,0,-140,12C236,-8,164,4,83,30V172c0,0,76,-40,150,-59c0,0,74,-20,146,-20c0,0,97,0,150,33c0,0,52,33,52,94c0,0,0,56,-38,85c0,0,-38,30,-165,58l-48,11c0,0,-128,27,-184,83c0,0,-57,55,-57,152c0,0,0,118,83,182c0,0,84,65,238,65c0,0,76,0,143,-12c0,0,67,-11,124,-33V681c0,0,-58,29,-121,44c0,0,-63,15,-130,15c0,0,-102,0,-153,-31c0,0,-51,-31,-51,-94c0,0,0,-48,37,-75c0,0,36,-27,147,-52l46,-10c0,0,147,-32,208,-89c0,0,62,-57,62,-159c0,0,0,-116,-93,-184c0,0,-92,-66,-253,-66Z" 
id="f0_9"
transform="scale(0.001,-0.001)" />

<path d="M744,410L592,853L439,410ZM8,0L420,1114H763L1175,0H887L816,203H367L297,0Z" 
id="f1_n"
transform="scale(0.001,-0.001)" />

<path d="M520,172c0,0,86,0,131,63c0,0,45,63,45,182c0,0,0,119,-45,182c0,0,-45,63,-131,63c0,0,-85,0,-130,-63c0,0,-45,-63,-45,-182c0,0,0,-119,45,-182c0,0,45,-63,130,-63ZM421,-20c0,0,-154,0,-253,121C168,101,68,224,68,417c0,0,0,193,100,316c0,0,99,123,253,123c0,0,87,0,153,-35c0,0,67,-35,122,-108v448H965V0H696V121C696,121,641,47,575,13c0,0,-67,-33,-154,-33Z" 
id="f1_c"
transform="scale(0.001,-0.001)" />

<path d="M573,172c0,0,86,0,131,63c0,0,45,63,45,182c0,0,0,119,-45,182c0,0,-45,63,-131,63c0,0,-86,0,-132,-63c0,0,-46,-63,-46,-182c0,0,0,-119,46,-182c0,0,46,-63,132,-63ZM128,-317V836H395V713c0,0,55,73,122,108c0,0,68,35,155,35c0,0,154,0,253,-123c0,0,100,-123,100,-316c0,0,0,-193,-100,-316c0,0,-99,-121,-253,-121c0,0,-87,0,-155,33c0,0,-67,35,-122,108V-317Z" 
id="f1_q"
transform="scale(0.001,-0.001)" />

<path d="M128,0V1161H395V0Z" 
id="f1_r"
transform="scale(0.001,-0.001)" />

<path d="M687,509c0,0,0,76,-44,122c0,0,-44,47,-116,47c0,0,-78,0,-126,-44c0,0,-49,-43,-61,-125ZM544,-20c0,0,-227,0,-353,114C191,94,66,209,66,417c0,0,0,204,123,321c0,0,123,118,340,118c0,0,197,0,315,-119c0,0,118,-118,118,-317V344H337c0,0,10,-94,68,-141c0,0,59,-47,163,-47c0,0,85,0,173,25c0,0,89,25,182,76V51C923,51,828,15,733,-2c0,0,-94,-18,-189,-18Z" 
id="f1_3"
transform="scale(0.001,-0.001)" />

<path d="M140,0V1114H427V0Z" 
id="f1_s"
transform="scale(0.001,-0.001)" />

<path d="M530,217c0,0,176,0,269,87c0,0,93,88,93,254c0,0,0,166,-93,252c0,0,-92,87,-269,87H427V217ZM140,0V1114H443c0,0,253,0,378,-36c0,0,124,-37,213,-123c0,0,78,-76,116,-174c0,0,38,-98,38,-223c0,0,0,-126,-38,-225c0,0,-38,-99,-116,-174c0,0,-90,-87,-215,-123C819,36,694,0,443,0Z" 
id="f1_t"
transform="scale(0.001,-0.001)" />

<path d="M121,0V288H390V0ZM631,0V288H900V0Zm509,0V288h269V0Z" 
id="f1_l"
transform="scale(0.001,-0.001)" />

<path d="M179,0V190H336V0Zm0,600V790H336V600Z" 
id="f0_1e"
transform="scale(0.001,-0.001)" />

<path d="M150,0V1114H854V987H300V657H831V530H300V127H867V0Z" 
id="f0_1d"
transform="scale(0.001,-0.001)" />

<path d="M121,-317v116h81c0,0,57,0,88,26c0,0,31,27,69,127l25,62L46,836H191L453,182L714,836H859L492,-76c0,0,-58,-150,-113,-195c0,0,-55,-46,-148,-46Z" 
id="f0_p"
transform="scale(0.001,-0.001)" />

<path d="M424,-20c0,0,-145,0,-219,88c0,0,-75,89,-75,262V836H267V335c0,0,0,-119,46,-178c0,0,47,-59,139,-59c0,0,112,0,177,71c0,0,64,71,64,193V836H830V0H693V128C693,128,643,52,577,15c0,0,-66,-35,-153,-35Z" 
id="f0_k"
transform="scale(0.001,-0.001)" />

<path d="M359,0L46,836H191L453,134L714,836H859L546,0Z" 
id="f0_t"
transform="scale(0.001,-0.001)" />

<path d="M510,93c0,0,109,0,171,86c0,0,62,86,62,238c0,0,0,151,-62,237c0,0,-62,86,-171,86c0,0,-109,0,-171,-86c0,0,-62,-86,-62,-237c0,0,0,-152,62,-238c0,0,62,-86,171,-86ZM139,-317V836H277V709c0,0,43,74,109,110c0,0,66,37,158,37c0,0,152,0,247,-121c0,0,95,-121,95,-318c0,0,0,-197,-95,-318C791,99,696,-20,544,-20c0,0,-92,0,-158,35c0,0,-66,36,-109,110V-317Z" 
id="f0_s"
transform="scale(0.001,-0.001)" />

<path d="M545,-20c0,0,-106,0,-212,20C333,0,226,19,119,58V301c0,0,107,-57,207,-85c0,0,99,-29,192,-29c0,0,94,0,144,31c0,0,50,31,50,90c0,0,0,52,-34,80c0,0,-34,29,-136,51L431,464c0,0,-167,35,-244,114c0,0,-77,78,-77,211c0,0,0,166,107,256c0,0,107,89,309,89c0,0,92,0,189,-14c0,0,97,-13,200,-41V843c0,0,-92,41,-179,62c0,0,-87,21,-165,21c0,0,-103,0,-152,-28c0,0,-49,-29,-49,-88c0,0,0,-45,33,-70c0,0,33,-25,121,-43L646,672c0,0,186,-37,264,-113c0,0,79,-76,79,-216c0,0,0,-185,-110,-275c0,0,-109,-88,-334,-88Z" 
id="f1_9"
transform="scale(0.001,-0.001)" />

<path d="M128,0V836H395V0Zm0,944v217H395V944Z" 
id="f1_5"
transform="scale(0.001,-0.001)" />

<path d="M520,194c0,0,84,0,130,61c0,0,46,61,46,172c0,0,0,112,-46,174c0,0,-46,61,-130,61c0,0,-82,0,-129,-61c0,0,-46,-62,-46,-174c0,0,0,-115,45,-174c0,0,45,-59,130,-59ZM469,-328c0,0,-78,0,-151,12c0,0,-73,12,-147,36V-71c0,0,70,-41,137,-61c0,0,67,-20,135,-20c0,0,131,0,192,58c0,0,61,57,61,178v58C696,142,641,69,575,34C575,34,508,0,421,0C421,0,268,0,168,121C168,121,68,241,68,428c0,0,0,187,100,307c0,0,100,120,253,120c0,0,87,0,154,-35c0,0,66,-34,121,-108V836H965V84c0,0,0,-200,-127,-306c0,0,-127,-106,-369,-106Z" 
id="f1_7"
transform="scale(0.001,-0.001)" />

<path d="M128,0V836H395V713c0,0,60,73,128,108c0,0,68,35,150,35c0,0,145,0,220,-89c0,0,75,-89,75,-258V0H699V389c0,0,0,109,-5,150c0,0,-5,41,-16,60c0,0,-16,26,-43,41c0,0,-27,14,-61,14c0,0,-84,0,-131,-64c0,0,-48,-65,-48,-179V0Z" 
id="f1_6"
transform="scale(0.001,-0.001)" />


</defs>
</svg>