<?xml version="1.0" encoding="UTF-8" standalone="no"?>
<!DOCTYPE svg PUBLIC "-//W3C//DTD SVG 1.1//EN"
"http://www.w3.org/Graphics/SVG/1.1/DTD/svg11.dtd">
<svg viewBox="0 0 909 1286" version="1.1" xmlns="http://www.w3.org/2000/svg" xmlns:xlink="http://www.w3.org/1999/xlink">
<defs>
<clipPath id="c0_17"><path d="M0,1286.2V.2H909.3v1286Z" /></clipPath>
<style type="text/css"><![CDATA[
.g0_17{
fill: #00FF00;
}
]]></style>
</defs>
<g clip-path="url(#c0_17)">
<g fill="#000000" >
<use xlink:href="#f0_x" transform="matrix(12,0,0,12,86.8,168.2)" />
<use xlink:href="#f0_c" transform="matrix(12,0,0,12,95.6,168.2)" />
<use xlink:href="#f0_r" transform="matrix(12,0,0,12,106.8,168.2)" />
<use xlink:href="#f0_11" transform="matrix(12,0,0,12,118.4,168.2)" />
<use xlink:href="#f0_8" transform="matrix(12,0,0,12,124.2,168.2)" />
<use xlink:href="#f0_4" transform="matrix(12,0,0,12,131.2,168.2)" />
<use xlink:href="#f0_y" transform="matrix(12,0,0,12,148.5,168.2)" />
<use xlink:href="#f0_4" transform="matrix(12,0,0,12,163.4,168.2)" />
<use xlink:href="#f0_i" transform="matrix(12,0,0,12,174.7,168.2)" />
<use xlink:href="#f0_o" transform="matrix(12,0,0,12,179.8,168.2)" />
<use xlink:href="#f0_c" transform="matrix(12,0,0,12,189.8,168.2)" />
<use xlink:href="#f0_p" transform="matrix(12,0,0,12,201,168.2)" />
<use xlink:href="#f0_4" transform="matrix(12,0,0,12,218.9,168.2)" />
<use xlink:href="#f0_1b" transform="matrix(12,0,0,12,230.1,168.2)" />
</g>
</g>
<path fill-rule="evenodd" d="M86.6,237.6H252.8V202.9H86.6v34.7Z" class="g0_17" />
<g clip-path="url(#c0_17)">
<g fill="#0000FF" >
<use xlink:href="#f1_14" transform="matrix(19.5,0,0,19.5,86.8,230.5)" />
<use xlink:href="#f1_3" transform="matrix(19.5,0,0,19.5,111.7,230.5)" />
<use xlink:href="#f1_15" transform="matrix(19.5,0,0,19.5,131.9,230.5)" />
<use xlink:href="#f1_4" transform="matrix(19.5,0,0,19.5,151.1,230.5)" />
<use xlink:href="#f1_9" transform="matrix(19.5,0,0,19.5,175.8,230.5)" />
<use xlink:href="#f1_4" transform="matrix(19.5,0,0,19.5,197.2,230.5)" />
<use xlink:href="#f1_3" transform="matrix(19.5,0,0,19.5,211.4,230.5)" />
<use xlink:href="#f1_i" transform="matrix(19.5,0,0,19.5,231.5,230.5)" />
</g>
<g fill="#000000" >
<use xlink:href="#f0_d" transform="matrix(12,0,0,12,86.8,261.9)" />
<use xlink:href="#f0_6" transform="matrix(12,0,0,12,98.7,261.9)" />
<use xlink:href="#f0_a" transform="matrix(12,0,0,12,104.8,261.9)" />
<use xlink:href="#f0_4" transform="matrix(12,0,0,12,112,261.9)" />
<use xlink:href="#f0_8" transform="matrix(12,0,0,12,123.3,261.9)" />
<use xlink:href="#f0_9" transform="matrix(12,0,0,12,136.7,261.9)" />
<use xlink:href="#f0_r" transform="matrix(12,0,0,12,146.2,261.9)" />
<use xlink:href="#f0_n" transform="matrix(12,0,0,12,157.8,261.9)" />
<use xlink:href="#f0_p" transform="matrix(12,0,0,12,169.4,261.9)" />
<use xlink:href="#f0_7" transform="matrix(12,0,0,12,187.3,261.9)" />
<use xlink:href="#f0_a" transform="matrix(12,0,0,12,192.3,261.9)" />
<use xlink:href="#f0_a" transform="matrix(12,0,0,12,199.5,261.9)" />
<use xlink:href="#f0_7" transform="matrix(12,0,0,12,206.8,261.9)" />
<use xlink:href="#f0_h" transform="matrix(12,0,0,12,211.8,261.9)" />
<use xlink:href="#f0_f" transform="matrix(12,0,0,12,223.5,261.9)" />
<use xlink:href="#f0_g" transform="matrix(12,0,0,12,241,261.9)" />
<use xlink:href="#f0_h" transform="matrix(12,0,0,12,252.1,261.9)" />
<use xlink:href="#f0_j" transform="matrix(12,0,0,12,263.7,261.9)" />
<use xlink:href="#f0_b" transform="matrix(12,0,0,12,281.3,261.9)" />
<use xlink:href="#f0_g" transform="matrix(12,0,0,12,292.8,261.9)" />
<use xlink:href="#f0_t" transform="matrix(12,0,0,12,304,261.9)" />
<use xlink:href="#f0_7" transform="matrix(12,0,0,12,314.9,261.9)" />
<use xlink:href="#f0_h" transform="matrix(12,0,0,12,319.9,261.9)" />
<use xlink:href="#f0_f" transform="matrix(12,0,0,12,331.5,261.9)" />
<use xlink:href="#f0_6" transform="matrix(12,0,0,12,349.1,261.9)" />
<use xlink:href="#f0_c" transform="matrix(12,0,0,12,355.5,261.9)" />
<use xlink:href="#f0_8" transform="matrix(12,0,0,12,366.7,261.9)" />
<use xlink:href="#f0_t" transform="matrix(12,0,0,12,380.1,261.9)" />
<use xlink:href="#f0_c" transform="matrix(12,0,0,12,390.9,261.9)" />
<use xlink:href="#f0_r" transform="matrix(12,0,0,12,402.1,261.9)" />
<use xlink:href="#f0_8" transform="matrix(12,0,0,12,413.7,261.9)" />
<use xlink:href="#f0_7" transform="matrix(12,0,0,12,427.1,261.9)" />
<use xlink:href="#f0_13" transform="matrix(12,0,0,12,432.2,261.9)" />
<use xlink:href="#f0_e" transform="matrix(12,0,0,12,446.7,261.9)" />
<use xlink:href="#f0_15" transform="matrix(12,0,0,12,464.1,261.9)" />
<use xlink:href="#f0_4" transform="matrix(12,0,0,12,478.1,261.9)" />
<use xlink:href="#f0_k" transform="matrix(12,0,0,12,489.4,261.9)" />
<use xlink:href="#f0_4" transform="matrix(12,0,0,12,500.3,261.9)" />
<use xlink:href="#f0_i" transform="matrix(12,0,0,12,511.6,261.9)" />
<use xlink:href="#f0_c" transform="matrix(12,0,0,12,516.7,261.9)" />
<use xlink:href="#f0_b" transform="matrix(12,0,0,12,527.9,261.9)" />
<use xlink:href="#f0_4" transform="matrix(12,0,0,12,539.5,261.9)" />
<use xlink:href="#f0_8" transform="matrix(12,0,0,12,550.8,261.9)" />
<use xlink:href="#f0_8" transform="matrix(12,0,0,12,564.2,261.9)" />
<use xlink:href="#f0_4" transform="matrix(12,0,0,12,571.2,261.9)" />
<use xlink:href="#f0_f" transform="matrix(12,0,0,12,582.5,261.9)" />
<use xlink:href="#f0_7" transform="matrix(12,0,0,12,594.1,261.9)" />
<use xlink:href="#f0_9" transform="matrix(12,0,0,12,599.2,261.9)" />
<use xlink:href="#f0_a" transform="matrix(12,0,0,12,608.8,261.9)" />
<use xlink:href="#f0_8" transform="matrix(12,0,0,12,616,261.9)" />
<use xlink:href="#f0_g" transform="matrix(12,0,0,12,623.4,261.9)" />
<use xlink:href="#f0_a" transform="matrix(12,0,0,12,634.7,261.9)" />
<use xlink:href="#f0_7" transform="matrix(12,0,0,12,641.9,261.9)" />
<use xlink:href="#f0_c" transform="matrix(12,0,0,12,647,261.9)" />
<use xlink:href="#f0_h" transform="matrix(12,0,0,12,658.1,261.9)" />
<use xlink:href="#f0_q" transform="matrix(12,0,0,12,669.9,261.9)" />
<use xlink:href="#f0_t" transform="matrix(12,0,0,12,681.5,261.9)" />
<use xlink:href="#f0_c" transform="matrix(12,0,0,12,692.3,261.9)" />
<use xlink:href="#f0_r" transform="matrix(12,0,0,12,703.5,261.9)" />
<use xlink:href="#f0_11" transform="matrix(12,0,0,12,715.1,261.9)" />
<use xlink:href="#f0_i" transform="matrix(12,0,0,12,721,261.9)" />
<use xlink:href="#f0_i" transform="matrix(12,0,0,12,726,261.9)" />
<use xlink:href="#f0_h" transform="matrix(12,0,0,12,737,261.9)" />
<use xlink:href="#f0_4" transform="matrix(12,0,0,12,748.6,261.9)" />
<use xlink:href="#f0_4" transform="matrix(12,0,0,12,759.8,261.9)" />
<use xlink:href="#f0_j" transform="matrix(12,0,0,12,771.1,261.9)" />
<use xlink:href="#f0_a" transform="matrix(12,0,0,12,788.6,261.9)" />
<use xlink:href="#f0_c" transform="matrix(12,0,0,12,795.8,261.9)" />
<use xlink:href="#f0_y" transform="matrix(12,0,0,12,86.8,290.4)" />
<use xlink:href="#f0_g" transform="matrix(12,0,0,12,101.8,290.4)" />
<use xlink:href="#f0_7" transform="matrix(12,0,0,12,113,290.4)" />
<use xlink:href="#f0_a" transform="matrix(12,0,0,12,118.1,290.4)" />
<use xlink:href="#f0_g" transform="matrix(12,0,0,12,131.2,290.4)" />
<use xlink:href="#f0_9" transform="matrix(12,0,0,12,148.2,290.4)" />
<use xlink:href="#f0_3" transform="matrix(12,0,0,12,157.8,290.4)" />
<use xlink:href="#f0_c" transform="matrix(12,0,0,12,169.4,290.4)" />
<use xlink:href="#f0_8" transform="matrix(12,0,0,12,180.5,290.4)" />
<use xlink:href="#f0_a" transform="matrix(12,0,0,12,188,290.4)" />
<use xlink:href="#f0_y" transform="matrix(12,0,0,12,201.1,290.4)" />
<use xlink:href="#f0_3" transform="matrix(12,0,0,12,216.1,290.4)" />
<use xlink:href="#f0_7" transform="matrix(12,0,0,12,227.7,290.4)" />
<use xlink:href="#f0_i" transform="matrix(12,0,0,12,232.8,290.4)" />
<use xlink:href="#f0_4" transform="matrix(12,0,0,12,237.8,290.4)" />
<use xlink:href="#f0_6" transform="matrix(12,0,0,12,255.1,290.4)" />
<use xlink:href="#f0_c" transform="matrix(12,0,0,12,261.5,290.4)" />
<use xlink:href="#f0_8" transform="matrix(12,0,0,12,272.6,290.4)" />
<use xlink:href="#f0_d" transform="matrix(12,0,0,12,286.1,290.4)" />
<use xlink:href="#f0_b" transform="matrix(12,0,0,12,298.6,290.4)" />
<use xlink:href="#f0_b" transform="matrix(12,0,0,12,310.2,290.4)" />
<use xlink:href="#f0_i" transform="matrix(12,0,0,12,321.8,290.4)" />
<use xlink:href="#f0_4" transform="matrix(12,0,0,12,326.8,290.4)" />
<use xlink:href="#f0_a" transform="matrix(12,0,0,12,344.1,290.4)" />
<use xlink:href="#f0_c" transform="matrix(12,0,0,12,351.3,290.4)" />
<use xlink:href="#f0_b" transform="matrix(12,0,0,12,368.2,290.4)" />
<use xlink:href="#f0_8" transform="matrix(12,0,0,12,380,290.4)" />
<use xlink:href="#f0_c" transform="matrix(12,0,0,12,387,290.4)" />
<use xlink:href="#f0_o" transform="matrix(12,0,0,12,398.1,290.4)" />
<use xlink:href="#f0_4" transform="matrix(12,0,0,12,408.2,290.4)" />
<use xlink:href="#f0_9" transform="matrix(12,0,0,12,419.5,290.4)" />
<use xlink:href="#f0_9" transform="matrix(12,0,0,12,429,290.4)" />
<use xlink:href="#f0_t" transform="matrix(12,0,0,12,444.5,290.4)" />
<use xlink:href="#f0_c" transform="matrix(12,0,0,12,455.4,290.4)" />
<use xlink:href="#f0_r" transform="matrix(12,0,0,12,466.5,290.4)" />
<use xlink:href="#f0_8" transform="matrix(12,0,0,12,478.1,290.4)" />
<use xlink:href="#f0_c" transform="matrix(12,0,0,12,491.5,290.4)" />
<use xlink:href="#f0_8" transform="matrix(12,0,0,12,502.7,290.4)" />
<use xlink:href="#f0_j" transform="matrix(12,0,0,12,509.9,290.4)" />
<use xlink:href="#f0_4" transform="matrix(12,0,0,12,521.5,290.4)" />
<use xlink:href="#f0_8" transform="matrix(12,0,0,12,532.8,290.4)" />
<use xlink:href="#f0_l" transform="matrix(12,0,0,12,538.6,290.4)" />
<use xlink:href="#f0_1h" transform="matrix(12,0,0,12,86.8,347.7)" />
<use xlink:href="#f0_k" transform="matrix(12,0,0,12,98.4,347.7)" />
<use xlink:href="#f0_4" transform="matrix(12,0,0,12,109.2,347.7)" />
<use xlink:href="#f0_h" transform="matrix(12,0,0,12,120.5,347.7)" />
<use xlink:href="#f0_a" transform="matrix(12,0,0,12,132.1,347.7)" />
<use xlink:href="#f0_r" transform="matrix(12,0,0,12,139.3,347.7)" />
<use xlink:href="#f0_g" transform="matrix(12,0,0,12,150.9,347.7)" />
<use xlink:href="#f0_i" transform="matrix(12,0,0,12,162.2,347.7)" />
<use xlink:href="#f0_i" transform="matrix(12,0,0,12,167.2,347.7)" />
<use xlink:href="#f0_t" transform="matrix(12,0,0,12,172.3,347.7)" />
<use xlink:href="#f0_t" transform="matrix(12,0,0,12,189,347.7)" />
<use xlink:href="#f0_c" transform="matrix(12,0,0,12,199.9,347.7)" />
<use xlink:href="#f0_r" transform="matrix(12,0,0,12,211,347.7)" />
<use xlink:href="#f0_9" transform="matrix(12,0,0,12,228.4,347.7)" />
<use xlink:href="#f0_3" transform="matrix(12,0,0,12,238,347.7)" />
<use xlink:href="#f0_c" transform="matrix(12,0,0,12,249.7,347.7)" />
<use xlink:href="#f0_r" transform="matrix(12,0,0,12,260.8,347.7)" />
<use xlink:href="#f0_i" transform="matrix(12,0,0,12,272.4,347.7)" />
<use xlink:href="#f0_j" transform="matrix(12,0,0,12,277.4,347.7)" />
<use xlink:href="#f0_f" transform="matrix(12,0,0,12,295,347.7)" />
<use xlink:href="#f0_4" transform="matrix(12,0,0,12,306.6,347.7)" />
<use xlink:href="#f0_a" transform="matrix(12,0,0,12,317.9,347.7)" />
<use xlink:href="#f0_g" transform="matrix(12,0,0,12,330.9,347.7)" />
<use xlink:href="#f0_h" transform="matrix(12,0,0,12,342.2,347.7)" />
<use xlink:href="#f0_4" transform="matrix(12,0,0,12,359.6,347.7)" />
<use xlink:href="#f0_p" transform="matrix(12,0,0,12,370.9,347.7)" />
<use xlink:href="#f0_g" transform="matrix(12,0,0,12,388.6,347.7)" />
<use xlink:href="#f0_7" transform="matrix(12,0,0,12,399.9,347.7)" />
<use xlink:href="#f0_i" transform="matrix(12,0,0,12,405,347.7)" />
<use xlink:href="#f0_6" transform="matrix(12,0,0,12,416,347.7)" />
<use xlink:href="#f0_8" transform="matrix(12,0,0,12,422.4,347.7)" />
<use xlink:href="#f0_c" transform="matrix(12,0,0,12,429.6,347.7)" />
<use xlink:href="#f0_p" transform="matrix(12,0,0,12,440.7,347.7)" />
<use xlink:href="#f0_d" transform="matrix(12,0,0,12,464.4,347.7)" />
<use xlink:href="#f0_b" transform="matrix(12,0,0,12,476.9,347.7)" />
<use xlink:href="#f0_b" transform="matrix(12,0,0,12,488.5,347.7)" />
<use xlink:href="#f0_i" transform="matrix(12,0,0,12,500.2,347.7)" />
<use xlink:href="#f0_4" transform="matrix(12,0,0,12,505.3,347.7)" />
<use xlink:href="#f0_i" transform="matrix(12,0,0,12,522.4,347.7)" />
<use xlink:href="#f0_7" transform="matrix(12,0,0,12,527.4,347.7)" />
<use xlink:href="#f0_10" transform="matrix(12,0,0,12,532.5,347.7)" />
<use xlink:href="#f0_4" transform="matrix(12,0,0,12,542.6,347.7)" />
<use xlink:href="#f0_a" transform="matrix(12,0,0,12,559.7,347.7)" />
<use xlink:href="#f0_3" transform="matrix(12,0,0,12,566.9,347.7)" />
<use xlink:href="#f0_7" transform="matrix(12,0,0,12,578.5,347.7)" />
<use xlink:href="#f0_9" transform="matrix(12,0,0,12,583.5,347.7)" />
<use xlink:href="#f0_c" transform="matrix(12,0,0,12,598.9,347.7)" />
<use xlink:href="#f0_h" transform="matrix(12,0,0,12,610.1,347.7)" />
<use xlink:href="#f0_4" transform="matrix(12,0,0,12,621.7,347.7)" />
<use xlink:href="#f0_12" transform="matrix(12,0,0,12,633.1,347.7)" />
<use xlink:href="#f0_d" transform="matrix(12,0,0,12,86.8,929.8)" />
<use xlink:href="#f0_a" transform="matrix(12,0,0,12,99,929.8)" />
<use xlink:href="#f0_a" transform="matrix(12,0,0,12,112.1,929.8)" />
<use xlink:href="#f0_3" transform="matrix(12,0,0,12,119.3,929.8)" />
<use xlink:href="#f0_4" transform="matrix(12,0,0,12,130.9,929.8)" />
<use xlink:href="#f0_9" transform="matrix(12,0,0,12,148,929.8)" />
<use xlink:href="#f0_g" transform="matrix(12,0,0,12,157.5,929.8)" />
<use xlink:href="#f0_p" transform="matrix(12,0,0,12,168.8,929.8)" />
<use xlink:href="#f0_4" transform="matrix(12,0,0,12,186.5,929.8)" />
<use xlink:href="#f0_a" transform="matrix(12,0,0,12,203.8,929.8)" />
<use xlink:href="#f0_7" transform="matrix(12,0,0,12,210.9,929.8)" />
<use xlink:href="#f0_p" transform="matrix(12,0,0,12,216,929.8)" />
<use xlink:href="#f0_4" transform="matrix(12,0,0,12,233.8,929.8)" />
<use xlink:href="#f0_q" transform="matrix(12,0,0,12,245.1,929.8)" />
<use xlink:href="#f0_t" transform="matrix(12,0,0,12,256.8,929.8)" />
<use xlink:href="#f0_c" transform="matrix(12,0,0,12,267.6,929.8)" />
<use xlink:href="#f0_r" transform="matrix(12,0,0,12,278.7,929.8)" />
<use xlink:href="#f0_9" transform="matrix(12,0,0,12,296.3,929.8)" />
<use xlink:href="#f0_3" transform="matrix(12,0,0,12,305.8,929.8)" />
<use xlink:href="#f0_c" transform="matrix(12,0,0,12,317.4,929.8)" />
<use xlink:href="#f0_r" transform="matrix(12,0,0,12,328.5,929.8)" />
<use xlink:href="#f0_i" transform="matrix(12,0,0,12,340.3,929.8)" />
<use xlink:href="#f0_j" transform="matrix(12,0,0,12,345.3,929.8)" />
<use xlink:href="#f0_8" transform="matrix(12,0,0,12,362.9,929.8)" />
<use xlink:href="#f0_4" transform="matrix(12,0,0,12,369.9,929.8)" />
<use xlink:href="#f0_o" transform="matrix(12,0,0,12,381.2,929.8)" />
<use xlink:href="#f0_4" transform="matrix(12,0,0,12,391.3,929.8)" />
<use xlink:href="#f0_7" transform="matrix(12,0,0,12,402.6,929.8)" />
<use xlink:href="#f0_k" transform="matrix(12,0,0,12,407.6,929.8)" />
<use xlink:href="#f0_4" transform="matrix(12,0,0,12,418.4,929.8)" />
<use xlink:href="#f0_a" transform="matrix(12,0,0,12,435.5,929.8)" />
<use xlink:href="#f0_3" transform="matrix(12,0,0,12,442.7,929.8)" />
<use xlink:href="#f0_7" transform="matrix(12,0,0,12,454.3,929.8)" />
<use xlink:href="#f0_9" transform="matrix(12,0,0,12,459.4,929.8)" />
<use xlink:href="#f0_4" transform="matrix(12,0,0,12,474.8,929.8)" />
<use xlink:href="#f0_p" transform="matrix(12,0,0,12,486.1,929.8)" />
<use xlink:href="#f0_g" transform="matrix(12,0,0,12,503.9,929.8)" />
<use xlink:href="#f0_7" transform="matrix(12,0,0,12,515.2,929.8)" />
<use xlink:href="#f0_i" transform="matrix(12,0,0,12,520.3,929.8)" />
<use xlink:href="#f0_12" transform="matrix(12,0,0,12,525.3,929.8)" />
</g>
</g>
<image preserveAspectRatio="none" x="87" y="409" width="736" height="475" xlink:href="img/1.png" />
<defs>
<path d="M391,0V530L-2,1114H159L468,656l307,458H937L543,530V0Z" 
id="f0_x"
transform="scale(0.001,-0.001)" />

<path d="M467,95c0,0,110,0,174,86c0,0,64,87,64,236c0,0,0,148,-64,235c0,0,-64,87,-174,87c0,0,-110,0,-174,-86c0,0,-64,-86,-64,-236c0,0,0,-150,64,-236c0,0,63,-86,174,-86Zm0,-115c0,0,-179,0,-281,115C186,95,84,212,84,417c0,0,0,206,102,322c0,0,102,117,281,117c0,0,179,0,282,-117c0,0,102,-116,102,-322c0,0,0,-205,-102,-322C749,95,646,-20,467,-20Z" 
id="f0_c"
transform="scale(0.001,-0.001)" />

<path d="M424,-20c0,0,-145,0,-219,88c0,0,-75,89,-75,262V836H267V335c0,0,0,-119,46,-178c0,0,47,-59,139,-59c0,0,112,0,177,71c0,0,64,71,64,193V836H830V0H693V128C693,128,643,52,577,15c0,0,-66,-35,-153,-35Z" 
id="f0_r"
transform="scale(0.001,-0.001)" />

<path d="M132,763l62,237v114H351V1000L228,763Z" 
id="f0_11"
transform="scale(0.001,-0.001)" />

<path d="M139,0V836H277V706c0,0,43,76,112,113c0,0,70,37,169,37c0,0,14,0,31,-2c0,0,17,-2,38,-6l1,-141c0,0,-23,14,-51,20c0,0,-27,6,-60,6c0,0,-116,0,-178,-75c0,0,-62,-76,-62,-218V0Z" 
id="f0_8"
transform="scale(0.001,-0.001)" />

<path d="M231,492l491,1c0,0,-2,112,-64,179c0,0,-61,67,-163,67c0,0,-115,0,-184,-65c0,0,-69,-64,-80,-182ZM517,-20c0,0,-199,0,-316,115C201,95,84,211,84,410c0,0,0,205,111,325c0,0,111,121,299,121c0,0,168,0,266,-109c0,0,98,-108,98,-295V385H227c0,0,9,-142,85,-216c0,0,77,-74,213,-74c0,0,80,0,154,19c0,0,74,19,147,58V42C826,42,752,11,675,-4c0,0,-78,-16,-158,-16Z" 
id="f0_4"
transform="scale(0.001,-0.001)" />

<path d="M283,0L65,836H202L373,184L544,836H706L878,184l171,652h137L967,0H806L626,685L445,0Z" 
id="f0_y"
transform="scale(0.001,-0.001)" />

<path d="M144,0V1161H281V0Z" 
id="f0_i"
transform="scale(0.001,-0.001)" />

<path d="M495,-20c0,0,-189,0,-300,117C195,97,84,216,84,417c0,0,0,204,112,321c0,0,113,118,308,118c0,0,64,0,124,-14c0,0,60,-13,117,-39V675c0,0,-58,32,-117,48c0,0,-58,16,-118,16c0,0,-133,0,-207,-84c0,0,-74,-85,-74,-238c0,0,0,-153,74,-238c0,0,74,-84,207,-84c0,0,60,0,118,16c0,0,59,16,117,48V32C745,32,688,5,626,-7c0,0,-61,-13,-131,-13Z" 
id="f0_o"
transform="scale(0.001,-0.001)" />

<path d="M139,0V836H277V706c0,0,47,77,112,113c0,0,66,37,156,37c0,0,91,0,155,-47c0,0,64,-46,94,-134c0,0,52,93,123,137c0,0,72,44,169,44c0,0,130,0,201,-92c0,0,71,-91,71,-260V0H1220V500c0,0,0,120,-42,178c0,0,-43,58,-130,58c0,0,-107,0,-169,-71c0,0,-62,-70,-62,-193V0H680V500c0,0,0,121,-43,179c0,0,-42,57,-131,57c0,0,-105,0,-167,-71c0,0,-62,-71,-62,-193V0Z" 
id="f0_p"
transform="scale(0.001,-0.001)" />

<path d="M231,0V190H382V0Zm15,359L231,625v489H382V625L367,359Z" 
id="f0_1b"
transform="scale(0.001,-0.001)" />

<path d="M140,0V1114H460L866,350v764h272V0H818L412,764V0Z" 
id="f1_14"
transform="scale(0.001,-0.001)" />

<path d="M687,509c0,0,0,76,-44,122c0,0,-44,47,-116,47c0,0,-78,0,-126,-44c0,0,-49,-43,-61,-125ZM544,-20c0,0,-227,0,-353,114C191,94,66,209,66,417c0,0,0,204,123,321c0,0,123,118,340,118c0,0,197,0,315,-119c0,0,118,-118,118,-317V344H337c0,0,10,-94,68,-141c0,0,59,-47,163,-47c0,0,85,0,173,25c0,0,89,25,182,76V51C923,51,828,15,733,-2c0,0,-94,-18,-189,-18Z" 
id="f1_3"
transform="scale(0.001,-0.001)" />

<path d="M23,0L340,428L38,836H321L492,588L665,836H948L647,429L963,0H680L492,264L306,0Z" 
id="f1_15"
transform="scale(0.001,-0.001)" />

<path d="M443,0C443,0,285,0,219,66c0,0,-66,66,-66,224V645H20V836H153v237H419V836H695V645H419V290c0,0,0,-58,24,-79c0,0,23,-20,91,-20H672V0Z" 
id="f1_4"
transform="scale(0.001,-0.001)" />

<path d="M545,-20c0,0,-106,0,-212,20C333,0,226,19,119,58V301c0,0,107,-57,207,-85c0,0,99,-29,192,-29c0,0,94,0,144,31c0,0,50,31,50,90c0,0,0,52,-34,80c0,0,-34,29,-136,51L431,464c0,0,-167,35,-244,114c0,0,-77,78,-77,211c0,0,0,166,107,256c0,0,107,89,309,89c0,0,92,0,189,-14c0,0,97,-13,200,-41V843c0,0,-92,41,-179,62c0,0,-87,21,-165,21c0,0,-103,0,-152,-28c0,0,-49,-29,-49,-88c0,0,0,-45,33,-70c0,0,33,-25,121,-43L646,672c0,0,186,-37,264,-113c0,0,79,-76,79,-216c0,0,0,-185,-110,-275c0,0,-109,-88,-334,-88Z" 
id="f1_9"
transform="scale(0.001,-0.001)" />

<path d="M573,172c0,0,86,0,131,63c0,0,45,63,45,182c0,0,0,119,-45,182c0,0,-45,63,-131,63c0,0,-86,0,-132,-63c0,0,-46,-63,-46,-182c0,0,0,-119,46,-182c0,0,46,-63,132,-63ZM128,-317V836H395V713c0,0,55,73,122,108c0,0,68,35,155,35c0,0,154,0,253,-123c0,0,100,-123,100,-316c0,0,0,-193,-100,-316c0,0,-99,-121,-253,-121c0,0,-87,0,-155,33c0,0,-67,35,-122,108V-317Z" 
id="f1_i"
transform="scale(0.001,-0.001)" />

<path d="M727,411L522,965L318,411ZM12,0L437,1114H608L1033,0H876L774,286H272L171,0Z" 
id="f0_d"
transform="scale(0.001,-0.001)" />

<path d="M166,0V729H35V836H166v58c0,0,0,139,65,203c0,0,65,64,206,64H567V1046H435c0,0,-74,0,-102,-29c0,0,-29,-30,-29,-107V836H530V729H304V0Z" 
id="f0_6"
transform="scale(0.001,-0.001)" />

<path d="M421,0C421,0,263,0,202,59c0,0,-60,60,-60,217V729H41V836H142v238H280V836H562V729H280V276c0,0,0,-102,28,-132c0,0,28,-29,113,-29H562V0Z" 
id="f0_a"
transform="scale(0.001,-0.001)" />

<path d="M376,-20c0,0,-67,0,-140,12C236,-8,164,4,83,30V172c0,0,76,-40,150,-59c0,0,74,-20,146,-20c0,0,97,0,150,33c0,0,52,33,52,94c0,0,0,56,-38,85c0,0,-38,30,-165,58l-48,11c0,0,-128,27,-184,83c0,0,-57,55,-57,152c0,0,0,118,83,182c0,0,84,65,238,65c0,0,76,0,143,-12c0,0,67,-11,124,-33V681c0,0,-58,29,-121,44c0,0,-63,15,-130,15c0,0,-102,0,-153,-31c0,0,-51,-31,-51,-94c0,0,0,-48,37,-75c0,0,36,-27,147,-52l46,-10c0,0,147,-32,208,-89c0,0,62,-57,62,-159c0,0,0,-116,-93,-184c0,0,-92,-66,-253,-66Z" 
id="f0_9"
transform="scale(0.001,-0.001)" />

<path d="M510,93c0,0,109,0,171,86c0,0,62,86,62,238c0,0,0,151,-62,237c0,0,-62,86,-171,86c0,0,-109,0,-171,-86c0,0,-62,-86,-62,-237c0,0,0,-152,62,-238c0,0,62,-86,171,-86ZM544,-20c0,0,-92,0,-158,35c0,0,-66,36,-109,110V0H139V1161H277V709c0,0,43,74,109,110c0,0,66,37,158,37c0,0,152,0,247,-121c0,0,95,-121,95,-318c0,0,0,-197,-95,-318C791,99,696,-20,544,-20Z" 
id="f0_n"
transform="scale(0.001,-0.001)" />

<path d="M144,0V836H281V0Zm0,987v174H281V987Z" 
id="f0_7"
transform="scale(0.001,-0.001)" />

<path d="M139,0V836H277V706c0,0,49,75,116,112c0,0,67,38,154,38c0,0,144,0,218,-90c0,0,74,-89,74,-262V0H702V500c0,0,0,119,-46,177c0,0,-47,59,-139,59c0,0,-112,0,-176,-71c0,0,-64,-70,-64,-193V0Z" 
id="f0_h"
transform="scale(0.001,-0.001)" />

<path d="M460,115c0,0,111,0,173,82c0,0,61,82,61,230c0,0,0,149,-61,231c0,0,-62,82,-173,82c0,0,-111,0,-173,-82c0,0,-61,-82,-61,-231c0,0,0,-148,61,-230c0,0,62,-82,173,-82ZM446,-317c0,0,-72,0,-137,11c0,0,-64,11,-124,33v134c0,0,60,-33,119,-49c0,0,59,-15,121,-15c0,0,135,0,202,70c0,0,67,71,67,212v68C694,147,652,73,585,36C585,36,519,0,426,0C426,0,272,0,178,117c0,0,-94,117,-94,310c0,0,0,194,94,311c0,0,94,118,248,118c0,0,93,0,159,-37c0,0,67,-36,109,-110V836H831V104c0,0,0,-212,-95,-317c0,0,-94,-104,-290,-104Z" 
id="f0_f"
transform="scale(0.001,-0.001)" />

<path d="M408,93c0,0,115,0,184,81c0,0,69,81,69,215v30H524c0,0,-167,0,-231,-38c0,0,-64,-38,-64,-129c0,0,0,-73,48,-116c0,0,48,-43,131,-43ZM372,-20c0,0,-128,0,-204,70c0,0,-76,72,-76,193c0,0,0,141,94,212c0,0,95,72,282,72H661v13c0,0,0,95,-62,147c0,0,-63,52,-175,52c0,0,-72,0,-140,-17c0,0,-68,-17,-130,-51V798c0,0,75,29,146,43c0,0,71,15,138,15c0,0,181,0,270,-95c0,0,90,-94,90,-285V0H661V127C661,127,614,51,544,15c0,0,-70,-35,-172,-35Z" 
id="f0_g"
transform="scale(0.001,-0.001)" />

<path d="M460,93c0,0,109,0,171,86c0,0,63,86,63,238c0,0,0,151,-63,237c0,0,-62,86,-171,86c0,0,-109,0,-172,-86c0,0,-62,-86,-62,-237c0,0,0,-152,62,-238c0,0,63,-86,172,-86ZM426,-20c0,0,-151,0,-247,119c0,0,-95,121,-95,318c0,0,0,197,95,318c0,0,96,121,247,121c0,0,93,0,159,-37c0,0,66,-36,109,-110v452H831V0H694V125C694,125,651,51,585,15c0,0,-66,-35,-159,-35Z" 
id="f0_j"
transform="scale(0.001,-0.001)" />

<path d="M510,93c0,0,109,0,171,86c0,0,62,86,62,238c0,0,0,151,-62,237c0,0,-62,86,-171,86c0,0,-109,0,-171,-86c0,0,-62,-86,-62,-237c0,0,0,-152,62,-238c0,0,62,-86,171,-86ZM139,-317V836H277V709c0,0,43,74,109,110c0,0,66,37,158,37c0,0,152,0,247,-121c0,0,95,-121,95,-318c0,0,0,-197,-95,-318C791,99,696,-20,544,-20c0,0,-92,0,-158,35c0,0,-66,36,-109,110V-317Z" 
id="f0_b"
transform="scale(0.001,-0.001)" />

<path d="M121,-317v116h81c0,0,57,0,88,26c0,0,31,27,69,127l25,62L46,836H191L453,182L714,836H859L492,-76c0,0,-58,-150,-113,-195c0,0,-55,-46,-148,-46Z" 
id="f0_t"
transform="scale(0.001,-0.001)" />

<path d="M602,101c0,0,164,0,260,122c0,0,95,123,95,333c0,0,0,211,-95,334c0,0,-96,122,-260,122c0,0,-164,0,-260,-122c0,0,-97,-123,-97,-334c0,0,0,-210,97,-333c0,0,96,-122,260,-122Zm0,-121c0,0,-235,0,-375,155C227,135,86,292,86,556c0,0,0,264,141,421c0,0,140,157,375,157c0,0,234,0,374,-157c0,0,141,-157,141,-421c0,0,0,-263,-141,-420C976,136,836,-20,602,-20Z" 
id="f0_13"
transform="scale(0.001,-0.001)" />

<path d="M458,-20c0,0,-79,0,-168,17c0,0,-89,17,-184,52V204c0,0,91,-51,179,-77c0,0,88,-26,173,-26c0,0,129,0,199,50c0,0,70,51,70,145c0,0,0,82,-50,129c0,0,-50,46,-165,69l-92,18c0,0,-169,34,-244,105c0,0,-75,72,-75,199c0,0,0,148,104,233c0,0,104,85,287,85c0,0,78,0,159,-14c0,0,81,-14,166,-42V931c0,0,-85,41,-161,61c0,0,-76,20,-147,20c0,0,-123,0,-190,-48c0,0,-67,-48,-67,-136c0,0,0,-73,45,-111c0,0,44,-38,168,-61l91,-19c0,0,168,-32,249,-113c0,0,80,-81,80,-216c0,0,0,-162,-109,-246c0,0,-108,-82,-318,-82Z" 
id="f0_e"
transform="scale(0.001,-0.001)" />

<path d="M482,124c0,0,231,0,338,105c0,0,107,104,107,329c0,0,0,224,-107,328c0,0,-107,104,-338,104H300V124ZM150,0V1114H459c0,0,324,0,476,-135c0,0,151,-135,151,-421c0,0,0,-288,-152,-423C934,135,782,0,459,0Z" 
id="f0_15"
transform="scale(0.001,-0.001)" />

<path d="M359,0L46,836H191L453,134L714,836H859L546,0Z" 
id="f0_k"
transform="scale(0.001,-0.001)" />

<path d="M117,-176L179,62V190H336V62L213,-176Z" 
id="f0_q"
transform="scale(0.001,-0.001)" />

<path d="M139,0V1161H277V706c0,0,49,75,116,112c0,0,67,38,154,38c0,0,144,0,218,-90c0,0,74,-89,74,-262V0H702V500c0,0,0,119,-46,177c0,0,-47,59,-139,59c0,0,-112,0,-176,-71c0,0,-64,-70,-64,-193V0Z" 
id="f0_3"
transform="scale(0.001,-0.001)" />

<path d="M163,0V190H321V0Z" 
id="f0_l"
transform="scale(0.001,-0.001)" />

<path d="M150,0V1114H854V987H300V657H831V530H300V127H867V0Z" 
id="f0_1h"
transform="scale(0.001,-0.001)" />

<path d="M139,0V1161H277V475L686,836H861L418,445L880,0H701L277,408V0Z" 
id="f0_10"
transform="scale(0.001,-0.001)" />

<path d="M179,0V190H336V0Zm0,600V790H336V600Z" 
id="f0_12"
transform="scale(0.001,-0.001)" />


</defs>
</svg>