<?xml version="1.0" encoding="UTF-8" standalone="no"?>
<!DOCTYPE svg PUBLIC "-//W3C//DTD SVG 1.1//EN"
"http://www.w3.org/Graphics/SVG/1.1/DTD/svg11.dtd">
<svg viewBox="0 0 909 1286" version="1.1" xmlns="http://www.w3.org/2000/svg" xmlns:xlink="http://www.w3.org/1999/xlink">
<defs>
<clipPath id="c0_36"><path d="M0,1286.2V.2H909.3v1286Z" /></clipPath>
</defs>
<g clip-path="url(#c0_36)">
<g fill="#000000" >
<use xlink:href="#f0_2" transform="matrix(12,0,0,12,121.2,110.9)" />
<use xlink:href="#f1_d" transform="matrix(12,0,0,12,127.7,110.9)" />
<use xlink:href="#f1_b" transform="matrix(12,0,0,12,140.2,110.9)" />
<use xlink:href="#f1_b" transform="matrix(12,0,0,12,151.8,110.9)" />
<use xlink:href="#f1_i" transform="matrix(12,0,0,12,163.6,110.9)" />
<use xlink:href="#f1_4" transform="matrix(12,0,0,12,168.6,110.9)" />
<use xlink:href="#f1_8" transform="matrix(12,0,0,12,185.7,110.9)" />
<use xlink:href="#f1_4" transform="matrix(12,0,0,12,192.8,110.9)" />
<use xlink:href="#f1_o" transform="matrix(12,0,0,12,204.1,110.9)" />
<use xlink:href="#f1_c" transform="matrix(12,0,0,12,214.1,110.9)" />
<use xlink:href="#f1_p" transform="matrix(12,0,0,12,225.3,110.9)" />
<use xlink:href="#f1_p" transform="matrix(12,0,0,12,243.1,110.9)" />
<use xlink:href="#f1_4" transform="matrix(12,0,0,12,261,110.9)" />
<use xlink:href="#f1_h" transform="matrix(12,0,0,12,272.3,110.9)" />
<use xlink:href="#f1_j" transform="matrix(12,0,0,12,283.9,110.9)" />
<use xlink:href="#f1_9" transform="matrix(12,0,0,12,295.5,110.9)" />
<use xlink:href="#f1_a" transform="matrix(12,0,0,12,311,110.9)" />
<use xlink:href="#f1_3" transform="matrix(12,0,0,12,318.2,110.9)" />
<use xlink:href="#f1_g" transform="matrix(12,0,0,12,329.7,110.9)" />
<use xlink:href="#f1_a" transform="matrix(12,0,0,12,341,110.9)" />
<use xlink:href="#f1_t" transform="matrix(12,0,0,12,354,110.9)" />
<use xlink:href="#f1_c" transform="matrix(12,0,0,12,364.8,110.9)" />
<use xlink:href="#f1_r" transform="matrix(12,0,0,12,376,110.9)" />
<use xlink:href="#f1_r" transform="matrix(12,0,0,12,393.5,110.9)" />
<use xlink:href="#f1_9" transform="matrix(12,0,0,12,405.1,110.9)" />
<use xlink:href="#f1_4" transform="matrix(12,0,0,12,414.7,110.9)" />
<use xlink:href="#f1_1j" transform="matrix(12,0,0,12,431.8,110.9)" />
<use xlink:href="#f1_g" transform="matrix(12,0,0,12,441.1,110.9)" />
<use xlink:href="#f1_8" transform="matrix(12,0,0,12,458.4,110.9)" />
<use xlink:href="#f1_4" transform="matrix(12,0,0,12,465.4,110.9)" />
<use xlink:href="#f1_k" transform="matrix(12,0,0,12,476.7,110.9)" />
<use xlink:href="#f1_4" transform="matrix(12,0,0,12,487.5,110.9)" />
<use xlink:href="#f1_8" transform="matrix(12,0,0,12,498.8,110.9)" />
<use xlink:href="#f1_9" transform="matrix(12,0,0,12,506.3,110.9)" />
<use xlink:href="#f1_4" transform="matrix(12,0,0,12,515.9,110.9)" />
<use xlink:href="#f1_1n" transform="matrix(12,0,0,12,527.2,110.9)" />
<use xlink:href="#f1_j" transform="matrix(12,0,0,12,533.8,110.9)" />
<use xlink:href="#f1_c" transform="matrix(12,0,0,12,545.4,110.9)" />
<use xlink:href="#f1_p" transform="matrix(12,0,0,12,556.5,110.9)" />
<use xlink:href="#f1_g" transform="matrix(12,0,0,12,574.4,110.9)" />
<use xlink:href="#f1_7" transform="matrix(12,0,0,12,585.7,110.9)" />
<use xlink:href="#f1_h" transform="matrix(12,0,0,12,590.7,110.9)" />
<use xlink:href="#f1_h" transform="matrix(12,0,0,12,608.1,110.9)" />
<use xlink:href="#f1_g" transform="matrix(12,0,0,12,619.7,110.9)" />
<use xlink:href="#f1_p" transform="matrix(12,0,0,12,631,110.9)" />
<use xlink:href="#f1_4" transform="matrix(12,0,0,12,648.9,110.9)" />
<use xlink:href="#f1_9" transform="matrix(12,0,0,12,666,110.9)" />
<use xlink:href="#f1_a" transform="matrix(12,0,0,12,675.6,110.9)" />
<use xlink:href="#f1_t" transform="matrix(12,0,0,12,682.8,110.9)" />
<use xlink:href="#f1_i" transform="matrix(12,0,0,12,693.6,110.9)" />
<use xlink:href="#f1_4" transform="matrix(12,0,0,12,698.7,110.9)" />
<use xlink:href="#f1_9" transform="matrix(12,0,0,12,715.8,110.9)" />
<use xlink:href="#f1_a" transform="matrix(12,0,0,12,725.2,110.9)" />
<use xlink:href="#f1_8" transform="matrix(12,0,0,12,732.4,110.9)" />
<use xlink:href="#f1_7" transform="matrix(12,0,0,12,740.1,110.9)" />
<use xlink:href="#f1_h" transform="matrix(12,0,0,12,745.1,110.9)" />
<use xlink:href="#f1_f" transform="matrix(12,0,0,12,756.7,110.9)" />
<use xlink:href="#f1_1k" transform="matrix(12,0,0,12,768.3,110.9)" />
<use xlink:href="#f1_6" transform="matrix(12,0,0,12,783.7,110.9)" />
<use xlink:href="#f1_c" transform="matrix(12,0,0,12,790.1,110.9)" />
<use xlink:href="#f1_8" transform="matrix(12,0,0,12,801.3,110.9)" />
<use xlink:href="#f1_a" transform="matrix(12,0,0,12,121.2,139.6)" />
<use xlink:href="#f1_3" transform="matrix(12,0,0,12,128.3,139.6)" />
<use xlink:href="#f1_4" transform="matrix(12,0,0,12,139.9,139.6)" />
<use xlink:href="#f1_1c" transform="matrix(12,0,0,12,157,139.6)" />
<use xlink:href="#f1_r" transform="matrix(12,0,0,12,169.6,139.6)" />
<use xlink:href="#f1_h" transform="matrix(12,0,0,12,181.2,139.6)" />
<use xlink:href="#f1_j" transform="matrix(12,0,0,12,192.9,139.6)" />
<use xlink:href="#f1_i" transform="matrix(12,0,0,12,204.5,139.6)" />
<use xlink:href="#f1_4" transform="matrix(12,0,0,12,209.6,139.6)" />
<use xlink:href="#f1_z" transform="matrix(12,0,0,12,226.7,139.6)" />
<use xlink:href="#f1_15" transform="matrix(12,0,0,12,232.2,139.6)" />
<use xlink:href="#f1_l" transform="matrix(12,0,0,12,246.2,139.6)" />
<use xlink:href="#f1_16" transform="matrix(12,0,0,12,258,139.6)" />
<use xlink:href="#f1_c" transform="matrix(12,0,0,12,267.9,139.6)" />
<use xlink:href="#f1_8" transform="matrix(12,0,0,12,279.1,139.6)" />
<use xlink:href="#f1_g" transform="matrix(12,0,0,12,292.3,139.6)" />
<use xlink:href="#f1_h" transform="matrix(12,0,0,12,303.6,139.6)" />
<use xlink:href="#f1_1h" transform="matrix(12,0,0,12,321.1,139.6)" />
<use xlink:href="#f1_14" transform="matrix(12,0,0,12,332.6,139.6)" />
<use xlink:href="#f1_b" transform="matrix(12,0,0,12,343.5,139.6)" />
<use xlink:href="#f1_i" transform="matrix(12,0,0,12,355.1,139.6)" />
<use xlink:href="#f1_7" transform="matrix(12,0,0,12,360.1,139.6)" />
<use xlink:href="#f1_o" transform="matrix(12,0,0,12,365.2,139.6)" />
<use xlink:href="#f1_7" transform="matrix(12,0,0,12,375.4,139.6)" />
<use xlink:href="#f1_a" transform="matrix(12,0,0,12,380.4,139.6)" />
<use xlink:href="#f1_d" transform="matrix(12,0,0,12,393.4,139.6)" />
<use xlink:href="#f1_b" transform="matrix(12,0,0,12,405.9,139.6)" />
<use xlink:href="#f1_b" transform="matrix(12,0,0,12,417.5,139.6)" />
<use xlink:href="#f1_z" transform="matrix(12,0,0,12,435.1,139.6)" />
<use xlink:href="#f1_15" transform="matrix(12,0,0,12,440.5,139.6)" />
<use xlink:href="#f1_q" transform="matrix(12,0,0,12,454.5,139.6)" />
<use xlink:href="#f1_a" transform="matrix(12,0,0,12,466.3,139.6)" />
<use xlink:href="#f1_3" transform="matrix(12,0,0,12,473.5,139.6)" />
<use xlink:href="#f1_4" transform="matrix(12,0,0,12,485.1,139.6)" />
<use xlink:href="#f1_9" transform="matrix(12,0,0,12,502.2,139.6)" />
<use xlink:href="#f1_r" transform="matrix(12,0,0,12,511.8,139.6)" />
<use xlink:href="#f1_f" transform="matrix(12,0,0,12,523.4,139.6)" />
<use xlink:href="#f1_f" transform="matrix(12,0,0,12,535,139.6)" />
<use xlink:href="#f1_4" transform="matrix(12,0,0,12,546.6,139.6)" />
<use xlink:href="#f1_9" transform="matrix(12,0,0,12,557.7,139.6)" />
<use xlink:href="#f1_a" transform="matrix(12,0,0,12,567.3,139.6)" />
<use xlink:href="#f1_4" transform="matrix(12,0,0,12,574.5,139.6)" />
<use xlink:href="#f1_j" transform="matrix(12,0,0,12,585.8,139.6)" />
<use xlink:href="#f1_6" transform="matrix(12,0,0,12,603.4,139.6)" />
<use xlink:href="#f1_c" transform="matrix(12,0,0,12,609.8,139.6)" />
<use xlink:href="#f1_8" transform="matrix(12,0,0,12,621,139.6)" />
<use xlink:href="#f1_p" transform="matrix(12,0,0,12,628.1,139.6)" />
<use xlink:href="#f1_g" transform="matrix(12,0,0,12,646,139.6)" />
<use xlink:href="#f1_a" transform="matrix(12,0,0,12,657.3,139.6)" />
<use xlink:href="#f1_7" transform="matrix(12,0,0,12,670.3,139.6)" />
<use xlink:href="#f1_9" transform="matrix(12,0,0,12,675.3,139.6)" />
<use xlink:href="#f1_1j" transform="matrix(12,0,0,12,121.2,168.2)" />
<use xlink:href="#f1_o" transform="matrix(12,0,0,12,130.6,168.2)" />
<use xlink:href="#f1_c" transform="matrix(12,0,0,12,140.7,168.2)" />
<use xlink:href="#f1_p" transform="matrix(12,0,0,12,151.8,168.2)" />
<use xlink:href="#f1_l" transform="matrix(12,0,0,12,169.7,168.2)" />
<use xlink:href="#f1_j" transform="matrix(12,0,0,12,175.6,168.2)" />
<use xlink:href="#f1_c" transform="matrix(12,0,0,12,187.2,168.2)" />
<use xlink:href="#f1_p" transform="matrix(12,0,0,12,198.4,168.2)" />
<use xlink:href="#f1_g" transform="matrix(12,0,0,12,216.2,168.2)" />
<use xlink:href="#f1_7" transform="matrix(12,0,0,12,227.5,168.2)" />
<use xlink:href="#f1_h" transform="matrix(12,0,0,12,232.6,168.2)" />
<use xlink:href="#f1_h" transform="matrix(12,0,0,12,244.2,168.2)" />
<use xlink:href="#f1_g" transform="matrix(12,0,0,12,255.8,168.2)" />
<use xlink:href="#f1_p" transform="matrix(12,0,0,12,267.1,168.2)" />
<use xlink:href="#f1_4" transform="matrix(12,0,0,12,284.9,168.2)" />
<use xlink:href="#f1_l" transform="matrix(12,0,0,12,296.2,168.2)" />
<use xlink:href="#f1_g" transform="matrix(12,0,0,12,301.9,168.2)" />
<use xlink:href="#f1_b" transform="matrix(12,0,0,12,313.2,168.2)" />
<use xlink:href="#f1_b" transform="matrix(12,0,0,12,324.8,168.2)" />
<use xlink:href="#f1_h" transform="matrix(12,0,0,12,336.4,168.2)" />
<use xlink:href="#f1_g" transform="matrix(12,0,0,12,348,168.2)" />
<use xlink:href="#f1_p" transform="matrix(12,0,0,12,359.3,168.2)" />
<use xlink:href="#f1_4" transform="matrix(12,0,0,12,377.1,168.2)" />
<use xlink:href="#f1_1k" transform="matrix(12,0,0,12,388.4,168.2)" />
<use xlink:href="#f1_1w" transform="matrix(12,0,0,12,397.9,168.2)" />
<use xlink:href="#f1_6" transform="matrix(12,0,0,12,410,168.2)" />
<use xlink:href="#f1_c" transform="matrix(12,0,0,12,416.4,168.2)" />
<use xlink:href="#f1_8" transform="matrix(12,0,0,12,427.5,168.2)" />
<use xlink:href="#f1_g" transform="matrix(12,0,0,12,441,168.2)" />
<use xlink:href="#f1_1s" transform="matrix(12,0,0,12,458.1,168.2)" />
<use xlink:href="#f1_7" transform="matrix(12,0,0,12,475.8,168.2)" />
<use xlink:href="#f1_i" transform="matrix(12,0,0,12,480.8,168.2)" />
<use xlink:href="#f1_j" transform="matrix(12,0,0,12,485.9,168.2)" />
<use xlink:href="#f1_o" transform="matrix(12,0,0,12,497.5,168.2)" />
<use xlink:href="#f1_g" transform="matrix(12,0,0,12,507.5,168.2)" />
<use xlink:href="#f1_8" transform="matrix(12,0,0,12,518.8,168.2)" />
<use xlink:href="#f1_j" transform="matrix(12,0,0,12,526,168.2)" />
<use xlink:href="#f1_d" transform="matrix(12,0,0,12,543.6,168.2)" />
<use xlink:href="#f1_b" transform="matrix(12,0,0,12,556.1,168.2)" />
<use xlink:href="#f1_b" transform="matrix(12,0,0,12,567.7,168.2)" />
<use xlink:href="#f1_z" transform="matrix(12,0,0,12,585.1,168.2)" />
<use xlink:href="#f1_15" transform="matrix(12,0,0,12,590.5,168.2)" />
<use xlink:href="#f1_q" transform="matrix(12,0,0,12,604.7,168.2)" />
<use xlink:href="#f1_a" transform="matrix(12,0,0,12,616.3,168.2)" />
<use xlink:href="#f1_3" transform="matrix(12,0,0,12,623.5,168.2)" />
<use xlink:href="#f1_4" transform="matrix(12,0,0,12,635.1,168.2)" />
<use xlink:href="#f1_9" transform="matrix(12,0,0,12,652.2,168.2)" />
<use xlink:href="#f1_r" transform="matrix(12,0,0,12,661.8,168.2)" />
<use xlink:href="#f1_f" transform="matrix(12,0,0,12,673.4,168.2)" />
<use xlink:href="#f1_f" transform="matrix(12,0,0,12,685,168.2)" />
<use xlink:href="#f1_4" transform="matrix(12,0,0,12,696.6,168.2)" />
<use xlink:href="#f1_9" transform="matrix(12,0,0,12,707.9,168.2)" />
<use xlink:href="#f1_a" transform="matrix(12,0,0,12,717.5,168.2)" />
<use xlink:href="#f1_4" transform="matrix(12,0,0,12,724.7,168.2)" />
<use xlink:href="#f1_j" transform="matrix(12,0,0,12,736,168.2)" />
<use xlink:href="#f1_6" transform="matrix(12,0,0,12,753.4,168.2)" />
<use xlink:href="#f1_c" transform="matrix(12,0,0,12,759.8,168.2)" />
<use xlink:href="#f1_8" transform="matrix(12,0,0,12,771,168.2)" />
<use xlink:href="#f1_p" transform="matrix(12,0,0,12,778.1,168.2)" />
<use xlink:href="#f1_g" transform="matrix(12,0,0,12,796,168.2)" />
<use xlink:href="#f1_a" transform="matrix(12,0,0,12,807.3,168.2)" />
<use xlink:href="#f1_7" transform="matrix(12,0,0,12,121.2,196.9)" />
<use xlink:href="#f1_9" transform="matrix(12,0,0,12,126.2,196.9)" />
<use xlink:href="#f1_1j" transform="matrix(12,0,0,12,141.6,196.9)" />
<use xlink:href="#f1_o" transform="matrix(12,0,0,12,151.1,196.9)" />
<use xlink:href="#f1_c" transform="matrix(12,0,0,12,161.2,196.9)" />
<use xlink:href="#f1_p" transform="matrix(12,0,0,12,172.3,196.9)" />
<use xlink:href="#f1_l" transform="matrix(12,0,0,12,190.2,196.9)" />
<use xlink:href="#f1_j" transform="matrix(12,0,0,12,196.1,196.9)" />
<use xlink:href="#f1_c" transform="matrix(12,0,0,12,207.7,196.9)" />
<use xlink:href="#f1_p" transform="matrix(12,0,0,12,218.9,196.9)" />
<use xlink:href="#f1_g" transform="matrix(12,0,0,12,236.7,196.9)" />
<use xlink:href="#f1_7" transform="matrix(12,0,0,12,248,196.9)" />
<use xlink:href="#f1_h" transform="matrix(12,0,0,12,253,196.9)" />
<use xlink:href="#f1_h" transform="matrix(12,0,0,12,264.6,196.9)" />
<use xlink:href="#f1_g" transform="matrix(12,0,0,12,276.3,196.9)" />
<use xlink:href="#f1_p" transform="matrix(12,0,0,12,287.5,196.9)" />
<use xlink:href="#f1_4" transform="matrix(12,0,0,12,305.4,196.9)" />
<use xlink:href="#f1_l" transform="matrix(12,0,0,12,316.7,196.9)" />
<use xlink:href="#f1_1x" transform="matrix(12,0,0,12,322.5,196.9)" />
<use xlink:href="#f1_1k" transform="matrix(12,0,0,12,331.7,196.9)" />
<use xlink:href="#f1_l" transform="matrix(12,0,0,12,341.2,196.9)" />
<use xlink:href="#f0_2" transform="matrix(12,0,0,12,121.2,237)" />
<use xlink:href="#f1_1m" transform="matrix(12,0,0,12,127.7,237)" />
<use xlink:href="#f1_4" transform="matrix(12,0,0,12,139.6,237)" />
<use xlink:href="#f1_p" transform="matrix(12,0,0,12,150.9,237)" />
<use xlink:href="#f1_4" transform="matrix(12,0,0,12,168.8,237)" />
<use xlink:href="#f1_p" transform="matrix(12,0,0,12,180.1,237)" />
<use xlink:href="#f1_n" transform="matrix(12,0,0,12,197.9,237)" />
<use xlink:href="#f1_4" transform="matrix(12,0,0,12,209.5,237)" />
<use xlink:href="#f1_8" transform="matrix(12,0,0,12,220.8,237)" />
<use xlink:href="#f1_q" transform="matrix(12,0,0,12,228.3,237)" />
<use xlink:href="#f1_7" transform="matrix(12,0,0,12,239.9,237)" />
<use xlink:href="#f1_6" transform="matrix(12,0,0,12,245.1,237)" />
<use xlink:href="#f1_t" transform="matrix(12,0,0,12,257.3,237)" />
<use xlink:href="#f1_c" transform="matrix(12,0,0,12,268.2,237)" />
<use xlink:href="#f1_r" transform="matrix(12,0,0,12,279.3,237)" />
<use xlink:href="#f1_r" transform="matrix(12,0,0,12,296.9,237)" />
<use xlink:href="#f1_9" transform="matrix(12,0,0,12,308.3,237)" />
<use xlink:href="#f1_4" transform="matrix(12,0,0,12,317.9,237)" />
<use xlink:href="#f1_g" transform="matrix(12,0,0,12,335.1,237)" />
<use xlink:href="#f1_1s" transform="matrix(12,0,0,12,352.2,237)" />
<use xlink:href="#f1_7" transform="matrix(12,0,0,12,369.9,237)" />
<use xlink:href="#f1_i" transform="matrix(12,0,0,12,374.9,237)" />
<use xlink:href="#f1_j" transform="matrix(12,0,0,12,380,237)" />
<use xlink:href="#f1_o" transform="matrix(12,0,0,12,391.6,237)" />
<use xlink:href="#f1_g" transform="matrix(12,0,0,12,401.6,237)" />
<use xlink:href="#f1_8" transform="matrix(12,0,0,12,412.9,237)" />
<use xlink:href="#f1_j" transform="matrix(12,0,0,12,420.1,237)" />
<use xlink:href="#f1_d" transform="matrix(12,0,0,12,437.7,237)" />
<use xlink:href="#f1_b" transform="matrix(12,0,0,12,450.2,237)" />
<use xlink:href="#f1_b" transform="matrix(12,0,0,12,461.8,237)" />
<use xlink:href="#f1_z" transform="matrix(12,0,0,12,479.4,237)" />
<use xlink:href="#f1_15" transform="matrix(12,0,0,12,484.7,237)" />
<use xlink:href="#f1_q" transform="matrix(12,0,0,12,498.8,237)" />
<use xlink:href="#f1_t" transform="matrix(12,0,0,12,510.5,237)" />
<use xlink:href="#f1_c" transform="matrix(12,0,0,12,521.4,237)" />
<use xlink:href="#f1_r" transform="matrix(12,0,0,12,532.5,237)" />
<use xlink:href="#f1_y" transform="matrix(12,0,0,12,549.9,237)" />
<use xlink:href="#f1_c" transform="matrix(12,0,0,12,565,237)" />
<use xlink:href="#f1_h" transform="matrix(12,0,0,12,576.2,237)" />
<use xlink:href="#f1_11" transform="matrix(12,0,0,12,587.8,237)" />
<use xlink:href="#f1_a" transform="matrix(12,0,0,12,593.6,237)" />
<use xlink:href="#f1_n" transform="matrix(12,0,0,12,606.7,237)" />
<use xlink:href="#f1_4" transform="matrix(12,0,0,12,618.3,237)" />
<use xlink:href="#f1_g" transform="matrix(12,0,0,12,635.4,237)" />
<use xlink:href="#f1_n" transform="matrix(12,0,0,12,646.6,237)" />
<use xlink:href="#f1_i" transform="matrix(12,0,0,12,658.2,237)" />
<use xlink:href="#f1_4" transform="matrix(12,0,0,12,663.2,237)" />
<use xlink:href="#f1_a" transform="matrix(12,0,0,12,680.5,237)" />
<use xlink:href="#f1_c" transform="matrix(12,0,0,12,687.7,237)" />
<use xlink:href="#f1_r" transform="matrix(12,0,0,12,704.6,237)" />
<use xlink:href="#f1_9" transform="matrix(12,0,0,12,716.2,237)" />
<use xlink:href="#f1_4" transform="matrix(12,0,0,12,725.8,237)" />
<use xlink:href="#f1_g" transform="matrix(12,0,0,12,742.9,237)" />
<use xlink:href="#f1_h" transform="matrix(12,0,0,12,754.2,237)" />
<use xlink:href="#f1_t" transform="matrix(12,0,0,12,765.8,237)" />
<use xlink:href="#f1_c" transform="matrix(12,0,0,12,782.5,237)" />
<use xlink:href="#f1_6" transform="matrix(12,0,0,12,793.6,237)" />
<use xlink:href="#f1_a" transform="matrix(12,0,0,12,121.2,265.7)" />
<use xlink:href="#f1_3" transform="matrix(12,0,0,12,128.3,265.7)" />
<use xlink:href="#f1_4" transform="matrix(12,0,0,12,139.9,265.7)" />
<use xlink:href="#f1_h" transform="matrix(12,0,0,12,157,265.7)" />
<use xlink:href="#f1_4" transform="matrix(12,0,0,12,168.7,265.7)" />
<use xlink:href="#f1_g" transform="matrix(12,0,0,12,179.9,265.7)" />
<use xlink:href="#f1_a" transform="matrix(12,0,0,12,191.2,265.7)" />
<use xlink:href="#f1_9" transform="matrix(12,0,0,12,204.2,265.7)" />
<use xlink:href="#f1_4" transform="matrix(12,0,0,12,213.8,265.7)" />
<use xlink:href="#f1_8" transform="matrix(12,0,0,12,225.1,265.7)" />
<use xlink:href="#f1_k" transform="matrix(12,0,0,12,232.6,265.7)" />
<use xlink:href="#f1_7" transform="matrix(12,0,0,12,243.5,265.7)" />
<use xlink:href="#f1_o" transform="matrix(12,0,0,12,248.5,265.7)" />
<use xlink:href="#f1_4" transform="matrix(12,0,0,12,258.6,265.7)" />
<use xlink:href="#f1_9" transform="matrix(12,0,0,12,269.7,265.7)" />
<use xlink:href="#f1_h" transform="matrix(12,0,0,12,285.3,265.7)" />
<use xlink:href="#f1_c" transform="matrix(12,0,0,12,296.9,265.7)" />
<use xlink:href="#f1_8" transform="matrix(12,0,0,12,308,265.7)" />
<use xlink:href="#f1_p" transform="matrix(12,0,0,12,315.2,265.7)" />
<use xlink:href="#f1_g" transform="matrix(12,0,0,12,333,265.7)" />
<use xlink:href="#f1_i" transform="matrix(12,0,0,12,344.3,265.7)" />
<use xlink:href="#f1_i" transform="matrix(12,0,0,12,349.4,265.7)" />
<use xlink:href="#f1_t" transform="matrix(12,0,0,12,354.4,265.7)" />
<use xlink:href="#f1_g" transform="matrix(12,0,0,12,371.2,265.7)" />
<use xlink:href="#f1_k" transform="matrix(12,0,0,12,382.3,265.7)" />
<use xlink:href="#f1_g" transform="matrix(12,0,0,12,393.2,265.7)" />
<use xlink:href="#f1_7" transform="matrix(12,0,0,12,404.5,265.7)" />
<use xlink:href="#f1_i" transform="matrix(12,0,0,12,409.5,265.7)" />
<use xlink:href="#f1_g" transform="matrix(12,0,0,12,414.6,265.7)" />
<use xlink:href="#f1_n" transform="matrix(12,0,0,12,425.9,265.7)" />
<use xlink:href="#f1_i" transform="matrix(12,0,0,12,437.5,265.7)" />
<use xlink:href="#f1_4" transform="matrix(12,0,0,12,442.5,265.7)" />
<use xlink:href="#f1_q" transform="matrix(12,0,0,12,453.8,265.7)" />
<use xlink:href="#f1_9" transform="matrix(12,0,0,12,465.4,265.7)" />
<use xlink:href="#f1_r" transform="matrix(12,0,0,12,475,265.7)" />
<use xlink:href="#f1_o" transform="matrix(12,0,0,12,486.6,265.7)" />
<use xlink:href="#f1_3" transform="matrix(12,0,0,12,496.7,265.7)" />
<use xlink:href="#f1_g" transform="matrix(12,0,0,12,514.1,265.7)" />
<use xlink:href="#f1_9" transform="matrix(12,0,0,12,525.4,265.7)" />
<use xlink:href="#f1_b" transform="matrix(12,0,0,12,540.7,265.7)" />
<use xlink:href="#f1_r" transform="matrix(12,0,0,12,552.3,265.7)" />
<use xlink:href="#f1_9" transform="matrix(12,0,0,12,563.9,265.7)" />
<use xlink:href="#f1_3" transform="matrix(12,0,0,12,573.5,265.7)" />
<use xlink:href="#f1_h" transform="matrix(12,0,0,12,590.9,265.7)" />
<use xlink:href="#f1_c" transform="matrix(12,0,0,12,602.5,265.7)" />
<use xlink:href="#f1_a" transform="matrix(12,0,0,12,613.8,265.7)" />
<use xlink:href="#f1_7" transform="matrix(12,0,0,12,621,265.7)" />
<use xlink:href="#f1_6" transform="matrix(12,0,0,12,626.1,265.7)" />
<use xlink:href="#f1_7" transform="matrix(12,0,0,12,632.5,265.7)" />
<use xlink:href="#f1_o" transform="matrix(12,0,0,12,637.5,265.7)" />
<use xlink:href="#f1_g" transform="matrix(12,0,0,12,647.6,265.7)" />
<use xlink:href="#f1_a" transform="matrix(12,0,0,12,658.9,265.7)" />
<use xlink:href="#f1_7" transform="matrix(12,0,0,12,666.1,265.7)" />
<use xlink:href="#f1_c" transform="matrix(12,0,0,12,671.2,265.7)" />
<use xlink:href="#f1_h" transform="matrix(12,0,0,12,682.4,265.7)" />
<use xlink:href="#f1_9" transform="matrix(12,0,0,12,694,265.7)" />
<use xlink:href="#f1_c" transform="matrix(12,0,0,12,709.4,265.7)" />
<use xlink:href="#f1_8" transform="matrix(12,0,0,12,720.5,265.7)" />
<use xlink:href="#f1_7" transform="matrix(12,0,0,12,734,265.7)" />
<use xlink:href="#f1_h" transform="matrix(12,0,0,12,739,265.7)" />
<use xlink:href="#f1_1n" transform="matrix(12,0,0,12,750.6,265.7)" />
<use xlink:href="#f1_g" transform="matrix(12,0,0,12,757.3,265.7)" />
<use xlink:href="#f1_b" transform="matrix(12,0,0,12,768.5,265.7)" />
<use xlink:href="#f1_b" transform="matrix(12,0,0,12,780.1,265.7)" />
<use xlink:href="#f1_b" transform="matrix(12,0,0,12,121.2,294.2)" />
<use xlink:href="#f1_r" transform="matrix(12,0,0,12,132.8,294.2)" />
<use xlink:href="#f1_8" transform="matrix(12,0,0,12,144.5,294.2)" />
<use xlink:href="#f1_o" transform="matrix(12,0,0,12,151.5,294.2)" />
<use xlink:href="#f1_3" transform="matrix(12,0,0,12,161.6,294.2)" />
<use xlink:href="#f1_g" transform="matrix(12,0,0,12,173.2,294.2)" />
<use xlink:href="#f1_9" transform="matrix(12,0,0,12,184.3,294.2)" />
<use xlink:href="#f1_4" transform="matrix(12,0,0,12,194,294.2)" />
<use xlink:href="#f1_9" transform="matrix(12,0,0,12,205.2,294.2)" />
<use xlink:href="#f1_l" transform="matrix(12,0,0,12,214.9,294.2)" />
<use xlink:href="#f1_x" transform="matrix(12,0,0,12,226.5,294.2)" />
<use xlink:href="#f1_c" transform="matrix(12,0,0,12,235.2,294.2)" />
<use xlink:href="#f1_r" transform="matrix(12,0,0,12,246.3,294.2)" />
<use xlink:href="#f1_p" transform="matrix(12,0,0,12,263.9,294.2)" />
<use xlink:href="#f1_7" transform="matrix(12,0,0,12,281.8,294.2)" />
<use xlink:href="#f1_f" transform="matrix(12,0,0,12,286.8,294.2)" />
<use xlink:href="#f1_3" transform="matrix(12,0,0,12,298.4,294.2)" />
<use xlink:href="#f1_a" transform="matrix(12,0,0,12,310,294.2)" />
<use xlink:href="#f1_h" transform="matrix(12,0,0,12,323.1,294.2)" />
<use xlink:href="#f1_c" transform="matrix(12,0,0,12,334.7,294.2)" />
<use xlink:href="#f1_a" transform="matrix(12,0,0,12,345.9,294.2)" />
<use xlink:href="#f1_b" transform="matrix(12,0,0,12,359,294.2)" />
<use xlink:href="#f1_i" transform="matrix(12,0,0,12,370.6,294.2)" />
<use xlink:href="#f1_g" transform="matrix(12,0,0,12,375.7,294.2)" />
<use xlink:href="#f1_h" transform="matrix(12,0,0,12,386.9,294.2)" />
<use xlink:href="#f1_a" transform="matrix(12,0,0,12,404.4,294.2)" />
<use xlink:href="#f1_c" transform="matrix(12,0,0,12,411.6,294.2)" />
<use xlink:href="#f1_r" transform="matrix(12,0,0,12,428.5,294.2)" />
<use xlink:href="#f1_9" transform="matrix(12,0,0,12,440.1,294.2)" />
<use xlink:href="#f1_4" transform="matrix(12,0,0,12,449.7,294.2)" />
<use xlink:href="#f1_a" transform="matrix(12,0,0,12,466.8,294.2)" />
<use xlink:href="#f1_3" transform="matrix(12,0,0,12,474,294.2)" />
<use xlink:href="#f1_4" transform="matrix(12,0,0,12,485.6,294.2)" />
<use xlink:href="#f1_9" transform="matrix(12,0,0,12,496.9,294.2)" />
<use xlink:href="#f1_4" transform="matrix(12,0,0,12,506.4,294.2)" />
<use xlink:href="#f1_9" transform="matrix(12,0,0,12,523.6,294.2)" />
<use xlink:href="#f1_4" transform="matrix(12,0,0,12,533.1,294.2)" />
<use xlink:href="#f1_8" transform="matrix(12,0,0,12,544.4,294.2)" />
<use xlink:href="#f1_k" transform="matrix(12,0,0,12,551.9,294.2)" />
<use xlink:href="#f1_7" transform="matrix(12,0,0,12,562.7,294.2)" />
<use xlink:href="#f1_o" transform="matrix(12,0,0,12,567.8,294.2)" />
<use xlink:href="#f1_4" transform="matrix(12,0,0,12,577.8,294.2)" />
<use xlink:href="#f1_9" transform="matrix(12,0,0,12,589.1,294.2)" />
<use xlink:href="#f1_h" transform="matrix(12,0,0,12,604.5,294.2)" />
<use xlink:href="#f1_c" transform="matrix(12,0,0,12,616.1,294.2)" />
<use xlink:href="#f1_y" transform="matrix(12,0,0,12,627.3,294.2)" />
<use xlink:href="#f1_q" transform="matrix(12,0,0,12,642.3,294.2)" />
<use xlink:href="#f1_n" transform="matrix(12,0,0,12,654,294.2)" />
<use xlink:href="#f1_r" transform="matrix(12,0,0,12,665.6,294.2)" />
<use xlink:href="#f1_a" transform="matrix(12,0,0,12,677.2,294.2)" />
<use xlink:href="#f1_7" transform="matrix(12,0,0,12,690.3,294.2)" />
<use xlink:href="#f1_6" transform="matrix(12,0,0,12,695.4,294.2)" />
<use xlink:href="#f1_t" transform="matrix(12,0,0,12,707.6,294.2)" />
<use xlink:href="#f1_c" transform="matrix(12,0,0,12,718.5,294.2)" />
<use xlink:href="#f1_r" transform="matrix(12,0,0,12,729.6,294.2)" />
<use xlink:href="#f1_o" transform="matrix(12,0,0,12,747.2,294.2)" />
<use xlink:href="#f1_3" transform="matrix(12,0,0,12,757.2,294.2)" />
<use xlink:href="#f1_g" transform="matrix(12,0,0,12,768.8,294.2)" />
<use xlink:href="#f1_h" transform="matrix(12,0,0,12,780.1,294.2)" />
<use xlink:href="#f1_f" transform="matrix(12,0,0,12,791.7,294.2)" />
<use xlink:href="#f1_4" transform="matrix(12,0,0,12,803.3,294.2)" />
<use xlink:href="#f1_t" transform="matrix(12,0,0,12,121.2,323)" />
<use xlink:href="#f1_c" transform="matrix(12,0,0,12,132,323)" />
<use xlink:href="#f1_r" transform="matrix(12,0,0,12,143.1,323)" />
<use xlink:href="#f1_8" transform="matrix(12,0,0,12,154.9,323)" />
<use xlink:href="#f1_p" transform="matrix(12,0,0,12,168.2,323)" />
<use xlink:href="#f1_7" transform="matrix(12,0,0,12,186,323)" />
<use xlink:href="#f1_h" transform="matrix(12,0,0,12,191.1,323)" />
<use xlink:href="#f1_j" transform="matrix(12,0,0,12,202.7,323)" />
<use xlink:href="#f1_q" transform="matrix(12,0,0,12,214.3,323)" />
<use xlink:href="#f1_t" transform="matrix(12,0,0,12,226,323)" />
<use xlink:href="#f1_c" transform="matrix(12,0,0,12,236.9,323)" />
<use xlink:href="#f1_r" transform="matrix(12,0,0,12,248,323)" />
<use xlink:href="#f1_y" transform="matrix(12,0,0,12,265.6,323)" />
<use xlink:href="#f1_c" transform="matrix(12,0,0,12,280.6,323)" />
<use xlink:href="#f1_h" transform="matrix(12,0,0,12,291.7,323)" />
<use xlink:href="#f1_11" transform="matrix(12,0,0,12,303.3,323)" />
<use xlink:href="#f1_a" transform="matrix(12,0,0,12,309.1,323)" />
<use xlink:href="#f1_n" transform="matrix(12,0,0,12,322.3,323)" />
<use xlink:href="#f1_4" transform="matrix(12,0,0,12,333.9,323)" />
<use xlink:href="#f1_g" transform="matrix(12,0,0,12,351,323)" />
<use xlink:href="#f1_n" transform="matrix(12,0,0,12,362.3,323)" />
<use xlink:href="#f1_i" transform="matrix(12,0,0,12,373.9,323)" />
<use xlink:href="#f1_4" transform="matrix(12,0,0,12,378.9,323)" />
<use xlink:href="#f1_a" transform="matrix(12,0,0,12,396,323)" />
<use xlink:href="#f1_c" transform="matrix(12,0,0,12,403.2,323)" />
<use xlink:href="#f1_o" transform="matrix(12,0,0,12,420.3,323)" />
<use xlink:href="#f1_3" transform="matrix(12,0,0,12,430.4,323)" />
<use xlink:href="#f1_g" transform="matrix(12,0,0,12,441.8,323)" />
<use xlink:href="#f1_h" transform="matrix(12,0,0,12,453.1,323)" />
<use xlink:href="#f1_f" transform="matrix(12,0,0,12,464.7,323)" />
<use xlink:href="#f1_4" transform="matrix(12,0,0,12,476.3,323)" />
<use xlink:href="#f1_t" transform="matrix(12,0,0,12,493.6,323)" />
<use xlink:href="#f1_c" transform="matrix(12,0,0,12,504.4,323)" />
<use xlink:href="#f1_r" transform="matrix(12,0,0,12,515.5,323)" />
<use xlink:href="#f1_8" transform="matrix(12,0,0,12,527.1,323)" />
<use xlink:href="#f1_d" transform="matrix(12,0,0,12,540.6,323)" />
<use xlink:href="#f1_b" transform="matrix(12,0,0,12,553.1,323)" />
<use xlink:href="#f1_b" transform="matrix(12,0,0,12,564.7,323)" />
<use xlink:href="#f1_z" transform="matrix(12,0,0,12,582.1,323)" />
<use xlink:href="#f1_15" transform="matrix(12,0,0,12,587.5,323)" />
<use xlink:href="#f1_y" transform="matrix(12,0,0,12,607.5,323)" />
<use xlink:href="#f1_7" transform="matrix(12,0,0,12,622.4,323)" />
<use xlink:href="#f1_a" transform="matrix(12,0,0,12,627.5,323)" />
<use xlink:href="#f1_3" transform="matrix(12,0,0,12,634.7,323)" />
<use xlink:href="#f1_c" transform="matrix(12,0,0,12,646.4,323)" />
<use xlink:href="#f1_r" transform="matrix(12,0,0,12,657.6,323)" />
<use xlink:href="#f1_a" transform="matrix(12,0,0,12,669.2,323)" />
<use xlink:href="#f1_o" transform="matrix(12,0,0,12,682.3,323)" />
<use xlink:href="#f1_8" transform="matrix(12,0,0,12,692.4,323)" />
<use xlink:href="#f1_4" transform="matrix(12,0,0,12,699.4,323)" />
<use xlink:href="#f1_g" transform="matrix(12,0,0,12,710.7,323)" />
<use xlink:href="#f1_a" transform="matrix(12,0,0,12,722,323)" />
<use xlink:href="#f1_7" transform="matrix(12,0,0,12,729.2,323)" />
<use xlink:href="#f1_h" transform="matrix(12,0,0,12,734.2,323)" />
<use xlink:href="#f1_f" transform="matrix(12,0,0,12,745.8,323)" />
<use xlink:href="#f1_g" transform="matrix(12,0,0,12,763.2,323)" />
<use xlink:href="#f1_h" transform="matrix(12,0,0,12,780.3,323)" />
<use xlink:href="#f1_4" transform="matrix(12,0,0,12,791.9,323)" />
<use xlink:href="#f1_y" transform="matrix(12,0,0,12,803.2,323)" />
<use xlink:href="#f1_g" transform="matrix(12,0,0,12,121.2,351.5)" />
<use xlink:href="#f1_b" transform="matrix(12,0,0,12,132.4,351.5)" />
<use xlink:href="#f1_b" transform="matrix(12,0,0,12,144.1,351.5)" />
<use xlink:href="#f1_l" transform="matrix(12,0,0,12,155.7,351.5)" />
<use xlink:href="#f1_m" transform="matrix(12,0,0,12,86.8,391.7)" />
<use xlink:href="#f1_c" transform="matrix(12,0,0,12,100.5,391.7)" />
<use xlink:href="#f1_y" transform="matrix(12,0,0,12,111.7,391.7)" />
<use xlink:href="#f1_a" transform="matrix(12,0,0,12,132.6,391.7)" />
<use xlink:href="#f1_3" transform="matrix(12,0,0,12,139.8,391.7)" />
<use xlink:href="#f1_g" transform="matrix(12,0,0,12,151.2,391.7)" />
<use xlink:href="#f1_a" transform="matrix(12,0,0,12,162.5,391.7)" />
<use xlink:href="#f1_t" transform="matrix(12,0,0,12,175.6,391.7)" />
<use xlink:href="#f1_c" transform="matrix(12,0,0,12,186.5,391.7)" />
<use xlink:href="#f1_r" transform="matrix(12,0,0,12,197.6,391.7)" />
<use xlink:href="#f1_10" transform="matrix(12,0,0,12,215,391.7)" />
<use xlink:href="#f1_h" transform="matrix(12,0,0,12,225.7,391.7)" />
<use xlink:href="#f1_c" transform="matrix(12,0,0,12,237.3,391.7)" />
<use xlink:href="#f1_y" transform="matrix(12,0,0,12,248.5,391.7)" />
<use xlink:href="#f1_g" transform="matrix(12,0,0,12,269.4,391.7)" />
<use xlink:href="#f1_i" transform="matrix(12,0,0,12,280.7,391.7)" />
<use xlink:href="#f1_i" transform="matrix(12,0,0,12,285.7,391.7)" />
<use xlink:href="#f1_g" transform="matrix(12,0,0,12,296.6,391.7)" />
<use xlink:href="#f1_n" transform="matrix(12,0,0,12,307.9,391.7)" />
<use xlink:href="#f1_c" transform="matrix(12,0,0,12,319.5,391.7)" />
<use xlink:href="#f1_r" transform="matrix(12,0,0,12,330.6,391.7)" />
<use xlink:href="#f1_a" transform="matrix(12,0,0,12,342.2,391.7)" />
<use xlink:href="#f1_d" transform="matrix(12,0,0,12,355.2,391.7)" />
<use xlink:href="#f1_b" transform="matrix(12,0,0,12,367.7,391.7)" />
<use xlink:href="#f1_b" transform="matrix(12,0,0,12,379.3,391.7)" />
<use xlink:href="#f1_z" transform="matrix(12,0,0,12,396.9,391.7)" />
<use xlink:href="#f1_15" transform="matrix(12,0,0,12,402.3,391.7)" />
<use xlink:href="#f1_9" transform="matrix(12,0,0,12,416.3,391.7)" />
<use xlink:href="#f1_q" transform="matrix(12,0,0,12,425.9,391.7)" />
<use xlink:href="#f1_7" transform="matrix(12,0,0,12,437.7,391.7)" />
<use xlink:href="#f1_a" transform="matrix(12,0,0,12,442.7,391.7)" />
<use xlink:href="#f1_11" transform="matrix(12,0,0,12,449.9,391.7)" />
<use xlink:href="#f1_9" transform="matrix(12,0,0,12,455.7,391.7)" />
<use xlink:href="#f1_a" transform="matrix(12,0,0,12,471.1,391.7)" />
<use xlink:href="#f1_7" transform="matrix(12,0,0,12,478.3,391.7)" />
<use xlink:href="#f1_p" transform="matrix(12,0,0,12,483.4,391.7)" />
<use xlink:href="#f1_4" transform="matrix(12,0,0,12,501.2,391.7)" />
<use xlink:href="#f1_a" transform="matrix(12,0,0,12,518.3,391.7)" />
<use xlink:href="#f1_c" transform="matrix(12,0,0,12,525.5,391.7)" />
<use xlink:href="#f1_o" transform="matrix(12,0,0,12,542.6,391.7)" />
<use xlink:href="#f1_8" transform="matrix(12,0,0,12,552.7,391.7)" />
<use xlink:href="#f1_4" transform="matrix(12,0,0,12,559.7,391.7)" />
<use xlink:href="#f1_g" transform="matrix(12,0,0,12,571,391.7)" />
<use xlink:href="#f1_a" transform="matrix(12,0,0,12,582.3,391.7)" />
<use xlink:href="#f1_4" transform="matrix(12,0,0,12,589.5,391.7)" />
<use xlink:href="#f1_c" transform="matrix(12,0,0,12,606.6,391.7)" />
<use xlink:href="#f1_h" transform="matrix(12,0,0,12,617.7,391.7)" />
<use xlink:href="#f1_4" transform="matrix(12,0,0,12,629.3,391.7)" />
<use xlink:href="#f1_l" transform="matrix(12,0,0,12,640.6,391.7)" />
<use xlink:href="#f1_13" transform="matrix(12,0,0,12,652.4,391.7)" />
<use xlink:href="#f1_h" transform="matrix(12,0,0,12,666.7,391.7)" />
<use xlink:href="#f1_a" transform="matrix(12,0,0,12,684.2,391.7)" />
<use xlink:href="#f1_3" transform="matrix(12,0,0,12,691.3,391.7)" />
<use xlink:href="#f1_4" transform="matrix(12,0,0,12,702.9,391.7)" />
<use xlink:href="#f1_8" transform="matrix(12,0,0,12,720.2,391.7)" />
<use xlink:href="#f1_7" transform="matrix(12,0,0,12,727.7,391.7)" />
<use xlink:href="#f1_f" transform="matrix(12,0,0,12,732.7,391.7)" />
<use xlink:href="#f1_3" transform="matrix(12,0,0,12,744.3,391.7)" />
<use xlink:href="#f1_a" transform="matrix(12,0,0,12,755.9,391.7)" />
<use xlink:href="#f1_9" transform="matrix(12,0,0,12,769,391.7)" />
<use xlink:href="#f1_7" transform="matrix(12,0,0,12,778.6,391.7)" />
<use xlink:href="#f1_j" transform="matrix(12,0,0,12,783.7,391.7)" />
<use xlink:href="#f1_4" transform="matrix(12,0,0,12,795.3,391.7)" />
<use xlink:href="#f1_c" transform="matrix(12,0,0,12,86.8,420.3)" />
<use xlink:href="#f1_6" transform="matrix(12,0,0,12,97.9,420.3)" />
<use xlink:href="#f1_a" transform="matrix(12,0,0,12,110.3,420.3)" />
<use xlink:href="#f1_3" transform="matrix(12,0,0,12,117.5,420.3)" />
<use xlink:href="#f1_4" transform="matrix(12,0,0,12,129.1,420.3)" />
<use xlink:href="#f1_9" transform="matrix(12,0,0,12,146.2,420.3)" />
<use xlink:href="#f1_o" transform="matrix(12,0,0,12,155.8,420.3)" />
<use xlink:href="#f1_8" transform="matrix(12,0,0,12,165.8,420.3)" />
<use xlink:href="#f1_4" transform="matrix(12,0,0,12,172.9,420.3)" />
<use xlink:href="#f1_4" transform="matrix(12,0,0,12,184.2,420.3)" />
<use xlink:href="#f1_h" transform="matrix(12,0,0,12,195.5,420.3)" />
<use xlink:href="#f1_o" transform="matrix(12,0,0,12,212.9,420.3)" />
<use xlink:href="#f1_i" transform="matrix(12,0,0,12,222.9,420.3)" />
<use xlink:href="#f1_7" transform="matrix(12,0,0,12,228.1,420.3)" />
<use xlink:href="#f1_o" transform="matrix(12,0,0,12,233.2,420.3)" />
<use xlink:href="#f1_10" transform="matrix(12,0,0,12,243.2,420.3)" />
</g>
<g fill="#0000FF" >
<use xlink:href="#f2_1a" transform="matrix(12,0,0,12,254.1,420.3)" />
<use xlink:href="#f1_12" transform="matrix(12,0,0,12,269.3,420.3)" />
</g>
<g fill="#000000" >
<use xlink:href="#f1_16" transform="matrix(12,0,0,12,86.8,893.9)" />
<use xlink:href="#f1_7" transform="matrix(12,0,0,12,95.9,893.9)" />
<use xlink:href="#f1_i" transform="matrix(12,0,0,12,101.1,893.9)" />
<use xlink:href="#f1_i" transform="matrix(12,0,0,12,106.2,893.9)" />
<use xlink:href="#f1_c" transform="matrix(12,0,0,12,117.1,893.9)" />
<use xlink:href="#f1_r" transform="matrix(12,0,0,12,128.3,893.9)" />
<use xlink:href="#f1_a" transform="matrix(12,0,0,12,139.9,893.9)" />
<use xlink:href="#f1_a" transform="matrix(12,0,0,12,152.9,893.9)" />
<use xlink:href="#f1_3" transform="matrix(12,0,0,12,160.1,893.9)" />
<use xlink:href="#f1_4" transform="matrix(12,0,0,12,171.7,893.9)" />
<use xlink:href="#f1_j" transform="matrix(12,0,0,12,188.9,893.9)" />
<use xlink:href="#f1_4" transform="matrix(12,0,0,12,200.5,893.9)" />
<use xlink:href="#f1_9" transform="matrix(12,0,0,12,211.7,893.9)" />
<use xlink:href="#f1_o" transform="matrix(12,0,0,12,221.3,893.9)" />
<use xlink:href="#f1_8" transform="matrix(12,0,0,12,231.3,893.9)" />
<use xlink:href="#f1_7" transform="matrix(12,0,0,12,238.8,893.9)" />
<use xlink:href="#f1_b" transform="matrix(12,0,0,12,243.9,893.9)" />
<use xlink:href="#f1_a" transform="matrix(12,0,0,12,255.6,893.9)" />
<use xlink:href="#f1_7" transform="matrix(12,0,0,12,262.8,893.9)" />
<use xlink:href="#f1_c" transform="matrix(12,0,0,12,267.8,893.9)" />
<use xlink:href="#f1_h" transform="matrix(12,0,0,12,279,893.9)" />
<use xlink:href="#f1_1d" transform="matrix(12,0,0,12,296.5,893.9)" />
<use xlink:href="#f1_r" transform="matrix(12,0,0,12,303.7,893.9)" />
<use xlink:href="#f1_9" transform="matrix(12,0,0,12,315.2,893.9)" />
<use xlink:href="#f1_r" transform="matrix(12,0,0,12,324.8,893.9)" />
<use xlink:href="#f1_g" transform="matrix(12,0,0,12,336.4,893.9)" />
<use xlink:href="#f1_i" transform="matrix(12,0,0,12,347.7,893.9)" />
<use xlink:href="#f1_i" transform="matrix(12,0,0,12,352.7,893.9)" />
<use xlink:href="#f1_t" transform="matrix(12,0,0,12,357.8,893.9)" />
<use xlink:href="#f1_19" transform="matrix(12,0,0,12,374.6,893.9)" />
<use xlink:href="#f1_r" transform="matrix(12,0,0,12,379.6,893.9)" />
<use xlink:href="#f1_9" transform="matrix(12,0,0,12,391.2,893.9)" />
<use xlink:href="#f1_a" transform="matrix(12,0,0,12,400.8,893.9)" />
<use xlink:href="#f1_t" transform="matrix(12,0,0,12,413.8,893.9)" />
<use xlink:href="#f1_c" transform="matrix(12,0,0,12,424.6,893.9)" />
<use xlink:href="#f1_r" transform="matrix(12,0,0,12,435.8,893.9)" />
<use xlink:href="#f1_8" transform="matrix(12,0,0,12,447.4,893.9)" />
<use xlink:href="#f1_g" transform="matrix(12,0,0,12,460.8,893.9)" />
<use xlink:href="#f1_b" transform="matrix(12,0,0,12,472.1,893.9)" />
<use xlink:href="#f1_b" transform="matrix(12,0,0,12,483.7,893.9)" />
<use xlink:href="#f1_11" transform="matrix(12,0,0,12,495.3,893.9)" />
<use xlink:href="#f1_9" transform="matrix(12,0,0,12,501.1,893.9)" />
<use xlink:href="#f1_h" transform="matrix(12,0,0,12,516.6,893.9)" />
<use xlink:href="#f1_g" transform="matrix(12,0,0,12,528,893.9)" />
<use xlink:href="#f1_p" transform="matrix(12,0,0,12,539.3,893.9)" />
<use xlink:href="#f1_4" transform="matrix(12,0,0,12,557.2,893.9)" />
<use xlink:href="#f1_1e" transform="matrix(12,0,0,12,568.5,893.9)" />
<use xlink:href="#f1_l" transform="matrix(12,0,0,12,575.6,893.9)" />
<use xlink:href="#f1_2" transform="matrix(12,0,0,12,587.3,893.9)" />
<use xlink:href="#f1_3" transform="matrix(12,0,0,12,598.4,893.9)" />
<use xlink:href="#f1_4" transform="matrix(12,0,0,12,610,893.9)" />
<use xlink:href="#f1_9" transform="matrix(12,0,0,12,627.2,893.9)" />
<use xlink:href="#f1_4" transform="matrix(12,0,0,12,636.7,893.9)" />
<use xlink:href="#f1_4" transform="matrix(12,0,0,12,648,893.9)" />
<use xlink:href="#f1_j" transform="matrix(12,0,0,12,659.3,893.9)" />
<use xlink:href="#f1_z" transform="matrix(12,0,0,12,676.7,893.9)" />
<use xlink:href="#f1_15" transform="matrix(12,0,0,12,682.1,893.9)" />
<use xlink:href="#f1_y" transform="matrix(12,0,0,12,702.1,893.9)" />
<use xlink:href="#f1_7" transform="matrix(12,0,0,12,717.1,893.9)" />
<use xlink:href="#f1_i" transform="matrix(12,0,0,12,722.1,893.9)" />
<use xlink:href="#f1_i" transform="matrix(12,0,0,12,727.3,893.9)" />
<use xlink:href="#f1_r" transform="matrix(12,0,0,12,738.1,893.9)" />
<use xlink:href="#f1_9" transform="matrix(12,0,0,12,749.7,893.9)" />
<use xlink:href="#f1_r" transform="matrix(12,0,0,12,759.3,893.9)" />
<use xlink:href="#f1_g" transform="matrix(12,0,0,12,770.9,893.9)" />
<use xlink:href="#f1_i" transform="matrix(12,0,0,12,782.2,893.9)" />
<use xlink:href="#f1_i" transform="matrix(12,0,0,12,787.3,893.9)" />
<use xlink:href="#f1_t" transform="matrix(12,0,0,12,792.3,893.9)" />
<use xlink:href="#f1_g" transform="matrix(12,0,0,12,86.8,922.5)" />
<use xlink:href="#f1_i" transform="matrix(12,0,0,12,98.1,922.5)" />
<use xlink:href="#f1_y" transform="matrix(12,0,0,12,103.1,922.5)" />
<use xlink:href="#f1_g" transform="matrix(12,0,0,12,118.1,922.5)" />
<use xlink:href="#f1_t" transform="matrix(12,0,0,12,129.4,922.5)" />
<use xlink:href="#f1_9" transform="matrix(12,0,0,12,140.1,922.5)" />
<use xlink:href="#f1_n" transform="matrix(12,0,0,12,155.5,922.5)" />
<use xlink:href="#f1_4" transform="matrix(12,0,0,12,167.1,922.5)" />
<use xlink:href="#f1_t" transform="matrix(12,0,0,12,184.3,922.5)" />
<use xlink:href="#f1_c" transform="matrix(12,0,0,12,195.2,922.5)" />
<use xlink:href="#f1_r" transform="matrix(12,0,0,12,206.3,922.5)" />
<use xlink:href="#f1_8" transform="matrix(12,0,0,12,217.9,922.5)" />
<use xlink:href="#f1_2" transform="matrix(12,0,0,12,231.3,922.5)" />
<use xlink:href="#f1_4" transform="matrix(12,0,0,12,239.3,922.5)" />
<use xlink:href="#f1_g" transform="matrix(12,0,0,12,250.6,922.5)" />
<use xlink:href="#f1_p" transform="matrix(12,0,0,12,261.9,922.5)" />
<use xlink:href="#f1_z" transform="matrix(12,0,0,12,285.5,922.5)" />
<use xlink:href="#f1_15" transform="matrix(12,0,0,12,290.9,922.5)" />
<use xlink:href="#f1_l" transform="matrix(12,0,0,12,304.9,922.5)" />
<use xlink:href="#f1_m" transform="matrix(12,0,0,12,316.7,922.5)" />
<use xlink:href="#f1_c" transform="matrix(12,0,0,12,330.4,922.5)" />
<use xlink:href="#f1_y" transform="matrix(12,0,0,12,341.6,922.5)" />
<use xlink:href="#f1_q" transform="matrix(12,0,0,12,356.6,922.5)" />
<use xlink:href="#f1_p" transform="matrix(12,0,0,12,368.3,922.5)" />
<use xlink:href="#f1_g" transform="matrix(12,0,0,12,386,922.5)" />
<use xlink:href="#f1_10" transform="matrix(12,0,0,12,397.3,922.5)" />
<use xlink:href="#f1_4" transform="matrix(12,0,0,12,407.3,922.5)" />
<use xlink:href="#f1_9" transform="matrix(12,0,0,12,424.4,922.5)" />
<use xlink:href="#f1_r" transform="matrix(12,0,0,12,434,922.5)" />
<use xlink:href="#f1_8" transform="matrix(12,0,0,12,445.6,922.5)" />
<use xlink:href="#f1_4" transform="matrix(12,0,0,12,452.6,922.5)" />
</g>
<g fill="#0000FF" >
<use xlink:href="#f2_w" transform="matrix(12,0,0,12,470.1,922.5)" />
<use xlink:href="#f2_15" transform="matrix(12,0,0,12,482.6,922.5)" />
<use xlink:href="#f2_i" transform="matrix(12,0,0,12,494.4,922.5)" />
<use xlink:href="#f2_j" transform="matrix(12,0,0,12,507.5,922.5)" />
<use xlink:href="#f2_5" transform="matrix(12,0,0,12,513.8,922.5)" />
<use xlink:href="#f2_e" transform="matrix(12,0,0,12,520.1,922.5)" />
<use xlink:href="#f2_5" transform="matrix(12,0,0,12,530.9,922.5)" />
<use xlink:href="#f2_4" transform="matrix(12,0,0,12,537.3,922.5)" />
<use xlink:href="#f2_a" transform="matrix(12,0,0,12,552.4,922.5)" />
<use xlink:href="#f2_i" transform="matrix(12,0,0,12,564.8,922.5)" />
<use xlink:href="#f2_i" transform="matrix(12,0,0,12,577.9,922.5)" />
<use xlink:href="#f2_k" transform="matrix(12,0,0,12,597.3,922.5)" />
<use xlink:href="#f2_l" transform="matrix(12,0,0,12,604.2,922.5)" />
</g>
<g fill="#000000" >
<use xlink:href="#f1_7" transform="matrix(12,0,0,12,625.9,922.5)" />
<use xlink:href="#f1_9" transform="matrix(12,0,0,12,631,922.5)" />
<use xlink:href="#f1_9" transform="matrix(12,0,0,12,646.4,922.5)" />
<use xlink:href="#f1_4" transform="matrix(12,0,0,12,655.9,922.5)" />
<use xlink:href="#f1_i" transform="matrix(12,0,0,12,667.2,922.5)" />
<use xlink:href="#f1_4" transform="matrix(12,0,0,12,672.2,922.5)" />
<use xlink:href="#f1_o" transform="matrix(12,0,0,12,683.5,922.5)" />
<use xlink:href="#f1_a" transform="matrix(12,0,0,12,693.6,922.5)" />
<use xlink:href="#f1_4" transform="matrix(12,0,0,12,700.7,922.5)" />
<use xlink:href="#f1_j" transform="matrix(12,0,0,12,712,922.5)" />
<use xlink:href="#f1_q" transform="matrix(12,0,0,12,723.6,922.5)" />
<use xlink:href="#f1_g" transform="matrix(12,0,0,12,735.4,922.5)" />
<use xlink:href="#f1_h" transform="matrix(12,0,0,12,746.5,922.5)" />
<use xlink:href="#f1_j" transform="matrix(12,0,0,12,758.2,922.5)" />
<use xlink:href="#f1_4" transform="matrix(12,0,0,12,86.8,951.2)" />
<use xlink:href="#f1_h" transform="matrix(12,0,0,12,98.1,951.2)" />
<use xlink:href="#f1_a" transform="matrix(12,0,0,12,109.7,951.2)" />
<use xlink:href="#f1_4" transform="matrix(12,0,0,12,116.9,951.2)" />
<use xlink:href="#f1_8" transform="matrix(12,0,0,12,128.2,951.2)" />
<use xlink:href="#f1_a" transform="matrix(12,0,0,12,141.6,951.2)" />
<use xlink:href="#f1_3" transform="matrix(12,0,0,12,148.8,951.2)" />
<use xlink:href="#f1_4" transform="matrix(12,0,0,12,160.4,951.2)" />
<use xlink:href="#f1_1c" transform="matrix(12,0,0,12,177.5,951.2)" />
<use xlink:href="#f1_r" transform="matrix(12,0,0,12,190,951.2)" />
<use xlink:href="#f1_h" transform="matrix(12,0,0,12,201.6,951.2)" />
<use xlink:href="#f1_j" transform="matrix(12,0,0,12,213.2,951.2)" />
<use xlink:href="#f1_i" transform="matrix(12,0,0,12,224.8,951.2)" />
<use xlink:href="#f1_4" transform="matrix(12,0,0,12,229.9,951.2)" />
<use xlink:href="#f1_z" transform="matrix(12,0,0,12,247.1,951.2)" />
<use xlink:href="#f1_15" transform="matrix(12,0,0,12,252.5,951.2)" />
<use xlink:href="#f1_1y" transform="matrix(12,0,0,12,272.5,951.2)" />
<use xlink:href="#f1_8" transform="matrix(12,0,0,12,287.4,951.2)" />
<use xlink:href="#f1_4" transform="matrix(12,0,0,12,294.5,951.2)" />
<use xlink:href="#f1_p" transform="matrix(12,0,0,12,305.8,951.2)" />
<use xlink:href="#f1_4" transform="matrix(12,0,0,12,323.6,951.2)" />
<use xlink:href="#f1_p" transform="matrix(12,0,0,12,334.9,951.2)" />
<use xlink:href="#f1_n" transform="matrix(12,0,0,12,352.8,951.2)" />
<use xlink:href="#f1_4" transform="matrix(12,0,0,12,364.4,951.2)" />
<use xlink:href="#f1_8" transform="matrix(12,0,0,12,375.7,951.2)" />
<use xlink:href="#f1_7" transform="matrix(12,0,0,12,383.1,951.2)" />
<use xlink:href="#f1_h" transform="matrix(12,0,0,12,388.2,951.2)" />
<use xlink:href="#f1_f" transform="matrix(12,0,0,12,399.9,951.2)" />
<use xlink:href="#f1_a" transform="matrix(12,0,0,12,417.3,951.2)" />
<use xlink:href="#f1_c" transform="matrix(12,0,0,12,424.5,951.2)" />
<use xlink:href="#f1_r" transform="matrix(12,0,0,12,441.6,951.2)" />
<use xlink:href="#f1_9" transform="matrix(12,0,0,12,453.1,951.2)" />
<use xlink:href="#f1_4" transform="matrix(12,0,0,12,462.7,951.2)" />
<use xlink:href="#f1_g" transform="matrix(12,0,0,12,479.8,951.2)" />
<use xlink:href="#f1_8" transform="matrix(12,0,0,12,496.9,951.2)" />
<use xlink:href="#f1_4" transform="matrix(12,0,0,12,503.9,951.2)" />
<use xlink:href="#f1_k" transform="matrix(12,0,0,12,515.2,951.2)" />
<use xlink:href="#f1_4" transform="matrix(12,0,0,12,526.1,951.2)" />
<use xlink:href="#f1_8" transform="matrix(12,0,0,12,537.4,951.2)" />
<use xlink:href="#f1_9" transform="matrix(12,0,0,12,544.8,951.2)" />
<use xlink:href="#f1_4" transform="matrix(12,0,0,12,554.4,951.2)" />
<use xlink:href="#f1_1n" transform="matrix(12,0,0,12,565.7,951.2)" />
<use xlink:href="#f1_j" transform="matrix(12,0,0,12,572.3,951.2)" />
<use xlink:href="#f1_c" transform="matrix(12,0,0,12,584.1,951.2)" />
<use xlink:href="#f1_p" transform="matrix(12,0,0,12,595.2,951.2)" />
<use xlink:href="#f1_g" transform="matrix(12,0,0,12,612.9,951.2)" />
<use xlink:href="#f1_7" transform="matrix(12,0,0,12,624.2,951.2)" />
<use xlink:href="#f1_h" transform="matrix(12,0,0,12,629.3,951.2)" />
<use xlink:href="#f1_h" transform="matrix(12,0,0,12,646.8,951.2)" />
<use xlink:href="#f1_g" transform="matrix(12,0,0,12,658.4,951.2)" />
<use xlink:href="#f1_p" transform="matrix(12,0,0,12,669.7,951.2)" />
<use xlink:href="#f1_4" transform="matrix(12,0,0,12,687.5,951.2)" />
<use xlink:href="#f1_9" transform="matrix(12,0,0,12,704.7,951.2)" />
<use xlink:href="#f1_a" transform="matrix(12,0,0,12,714.2,951.2)" />
<use xlink:href="#f1_t" transform="matrix(12,0,0,12,721.3,951.2)" />
<use xlink:href="#f1_i" transform="matrix(12,0,0,12,732.2,951.2)" />
<use xlink:href="#f1_4" transform="matrix(12,0,0,12,737.2,951.2)" />
<use xlink:href="#f1_9" transform="matrix(12,0,0,12,754.3,951.2)" />
<use xlink:href="#f1_a" transform="matrix(12,0,0,12,763.9,951.2)" />
<use xlink:href="#f1_8" transform="matrix(12,0,0,12,771.1,951.2)" />
<use xlink:href="#f1_7" transform="matrix(12,0,0,12,778.6,951.2)" />
<use xlink:href="#f1_h" transform="matrix(12,0,0,12,783.6,951.2)" />
<use xlink:href="#f1_f" transform="matrix(12,0,0,12,795.3,951.2)" />
<use xlink:href="#f1_6" transform="matrix(12,0,0,12,86.8,979.8)" />
<use xlink:href="#f1_c" transform="matrix(12,0,0,12,93.2,979.8)" />
<use xlink:href="#f1_8" transform="matrix(12,0,0,12,104.5,979.8)" />
<use xlink:href="#f1_a" transform="matrix(12,0,0,12,117.8,979.8)" />
<use xlink:href="#f1_3" transform="matrix(12,0,0,12,125,979.8)" />
<use xlink:href="#f1_7" transform="matrix(12,0,0,12,136.6,979.8)" />
<use xlink:href="#f1_9" transform="matrix(12,0,0,12,141.6,979.8)" />
<use xlink:href="#f1_q" transform="matrix(12,0,0,12,151.2,979.8)" />
<use xlink:href="#f1_7" transform="matrix(12,0,0,12,163,979.8)" />
<use xlink:href="#f1_h" transform="matrix(12,0,0,12,168,979.8)" />
<use xlink:href="#f1_o" transform="matrix(12,0,0,12,179.6,979.8)" />
<use xlink:href="#f1_i" transform="matrix(12,0,0,12,189.7,979.8)" />
<use xlink:href="#f1_r" transform="matrix(12,0,0,12,194.7,979.8)" />
<use xlink:href="#f1_j" transform="matrix(12,0,0,12,206.3,979.8)" />
<use xlink:href="#f1_7" transform="matrix(12,0,0,12,218.1,979.8)" />
<use xlink:href="#f1_h" transform="matrix(12,0,0,12,223.1,979.8)" />
<use xlink:href="#f1_f" transform="matrix(12,0,0,12,234.7,979.8)" />
<use xlink:href="#f1_a" transform="matrix(12,0,0,12,252.3,979.8)" />
<use xlink:href="#f1_3" transform="matrix(12,0,0,12,259.5,979.8)" />
<use xlink:href="#f1_4" transform="matrix(12,0,0,12,271.1,979.8)" />
<use xlink:href="#f1_h" transform="matrix(12,0,0,12,288.2,979.8)" />
<use xlink:href="#f1_g" transform="matrix(12,0,0,12,299.6,979.8)" />
<use xlink:href="#f1_p" transform="matrix(12,0,0,12,310.9,979.8)" />
<use xlink:href="#f1_4" transform="matrix(12,0,0,12,328.8,979.8)" />
<use xlink:href="#f1_c" transform="matrix(12,0,0,12,345.9,979.8)" />
<use xlink:href="#f1_6" transform="matrix(12,0,0,12,357,979.8)" />
<use xlink:href="#f1_a" transform="matrix(12,0,0,12,369.4,979.8)" />
<use xlink:href="#f1_3" transform="matrix(12,0,0,12,376.6,979.8)" />
<use xlink:href="#f1_4" transform="matrix(12,0,0,12,388.2,979.8)" />
<use xlink:href="#f1_g" transform="matrix(12,0,0,12,405.3,979.8)" />
<use xlink:href="#f1_b" transform="matrix(12,0,0,12,416.6,979.8)" />
<use xlink:href="#f1_b" transform="matrix(12,0,0,12,428.2,979.8)" />
<use xlink:href="#f1_g" transform="matrix(12,0,0,12,445.6,979.8)" />
<use xlink:href="#f1_a" transform="matrix(12,0,0,12,456.9,979.8)" />
<use xlink:href="#f1_a" transform="matrix(12,0,0,12,469.9,979.8)" />
<use xlink:href="#f1_3" transform="matrix(12,0,0,12,477.1,979.8)" />
<use xlink:href="#f1_4" transform="matrix(12,0,0,12,488.7,979.8)" />
<use xlink:href="#f1_4" transform="matrix(12,0,0,12,505.8,979.8)" />
<use xlink:href="#f1_h" transform="matrix(12,0,0,12,517.1,979.8)" />
<use xlink:href="#f1_j" transform="matrix(12,0,0,12,528.7,979.8)" />
<use xlink:href="#f1_l" transform="matrix(12,0,0,12,540.3,979.8)" />
<use xlink:href="#f1_18" transform="matrix(12,0,0,12,552,979.8)" />
<use xlink:href="#f1_i" transform="matrix(12,0,0,12,564.9,979.8)" />
<use xlink:href="#f1_7" transform="matrix(12,0,0,12,569.9,979.8)" />
<use xlink:href="#f1_o" transform="matrix(12,0,0,12,574.9,979.8)" />
<use xlink:href="#f1_10" transform="matrix(12,0,0,12,584.9,979.8)" />
</g>
<g fill="#0000FF" >
<use xlink:href="#f2_h" transform="matrix(12,0,0,12,601.8,979.8)" />
<use xlink:href="#f2_f" transform="matrix(12,0,0,12,615.2,979.8)" />
<use xlink:href="#f2_6" transform="matrix(12,0,0,12,627.8,979.8)" />
<use xlink:href="#f2_4" transform="matrix(12,0,0,12,640.9,979.8)" />
<use xlink:href="#f2_5" transform="matrix(12,0,0,12,649.6,979.8)" />
<use xlink:href="#f2_6" transform="matrix(12,0,0,12,655.9,979.8)" />
<use xlink:href="#f2_g" transform="matrix(12,0,0,12,669,979.8)" />
<use xlink:href="#f2_3" transform="matrix(12,0,0,12,682,979.8)" />
</g>
<g fill="#000000" >
<use xlink:href="#f1_y" transform="matrix(12,0,0,12,700.8,979.8)" />
<use xlink:href="#f1_3" transform="matrix(12,0,0,12,715.8,979.8)" />
<use xlink:href="#f1_4" transform="matrix(12,0,0,12,727.4,979.8)" />
<use xlink:href="#f1_h" transform="matrix(12,0,0,12,738.7,979.8)" />
<use xlink:href="#f1_j" transform="matrix(12,0,0,12,756.2,979.8)" />
<use xlink:href="#f1_c" transform="matrix(12,0,0,12,767.8,979.8)" />
<use xlink:href="#f1_h" transform="matrix(12,0,0,12,779,979.8)" />
<use xlink:href="#f1_4" transform="matrix(12,0,0,12,790.6,979.8)" />
<use xlink:href="#f1_12" transform="matrix(12,0,0,12,801.9,979.8)" />
</g>
</g>
<image preserveAspectRatio="none" x="87" y="425" width="736" height="424" xlink:href="img/1.png" />
<defs>
<path d="M257,341c0,0,-82,0,-142,58c0,0,-60,58,-60,141c0,0,0,82,60,140c0,0,60,58,142,58c0,0,82,0,138,-59c0,0,58,-57,58,-139c0,0,0,-84,-57,-141c0,0,-56,-58,-139,-58Z" 
id="f0_2"
transform="scale(0.001,-0.001)" />

<path d="M727,411L522,965L318,411ZM12,0L437,1114H608L1033,0H876L774,286H272L171,0Z" 
id="f1_d"
transform="scale(0.001,-0.001)" />

<path d="M510,93c0,0,109,0,171,86c0,0,62,86,62,238c0,0,0,151,-62,237c0,0,-62,86,-171,86c0,0,-109,0,-171,-86c0,0,-62,-86,-62,-237c0,0,0,-152,62,-238c0,0,62,-86,171,-86ZM139,-317V836H277V709c0,0,43,74,109,110c0,0,66,37,158,37c0,0,152,0,247,-121c0,0,95,-121,95,-318c0,0,0,-197,-95,-318C791,99,696,-20,544,-20c0,0,-92,0,-158,35c0,0,-66,36,-109,110V-317Z" 
id="f1_b"
transform="scale(0.001,-0.001)" />

<path d="M144,0V1161H281V0Z" 
id="f1_i"
transform="scale(0.001,-0.001)" />

<path d="M231,492l491,1c0,0,-2,112,-64,179c0,0,-61,67,-163,67c0,0,-115,0,-184,-65c0,0,-69,-64,-80,-182ZM517,-20c0,0,-199,0,-316,115C201,95,84,211,84,410c0,0,0,205,111,325c0,0,111,121,299,121c0,0,168,0,266,-109c0,0,98,-108,98,-295V385H227c0,0,9,-142,85,-216c0,0,77,-74,213,-74c0,0,80,0,154,19c0,0,74,19,147,58V42C826,42,752,11,675,-4c0,0,-78,-16,-158,-16Z" 
id="f1_4"
transform="scale(0.001,-0.001)" />

<path d="M139,0V836H277V706c0,0,43,76,112,113c0,0,70,37,169,37c0,0,14,0,31,-2c0,0,17,-2,38,-6l1,-141c0,0,-23,14,-51,20c0,0,-27,6,-60,6c0,0,-116,0,-178,-75c0,0,-62,-76,-62,-218V0Z" 
id="f1_8"
transform="scale(0.001,-0.001)" />

<path d="M495,-20c0,0,-189,0,-300,117C195,97,84,216,84,417c0,0,0,204,112,321c0,0,113,118,308,118c0,0,64,0,124,-14c0,0,60,-13,117,-39V675c0,0,-58,32,-117,48c0,0,-58,16,-118,16c0,0,-133,0,-207,-84c0,0,-74,-85,-74,-238c0,0,0,-153,74,-238c0,0,74,-84,207,-84c0,0,60,0,118,16c0,0,59,16,117,48V32C745,32,688,5,626,-7c0,0,-61,-13,-131,-13Z" 
id="f1_o"
transform="scale(0.001,-0.001)" />

<path d="M467,95c0,0,110,0,174,86c0,0,64,87,64,236c0,0,0,148,-64,235c0,0,-64,87,-174,87c0,0,-110,0,-174,-86c0,0,-64,-86,-64,-236c0,0,0,-150,64,-236c0,0,63,-86,174,-86Zm0,-115c0,0,-179,0,-281,115C186,95,84,212,84,417c0,0,0,206,102,322c0,0,102,117,281,117c0,0,179,0,282,-117c0,0,102,-116,102,-322c0,0,0,-205,-102,-322C749,95,646,-20,467,-20Z" 
id="f1_c"
transform="scale(0.001,-0.001)" />

<path d="M139,0V836H277V706c0,0,47,77,112,113c0,0,66,37,156,37c0,0,91,0,155,-47c0,0,64,-46,94,-134c0,0,52,93,123,137c0,0,72,44,169,44c0,0,130,0,201,-92c0,0,71,-91,71,-260V0H1220V500c0,0,0,120,-42,178c0,0,-43,58,-130,58c0,0,-107,0,-169,-71c0,0,-62,-70,-62,-193V0H680V500c0,0,0,121,-43,179c0,0,-42,57,-131,57c0,0,-105,0,-167,-71c0,0,-62,-71,-62,-193V0Z" 
id="f1_p"
transform="scale(0.001,-0.001)" />

<path d="M139,0V836H277V706c0,0,49,75,116,112c0,0,67,38,154,38c0,0,144,0,218,-90c0,0,74,-89,74,-262V0H702V500c0,0,0,119,-46,177c0,0,-47,59,-139,59c0,0,-112,0,-176,-71c0,0,-64,-70,-64,-193V0Z" 
id="f1_h"
transform="scale(0.001,-0.001)" />

<path d="M460,93c0,0,109,0,171,86c0,0,63,86,63,238c0,0,0,151,-63,237c0,0,-62,86,-171,86c0,0,-109,0,-172,-86c0,0,-62,-86,-62,-237c0,0,0,-152,62,-238c0,0,63,-86,172,-86ZM426,-20c0,0,-151,0,-247,119c0,0,-95,121,-95,318c0,0,0,197,95,318c0,0,96,121,247,121c0,0,93,0,159,-37c0,0,66,-36,109,-110v452H831V0H694V125C694,125,651,51,585,15c0,0,-66,-35,-159,-35Z" 
id="f1_j"
transform="scale(0.001,-0.001)" />

<path d="M376,-20c0,0,-67,0,-140,12C236,-8,164,4,83,30V172c0,0,76,-40,150,-59c0,0,74,-20,146,-20c0,0,97,0,150,33c0,0,52,33,52,94c0,0,0,56,-38,85c0,0,-38,30,-165,58l-48,11c0,0,-128,27,-184,83c0,0,-57,55,-57,152c0,0,0,118,83,182c0,0,84,65,238,65c0,0,76,0,143,-12c0,0,67,-11,124,-33V681c0,0,-58,29,-121,44c0,0,-63,15,-130,15c0,0,-102,0,-153,-31c0,0,-51,-31,-51,-94c0,0,0,-48,37,-75c0,0,36,-27,147,-52l46,-10c0,0,147,-32,208,-89c0,0,62,-57,62,-159c0,0,0,-116,-93,-184c0,0,-92,-66,-253,-66Z" 
id="f1_9"
transform="scale(0.001,-0.001)" />

<path d="M421,0C421,0,263,0,202,59c0,0,-60,60,-60,217V729H41V836H142v238H280V836H562V729H280V276c0,0,0,-102,28,-132c0,0,28,-29,113,-29H562V0Z" 
id="f1_a"
transform="scale(0.001,-0.001)" />

<path d="M139,0V1161H277V706c0,0,49,75,116,112c0,0,67,38,154,38c0,0,144,0,218,-90c0,0,74,-89,74,-262V0H702V500c0,0,0,119,-46,177c0,0,-47,59,-139,59c0,0,-112,0,-176,-71c0,0,-64,-70,-64,-193V0Z" 
id="f1_3"
transform="scale(0.001,-0.001)" />

<path d="M408,93c0,0,115,0,184,81c0,0,69,81,69,215v30H524c0,0,-167,0,-231,-38c0,0,-64,-38,-64,-129c0,0,0,-73,48,-116c0,0,48,-43,131,-43ZM372,-20c0,0,-128,0,-204,70c0,0,-76,72,-76,193c0,0,0,141,94,212c0,0,95,72,282,72H661v13c0,0,0,95,-62,147c0,0,-63,52,-175,52c0,0,-72,0,-140,-17c0,0,-68,-17,-130,-51V798c0,0,75,29,146,43c0,0,71,15,138,15c0,0,181,0,270,-95c0,0,90,-94,90,-285V0H661V127C661,127,614,51,544,15c0,0,-70,-35,-172,-35Z" 
id="f1_g"
transform="scale(0.001,-0.001)" />

<path d="M121,-317v116h81c0,0,57,0,88,26c0,0,31,27,69,127l25,62L46,836H191L453,182L714,836H859L492,-76c0,0,-58,-150,-113,-195c0,0,-55,-46,-148,-46Z" 
id="f1_t"
transform="scale(0.001,-0.001)" />

<path d="M424,-20c0,0,-145,0,-219,88c0,0,-75,89,-75,262V836H267V335c0,0,0,-119,46,-178c0,0,47,-59,139,-59c0,0,112,0,177,71c0,0,64,71,64,193V836H830V0H693V128C693,128,643,52,577,15c0,0,-66,-35,-153,-35Z" 
id="f1_r"
transform="scale(0.001,-0.001)" />

<path d="M130,747V876l123,238h96L287,876V747Zm306,0V876l123,238h96L594,876V747Z" 
id="f1_1j"
transform="scale(0.001,-0.001)" />

<path d="M359,0L46,836H191L453,134L714,836H859L546,0Z" 
id="f1_k"
transform="scale(0.001,-0.001)" />

<path d="M74,357V479H476V357Z" 
id="f1_1n"
transform="scale(0.001,-0.001)" />

<path d="M144,0V836H281V0Zm0,987v174H281V987Z" 
id="f1_7"
transform="scale(0.001,-0.001)" />

<path d="M460,115c0,0,111,0,173,82c0,0,61,82,61,230c0,0,0,149,-61,231c0,0,-62,82,-173,82c0,0,-111,0,-173,-82c0,0,-61,-82,-61,-231c0,0,0,-148,61,-230c0,0,62,-82,173,-82ZM446,-317c0,0,-72,0,-137,11c0,0,-64,11,-124,33v134c0,0,60,-33,119,-49c0,0,59,-15,121,-15c0,0,135,0,202,70c0,0,67,71,67,212v68C694,147,652,73,585,36C585,36,519,0,426,0C426,0,272,0,178,117c0,0,-94,117,-94,310c0,0,0,194,94,311c0,0,94,118,248,118c0,0,93,0,159,-37c0,0,67,-36,109,-110V836H831V104c0,0,0,-212,-95,-317c0,0,-94,-104,-290,-104Z" 
id="f1_f"
transform="scale(0.001,-0.001)" />

<path d="M129,747l62,239v128H348V986L225,747Zm306,0l62,239v128H654V986L531,747Z" 
id="f1_1k"
transform="scale(0.001,-0.001)" />

<path d="M166,0V729H35V836H166v58c0,0,0,139,65,203c0,0,65,64,206,64H567V1046H435c0,0,-74,0,-102,-29c0,0,-29,-30,-29,-107V836H530V729H304V0Z" 
id="f1_6"
transform="scale(0.001,-0.001)" />

<path d="M542,124c0,0,121,0,180,50c0,0,58,51,58,154c0,0,0,105,-58,154c0,0,-59,50,-180,50H300V124ZM523,654c0,0,111,0,165,41c0,0,54,42,54,127c0,0,0,84,-54,126c0,0,-54,42,-165,42H300V654ZM150,0V1114H535c0,0,172,0,265,-72c0,0,94,-72,94,-204c0,0,0,-102,-48,-162c0,0,-48,-61,-140,-76c0,0,111,-23,172,-99c0,0,62,-76,62,-189c0,0,0,-149,-102,-231C838,81,737,0,550,0Z" 
id="f1_1c"
transform="scale(0.001,-0.001)" />

<path d="M150,0V1114H300V0Z" 
id="f1_z"
transform="scale(0.001,-0.001)" />

<path d="M482,124c0,0,231,0,338,105c0,0,107,104,107,329c0,0,0,224,-107,328c0,0,-107,104,-338,104H300V124ZM150,0V1114H459c0,0,324,0,476,-135c0,0,151,-135,151,-421c0,0,0,-288,-152,-423C934,135,782,0,459,0Z" 
id="f1_15"
transform="scale(0.001,-0.001)" />

<path d="M163,0V190H321V0Z" 
id="f1_l"
transform="scale(0.001,-0.001)" />

<path d="M150,0V1114H790V987H300V659H742V532H300V0Z" 
id="f1_16"
transform="scale(0.001,-0.001)" />

<path d="M150,0V1114H854V987H300V657H831V530H300V127H867V0Z" 
id="f1_1h"
transform="scale(0.001,-0.001)" />

<path d="M44,0L369,437L71,836H233L455,538L677,836H839L537,429L855,0H693L449,328L206,0Z" 
id="f1_14"
transform="scale(0.001,-0.001)" />

<path d="M117,-176L179,62V190H336V62L213,-176Z" 
id="f1_q"
transform="scale(0.001,-0.001)" />

<path d="M117,-176L179,62V190H336V62L213,-176Zm62,776V790H336V600Z" 
id="f1_1w"
transform="scale(0.001,-0.001)" />

<path d="M330,0L51,1114H203L437,172l234,942H840L1074,172l234,942h153L1181,0H992L757,967L519,0Z" 
id="f1_1s"
transform="scale(0.001,-0.001)" />

<path d="M339,438V719L88,567L45,640L313,786L45,931l43,74L339,853v281h85V853l251,152l44,-74L450,786L719,640L675,567L424,719V438Z" 
id="f1_1x"
transform="scale(0.001,-0.001)" />

<path d="M489,595c0,0,109,0,164,50c0,0,56,50,56,148c0,0,0,97,-56,147c0,0,-55,50,-164,50H300V595ZM150,0V1114H489c0,0,191,0,285,-80c0,0,94,-80,94,-241c0,0,0,-105,-49,-175c0,0,-49,-69,-142,-96c0,0,48,-16,94,-70c0,0,46,-54,93,-148L1017,0H855L712,285c0,0,-55,112,-107,149c0,0,-52,36,-141,36H300V0Z" 
id="f1_1m"
transform="scale(0.001,-0.001)" />

<path d="M510,93c0,0,109,0,171,86c0,0,62,86,62,238c0,0,0,151,-62,237c0,0,-62,86,-171,86c0,0,-109,0,-171,-86c0,0,-62,-86,-62,-237c0,0,0,-152,62,-238c0,0,62,-86,171,-86ZM544,-20c0,0,-92,0,-158,35c0,0,-66,36,-109,110V0H139V1161H277V709c0,0,43,74,109,110c0,0,66,37,158,37c0,0,152,0,247,-121c0,0,95,-121,95,-318c0,0,0,-197,-95,-318C791,99,696,-20,544,-20Z" 
id="f1_n"
transform="scale(0.001,-0.001)" />

<path d="M283,0L65,836H202L373,184L544,836H706L878,184l171,652h137L967,0H806L626,685L445,0Z" 
id="f1_y"
transform="scale(0.001,-0.001)" />

<path d="M132,763l62,237v114H351V1000L228,763Z" 
id="f1_11"
transform="scale(0.001,-0.001)" />

<path d="M391,0V530L-2,1114H159L468,656l307,458H937L543,530V0Z" 
id="f1_x"
transform="scale(0.001,-0.001)" />

<path d="M150,0V1114H353L846,182v932H992V0H789L296,932V0Z" 
id="f1_m"
transform="scale(0.001,-0.001)" />

<path d="M139,0V1161H277V475L686,836H861L418,445L880,0H701L277,408V0Z" 
id="f1_10"
transform="scale(0.001,-0.001)" />

<path d="M602,101c0,0,164,0,260,122c0,0,95,123,95,333c0,0,0,211,-95,334c0,0,-96,122,-260,122c0,0,-164,0,-260,-122c0,0,-97,-123,-97,-334c0,0,0,-210,97,-333c0,0,96,-122,260,-122Zm0,-121c0,0,-235,0,-375,155C227,135,86,292,86,556c0,0,0,264,141,421c0,0,140,157,375,157c0,0,234,0,374,-157c0,0,141,-157,141,-421c0,0,0,-263,-141,-420C976,136,836,-20,602,-20Z" 
id="f1_13"
transform="scale(0.001,-0.001)" />

<path d="M551,0V391H162V567H551V958H729V567h390V391H729V0Z" 
id="f2_1a"
transform="scale(0.001,-0.001)" />

<path d="M179,0V190H336V0Zm0,600V790H336V600Z" 
id="f1_12"
transform="scale(0.001,-0.001)" />

<path d="M354,-200c0,0,-112,175,-167,343c0,0,-56,170,-56,337c0,0,0,166,55,335c0,0,55,169,168,345H473c0,0,-100,-172,-148,-340c0,0,-48,-168,-48,-340c0,0,0,-173,48,-342c0,0,49,-168,148,-338Z" 
id="f1_1d"
transform="scale(0.001,-0.001)" />

<path d="M-26,-317v117H9c0,0,78,0,106,36c0,0,29,36,29,150V836H281V-14c0,0,0,-160,-61,-231c0,0,-61,-72,-195,-72ZM144,987v174H281V987Z" 
id="f1_19"
transform="scale(0.001,-0.001)" />

<path d="M122,-200c0,0,99,170,148,338c0,0,49,169,49,342c0,0,0,172,-49,340c0,0,-49,168,-148,340H241c0,0,112,-176,168,-345c0,0,55,-169,55,-335c0,0,0,-167,-55,-337c0,0,-56,-168,-168,-343Z" 
id="f1_1e"
transform="scale(0.001,-0.001)" />

<path d="M391,0V987H-3v127H938V987H543V0Z" 
id="f1_2"
transform="scale(0.001,-0.001)" />

<path d="M140,0V1114H914V897H427V689H885V472H427V217H931V0Z" 
id="f2_w"
transform="scale(0.001,-0.001)" />

<path d="M23,0L340,428L38,836H321L492,588L665,836H948L647,429L963,0H680L492,264L306,0Z" 
id="f2_15"
transform="scale(0.001,-0.001)" />

<path d="M573,172c0,0,86,0,131,63c0,0,45,63,45,182c0,0,0,119,-45,182c0,0,-45,63,-131,63c0,0,-86,0,-132,-63c0,0,-46,-63,-46,-182c0,0,0,-119,46,-182c0,0,46,-63,132,-63ZM128,-317V836H395V713c0,0,55,73,122,108c0,0,68,35,155,35c0,0,154,0,253,-123c0,0,100,-123,100,-316c0,0,0,-193,-100,-316c0,0,-99,-121,-253,-121c0,0,-87,0,-155,33c0,0,-67,35,-122,108V-317Z" 
id="f2_i"
transform="scale(0.001,-0.001)" />

<path d="M128,0V1161H395V0Z" 
id="f2_j"
transform="scale(0.001,-0.001)" />

<path d="M128,0V836H395V0Zm0,944v217H395V944Z" 
id="f2_5"
transform="scale(0.001,-0.001)" />

<path d="M547,-20c0,0,-226,0,-354,114C193,94,66,210,66,417c0,0,0,207,127,323c0,0,128,116,354,116c0,0,66,0,129,-12c0,0,64,-11,128,-34V592c0,0,-55,37,-110,55c0,0,-54,18,-113,18c0,0,-112,0,-175,-65c0,0,-62,-66,-62,-183c0,0,0,-117,62,-183c0,0,63,-65,175,-65c0,0,62,0,119,19c0,0,56,19,104,55V24C804,24,741,1,676,-9c0,0,-64,-11,-129,-11Z" 
id="f2_e"
transform="scale(0.001,-0.001)" />

<path d="M443,0C443,0,285,0,219,66c0,0,-66,66,-66,224V645H20V836H153v237H419V836H695V645H419V290c0,0,0,-58,24,-79c0,0,23,-20,91,-20H672V0Z" 
id="f2_4"
transform="scale(0.001,-0.001)" />

<path d="M463,156c0,0,75,0,127,54c0,0,51,54,51,135v30H502c0,0,-83,0,-125,-28c0,0,-43,-28,-43,-83c0,0,0,-50,34,-79c0,0,34,-29,95,-29ZM357,-20c0,0,-130,0,-211,74c0,0,-80,76,-80,197c0,0,0,147,101,215c0,0,101,69,317,69H641v21c0,0,0,63,-50,92c0,0,-49,30,-155,30c0,0,-86,0,-160,-17c0,0,-74,-18,-137,-52V813c0,0,86,21,172,32c0,0,86,11,173,11c0,0,226,0,326,-90c0,0,100,-89,100,-290V0H641V124C641,124,588,48,521,13c0,0,-68,-33,-164,-33Z" 
id="f2_a"
transform="scale(0.001,-0.001)" />

<path d="M140,0V1114H427V0Z" 
id="f2_k"
transform="scale(0.001,-0.001)" />

<path d="M530,217c0,0,176,0,269,87c0,0,93,88,93,254c0,0,0,166,-93,252c0,0,-92,87,-269,87H427V217ZM140,0V1114H443c0,0,253,0,378,-36c0,0,124,-37,213,-123c0,0,78,-76,116,-174c0,0,38,-98,38,-223c0,0,0,-126,-38,-225c0,0,-38,-99,-116,-174c0,0,-90,-87,-215,-123C819,36,694,0,443,0Z" 
id="f2_l"
transform="scale(0.001,-0.001)" />

<path d="M74,365V472H689V365Z" 
id="f1_1y"
transform="scale(0.001,-0.001)" />

<path d="M630,-20c0,0,-253,0,-398,153C232,133,86,288,86,556c0,0,0,269,146,423c0,0,145,155,398,155c0,0,100,0,189,-26c0,0,88,-27,166,-79V869c0,0,-76,71,-163,106c0,0,-86,35,-183,35c0,0,-191,0,-292,-117C347,893,245,777,245,556c0,0,0,-220,102,-337c0,0,101,-116,292,-116c0,0,97,0,183,35c0,0,87,35,163,105V86C985,86,906,32,817,5c0,0,-88,-25,-187,-25Z" 
id="f1_18"
transform="scale(0.001,-0.001)" />

<path d="M680,-20c0,0,-278,0,-441,154C239,134,76,290,76,556c0,0,0,267,163,423c0,0,163,155,441,155c0,0,93,0,179,-21c0,0,86,-21,165,-62V820c0,0,-80,55,-158,81c0,0,-77,25,-163,25c0,0,-154,0,-241,-98c0,0,-88,-99,-88,-272c0,0,0,-172,87,-271c0,0,88,-98,242,-98c0,0,86,0,163,25c0,0,78,26,158,80V61C1024,61,945,20,859,0c0,0,-86,-20,-179,-20Z" 
id="f2_h"
transform="scale(0.001,-0.001)" />

<path d="M526,169c0,0,87,0,133,64c0,0,46,64,46,184c0,0,0,120,-46,184c0,0,-46,64,-133,64c0,0,-89,0,-135,-64c0,0,-47,-64,-47,-184c0,0,0,-120,47,-184c0,0,46,-64,135,-64Zm0,-189c0,0,-217,0,-339,115C187,95,66,211,66,417c0,0,0,206,121,322c0,0,122,117,339,117c0,0,215,0,336,-117c0,0,122,-116,122,-322c0,0,0,-206,-122,-322C862,95,741,-20,526,-20Z" 
id="f2_f"
transform="scale(0.001,-0.001)" />

<path d="M128,0V836H395V713c0,0,60,73,128,108c0,0,68,35,150,35c0,0,145,0,220,-89c0,0,75,-89,75,-258V0H699V389c0,0,0,109,-5,150c0,0,-5,41,-16,60c0,0,-16,26,-43,41c0,0,-27,14,-61,14c0,0,-84,0,-131,-64c0,0,-48,-65,-48,-179V0Z" 
id="f2_6"
transform="scale(0.001,-0.001)" />

<path d="M415,-20c0,0,-144,0,-220,87c0,0,-76,89,-76,259V836H388V752c0,0,0,-67,-1,-170c0,0,0,-103,0,-137c0,0,0,-101,5,-145c0,0,5,-44,18,-65c0,0,16,-26,43,-40c0,0,26,-14,60,-14c0,0,84,0,132,64c0,0,47,64,47,178V836H959V0H692V121C692,121,632,48,564,13c0,0,-67,-33,-149,-33Z" 
id="f2_g"
transform="scale(0.001,-0.001)" />

<path d="M687,509c0,0,0,76,-44,122c0,0,-44,47,-116,47c0,0,-78,0,-126,-44c0,0,-49,-43,-61,-125ZM544,-20c0,0,-227,0,-353,114C191,94,66,209,66,417c0,0,0,204,123,321c0,0,123,118,340,118c0,0,197,0,315,-119c0,0,118,-118,118,-317V344H337c0,0,10,-94,68,-141c0,0,59,-47,163,-47c0,0,85,0,173,25c0,0,89,25,182,76V51C923,51,828,15,733,-2c0,0,-94,-18,-189,-18Z" 
id="f2_3"
transform="scale(0.001,-0.001)" />


</defs>
</svg>