<?xml version="1.0" encoding="UTF-8" standalone="no"?>
<!DOCTYPE svg PUBLIC "-//W3C//DTD SVG 1.1//EN"
"http://www.w3.org/Graphics/SVG/1.1/DTD/svg11.dtd">
<svg viewBox="0 0 909 1286" version="1.1" xmlns="http://www.w3.org/2000/svg" xmlns:xlink="http://www.w3.org/1999/xlink">
<defs>
<clipPath id="c0_32"><path d="M0,1286.2V.2H909.3v1286Z" /></clipPath>
<style type="text/css"><![CDATA[
.g0_32{
fill: #FFFFCC;
}
.g1_32{
fill: #00FF00;
}
]]></style>
</defs>
<path fill-rule="evenodd" d="M86.6,115.3H811.4V94H86.6v21.3Z" class="g0_32" />
<g clip-path="url(#c0_32)">
<g fill="#000000" >
<use xlink:href="#f0_z" transform="matrix(12,0,0,12,86.8,110.9)" />
<use xlink:href="#f0_h" transform="matrix(12,0,0,12,92.1,110.9)" />
<use xlink:href="#f0_a" transform="matrix(12,0,0,12,103.7,110.9)" />
<use xlink:href="#f0_4" transform="matrix(12,0,0,12,110.9,110.9)" />
<use xlink:href="#f0_8" transform="matrix(12,0,0,12,122.2,110.9)" />
<use xlink:href="#f0_p" transform="matrix(12,0,0,12,129.4,110.9)" />
<use xlink:href="#f0_4" transform="matrix(12,0,0,12,147.3,110.9)" />
<use xlink:href="#f0_j" transform="matrix(12,0,0,12,158.6,110.9)" />
<use xlink:href="#f0_7" transform="matrix(12,0,0,12,170.3,110.9)" />
<use xlink:href="#f0_g" transform="matrix(12,0,0,12,175.3,110.9)" />
<use xlink:href="#f0_a" transform="matrix(12,0,0,12,186.6,110.9)" />
<use xlink:href="#f0_4" transform="matrix(12,0,0,12,193.8,110.9)" />
<use xlink:href="#f0_18" transform="matrix(12,0,0,12,210.9,110.9)" />
<use xlink:href="#f0_4" transform="matrix(12,0,0,12,223.6,110.9)" />
<use xlink:href="#f0_8" transform="matrix(12,0,0,12,234.9,110.9)" />
<use xlink:href="#f0_a" transform="matrix(12,0,0,12,242.4,110.9)" />
<use xlink:href="#f0_7" transform="matrix(12,0,0,12,249.7,110.9)" />
<use xlink:href="#f0_6" transform="matrix(12,0,0,12,254.7,110.9)" />
<use xlink:href="#f0_7" transform="matrix(12,0,0,12,261.2,110.9)" />
<use xlink:href="#f0_o" transform="matrix(12,0,0,12,266.2,110.9)" />
<use xlink:href="#f0_g" transform="matrix(12,0,0,12,276.3,110.9)" />
<use xlink:href="#f0_a" transform="matrix(12,0,0,12,287.6,110.9)" />
<use xlink:href="#f0_4" transform="matrix(12,0,0,12,294.8,110.9)" />
<use xlink:href="#f0_9" transform="matrix(12,0,0,12,306,110.9)" />
<use xlink:href="#f0_q" transform="matrix(12,0,0,12,315.7,110.9)" />
<use xlink:href="#f0_g" transform="matrix(12,0,0,12,327.3,110.9)" />
<use xlink:href="#f0_9" transform="matrix(12,0,0,12,338.4,110.9)" />
<use xlink:href="#f0_h" transform="matrix(12,0,0,12,353.8,110.9)" />
<use xlink:href="#f0_c" transform="matrix(12,0,0,12,365.4,110.9)" />
<use xlink:href="#f0_a" transform="matrix(12,0,0,12,376.6,110.9)" />
<use xlink:href="#f0_4" transform="matrix(12,0,0,12,383.8,110.9)" />
<use xlink:href="#f0_j" transform="matrix(12,0,0,12,395.1,110.9)" />
<use xlink:href="#f0_g" transform="matrix(12,0,0,12,412.6,110.9)" />
<use xlink:href="#f0_n" transform="matrix(12,0,0,12,423.9,110.9)" />
<use xlink:href="#f0_c" transform="matrix(12,0,0,12,435.5,110.9)" />
<use xlink:href="#f0_k" transform="matrix(12,0,0,12,446.7,110.9)" />
<use xlink:href="#f0_4" transform="matrix(12,0,0,12,457.5,110.9)" />
<use xlink:href="#f0_l" transform="matrix(12,0,0,12,468.8,110.9)" />
<use xlink:href="#f0_2" transform="matrix(12,0,0,12,480.4,110.9)" />
<use xlink:href="#f0_3" transform="matrix(12,0,0,12,491.6,110.9)" />
<use xlink:href="#f0_4" transform="matrix(12,0,0,12,503.2,110.9)" />
<use xlink:href="#f0_4" transform="matrix(12,0,0,12,520.4,110.9)" />
<use xlink:href="#f0_g" transform="matrix(12,0,0,12,531.6,110.9)" />
<use xlink:href="#f0_9" transform="matrix(12,0,0,12,542.9,110.9)" />
<use xlink:href="#f0_7" transform="matrix(12,0,0,12,552.5,110.9)" />
<use xlink:href="#f0_4" transform="matrix(12,0,0,12,557.5,110.9)" />
<use xlink:href="#f0_9" transform="matrix(12,0,0,12,568.7,110.9)" />
<use xlink:href="#f0_a" transform="matrix(12,0,0,12,578.3,110.9)" />
<use xlink:href="#f0_9" transform="matrix(12,0,0,12,591.3,110.9)" />
<use xlink:href="#f0_a" transform="matrix(12,0,0,12,600.9,110.9)" />
<use xlink:href="#f0_4" transform="matrix(12,0,0,12,608,110.9)" />
<use xlink:href="#f0_b" transform="matrix(12,0,0,12,619.3,110.9)" />
<use xlink:href="#f0_7" transform="matrix(12,0,0,12,636.8,110.9)" />
<use xlink:href="#f0_9" transform="matrix(12,0,0,12,641.8,110.9)" />
<use xlink:href="#f0_a" transform="matrix(12,0,0,12,657.2,110.9)" />
<use xlink:href="#f0_c" transform="matrix(12,0,0,12,664.4,110.9)" />
<use xlink:href="#f0_i" transform="matrix(12,0,0,12,681.5,110.9)" />
<use xlink:href="#f0_g" transform="matrix(12,0,0,12,686.6,110.9)" />
<use xlink:href="#f0_r" transform="matrix(12,0,0,12,697.8,110.9)" />
<use xlink:href="#f0_h" transform="matrix(12,0,0,12,709.5,110.9)" />
<use xlink:href="#f0_o" transform="matrix(12,0,0,12,721.1,110.9)" />
<use xlink:href="#f0_3" transform="matrix(12,0,0,12,731.1,110.9)" />
<use xlink:href="#f0_1o" transform="matrix(12,0,0,12,748.5,110.9)" />
<use xlink:href="#f0_o" transform="matrix(12,0,0,12,761.1,110.9)" />
<use xlink:href="#f0_c" transform="matrix(12,0,0,12,771.1,110.9)" />
<use xlink:href="#f0_j" transform="matrix(12,0,0,12,782.3,110.9)" />
<use xlink:href="#f0_4" transform="matrix(12,0,0,12,793.9,110.9)" />
</g>
</g>
<path fill-rule="evenodd" d="M86.6,143.9H573.5V122.5H86.6v21.4Z" class="g0_32" />
<g clip-path="url(#c0_32)">
<g fill="#000000" >
<use xlink:href="#f0_g" transform="matrix(12,0,0,12,86.8,139.6)" />
<use xlink:href="#f0_h" transform="matrix(12,0,0,12,98.1,139.6)" />
<use xlink:href="#f0_j" transform="matrix(12,0,0,12,109.7,139.6)" />
<use xlink:href="#f0_i" transform="matrix(12,0,0,12,127.1,139.6)" />
<use xlink:href="#f0_4" transform="matrix(12,0,0,12,132.1,139.6)" />
<use xlink:href="#f0_a" transform="matrix(12,0,0,12,143.4,139.6)" />
<use xlink:href="#f0_7" transform="matrix(12,0,0,12,156.6,139.6)" />
<use xlink:href="#f0_a" transform="matrix(12,0,0,12,161.6,139.6)" />
<use xlink:href="#f0_r" transform="matrix(12,0,0,12,174.6,139.6)" />
<use xlink:href="#f0_b" transform="matrix(12,0,0,12,186.2,139.6)" />
<use xlink:href="#f0_j" transform="matrix(12,0,0,12,197.8,139.6)" />
<use xlink:href="#f0_g" transform="matrix(12,0,0,12,209.4,139.6)" />
<use xlink:href="#f0_a" transform="matrix(12,0,0,12,220.7,139.6)" />
<use xlink:href="#f0_4" transform="matrix(12,0,0,12,227.9,139.6)" />
<use xlink:href="#f0_a" transform="matrix(12,0,0,12,245,139.6)" />
<use xlink:href="#f0_3" transform="matrix(12,0,0,12,252.2,139.6)" />
<use xlink:href="#f0_4" transform="matrix(12,0,0,12,263.8,139.6)" />
<use xlink:href="#f0_7" transform="matrix(12,0,0,12,280.9,139.6)" />
<use xlink:href="#f0_h" transform="matrix(12,0,0,12,285.9,139.6)" />
<use xlink:href="#f0_a" transform="matrix(12,0,0,12,297.5,139.6)" />
<use xlink:href="#f0_4" transform="matrix(12,0,0,12,304.7,139.6)" />
<use xlink:href="#f0_8" transform="matrix(12,0,0,12,316,139.6)" />
<use xlink:href="#f0_p" transform="matrix(12,0,0,12,323.2,139.6)" />
<use xlink:href="#f0_4" transform="matrix(12,0,0,12,341.1,139.6)" />
<use xlink:href="#f0_j" transform="matrix(12,0,0,12,352.4,139.6)" />
<use xlink:href="#f0_7" transform="matrix(12,0,0,12,364.1,139.6)" />
<use xlink:href="#f0_g" transform="matrix(12,0,0,12,369.1,139.6)" />
<use xlink:href="#f0_a" transform="matrix(12,0,0,12,380.4,139.6)" />
<use xlink:href="#f0_4" transform="matrix(12,0,0,12,387.6,139.6)" />
<use xlink:href="#f0_o" transform="matrix(12,0,0,12,404.7,139.6)" />
<use xlink:href="#f0_4" transform="matrix(12,0,0,12,414.8,139.6)" />
<use xlink:href="#f0_8" transform="matrix(12,0,0,12,426.1,139.6)" />
<use xlink:href="#f0_a" transform="matrix(12,0,0,12,433.6,139.6)" />
<use xlink:href="#f0_7" transform="matrix(12,0,0,12,440.8,139.6)" />
<use xlink:href="#f0_6" transform="matrix(12,0,0,12,445.8,139.6)" />
<use xlink:href="#f0_7" transform="matrix(12,0,0,12,452.2,139.6)" />
<use xlink:href="#f0_o" transform="matrix(12,0,0,12,457.3,139.6)" />
<use xlink:href="#f0_g" transform="matrix(12,0,0,12,467.3,139.6)" />
<use xlink:href="#f0_a" transform="matrix(12,0,0,12,478.6,139.6)" />
<use xlink:href="#f0_4" transform="matrix(12,0,0,12,485.8,139.6)" />
<use xlink:href="#f0_6" transform="matrix(12,0,0,12,503,139.6)" />
<use xlink:href="#f0_c" transform="matrix(12,0,0,12,509.5,139.6)" />
<use xlink:href="#f0_8" transform="matrix(12,0,0,12,520.6,139.6)" />
<use xlink:href="#f0_t" transform="matrix(12,0,0,12,534,139.6)" />
<use xlink:href="#f0_c" transform="matrix(12,0,0,12,544.9,139.6)" />
<use xlink:href="#f0_r" transform="matrix(12,0,0,12,556,139.6)" />
<use xlink:href="#f0_l" transform="matrix(12,0,0,12,567.6,139.6)" />
<use xlink:href="#f0_m" transform="matrix(12,0,0,12,86.8,168.2)" />
<use xlink:href="#f0_c" transform="matrix(12,0,0,12,100.5,168.2)" />
<use xlink:href="#f0_y" transform="matrix(12,0,0,12,111.7,168.2)" />
<use xlink:href="#f0_t" transform="matrix(12,0,0,12,132.6,168.2)" />
<use xlink:href="#f0_c" transform="matrix(12,0,0,12,143.4,168.2)" />
<use xlink:href="#f0_r" transform="matrix(12,0,0,12,154.6,168.2)" />
<use xlink:href="#f0_o" transform="matrix(12,0,0,12,172,168.2)" />
<use xlink:href="#f0_g" transform="matrix(12,0,0,12,182,168.2)" />
<use xlink:href="#f0_h" transform="matrix(12,0,0,12,193.3,168.2)" />
<use xlink:href="#f0_o" transform="matrix(12,0,0,12,210.7,168.2)" />
<use xlink:href="#f0_i" transform="matrix(12,0,0,12,220.8,168.2)" />
<use xlink:href="#f0_c" transform="matrix(12,0,0,12,225.9,168.2)" />
<use xlink:href="#f0_9" transform="matrix(12,0,0,12,237,168.2)" />
<use xlink:href="#f0_4" transform="matrix(12,0,0,12,246.6,168.2)" />
<use xlink:href="#f0_1l" transform="matrix(12,0,0,12,263.7,168.2)" />
<use xlink:href="#f0_4" transform="matrix(12,0,0,12,274.9,168.2)" />
<use xlink:href="#f0_t" transform="matrix(12,0,0,12,286.2,168.2)" />
<use xlink:href="#f0_o" transform="matrix(12,0,0,12,297,168.2)" />
<use xlink:href="#f0_3" transform="matrix(12,0,0,12,307.1,168.2)" />
<use xlink:href="#f0_g" transform="matrix(12,0,0,12,318.7,168.2)" />
<use xlink:href="#f0_7" transform="matrix(12,0,0,12,330,168.2)" />
<use xlink:href="#f0_h" transform="matrix(12,0,0,12,335,168.2)" />
<use xlink:href="#f0_d" transform="matrix(12,0,0,12,352.4,168.2)" />
<use xlink:href="#f0_o" transform="matrix(12,0,0,12,364.6,168.2)" />
<use xlink:href="#f0_o" transform="matrix(12,0,0,12,374.7,168.2)" />
<use xlink:href="#f0_4" transform="matrix(12,0,0,12,384.8,168.2)" />
<use xlink:href="#f0_9" transform="matrix(12,0,0,12,395.9,168.2)" />
<use xlink:href="#f0_9" transform="matrix(12,0,0,12,405.5,168.2)" />
<use xlink:href="#f0_l" transform="matrix(12,0,0,12,415.1,168.2)" />
</g>
</g>
<path fill-rule="evenodd" d="M86.6,201.2H344.2V174.6H86.6v26.6Z" class="g1_32" />
<g clip-path="url(#c0_32)">
<g fill="#0000FF" >
<use xlink:href="#f1_10" transform="matrix(15,0,0,15,86.8,195.9)" />
<use xlink:href="#f1_3" transform="matrix(15,0,0,15,104.5,195.9)" />
<use xlink:href="#f1_7" transform="matrix(15,0,0,15,120,195.9)" />
<use xlink:href="#f1_5" transform="matrix(15,0,0,15,136.4,195.9)" />
<use xlink:href="#f1_v" transform="matrix(15,0,0,15,144.2,195.9)" />
<use xlink:href="#f1_4" transform="matrix(15,0,0,15,157.8,195.9)" />
<use xlink:href="#f1_3" transform="matrix(15,0,0,15,168.7,195.9)" />
<use xlink:href="#f1_b" transform="matrix(15,0,0,15,184.3,195.9)" />
<use xlink:href="#f1_5" transform="matrix(15,0,0,15,195.6,195.9)" />
<use xlink:href="#f1_6" transform="matrix(15,0,0,15,203.4,195.9)" />
<use xlink:href="#f1_7" transform="matrix(15,0,0,15,219.7,195.9)" />
<use xlink:href="#f1_l" transform="matrix(15,0,0,15,244.1,195.9)" />
<use xlink:href="#f1_3" transform="matrix(15,0,0,15,263.1,195.9)" />
<use xlink:href="#f1_t" transform="matrix(15,0,0,15,278.6,195.9)" />
<use xlink:href="#f1_5" transform="matrix(15,0,0,15,293.6,195.9)" />
<use xlink:href="#f1_e" transform="matrix(15,0,0,15,301.3,195.9)" />
<use xlink:href="#f1_3" transform="matrix(15,0,0,15,314.9,195.9)" />
<use xlink:href="#f1_v" transform="matrix(15,0,0,15,330.5,195.9)" />
</g>
<g fill="#000000" >
<use xlink:href="#f0_1a" transform="matrix(12,0,0,12,86.8,225.5)" />
<use xlink:href="#f0_4" transform="matrix(12,0,0,12,96.7,225.5)" />
<use xlink:href="#f0_a" transform="matrix(12,0,0,12,108,225.5)" />
<use xlink:href="#f0_11" transform="matrix(12,0,0,12,115.2,225.5)" />
<use xlink:href="#f0_9" transform="matrix(12,0,0,12,121,225.5)" />
<use xlink:href="#f0_o" transform="matrix(12,0,0,12,136.4,225.5)" />
<use xlink:href="#f0_c" transform="matrix(12,0,0,12,146.5,225.5)" />
<use xlink:href="#f0_h" transform="matrix(12,0,0,12,157.6,225.5)" />
<use xlink:href="#f0_a" transform="matrix(12,0,0,12,169.2,225.5)" />
<use xlink:href="#f0_7" transform="matrix(12,0,0,12,176.4,225.5)" />
<use xlink:href="#f0_h" transform="matrix(12,0,0,12,181.5,225.5)" />
<use xlink:href="#f0_r" transform="matrix(12,0,0,12,193.1,225.5)" />
<use xlink:href="#f0_4" transform="matrix(12,0,0,12,204.7,225.5)" />
<use xlink:href="#f0_l" transform="matrix(12,0,0,12,216,225.5)" />
<use xlink:href="#f0_2" transform="matrix(12,0,0,12,227.7,225.5)" />
<use xlink:href="#f0_3" transform="matrix(12,0,0,12,238.9,225.5)" />
<use xlink:href="#f0_4" transform="matrix(12,0,0,12,250.5,225.5)" />
<use xlink:href="#f0_h" transform="matrix(12,0,0,12,267.6,225.5)" />
<use xlink:href="#f0_4" transform="matrix(12,0,0,12,279.2,225.5)" />
<use xlink:href="#f0_14" transform="matrix(12,0,0,12,290.2,225.5)" />
<use xlink:href="#f0_a" transform="matrix(12,0,0,12,301,225.5)" />
<use xlink:href="#f0_9" transform="matrix(12,0,0,12,314.1,225.5)" />
<use xlink:href="#f0_a" transform="matrix(12,0,0,12,323.6,225.5)" />
<use xlink:href="#f0_4" transform="matrix(12,0,0,12,330.8,225.5)" />
<use xlink:href="#f0_b" transform="matrix(12,0,0,12,342.1,225.5)" />
<use xlink:href="#f0_7" transform="matrix(12,0,0,12,359.5,225.5)" />
<use xlink:href="#f0_9" transform="matrix(12,0,0,12,364.6,225.5)" />
<use xlink:href="#f0_a" transform="matrix(12,0,0,12,380,225.5)" />
<use xlink:href="#f0_c" transform="matrix(12,0,0,12,387.2,225.5)" />
<use xlink:href="#f0_8" transform="matrix(12,0,0,12,404.3,225.5)" />
<use xlink:href="#f0_4" transform="matrix(12,0,0,12,411.3,225.5)" />
<use xlink:href="#f0_f" transform="matrix(12,0,0,12,422.6,225.5)" />
<use xlink:href="#f0_7" transform="matrix(12,0,0,12,434.2,225.5)" />
<use xlink:href="#f0_9" transform="matrix(12,0,0,12,439.2,225.5)" />
<use xlink:href="#f0_a" transform="matrix(12,0,0,12,448.8,225.5)" />
<use xlink:href="#f0_4" transform="matrix(12,0,0,12,456,225.5)" />
<use xlink:href="#f0_8" transform="matrix(12,0,0,12,467.3,225.5)" />
<use xlink:href="#f0_t" transform="matrix(12,0,0,12,480.8,225.5)" />
<use xlink:href="#f0_c" transform="matrix(12,0,0,12,491.6,225.5)" />
<use xlink:href="#f0_r" transform="matrix(12,0,0,12,502.7,225.5)" />
<use xlink:href="#f0_8" transform="matrix(12,0,0,12,514.3,225.5)" />
<use xlink:href="#f0_j" transform="matrix(12,0,0,12,527.8,225.5)" />
<use xlink:href="#f0_4" transform="matrix(12,0,0,12,539.4,225.5)" />
<use xlink:href="#f0_k" transform="matrix(12,0,0,12,550.7,225.5)" />
<use xlink:href="#f0_7" transform="matrix(12,0,0,12,561.5,225.5)" />
<use xlink:href="#f0_o" transform="matrix(12,0,0,12,566.6,225.5)" />
<use xlink:href="#f0_4" transform="matrix(12,0,0,12,576.6,225.5)" />
<use xlink:href="#f0_9" transform="matrix(12,0,0,12,587.9,225.5)" />
<use xlink:href="#f0_l" transform="matrix(12,0,0,12,597.5,225.5)" />
<use xlink:href="#f0_13" transform="matrix(12,0,0,12,609.1,225.5)" />
<use xlink:href="#f0_h" transform="matrix(12,0,0,12,623.5,225.5)" />
<use xlink:href="#f0_a" transform="matrix(12,0,0,12,641,225.5)" />
<use xlink:href="#f0_3" transform="matrix(12,0,0,12,648.2,225.5)" />
<use xlink:href="#f0_4" transform="matrix(12,0,0,12,659.8,225.5)" />
<use xlink:href="#f0_i" transform="matrix(12,0,0,12,676.9,225.5)" />
<use xlink:href="#f0_4" transform="matrix(12,0,0,12,682,225.5)" />
<use xlink:href="#f0_6" transform="matrix(12,0,0,12,693.3,225.5)" />
<use xlink:href="#f0_a" transform="matrix(12,0,0,12,699.4,225.5)" />
<use xlink:href="#f0_1n" transform="matrix(12,0,0,12,706.6,225.5)" />
<use xlink:href="#f0_9" transform="matrix(12,0,0,12,713.1,225.5)" />
<use xlink:href="#f0_7" transform="matrix(12,0,0,12,722.7,225.5)" />
<use xlink:href="#f0_j" transform="matrix(12,0,0,12,727.8,225.5)" />
<use xlink:href="#f0_4" transform="matrix(12,0,0,12,739.4,225.5)" />
<use xlink:href="#f0_p" transform="matrix(12,0,0,12,756.5,225.5)" />
<use xlink:href="#f0_4" transform="matrix(12,0,0,12,774.4,225.5)" />
<use xlink:href="#f0_h" transform="matrix(12,0,0,12,785.6,225.5)" />
<use xlink:href="#f0_r" transform="matrix(12,0,0,12,797.2,225.5)" />
<use xlink:href="#f0_q" transform="matrix(12,0,0,12,808.9,225.5)" />
<use xlink:href="#f0_o" transform="matrix(12,0,0,12,86.8,254.2)" />
<use xlink:href="#f0_i" transform="matrix(12,0,0,12,96.8,254.2)" />
<use xlink:href="#f0_7" transform="matrix(12,0,0,12,101.9,254.2)" />
<use xlink:href="#f0_o" transform="matrix(12,0,0,12,106.9,254.2)" />
<use xlink:href="#f0_10" transform="matrix(12,0,0,12,117,254.2)" />
</g>
<g fill="#0000FF" >
<use xlink:href="#f1_l" transform="matrix(12,0,0,12,133.7,254.2)" />
<use xlink:href="#f1_3" transform="matrix(12,0,0,12,148.9,254.2)" />
<use xlink:href="#f1_t" transform="matrix(12,0,0,12,161.3,254.2)" />
<use xlink:href="#f1_5" transform="matrix(12,0,0,12,173.2,254.2)" />
<use xlink:href="#f1_e" transform="matrix(12,0,0,12,179.5,254.2)" />
<use xlink:href="#f1_3" transform="matrix(12,0,0,12,190.3,254.2)" />
<use xlink:href="#f1_v" transform="matrix(12,0,0,12,202.9,254.2)" />
<use xlink:href="#f1_1c" transform="matrix(12,0,0,12,213.7,254.2)" />
<use xlink:href="#f1_d" transform="matrix(12,0,0,12,220.4,254.2)" />
<use xlink:href="#f1_j" transform="matrix(12,0,0,12,234.6,254.2)" />
<use xlink:href="#f1_j" transform="matrix(12,0,0,12,240.9,254.2)" />
</g>
<g fill="#000000" >
<use xlink:href="#f0_g" transform="matrix(12,0,0,12,247.2,254.2)" />
<use xlink:href="#f0_h" transform="matrix(12,0,0,12,258.5,254.2)" />
<use xlink:href="#f0_j" transform="matrix(12,0,0,12,270.1,254.2)" />
<use xlink:href="#f0_a" transform="matrix(12,0,0,12,287.5,254.2)" />
<use xlink:href="#f0_3" transform="matrix(12,0,0,12,294.7,254.2)" />
<use xlink:href="#f0_4" transform="matrix(12,0,0,12,306.3,254.2)" />
<use xlink:href="#f0_h" transform="matrix(12,0,0,12,317.6,254.2)" />
<use xlink:href="#f0_c" transform="matrix(12,0,0,12,335,254.2)" />
<use xlink:href="#f0_h" transform="matrix(12,0,0,12,346.2,254.2)" />
<use xlink:href="#f0_a" transform="matrix(12,0,0,12,363.7,254.2)" />
<use xlink:href="#f0_3" transform="matrix(12,0,0,12,370.9,254.2)" />
<use xlink:href="#f0_4" transform="matrix(12,0,0,12,382.5,254.2)" />
<use xlink:href="#f0_8" transform="matrix(12,0,0,12,399.6,254.2)" />
<use xlink:href="#f0_7" transform="matrix(12,0,0,12,407.1,254.2)" />
<use xlink:href="#f0_f" transform="matrix(12,0,0,12,412.3,254.2)" />
<use xlink:href="#f0_3" transform="matrix(12,0,0,12,423.9,254.2)" />
<use xlink:href="#f0_a" transform="matrix(12,0,0,12,435.5,254.2)" />
<use xlink:href="#f0_q" transform="matrix(12,0,0,12,442.7,254.2)" />
</g>
<g fill="#0000FF" >
<use xlink:href="#f1_1a" transform="matrix(12,0,0,12,454.5,254.2)" />
</g>
<g fill="#000000" >
<use xlink:href="#f0_12" transform="matrix(12,0,0,12,469.8,254.2)" />
<use xlink:href="#f0_x" transform="matrix(12,0,0,12,86.8,902.6)" />
<use xlink:href="#f0_c" transform="matrix(12,0,0,12,95.6,902.6)" />
<use xlink:href="#f0_r" transform="matrix(12,0,0,12,106.8,902.6)" />
<use xlink:href="#f0_h" transform="matrix(12,0,0,12,124.2,902.6)" />
<use xlink:href="#f0_4" transform="matrix(12,0,0,12,135.8,902.6)" />
<use xlink:href="#f0_4" transform="matrix(12,0,0,12,147.1,902.6)" />
<use xlink:href="#f0_j" transform="matrix(12,0,0,12,158.4,902.6)" />
<use xlink:href="#f0_a" transform="matrix(12,0,0,12,175.8,902.6)" />
<use xlink:href="#f0_c" transform="matrix(12,0,0,12,183,902.6)" />
<use xlink:href="#f0_f" transform="matrix(12,0,0,12,200.1,902.6)" />
<use xlink:href="#f0_4" transform="matrix(12,0,0,12,211.7,902.6)" />
<use xlink:href="#f0_a" transform="matrix(12,0,0,12,223,902.6)" />
<use xlink:href="#f0_a" transform="matrix(12,0,0,12,236,902.6)" />
<use xlink:href="#f0_3" transform="matrix(12,0,0,12,243.2,902.6)" />
<use xlink:href="#f0_4" transform="matrix(12,0,0,12,254.8,902.6)" />
<use xlink:href="#f0_u" transform="matrix(12,0,0,12,272,902.6)" />
<use xlink:href="#f0_15" transform="matrix(12,0,0,12,285.4,902.6)" />
<use xlink:href="#f0_z" transform="matrix(12,0,0,12,299.5,902.6)" />
<use xlink:href="#f0_15" transform="matrix(12,0,0,12,304.9,902.6)" />
<use xlink:href="#f0_c" transform="matrix(12,0,0,12,324.9,902.6)" />
<use xlink:href="#f0_6" transform="matrix(12,0,0,12,336,902.6)" />
<use xlink:href="#f0_a" transform="matrix(12,0,0,12,348.4,902.6)" />
<use xlink:href="#f0_3" transform="matrix(12,0,0,12,355.5,902.6)" />
<use xlink:href="#f0_4" transform="matrix(12,0,0,12,367.1,902.6)" />
<use xlink:href="#f0_j" transform="matrix(12,0,0,12,384.3,902.6)" />
<use xlink:href="#f0_4" transform="matrix(12,0,0,12,395.9,902.6)" />
<use xlink:href="#f0_k" transform="matrix(12,0,0,12,407.2,902.6)" />
<use xlink:href="#f0_7" transform="matrix(12,0,0,12,418,902.6)" />
<use xlink:href="#f0_o" transform="matrix(12,0,0,12,423,902.6)" />
<use xlink:href="#f0_4" transform="matrix(12,0,0,12,433.1,902.6)" />
<use xlink:href="#f0_1d" transform="matrix(12,0,0,12,444.4,902.6)" />
<use xlink:href="#f0_9" transform="matrix(12,0,0,12,451.4,902.6)" />
<use xlink:href="#f0_1e" transform="matrix(12,0,0,12,461,902.6)" />
<use xlink:href="#f0_t" transform="matrix(12,0,0,12,474,902.6)" />
<use xlink:href="#f0_c" transform="matrix(12,0,0,12,484.8,902.6)" />
<use xlink:href="#f0_r" transform="matrix(12,0,0,12,496,902.6)" />
<use xlink:href="#f0_y" transform="matrix(12,0,0,12,513.5,902.6)" />
<use xlink:href="#f0_g" transform="matrix(12,0,0,12,528.5,902.6)" />
<use xlink:href="#f0_h" transform="matrix(12,0,0,12,539.8,902.6)" />
<use xlink:href="#f0_a" transform="matrix(12,0,0,12,551.4,902.6)" />
<use xlink:href="#f0_a" transform="matrix(12,0,0,12,564.4,902.6)" />
<use xlink:href="#f0_c" transform="matrix(12,0,0,12,571.6,902.6)" />
<use xlink:href="#f0_r" transform="matrix(12,0,0,12,588.7,902.6)" />
<use xlink:href="#f0_9" transform="matrix(12,0,0,12,600.1,902.6)" />
<use xlink:href="#f0_4" transform="matrix(12,0,0,12,609.8,902.6)" />
<use xlink:href="#f0_a" transform="matrix(12,0,0,12,626.9,902.6)" />
<use xlink:href="#f0_c" transform="matrix(12,0,0,12,634,902.6)" />
<use xlink:href="#f0_8" transform="matrix(12,0,0,12,651.2,902.6)" />
<use xlink:href="#f0_r" transform="matrix(12,0,0,12,658.6,902.6)" />
<use xlink:href="#f0_h" transform="matrix(12,0,0,12,670.2,902.6)" />
<use xlink:href="#f0_t" transform="matrix(12,0,0,12,687.8,902.6)" />
<use xlink:href="#f0_c" transform="matrix(12,0,0,12,698.6,902.6)" />
<use xlink:href="#f0_r" transform="matrix(12,0,0,12,709.8,902.6)" />
<use xlink:href="#f0_8" transform="matrix(12,0,0,12,721.4,902.6)" />
<use xlink:href="#f0_g" transform="matrix(12,0,0,12,734.8,902.6)" />
<use xlink:href="#f0_b" transform="matrix(12,0,0,12,745.9,902.6)" />
<use xlink:href="#f0_b" transform="matrix(12,0,0,12,757.5,902.6)" />
<use xlink:href="#f0_9" transform="matrix(12,0,0,12,769.1,902.6)" />
<use xlink:href="#f0_l" transform="matrix(12,0,0,12,778.8,902.6)" />
<use xlink:href="#f0_2" transform="matrix(12,0,0,12,86.8,931.2)" />
<use xlink:href="#f0_3" transform="matrix(12,0,0,12,97.9,931.2)" />
<use xlink:href="#f0_4" transform="matrix(12,0,0,12,109.5,931.2)" />
<use xlink:href="#f0_8" transform="matrix(12,0,0,12,121,931.2)" />
<use xlink:href="#f0_4" transform="matrix(12,0,0,12,128,931.2)" />
<use xlink:href="#f0_g" transform="matrix(12,0,0,12,145.1,931.2)" />
<use xlink:href="#f0_8" transform="matrix(12,0,0,12,156.4,931.2)" />
<use xlink:href="#f0_4" transform="matrix(12,0,0,12,163.4,931.2)" />
<use xlink:href="#f0_p" transform="matrix(12,0,0,12,180.5,931.2)" />
<use xlink:href="#f0_g" transform="matrix(12,0,0,12,198.4,931.2)" />
<use xlink:href="#f0_h" transform="matrix(12,0,0,12,209.7,931.2)" />
<use xlink:href="#f0_t" transform="matrix(12,0,0,12,221.3,931.2)" />
<use xlink:href="#f0_y" transform="matrix(12,0,0,12,237.9,931.2)" />
<use xlink:href="#f0_g" transform="matrix(12,0,0,12,252.9,931.2)" />
<use xlink:href="#f0_t" transform="matrix(12,0,0,12,264.2,931.2)" />
<use xlink:href="#f0_9" transform="matrix(12,0,0,12,274.9,931.2)" />
<use xlink:href="#f0_a" transform="matrix(12,0,0,12,290.3,931.2)" />
<use xlink:href="#f0_c" transform="matrix(12,0,0,12,297.5,931.2)" />
<use xlink:href="#f0_f" transform="matrix(12,0,0,12,314.6,931.2)" />
<use xlink:href="#f0_4" transform="matrix(12,0,0,12,326.2,931.2)" />
<use xlink:href="#f0_a" transform="matrix(12,0,0,12,337.5,931.2)" />
<use xlink:href="#f0_g" transform="matrix(12,0,0,12,350.5,931.2)" />
<use xlink:href="#f0_j" transform="matrix(12,0,0,12,367.6,931.2)" />
<use xlink:href="#f0_4" transform="matrix(12,0,0,12,379.2,931.2)" />
<use xlink:href="#f0_k" transform="matrix(12,0,0,12,390.5,931.2)" />
<use xlink:href="#f0_7" transform="matrix(12,0,0,12,401.3,931.2)" />
<use xlink:href="#f0_o" transform="matrix(12,0,0,12,406.4,931.2)" />
<use xlink:href="#f0_4" transform="matrix(12,0,0,12,416.4,931.2)" />
<use xlink:href="#f0_11" transform="matrix(12,0,0,12,427.7,931.2)" />
<use xlink:href="#f0_9" transform="matrix(12,0,0,12,433.5,931.2)" />
<use xlink:href="#f0_u" transform="matrix(12,0,0,12,449,931.2)" />
<use xlink:href="#f0_15" transform="matrix(12,0,0,12,462.4,931.2)" />
<use xlink:href="#f0_z" transform="matrix(12,0,0,12,476.4,931.2)" />
<use xlink:href="#f0_15" transform="matrix(12,0,0,12,481.9,931.2)" />
<use xlink:href="#f0_12" transform="matrix(12,0,0,12,496,931.2)" />
<use xlink:href="#f0_a" transform="matrix(12,0,0,12,508,931.2)" />
<use xlink:href="#f0_3" transform="matrix(12,0,0,12,515.2,931.2)" />
<use xlink:href="#f0_4" transform="matrix(12,0,0,12,526.8,931.2)" />
<use xlink:href="#f0_8" transform="matrix(12,0,0,12,538.1,931.2)" />
<use xlink:href="#f0_4" transform="matrix(12,0,0,12,545.1,931.2)" />
<use xlink:href="#f0_g" transform="matrix(12,0,0,12,562.2,931.2)" />
<use xlink:href="#f0_8" transform="matrix(12,0,0,12,573.5,931.2)" />
<use xlink:href="#f0_4" transform="matrix(12,0,0,12,580.5,931.2)" />
<use xlink:href="#f0_6" transform="matrix(12,0,0,12,597.7,931.2)" />
<use xlink:href="#f0_8" transform="matrix(12,0,0,12,604.2,931.2)" />
<use xlink:href="#f0_4" transform="matrix(12,0,0,12,611.2,931.2)" />
<use xlink:href="#f0_4" transform="matrix(12,0,0,12,622.5,931.2)" />
<use xlink:href="#f0_g" transform="matrix(12,0,0,12,639.6,931.2)" />
<use xlink:href="#f0_b" transform="matrix(12,0,0,12,650.9,931.2)" />
<use xlink:href="#f0_b" transform="matrix(12,0,0,12,662.5,931.2)" />
<use xlink:href="#f0_9" transform="matrix(12,0,0,12,674.1,931.2)" />
<use xlink:href="#f0_g" transform="matrix(12,0,0,12,689.5,931.2)" />
<use xlink:href="#f0_k" transform="matrix(12,0,0,12,700.7,931.2)" />
<use xlink:href="#f0_g" transform="matrix(12,0,0,12,711.5,931.2)" />
<use xlink:href="#f0_7" transform="matrix(12,0,0,12,722.8,931.2)" />
<use xlink:href="#f0_i" transform="matrix(12,0,0,12,727.9,931.2)" />
<use xlink:href="#f0_g" transform="matrix(12,0,0,12,732.9,931.2)" />
<use xlink:href="#f0_n" transform="matrix(12,0,0,12,744.2,931.2)" />
<use xlink:href="#f0_i" transform="matrix(12,0,0,12,755.8,931.2)" />
<use xlink:href="#f0_4" transform="matrix(12,0,0,12,760.8,931.2)" />
<use xlink:href="#f0_a" transform="matrix(12,0,0,12,777.9,931.2)" />
<use xlink:href="#f0_3" transform="matrix(12,0,0,12,785.1,931.2)" />
<use xlink:href="#f0_g" transform="matrix(12,0,0,12,796.7,931.2)" />
<use xlink:href="#f0_a" transform="matrix(12,0,0,12,808,931.2)" />
<use xlink:href="#f0_y" transform="matrix(12,0,0,12,86.8,959.9)" />
<use xlink:href="#f0_7" transform="matrix(12,0,0,12,101.8,959.9)" />
<use xlink:href="#f0_i" transform="matrix(12,0,0,12,106.9,959.9)" />
<use xlink:href="#f0_i" transform="matrix(12,0,0,12,112,959.9)" />
<use xlink:href="#f0_j" transform="matrix(12,0,0,12,122.9,959.9)" />
<use xlink:href="#f0_c" transform="matrix(12,0,0,12,134.6,959.9)" />
<use xlink:href="#f0_7" transform="matrix(12,0,0,12,151.5,959.9)" />
<use xlink:href="#f0_a" transform="matrix(12,0,0,12,156.6,959.9)" />
<use xlink:href="#f0_6" transform="matrix(12,0,0,12,169.7,959.9)" />
<use xlink:href="#f0_c" transform="matrix(12,0,0,12,176.1,959.9)" />
<use xlink:href="#f0_8" transform="matrix(12,0,0,12,187.2,959.9)" />
<use xlink:href="#f0_t" transform="matrix(12,0,0,12,200.7,959.9)" />
<use xlink:href="#f0_c" transform="matrix(12,0,0,12,211.5,959.9)" />
<use xlink:href="#f0_r" transform="matrix(12,0,0,12,222.7,959.9)" />
<use xlink:href="#f0_q" transform="matrix(12,0,0,12,234.3,959.9)" />
<use xlink:href="#f0_c" transform="matrix(12,0,0,12,246,959.9)" />
<use xlink:href="#f0_8" transform="matrix(12,0,0,12,257.2,959.9)" />
<use xlink:href="#f0_t" transform="matrix(12,0,0,12,270.6,959.9)" />
<use xlink:href="#f0_c" transform="matrix(12,0,0,12,281.4,959.9)" />
<use xlink:href="#f0_r" transform="matrix(12,0,0,12,292.6,959.9)" />
<use xlink:href="#f0_o" transform="matrix(12,0,0,12,310.1,959.9)" />
<use xlink:href="#f0_g" transform="matrix(12,0,0,12,320.1,959.9)" />
<use xlink:href="#f0_h" transform="matrix(12,0,0,12,331.4,959.9)" />
<use xlink:href="#f0_r" transform="matrix(12,0,0,12,348.8,959.9)" />
<use xlink:href="#f0_9" transform="matrix(12,0,0,12,360.4,959.9)" />
<use xlink:href="#f0_4" transform="matrix(12,0,0,12,370,959.9)" />
<use xlink:href="#f0_1o" transform="matrix(12,0,0,12,387.1,959.9)" />
<use xlink:href="#f0_o" transform="matrix(12,0,0,12,399.6,959.9)" />
<use xlink:href="#f0_c" transform="matrix(12,0,0,12,409.7,959.9)" />
<use xlink:href="#f0_j" transform="matrix(12,0,0,12,420.8,959.9)" />
<use xlink:href="#f0_4" transform="matrix(12,0,0,12,432.4,959.9)" />
<use xlink:href="#f0_11" transform="matrix(12,0,0,12,443.7,959.9)" />
<use xlink:href="#f0_9" transform="matrix(12,0,0,12,449.5,959.9)" />
<use xlink:href="#f0_c" transform="matrix(12,0,0,12,465,959.9)" />
<use xlink:href="#f0_8" transform="matrix(12,0,0,12,476.1,959.9)" />
<use xlink:href="#f0_f" transform="matrix(12,0,0,12,483.4,959.9)" />
<use xlink:href="#f0_g" transform="matrix(12,0,0,12,495,959.9)" />
<use xlink:href="#f0_h" transform="matrix(12,0,0,12,506.3,959.9)" />
<use xlink:href="#f0_7" transform="matrix(12,0,0,12,517.9,959.9)" />
<use xlink:href="#f0_1g" transform="matrix(12,0,0,12,523,959.9)" />
<use xlink:href="#f0_4" transform="matrix(12,0,0,12,532.6,959.9)" />
<use xlink:href="#f0_8" transform="matrix(12,0,0,12,543.9,959.9)" />
<use xlink:href="#f0_l" transform="matrix(12,0,0,12,549.7,959.9)" />
<use xlink:href="#f0_1t" transform="matrix(12,0,0,12,561.4,959.9)" />
<use xlink:href="#f0_4" transform="matrix(12,0,0,12,575.2,959.9)" />
<use xlink:href="#f0_8" transform="matrix(12,0,0,12,586.5,959.9)" />
<use xlink:href="#f0_4" transform="matrix(12,0,0,12,593.5,959.9)" />
<use xlink:href="#f0_q" transform="matrix(12,0,0,12,604.8,959.9)" />
<use xlink:href="#f0_t" transform="matrix(12,0,0,12,616.4,959.9)" />
<use xlink:href="#f0_c" transform="matrix(12,0,0,12,627.3,959.9)" />
<use xlink:href="#f0_r" transform="matrix(12,0,0,12,638.4,959.9)" />
<use xlink:href="#f0_11" transform="matrix(12,0,0,12,650.2,959.9)" />
<use xlink:href="#f0_i" transform="matrix(12,0,0,12,656,959.9)" />
<use xlink:href="#f0_i" transform="matrix(12,0,0,12,661,959.9)" />
<use xlink:href="#f0_f" transform="matrix(12,0,0,12,672,959.9)" />
<use xlink:href="#f0_4" transform="matrix(12,0,0,12,683.6,959.9)" />
<use xlink:href="#f0_a" transform="matrix(12,0,0,12,694.9,959.9)" />
<use xlink:href="#f0_g" transform="matrix(12,0,0,12,707.9,959.9)" />
<use xlink:href="#f0_u" transform="matrix(12,0,0,12,725,959.9)" />
<use xlink:href="#f0_15" transform="matrix(12,0,0,12,738.4,959.9)" />
<use xlink:href="#f0_z" transform="matrix(12,0,0,12,752.5,959.9)" />
<use xlink:href="#f0_15" transform="matrix(12,0,0,12,757.8,959.9)" />
<use xlink:href="#f0_r" transform="matrix(12,0,0,12,86.8,988.5)" />
<use xlink:href="#f0_9" transform="matrix(12,0,0,12,98.4,988.5)" />
<use xlink:href="#f0_7" transform="matrix(12,0,0,12,108,988.5)" />
<use xlink:href="#f0_h" transform="matrix(12,0,0,12,113,988.5)" />
<use xlink:href="#f0_f" transform="matrix(12,0,0,12,124.6,988.5)" />
<use xlink:href="#f0_7" transform="matrix(12,0,0,12,142.2,988.5)" />
<use xlink:href="#f0_2" transform="matrix(12,0,0,12,147.2,988.5)" />
<use xlink:href="#f0_r" transform="matrix(12,0,0,12,155.6,988.5)" />
<use xlink:href="#f0_h" transform="matrix(12,0,0,12,167.2,988.5)" />
<use xlink:href="#f0_4" transform="matrix(12,0,0,12,178.8,988.5)" />
<use xlink:href="#f0_9" transform="matrix(12,0,0,12,190.1,988.5)" />
<use xlink:href="#f0_l" transform="matrix(12,0,0,12,199.7,988.5)" />
<use xlink:href="#f0_13" transform="matrix(12,0,0,12,86.8,1017.2)" />
<use xlink:href="#f0_b" transform="matrix(12,0,0,12,101.1,1017.2)" />
<use xlink:href="#f0_4" transform="matrix(12,0,0,12,112.7,1017.2)" />
<use xlink:href="#f0_h" transform="matrix(12,0,0,12,124,1017.2)" />
</g>
<g fill="#0000FF" >
<use xlink:href="#f1_5" transform="matrix(12,0,0,12,141.6,1017.2)" />
<use xlink:href="#f1_12" transform="matrix(12,0,0,12,147.9,1017.2)" />
<use xlink:href="#f1_g" transform="matrix(12,0,0,12,158.4,1017.2)" />
<use xlink:href="#f1_6" transform="matrix(12,0,0,12,171.4,1017.2)" />
<use xlink:href="#f1_3" transform="matrix(12,0,0,12,184.4,1017.2)" />
<use xlink:href="#f1_v" transform="matrix(12,0,0,12,196.9,1017.2)" />
</g>
<g fill="#000000" >
<use xlink:href="#f0_g" transform="matrix(12,0,0,12,214.2,1017.2)" />
<use xlink:href="#f0_h" transform="matrix(12,0,0,12,225.5,1017.2)" />
<use xlink:href="#f0_j" transform="matrix(12,0,0,12,237.1,1017.2)" />
<use xlink:href="#f0_b" transform="matrix(12,0,0,12,254.5,1017.2)" />
<use xlink:href="#f0_i" transform="matrix(12,0,0,12,266.1,1017.2)" />
<use xlink:href="#f0_r" transform="matrix(12,0,0,12,271.2,1017.2)" />
<use xlink:href="#f0_f" transform="matrix(12,0,0,12,282.8,1017.2)" />
<use xlink:href="#f0_a" transform="matrix(12,0,0,12,300.3,1017.2)" />
<use xlink:href="#f0_3" transform="matrix(12,0,0,12,307.5,1017.2)" />
<use xlink:href="#f0_4" transform="matrix(12,0,0,12,319.1,1017.2)" />
<use xlink:href="#f0_j" transform="matrix(12,0,0,12,336.2,1017.2)" />
<use xlink:href="#f0_4" transform="matrix(12,0,0,12,347.8,1017.2)" />
<use xlink:href="#f0_k" transform="matrix(12,0,0,12,359.1,1017.2)" />
<use xlink:href="#f0_7" transform="matrix(12,0,0,12,370,1017.2)" />
<use xlink:href="#f0_o" transform="matrix(12,0,0,12,375,1017.2)" />
<use xlink:href="#f0_4" transform="matrix(12,0,0,12,385.1,1017.2)" />
<use xlink:href="#f0_7" transform="matrix(12,0,0,12,402.3,1017.2)" />
<use xlink:href="#f0_h" transform="matrix(12,0,0,12,407.3,1017.2)" />
<use xlink:href="#f0_a" transform="matrix(12,0,0,12,418.9,1017.2)" />
<use xlink:href="#f0_c" transform="matrix(12,0,0,12,426.1,1017.2)" />
<use xlink:href="#f0_t" transform="matrix(12,0,0,12,443.2,1017.2)" />
<use xlink:href="#f0_c" transform="matrix(12,0,0,12,454.1,1017.2)" />
<use xlink:href="#f0_r" transform="matrix(12,0,0,12,465.2,1017.2)" />
<use xlink:href="#f0_8" transform="matrix(12,0,0,12,476.8,1017.2)" />
<use xlink:href="#f0_o" transform="matrix(12,0,0,12,490.3,1017.2)" />
<use xlink:href="#f0_c" transform="matrix(12,0,0,12,500.3,1017.2)" />
<use xlink:href="#f0_p" transform="matrix(12,0,0,12,511.5,1017.2)" />
<use xlink:href="#f0_b" transform="matrix(12,0,0,12,529.3,1017.2)" />
<use xlink:href="#f0_r" transform="matrix(12,0,0,12,540.9,1017.2)" />
<use xlink:href="#f0_a" transform="matrix(12,0,0,12,552.5,1017.2)" />
<use xlink:href="#f0_4" transform="matrix(12,0,0,12,559.7,1017.2)" />
<use xlink:href="#f0_8" transform="matrix(12,0,0,12,571,1017.2)" />
<use xlink:href="#f0_l" transform="matrix(12,0,0,12,576.8,1017.2)" />
<use xlink:href="#f0_e" transform="matrix(12,0,0,12,588.6,1017.2)" />
<use xlink:href="#f0_4" transform="matrix(12,0,0,12,600.2,1017.2)" />
<use xlink:href="#f0_i" transform="matrix(12,0,0,12,611.5,1017.2)" />
<use xlink:href="#f0_4" transform="matrix(12,0,0,12,616.5,1017.2)" />
<use xlink:href="#f0_o" transform="matrix(12,0,0,12,627.8,1017.2)" />
<use xlink:href="#f0_a" transform="matrix(12,0,0,12,637.9,1017.2)" />
<use xlink:href="#f0_a" transform="matrix(12,0,0,12,650.9,1017.2)" />
<use xlink:href="#f0_3" transform="matrix(12,0,0,12,658.1,1017.2)" />
<use xlink:href="#f0_4" transform="matrix(12,0,0,12,669.7,1017.2)" />
<use xlink:href="#f0_j" transform="matrix(12,0,0,12,686.8,1017.2)" />
<use xlink:href="#f0_4" transform="matrix(12,0,0,12,698.4,1017.2)" />
<use xlink:href="#f0_k" transform="matrix(12,0,0,12,709.7,1017.2)" />
<use xlink:href="#f0_7" transform="matrix(12,0,0,12,720.5,1017.2)" />
<use xlink:href="#f0_o" transform="matrix(12,0,0,12,725.5,1017.2)" />
<use xlink:href="#f0_4" transform="matrix(12,0,0,12,735.6,1017.2)" />
<use xlink:href="#f0_6" transform="matrix(12,0,0,12,752.9,1017.2)" />
<use xlink:href="#f0_8" transform="matrix(12,0,0,12,759.3,1017.2)" />
<use xlink:href="#f0_c" transform="matrix(12,0,0,12,766.5,1017.2)" />
<use xlink:href="#f0_p" transform="matrix(12,0,0,12,777.6,1017.2)" />
<use xlink:href="#f0_a" transform="matrix(12,0,0,12,86.8,1045.8)" />
<use xlink:href="#f0_3" transform="matrix(12,0,0,12,94,1045.8)" />
<use xlink:href="#f0_4" transform="matrix(12,0,0,12,105.6,1045.8)" />
<use xlink:href="#f0_p" transform="matrix(12,0,0,12,122.7,1045.8)" />
<use xlink:href="#f0_4" transform="matrix(12,0,0,12,140.5,1045.8)" />
<use xlink:href="#f0_h" transform="matrix(12,0,0,12,151.8,1045.8)" />
<use xlink:href="#f0_r" transform="matrix(12,0,0,12,163.4,1045.8)" />
<use xlink:href="#f0_n" transform="matrix(12,0,0,12,181,1045.8)" />
<use xlink:href="#f0_g" transform="matrix(12,0,0,12,192.4,1045.8)" />
<use xlink:href="#f0_8" transform="matrix(12,0,0,12,203.7,1045.8)" />
<use xlink:href="#f0_r" transform="matrix(12,0,0,12,217.2,1045.8)" />
<use xlink:href="#f0_h" transform="matrix(12,0,0,12,228.8,1045.8)" />
<use xlink:href="#f0_j" transform="matrix(12,0,0,12,240.4,1045.8)" />
<use xlink:href="#f0_4" transform="matrix(12,0,0,12,252,1045.8)" />
<use xlink:href="#f0_8" transform="matrix(12,0,0,12,263.3,1045.8)" />
<use xlink:href="#f0_a" transform="matrix(12,0,0,12,276.6,1045.8)" />
<use xlink:href="#f0_3" transform="matrix(12,0,0,12,283.8,1045.8)" />
<use xlink:href="#f0_4" transform="matrix(12,0,0,12,295.4,1045.8)" />
<use xlink:href="#f0_b" transform="matrix(12,0,0,12,312.6,1045.8)" />
<use xlink:href="#f0_i" transform="matrix(12,0,0,12,324.2,1045.8)" />
<use xlink:href="#f0_g" transform="matrix(12,0,0,12,329.2,1045.8)" />
<use xlink:href="#f0_t" transform="matrix(12,0,0,12,340.5,1045.8)" />
<use xlink:href="#f0_4" transform="matrix(12,0,0,12,351.2,1045.8)" />
<use xlink:href="#f0_8" transform="matrix(12,0,0,12,362.5,1045.8)" />
<use xlink:href="#f0_o" transform="matrix(12,0,0,12,375.9,1045.8)" />
<use xlink:href="#f0_c" transform="matrix(12,0,0,12,386,1045.8)" />
<use xlink:href="#f0_h" transform="matrix(12,0,0,12,397.2,1045.8)" />
<use xlink:href="#f0_a" transform="matrix(12,0,0,12,408.8,1045.8)" />
<use xlink:href="#f0_8" transform="matrix(12,0,0,12,416,1045.8)" />
<use xlink:href="#f0_c" transform="matrix(12,0,0,12,423.1,1045.8)" />
<use xlink:href="#f0_i" transform="matrix(12,0,0,12,434.3,1045.8)" />
<use xlink:href="#f0_9" transform="matrix(12,0,0,12,439.3,1045.8)" />
<use xlink:href="#f0_l" transform="matrix(12,0,0,12,448.9,1045.8)" />
<use xlink:href="#f0_7" transform="matrix(12,0,0,12,460.7,1045.8)" />
<use xlink:href="#f0_2" transform="matrix(12,0,0,12,465.7,1045.8)" />
<use xlink:href="#f0_r" transform="matrix(12,0,0,12,474.1,1045.8)" />
<use xlink:href="#f0_h" transform="matrix(12,0,0,12,485.7,1045.8)" />
<use xlink:href="#f0_4" transform="matrix(12,0,0,12,497.3,1045.8)" />
<use xlink:href="#f0_9" transform="matrix(12,0,0,12,508.6,1045.8)" />
<use xlink:href="#f0_y" transform="matrix(12,0,0,12,524,1045.8)" />
<use xlink:href="#f0_7" transform="matrix(12,0,0,12,539,1045.8)" />
<use xlink:href="#f0_i" transform="matrix(12,0,0,12,544.1,1045.8)" />
<use xlink:href="#f0_i" transform="matrix(12,0,0,12,549.1,1045.8)" />
<use xlink:href="#f0_j" transform="matrix(12,0,0,12,560.1,1045.8)" />
<use xlink:href="#f0_7" transform="matrix(12,0,0,12,571.7,1045.8)" />
<use xlink:href="#f0_9" transform="matrix(12,0,0,12,576.7,1045.8)" />
<use xlink:href="#f0_b" transform="matrix(12,0,0,12,586.3,1045.8)" />
<use xlink:href="#f0_i" transform="matrix(12,0,0,12,597.9,1045.8)" />
<use xlink:href="#f0_g" transform="matrix(12,0,0,12,603,1045.8)" />
<use xlink:href="#f0_t" transform="matrix(12,0,0,12,614.3,1045.8)" />
<use xlink:href="#f0_t" transform="matrix(12,0,0,12,630.9,1045.8)" />
<use xlink:href="#f0_c" transform="matrix(12,0,0,12,641.8,1045.8)" />
<use xlink:href="#f0_r" transform="matrix(12,0,0,12,652.9,1045.8)" />
<use xlink:href="#f0_8" transform="matrix(12,0,0,12,664.7,1045.8)" />
<use xlink:href="#f0_j" transform="matrix(12,0,0,12,678,1045.8)" />
<use xlink:href="#f0_4" transform="matrix(12,0,0,12,689.6,1045.8)" />
<use xlink:href="#f0_k" transform="matrix(12,0,0,12,700.9,1045.8)" />
<use xlink:href="#f0_7" transform="matrix(12,0,0,12,711.7,1045.8)" />
<use xlink:href="#f0_o" transform="matrix(12,0,0,12,716.7,1045.8)" />
<use xlink:href="#f0_4" transform="matrix(12,0,0,12,726.8,1045.8)" />
<use xlink:href="#f0_h" transform="matrix(12,0,0,12,744,1045.8)" />
<use xlink:href="#f0_g" transform="matrix(12,0,0,12,755.5,1045.8)" />
<use xlink:href="#f0_p" transform="matrix(12,0,0,12,766.8,1045.8)" />
<use xlink:href="#f0_4" transform="matrix(12,0,0,12,784.6,1045.8)" />
<use xlink:href="#f0_q" transform="matrix(12,0,0,12,795.9,1045.8)" />
<use xlink:href="#f0_o" transform="matrix(12,0,0,12,86.8,1074.5)" />
<use xlink:href="#f0_g" transform="matrix(12,0,0,12,96.8,1074.5)" />
<use xlink:href="#f0_b" transform="matrix(12,0,0,12,108.1,1074.5)" />
<use xlink:href="#f0_g" transform="matrix(12,0,0,12,119.6,1074.5)" />
<use xlink:href="#f0_o" transform="matrix(12,0,0,12,130.9,1074.5)" />
<use xlink:href="#f0_7" transform="matrix(12,0,0,12,141,1074.5)" />
<use xlink:href="#f0_a" transform="matrix(12,0,0,12,146,1074.5)" />
<use xlink:href="#f0_t" transform="matrix(12,0,0,12,153.2,1074.5)" />
<use xlink:href="#f0_q" transform="matrix(12,0,0,12,164.2,1074.5)" />
<use xlink:href="#f0_k" transform="matrix(12,0,0,12,175.8,1074.5)" />
<use xlink:href="#f0_4" transform="matrix(12,0,0,12,186.6,1074.5)" />
<use xlink:href="#f0_8" transform="matrix(12,0,0,12,197.9,1074.5)" />
<use xlink:href="#f0_9" transform="matrix(12,0,0,12,205.4,1074.5)" />
<use xlink:href="#f0_7" transform="matrix(12,0,0,12,215,1074.5)" />
<use xlink:href="#f0_c" transform="matrix(12,0,0,12,220,1074.5)" />
<use xlink:href="#f0_h" transform="matrix(12,0,0,12,231.2,1074.5)" />
<use xlink:href="#f0_q" transform="matrix(12,0,0,12,242.8,1074.5)" />
<use xlink:href="#f0_9" transform="matrix(12,0,0,12,254.5,1074.5)" />
<use xlink:href="#f0_4" transform="matrix(12,0,0,12,264.2,1074.5)" />
<use xlink:href="#f0_8" transform="matrix(12,0,0,12,275.4,1074.5)" />
<use xlink:href="#f0_7" transform="matrix(12,0,0,12,282.9,1074.5)" />
<use xlink:href="#f0_g" transform="matrix(12,0,0,12,288,1074.5)" />
<use xlink:href="#f0_i" transform="matrix(12,0,0,12,299.3,1074.5)" />
<use xlink:href="#f0_h" transform="matrix(12,0,0,12,310.1,1074.5)" />
<use xlink:href="#f0_r" transform="matrix(12,0,0,12,321.7,1074.5)" />
<use xlink:href="#f0_p" transform="matrix(12,0,0,12,333.3,1074.5)" />
<use xlink:href="#f0_n" transform="matrix(12,0,0,12,351.2,1074.5)" />
<use xlink:href="#f0_4" transform="matrix(12,0,0,12,362.8,1074.5)" />
<use xlink:href="#f0_8" transform="matrix(12,0,0,12,374.1,1074.5)" />
<use xlink:href="#f0_g" transform="matrix(12,0,0,12,387.5,1074.5)" />
<use xlink:href="#f0_h" transform="matrix(12,0,0,12,398.6,1074.5)" />
<use xlink:href="#f0_j" transform="matrix(12,0,0,12,410.3,1074.5)" />
<use xlink:href="#f0_b" transform="matrix(12,0,0,12,427.8,1074.5)" />
<use xlink:href="#f0_3" transform="matrix(12,0,0,12,439.4,1074.5)" />
<use xlink:href="#f0_c" transform="matrix(12,0,0,12,451,1074.5)" />
<use xlink:href="#f0_h" transform="matrix(12,0,0,12,462.2,1074.5)" />
<use xlink:href="#f0_4" transform="matrix(12,0,0,12,473.8,1074.5)" />
<use xlink:href="#f0_h" transform="matrix(12,0,0,12,490.9,1074.5)" />
<use xlink:href="#f0_r" transform="matrix(12,0,0,12,502.5,1074.5)" />
<use xlink:href="#f0_p" transform="matrix(12,0,0,12,514.1,1074.5)" />
<use xlink:href="#f0_n" transform="matrix(12,0,0,12,531.9,1074.5)" />
<use xlink:href="#f0_4" transform="matrix(12,0,0,12,543.5,1074.5)" />
<use xlink:href="#f0_8" transform="matrix(12,0,0,12,554.8,1074.5)" />
<use xlink:href="#f0_l" transform="matrix(12,0,0,12,560.6,1074.5)" />
<use xlink:href="#f0_18" transform="matrix(12,0,0,12,572.4,1074.5)" />
<use xlink:href="#f0_i" transform="matrix(12,0,0,12,585.2,1074.5)" />
<use xlink:href="#f0_7" transform="matrix(12,0,0,12,590.2,1074.5)" />
<use xlink:href="#f0_o" transform="matrix(12,0,0,12,595.3,1074.5)" />
<use xlink:href="#f0_10" transform="matrix(12,0,0,12,605.4,1074.5)" />
<use xlink:href="#f0_c" transform="matrix(12,0,0,12,621.8,1074.5)" />
<use xlink:href="#f0_h" transform="matrix(12,0,0,12,633,1074.5)" />
<use xlink:href="#f0_a" transform="matrix(12,0,0,12,650.5,1074.5)" />
<use xlink:href="#f0_3" transform="matrix(12,0,0,12,657.7,1074.5)" />
<use xlink:href="#f0_4" transform="matrix(12,0,0,12,669.3,1074.5)" />
<use xlink:href="#f0_9" transform="matrix(12,0,0,12,686.4,1074.5)" />
<use xlink:href="#f0_4" transform="matrix(12,0,0,12,695.9,1074.5)" />
<use xlink:href="#f0_8" transform="matrix(12,0,0,12,707.2,1074.5)" />
<use xlink:href="#f0_7" transform="matrix(12,0,0,12,714.7,1074.5)" />
<use xlink:href="#f0_g" transform="matrix(12,0,0,12,719.7,1074.5)" />
<use xlink:href="#f0_i" transform="matrix(12,0,0,12,731,1074.5)" />
<use xlink:href="#f0_h" transform="matrix(12,0,0,12,742,1074.5)" />
<use xlink:href="#f0_r" transform="matrix(12,0,0,12,753.6,1074.5)" />
<use xlink:href="#f0_p" transform="matrix(12,0,0,12,765.2,1074.5)" />
<use xlink:href="#f0_n" transform="matrix(12,0,0,12,783.1,1074.5)" />
<use xlink:href="#f0_4" transform="matrix(12,0,0,12,794.7,1074.5)" />
<use xlink:href="#f0_8" transform="matrix(12,0,0,12,806,1074.5)" />
<use xlink:href="#f0_g" transform="matrix(12,0,0,12,86.8,1103.1)" />
<use xlink:href="#f0_h" transform="matrix(12,0,0,12,98.1,1103.1)" />
<use xlink:href="#f0_j" transform="matrix(12,0,0,12,109.7,1103.1)" />
<use xlink:href="#f0_7" transform="matrix(12,0,0,12,127.1,1103.1)" />
<use xlink:href="#f0_a" transform="matrix(12,0,0,12,132.1,1103.1)" />
<use xlink:href="#f0_y" transform="matrix(12,0,0,12,145.3,1103.1)" />
<use xlink:href="#f0_7" transform="matrix(12,0,0,12,160.2,1103.1)" />
<use xlink:href="#f0_i" transform="matrix(12,0,0,12,165.3,1103.1)" />
<use xlink:href="#f0_i" transform="matrix(12,0,0,12,170.3,1103.1)" />
<use xlink:href="#f0_o" transform="matrix(12,0,0,12,181.3,1103.1)" />
<use xlink:href="#f0_3" transform="matrix(12,0,0,12,191.4,1103.1)" />
<use xlink:href="#f0_g" transform="matrix(12,0,0,12,203,1103.1)" />
<use xlink:href="#f0_h" transform="matrix(12,0,0,12,214.3,1103.1)" />
<use xlink:href="#f0_f" transform="matrix(12,0,0,12,225.9,1103.1)" />
<use xlink:href="#f0_4" transform="matrix(12,0,0,12,237.5,1103.1)" />
<use xlink:href="#f0_a" transform="matrix(12,0,0,12,254.6,1103.1)" />
<use xlink:href="#f0_c" transform="matrix(12,0,0,12,261.8,1103.1)" />
<use xlink:href="#f0_t" transform="matrix(12,0,0,12,278.9,1103.1)" />
<use xlink:href="#f0_c" transform="matrix(12,0,0,12,289.7,1103.1)" />
<use xlink:href="#f0_r" transform="matrix(12,0,0,12,300.8,1103.1)" />
<use xlink:href="#f0_8" transform="matrix(12,0,0,12,312.4,1103.1)" />
<use xlink:href="#f0_j" transform="matrix(12,0,0,12,325.9,1103.1)" />
<use xlink:href="#f0_4" transform="matrix(12,0,0,12,337.5,1103.1)" />
<use xlink:href="#f0_k" transform="matrix(12,0,0,12,348.8,1103.1)" />
<use xlink:href="#f0_7" transform="matrix(12,0,0,12,359.6,1103.1)" />
<use xlink:href="#f0_o" transform="matrix(12,0,0,12,364.6,1103.1)" />
<use xlink:href="#f0_4" transform="matrix(12,0,0,12,374.7,1103.1)" />
<use xlink:href="#f0_11" transform="matrix(12,0,0,12,386,1103.1)" />
<use xlink:href="#f0_9" transform="matrix(12,0,0,12,391.6,1103.1)" />
<use xlink:href="#f0_u" transform="matrix(12,0,0,12,407.2,1103.1)" />
<use xlink:href="#f0_15" transform="matrix(12,0,0,12,420.6,1103.1)" />
<use xlink:href="#f0_z" transform="matrix(12,0,0,12,434.7,1103.1)" />
<use xlink:href="#f0_15" transform="matrix(12,0,0,12,440,1103.1)" />
<use xlink:href="#f0_12" transform="matrix(12,0,0,12,454.2,1103.1)" />
</g>
</g>
<image preserveAspectRatio="none" x="87" y="287" width="736" height="542" xlink:href="img/1.png" />
<defs>
<path d="M150,0V1114H300V0Z" 
id="f0_z"
transform="scale(0.001,-0.001)" />

<path d="M139,0V836H277V706c0,0,49,75,116,112c0,0,67,38,154,38c0,0,144,0,218,-90c0,0,74,-89,74,-262V0H702V500c0,0,0,119,-46,177c0,0,-47,59,-139,59c0,0,-112,0,-176,-71c0,0,-64,-70,-64,-193V0Z" 
id="f0_h"
transform="scale(0.001,-0.001)" />

<path d="M421,0C421,0,263,0,202,59c0,0,-60,60,-60,217V729H41V836H142v238H280V836H562V729H280V276c0,0,0,-102,28,-132c0,0,28,-29,113,-29H562V0Z" 
id="f0_a"
transform="scale(0.001,-0.001)" />

<path d="M231,492l491,1c0,0,-2,112,-64,179c0,0,-61,67,-163,67c0,0,-115,0,-184,-65c0,0,-69,-64,-80,-182ZM517,-20c0,0,-199,0,-316,115C201,95,84,211,84,410c0,0,0,205,111,325c0,0,111,121,299,121c0,0,168,0,266,-109c0,0,98,-108,98,-295V385H227c0,0,9,-142,85,-216c0,0,77,-74,213,-74c0,0,80,0,154,19c0,0,74,19,147,58V42C826,42,752,11,675,-4c0,0,-78,-16,-158,-16Z" 
id="f0_4"
transform="scale(0.001,-0.001)" />

<path d="M139,0V836H277V706c0,0,43,76,112,113c0,0,70,37,169,37c0,0,14,0,31,-2c0,0,17,-2,38,-6l1,-141c0,0,-23,14,-51,20c0,0,-27,6,-60,6c0,0,-116,0,-178,-75c0,0,-62,-76,-62,-218V0Z" 
id="f0_8"
transform="scale(0.001,-0.001)" />

<path d="M139,0V836H277V706c0,0,47,77,112,113c0,0,66,37,156,37c0,0,91,0,155,-47c0,0,64,-46,94,-134c0,0,52,93,123,137c0,0,72,44,169,44c0,0,130,0,201,-92c0,0,71,-91,71,-260V0H1220V500c0,0,0,120,-42,178c0,0,-43,58,-130,58c0,0,-107,0,-169,-71c0,0,-62,-70,-62,-193V0H680V500c0,0,0,121,-43,179c0,0,-42,57,-131,57c0,0,-105,0,-167,-71c0,0,-62,-71,-62,-193V0Z" 
id="f0_p"
transform="scale(0.001,-0.001)" />

<path d="M460,93c0,0,109,0,171,86c0,0,63,86,63,238c0,0,0,151,-63,237c0,0,-62,86,-171,86c0,0,-109,0,-172,-86c0,0,-62,-86,-62,-237c0,0,0,-152,62,-238c0,0,63,-86,172,-86ZM426,-20c0,0,-151,0,-247,119c0,0,-95,121,-95,318c0,0,0,197,95,318c0,0,96,121,247,121c0,0,93,0,159,-37c0,0,66,-36,109,-110v452H831V0H694V125C694,125,651,51,585,15c0,0,-66,-35,-159,-35Z" 
id="f0_j"
transform="scale(0.001,-0.001)" />

<path d="M144,0V836H281V0Zm0,987v174H281V987Z" 
id="f0_7"
transform="scale(0.001,-0.001)" />

<path d="M408,93c0,0,115,0,184,81c0,0,69,81,69,215v30H524c0,0,-167,0,-231,-38c0,0,-64,-38,-64,-129c0,0,0,-73,48,-116c0,0,48,-43,131,-43ZM372,-20c0,0,-128,0,-204,70c0,0,-76,72,-76,193c0,0,0,141,94,212c0,0,95,72,282,72H661v13c0,0,0,95,-62,147c0,0,-63,52,-175,52c0,0,-72,0,-140,-17c0,0,-68,-17,-130,-51V798c0,0,75,29,146,43c0,0,71,15,138,15c0,0,181,0,270,-95c0,0,90,-94,90,-285V0H661V127C661,127,614,51,544,15c0,0,-70,-35,-172,-35Z" 
id="f0_g"
transform="scale(0.001,-0.001)" />

<path d="M630,-20c0,0,-253,0,-398,153C232,133,86,288,86,556c0,0,0,269,146,423c0,0,145,155,398,155c0,0,100,0,189,-26c0,0,88,-27,166,-79V869c0,0,-76,71,-163,106c0,0,-86,35,-183,35c0,0,-191,0,-292,-117C347,893,245,777,245,556c0,0,0,-220,102,-337c0,0,101,-116,292,-116c0,0,97,0,183,35c0,0,87,35,163,105V86C985,86,906,32,817,5c0,0,-88,-25,-187,-25Z" 
id="f0_18"
transform="scale(0.001,-0.001)" />

<path d="M166,0V729H35V836H166v58c0,0,0,139,65,203c0,0,65,64,206,64H567V1046H435c0,0,-74,0,-102,-29c0,0,-29,-30,-29,-107V836H530V729H304V0Z" 
id="f0_6"
transform="scale(0.001,-0.001)" />

<path d="M495,-20c0,0,-189,0,-300,117C195,97,84,216,84,417c0,0,0,204,112,321c0,0,113,118,308,118c0,0,64,0,124,-14c0,0,60,-13,117,-39V675c0,0,-58,32,-117,48c0,0,-58,16,-118,16c0,0,-133,0,-207,-84c0,0,-74,-85,-74,-238c0,0,0,-153,74,-238c0,0,74,-84,207,-84c0,0,60,0,118,16c0,0,59,16,117,48V32C745,32,688,5,626,-7c0,0,-61,-13,-131,-13Z" 
id="f0_o"
transform="scale(0.001,-0.001)" />

<path d="M376,-20c0,0,-67,0,-140,12C236,-8,164,4,83,30V172c0,0,76,-40,150,-59c0,0,74,-20,146,-20c0,0,97,0,150,33c0,0,52,33,52,94c0,0,0,56,-38,85c0,0,-38,30,-165,58l-48,11c0,0,-128,27,-184,83c0,0,-57,55,-57,152c0,0,0,118,83,182c0,0,84,65,238,65c0,0,76,0,143,-12c0,0,67,-11,124,-33V681c0,0,-58,29,-121,44c0,0,-63,15,-130,15c0,0,-102,0,-153,-31c0,0,-51,-31,-51,-94c0,0,0,-48,37,-75c0,0,36,-27,147,-52l46,-10c0,0,147,-32,208,-89c0,0,62,-57,62,-159c0,0,0,-116,-93,-184c0,0,-92,-66,-253,-66Z" 
id="f0_9"
transform="scale(0.001,-0.001)" />

<path d="M117,-176L179,62V190H336V62L213,-176Z" 
id="f0_q"
transform="scale(0.001,-0.001)" />

<path d="M467,95c0,0,110,0,174,86c0,0,64,87,64,236c0,0,0,148,-64,235c0,0,-64,87,-174,87c0,0,-110,0,-174,-86c0,0,-64,-86,-64,-236c0,0,0,-150,64,-236c0,0,63,-86,174,-86Zm0,-115c0,0,-179,0,-281,115C186,95,84,212,84,417c0,0,0,206,102,322c0,0,102,117,281,117c0,0,179,0,282,-117c0,0,102,-116,102,-322c0,0,0,-205,-102,-322C749,95,646,-20,467,-20Z" 
id="f0_c"
transform="scale(0.001,-0.001)" />

<path d="M510,93c0,0,109,0,171,86c0,0,62,86,62,238c0,0,0,151,-62,237c0,0,-62,86,-171,86c0,0,-109,0,-171,-86c0,0,-62,-86,-62,-237c0,0,0,-152,62,-238c0,0,62,-86,171,-86ZM544,-20c0,0,-92,0,-158,35c0,0,-66,36,-109,110V0H139V1161H277V709c0,0,43,74,109,110c0,0,66,37,158,37c0,0,152,0,247,-121c0,0,95,-121,95,-318c0,0,0,-197,-95,-318C791,99,696,-20,544,-20Z" 
id="f0_n"
transform="scale(0.001,-0.001)" />

<path d="M359,0L46,836H191L453,134L714,836H859L546,0Z" 
id="f0_k"
transform="scale(0.001,-0.001)" />

<path d="M163,0V190H321V0Z" 
id="f0_l"
transform="scale(0.001,-0.001)" />

<path d="M391,0V987H-3v127H938V987H543V0Z" 
id="f0_2"
transform="scale(0.001,-0.001)" />

<path d="M139,0V1161H277V706c0,0,49,75,116,112c0,0,67,38,154,38c0,0,144,0,218,-90c0,0,74,-89,74,-262V0H702V500c0,0,0,119,-46,177c0,0,-47,59,-139,59c0,0,-112,0,-176,-71c0,0,-64,-70,-64,-193V0Z" 
id="f0_3"
transform="scale(0.001,-0.001)" />

<path d="M510,93c0,0,109,0,171,86c0,0,62,86,62,238c0,0,0,151,-62,237c0,0,-62,86,-171,86c0,0,-109,0,-171,-86c0,0,-62,-86,-62,-237c0,0,0,-152,62,-238c0,0,62,-86,171,-86ZM139,-317V836H277V709c0,0,43,74,109,110c0,0,66,37,158,37c0,0,152,0,247,-121c0,0,95,-121,95,-318c0,0,0,-197,-95,-318C791,99,696,-20,544,-20c0,0,-92,0,-158,35c0,0,-66,36,-109,110V-317Z" 
id="f0_b"
transform="scale(0.001,-0.001)" />

<path d="M144,0V1161H281V0Z" 
id="f0_i"
transform="scale(0.001,-0.001)" />

<path d="M424,-20c0,0,-145,0,-219,88c0,0,-75,89,-75,262V836H267V335c0,0,0,-119,46,-178c0,0,47,-59,139,-59c0,0,112,0,177,71c0,0,64,71,64,193V836H830V0H693V128C693,128,643,52,577,15c0,0,-66,-35,-153,-35Z" 
id="f0_r"
transform="scale(0.001,-0.001)" />

<path d="M46,0L444,595L97,1114H259L536,700l278,414H976L618,579L999,0H837L524,474L209,0Z" 
id="f0_1o"
transform="scale(0.001,-0.001)" />

<path d="M121,-317v116h81c0,0,57,0,88,26c0,0,31,27,69,127l25,62L46,836H191L453,182L714,836H859L492,-76c0,0,-58,-150,-113,-195c0,0,-55,-46,-148,-46Z" 
id="f0_t"
transform="scale(0.001,-0.001)" />

<path d="M150,0V1114H353L846,182v932H992V0H789L296,932V0Z" 
id="f0_m"
transform="scale(0.001,-0.001)" />

<path d="M283,0L65,836H202L373,184L544,836H706L878,184l171,652h137L967,0H806L626,685L445,0Z" 
id="f0_y"
transform="scale(0.001,-0.001)" />

<path d="M150,0V1114H300V643l500,471H994L441,595L1034,0H835L300,536V0Z" 
id="f0_1l"
transform="scale(0.001,-0.001)" />

<path d="M727,411L522,965L318,411ZM12,0L437,1114H608L1033,0H876L774,286H272L171,0Z" 
id="f0_d"
transform="scale(0.001,-0.001)" />

<path d="M548,620c0,0,90,0,129,33c0,0,39,34,39,111c0,0,0,76,-39,109c0,0,-39,32,-129,32H427V620ZM140,0V1114H578c0,0,220,0,323,-74c0,0,102,-74,102,-234c0,0,0,-110,-53,-181c0,0,-54,-71,-161,-104c0,0,59,-14,106,-61c0,0,46,-47,94,-144L1145,0H839L703,277c0,0,-41,83,-83,114c0,0,-42,30,-112,30H427V0Z" 
id="f1_10"
transform="scale(0.001,-0.001)" />

<path d="M687,509c0,0,0,76,-44,122c0,0,-44,47,-116,47c0,0,-78,0,-126,-44c0,0,-49,-43,-61,-125ZM544,-20c0,0,-227,0,-353,114C191,94,66,209,66,417c0,0,0,204,123,321c0,0,123,118,340,118c0,0,197,0,315,-119c0,0,118,-118,118,-317V344H337c0,0,10,-94,68,-141c0,0,59,-47,163,-47c0,0,85,0,173,25c0,0,89,25,182,76V51C923,51,828,15,733,-2c0,0,-94,-18,-189,-18Z" 
id="f1_3"
transform="scale(0.001,-0.001)" />

<path d="M520,194c0,0,84,0,130,61c0,0,46,61,46,172c0,0,0,112,-46,174c0,0,-46,61,-130,61c0,0,-82,0,-129,-61c0,0,-46,-62,-46,-174c0,0,0,-115,45,-174c0,0,45,-59,130,-59ZM469,-328c0,0,-78,0,-151,12c0,0,-73,12,-147,36V-71c0,0,70,-41,137,-61c0,0,67,-20,135,-20c0,0,131,0,192,58c0,0,61,57,61,178v58C696,142,641,69,575,34C575,34,508,0,421,0C421,0,268,0,168,121C168,121,68,241,68,428c0,0,0,187,100,307c0,0,100,120,253,120c0,0,87,0,154,-35c0,0,66,-34,121,-108V836H965V84c0,0,0,-200,-127,-306c0,0,-127,-106,-369,-106Z" 
id="f1_7"
transform="scale(0.001,-0.001)" />

<path d="M128,0V836H395V0Zm0,944v217H395V944Z" 
id="f1_5"
transform="scale(0.001,-0.001)" />

<path d="M445,-20c0,0,-83,0,-171,12C274,-8,185,4,92,30V234c0,0,80,-39,164,-58c0,0,84,-20,170,-20c0,0,79,0,118,22c0,0,40,22,40,64c0,0,0,36,-28,53c0,0,-27,18,-108,27l-47,6c0,0,-179,23,-250,83c0,0,-72,61,-72,184c0,0,0,132,91,196c0,0,91,65,279,65c0,0,74,0,155,-12c0,0,82,-11,177,-34V606c0,0,-86,36,-165,54c0,0,-80,18,-151,18c0,0,-76,0,-113,-19c0,0,-37,-19,-37,-59c0,0,0,-32,28,-49c0,0,28,-17,100,-25l47,-7c0,0,205,-26,276,-86c0,0,71,-59,71,-187c0,0,0,-133,-98,-200c0,0,-99,-66,-294,-66Z" 
id="f1_v"
transform="scale(0.001,-0.001)" />

<path d="M443,0C443,0,285,0,219,66c0,0,-66,66,-66,224V645H20V836H153v237H419V836H695V645H419V290c0,0,0,-58,24,-79c0,0,23,-20,91,-20H672V0Z" 
id="f1_4"
transform="scale(0.001,-0.001)" />

<path d="M128,0V836H395V698c0,0,52,82,118,120c0,0,67,38,161,38c0,0,13,0,29,-2c0,0,15,-1,45,-4l1,-242c0,0,-35,17,-70,25c0,0,-35,7,-70,7c0,0,-103,0,-158,-66c0,0,-56,-66,-56,-189V0Z" 
id="f1_b"
transform="scale(0.001,-0.001)" />

<path d="M128,0V836H395V713c0,0,60,73,128,108c0,0,68,35,150,35c0,0,145,0,220,-89c0,0,75,-89,75,-258V0H699V389c0,0,0,109,-5,150c0,0,-5,41,-16,60c0,0,-16,26,-43,41c0,0,-27,14,-61,14c0,0,-84,0,-131,-64c0,0,-48,-65,-48,-179V0Z" 
id="f1_6"
transform="scale(0.001,-0.001)" />

<path d="M530,217c0,0,176,0,269,87c0,0,93,88,93,254c0,0,0,166,-93,252c0,0,-92,87,-269,87H427V217ZM140,0V1114H443c0,0,253,0,378,-36c0,0,124,-37,213,-123c0,0,78,-76,116,-174c0,0,38,-98,38,-223c0,0,0,-126,-38,-225c0,0,-38,-99,-116,-174c0,0,-90,-87,-215,-123C819,36,694,0,443,0Z" 
id="f1_l"
transform="scale(0.001,-0.001)" />

<path d="M352,0L23,836H291L499,258L706,836H974L645,0Z" 
id="f1_t"
transform="scale(0.001,-0.001)" />

<path d="M547,-20c0,0,-226,0,-354,114C193,94,66,210,66,417c0,0,0,207,127,323c0,0,128,116,354,116c0,0,66,0,129,-12c0,0,64,-11,128,-34V592c0,0,-55,37,-110,55c0,0,-54,18,-113,18c0,0,-112,0,-175,-65c0,0,-62,-66,-62,-183c0,0,0,-117,62,-183c0,0,63,-65,175,-65c0,0,62,0,119,19c0,0,56,19,104,55V24C804,24,741,1,676,-9c0,0,-64,-11,-129,-11Z" 
id="f1_e"
transform="scale(0.001,-0.001)" />

<path d="M150,0V1114H300V127H843V0Z" 
id="f0_1a"
transform="scale(0.001,-0.001)" />

<path d="M132,763l62,237v114H351V1000L228,763Z" 
id="f0_11"
transform="scale(0.001,-0.001)" />

<path d="M44,0L369,437L71,836H233L455,538L677,836H839L537,429L855,0H693L449,328L206,0Z" 
id="f0_14"
transform="scale(0.001,-0.001)" />

<path d="M460,115c0,0,111,0,173,82c0,0,61,82,61,230c0,0,0,149,-61,231c0,0,-62,82,-173,82c0,0,-111,0,-173,-82c0,0,-61,-82,-61,-231c0,0,0,-148,61,-230c0,0,62,-82,173,-82ZM446,-317c0,0,-72,0,-137,11c0,0,-64,11,-124,33v134c0,0,60,-33,119,-49c0,0,59,-15,121,-15c0,0,135,0,202,70c0,0,67,71,67,212v68C694,147,652,73,585,36C585,36,519,0,426,0C426,0,272,0,178,117c0,0,-94,117,-94,310c0,0,0,194,94,311c0,0,94,118,248,118c0,0,93,0,159,-37c0,0,67,-36,109,-110V836H831V104c0,0,0,-212,-95,-317c0,0,-94,-104,-290,-104Z" 
id="f0_f"
transform="scale(0.001,-0.001)" />

<path d="M602,101c0,0,164,0,260,122c0,0,95,123,95,333c0,0,0,211,-95,334c0,0,-96,122,-260,122c0,0,-164,0,-260,-122c0,0,-97,-123,-97,-334c0,0,0,-210,97,-333c0,0,96,-122,260,-122Zm0,-121c0,0,-235,0,-375,155C227,135,86,292,86,556c0,0,0,264,141,421c0,0,140,157,375,157c0,0,234,0,374,-157c0,0,141,-157,141,-421c0,0,0,-263,-141,-420C976,136,836,-20,602,-20Z" 
id="f0_13"
transform="scale(0.001,-0.001)" />

<path d="M74,357V479H476V357Z" 
id="f0_1n"
transform="scale(0.001,-0.001)" />

<path d="M139,0V1161H277V475L686,836H861L418,445L880,0H701L277,408V0Z" 
id="f0_10"
transform="scale(0.001,-0.001)" />

<path d="M393,-141L0,1114H165L558,-141Z" 
id="f1_1c"
transform="scale(0.001,-0.001)" />

<path d="M744,410L592,853L439,410ZM8,0L420,1114H763L1175,0H887L816,203H367L297,0Z" 
id="f1_d"
transform="scale(0.001,-0.001)" />

<path d="M128,0V1161H395V0Z" 
id="f1_j"
transform="scale(0.001,-0.001)" />

<path d="M551,0V391H162V567H551V958H729V567h390V391H729V0Z" 
id="f1_1a"
transform="scale(0.001,-0.001)" />

<path d="M179,0V190H336V0Zm0,600V790H336V600Z" 
id="f0_12"
transform="scale(0.001,-0.001)" />

<path d="M391,0V530L-2,1114H159L468,656l307,458H937L543,530V0Z" 
id="f0_x"
transform="scale(0.001,-0.001)" />

<path d="M560,-20c0,0,-211,0,-319,110c0,0,-108,111,-108,328v696H285V437c0,0,0,-179,64,-258c0,0,65,-78,211,-78c0,0,144,0,209,78c0,0,65,79,65,258v677H986V418c0,0,0,-217,-108,-328C878,90,770,-20,560,-20Z" 
id="f0_u"
transform="scale(0.001,-0.001)" />

<path d="M482,124c0,0,231,0,338,105c0,0,107,104,107,329c0,0,0,224,-107,328c0,0,-107,104,-338,104H300V124ZM150,0V1114H459c0,0,324,0,476,-135c0,0,151,-135,151,-421c0,0,0,-288,-152,-423C934,135,782,0,459,0Z" 
id="f0_15"
transform="scale(0.001,-0.001)" />

<path d="M354,-200c0,0,-112,175,-167,343c0,0,-56,170,-56,337c0,0,0,166,55,335c0,0,55,169,168,345H473c0,0,-100,-172,-148,-340c0,0,-48,-168,-48,-340c0,0,0,-173,48,-342c0,0,49,-168,148,-338Z" 
id="f0_1d"
transform="scale(0.001,-0.001)" />

<path d="M122,-200c0,0,99,170,148,338c0,0,49,169,49,342c0,0,0,172,-49,340c0,0,-49,168,-148,340H241c0,0,112,-176,168,-345c0,0,55,-169,55,-335c0,0,0,-167,-55,-337c0,0,-56,-168,-168,-343Z" 
id="f0_1e"
transform="scale(0.001,-0.001)" />

<path d="M66,0V125L582,727H84V836H736V711L220,110H736V0Z" 
id="f0_1g"
transform="scale(0.001,-0.001)" />

<path d="M150,0V1114H300V657H848v457H998V0H848V530H300V0Z" 
id="f0_1t"
transform="scale(0.001,-0.001)" />

<path d="M377,0V897H8v217H1034V897H665V0Z" 
id="f1_12"
transform="scale(0.001,-0.001)" />

<path d="M415,-20c0,0,-144,0,-220,87c0,0,-76,89,-76,259V836H388V752c0,0,0,-67,-1,-170c0,0,0,-103,0,-137c0,0,0,-101,5,-145c0,0,5,-44,18,-65c0,0,16,-26,43,-40c0,0,26,-14,60,-14c0,0,84,0,132,64c0,0,47,64,47,178V836H959V0H692V121C692,121,632,48,564,13c0,0,-67,-33,-149,-33Z" 
id="f1_g"
transform="scale(0.001,-0.001)" />

<path d="M458,-20c0,0,-79,0,-168,17c0,0,-89,17,-184,52V204c0,0,91,-51,179,-77c0,0,88,-26,173,-26c0,0,129,0,199,50c0,0,70,51,70,145c0,0,0,82,-50,129c0,0,-50,46,-165,69l-92,18c0,0,-169,34,-244,105c0,0,-75,72,-75,199c0,0,0,148,104,233c0,0,104,85,287,85c0,0,78,0,159,-14c0,0,81,-14,166,-42V931c0,0,-85,41,-161,61c0,0,-76,20,-147,20c0,0,-123,0,-190,-48c0,0,-67,-48,-67,-136c0,0,0,-73,45,-111c0,0,44,-38,168,-61l91,-19c0,0,168,-32,249,-113c0,0,80,-81,80,-216c0,0,0,-162,-109,-246c0,0,-108,-82,-318,-82Z" 
id="f0_e"
transform="scale(0.001,-0.001)" />


</defs>
</svg>