<?xml version="1.0" encoding="UTF-8" standalone="no"?>
<!DOCTYPE svg PUBLIC "-//W3C//DTD SVG 1.1//EN"
"http://www.w3.org/Graphics/SVG/1.1/DTD/svg11.dtd">
<svg viewBox="0 0 909 1286" version="1.1" xmlns="http://www.w3.org/2000/svg" xmlns:xlink="http://www.w3.org/1999/xlink">
<defs>
<clipPath id="c0_31"><path d="M0,1286.2V.2H909.3v1286Z" /></clipPath>
</defs>
<g clip-path="url(#c0_31)">
<g fill="#000000" >
<use xlink:href="#f0_10" transform="matrix(12,0,0,12,86.8,610.5)" />
<use xlink:href="#f0_d" transform="matrix(12,0,0,12,100.5,610.5)" />
<use xlink:href="#f0_n" transform="matrix(12,0,0,12,111.7,610.5)" />
<use xlink:href="#f0_b" transform="matrix(12,0,0,12,132.6,610.5)" />
<use xlink:href="#f0_o" transform="matrix(12,0,0,12,142.6,610.5)" />
<use xlink:href="#f0_c" transform="matrix(12,0,0,12,147.7,610.5)" />
<use xlink:href="#f0_b" transform="matrix(12,0,0,12,152.7,610.5)" />
<use xlink:href="#f0_i" transform="matrix(12,0,0,12,162.8,610.5)" />
</g>
<g fill="#0000FF" >
<use xlink:href="#f1_i" transform="matrix(12,0,0,12,179.4,610.5)" />
<use xlink:href="#f1_b" transform="matrix(12,0,0,12,192.8,610.5)" />
<use xlink:href="#f1_5" transform="matrix(12,0,0,12,201.8,610.5)" />
<use xlink:href="#f1_f" transform="matrix(12,0,0,12,208.1,610.5)" />
<use xlink:href="#f1_5" transform="matrix(12,0,0,12,218.9,610.5)" />
<use xlink:href="#f1_6" transform="matrix(12,0,0,12,225.3,610.5)" />
<use xlink:href="#f1_7" transform="matrix(12,0,0,12,238.3,610.5)" />
<use xlink:href="#f1_a" transform="matrix(12,0,0,12,257.8,610.5)" />
<use xlink:href="#f1_6" transform="matrix(12,0,0,12,270.2,610.5)" />
<use xlink:href="#f1_c" transform="matrix(12,0,0,12,283.2,610.5)" />
<use xlink:href="#f1_n" transform="matrix(12,0,0,12,302.7,610.5)" />
<use xlink:href="#f1_x" transform="matrix(12,0,0,12,316.3,610.5)" />
<use xlink:href="#f1_a" transform="matrix(12,0,0,12,328.2,610.5)" />
<use xlink:href="#f1_5" transform="matrix(12,0,0,12,340.6,610.5)" />
<use xlink:href="#f1_r" transform="matrix(12,0,0,12,346.8,610.5)" />
<use xlink:href="#f1_a" transform="matrix(12,0,0,12,353.1,610.5)" />
<use xlink:href="#f1_13" transform="matrix(12,0,0,12,365.5,610.5)" />
<use xlink:href="#f1_5" transform="matrix(12,0,0,12,378.6,610.5)" />
<use xlink:href="#f1_r" transform="matrix(12,0,0,12,384.9,610.5)" />
<use xlink:href="#f1_5" transform="matrix(12,0,0,12,391.1,610.5)" />
<use xlink:href="#f1_4" transform="matrix(12,0,0,12,397.4,610.5)" />
<use xlink:href="#f1_y" transform="matrix(12,0,0,12,406.2,610.5)" />
</g>
<g fill="#000000" >
<use xlink:href="#f0_1e" transform="matrix(12,0,0,12,418.3,610.5)" />
</g>
</g>
<image preserveAspectRatio="none" x="87" y="87" width="736" height="478" xlink:href="img/1.png" />
<defs>
<path d="M150,0V1114H353L846,182v932H992V0H789L296,932V0Z" 
id="f0_10"
transform="scale(0.001,-0.001)" />

<path d="M467,95c0,0,110,0,174,86c0,0,64,87,64,236c0,0,0,148,-64,235c0,0,-64,87,-174,87c0,0,-110,0,-174,-86c0,0,-64,-86,-64,-236c0,0,0,-150,64,-236c0,0,63,-86,174,-86Zm0,-115c0,0,-179,0,-281,115C186,95,84,212,84,417c0,0,0,206,102,322c0,0,102,117,281,117c0,0,179,0,282,-117c0,0,102,-116,102,-322c0,0,0,-205,-102,-322C749,95,646,-20,467,-20Z" 
id="f0_d"
transform="scale(0.001,-0.001)" />

<path d="M283,0L65,836H202L373,184L544,836H706L878,184l171,652h137L967,0H806L626,685L445,0Z" 
id="f0_n"
transform="scale(0.001,-0.001)" />

<path d="M495,-20c0,0,-189,0,-300,117C195,97,84,216,84,417c0,0,0,204,112,321c0,0,113,118,308,118c0,0,64,0,124,-14c0,0,60,-13,117,-39V675c0,0,-58,32,-117,48c0,0,-58,16,-118,16c0,0,-133,0,-207,-84c0,0,-74,-85,-74,-238c0,0,0,-153,74,-238c0,0,74,-84,207,-84c0,0,60,0,118,16c0,0,59,16,117,48V32C745,32,688,5,626,-7c0,0,-61,-13,-131,-13Z" 
id="f0_b"
transform="scale(0.001,-0.001)" />

<path d="M144,0V1161H281V0Z" 
id="f0_o"
transform="scale(0.001,-0.001)" />

<path d="M144,0V836H281V0Zm0,987v174H281V987Z" 
id="f0_c"
transform="scale(0.001,-0.001)" />

<path d="M139,0V1161H277V475L686,836H861L418,445L880,0H701L277,408V0Z" 
id="f0_i"
transform="scale(0.001,-0.001)" />

<path d="M586,595c0,0,84,0,129,40c0,0,46,41,46,115c0,0,0,75,-46,115c0,0,-45,40,-129,40H427V595ZM140,0V1114H617c0,0,212,0,326,-95c0,0,114,-94,114,-269c0,0,0,-175,-114,-269c0,0,-114,-95,-326,-95H427V0Z" 
id="f1_i"
transform="scale(0.001,-0.001)" />

<path d="M128,0V836H395V698c0,0,52,82,118,120c0,0,67,38,161,38c0,0,13,0,29,-2c0,0,15,-1,45,-4l1,-242c0,0,-35,17,-70,25c0,0,-35,7,-70,7c0,0,-103,0,-158,-66c0,0,-56,-66,-56,-189V0Z" 
id="f1_b"
transform="scale(0.001,-0.001)" />

<path d="M128,0V836H395V0Zm0,944v217H395V944Z" 
id="f1_5"
transform="scale(0.001,-0.001)" />

<path d="M547,-20c0,0,-226,0,-354,114C193,94,66,210,66,417c0,0,0,207,127,323c0,0,128,116,354,116c0,0,66,0,129,-12c0,0,64,-11,128,-34V592c0,0,-55,37,-110,55c0,0,-54,18,-113,18c0,0,-112,0,-175,-65c0,0,-62,-66,-62,-183c0,0,0,-117,62,-183c0,0,63,-65,175,-65c0,0,62,0,119,19c0,0,56,19,104,55V24C804,24,741,1,676,-9c0,0,-64,-11,-129,-11Z" 
id="f1_f"
transform="scale(0.001,-0.001)" />

<path d="M128,0V836H395V713c0,0,60,73,128,108c0,0,68,35,150,35c0,0,145,0,220,-89c0,0,75,-89,75,-258V0H699V389c0,0,0,109,-5,150c0,0,-5,41,-16,60c0,0,-16,26,-43,41c0,0,-27,14,-61,14c0,0,-84,0,-131,-64c0,0,-48,-65,-48,-179V0Z" 
id="f1_6"
transform="scale(0.001,-0.001)" />

<path d="M520,194c0,0,84,0,130,61c0,0,46,61,46,172c0,0,0,112,-46,174c0,0,-46,61,-130,61c0,0,-82,0,-129,-61c0,0,-46,-62,-46,-174c0,0,0,-115,45,-174c0,0,45,-59,130,-59ZM469,-328c0,0,-78,0,-151,12c0,0,-73,12,-147,36V-71c0,0,70,-41,137,-61c0,0,67,-20,135,-20c0,0,131,0,192,58c0,0,61,57,61,178v58C696,142,641,69,575,34C575,34,508,0,421,0C421,0,268,0,168,121C168,121,68,241,68,428c0,0,0,187,100,307c0,0,100,120,253,120c0,0,87,0,154,-35c0,0,66,-34,121,-108V836H965V84c0,0,0,-200,-127,-306c0,0,-127,-106,-369,-106Z" 
id="f1_7"
transform="scale(0.001,-0.001)" />

<path d="M463,156c0,0,75,0,127,54c0,0,51,54,51,135v30H502c0,0,-83,0,-125,-28c0,0,-43,-28,-43,-83c0,0,0,-50,34,-79c0,0,34,-29,95,-29ZM357,-20c0,0,-130,0,-211,74c0,0,-80,76,-80,197c0,0,0,147,101,215c0,0,101,69,317,69H641v21c0,0,0,63,-50,92c0,0,-49,30,-155,30c0,0,-86,0,-160,-17c0,0,-74,-18,-137,-52V813c0,0,86,21,172,32c0,0,86,11,173,11c0,0,226,0,326,-90c0,0,100,-89,100,-290V0H641V124C641,124,588,48,521,13c0,0,-68,-33,-164,-33Z" 
id="f1_a"
transform="scale(0.001,-0.001)" />

<path d="M520,172c0,0,86,0,131,63c0,0,45,63,45,182c0,0,0,119,-45,182c0,0,-45,63,-131,63c0,0,-85,0,-130,-63c0,0,-45,-63,-45,-182c0,0,0,-119,45,-182c0,0,45,-63,130,-63ZM421,-20c0,0,-154,0,-253,121C168,101,68,224,68,417c0,0,0,193,100,316c0,0,99,123,253,123c0,0,87,0,153,-35c0,0,67,-35,122,-108v448H965V0H696V121C696,121,641,47,575,13c0,0,-67,-33,-154,-33Z" 
id="f1_c"
transform="scale(0.001,-0.001)" />

<path d="M744,410L592,853L439,410ZM8,0L420,1114H763L1175,0H887L816,203H367L297,0Z" 
id="f1_n"
transform="scale(0.001,-0.001)" />

<path d="M352,0L23,836H291L499,258L706,836H974L645,0Z" 
id="f1_x"
transform="scale(0.001,-0.001)" />

<path d="M128,0V1161H395V0Z" 
id="f1_r"
transform="scale(0.001,-0.001)" />

<path d="M573,172c0,0,86,0,131,63c0,0,45,63,45,182c0,0,0,119,-45,182c0,0,-45,63,-131,63c0,0,-86,0,-132,-63c0,0,-46,-63,-46,-182c0,0,0,-119,46,-182c0,0,46,-63,132,-63ZM672,-20c0,0,-87,0,-155,33c0,0,-67,35,-122,108V0H128V1161H395V713c0,0,55,73,122,108c0,0,68,35,155,35c0,0,154,0,253,-123c0,0,100,-123,100,-316c0,0,0,-193,-100,-316c0,0,-99,-121,-253,-121Z" 
id="f1_13"
transform="scale(0.001,-0.001)" />

<path d="M443,0C443,0,285,0,219,66c0,0,-66,66,-66,224V645H20V836H153v237H419V836H695V645H419V290c0,0,0,-58,24,-79c0,0,23,-20,91,-20H672V0Z" 
id="f1_4"
transform="scale(0.001,-0.001)" />

<path d="M153,-328v175h83c0,0,68,0,99,21c0,0,31,22,48,78l8,23L19,836H286L510,269L701,836H968L617,-78c0,0,-53,-139,-124,-195c0,0,-70,-55,-186,-55Z" 
id="f1_y"
transform="scale(0.001,-0.001)" />

<path d="M179,0V190H336V0Zm0,600V790H336V600Z" 
id="f0_1e"
transform="scale(0.001,-0.001)" />


</defs>
</svg>