<?xml version="1.0" encoding="UTF-8" standalone="no"?>
<!DOCTYPE svg PUBLIC "-//W3C//DTD SVG 1.1//EN"
"http://www.w3.org/Graphics/SVG/1.1/DTD/svg11.dtd">
<svg viewBox="0 0 909 1286" version="1.1" xmlns="http://www.w3.org/2000/svg" xmlns:xlink="http://www.w3.org/1999/xlink">
<defs>
<clipPath id="c0_27"><path d="M0,1286.2V.2H909.3v1286Z" /></clipPath>
</defs>
<g clip-path="url(#c0_27)">
<g fill="#000000" >
<use xlink:href="#f0_18" transform="matrix(12,0,0,12,86.8,712.6)" />
<use xlink:href="#f0_i" transform="matrix(12,0,0,12,99.6,712.6)" />
<use xlink:href="#f0_7" transform="matrix(12,0,0,12,104.6,712.6)" />
<use xlink:href="#f0_o" transform="matrix(12,0,0,12,109.7,712.6)" />
<use xlink:href="#f0_10" transform="matrix(12,0,0,12,119.7,712.6)" />
</g>
<g fill="#0000FF" >
<use xlink:href="#f1_h" transform="matrix(12,0,0,12,136.3,712.6)" />
<use xlink:href="#f1_m" transform="matrix(12,0,0,12,149.7,712.6)" />
<use xlink:href="#f1_f" transform="matrix(12,0,0,12,162.8,712.6)" />
<use xlink:href="#f1_f" transform="matrix(12,0,0,12,175.4,712.6)" />
<use xlink:href="#f1_v" transform="matrix(12,0,0,12,188,712.6)" />
<use xlink:href="#f1_3" transform="matrix(12,0,0,12,198.9,712.6)" />
<use xlink:href="#f1_1d" transform="matrix(12,0,0,12,217.7,712.6)" />
<use xlink:href="#f1_5" transform="matrix(12,0,0,12,230.2,712.6)" />
<use xlink:href="#f1_j" transform="matrix(12,0,0,12,236.5,712.6)" />
<use xlink:href="#f1_3" transform="matrix(12,0,0,12,242.7,712.6)" />
<use xlink:href="#f1_1e" transform="matrix(12,0,0,12,255.1,712.6)" />
</g>
<g fill="#000000" >
<use xlink:href="#f0_q" transform="matrix(12,0,0,12,273.6,712.6)" />
<use xlink:href="#f0_i" transform="matrix(12,0,0,12,285.2,712.6)" />
<use xlink:href="#f0_c" transform="matrix(12,0,0,12,290.3,712.6)" />
<use xlink:href="#f0_o" transform="matrix(12,0,0,12,301.4,712.6)" />
<use xlink:href="#f0_g" transform="matrix(12,0,0,12,311.5,712.6)" />
<use xlink:href="#f0_a" transform="matrix(12,0,0,12,322.8,712.6)" />
<use xlink:href="#f0_4" transform="matrix(12,0,0,12,330,712.6)" />
<use xlink:href="#f0_a" transform="matrix(12,0,0,12,347.1,712.6)" />
<use xlink:href="#f0_3" transform="matrix(12,0,0,12,354.3,712.6)" />
<use xlink:href="#f0_4" transform="matrix(12,0,0,12,365.9,712.6)" />
<use xlink:href="#f0_18" transform="matrix(12,0,0,12,383.1,712.6)" />
<use xlink:href="#f0_e" transform="matrix(12,0,0,12,395.9,712.6)" />
<use xlink:href="#f0_1m" transform="matrix(12,0,0,12,407.5,712.6)" />
<use xlink:href="#f0_6" transform="matrix(12,0,0,12,426,712.6)" />
<use xlink:href="#f0_7" transform="matrix(12,0,0,12,432.4,712.6)" />
<use xlink:href="#f0_i" transform="matrix(12,0,0,12,437.6,712.6)" />
<use xlink:href="#f0_4" transform="matrix(12,0,0,12,442.7,712.6)" />
<use xlink:href="#f0_t" transform="matrix(12,0,0,12,459.8,712.6)" />
<use xlink:href="#f0_c" transform="matrix(12,0,0,12,470.6,712.6)" />
<use xlink:href="#f0_r" transform="matrix(12,0,0,12,481.7,712.6)" />
<use xlink:href="#f0_19" transform="matrix(12,0,0,12,499.3,712.6)" />
<use xlink:href="#f0_r" transform="matrix(12,0,0,12,504.3,712.6)" />
<use xlink:href="#f0_9" transform="matrix(12,0,0,12,516,712.6)" />
<use xlink:href="#f0_a" transform="matrix(12,0,0,12,525.6,712.6)" />
<use xlink:href="#f0_o" transform="matrix(12,0,0,12,538.6,712.6)" />
<use xlink:href="#f0_8" transform="matrix(12,0,0,12,548.6,712.6)" />
<use xlink:href="#f0_4" transform="matrix(12,0,0,12,555.6,712.6)" />
<use xlink:href="#f0_g" transform="matrix(12,0,0,12,566.9,712.6)" />
<use xlink:href="#f0_a" transform="matrix(12,0,0,12,578.2,712.6)" />
<use xlink:href="#f0_4" transform="matrix(12,0,0,12,585.4,712.6)" />
<use xlink:href="#f0_j" transform="matrix(12,0,0,12,596.7,712.6)" />
<use xlink:href="#f0_g" transform="matrix(12,0,0,12,614.1,712.6)" />
<use xlink:href="#f0_h" transform="matrix(12,0,0,12,625.4,712.6)" />
<use xlink:href="#f0_j" transform="matrix(12,0,0,12,637,712.6)" />
<use xlink:href="#f0_9" transform="matrix(12,0,0,12,654.4,712.6)" />
<use xlink:href="#f0_4" transform="matrix(12,0,0,12,664.1,712.6)" />
<use xlink:href="#f0_i" transform="matrix(12,0,0,12,675.3,712.6)" />
<use xlink:href="#f0_4" transform="matrix(12,0,0,12,680.4,712.6)" />
<use xlink:href="#f0_o" transform="matrix(12,0,0,12,691.7,712.6)" />
<use xlink:href="#f0_a" transform="matrix(12,0,0,12,701.7,712.6)" />
<use xlink:href="#f0_7" transform="matrix(12,0,0,12,714.7,712.6)" />
<use xlink:href="#f0_a" transform="matrix(12,0,0,12,719.8,712.6)" />
<use xlink:href="#f0_q" transform="matrix(12,0,0,12,727,712.6)" />
<use xlink:href="#f0_a" transform="matrix(12,0,0,12,738.7,712.6)" />
<use xlink:href="#f0_3" transform="matrix(12,0,0,12,745.9,712.6)" />
<use xlink:href="#f0_4" transform="matrix(12,0,0,12,757.5,712.6)" />
<use xlink:href="#f0_h" transform="matrix(12,0,0,12,768.8,712.6)" />
<use xlink:href="#f0_o" transform="matrix(12,0,0,12,86.8,741.1)" />
<use xlink:href="#f0_i" transform="matrix(12,0,0,12,96.8,741.1)" />
<use xlink:href="#f0_7" transform="matrix(12,0,0,12,101.9,741.1)" />
<use xlink:href="#f0_o" transform="matrix(12,0,0,12,106.9,741.1)" />
<use xlink:href="#f0_10" transform="matrix(12,0,0,12,117,741.1)" />
</g>
<g fill="#0000FF" >
<use xlink:href="#f1_h" transform="matrix(12,0,0,12,133.7,741.1)" />
<use xlink:href="#f1_f" transform="matrix(12,0,0,12,147.1,741.1)" />
<use xlink:href="#f1_6" transform="matrix(12,0,0,12,159.6,741.1)" />
<use xlink:href="#f1_4" transform="matrix(12,0,0,12,172.8,741.1)" />
<use xlink:href="#f1_5" transform="matrix(12,0,0,12,181.5,741.1)" />
<use xlink:href="#f1_6" transform="matrix(12,0,0,12,187.7,741.1)" />
<use xlink:href="#f1_g" transform="matrix(12,0,0,12,200.9,741.1)" />
<use xlink:href="#f1_3" transform="matrix(12,0,0,12,213.9,741.1)" />
</g>
</g>
<image preserveAspectRatio="none" x="190" y="87" width="529" height="573" xlink:href="img/1.png" />
<defs>
<path d="M630,-20c0,0,-253,0,-398,153C232,133,86,288,86,556c0,0,0,269,146,423c0,0,145,155,398,155c0,0,100,0,189,-26c0,0,88,-27,166,-79V869c0,0,-76,71,-163,106c0,0,-86,35,-183,35c0,0,-191,0,-292,-117C347,893,245,777,245,556c0,0,0,-220,102,-337c0,0,101,-116,292,-116c0,0,97,0,183,35c0,0,87,35,163,105V86C985,86,906,32,817,5c0,0,-88,-25,-187,-25Z" 
id="f0_18"
transform="scale(0.001,-0.001)" />

<path d="M144,0V1161H281V0Z" 
id="f0_i"
transform="scale(0.001,-0.001)" />

<path d="M144,0V836H281V0Zm0,987v174H281V987Z" 
id="f0_7"
transform="scale(0.001,-0.001)" />

<path d="M495,-20c0,0,-189,0,-300,117C195,97,84,216,84,417c0,0,0,204,112,321c0,0,113,118,308,118c0,0,64,0,124,-14c0,0,60,-13,117,-39V675c0,0,-58,32,-117,48c0,0,-58,16,-118,16c0,0,-133,0,-207,-84c0,0,-74,-85,-74,-238c0,0,0,-153,74,-238c0,0,74,-84,207,-84c0,0,60,0,118,16c0,0,59,16,117,48V32C745,32,688,5,626,-7c0,0,-61,-13,-131,-13Z" 
id="f0_o"
transform="scale(0.001,-0.001)" />

<path d="M139,0V1161H277V475L686,836H861L418,445L880,0H701L277,408V0Z" 
id="f0_10"
transform="scale(0.001,-0.001)" />

<path d="M680,-20c0,0,-278,0,-441,154C239,134,76,290,76,556c0,0,0,267,163,423c0,0,163,155,441,155c0,0,93,0,179,-21c0,0,86,-21,165,-62V820c0,0,-80,55,-158,81c0,0,-77,25,-163,25c0,0,-154,0,-241,-98c0,0,-88,-99,-88,-272c0,0,0,-172,87,-271c0,0,88,-98,242,-98c0,0,86,0,163,25c0,0,78,26,158,80V61C1024,61,945,20,859,0c0,0,-86,-20,-179,-20Z" 
id="f1_h"
transform="scale(0.001,-0.001)" />

<path d="M128,0V1161H395V713c0,0,60,73,128,108c0,0,68,35,150,35c0,0,145,0,220,-89c0,0,75,-89,75,-258V0H699V388c0,0,0,110,-5,151c0,0,-5,41,-16,60c0,0,-16,26,-43,41c0,0,-27,14,-61,14c0,0,-84,0,-131,-64c0,0,-48,-65,-48,-179V0Z" 
id="f1_m"
transform="scale(0.001,-0.001)" />

<path d="M526,169c0,0,87,0,133,64c0,0,46,64,46,184c0,0,0,120,-46,184c0,0,-46,64,-133,64c0,0,-89,0,-135,-64c0,0,-47,-64,-47,-184c0,0,0,-120,47,-184c0,0,46,-64,135,-64Zm0,-189c0,0,-217,0,-339,115C187,95,66,211,66,417c0,0,0,206,121,322c0,0,122,117,339,117c0,0,215,0,336,-117c0,0,122,-116,122,-322c0,0,0,-206,-122,-322C862,95,741,-20,526,-20Z" 
id="f1_f"
transform="scale(0.001,-0.001)" />

<path d="M445,-20c0,0,-83,0,-171,12C274,-8,185,4,92,30V234c0,0,80,-39,164,-58c0,0,84,-20,170,-20c0,0,79,0,118,22c0,0,40,22,40,64c0,0,0,36,-28,53c0,0,-27,18,-108,27l-47,6c0,0,-179,23,-250,83c0,0,-72,61,-72,184c0,0,0,132,91,196c0,0,91,65,279,65c0,0,74,0,155,-12c0,0,82,-11,177,-34V606c0,0,-86,36,-165,54c0,0,-80,18,-151,18c0,0,-76,0,-113,-19c0,0,-37,-19,-37,-59c0,0,0,-32,28,-49c0,0,28,-17,100,-25l47,-7c0,0,205,-26,276,-86c0,0,71,-59,71,-187c0,0,0,-133,-98,-200c0,0,-99,-66,-294,-66Z" 
id="f1_v"
transform="scale(0.001,-0.001)" />

<path d="M687,509c0,0,0,76,-44,122c0,0,-44,47,-116,47c0,0,-78,0,-126,-44c0,0,-49,-43,-61,-125ZM544,-20c0,0,-227,0,-353,114C191,94,66,209,66,417c0,0,0,204,123,321c0,0,123,118,340,118c0,0,197,0,315,-119c0,0,118,-118,118,-317V344H337c0,0,10,-94,68,-141c0,0,59,-47,163,-47c0,0,85,0,173,25c0,0,89,25,182,76V51C923,51,828,15,733,-2c0,0,-94,-18,-189,-18Z" 
id="f1_3"
transform="scale(0.001,-0.001)" />

<path d="M140,0V1114H915V897H427V689H886V472H427V0Z" 
id="f1_1d"
transform="scale(0.001,-0.001)" />

<path d="M128,0V836H395V0Zm0,944v217H395V944Z" 
id="f1_5"
transform="scale(0.001,-0.001)" />

<path d="M128,0V1161H395V0Z" 
id="f1_j"
transform="scale(0.001,-0.001)" />

<path d="M121,0V288H390V0ZM631,0V288H900V0Zm509,0V288h269V0Z" 
id="f1_1e"
transform="scale(0.001,-0.001)" />

<path d="M117,-176L179,62V190H336V62L213,-176Z" 
id="f0_q"
transform="scale(0.001,-0.001)" />

<path d="M467,95c0,0,110,0,174,86c0,0,64,87,64,236c0,0,0,148,-64,235c0,0,-64,87,-174,87c0,0,-110,0,-174,-86c0,0,-64,-86,-64,-236c0,0,0,-150,64,-236c0,0,63,-86,174,-86Zm0,-115c0,0,-179,0,-281,115C186,95,84,212,84,417c0,0,0,206,102,322c0,0,102,117,281,117c0,0,179,0,282,-117c0,0,102,-116,102,-322c0,0,0,-205,-102,-322C749,95,646,-20,467,-20Z" 
id="f0_c"
transform="scale(0.001,-0.001)" />

<path d="M408,93c0,0,115,0,184,81c0,0,69,81,69,215v30H524c0,0,-167,0,-231,-38c0,0,-64,-38,-64,-129c0,0,0,-73,48,-116c0,0,48,-43,131,-43ZM372,-20c0,0,-128,0,-204,70c0,0,-76,72,-76,193c0,0,0,141,94,212c0,0,95,72,282,72H661v13c0,0,0,95,-62,147c0,0,-63,52,-175,52c0,0,-72,0,-140,-17c0,0,-68,-17,-130,-51V798c0,0,75,29,146,43c0,0,71,15,138,15c0,0,181,0,270,-95c0,0,90,-94,90,-285V0H661V127C661,127,614,51,544,15c0,0,-70,-35,-172,-35Z" 
id="f0_g"
transform="scale(0.001,-0.001)" />

<path d="M421,0C421,0,263,0,202,59c0,0,-60,60,-60,217V729H41V836H142v238H280V836H562V729H280V276c0,0,0,-102,28,-132c0,0,28,-29,113,-29H562V0Z" 
id="f0_a"
transform="scale(0.001,-0.001)" />

<path d="M231,492l491,1c0,0,-2,112,-64,179c0,0,-61,67,-163,67c0,0,-115,0,-184,-65c0,0,-69,-64,-80,-182ZM517,-20c0,0,-199,0,-316,115C201,95,84,211,84,410c0,0,0,205,111,325c0,0,111,121,299,121c0,0,168,0,266,-109c0,0,98,-108,98,-295V385H227c0,0,9,-142,85,-216c0,0,77,-74,213,-74c0,0,80,0,154,19c0,0,74,19,147,58V42C826,42,752,11,675,-4c0,0,-78,-16,-158,-16Z" 
id="f0_4"
transform="scale(0.001,-0.001)" />

<path d="M139,0V1161H277V706c0,0,49,75,116,112c0,0,67,38,154,38c0,0,144,0,218,-90c0,0,74,-89,74,-262V0H702V500c0,0,0,119,-46,177c0,0,-47,59,-139,59c0,0,-112,0,-176,-71c0,0,-64,-70,-64,-193V0Z" 
id="f0_3"
transform="scale(0.001,-0.001)" />

<path d="M458,-20c0,0,-79,0,-168,17c0,0,-89,17,-184,52V204c0,0,91,-51,179,-77c0,0,88,-26,173,-26c0,0,129,0,199,50c0,0,70,51,70,145c0,0,0,82,-50,129c0,0,-50,46,-165,69l-92,18c0,0,-169,34,-244,105c0,0,-75,72,-75,199c0,0,0,148,104,233c0,0,104,85,287,85c0,0,78,0,159,-14c0,0,81,-14,166,-42V931c0,0,-85,41,-161,61c0,0,-76,20,-147,20c0,0,-123,0,-190,-48c0,0,-67,-48,-67,-136c0,0,0,-73,45,-111c0,0,44,-38,168,-61l91,-19c0,0,168,-32,249,-113c0,0,80,-81,80,-216c0,0,0,-162,-109,-246c0,0,-108,-82,-318,-82Z" 
id="f0_e"
transform="scale(0.001,-0.001)" />

<path d="M489,595c0,0,109,0,164,50c0,0,56,50,56,148c0,0,0,97,-56,147c0,0,-55,50,-164,50H300V595ZM150,0V1114H489c0,0,191,0,285,-80c0,0,94,-80,94,-241c0,0,0,-105,-49,-175c0,0,-49,-69,-142,-96c0,0,48,-16,94,-70c0,0,46,-54,93,-148L1017,0H855L712,285c0,0,-55,112,-107,149c0,0,-52,36,-141,36H300V0Z" 
id="f0_1m"
transform="scale(0.001,-0.001)" />

<path d="M166,0V729H35V836H166v58c0,0,0,139,65,203c0,0,65,64,206,64H567V1046H435c0,0,-74,0,-102,-29c0,0,-29,-30,-29,-107V836H530V729H304V0Z" 
id="f0_6"
transform="scale(0.001,-0.001)" />

<path d="M121,-317v116h81c0,0,57,0,88,26c0,0,31,27,69,127l25,62L46,836H191L453,182L714,836H859L492,-76c0,0,-58,-150,-113,-195c0,0,-55,-46,-148,-46Z" 
id="f0_t"
transform="scale(0.001,-0.001)" />

<path d="M424,-20c0,0,-145,0,-219,88c0,0,-75,89,-75,262V836H267V335c0,0,0,-119,46,-178c0,0,47,-59,139,-59c0,0,112,0,177,71c0,0,64,71,64,193V836H830V0H693V128C693,128,643,52,577,15c0,0,-66,-35,-153,-35Z" 
id="f0_r"
transform="scale(0.001,-0.001)" />

<path d="M-26,-317v117H9c0,0,78,0,106,36c0,0,29,36,29,150V836H281V-14c0,0,0,-160,-61,-231c0,0,-61,-72,-195,-72ZM144,987v174H281V987Z" 
id="f0_19"
transform="scale(0.001,-0.001)" />

<path d="M376,-20c0,0,-67,0,-140,12C236,-8,164,4,83,30V172c0,0,76,-40,150,-59c0,0,74,-20,146,-20c0,0,97,0,150,33c0,0,52,33,52,94c0,0,0,56,-38,85c0,0,-38,30,-165,58l-48,11c0,0,-128,27,-184,83c0,0,-57,55,-57,152c0,0,0,118,83,182c0,0,84,65,238,65c0,0,76,0,143,-12c0,0,67,-11,124,-33V681c0,0,-58,29,-121,44c0,0,-63,15,-130,15c0,0,-102,0,-153,-31c0,0,-51,-31,-51,-94c0,0,0,-48,37,-75c0,0,36,-27,147,-52l46,-10c0,0,147,-32,208,-89c0,0,62,-57,62,-159c0,0,0,-116,-93,-184c0,0,-92,-66,-253,-66Z" 
id="f0_9"
transform="scale(0.001,-0.001)" />

<path d="M139,0V836H277V706c0,0,43,76,112,113c0,0,70,37,169,37c0,0,14,0,31,-2c0,0,17,-2,38,-6l1,-141c0,0,-23,14,-51,20c0,0,-27,6,-60,6c0,0,-116,0,-178,-75c0,0,-62,-76,-62,-218V0Z" 
id="f0_8"
transform="scale(0.001,-0.001)" />

<path d="M460,93c0,0,109,0,171,86c0,0,63,86,63,238c0,0,0,151,-63,237c0,0,-62,86,-171,86c0,0,-109,0,-172,-86c0,0,-62,-86,-62,-237c0,0,0,-152,62,-238c0,0,63,-86,172,-86ZM426,-20c0,0,-151,0,-247,119c0,0,-95,121,-95,318c0,0,0,197,95,318c0,0,96,121,247,121c0,0,93,0,159,-37c0,0,66,-36,109,-110v452H831V0H694V125C694,125,651,51,585,15c0,0,-66,-35,-159,-35Z" 
id="f0_j"
transform="scale(0.001,-0.001)" />

<path d="M139,0V836H277V706c0,0,49,75,116,112c0,0,67,38,154,38c0,0,144,0,218,-90c0,0,74,-89,74,-262V0H702V500c0,0,0,119,-46,177c0,0,-47,59,-139,59c0,0,-112,0,-176,-71c0,0,-64,-70,-64,-193V0Z" 
id="f0_h"
transform="scale(0.001,-0.001)" />

<path d="M128,0V836H395V713c0,0,60,73,128,108c0,0,68,35,150,35c0,0,145,0,220,-89c0,0,75,-89,75,-258V0H699V389c0,0,0,109,-5,150c0,0,-5,41,-16,60c0,0,-16,26,-43,41c0,0,-27,14,-61,14c0,0,-84,0,-131,-64c0,0,-48,-65,-48,-179V0Z" 
id="f1_6"
transform="scale(0.001,-0.001)" />

<path d="M443,0C443,0,285,0,219,66c0,0,-66,66,-66,224V645H20V836H153v237H419V836H695V645H419V290c0,0,0,-58,24,-79c0,0,23,-20,91,-20H672V0Z" 
id="f1_4"
transform="scale(0.001,-0.001)" />

<path d="M415,-20c0,0,-144,0,-220,87c0,0,-76,89,-76,259V836H388V752c0,0,0,-67,-1,-170c0,0,0,-103,0,-137c0,0,0,-101,5,-145c0,0,5,-44,18,-65c0,0,16,-26,43,-40c0,0,26,-14,60,-14c0,0,84,0,132,64c0,0,47,64,47,178V836H959V0H692V121C692,121,632,48,564,13c0,0,-67,-33,-149,-33Z" 
id="f1_g"
transform="scale(0.001,-0.001)" />


</defs>
</svg>