<?xml version="1.0" encoding="UTF-8" standalone="no"?>
<!DOCTYPE svg PUBLIC "-//W3C//DTD SVG 1.1//EN"
"http://www.w3.org/Graphics/SVG/1.1/DTD/svg11.dtd">
<svg viewBox="0 0 909 1286" version="1.1" xmlns="http://www.w3.org/2000/svg" xmlns:xlink="http://www.w3.org/1999/xlink">
<defs>
<clipPath id="c0_46"><path d="M0,1286.2V.2H909.3v1286Z" /></clipPath>
<style type="text/css"><![CDATA[
.g0_46{
fill: #00FF00;
}
]]></style>
</defs>
<path fill-rule="evenodd" d="M86.6,121.3H527.5V86.6H86.6v34.7Z" class="g0_46" />
<g clip-path="url(#c0_46)">
<g fill="#006837" >
<use xlink:href="#f0_9" transform="matrix(19.5,0,0,19.5,86.8,114.3)" />
<use xlink:href="#f0_o" transform="matrix(19.5,0,0,19.5,108.2,114.3)" />
<use xlink:href="#f0_13" transform="matrix(19.5,0,0,19.5,129.4,114.3)" />
<use xlink:href="#f0_z" transform="matrix(19.5,0,0,19.5,150.7,114.3)" />
<use xlink:href="#f0_5" transform="matrix(19.5,0,0,19.5,181.8,114.3)" />
<use xlink:href="#f0_4" transform="matrix(19.5,0,0,19.5,192,114.3)" />
<use xlink:href="#f0_a" transform="matrix(19.5,0,0,19.5,216.6,114.3)" />
<use xlink:href="#f0_6" transform="matrix(19.5,0,0,19.5,236.7,114.3)" />
<use xlink:href="#f0_a" transform="matrix(19.5,0,0,19.5,268.3,114.3)" />
<use xlink:href="#f0_q" transform="matrix(19.5,0,0,19.5,288.3,114.3)" />
<use xlink:href="#f0_q" transform="matrix(19.5,0,0,19.5,309.6,114.3)" />
<use xlink:href="#f0_v" transform="matrix(19.5,0,0,19.5,341.3,114.3)" />
<use xlink:href="#f0_5" transform="matrix(19.5,0,0,19.5,368.8,114.3)" />
<use xlink:href="#f0_4" transform="matrix(19.5,0,0,19.5,379,114.3)" />
<use xlink:href="#f0_17" transform="matrix(19.5,0,0,19.5,393.2,114.3)" />
<use xlink:href="#f0_e" transform="matrix(19.5,0,0,19.5,424.8,114.3)" />
<use xlink:href="#f0_f" transform="matrix(19.5,0,0,19.5,447.7,114.3)" />
<use xlink:href="#f0_g" transform="matrix(19.5,0,0,19.5,465.4,114.3)" />
<use xlink:href="#f0_c" transform="matrix(19.5,0,0,19.5,485.8,114.3)" />
<use xlink:href="#f0_3" transform="matrix(19.5,0,0,19.5,507.2,114.3)" />
</g>
<g fill="#000000" >
<use xlink:href="#f1_1r" transform="matrix(12,0,0,12,86.8,154.8)" />
<use xlink:href="#f1_d" transform="matrix(12,0,0,12,95.6,154.8)" />
<use xlink:href="#f1_k" transform="matrix(12,0,0,12,106.8,154.8)" />
<use xlink:href="#f1_g" transform="matrix(12,0,0,12,118.4,154.8)" />
<use xlink:href="#f1_8" transform="matrix(12,0,0,12,131.8,154.8)" />
<use xlink:href="#f1_s" transform="matrix(12,0,0,12,143,154.8)" />
<use xlink:href="#f1_s" transform="matrix(12,0,0,12,154.6,154.8)" />
<use xlink:href="#f1_o" transform="matrix(12,0,0,12,166.2,154.8)" />
<use xlink:href="#f1_c" transform="matrix(12,0,0,12,171.3,154.8)" />
<use xlink:href="#f1_b" transform="matrix(12,0,0,12,176.4,154.8)" />
<use xlink:href="#f1_8" transform="matrix(12,0,0,12,186.5,154.8)" />
<use xlink:href="#f1_6" transform="matrix(12,0,0,12,197.7,154.8)" />
<use xlink:href="#f1_c" transform="matrix(12,0,0,12,204.9,154.8)" />
<use xlink:href="#f1_d" transform="matrix(12,0,0,12,210,154.8)" />
<use xlink:href="#f1_e" transform="matrix(12,0,0,12,221.1,154.8)" />
<use xlink:href="#f1_9" transform="matrix(12,0,0,12,238.7,154.8)" />
<use xlink:href="#f1_7" transform="matrix(12,0,0,12,248.2,154.8)" />
<use xlink:href="#f1_d" transform="matrix(12,0,0,12,259.8,154.8)" />
<use xlink:href="#f1_k" transform="matrix(12,0,0,12,270.9,154.8)" />
<use xlink:href="#f1_o" transform="matrix(12,0,0,12,282.7,154.8)" />
<use xlink:href="#f1_f" transform="matrix(12,0,0,12,287.7,154.8)" />
<use xlink:href="#f1_e" transform="matrix(12,0,0,12,305.3,154.8)" />
<use xlink:href="#f1_d" transform="matrix(12,0,0,12,316.9,154.8)" />
<use xlink:href="#f1_n" transform="matrix(12,0,0,12,328,154.8)" />
<use xlink:href="#f1_x" transform="matrix(12,0,0,12,348.8,154.8)" />
<use xlink:href="#f1_a" transform="matrix(12,0,0,12,360.4,154.8)" />
<use xlink:href="#f1_6" transform="matrix(12,0,0,12,377.6,154.8)" />
<use xlink:href="#f1_a" transform="matrix(12,0,0,12,384.7,154.8)" />
<use xlink:href="#f1_9" transform="matrix(12,0,0,12,396,154.8)" />
<use xlink:href="#f1_6" transform="matrix(12,0,0,12,405.6,154.8)" />
<use xlink:href="#f1_a" transform="matrix(12,0,0,12,412.7,154.8)" />
<use xlink:href="#f1_f" transform="matrix(12,0,0,12,424,154.8)" />
<use xlink:href="#f1_8" transform="matrix(12,0,0,12,441.5,154.8)" />
<use xlink:href="#f1_e" transform="matrix(12,0,0,12,452.7,154.8)" />
<use xlink:href="#f1_f" transform="matrix(12,0,0,12,464.4,154.8)" />
<use xlink:href="#f1_g" transform="matrix(12,0,0,12,481.8,154.8)" />
<use xlink:href="#f1_a" transform="matrix(12,0,0,12,488.8,154.8)" />
<use xlink:href="#f1_8" transform="matrix(12,0,0,12,500.1,154.8)" />
<use xlink:href="#f1_f" transform="matrix(12,0,0,12,511.4,154.8)" />
<use xlink:href="#f1_p" transform="matrix(12,0,0,12,523,154.8)" />
<use xlink:href="#f1_6" transform="matrix(12,0,0,12,539.6,154.8)" />
<use xlink:href="#f1_d" transform="matrix(12,0,0,12,546.8,154.8)" />
<use xlink:href="#f1_g" transform="matrix(12,0,0,12,563.9,154.8)" />
<use xlink:href="#f1_d" transform="matrix(12,0,0,12,571.1,154.8)" />
<use xlink:href="#f1_o" transform="matrix(12,0,0,12,582.3,154.8)" />
<use xlink:href="#f1_o" transform="matrix(12,0,0,12,587.3,154.8)" />
<use xlink:href="#f1_l" transform="matrix(12,0,0,12,592.5,154.8)" />
<use xlink:href="#f1_1k" transform="matrix(12,0,0,12,604.1,154.8)" />
<use xlink:href="#f1_o" transform="matrix(12,0,0,12,616.6,154.8)" />
<use xlink:href="#f1_o" transform="matrix(12,0,0,12,621.7,154.8)" />
<use xlink:href="#f1_p" transform="matrix(12,0,0,12,632.6,154.8)" />
<use xlink:href="#f1_d" transform="matrix(12,0,0,12,643.5,154.8)" />
<use xlink:href="#f1_k" transform="matrix(12,0,0,12,654.6,154.8)" />
<use xlink:href="#f1_e" transform="matrix(12,0,0,12,672.2,154.8)" />
<use xlink:href="#f1_a" transform="matrix(12,0,0,12,683.8,154.8)" />
<use xlink:href="#f1_a" transform="matrix(12,0,0,12,695.1,154.8)" />
<use xlink:href="#f1_f" transform="matrix(12,0,0,12,706.4,154.8)" />
<use xlink:href="#f1_6" transform="matrix(12,0,0,12,723.8,154.8)" />
<use xlink:href="#f1_d" transform="matrix(12,0,0,12,731,154.8)" />
<use xlink:href="#f1_f" transform="matrix(12,0,0,12,748.1,154.8)" />
<use xlink:href="#f1_d" transform="matrix(12,0,0,12,759.7,154.8)" />
<use xlink:href="#f1_c" transform="matrix(12,0,0,12,776.6,154.8)" />
<use xlink:href="#f1_9" transform="matrix(12,0,0,12,781.7,154.8)" />
<use xlink:href="#f1_9" transform="matrix(12,0,0,12,86.8,183.5)" />
<use xlink:href="#f1_k" transform="matrix(12,0,0,12,96.4,183.5)" />
<use xlink:href="#f1_x" transform="matrix(12,0,0,12,108,183.5)" />
<use xlink:href="#f1_u" transform="matrix(12,0,0,12,119.6,183.5)" />
<use xlink:href="#f1_c" transform="matrix(12,0,0,12,137.5,183.5)" />
<use xlink:href="#f1_6" transform="matrix(12,0,0,12,142.5,183.5)" />
<use xlink:href="#f1_6" transform="matrix(12,0,0,12,155.6,183.5)" />
<use xlink:href="#f1_d" transform="matrix(12,0,0,12,162.8,183.5)" />
<use xlink:href="#f1_1k" transform="matrix(12,0,0,12,179.8,183.5)" />
<use xlink:href="#f1_s" transform="matrix(12,0,0,12,192.3,183.5)" />
<use xlink:href="#f1_s" transform="matrix(12,0,0,12,203.9,183.5)" />
<use xlink:href="#f1_o" transform="matrix(12,0,0,12,215.5,183.5)" />
<use xlink:href="#f1_a" transform="matrix(12,0,0,12,220.5,183.5)" />
<use xlink:href="#f1_h" transform="matrix(12,0,0,12,237.8,183.5)" />
<use xlink:href="#f1_d" transform="matrix(12,0,0,12,244.2,183.5)" />
<use xlink:href="#f1_g" transform="matrix(12,0,0,12,255.4,183.5)" />
<use xlink:href="#f1_8" transform="matrix(12,0,0,12,268.8,183.5)" />
<use xlink:href="#f1_s" transform="matrix(12,0,0,12,280.1,183.5)" />
<use xlink:href="#f1_s" transform="matrix(12,0,0,12,291.7,183.5)" />
<use xlink:href="#f1_g" transform="matrix(12,0,0,12,303.3,183.5)" />
<use xlink:href="#f1_d" transform="matrix(12,0,0,12,310.5,183.5)" />
<use xlink:href="#f1_t" transform="matrix(12,0,0,12,321.6,183.5)" />
<use xlink:href="#f1_8" transform="matrix(12,0,0,12,332.5,183.5)" />
<use xlink:href="#f1_o" transform="matrix(12,0,0,12,343.8,183.5)" />
<use xlink:href="#f1_l" transform="matrix(12,0,0,12,348.8,183.5)" />
<use xlink:href="#f1_w" transform="matrix(12,0,0,12,360.4,183.5)" />
<use xlink:href="#f1_7" transform="matrix(12,0,0,12,371.6,183.5)" />
<use xlink:href="#f1_c" transform="matrix(12,0,0,12,383.2,183.5)" />
<use xlink:href="#f1_9" transform="matrix(12,0,0,12,388.2,183.5)" />
<use xlink:href="#f1_c" transform="matrix(12,0,0,12,403.8,183.5)" />
<use xlink:href="#f1_9" transform="matrix(12,0,0,12,408.7,183.5)" />
<use xlink:href="#f1_9" transform="matrix(12,0,0,12,424.2,183.5)" />
<use xlink:href="#f1_k" transform="matrix(12,0,0,12,433.7,183.5)" />
<use xlink:href="#f1_g" transform="matrix(12,0,0,12,445.3,183.5)" />
<use xlink:href="#f1_s" transform="matrix(12,0,0,12,452.8,183.5)" />
<use xlink:href="#f1_g" transform="matrix(12,0,0,12,464.5,183.5)" />
<use xlink:href="#f1_c" transform="matrix(12,0,0,12,472,183.5)" />
<use xlink:href="#f1_9" transform="matrix(12,0,0,12,477,183.5)" />
<use xlink:href="#f1_c" transform="matrix(12,0,0,12,486.6,183.5)" />
<use xlink:href="#f1_e" transform="matrix(12,0,0,12,491.7,183.5)" />
<use xlink:href="#f1_q" transform="matrix(12,0,0,12,503.3,183.5)" />
<use xlink:href="#f1_o" transform="matrix(12,0,0,12,514.9,183.5)" />
<use xlink:href="#f1_p" transform="matrix(12,0,0,12,519.9,183.5)" />
<use xlink:href="#f1_a" transform="matrix(12,0,0,12,536.7,183.5)" />
<use xlink:href="#f1_8" transform="matrix(12,0,0,12,547.9,183.5)" />
<use xlink:href="#f1_9" transform="matrix(12,0,0,12,559.2,183.5)" />
<use xlink:href="#f1_p" transform="matrix(12,0,0,12,568.8,183.5)" />
<use xlink:href="#f1_b" transform="matrix(12,0,0,12,585.4,183.5)" />
<use xlink:href="#f1_d" transform="matrix(12,0,0,12,595.5,183.5)" />
<use xlink:href="#f1_e" transform="matrix(12,0,0,12,606.6,183.5)" />
<use xlink:href="#f1_9" transform="matrix(12,0,0,12,618.2,183.5)" />
<use xlink:href="#f1_c" transform="matrix(12,0,0,12,627.8,183.5)" />
<use xlink:href="#f1_f" transform="matrix(12,0,0,12,632.9,183.5)" />
<use xlink:href="#f1_a" transform="matrix(12,0,0,12,644.5,183.5)" />
<use xlink:href="#f1_g" transform="matrix(12,0,0,12,655.8,183.5)" />
<use xlink:href="#f1_c" transform="matrix(12,0,0,12,663.3,183.5)" />
<use xlink:href="#f1_e" transform="matrix(12,0,0,12,668.4,183.5)" />
<use xlink:href="#f1_q" transform="matrix(12,0,0,12,680,183.5)" />
<use xlink:href="#f1_n" transform="matrix(12,0,0,12,697.5,183.5)" />
<use xlink:href="#f1_7" transform="matrix(12,0,0,12,712.4,183.5)" />
<use xlink:href="#f1_8" transform="matrix(12,0,0,12,724,183.5)" />
<use xlink:href="#f1_6" transform="matrix(12,0,0,12,735.3,183.5)" />
<use xlink:href="#f1_p" transform="matrix(12,0,0,12,748.3,183.5)" />
<use xlink:href="#f1_d" transform="matrix(12,0,0,12,759.2,183.5)" />
<use xlink:href="#f1_k" transform="matrix(12,0,0,12,770.3,183.5)" />
<use xlink:href="#f1_r" transform="matrix(12,0,0,12,782.1,183.5)" />
<use xlink:href="#f1_t" transform="matrix(12,0,0,12,787.9,183.5)" />
<use xlink:href="#f1_a" transform="matrix(12,0,0,12,798.7,183.5)" />
<use xlink:href="#f1_x" transform="matrix(12,0,0,12,86.8,212.1)" />
<use xlink:href="#f1_a" transform="matrix(12,0,0,12,98.4,212.1)" />
<use xlink:href="#f1_a" transform="matrix(12,0,0,12,109.7,212.1)" />
<use xlink:href="#f1_e" transform="matrix(12,0,0,12,121,212.1)" />
<use xlink:href="#f1_6" transform="matrix(12,0,0,12,138.4,212.1)" />
<use xlink:href="#f1_7" transform="matrix(12,0,0,12,145.6,212.1)" />
<use xlink:href="#f1_g" transform="matrix(12,0,0,12,157.3,212.1)" />
<use xlink:href="#f1_d" transform="matrix(12,0,0,12,164.3,212.1)" />
<use xlink:href="#f1_k" transform="matrix(12,0,0,12,175.5,212.1)" />
<use xlink:href="#f1_q" transform="matrix(12,0,0,12,187.1,212.1)" />
<use xlink:href="#f1_7" transform="matrix(12,0,0,12,198.7,212.1)" />
<use xlink:href="#f1_8" transform="matrix(12,0,0,12,216.3,212.1)" />
<use xlink:href="#f1_o" transform="matrix(12,0,0,12,227.6,212.1)" />
<use xlink:href="#f1_g" transform="matrix(12,0,0,12,232.6,212.1)" />
<use xlink:href="#f1_a" transform="matrix(12,0,0,12,239.6,212.1)" />
<use xlink:href="#f1_8" transform="matrix(12,0,0,12,250.9,212.1)" />
<use xlink:href="#f1_f" transform="matrix(12,0,0,12,262.2,212.1)" />
<use xlink:href="#f1_p" transform="matrix(12,0,0,12,273.8,212.1)" />
<use xlink:href="#f1_l" transform="matrix(12,0,0,12,282.1,212.1)" />
<use xlink:href="#f1_1v" transform="matrix(12,0,0,12,86.8,240.8)" />
<use xlink:href="#f1_d" transform="matrix(12,0,0,12,101,240.8)" />
<use xlink:href="#f1_6" transform="matrix(12,0,0,12,118.1,240.8)" />
<use xlink:href="#f1_d" transform="matrix(12,0,0,12,125.3,240.8)" />
<use xlink:href="#f1_z" transform="matrix(12,0,0,12,142.3,240.8)" />
<use xlink:href="#f1_b" transform="matrix(12,0,0,12,154.9,240.8)" />
<use xlink:href="#f1_d" transform="matrix(12,0,0,12,164.9,240.8)" />
<use xlink:href="#f1_f" transform="matrix(12,0,0,12,176.1,240.8)" />
<use xlink:href="#f1_a" transform="matrix(12,0,0,12,187.7,240.8)" />
<use xlink:href="#f1_8" transform="matrix(12,0,0,12,204.8,240.8)" />
<use xlink:href="#f1_e" transform="matrix(12,0,0,12,216.1,240.8)" />
<use xlink:href="#f1_f" transform="matrix(12,0,0,12,227.7,240.8)" />
<use xlink:href="#f1_b" transform="matrix(12,0,0,12,245.1,240.8)" />
<use xlink:href="#f1_7" transform="matrix(12,0,0,12,255.2,240.8)" />
<use xlink:href="#f1_d" transform="matrix(12,0,0,12,266.8,240.8)" />
<use xlink:href="#f1_d" transform="matrix(12,0,0,12,278.1,240.8)" />
<use xlink:href="#f1_9" transform="matrix(12,0,0,12,289.2,240.8)" />
<use xlink:href="#f1_a" transform="matrix(12,0,0,12,298.7,240.8)" />
</g>
<g fill="#0000FF" >
<use xlink:href="#f0_2" transform="matrix(12,0,0,12,316.1,240.8)" />
<use xlink:href="#f0_3" transform="matrix(12,0,0,12,331.2,240.8)" />
<use xlink:href="#f0_6" transform="matrix(12,0,0,12,343.6,240.8)" />
<use xlink:href="#f0_3" transform="matrix(12,0,0,12,356.6,240.8)" />
<use xlink:href="#f0_b" transform="matrix(12,0,0,12,368.9,240.8)" />
<use xlink:href="#f0_5" transform="matrix(12,0,0,12,378,240.8)" />
<use xlink:href="#f0_f" transform="matrix(12,0,0,12,384.4,240.8)" />
<use xlink:href="#f0_5" transform="matrix(12,0,0,12,401.6,240.8)" />
<use xlink:href="#f0_1e" transform="matrix(12,0,0,12,407.9,240.8)" />
<use xlink:href="#f0_9" transform="matrix(12,0,0,12,423.5,240.8)" />
<use xlink:href="#f0_t" transform="matrix(12,0,0,12,443,240.8)" />
<use xlink:href="#f0_3" transform="matrix(12,0,0,12,458.3,240.8)" />
<use xlink:href="#f0_x" transform="matrix(12,0,0,12,470.6,240.8)" />
<use xlink:href="#f0_5" transform="matrix(12,0,0,12,482.5,240.8)" />
<use xlink:href="#f0_f" transform="matrix(12,0,0,12,488.8,240.8)" />
<use xlink:href="#f0_3" transform="matrix(12,0,0,12,499.8,240.8)" />
</g>
<g fill="#000000" >
<use xlink:href="#f1_c" transform="matrix(12,0,0,12,518.7,240.8)" />
<use xlink:href="#f1_e" transform="matrix(12,0,0,12,523.7,240.8)" />
<use xlink:href="#f1_6" transform="matrix(12,0,0,12,541.3,240.8)" />
<use xlink:href="#f1_7" transform="matrix(12,0,0,12,548.5,240.8)" />
<use xlink:href="#f1_a" transform="matrix(12,0,0,12,560.1,240.8)" />
<use xlink:href="#f1_9" transform="matrix(12,0,0,12,577.2,240.8)" />
<use xlink:href="#f1_b" transform="matrix(12,0,0,12,586.8,240.8)" />
<use xlink:href="#f1_7" transform="matrix(12,0,0,12,596.9,240.8)" />
<use xlink:href="#f1_a" transform="matrix(12,0,0,12,608.3,240.8)" />
<use xlink:href="#f1_u" transform="matrix(12,0,0,12,619.6,240.8)" />
<use xlink:href="#f1_a" transform="matrix(12,0,0,12,637.5,240.8)" />
<use xlink:href="#f1_b" transform="matrix(12,0,0,12,654.6,240.8)" />
<use xlink:href="#f1_7" transform="matrix(12,0,0,12,664.6,240.8)" />
<use xlink:href="#f1_d" transform="matrix(12,0,0,12,676.2,240.8)" />
<use xlink:href="#f1_d" transform="matrix(12,0,0,12,687.5,240.8)" />
<use xlink:href="#f1_9" transform="matrix(12,0,0,12,698.7,240.8)" />
<use xlink:href="#f1_a" transform="matrix(12,0,0,12,708.3,240.8)" />
<use xlink:href="#f1_g" transform="matrix(12,0,0,12,719.6,240.8)" />
<use xlink:href="#f1_1e" transform="matrix(12,0,0,12,726.8,240.8)" />
<use xlink:href="#f1_w" transform="matrix(12,0,0,12,86.8,475.6)" />
<use xlink:href="#f1_7" transform="matrix(12,0,0,12,97.9,475.6)" />
<use xlink:href="#f1_a" transform="matrix(12,0,0,12,109.5,475.6)" />
<use xlink:href="#f1_e" transform="matrix(12,0,0,12,120.8,475.6)" />
<use xlink:href="#f1_b" transform="matrix(12,0,0,12,138.4,475.6)" />
<use xlink:href="#f1_7" transform="matrix(12,0,0,12,148.5,475.6)" />
<use xlink:href="#f1_d" transform="matrix(12,0,0,12,160.1,475.6)" />
<use xlink:href="#f1_d" transform="matrix(12,0,0,12,171.2,475.6)" />
<use xlink:href="#f1_9" transform="matrix(12,0,0,12,182.3,475.6)" />
<use xlink:href="#f1_a" transform="matrix(12,0,0,12,192,475.6)" />
</g>
<g fill="#0000FF" >
<use xlink:href="#f0_i" transform="matrix(12,0,0,12,209.2,475.6)" />
<use xlink:href="#f0_b" transform="matrix(12,0,0,12,222.6,475.6)" />
<use xlink:href="#f0_g" transform="matrix(12,0,0,12,231.6,475.6)" />
<use xlink:href="#f0_c" transform="matrix(12,0,0,12,244.1,475.6)" />
<use xlink:href="#f0_o" transform="matrix(12,0,0,12,257.4,475.6)" />
<use xlink:href="#f0_f" transform="matrix(12,0,0,12,270.4,475.6)" />
<use xlink:href="#f0_4" transform="matrix(12,0,0,12,281.2,475.6)" />
<use xlink:href="#f0_h" transform="matrix(12,0,0,12,289.9,475.6)" />
<use xlink:href="#f0_n" transform="matrix(12,0,0,12,296.6,475.6)" />
<use xlink:href="#f0_b" transform="matrix(12,0,0,12,310.8,475.6)" />
<use xlink:href="#f0_f" transform="matrix(12,0,0,12,319.8,475.6)" />
<use xlink:href="#f0_17" transform="matrix(12,0,0,12,330.8,475.6)" />
<use xlink:href="#f0_5" transform="matrix(12,0,0,12,343.8,475.6)" />
<use xlink:href="#f0_x" transform="matrix(12,0,0,12,350.1,475.6)" />
<use xlink:href="#f0_3" transform="matrix(12,0,0,12,362,475.6)" />
</g>
<g fill="#000000" >
<use xlink:href="#f1_1e" transform="matrix(12,0,0,12,374.6,475.6)" />
<use xlink:href="#f1_19" transform="matrix(12,0,0,12,86.8,852.3)" />
<use xlink:href="#f1_h" transform="matrix(12,0,0,12,92.1,852.3)" />
<use xlink:href="#f1_a" transform="matrix(12,0,0,12,104.5,852.3)" />
<use xlink:href="#f1_t" transform="matrix(12,0,0,12,115.8,852.3)" />
<use xlink:href="#f1_a" transform="matrix(12,0,0,12,126.6,852.3)" />
<use xlink:href="#f1_g" transform="matrix(12,0,0,12,137.9,852.3)" />
<use xlink:href="#f1_p" transform="matrix(12,0,0,12,145.4,852.3)" />
<use xlink:href="#f1_6" transform="matrix(12,0,0,12,156.2,852.3)" />
<use xlink:href="#f1_7" transform="matrix(12,0,0,12,163.4,852.3)" />
<use xlink:href="#f1_c" transform="matrix(12,0,0,12,175,852.3)" />
<use xlink:href="#f1_e" transform="matrix(12,0,0,12,180.1,852.3)" />
<use xlink:href="#f1_q" transform="matrix(12,0,0,12,191.7,852.3)" />
<use xlink:href="#f1_c" transform="matrix(12,0,0,12,209.2,852.3)" />
<use xlink:href="#f1_9" transform="matrix(12,0,0,12,214.3,852.3)" />
<use xlink:href="#f1_d" transform="matrix(12,0,0,12,229.7,852.3)" />
<use xlink:href="#f1_i" transform="matrix(12,0,0,12,240.8,852.3)" />
<use xlink:href="#f1_8" transform="matrix(12,0,0,12,251.1,852.3)" />
<use xlink:href="#f1_p" transform="matrix(12,0,0,12,262.4,852.3)" />
<use xlink:href="#f1_n" transform="matrix(12,0,0,12,279.1,852.3)" />
<use xlink:href="#f1_c" transform="matrix(12,0,0,12,294.1,852.3)" />
<use xlink:href="#f1_6" transform="matrix(12,0,0,12,299.2,852.3)" />
<use xlink:href="#f1_7" transform="matrix(12,0,0,12,306.3,852.3)" />
<use xlink:href="#f1_6" transform="matrix(12,0,0,12,323.8,852.3)" />
<use xlink:href="#f1_7" transform="matrix(12,0,0,12,330.9,852.3)" />
<use xlink:href="#f1_a" transform="matrix(12,0,0,12,342.5,852.3)" />
<use xlink:href="#f1_x" transform="matrix(12,0,0,12,359.8,852.3)" />
<use xlink:href="#f1_k" transform="matrix(12,0,0,12,371.4,852.3)" />
<use xlink:href="#f1_c" transform="matrix(12,0,0,12,383,852.3)" />
<use xlink:href="#f1_o" transform="matrix(12,0,0,12,388,852.3)" />
<use xlink:href="#f1_f" transform="matrix(12,0,0,12,393.1,852.3)" />
<use xlink:href="#f1_4" transform="matrix(12,0,0,12,404.7,852.3)" />
<use xlink:href="#f1_z" transform="matrix(12,0,0,12,416.4,852.3)" />
<use xlink:href="#f1_b" transform="matrix(12,0,0,12,429,852.3)" />
<use xlink:href="#f1_d" transform="matrix(12,0,0,12,439,852.3)" />
<use xlink:href="#f1_f" transform="matrix(12,0,0,12,450.2,852.3)" />
<use xlink:href="#f1_a" transform="matrix(12,0,0,12,461.8,852.3)" />
<use xlink:href="#f1_n" transform="matrix(12,0,0,12,479,852.3)" />
<use xlink:href="#f1_c" transform="matrix(12,0,0,12,494,852.3)" />
<use xlink:href="#f1_o" transform="matrix(12,0,0,12,499,852.3)" />
<use xlink:href="#f1_o" transform="matrix(12,0,0,12,504.1,852.3)" />
<use xlink:href="#f1_d" transform="matrix(12,0,0,12,515.1,852.3)" />
<use xlink:href="#f1_s" transform="matrix(12,0,0,12,526.2,852.3)" />
<use xlink:href="#f1_a" transform="matrix(12,0,0,12,537.8,852.3)" />
<use xlink:href="#f1_e" transform="matrix(12,0,0,12,549.1,852.3)" />
<use xlink:href="#f1_6" transform="matrix(12,0,0,12,566.7,852.3)" />
<use xlink:href="#f1_7" transform="matrix(12,0,0,12,573.9,852.3)" />
<use xlink:href="#f1_a" transform="matrix(12,0,0,12,585.5,852.3)" />
<use xlink:href="#f1_2" transform="matrix(12,0,0,12,602.6,852.3)" />
<use xlink:href="#f1_g" transform="matrix(12,0,0,12,616.9,852.3)" />
<use xlink:href="#f1_q" transform="matrix(12,0,0,12,624.1,852.3)" />
<use xlink:href="#f1_8" transform="matrix(12,0,0,12,635.7,852.3)" />
<use xlink:href="#f1_e" transform="matrix(12,0,0,12,647,852.3)" />
<use xlink:href="#f1_c" transform="matrix(12,0,0,12,658.6,852.3)" />
<use xlink:href="#f1_22" transform="matrix(12,0,0,12,663.7,852.3)" />
<use xlink:href="#f1_a" transform="matrix(12,0,0,12,673.3,852.3)" />
<use xlink:href="#f1_g" transform="matrix(12,0,0,12,684.6,852.3)" />
<use xlink:href="#f1_n" transform="matrix(12,0,0,12,698,852.3)" />
<use xlink:href="#f1_c" transform="matrix(12,0,0,12,713,852.3)" />
<use xlink:href="#f1_e" transform="matrix(12,0,0,12,718,852.3)" />
<use xlink:href="#f1_f" transform="matrix(12,0,0,12,729.6,852.3)" />
<use xlink:href="#f1_d" transform="matrix(12,0,0,12,741.4,852.3)" />
<use xlink:href="#f1_n" transform="matrix(12,0,0,12,752.5,852.3)" />
<use xlink:href="#f1_n" transform="matrix(12,0,0,12,773.3,852.3)" />
<use xlink:href="#f1_c" transform="matrix(12,0,0,12,788.3,852.3)" />
<use xlink:href="#f1_6" transform="matrix(12,0,0,12,793.5,852.3)" />
<use xlink:href="#f1_7" transform="matrix(12,0,0,12,800.6,852.3)" />
<use xlink:href="#f1_p" transform="matrix(12,0,0,12,86.8,880.9)" />
<use xlink:href="#f1_d" transform="matrix(12,0,0,12,97.6,880.9)" />
<use xlink:href="#f1_k" transform="matrix(12,0,0,12,108.8,880.9)" />
<use xlink:href="#f1_g" transform="matrix(12,0,0,12,120.5,880.9)" />
<use xlink:href="#f1_8" transform="matrix(12,0,0,12,133.8,880.9)" />
<use xlink:href="#f1_s" transform="matrix(12,0,0,12,145.1,880.9)" />
<use xlink:href="#f1_s" transform="matrix(12,0,0,12,156.7,880.9)" />
<use xlink:href="#f1_c" transform="matrix(12,0,0,12,174.1,880.9)" />
<use xlink:href="#f1_e" transform="matrix(12,0,0,12,179.2,880.9)" />
<use xlink:href="#f1_6" transform="matrix(12,0,0,12,196.7,880.9)" />
<use xlink:href="#f1_7" transform="matrix(12,0,0,12,203.9,880.9)" />
<use xlink:href="#f1_a" transform="matrix(12,0,0,12,215.5,880.9)" />
<use xlink:href="#f1_1k" transform="matrix(12,0,0,12,232.6,880.9)" />
<use xlink:href="#f1_g" transform="matrix(12,0,0,12,245.1,880.9)" />
<use xlink:href="#f1_b" transform="matrix(12,0,0,12,252.2,880.9)" />
<use xlink:href="#f1_7" transform="matrix(12,0,0,12,262.2,880.9)" />
<use xlink:href="#f1_c" transform="matrix(12,0,0,12,274,880.9)" />
<use xlink:href="#f1_t" transform="matrix(12,0,0,12,279,880.9)" />
<use xlink:href="#f1_a" transform="matrix(12,0,0,12,289.9,880.9)" />
<use xlink:href="#f1_9" transform="matrix(12,0,0,12,301.1,880.9)" />
<use xlink:href="#f1_6" transform="matrix(12,0,0,12,316.6,880.9)" />
<use xlink:href="#f1_8" transform="matrix(12,0,0,12,323.6,880.9)" />
<use xlink:href="#f1_x" transform="matrix(12,0,0,12,334.9,880.9)" />
<use xlink:href="#f1_l" transform="matrix(12,0,0,12,346.5,880.9)" />
<use xlink:href="#f1_1r" transform="matrix(12,0,0,12,358.2,880.9)" />
<use xlink:href="#f1_d" transform="matrix(12,0,0,12,366.9,880.9)" />
<use xlink:href="#f1_k" transform="matrix(12,0,0,12,378.1,880.9)" />
<use xlink:href="#f1_f" transform="matrix(12,0,0,12,395.7,880.9)" />
<use xlink:href="#f1_d" transform="matrix(12,0,0,12,407.3,880.9)" />
<use xlink:href="#f1_e" transform="matrix(12,0,0,12,418.4,880.9)" />
<use xlink:href="#f1_r" transform="matrix(12,0,0,12,430,880.9)" />
<use xlink:href="#f1_6" transform="matrix(12,0,0,12,435.8,880.9)" />
<use xlink:href="#f1_g" transform="matrix(12,0,0,12,449,880.9)" />
<use xlink:href="#f1_a" transform="matrix(12,0,0,12,456,880.9)" />
<use xlink:href="#f1_8" transform="matrix(12,0,0,12,467.3,880.9)" />
<use xlink:href="#f1_o" transform="matrix(12,0,0,12,478.6,880.9)" />
<use xlink:href="#f1_o" transform="matrix(12,0,0,12,483.6,880.9)" />
<use xlink:href="#f1_p" transform="matrix(12,0,0,12,488.6,880.9)" />
<use xlink:href="#f1_e" transform="matrix(12,0,0,12,505.4,880.9)" />
<use xlink:href="#f1_a" transform="matrix(12,0,0,12,517,880.9)" />
<use xlink:href="#f1_a" transform="matrix(12,0,0,12,528.3,880.9)" />
<use xlink:href="#f1_f" transform="matrix(12,0,0,12,539.6,880.9)" />
<use xlink:href="#f1_6" transform="matrix(12,0,0,12,557,880.9)" />
<use xlink:href="#f1_d" transform="matrix(12,0,0,12,564.2,880.9)" />
<use xlink:href="#f1_b" transform="matrix(12,0,0,12,581.3,880.9)" />
<use xlink:href="#f1_o" transform="matrix(12,0,0,12,591.4,880.9)" />
<use xlink:href="#f1_c" transform="matrix(12,0,0,12,596.4,880.9)" />
<use xlink:href="#f1_b" transform="matrix(12,0,0,12,601.5,880.9)" />
<use xlink:href="#f1_i" transform="matrix(12,0,0,12,611.5,880.9)" />
<use xlink:href="#f1_1b" transform="matrix(12,0,0,12,628,880.9)" />
<use xlink:href="#f1_2b" transform="matrix(12,0,0,12,637.5,880.9)" />
<use xlink:href="#f1_8" transform="matrix(12,0,0,12,648.5,880.9)" />
<use xlink:href="#f1_o" transform="matrix(12,0,0,12,659.8,880.9)" />
<use xlink:href="#f1_c" transform="matrix(12,0,0,12,664.8,880.9)" />
<use xlink:href="#f1_f" transform="matrix(12,0,0,12,670,880.9)" />
<use xlink:href="#f1_8" transform="matrix(12,0,0,12,681.6,880.9)" />
<use xlink:href="#f1_6" transform="matrix(12,0,0,12,692.9,880.9)" />
<use xlink:href="#f1_a" transform="matrix(12,0,0,12,700.1,880.9)" />
<use xlink:href="#f1_1x" transform="matrix(12,0,0,12,711.4,880.9)" />
<use xlink:href="#f1_1c" transform="matrix(12,0,0,12,729.7,880.9)" />
<use xlink:href="#f1_7" transform="matrix(12,0,0,12,745,880.9)" />
<use xlink:href="#f1_a" transform="matrix(12,0,0,12,756.6,880.9)" />
<use xlink:href="#f1_g" transform="matrix(12,0,0,12,767.9,880.9)" />
<use xlink:href="#f1_a" transform="matrix(12,0,0,12,774.9,880.9)" />
<use xlink:href="#f1_x" transform="matrix(12,0,0,12,86.8,909.6)" />
<use xlink:href="#f1_a" transform="matrix(12,0,0,12,98.4,909.6)" />
<use xlink:href="#f1_b" transform="matrix(12,0,0,12,109.7,909.6)" />
<use xlink:href="#f1_8" transform="matrix(12,0,0,12,119.7,909.6)" />
<use xlink:href="#f1_k" transform="matrix(12,0,0,12,131,909.6)" />
<use xlink:href="#f1_9" transform="matrix(12,0,0,12,142.5,909.6)" />
<use xlink:href="#f1_a" transform="matrix(12,0,0,12,152.1,909.6)" />
<use xlink:href="#f1_6" transform="matrix(12,0,0,12,169.2,909.6)" />
<use xlink:href="#f1_7" transform="matrix(12,0,0,12,176.4,909.6)" />
<use xlink:href="#f1_c" transform="matrix(12,0,0,12,188,909.6)" />
<use xlink:href="#f1_9" transform="matrix(12,0,0,12,193,909.6)" />
<use xlink:href="#f1_n" transform="matrix(12,0,0,12,208.6,909.6)" />
<use xlink:href="#f1_c" transform="matrix(12,0,0,12,223.6,909.6)" />
<use xlink:href="#f1_o" transform="matrix(12,0,0,12,228.6,909.6)" />
<use xlink:href="#f1_o" transform="matrix(12,0,0,12,233.6,909.6)" />
<use xlink:href="#f1_x" transform="matrix(12,0,0,12,244.6,909.6)" />
<use xlink:href="#f1_a" transform="matrix(12,0,0,12,256.2,909.6)" />
<use xlink:href="#f1_f" transform="matrix(12,0,0,12,273.3,909.6)" />
<use xlink:href="#f1_d" transform="matrix(12,0,0,12,284.9,909.6)" />
<use xlink:href="#f1_e" transform="matrix(12,0,0,12,296.1,909.6)" />
<use xlink:href="#f1_a" transform="matrix(12,0,0,12,307.7,909.6)" />
<use xlink:href="#f1_n" transform="matrix(12,0,0,12,324.9,909.6)" />
<use xlink:href="#f1_7" transform="matrix(12,0,0,12,339.9,909.6)" />
<use xlink:href="#f1_a" transform="matrix(12,0,0,12,351.5,909.6)" />
<use xlink:href="#f1_e" transform="matrix(12,0,0,12,362.8,909.6)" />
<use xlink:href="#f1_p" transform="matrix(12,0,0,12,380.2,909.6)" />
<use xlink:href="#f1_d" transform="matrix(12,0,0,12,391.1,909.6)" />
<use xlink:href="#f1_k" transform="matrix(12,0,0,12,402.2,909.6)" />
<use xlink:href="#f1_9" transform="matrix(12,0,0,12,419.8,909.6)" />
<use xlink:href="#f1_k" transform="matrix(12,0,0,12,429.3,909.6)" />
<use xlink:href="#f1_x" transform="matrix(12,0,0,12,440.9,909.6)" />
<use xlink:href="#f1_u" transform="matrix(12,0,0,12,452.5,909.6)" />
<use xlink:href="#f1_c" transform="matrix(12,0,0,12,470.3,909.6)" />
<use xlink:href="#f1_6" transform="matrix(12,0,0,12,475.4,909.6)" />
<use xlink:href="#f1_8" transform="matrix(12,0,0,12,488.5,909.6)" />
<use xlink:href="#f1_e" transform="matrix(12,0,0,12,499.8,909.6)" />
<use xlink:href="#f1_p" transform="matrix(12,0,0,12,511.4,909.6)" />
<use xlink:href="#f1_n" transform="matrix(12,0,0,12,522.2,909.6)" />
<use xlink:href="#f1_8" transform="matrix(12,0,0,12,537,909.6)" />
<use xlink:href="#f1_p" transform="matrix(12,0,0,12,548.3,909.6)" />
<use xlink:href="#f1_4" transform="matrix(12,0,0,12,559.2,909.6)" />
<use xlink:href="#f1_8" transform="matrix(12,0,0,12,570.9,909.6)" />
<use xlink:href="#f1_e" transform="matrix(12,0,0,12,582.1,909.6)" />
<use xlink:href="#f1_f" transform="matrix(12,0,0,12,593.7,909.6)" />
<use xlink:href="#f1_z" transform="matrix(12,0,0,12,611.1,909.6)" />
<use xlink:href="#f1_b" transform="matrix(12,0,0,12,623.6,909.6)" />
<use xlink:href="#f1_d" transform="matrix(12,0,0,12,633.8,909.6)" />
<use xlink:href="#f1_f" transform="matrix(12,0,0,12,645,909.6)" />
<use xlink:href="#f1_a" transform="matrix(12,0,0,12,656.6,909.6)" />
<use xlink:href="#f1_9" transform="matrix(12,0,0,12,673.7,909.6)" />
<use xlink:href="#f1_7" transform="matrix(12,0,0,12,683.3,909.6)" />
<use xlink:href="#f1_d" transform="matrix(12,0,0,12,694.9,909.6)" />
<use xlink:href="#f1_k" transform="matrix(12,0,0,12,706,909.6)" />
<use xlink:href="#f1_o" transform="matrix(12,0,0,12,717.6,909.6)" />
<use xlink:href="#f1_f" transform="matrix(12,0,0,12,722.7,909.6)" />
<use xlink:href="#f1_7" transform="matrix(12,0,0,12,740.3,909.6)" />
<use xlink:href="#f1_8" transform="matrix(12,0,0,12,751.9,909.6)" />
<use xlink:href="#f1_t" transform="matrix(12,0,0,12,763.1,909.6)" />
<use xlink:href="#f1_a" transform="matrix(12,0,0,12,773.8,909.6)" />
<use xlink:href="#f1_8" transform="matrix(12,0,0,12,86.8,938.2)" />
<use xlink:href="#f1_o" transform="matrix(12,0,0,12,98.1,938.2)" />
<use xlink:href="#f1_g" transform="matrix(12,0,0,12,103.1,938.2)" />
<use xlink:href="#f1_a" transform="matrix(12,0,0,12,110.1,938.2)" />
<use xlink:href="#f1_8" transform="matrix(12,0,0,12,121.4,938.2)" />
<use xlink:href="#f1_f" transform="matrix(12,0,0,12,132.7,938.2)" />
<use xlink:href="#f1_p" transform="matrix(12,0,0,12,144.3,938.2)" />
<use xlink:href="#f1_t" transform="matrix(12,0,0,12,161,938.2)" />
<use xlink:href="#f1_8" transform="matrix(12,0,0,12,171.8,938.2)" />
<use xlink:href="#f1_o" transform="matrix(12,0,0,12,183.1,938.2)" />
<use xlink:href="#f1_c" transform="matrix(12,0,0,12,188.1,938.2)" />
<use xlink:href="#f1_f" transform="matrix(12,0,0,12,193.2,938.2)" />
<use xlink:href="#f1_8" transform="matrix(12,0,0,12,204.8,938.2)" />
<use xlink:href="#f1_6" transform="matrix(12,0,0,12,216.1,938.2)" />
<use xlink:href="#f1_a" transform="matrix(12,0,0,12,223.3,938.2)" />
<use xlink:href="#f1_f" transform="matrix(12,0,0,12,234.6,938.2)" />
<use xlink:href="#f1_8" transform="matrix(12,0,0,12,252.1,938.2)" />
<use xlink:href="#f1_q" transform="matrix(12,0,0,12,263.3,938.2)" />
<use xlink:href="#f1_8" transform="matrix(12,0,0,12,274.9,938.2)" />
<use xlink:href="#f1_c" transform="matrix(12,0,0,12,286.2,938.2)" />
<use xlink:href="#f1_e" transform="matrix(12,0,0,12,291.2,938.2)" />
<use xlink:href="#f1_9" transform="matrix(12,0,0,12,302.8,938.2)" />
<use xlink:href="#f1_6" transform="matrix(12,0,0,12,312.4,938.2)" />
<use xlink:href="#f1_u" transform="matrix(12,0,0,12,325.4,938.2)" />
<use xlink:href="#f1_d" transform="matrix(12,0,0,12,343.3,938.2)" />
<use xlink:href="#f1_9" transform="matrix(12,0,0,12,354.4,938.2)" />
<use xlink:href="#f1_6" transform="matrix(12,0,0,12,364,938.2)" />
<use xlink:href="#f1_s" transform="matrix(12,0,0,12,377,938.2)" />
<use xlink:href="#f1_g" transform="matrix(12,0,0,12,388.6,938.2)" />
<use xlink:href="#f1_d" transform="matrix(12,0,0,12,395.8,938.2)" />
<use xlink:href="#f1_x" transform="matrix(12,0,0,12,407,938.2)" />
<use xlink:href="#f1_o" transform="matrix(12,0,0,12,418.6,938.2)" />
<use xlink:href="#f1_a" transform="matrix(12,0,0,12,423.6,938.2)" />
<use xlink:href="#f1_u" transform="matrix(12,0,0,12,434.9,938.2)" />
<use xlink:href="#f1_9" transform="matrix(12,0,0,12,452.7,938.2)" />
<use xlink:href="#f1_l" transform="matrix(12,0,0,12,462.4,938.2)" />
<use xlink:href="#f1_18" transform="matrix(12,0,0,12,474,938.2)" />
<use xlink:href="#f1_d" transform="matrix(12,0,0,12,485.6,938.2)" />
<use xlink:href="#f1_9" transform="matrix(12,0,0,12,502.7,938.2)" />
<use xlink:href="#f1_8" transform="matrix(12,0,0,12,512.3,938.2)" />
<use xlink:href="#f1_t" transform="matrix(12,0,0,12,523.4,938.2)" />
<use xlink:href="#f1_a" transform="matrix(12,0,0,12,534.3,938.2)" />
<use xlink:href="#f1_p" transform="matrix(12,0,0,12,551.4,938.2)" />
<use xlink:href="#f1_d" transform="matrix(12,0,0,12,562.2,938.2)" />
<use xlink:href="#f1_k" transform="matrix(12,0,0,12,573.4,938.2)" />
<use xlink:href="#f1_g" transform="matrix(12,0,0,12,585,938.2)" />
<use xlink:href="#f1_9" transform="matrix(12,0,0,12,592.4,938.2)" />
<use xlink:href="#f1_a" transform="matrix(12,0,0,12,602.1,938.2)" />
<use xlink:href="#f1_o" transform="matrix(12,0,0,12,613.3,938.2)" />
<use xlink:href="#f1_h" transform="matrix(12,0,0,12,618.4,938.2)" />
<use xlink:href="#f1_9" transform="matrix(12,0,0,12,630.7,938.2)" />
<use xlink:href="#f1_d" transform="matrix(12,0,0,12,640.4,938.2)" />
<use xlink:href="#f1_u" transform="matrix(12,0,0,12,651.5,938.2)" />
<use xlink:href="#f1_a" transform="matrix(12,0,0,12,669.4,938.2)" />
<use xlink:href="#f1_6" transform="matrix(12,0,0,12,686.5,938.2)" />
<use xlink:href="#f1_c" transform="matrix(12,0,0,12,693.6,938.2)" />
<use xlink:href="#f1_u" transform="matrix(12,0,0,12,698.7,938.2)" />
<use xlink:href="#f1_a" transform="matrix(12,0,0,12,716.5,938.2)" />
<use xlink:href="#f1_8" transform="matrix(12,0,0,12,733.7,938.2)" />
<use xlink:href="#f1_e" transform="matrix(12,0,0,12,744.9,938.2)" />
<use xlink:href="#f1_f" transform="matrix(12,0,0,12,756.5,938.2)" />
<use xlink:href="#f1_b" transform="matrix(12,0,0,12,774,938.2)" />
<use xlink:href="#f1_o" transform="matrix(12,0,0,12,784,938.2)" />
<use xlink:href="#f1_c" transform="matrix(12,0,0,12,789.1,938.2)" />
<use xlink:href="#f1_b" transform="matrix(12,0,0,12,794.1,938.2)" />
<use xlink:href="#f1_i" transform="matrix(12,0,0,12,804.2,938.2)" />
</g>
<g fill="#0000FF" >
<use xlink:href="#f0_1c" transform="matrix(12,0,0,12,86.8,966.9)" />
<use xlink:href="#f0_q" transform="matrix(12,0,0,12,101.6,966.9)" />
<use xlink:href="#f0_r" transform="matrix(12,0,0,12,114.7,966.9)" />
<use xlink:href="#f0_g" transform="matrix(12,0,0,12,121.1,966.9)" />
<use xlink:href="#f0_a" transform="matrix(12,0,0,12,133.6,966.9)" />
<use xlink:href="#f0_c" transform="matrix(12,0,0,12,146,966.9)" />
<use xlink:href="#f0_4" transform="matrix(12,0,0,12,165.5,966.9)" />
<use xlink:href="#f0_g" transform="matrix(12,0,0,12,174.2,966.9)" />
<use xlink:href="#f0_n" transform="matrix(12,0,0,12,193.2,966.9)" />
<use xlink:href="#f0_q" transform="matrix(12,0,0,12,207.4,966.9)" />
<use xlink:href="#f0_q" transform="matrix(12,0,0,12,220.5,966.9)" />
<use xlink:href="#f0_9" transform="matrix(12,0,0,12,240,966.9)" />
<use xlink:href="#f0_4" transform="matrix(12,0,0,12,253.2,966.9)" />
<use xlink:href="#f0_g" transform="matrix(12,0,0,12,261.9,966.9)" />
<use xlink:href="#f0_b" transform="matrix(12,0,0,12,274.5,966.9)" />
<use xlink:href="#f0_3" transform="matrix(12,0,0,12,283.5,966.9)" />
<use xlink:href="#f0_l" transform="matrix(12,0,0,12,295.9,966.9)" />
</g>
<g fill="#000000" >
<use xlink:href="#f1_1e" transform="matrix(12,0,0,12,314.6,966.9)" />
</g>
</g>
<image preserveAspectRatio="none" x="87" y="245" width="736" height="185" xlink:href="img/1.png" />
<image preserveAspectRatio="none" x="87" y="480" width="736" height="327" xlink:href="img/2.png" />
<defs>
<path d="M545,-20c0,0,-106,0,-212,20C333,0,226,19,119,58V301c0,0,107,-57,207,-85c0,0,99,-29,192,-29c0,0,94,0,144,31c0,0,50,31,50,90c0,0,0,52,-34,80c0,0,-34,29,-136,51L431,464c0,0,-167,35,-244,114c0,0,-77,78,-77,211c0,0,0,166,107,256c0,0,107,89,309,89c0,0,92,0,189,-14c0,0,97,-13,200,-41V843c0,0,-92,41,-179,62c0,0,-87,21,-165,21c0,0,-103,0,-152,-28c0,0,-49,-29,-49,-88c0,0,0,-45,33,-70c0,0,33,-25,121,-43L646,672c0,0,186,-37,264,-113c0,0,79,-76,79,-216c0,0,0,-185,-110,-275c0,0,-109,-88,-334,-88Z" 
id="f0_9"
transform="scale(0.001,-0.001)" />

<path d="M415,-20c0,0,-144,0,-220,87c0,0,-76,89,-76,259V836H388V752c0,0,0,-67,-1,-170c0,0,0,-103,0,-137c0,0,0,-101,5,-145c0,0,5,-44,18,-65c0,0,16,-26,43,-40c0,0,26,-14,60,-14c0,0,84,0,132,64c0,0,47,64,47,178V836H959V0H692V121C692,121,632,48,564,13c0,0,-67,-33,-149,-33Z" 
id="f0_o"
transform="scale(0.001,-0.001)" />

<path d="M573,172c0,0,86,0,131,63c0,0,45,63,45,182c0,0,0,119,-45,182c0,0,-45,63,-131,63c0,0,-86,0,-132,-63c0,0,-46,-63,-46,-182c0,0,0,-119,46,-182c0,0,46,-63,132,-63ZM672,-20c0,0,-87,0,-155,33c0,0,-67,35,-122,108V0H128V1161H395V713c0,0,55,73,122,108c0,0,68,35,155,35c0,0,154,0,253,-123c0,0,100,-123,100,-316c0,0,0,-193,-100,-316c0,0,-99,-121,-253,-121Z" 
id="f0_13"
transform="scale(0.001,-0.001)" />

<path d="M127,0V836H396V713c0,0,49,71,113,107c0,0,64,36,141,36c0,0,86,0,152,-42c0,0,67,-42,101,-118c0,0,51,78,121,119c0,0,69,41,153,41c0,0,144,0,219,-89c0,0,76,-89,76,-258V0H1203V436c0,0,0,9,1,20c0,0,0,10,0,30c0,0,0,88,-26,128c0,0,-26,40,-84,40c0,0,-76,0,-117,-63c0,0,-42,-62,-43,-181V0H665V436c0,0,0,138,-24,178c0,0,-24,40,-85,40c0,0,-77,0,-118,-63c0,0,-42,-63,-42,-180V0Z" 
id="f0_z"
transform="scale(0.001,-0.001)" />

<path d="M128,0V836H395V0Zm0,944v217H395V944Z" 
id="f0_5"
transform="scale(0.001,-0.001)" />

<path d="M443,0C443,0,285,0,219,66c0,0,-66,66,-66,224V645H20V836H153v237H419V836H695V645H419V290c0,0,0,-58,24,-79c0,0,23,-20,91,-20H672V0Z" 
id="f0_4"
transform="scale(0.001,-0.001)" />

<path d="M463,156c0,0,75,0,127,54c0,0,51,54,51,135v30H502c0,0,-83,0,-125,-28c0,0,-43,-28,-43,-83c0,0,0,-50,34,-79c0,0,34,-29,95,-29ZM357,-20c0,0,-130,0,-211,74c0,0,-80,76,-80,197c0,0,0,147,101,215c0,0,101,69,317,69H641v21c0,0,0,63,-50,92c0,0,-49,30,-155,30c0,0,-86,0,-160,-17c0,0,-74,-18,-137,-52V813c0,0,86,21,172,32c0,0,86,11,173,11c0,0,226,0,326,-90c0,0,100,-89,100,-290V0H641V124C641,124,588,48,521,13c0,0,-68,-33,-164,-33Z" 
id="f0_a"
transform="scale(0.001,-0.001)" />

<path d="M128,0V836H395V713c0,0,60,73,128,108c0,0,68,35,150,35c0,0,145,0,220,-89c0,0,75,-89,75,-258V0H699V389c0,0,0,109,-5,150c0,0,-5,41,-16,60c0,0,-16,26,-43,41c0,0,-27,14,-61,14c0,0,-84,0,-131,-64c0,0,-48,-65,-48,-179V0Z" 
id="f0_6"
transform="scale(0.001,-0.001)" />

<path d="M573,172c0,0,86,0,131,63c0,0,45,63,45,182c0,0,0,119,-45,182c0,0,-45,63,-131,63c0,0,-86,0,-132,-63c0,0,-46,-63,-46,-182c0,0,0,-119,46,-182c0,0,46,-63,132,-63ZM128,-317V836H395V713c0,0,55,73,122,108c0,0,68,35,155,35c0,0,154,0,253,-123c0,0,100,-123,100,-316c0,0,0,-193,-100,-316c0,0,-99,-121,-253,-121c0,0,-87,0,-155,33c0,0,-67,35,-122,108V-317Z" 
id="f0_q"
transform="scale(0.001,-0.001)" />

<path d="M274,0L54,836H313L454,260L594,836H817L958,266l141,570h259L1138,0H847L706,575L565,0Z" 
id="f0_v"
transform="scale(0.001,-0.001)" />

<path d="M128,0V1161H395V713c0,0,60,73,128,108c0,0,68,35,150,35c0,0,145,0,220,-89c0,0,75,-89,75,-258V0H699V388c0,0,0,110,-5,151c0,0,-5,41,-16,60c0,0,-16,26,-43,41c0,0,-27,14,-61,14c0,0,-84,0,-131,-64c0,0,-48,-65,-48,-179V0Z" 
id="f0_17"
transform="scale(0.001,-0.001)" />

<path d="M29,0L416,568L44,1114H344L588,755l244,359h301L761,568L1148,0H849L588,380L330,0Z" 
id="f0_e"
transform="scale(0.001,-0.001)" />

<path d="M547,-20c0,0,-226,0,-354,114C193,94,66,210,66,417c0,0,0,207,127,323c0,0,128,116,354,116c0,0,66,0,129,-12c0,0,64,-11,128,-34V592c0,0,-55,37,-110,55c0,0,-54,18,-113,18c0,0,-112,0,-175,-65c0,0,-62,-66,-62,-183c0,0,0,-117,62,-183c0,0,63,-65,175,-65c0,0,62,0,119,19c0,0,56,19,104,55V24C804,24,741,1,676,-9c0,0,-64,-11,-129,-11Z" 
id="f0_f"
transform="scale(0.001,-0.001)" />

<path d="M526,169c0,0,87,0,133,64c0,0,46,64,46,184c0,0,0,120,-46,184c0,0,-46,64,-133,64c0,0,-89,0,-135,-64c0,0,-47,-64,-47,-184c0,0,0,-120,47,-184c0,0,46,-64,135,-64Zm0,-189c0,0,-217,0,-339,115C187,95,66,211,66,417c0,0,0,206,121,322c0,0,122,117,339,117c0,0,215,0,336,-117c0,0,122,-116,122,-322c0,0,0,-206,-122,-322C862,95,741,-20,526,-20Z" 
id="f0_g"
transform="scale(0.001,-0.001)" />

<path d="M520,172c0,0,86,0,131,63c0,0,45,63,45,182c0,0,0,119,-45,182c0,0,-45,63,-131,63c0,0,-85,0,-130,-63c0,0,-45,-63,-45,-182c0,0,0,-119,45,-182c0,0,45,-63,130,-63ZM421,-20c0,0,-154,0,-253,121C168,101,68,224,68,417c0,0,0,193,100,316c0,0,99,123,253,123c0,0,87,0,153,-35c0,0,67,-35,122,-108v448H965V0H696V121C696,121,641,47,575,13c0,0,-67,-33,-154,-33Z" 
id="f0_c"
transform="scale(0.001,-0.001)" />

<path d="M687,509c0,0,0,76,-44,122c0,0,-44,47,-116,47c0,0,-78,0,-126,-44c0,0,-49,-43,-61,-125ZM544,-20c0,0,-227,0,-353,114C191,94,66,209,66,417c0,0,0,204,123,321c0,0,123,118,340,118c0,0,197,0,315,-119c0,0,118,-118,118,-317V344H337c0,0,10,-94,68,-141c0,0,59,-47,163,-47c0,0,85,0,173,25c0,0,89,25,182,76V51C923,51,828,15,733,-2c0,0,-94,-18,-189,-18Z" 
id="f0_3"
transform="scale(0.001,-0.001)" />

<path d="M391,0V530L-2,1114H159L468,656l307,458H937L543,530V0Z" 
id="f1_1r"
transform="scale(0.001,-0.001)" />

<path d="M467,95c0,0,110,0,174,86c0,0,64,87,64,236c0,0,0,148,-64,235c0,0,-64,87,-174,87c0,0,-110,0,-174,-86c0,0,-64,-86,-64,-236c0,0,0,-150,64,-236c0,0,63,-86,174,-86Zm0,-115c0,0,-179,0,-281,115C186,95,84,212,84,417c0,0,0,206,102,322c0,0,102,117,281,117c0,0,179,0,282,-117c0,0,102,-116,102,-322c0,0,0,-205,-102,-322C749,95,646,-20,467,-20Z" 
id="f1_d"
transform="scale(0.001,-0.001)" />

<path d="M424,-20c0,0,-145,0,-219,88c0,0,-75,89,-75,262V836H267V335c0,0,0,-119,46,-178c0,0,47,-59,139,-59c0,0,112,0,177,71c0,0,64,71,64,193V836H830V0H693V128C693,128,643,52,577,15c0,0,-66,-35,-153,-35Z" 
id="f1_k"
transform="scale(0.001,-0.001)" />

<path d="M139,0V836H277V706c0,0,43,76,112,113c0,0,70,37,169,37c0,0,14,0,31,-2c0,0,17,-2,38,-6l1,-141c0,0,-23,14,-51,20c0,0,-27,6,-60,6c0,0,-116,0,-178,-75c0,0,-62,-76,-62,-218V0Z" 
id="f1_g"
transform="scale(0.001,-0.001)" />

<path d="M408,93c0,0,115,0,184,81c0,0,69,81,69,215v30H524c0,0,-167,0,-231,-38c0,0,-64,-38,-64,-129c0,0,0,-73,48,-116c0,0,48,-43,131,-43ZM372,-20c0,0,-128,0,-204,70c0,0,-76,72,-76,193c0,0,0,141,94,212c0,0,95,72,282,72H661v13c0,0,0,95,-62,147c0,0,-63,52,-175,52c0,0,-72,0,-140,-17c0,0,-68,-17,-130,-51V798c0,0,75,29,146,43c0,0,71,15,138,15c0,0,181,0,270,-95c0,0,90,-94,90,-285V0H661V127C661,127,614,51,544,15c0,0,-70,-35,-172,-35Z" 
id="f1_8"
transform="scale(0.001,-0.001)" />

<path d="M510,93c0,0,109,0,171,86c0,0,62,86,62,238c0,0,0,151,-62,237c0,0,-62,86,-171,86c0,0,-109,0,-171,-86c0,0,-62,-86,-62,-237c0,0,0,-152,62,-238c0,0,62,-86,171,-86ZM139,-317V836H277V709c0,0,43,74,109,110c0,0,66,37,158,37c0,0,152,0,247,-121c0,0,95,-121,95,-318c0,0,0,-197,-95,-318C791,99,696,-20,544,-20c0,0,-92,0,-158,35c0,0,-66,36,-109,110V-317Z" 
id="f1_s"
transform="scale(0.001,-0.001)" />

<path d="M144,0V1161H281V0Z" 
id="f1_o"
transform="scale(0.001,-0.001)" />

<path d="M144,0V836H281V0Zm0,987v174H281V987Z" 
id="f1_c"
transform="scale(0.001,-0.001)" />

<path d="M495,-20c0,0,-189,0,-300,117C195,97,84,216,84,417c0,0,0,204,112,321c0,0,113,118,308,118c0,0,64,0,124,-14c0,0,60,-13,117,-39V675c0,0,-58,32,-117,48c0,0,-58,16,-118,16c0,0,-133,0,-207,-84c0,0,-74,-85,-74,-238c0,0,0,-153,74,-238c0,0,74,-84,207,-84c0,0,60,0,118,16c0,0,59,16,117,48V32C745,32,688,5,626,-7c0,0,-61,-13,-131,-13Z" 
id="f1_b"
transform="scale(0.001,-0.001)" />

<path d="M421,0C421,0,263,0,202,59c0,0,-60,60,-60,217V729H41V836H142v238H280V836H562V729H280V276c0,0,0,-102,28,-132c0,0,28,-29,113,-29H562V0Z" 
id="f1_6"
transform="scale(0.001,-0.001)" />

<path d="M139,0V836H277V706c0,0,49,75,116,112c0,0,67,38,154,38c0,0,144,0,218,-90c0,0,74,-89,74,-262V0H702V500c0,0,0,119,-46,177c0,0,-47,59,-139,59c0,0,-112,0,-176,-71c0,0,-64,-70,-64,-193V0Z" 
id="f1_e"
transform="scale(0.001,-0.001)" />

<path d="M376,-20c0,0,-67,0,-140,12C236,-8,164,4,83,30V172c0,0,76,-40,150,-59c0,0,74,-20,146,-20c0,0,97,0,150,33c0,0,52,33,52,94c0,0,0,56,-38,85c0,0,-38,30,-165,58l-48,11c0,0,-128,27,-184,83c0,0,-57,55,-57,152c0,0,0,118,83,182c0,0,84,65,238,65c0,0,76,0,143,-12c0,0,67,-11,124,-33V681c0,0,-58,29,-121,44c0,0,-63,15,-130,15c0,0,-102,0,-153,-31c0,0,-51,-31,-51,-94c0,0,0,-48,37,-75c0,0,36,-27,147,-52l46,-10c0,0,147,-32,208,-89c0,0,62,-57,62,-159c0,0,0,-116,-93,-184c0,0,-92,-66,-253,-66Z" 
id="f1_9"
transform="scale(0.001,-0.001)" />

<path d="M139,0V1161H277V706c0,0,49,75,116,112c0,0,67,38,154,38c0,0,144,0,218,-90c0,0,74,-89,74,-262V0H702V500c0,0,0,119,-46,177c0,0,-47,59,-139,59c0,0,-112,0,-176,-71c0,0,-64,-70,-64,-193V0Z" 
id="f1_7"
transform="scale(0.001,-0.001)" />

<path d="M460,93c0,0,109,0,171,86c0,0,63,86,63,238c0,0,0,151,-63,237c0,0,-62,86,-171,86c0,0,-109,0,-172,-86c0,0,-62,-86,-62,-237c0,0,0,-152,62,-238c0,0,63,-86,172,-86ZM426,-20c0,0,-151,0,-247,119c0,0,-95,121,-95,318c0,0,0,197,95,318c0,0,96,121,247,121c0,0,93,0,159,-37c0,0,66,-36,109,-110v452H831V0H694V125C694,125,651,51,585,15c0,0,-66,-35,-159,-35Z" 
id="f1_f"
transform="scale(0.001,-0.001)" />

<path d="M283,0L65,836H202L373,184L544,836H706L878,184l171,652h137L967,0H806L626,685L445,0Z" 
id="f1_n"
transform="scale(0.001,-0.001)" />

<path d="M510,93c0,0,109,0,171,86c0,0,62,86,62,238c0,0,0,151,-62,237c0,0,-62,86,-171,86c0,0,-109,0,-171,-86c0,0,-62,-86,-62,-237c0,0,0,-152,62,-238c0,0,62,-86,171,-86ZM544,-20c0,0,-92,0,-158,35c0,0,-66,36,-109,110V0H139V1161H277V709c0,0,43,74,109,110c0,0,66,37,158,37c0,0,152,0,247,-121c0,0,95,-121,95,-318c0,0,0,-197,-95,-318C791,99,696,-20,544,-20Z" 
id="f1_x"
transform="scale(0.001,-0.001)" />

<path d="M231,492l491,1c0,0,-2,112,-64,179c0,0,-61,67,-163,67c0,0,-115,0,-184,-65c0,0,-69,-64,-80,-182ZM517,-20c0,0,-199,0,-316,115C201,95,84,211,84,410c0,0,0,205,111,325c0,0,111,121,299,121c0,0,168,0,266,-109c0,0,98,-108,98,-295V385H227c0,0,9,-142,85,-216c0,0,77,-74,213,-74c0,0,80,0,154,19c0,0,74,19,147,58V42C826,42,752,11,675,-4c0,0,-78,-16,-158,-16Z" 
id="f1_a"
transform="scale(0.001,-0.001)" />

<path d="M121,-317v116h81c0,0,57,0,88,26c0,0,31,27,69,127l25,62L46,836H191L453,182L714,836H859L492,-76c0,0,-58,-150,-113,-195c0,0,-55,-46,-148,-46Z" 
id="f1_p"
transform="scale(0.001,-0.001)" />

<path d="M163,0V190H321V0Z" 
id="f1_l"
transform="scale(0.001,-0.001)" />

<path d="M727,411L522,965L318,411ZM12,0L437,1114H608L1033,0H876L774,286H272L171,0Z" 
id="f1_1k"
transform="scale(0.001,-0.001)" />

<path d="M139,0V836H277V706c0,0,47,77,112,113c0,0,66,37,156,37c0,0,91,0,155,-47c0,0,64,-46,94,-134c0,0,52,93,123,137c0,0,72,44,169,44c0,0,130,0,201,-92c0,0,71,-91,71,-260V0H1220V500c0,0,0,120,-42,178c0,0,-43,58,-130,58c0,0,-107,0,-169,-71c0,0,-62,-70,-62,-193V0H680V500c0,0,0,121,-43,179c0,0,-42,57,-131,57c0,0,-105,0,-167,-71c0,0,-62,-71,-62,-193V0Z" 
id="f1_u"
transform="scale(0.001,-0.001)" />

<path d="M166,0V729H35V836H166v58c0,0,0,139,65,203c0,0,65,64,206,64H567V1046H435c0,0,-74,0,-102,-29c0,0,-29,-30,-29,-107V836H530V729H304V0Z" 
id="f1_h"
transform="scale(0.001,-0.001)" />

<path d="M359,0L46,836H191L453,134L714,836H859L546,0Z" 
id="f1_t"
transform="scale(0.001,-0.001)" />

<path d="M391,0V987H-3v127H938V987H543V0Z" 
id="f1_w"
transform="scale(0.001,-0.001)" />

<path d="M460,115c0,0,111,0,173,82c0,0,61,82,61,230c0,0,0,149,-61,231c0,0,-62,82,-173,82c0,0,-111,0,-173,-82c0,0,-61,-82,-61,-231c0,0,0,-148,61,-230c0,0,62,-82,173,-82ZM446,-317c0,0,-72,0,-137,11c0,0,-64,11,-124,33v134c0,0,60,-33,119,-49c0,0,59,-15,121,-15c0,0,135,0,202,70c0,0,67,71,67,212v68C694,147,652,73,585,36C585,36,519,0,426,0C426,0,272,0,178,117c0,0,-94,117,-94,310c0,0,0,194,94,311c0,0,94,118,248,118c0,0,93,0,159,-37c0,0,67,-36,109,-110V836H831V104c0,0,0,-212,-95,-317c0,0,-94,-104,-290,-104Z" 
id="f1_q"
transform="scale(0.001,-0.001)" />

<path d="M132,763l62,237v114H351V1000L228,763Z" 
id="f1_r"
transform="scale(0.001,-0.001)" />

<path d="M642,-20c0,0,-261,0,-409,151C233,131,86,284,86,556c0,0,0,273,147,426c0,0,148,152,409,152c0,0,109,0,207,-27c0,0,98,-26,181,-78V868c0,0,-84,71,-178,106c0,0,-94,36,-197,36c0,0,-205,0,-307,-114C348,896,245,782,245,556c0,0,0,-225,103,-339c0,0,102,-114,307,-114c0,0,79,0,142,13c0,0,62,14,112,43V459H663V583h396V104c0,0,-87,-62,-193,-94c0,0,-105,-30,-224,-30Z" 
id="f1_1v"
transform="scale(0.001,-0.001)" />

<path d="M46,0L444,595L97,1114H259L536,700l278,414H976L618,579L999,0H837L524,474L209,0Z" 
id="f1_z"
transform="scale(0.001,-0.001)" />

<path d="M679,-20c0,0,-278,0,-440,154C239,134,76,290,76,556c0,0,0,269,166,424c0,0,165,154,453,154c0,0,111,0,213,-21c0,0,102,-21,192,-62V820c0,0,-93,54,-185,80c0,0,-92,26,-185,26c0,0,-171,0,-264,-96c0,0,-92,-96,-92,-274c0,0,0,-177,89,-273c0,0,89,-96,254,-96c0,0,45,0,83,5c0,0,39,6,69,18V425H694V618h447V83C1141,83,1034,31,918,5C918,5,803,-20,679,-20Z" 
id="f0_2"
transform="scale(0.001,-0.001)" />

<path d="M128,0V836H395V698c0,0,52,82,118,120c0,0,67,38,161,38c0,0,13,0,29,-2c0,0,15,-1,45,-4l1,-242c0,0,-35,17,-70,25c0,0,-35,7,-70,7c0,0,-103,0,-158,-66c0,0,-56,-66,-56,-189V0Z" 
id="f0_b"
transform="scale(0.001,-0.001)" />

<path d="M649,187c0,0,132,0,205,97c0,0,72,97,72,272c0,0,0,176,-72,273c0,0,-73,97,-205,97c0,0,-131,0,-203,-97c0,0,-72,-97,-72,-273c0,0,0,-175,72,-272c0,0,72,-97,203,-97Zm0,-207c0,0,-268,0,-420,152C229,132,76,286,76,556c0,0,0,271,153,425c0,0,152,153,420,153c0,0,269,0,421,-153c0,0,152,-154,152,-425c0,0,0,-270,-152,-424c0,0,-152,-152,-421,-152Z" 
id="f0_1e"
transform="scale(0.001,-0.001)" />

<path d="M530,217c0,0,176,0,269,87c0,0,93,88,93,254c0,0,0,166,-93,252c0,0,-92,87,-269,87H427V217ZM140,0V1114H443c0,0,253,0,378,-36c0,0,124,-37,213,-123c0,0,78,-76,116,-174c0,0,38,-98,38,-223c0,0,0,-126,-38,-225c0,0,-38,-99,-116,-174c0,0,-90,-87,-215,-123C819,36,694,0,443,0Z" 
id="f0_t"
transform="scale(0.001,-0.001)" />

<path d="M352,0L23,836H291L499,258L706,836H974L645,0Z" 
id="f0_x"
transform="scale(0.001,-0.001)" />

<path d="M179,0V190H336V0Zm0,600V790H336V600Z" 
id="f1_1e"
transform="scale(0.001,-0.001)" />

<path d="M586,595c0,0,84,0,129,40c0,0,46,41,46,115c0,0,0,75,-46,115c0,0,-45,40,-129,40H427V595ZM140,0V1114H617c0,0,212,0,326,-95c0,0,114,-94,114,-269c0,0,0,-175,-114,-269c0,0,-114,-95,-326,-95H427V0Z" 
id="f0_i"
transform="scale(0.001,-0.001)" />

<path d="M393,-141L0,1114H165L558,-141Z" 
id="f0_h"
transform="scale(0.001,-0.001)" />

<path d="M744,410L592,853L439,410ZM8,0L420,1114H763L1175,0H887L816,203H367L297,0Z" 
id="f0_n"
transform="scale(0.001,-0.001)" />

<path d="M150,0V1114H300V0Z" 
id="f1_19"
transform="scale(0.001,-0.001)" />

<path d="M139,0V1161H277V475L686,836H861L418,445L880,0H701L277,408V0Z" 
id="f1_i"
transform="scale(0.001,-0.001)" />

<path d="M117,-176L179,62V190H336V62L213,-176Z" 
id="f1_4"
transform="scale(0.001,-0.001)" />

<path d="M602,101c0,0,164,0,260,122c0,0,95,123,95,333c0,0,0,211,-95,334c0,0,-96,122,-260,122c0,0,-164,0,-260,-122c0,0,-97,-123,-97,-334c0,0,0,-210,97,-333c0,0,96,-122,260,-122Zm0,-121c0,0,-235,0,-375,155C227,135,86,292,86,556c0,0,0,264,141,421c0,0,140,157,375,157c0,0,234,0,374,-157c0,0,141,-157,141,-421c0,0,0,-263,-141,-420C976,136,836,-20,602,-20Z" 
id="f1_2"
transform="scale(0.001,-0.001)" />

<path d="M66,0V125L582,727H84V836H736V711L220,110H736V0Z" 
id="f1_22"
transform="scale(0.001,-0.001)" />

<path d="M130,747V876l123,238h96L287,876V747Zm306,0V876l123,238h96L594,876V747Z" 
id="f1_1b"
transform="scale(0.001,-0.001)" />

<path d="M437,0L12,1114H169L522,176l354,938h157L608,0Z" 
id="f1_2b"
transform="scale(0.001,-0.001)" />

<path d="M176,0V190H335V0ZM685,0V190H844V0Zm508,0V190h159V0Z" 
id="f1_1x"
transform="scale(0.001,-0.001)" />

<path d="M129,747l62,239v128H348V986L225,747Zm306,0l62,239v128H654V986L531,747Z" 
id="f1_1c"
transform="scale(0.001,-0.001)" />

<path d="M458,-20c0,0,-79,0,-168,17c0,0,-89,17,-184,52V204c0,0,91,-51,179,-77c0,0,88,-26,173,-26c0,0,129,0,199,50c0,0,70,51,70,145c0,0,0,82,-50,129c0,0,-50,46,-165,69l-92,18c0,0,-169,34,-244,105c0,0,-75,72,-75,199c0,0,0,148,104,233c0,0,104,85,287,85c0,0,78,0,159,-14c0,0,81,-14,166,-42V931c0,0,-85,41,-161,61c0,0,-76,20,-147,20c0,0,-123,0,-190,-48c0,0,-67,-48,-67,-136c0,0,0,-73,45,-111c0,0,44,-38,168,-61l91,-19c0,0,168,-32,249,-113c0,0,80,-81,80,-216c0,0,0,-162,-109,-246c0,0,-108,-82,-318,-82Z" 
id="f1_18"
transform="scale(0.001,-0.001)" />

<path d="M620,-20c0,0,-243,0,-362,114c0,0,-118,116,-118,352v668H427V446c0,0,0,-138,45,-197c0,0,45,-59,148,-59c0,0,102,0,147,59c0,0,46,59,46,197v668h287V446c0,0,0,-236,-119,-352C981,94,863,-20,620,-20Z" 
id="f0_1c"
transform="scale(0.001,-0.001)" />

<path d="M128,0V1161H395V0Z" 
id="f0_r"
transform="scale(0.001,-0.001)" />

<path d="M121,0V288H390V0ZM631,0V288H900V0Zm509,0V288h269V0Z" 
id="f0_l"
transform="scale(0.001,-0.001)" />


</defs>
</svg>