<?xml version="1.0" encoding="UTF-8" standalone="no"?>
<!DOCTYPE svg PUBLIC "-//W3C//DTD SVG 1.1//EN"
"http://www.w3.org/Graphics/SVG/1.1/DTD/svg11.dtd">
<svg viewBox="0 0 909 1286" version="1.1" xmlns="http://www.w3.org/2000/svg" xmlns:xlink="http://www.w3.org/1999/xlink">
<defs>
<clipPath id="c0_34"><path d="M0,1286.2V.2H909.3v1286Z" /></clipPath>
<style type="text/css"><![CDATA[
.g0_34{
fill: #FFFFCC;
}
]]></style>
</defs>
<g clip-path="url(#c0_34)">
<g fill="#000000" >
<use xlink:href="#f0_w" transform="matrix(12,0,0,12,86.8,626.4)" />
<use xlink:href="#f0_7" transform="matrix(12,0,0,12,97.9,626.4)" />
<use xlink:href="#f0_c" transform="matrix(12,0,0,12,109.7,626.4)" />
<use xlink:href="#f0_9" transform="matrix(12,0,0,12,114.7,626.4)" />
<use xlink:href="#f0_9" transform="matrix(12,0,0,12,130.1,626.4)" />
<use xlink:href="#f0_a" transform="matrix(12,0,0,12,139.6,626.4)" />
<use xlink:href="#f0_b" transform="matrix(12,0,0,12,150.9,626.4)" />
<use xlink:href="#f0_6" transform="matrix(12,0,0,12,161,626.4)" />
<use xlink:href="#f0_c" transform="matrix(12,0,0,12,168.2,626.4)" />
<use xlink:href="#f0_d" transform="matrix(12,0,0,12,173.2,626.4)" />
<use xlink:href="#f0_e" transform="matrix(12,0,0,12,184.3,626.4)" />
<use xlink:href="#f0_c" transform="matrix(12,0,0,12,201.9,626.4)" />
<use xlink:href="#f0_9" transform="matrix(12,0,0,12,207,626.4)" />
<use xlink:href="#f0_n" transform="matrix(12,0,0,12,222.4,626.4)" />
<use xlink:href="#f0_7" transform="matrix(12,0,0,12,237.3,626.4)" />
<use xlink:href="#f0_a" transform="matrix(12,0,0,12,249,626.4)" />
<use xlink:href="#f0_g" transform="matrix(12,0,0,12,260.2,626.4)" />
<use xlink:href="#f0_a" transform="matrix(12,0,0,12,267.3,626.4)" />
<use xlink:href="#f0_p" transform="matrix(12,0,0,12,284.5,626.4)" />
<use xlink:href="#f0_d" transform="matrix(12,0,0,12,295.4,626.4)" />
<use xlink:href="#f0_k" transform="matrix(12,0,0,12,306.5,626.4)" />
<use xlink:href="#f0_8" transform="matrix(12,0,0,12,324,626.4)" />
<use xlink:href="#f0_f" transform="matrix(12,0,0,12,335.2,626.4)" />
<use xlink:href="#f0_f" transform="matrix(12,0,0,12,346.8,626.4)" />
<use xlink:href="#f0_8" transform="matrix(12,0,0,12,364.3,626.4)" />
<use xlink:href="#f0_o" transform="matrix(12,0,0,12,375.5,626.4)" />
<use xlink:href="#f0_o" transform="matrix(12,0,0,12,380.5,626.4)" />
<use xlink:href="#f0_6" transform="matrix(12,0,0,12,391.5,626.4)" />
<use xlink:href="#f0_7" transform="matrix(12,0,0,12,398.7,626.4)" />
<use xlink:href="#f0_a" transform="matrix(12,0,0,12,410.3,626.4)" />
<use xlink:href="#f0_8" transform="matrix(12,0,0,12,427.4,626.4)" />
<use xlink:href="#f0_9" transform="matrix(12,0,0,12,438.7,626.4)" />
<use xlink:href="#f0_9" transform="matrix(12,0,0,12,448.2,626.4)" />
<use xlink:href="#f0_a" transform="matrix(12,0,0,12,457.8,626.4)" />
<use xlink:href="#f0_6" transform="matrix(12,0,0,12,468.9,626.4)" />
<use xlink:href="#f0_9" transform="matrix(12,0,0,12,476.1,626.4)" />
<use xlink:href="#f0_h" transform="matrix(12,0,0,12,491.5,626.4)" />
<use xlink:href="#f0_d" transform="matrix(12,0,0,12,498,626.4)" />
<use xlink:href="#f0_g" transform="matrix(12,0,0,12,509.3,626.4)" />
<use xlink:href="#f0_p" transform="matrix(12,0,0,12,522.5,626.4)" />
<use xlink:href="#f0_d" transform="matrix(12,0,0,12,533.4,626.4)" />
<use xlink:href="#f0_k" transform="matrix(12,0,0,12,544.5,626.4)" />
<use xlink:href="#f0_g" transform="matrix(12,0,0,12,556.3,626.4)" />
<use xlink:href="#f0_8" transform="matrix(12,0,0,12,569.6,626.4)" />
<use xlink:href="#f0_s" transform="matrix(12,0,0,12,580.9,626.4)" />
<use xlink:href="#f0_s" transform="matrix(12,0,0,12,592.5,626.4)" />
<use xlink:href="#f0_6" transform="matrix(12,0,0,12,609.9,626.4)" />
<use xlink:href="#f0_d" transform="matrix(12,0,0,12,617.1,626.4)" />
<use xlink:href="#f0_8" transform="matrix(12,0,0,12,634.2,626.4)" />
<use xlink:href="#f0_s" transform="matrix(12,0,0,12,645.5,626.4)" />
<use xlink:href="#f0_s" transform="matrix(12,0,0,12,657.1,626.4)" />
<use xlink:href="#f0_a" transform="matrix(12,0,0,12,668.7,626.4)" />
<use xlink:href="#f0_8" transform="matrix(12,0,0,12,679.8,626.4)" />
<use xlink:href="#f0_g" transform="matrix(12,0,0,12,691.1,626.4)" />
<use xlink:href="#f0_c" transform="matrix(12,0,0,12,704.5,626.4)" />
<use xlink:href="#f0_e" transform="matrix(12,0,0,12,709.6,626.4)" />
<use xlink:href="#f0_6" transform="matrix(12,0,0,12,727,626.4)" />
<use xlink:href="#f0_7" transform="matrix(12,0,0,12,734.2,626.4)" />
<use xlink:href="#f0_a" transform="matrix(12,0,0,12,745.8,626.4)" />
<use xlink:href="#f0_1k" transform="matrix(12,0,0,12,762.9,626.4)" />
<use xlink:href="#f0_s" transform="matrix(12,0,0,12,775.4,626.4)" />
<use xlink:href="#f0_s" transform="matrix(12,0,0,12,787,626.4)" />
<use xlink:href="#f0_18" transform="matrix(12,0,0,12,86.8,655)" />
<use xlink:href="#f0_6" transform="matrix(12,0,0,12,98.4,655)" />
<use xlink:href="#f0_d" transform="matrix(12,0,0,12,105.6,655)" />
<use xlink:href="#f0_g" transform="matrix(12,0,0,12,116.9,655)" />
<use xlink:href="#f0_a" transform="matrix(12,0,0,12,123.9,655)" />
<use xlink:href="#f0_l" transform="matrix(12,0,0,12,135.2,655)" />
<use xlink:href="#f0_1u" transform="matrix(12,0,0,12,146.9,655)" />
<use xlink:href="#f0_c" transform="matrix(12,0,0,12,156.1,655)" />
<use xlink:href="#f0_g" transform="matrix(12,0,0,12,161.1,655)" />
<use xlink:href="#f0_9" transform="matrix(12,0,0,12,168.6,655)" />
<use xlink:href="#f0_6" transform="matrix(12,0,0,12,178.2,655)" />
<use xlink:href="#f0_9" transform="matrix(12,0,0,12,191.2,655)" />
<use xlink:href="#f0_6" transform="matrix(12,0,0,12,200.8,655)" />
<use xlink:href="#f0_a" transform="matrix(12,0,0,12,208,655)" />
<use xlink:href="#f0_s" transform="matrix(12,0,0,12,219.3,655)" />
<use xlink:href="#f0_c" transform="matrix(12,0,0,12,236.7,655)" />
<use xlink:href="#f0_9" transform="matrix(12,0,0,12,241.8,655)" />
<use xlink:href="#f0_6" transform="matrix(12,0,0,12,257.2,655)" />
<use xlink:href="#f0_d" transform="matrix(12,0,0,12,264.4,655)" />
<use xlink:href="#f0_k" transform="matrix(12,0,0,12,281.5,655)" />
<use xlink:href="#f0_s" transform="matrix(12,0,0,12,293.1,655)" />
<use xlink:href="#f0_o" transform="matrix(12,0,0,12,304.7,655)" />
<use xlink:href="#f0_d" transform="matrix(12,0,0,12,309.7,655)" />
<use xlink:href="#f0_8" transform="matrix(12,0,0,12,320.9,655)" />
<use xlink:href="#f0_f" transform="matrix(12,0,0,12,332.2,655)" />
<use xlink:href="#f0_p" transform="matrix(12,0,0,12,349.7,655)" />
<use xlink:href="#f0_d" transform="matrix(12,0,0,12,360.6,655)" />
<use xlink:href="#f0_k" transform="matrix(12,0,0,12,371.7,655)" />
<use xlink:href="#f0_g" transform="matrix(12,0,0,12,383.3,655)" />
<use xlink:href="#f0_8" transform="matrix(12,0,0,12,396.8,655)" />
<use xlink:href="#f0_s" transform="matrix(12,0,0,12,407.9,655)" />
<use xlink:href="#f0_s" transform="matrix(12,0,0,12,419.5,655)" />
<use xlink:href="#f0_r" transform="matrix(12,0,0,12,431.1,655)" />
<use xlink:href="#f0_9" transform="matrix(12,0,0,12,436.9,655)" />
<use xlink:href="#f0_c" transform="matrix(12,0,0,12,452.3,655)" />
<use xlink:href="#f0_b" transform="matrix(12,0,0,12,457.4,655)" />
<use xlink:href="#f0_d" transform="matrix(12,0,0,12,467.6,655)" />
<use xlink:href="#f0_e" transform="matrix(12,0,0,12,478.7,655)" />
<use xlink:href="#f0_8" transform="matrix(12,0,0,12,496.2,655)" />
<use xlink:href="#f0_e" transform="matrix(12,0,0,12,507.5,655)" />
<use xlink:href="#f0_f" transform="matrix(12,0,0,12,519.1,655)" />
<use xlink:href="#f0_8" transform="matrix(12,0,0,12,536.5,655)" />
<use xlink:href="#f0_6" transform="matrix(12,0,0,12,547.8,655)" />
<use xlink:href="#f0_o" transform="matrix(12,0,0,12,560.8,655)" />
<use xlink:href="#f0_a" transform="matrix(12,0,0,12,565.8,655)" />
<use xlink:href="#f0_8" transform="matrix(12,0,0,12,577.1,655)" />
<use xlink:href="#f0_9" transform="matrix(12,0,0,12,588.2,655)" />
<use xlink:href="#f0_6" transform="matrix(12,0,0,12,597.9,655)" />
<use xlink:href="#f0_d" transform="matrix(12,0,0,12,610.9,655)" />
<use xlink:href="#f0_e" transform="matrix(12,0,0,12,622,655)" />
<use xlink:href="#f0_a" transform="matrix(12,0,0,12,633.6,655)" />
<use xlink:href="#f0_9" transform="matrix(12,0,0,12,650.9,655)" />
<use xlink:href="#f0_b" transform="matrix(12,0,0,12,660.3,655)" />
<use xlink:href="#f0_g" transform="matrix(12,0,0,12,670.5,655)" />
<use xlink:href="#f0_a" transform="matrix(12,0,0,12,677.6,655)" />
<use xlink:href="#f0_a" transform="matrix(12,0,0,12,688.9,655)" />
<use xlink:href="#f0_e" transform="matrix(12,0,0,12,700.2,655)" />
<use xlink:href="#f0_9" transform="matrix(12,0,0,12,711.6,655)" />
<use xlink:href="#f0_7" transform="matrix(12,0,0,12,721.2,655)" />
<use xlink:href="#f0_d" transform="matrix(12,0,0,12,732.8,655)" />
<use xlink:href="#f0_6" transform="matrix(12,0,0,12,744,655)" />
<use xlink:href="#f0_l" transform="matrix(12,0,0,12,751.3,655)" />
<use xlink:href="#f0_19" transform="matrix(12,0,0,12,762.9,655)" />
<use xlink:href="#f0_h" transform="matrix(12,0,0,12,768.3,655)" />
<use xlink:href="#f0_p" transform="matrix(12,0,0,12,780.6,655)" />
<use xlink:href="#f0_d" transform="matrix(12,0,0,12,791.5,655)" />
<use xlink:href="#f0_k" transform="matrix(12,0,0,12,802.6,655)" />
<use xlink:href="#f0_g" transform="matrix(12,0,0,12,814.2,655)" />
<use xlink:href="#f0_8" transform="matrix(12,0,0,12,86.8,683.7)" />
<use xlink:href="#f0_s" transform="matrix(12,0,0,12,98.1,683.7)" />
<use xlink:href="#f0_s" transform="matrix(12,0,0,12,109.7,683.7)" />
<use xlink:href="#f0_c" transform="matrix(12,0,0,12,127.1,683.7)" />
<use xlink:href="#f0_9" transform="matrix(12,0,0,12,132.1,683.7)" />
<use xlink:href="#f0_k" transform="matrix(12,0,0,12,147.6,683.7)" />
<use xlink:href="#f0_e" transform="matrix(12,0,0,12,159.2,683.7)" />
<use xlink:href="#f0_c" transform="matrix(12,0,0,12,170.8,683.7)" />
<use xlink:href="#f0_t" transform="matrix(12,0,0,12,175.8,683.7)" />
<use xlink:href="#f0_a" transform="matrix(12,0,0,12,186.6,683.7)" />
<use xlink:href="#f0_g" transform="matrix(12,0,0,12,197.9,683.7)" />
<use xlink:href="#f0_9" transform="matrix(12,0,0,12,205.4,683.7)" />
<use xlink:href="#f0_8" transform="matrix(12,0,0,12,215,683.7)" />
<use xlink:href="#f0_o" transform="matrix(12,0,0,12,226.3,683.7)" />
<use xlink:href="#f0_4" transform="matrix(12,0,0,12,231.4,683.7)" />
<use xlink:href="#f0_p" transform="matrix(12,0,0,12,243.1,683.7)" />
<use xlink:href="#f0_d" transform="matrix(12,0,0,12,253.9,683.7)" />
<use xlink:href="#f0_k" transform="matrix(12,0,0,12,265.1,683.7)" />
<use xlink:href="#f0_r" transform="matrix(12,0,0,12,276.7,683.7)" />
<use xlink:href="#f0_o" transform="matrix(12,0,0,12,282.5,683.7)" />
<use xlink:href="#f0_o" transform="matrix(12,0,0,12,287.5,683.7)" />
<use xlink:href="#f0_e" transform="matrix(12,0,0,12,298.5,683.7)" />
<use xlink:href="#f0_a" transform="matrix(12,0,0,12,310.1,683.7)" />
<use xlink:href="#f0_a" transform="matrix(12,0,0,12,321.4,683.7)" />
<use xlink:href="#f0_f" transform="matrix(12,0,0,12,332.7,683.7)" />
<use xlink:href="#f0_6" transform="matrix(12,0,0,12,350.1,683.7)" />
<use xlink:href="#f0_d" transform="matrix(12,0,0,12,357.3,683.7)" />
<use xlink:href="#f0_9" transform="matrix(12,0,0,12,374.4,683.7)" />
<use xlink:href="#f0_k" transform="matrix(12,0,0,12,383.9,683.7)" />
<use xlink:href="#f0_x" transform="matrix(12,0,0,12,395.5,683.7)" />
<use xlink:href="#f0_u" transform="matrix(12,0,0,12,407.1,683.7)" />
<use xlink:href="#f0_c" transform="matrix(12,0,0,12,425,683.7)" />
<use xlink:href="#f0_6" transform="matrix(12,0,0,12,430,683.7)" />
<use xlink:href="#f0_9" transform="matrix(12,0,0,12,443.1,683.7)" />
<use xlink:href="#f0_b" transform="matrix(12,0,0,12,452.7,683.7)" />
<use xlink:href="#f0_g" transform="matrix(12,0,0,12,462.8,683.7)" />
<use xlink:href="#f0_a" transform="matrix(12,0,0,12,469.8,683.7)" />
<use xlink:href="#f0_a" transform="matrix(12,0,0,12,481.1,683.7)" />
<use xlink:href="#f0_e" transform="matrix(12,0,0,12,492.4,683.7)" />
<use xlink:href="#f0_9" transform="matrix(12,0,0,12,504,683.7)" />
<use xlink:href="#f0_7" transform="matrix(12,0,0,12,513.6,683.7)" />
<use xlink:href="#f0_d" transform="matrix(12,0,0,12,525.2,683.7)" />
<use xlink:href="#f0_6" transform="matrix(12,0,0,12,536.4,683.7)" />
<use xlink:href="#f0_9" transform="matrix(12,0,0,12,543.6,683.7)" />
<use xlink:href="#f0_h" transform="matrix(12,0,0,12,559,683.7)" />
<use xlink:href="#f0_d" transform="matrix(12,0,0,12,565.4,683.7)" />
<use xlink:href="#f0_g" transform="matrix(12,0,0,12,576.6,683.7)" />
<use xlink:href="#f0_6" transform="matrix(12,0,0,12,590,683.7)" />
<use xlink:href="#f0_7" transform="matrix(12,0,0,12,597.2,683.7)" />
<use xlink:href="#f0_a" transform="matrix(12,0,0,12,608.8,683.7)" />
<use xlink:href="#f0_c" transform="matrix(12,0,0,12,625.9,683.7)" />
<use xlink:href="#f0_1g" transform="matrix(12,0,0,12,630.9,683.7)" />
<use xlink:href="#f0_7" transform="matrix(12,0,0,12,641.9,683.7)" />
<use xlink:href="#f0_d" transform="matrix(12,0,0,12,653.7,683.7)" />
<use xlink:href="#f0_e" transform="matrix(12,0,0,12,664.8,683.7)" />
<use xlink:href="#f0_a" transform="matrix(12,0,0,12,676.4,683.7)" />
<use xlink:href="#f0_8" transform="matrix(12,0,0,12,693.5,683.7)" />
<use xlink:href="#f0_e" transform="matrix(12,0,0,12,704.8,683.7)" />
<use xlink:href="#f0_f" transform="matrix(12,0,0,12,716.4,683.7)" />
<use xlink:href="#f0_h" transform="matrix(12,0,0,12,733.9,683.7)" />
<use xlink:href="#f0_d" transform="matrix(12,0,0,12,740.3,683.7)" />
<use xlink:href="#f0_g" transform="matrix(12,0,0,12,751.6,683.7)" />
<use xlink:href="#f0_6" transform="matrix(12,0,0,12,764.9,683.7)" />
<use xlink:href="#f0_7" transform="matrix(12,0,0,12,772,683.7)" />
<use xlink:href="#f0_a" transform="matrix(12,0,0,12,783.6,683.7)" />
<use xlink:href="#f0_c" transform="matrix(12,0,0,12,86.8,712.3)" />
<use xlink:href="#f0_1g" transform="matrix(12,0,0,12,91.8,712.3)" />
<use xlink:href="#f0_8" transform="matrix(12,0,0,12,102,712.3)" />
<use xlink:href="#f0_f" transform="matrix(12,0,0,12,113.3,712.3)" />
<use xlink:href="#f0_l" transform="matrix(12,0,0,12,124.9,712.3)" />
<use xlink:href="#f0_20" transform="matrix(12,0,0,12,136.7,712.3)" />
<use xlink:href="#f0_7" transform="matrix(12,0,0,12,154.7,712.3)" />
<use xlink:href="#f0_a" transform="matrix(12,0,0,12,166.3,712.3)" />
<use xlink:href="#f0_e" transform="matrix(12,0,0,12,177.6,712.3)" />
<use xlink:href="#f0_p" transform="matrix(12,0,0,12,195,712.3)" />
<use xlink:href="#f0_d" transform="matrix(12,0,0,12,205.9,712.3)" />
<use xlink:href="#f0_k" transform="matrix(12,0,0,12,217,712.3)" />
<use xlink:href="#f0_7" transform="matrix(12,0,0,12,234.6,712.3)" />
<use xlink:href="#f0_8" transform="matrix(12,0,0,12,246.2,712.3)" />
<use xlink:href="#f0_t" transform="matrix(12,0,0,12,257.5,712.3)" />
<use xlink:href="#f0_a" transform="matrix(12,0,0,12,268.2,712.3)" />
<use xlink:href="#f0_n" transform="matrix(12,0,0,12,285.4,712.3)" />
<use xlink:href="#f0_7" transform="matrix(12,0,0,12,300.4,712.3)" />
<use xlink:href="#f0_8" transform="matrix(12,0,0,12,311.8,712.3)" />
<use xlink:href="#f0_6" transform="matrix(12,0,0,12,323.1,712.3)" />
<use xlink:href="#f0_p" transform="matrix(12,0,0,12,336.3,712.3)" />
<use xlink:href="#f0_d" transform="matrix(12,0,0,12,347.1,712.3)" />
<use xlink:href="#f0_k" transform="matrix(12,0,0,12,358.2,712.3)" />
<use xlink:href="#f0_e" transform="matrix(12,0,0,12,375.7,712.3)" />
<use xlink:href="#f0_a" transform="matrix(12,0,0,12,387.3,712.3)" />
<use xlink:href="#f0_a" transform="matrix(12,0,0,12,398.6,712.3)" />
<use xlink:href="#f0_f" transform="matrix(12,0,0,12,409.8,712.3)" />
<use xlink:href="#f0_4" transform="matrix(12,0,0,12,421.5,712.3)" />
<use xlink:href="#f0_y" transform="matrix(12,0,0,12,433.2,712.3)" />
<use xlink:href="#f0_k" transform="matrix(12,0,0,12,438.2,712.3)" />
<use xlink:href="#f0_9" transform="matrix(12,0,0,12,449.7,712.3)" />
<use xlink:href="#f0_6" transform="matrix(12,0,0,12,459.3,712.3)" />
<use xlink:href="#f0_f" transform="matrix(12,0,0,12,472.4,712.3)" />
<use xlink:href="#f0_g" transform="matrix(12,0,0,12,484,712.3)" />
<use xlink:href="#f0_8" transform="matrix(12,0,0,12,491.5,712.3)" />
<use xlink:href="#f0_q" transform="matrix(12,0,0,12,502.8,712.3)" />
<use xlink:href="#f0_8" transform="matrix(12,0,0,12,520.2,712.3)" />
<use xlink:href="#f0_e" transform="matrix(12,0,0,12,531.5,712.3)" />
<use xlink:href="#f0_f" transform="matrix(12,0,0,12,543.1,712.3)" />
<use xlink:href="#f0_f" transform="matrix(12,0,0,12,560.5,712.3)" />
<use xlink:href="#f0_g" transform="matrix(12,0,0,12,572.2,712.3)" />
<use xlink:href="#f0_d" transform="matrix(12,0,0,12,579.3,712.3)" />
<use xlink:href="#f0_s" transform="matrix(12,0,0,12,590.5,712.3)" />
<use xlink:href="#f0_6" transform="matrix(12,0,0,12,608,712.3)" />
<use xlink:href="#f0_7" transform="matrix(12,0,0,12,615.2,712.3)" />
<use xlink:href="#f0_a" transform="matrix(12,0,0,12,626.8,712.3)" />
<use xlink:href="#f0_9" transform="matrix(12,0,0,12,643.9,712.3)" />
<use xlink:href="#f0_b" transform="matrix(12,0,0,12,653.4,712.3)" />
<use xlink:href="#f0_g" transform="matrix(12,0,0,12,663.5,712.3)" />
<use xlink:href="#f0_a" transform="matrix(12,0,0,12,670.5,712.3)" />
<use xlink:href="#f0_a" transform="matrix(12,0,0,12,681.8,712.3)" />
<use xlink:href="#f0_e" transform="matrix(12,0,0,12,693.1,712.3)" />
<use xlink:href="#f0_9" transform="matrix(12,0,0,12,704.7,712.3)" />
<use xlink:href="#f0_7" transform="matrix(12,0,0,12,714.3,712.3)" />
<use xlink:href="#f0_d" transform="matrix(12,0,0,12,725.9,712.3)" />
<use xlink:href="#f0_6" transform="matrix(12,0,0,12,737,712.3)" />
<use xlink:href="#f0_9" transform="matrix(12,0,0,12,744.2,712.3)" />
<use xlink:href="#f0_d" transform="matrix(12,0,0,12,759.6,712.3)" />
<use xlink:href="#f0_t" transform="matrix(12,0,0,12,770.8,712.3)" />
<use xlink:href="#f0_a" transform="matrix(12,0,0,12,781.6,712.3)" />
<use xlink:href="#f0_g" transform="matrix(12,0,0,12,792.9,712.3)" />
<use xlink:href="#f0_h" transform="matrix(12,0,0,12,86.8,741)" />
<use xlink:href="#f0_d" transform="matrix(12,0,0,12,93.2,741)" />
<use xlink:href="#f0_g" transform="matrix(12,0,0,12,104.5,741)" />
<use xlink:href="#f0_a" transform="matrix(12,0,0,12,117.8,741)" />
<use xlink:href="#f0_8" transform="matrix(12,0,0,12,129.1,741)" />
<use xlink:href="#f0_b" transform="matrix(12,0,0,12,140.4,741)" />
<use xlink:href="#f0_7" transform="matrix(12,0,0,12,150.4,741)" />
<use xlink:href="#f0_f" transform="matrix(12,0,0,12,167.8,741)" />
<use xlink:href="#f0_a" transform="matrix(12,0,0,12,179.5,741)" />
<use xlink:href="#f0_t" transform="matrix(12,0,0,12,190.7,741)" />
<use xlink:href="#f0_c" transform="matrix(12,0,0,12,201.6,741)" />
<use xlink:href="#f0_b" transform="matrix(12,0,0,12,206.6,741)" />
<use xlink:href="#f0_a" transform="matrix(12,0,0,12,216.7,741)" />
<use xlink:href="#f0_6" transform="matrix(12,0,0,12,233.8,741)" />
<use xlink:href="#f0_p" transform="matrix(12,0,0,12,241,741)" />
<use xlink:href="#f0_s" transform="matrix(12,0,0,12,251.8,741)" />
<use xlink:href="#f0_a" transform="matrix(12,0,0,12,263.4,741)" />
<use xlink:href="#f0_l" transform="matrix(12,0,0,12,274.7,741)" />
</g>
</g>
<path fill-rule="evenodd" d="M86.6,774h43.9V750.3H86.6V774Z" class="g0_34" />
<g clip-path="url(#c0_34)">
<g fill="#0000FF" >
<use xlink:href="#f1_1k" transform="matrix(12,0,0,12,86.8,768.3)" />
<use xlink:href="#f1_25" transform="matrix(12,0,0,12,97.9,768.3)" />
<use xlink:href="#f1_2c" transform="matrix(12,0,0,12,103.1,768.3)" />
<use xlink:href="#f1_2f" transform="matrix(12,0,0,12,114.2,768.3)" />
<use xlink:href="#f1_u" transform="matrix(12,0,0,12,124.5,768.3)" />
</g>
</g>
<path fill-rule="evenodd" d="M130.5,774h5.2V750.3h-5.2V774Z" class="g0_34" />
<path fill-rule="evenodd" d="M135.7,772.6H709.5V751.2H135.7v21.4Z" class="g0_34" />
<g clip-path="url(#c0_34)">
<g fill="#000000" >
<use xlink:href="#f0_1r" transform="matrix(12,0,0,12,135.8,768.3)" />
<use xlink:href="#f0_d" transform="matrix(12,0,0,12,144.5,768.3)" />
<use xlink:href="#f0_k" transform="matrix(12,0,0,12,155.7,768.3)" />
<use xlink:href="#f0_b" transform="matrix(12,0,0,12,173.2,768.3)" />
<use xlink:href="#f0_8" transform="matrix(12,0,0,12,183.2,768.3)" />
<use xlink:href="#f0_e" transform="matrix(12,0,0,12,194.5,768.3)" />
<use xlink:href="#f0_u" transform="matrix(12,0,0,12,212,768.3)" />
<use xlink:href="#f0_8" transform="matrix(12,0,0,12,229.7,768.3)" />
<use xlink:href="#f0_i" transform="matrix(12,0,0,12,241,768.3)" />
<use xlink:href="#f0_a" transform="matrix(12,0,0,12,251,768.3)" />
<use xlink:href="#f0_p" transform="matrix(12,0,0,12,268.1,768.3)" />
<use xlink:href="#f0_d" transform="matrix(12,0,0,12,278.9,768.3)" />
<use xlink:href="#f0_k" transform="matrix(12,0,0,12,290.1,768.3)" />
<use xlink:href="#f0_g" transform="matrix(12,0,0,12,301.8,768.3)" />
<use xlink:href="#f0_9" transform="matrix(12,0,0,12,315.1,768.3)" />
<use xlink:href="#f0_b" transform="matrix(12,0,0,12,324.7,768.3)" />
<use xlink:href="#f0_g" transform="matrix(12,0,0,12,334.8,768.3)" />
<use xlink:href="#f0_a" transform="matrix(12,0,0,12,341.8,768.3)" />
<use xlink:href="#f0_a" transform="matrix(12,0,0,12,353.1,768.3)" />
<use xlink:href="#f0_e" transform="matrix(12,0,0,12,364.4,768.3)" />
<use xlink:href="#f0_9" transform="matrix(12,0,0,12,376,768.3)" />
<use xlink:href="#f0_7" transform="matrix(12,0,0,12,385.6,768.3)" />
<use xlink:href="#f0_d" transform="matrix(12,0,0,12,397.2,768.3)" />
<use xlink:href="#f0_6" transform="matrix(12,0,0,12,408.3,768.3)" />
<use xlink:href="#f0_9" transform="matrix(12,0,0,12,415.5,768.3)" />
<use xlink:href="#f0_n" transform="matrix(12,0,0,12,430.9,768.3)" />
<use xlink:href="#f0_c" transform="matrix(12,0,0,12,445.9,768.3)" />
<use xlink:href="#f0_6" transform="matrix(12,0,0,12,451,768.3)" />
<use xlink:href="#f0_7" transform="matrix(12,0,0,12,458.2,768.3)" />
<use xlink:href="#f0_6" transform="matrix(12,0,0,12,475.7,768.3)" />
<use xlink:href="#f0_7" transform="matrix(12,0,0,12,482.9,768.3)" />
<use xlink:href="#f0_a" transform="matrix(12,0,0,12,494.5,768.3)" />
<use xlink:href="#f0_18" transform="matrix(12,0,0,12,511.6,768.3)" />
<use xlink:href="#f0_c" transform="matrix(12,0,0,12,523.2,768.3)" />
<use xlink:href="#f0_u" transform="matrix(12,0,0,12,528.3,768.3)" />
<use xlink:href="#f0_k" transform="matrix(12,0,0,12,546.1,768.3)" />
<use xlink:href="#f0_o" transform="matrix(12,0,0,12,557.7,768.3)" />
<use xlink:href="#f0_8" transform="matrix(12,0,0,12,562.8,768.3)" />
<use xlink:href="#f0_6" transform="matrix(12,0,0,12,574.1,768.3)" />
<use xlink:href="#f0_d" transform="matrix(12,0,0,12,581.2,768.3)" />
<use xlink:href="#f0_g" transform="matrix(12,0,0,12,592.5,768.3)" />
<use xlink:href="#f0_x" transform="matrix(12,0,0,12,605.8,768.3)" />
<use xlink:href="#f0_p" transform="matrix(12,0,0,12,617.4,768.3)" />
<use xlink:href="#f0_b" transform="matrix(12,0,0,12,634.2,768.3)" />
<use xlink:href="#f0_o" transform="matrix(12,0,0,12,644.3,768.3)" />
<use xlink:href="#f0_c" transform="matrix(12,0,0,12,649.3,768.3)" />
<use xlink:href="#f0_b" transform="matrix(12,0,0,12,654.4,768.3)" />
<use xlink:href="#f0_i" transform="matrix(12,0,0,12,664.4,768.3)" />
<use xlink:href="#f0_c" transform="matrix(12,0,0,12,675.1,768.3)" />
<use xlink:href="#f0_e" transform="matrix(12,0,0,12,680.1,768.3)" />
<use xlink:href="#f0_q" transform="matrix(12,0,0,12,691.7,768.3)" />
</g>
</g>
<path fill-rule="evenodd" d="M709.5,772.6h18.3V751.2H709.5v21.4Z" class="g0_34" />
<g clip-path="url(#c0_34)">
<g fill="#0000FF" >
<use xlink:href="#f0_17" transform="matrix(12,0,0,12,709.7,768.3)" />
</g>
</g>
<path fill-rule="evenodd" d="M727.8,774h12.3V750.3H727.8V774Z" class="g0_34" />
<g clip-path="url(#c0_34)">
<g fill="#0000FF" >
<use xlink:href="#f1_1j" transform="matrix(12,0,0,12,728,768.3)" />
</g>
</g>
<path fill-rule="evenodd" d="M740.1,774h5V750.3h-5V774Z" class="g0_34" />
<path fill-rule="evenodd" d="M745.1,772.6h55.5V751.2H745.1v21.4Z" class="g0_34" />
<g clip-path="url(#c0_34)">
<g fill="#000000" >
<use xlink:href="#f0_n" transform="matrix(12,0,0,12,745.3,768.3)" />
<use xlink:href="#f0_7" transform="matrix(12,0,0,12,760.2,768.3)" />
<use xlink:href="#f0_a" transform="matrix(12,0,0,12,771.8,768.3)" />
<use xlink:href="#f0_e" transform="matrix(12,0,0,12,783.1,768.3)" />
</g>
</g>
<path fill-rule="evenodd" d="M86.6,802.5H752.3V781.2H86.6v21.3Z" class="g0_34" />
<g clip-path="url(#c0_34)">
<g fill="#000000" >
<use xlink:href="#f0_p" transform="matrix(12,0,0,12,86.8,798.3)" />
<use xlink:href="#f0_d" transform="matrix(12,0,0,12,97.6,798.3)" />
<use xlink:href="#f0_k" transform="matrix(12,0,0,12,108.8,798.3)" />
<use xlink:href="#f0_g" transform="matrix(12,0,0,12,120.5,798.3)" />
<use xlink:href="#f0_8" transform="matrix(12,0,0,12,133.8,798.3)" />
<use xlink:href="#f0_s" transform="matrix(12,0,0,12,145.1,798.3)" />
<use xlink:href="#f0_s" transform="matrix(12,0,0,12,156.7,798.3)" />
<use xlink:href="#f0_c" transform="matrix(12,0,0,12,174.1,798.3)" />
<use xlink:href="#f0_9" transform="matrix(12,0,0,12,179.2,798.3)" />
<use xlink:href="#f0_g" transform="matrix(12,0,0,12,194.6,798.3)" />
<use xlink:href="#f0_k" transform="matrix(12,0,0,12,202.1,798.3)" />
<use xlink:href="#f0_e" transform="matrix(12,0,0,12,213.7,798.3)" />
<use xlink:href="#f0_e" transform="matrix(12,0,0,12,225.3,798.3)" />
<use xlink:href="#f0_c" transform="matrix(12,0,0,12,237,798.3)" />
<use xlink:href="#f0_e" transform="matrix(12,0,0,12,242.1,798.3)" />
<use xlink:href="#f0_q" transform="matrix(12,0,0,12,253.7,798.3)" />
<use xlink:href="#f0_l" transform="matrix(12,0,0,12,265.3,798.3)" />
<use xlink:href="#f0_1i" transform="matrix(12,0,0,12,277,798.3)" />
<use xlink:href="#f0_k" transform="matrix(12,0,0,12,288.9,798.3)" />
<use xlink:href="#f0_e" transform="matrix(12,0,0,12,300.5,798.3)" />
<use xlink:href="#f0_6" transform="matrix(12,0,0,12,318,798.3)" />
<use xlink:href="#f0_7" transform="matrix(12,0,0,12,325.1,798.3)" />
<use xlink:href="#f0_a" transform="matrix(12,0,0,12,336.8,798.3)" />
<use xlink:href="#f0_9" transform="matrix(12,0,0,12,353.9,798.3)" />
<use xlink:href="#f0_c" transform="matrix(12,0,0,12,363.5,798.3)" />
<use xlink:href="#f0_u" transform="matrix(12,0,0,12,368.5,798.3)" />
<use xlink:href="#f0_k" transform="matrix(12,0,0,12,386.4,798.3)" />
<use xlink:href="#f0_o" transform="matrix(12,0,0,12,398,798.3)" />
<use xlink:href="#f0_8" transform="matrix(12,0,0,12,403,798.3)" />
<use xlink:href="#f0_6" transform="matrix(12,0,0,12,414.3,798.3)" />
<use xlink:href="#f0_d" transform="matrix(12,0,0,12,421.5,798.3)" />
<use xlink:href="#f0_g" transform="matrix(12,0,0,12,432.6,798.3)" />
<use xlink:href="#f0_c" transform="matrix(12,0,0,12,446.1,798.3)" />
<use xlink:href="#f0_e" transform="matrix(12,0,0,12,451.1,798.3)" />
<use xlink:href="#f0_v" transform="matrix(12,0,0,12,468.7,798.3)" />
<use xlink:href="#f0_1o" transform="matrix(12,0,0,12,480.3,798.3)" />
<use xlink:href="#f0_1o" transform="matrix(12,0,0,12,491.9,798.3)" />
<use xlink:href="#f0_28" transform="matrix(12,0,0,12,503.5,798.3)" />
<use xlink:href="#f0_9" transform="matrix(12,0,0,12,526.8,798.3)" />
<use xlink:href="#f0_b" transform="matrix(12,0,0,12,536.3,798.3)" />
<use xlink:href="#f0_8" transform="matrix(12,0,0,12,546.4,798.3)" />
<use xlink:href="#f0_o" transform="matrix(12,0,0,12,557.7,798.3)" />
<use xlink:href="#f0_a" transform="matrix(12,0,0,12,562.7,798.3)" />
<use xlink:href="#f0_u" transform="matrix(12,0,0,12,579.8,798.3)" />
<use xlink:href="#f0_d" transform="matrix(12,0,0,12,597.7,798.3)" />
<use xlink:href="#f0_f" transform="matrix(12,0,0,12,608.8,798.3)" />
<use xlink:href="#f0_a" transform="matrix(12,0,0,12,620.4,798.3)" />
<use xlink:href="#f0_8" transform="matrix(12,0,0,12,637.7,798.3)" />
<use xlink:href="#f0_e" transform="matrix(12,0,0,12,648.8,798.3)" />
<use xlink:href="#f0_f" transform="matrix(12,0,0,12,660.4,798.3)" />
<use xlink:href="#f0_k" transform="matrix(12,0,0,12,677.8,798.3)" />
<use xlink:href="#f0_9" transform="matrix(12,0,0,12,689.4,798.3)" />
<use xlink:href="#f0_a" transform="matrix(12,0,0,12,699,798.3)" />
<use xlink:href="#f0_6" transform="matrix(12,0,0,12,716.1,798.3)" />
<use xlink:href="#f0_7" transform="matrix(12,0,0,12,723.3,798.3)" />
<use xlink:href="#f0_a" transform="matrix(12,0,0,12,734.9,798.3)" />
</g>
</g>
<path fill-rule="evenodd" d="M86.6,831.3h481V809.9H86.6v21.4Z" class="g0_34" />
<g clip-path="url(#c0_34)">
<g fill="#000000" >
<use xlink:href="#f0_h" transform="matrix(12,0,0,12,86.8,826.8)" />
<use xlink:href="#f0_d" transform="matrix(12,0,0,12,93.2,826.8)" />
<use xlink:href="#f0_o" transform="matrix(12,0,0,12,104.5,826.8)" />
<use xlink:href="#f0_o" transform="matrix(12,0,0,12,109.5,826.8)" />
<use xlink:href="#f0_d" transform="matrix(12,0,0,12,114.7,826.8)" />
<use xlink:href="#f0_n" transform="matrix(12,0,0,12,125.8,826.8)" />
<use xlink:href="#f0_c" transform="matrix(12,0,0,12,140.8,826.8)" />
<use xlink:href="#f0_e" transform="matrix(12,0,0,12,145.9,826.8)" />
<use xlink:href="#f0_q" transform="matrix(12,0,0,12,157.5,826.8)" />
<use xlink:href="#f0_9" transform="matrix(12,0,0,12,175,826.8)" />
<use xlink:href="#f0_c" transform="matrix(12,0,0,12,184.6,826.8)" />
<use xlink:href="#f0_u" transform="matrix(12,0,0,12,189.7,826.8)" />
<use xlink:href="#f0_k" transform="matrix(12,0,0,12,207.5,826.8)" />
<use xlink:href="#f0_o" transform="matrix(12,0,0,12,219.1,826.8)" />
<use xlink:href="#f0_8" transform="matrix(12,0,0,12,224.2,826.8)" />
<use xlink:href="#f0_6" transform="matrix(12,0,0,12,235.5,826.8)" />
<use xlink:href="#f0_d" transform="matrix(12,0,0,12,242.7,826.8)" />
<use xlink:href="#f0_g" transform="matrix(12,0,0,12,253.8,826.8)" />
<use xlink:href="#f0_9" transform="matrix(12,0,0,12,261.3,826.8)" />
<use xlink:href="#f0_h" transform="matrix(12,0,0,12,276.7,826.8)" />
<use xlink:href="#f0_d" transform="matrix(12,0,0,12,283.1,826.8)" />
<use xlink:href="#f0_g" transform="matrix(12,0,0,12,294.4,826.8)" />
<use xlink:href="#f0_6" transform="matrix(12,0,0,12,307.7,826.8)" />
<use xlink:href="#f0_7" transform="matrix(12,0,0,12,314.9,826.8)" />
<use xlink:href="#f0_a" transform="matrix(12,0,0,12,326.5,826.8)" />
<use xlink:href="#f0_s" transform="matrix(12,0,0,12,343.6,826.8)" />
<use xlink:href="#f0_g" transform="matrix(12,0,0,12,355.4,826.8)" />
<use xlink:href="#f0_d" transform="matrix(12,0,0,12,362.4,826.8)" />
<use xlink:href="#f0_s" transform="matrix(12,0,0,12,373.5,826.8)" />
<use xlink:href="#f0_a" transform="matrix(12,0,0,12,385.1,826.8)" />
<use xlink:href="#f0_g" transform="matrix(12,0,0,12,396.6,826.8)" />
<use xlink:href="#f0_9" transform="matrix(12,0,0,12,409.9,826.8)" />
<use xlink:href="#f0_b" transform="matrix(12,0,0,12,419.5,826.8)" />
<use xlink:href="#f0_g" transform="matrix(12,0,0,12,429.5,826.8)" />
<use xlink:href="#f0_a" transform="matrix(12,0,0,12,436.6,826.8)" />
<use xlink:href="#f0_a" transform="matrix(12,0,0,12,447.9,826.8)" />
<use xlink:href="#f0_e" transform="matrix(12,0,0,12,459.1,826.8)" />
<use xlink:href="#f0_9" transform="matrix(12,0,0,12,470.8,826.8)" />
<use xlink:href="#f0_7" transform="matrix(12,0,0,12,480.4,826.8)" />
<use xlink:href="#f0_d" transform="matrix(12,0,0,12,492,826.8)" />
<use xlink:href="#f0_6" transform="matrix(12,0,0,12,503.1,826.8)" />
<use xlink:href="#f0_9" transform="matrix(12,0,0,12,516.1,826.8)" />
<use xlink:href="#f0_c" transform="matrix(12,0,0,12,525.7,826.8)" />
<use xlink:href="#f0_22" transform="matrix(12,0,0,12,530.8,826.8)" />
<use xlink:href="#f0_a" transform="matrix(12,0,0,12,540.4,826.8)" />
<use xlink:href="#f0_9" transform="matrix(12,0,0,12,551.7,826.8)" />
<use xlink:href="#f0_1e" transform="matrix(12,0,0,12,561.3,826.8)" />
<use xlink:href="#f2_2" transform="matrix(12,0,0,12,99.6,855.6)" />
</g>
</g>
<path fill-rule="evenodd" d="M121,859.8H337V838.4H121v21.4Z" class="g0_34" />
<g clip-path="url(#c0_34)">
<g fill="#000000" >
<use xlink:href="#f0_1m" transform="matrix(12,0,0,12,121.2,855.6)" />
<use xlink:href="#f0_l" transform="matrix(12,0,0,12,132.8,855.6)" />
<use xlink:href="#f0_11" transform="matrix(12,0,0,12,138.7,855.6)" />
<use xlink:href="#f0_j" transform="matrix(12,0,0,12,150.3,855.6)" />
<use xlink:href="#f0_c" transform="matrix(12,0,0,12,156.9,855.6)" />
<use xlink:href="#f0_e" transform="matrix(12,0,0,12,161.9,855.6)" />
<use xlink:href="#f0_b" transform="matrix(12,0,0,12,173.5,855.6)" />
<use xlink:href="#f0_7" transform="matrix(12,0,0,12,183.6,855.6)" />
<use xlink:href="#f0_c" transform="matrix(12,0,0,12,201.1,855.6)" />
<use xlink:href="#f0_9" transform="matrix(12,0,0,12,206.2,855.6)" />
<use xlink:href="#f0_25" transform="matrix(12,0,0,12,221.6,855.6)" />
<use xlink:href="#f0_18" transform="matrix(12,0,0,12,233.2,855.6)" />
<use xlink:href="#f0_9" transform="matrix(12,0,0,12,250.8,855.6)" />
<use xlink:href="#f0_c" transform="matrix(12,0,0,12,260.4,855.6)" />
<use xlink:href="#f0_u" transform="matrix(12,0,0,12,265.4,855.6)" />
<use xlink:href="#f0_k" transform="matrix(12,0,0,12,283.3,855.6)" />
<use xlink:href="#f0_o" transform="matrix(12,0,0,12,294.9,855.6)" />
<use xlink:href="#f0_8" transform="matrix(12,0,0,12,299.8,855.6)" />
<use xlink:href="#f0_6" transform="matrix(12,0,0,12,311.1,855.6)" />
<use xlink:href="#f0_d" transform="matrix(12,0,0,12,318.3,855.6)" />
<use xlink:href="#f0_g" transform="matrix(12,0,0,12,329.5,855.6)" />
<use xlink:href="#f2_2" transform="matrix(12,0,0,12,99.6,884.1)" />
</g>
</g>
<path fill-rule="evenodd" d="M121,888.6H327.9V867.2H121v21.4Z" class="g0_34" />
<g clip-path="url(#c0_34)">
<g fill="#000000" >
<use xlink:href="#f0_24" transform="matrix(12,0,0,12,121.2,884.1)" />
<use xlink:href="#f0_l" transform="matrix(12,0,0,12,132.8,884.1)" />
<use xlink:href="#f0_24" transform="matrix(12,0,0,12,138.7,884.1)" />
<use xlink:href="#f0_j" transform="matrix(12,0,0,12,150.3,884.1)" />
<use xlink:href="#f0_c" transform="matrix(12,0,0,12,156.9,884.1)" />
<use xlink:href="#f0_e" transform="matrix(12,0,0,12,161.9,884.1)" />
<use xlink:href="#f0_b" transform="matrix(12,0,0,12,173.5,884.1)" />
<use xlink:href="#f0_7" transform="matrix(12,0,0,12,183.6,884.1)" />
<use xlink:href="#f0_c" transform="matrix(12,0,0,12,201.1,884.1)" />
<use xlink:href="#f0_9" transform="matrix(12,0,0,12,206.2,884.1)" />
<use xlink:href="#f0_c" transform="matrix(12,0,0,12,221.6,884.1)" />
<use xlink:href="#f0_1g" transform="matrix(12,0,0,12,226.6,884.1)" />
<use xlink:href="#f0_7" transform="matrix(12,0,0,12,237.6,884.1)" />
<use xlink:href="#f0_d" transform="matrix(12,0,0,12,249.4,884.1)" />
<use xlink:href="#f0_e" transform="matrix(12,0,0,12,260.5,884.1)" />
<use xlink:href="#f0_a" transform="matrix(12,0,0,12,272.1,884.1)" />
<use xlink:href="#f0_25" transform="matrix(12,0,0,12,289.3,884.1)" />
<use xlink:href="#f0_18" transform="matrix(12,0,0,12,300.9,884.1)" />
<use xlink:href="#f0_29" transform="matrix(12,0,0,12,312.5,884.1)" />
<use xlink:href="#f2_2" transform="matrix(12,0,0,12,99.6,912.8)" />
</g>
</g>
<path fill-rule="evenodd" d="M121,917.1H283.4V895.7H121v21.4Z" class="g0_34" />
<g clip-path="url(#c0_34)">
<g fill="#000000" >
<use xlink:href="#f0_1m" transform="matrix(12,0,0,12,121.2,912.8)" />
<use xlink:href="#f0_j" transform="matrix(12,0,0,12,132.8,912.8)" />
<use xlink:href="#f0_c" transform="matrix(12,0,0,12,139.5,912.8)" />
<use xlink:href="#f0_e" transform="matrix(12,0,0,12,144.5,912.8)" />
<use xlink:href="#f0_b" transform="matrix(12,0,0,12,156.1,912.8)" />
<use xlink:href="#f0_7" transform="matrix(12,0,0,12,166.2,912.8)" />
<use xlink:href="#f0_c" transform="matrix(12,0,0,12,183.7,912.8)" />
<use xlink:href="#f0_9" transform="matrix(12,0,0,12,188.6,912.8)" />
<use xlink:href="#f0_c" transform="matrix(12,0,0,12,204.2,912.8)" />
<use xlink:href="#f0_1g" transform="matrix(12,0,0,12,209.2,912.8)" />
<use xlink:href="#f0_7" transform="matrix(12,0,0,12,220.2,912.8)" />
<use xlink:href="#f0_d" transform="matrix(12,0,0,12,231.8,912.8)" />
<use xlink:href="#f0_e" transform="matrix(12,0,0,12,243,912.8)" />
<use xlink:href="#f0_a" transform="matrix(12,0,0,12,254.6,912.8)" />
<use xlink:href="#f0_24" transform="matrix(12,0,0,12,271.8,912.8)" />
<use xlink:href="#f2_2" transform="matrix(12,0,0,12,99.6,941.4)" />
</g>
</g>
<path fill-rule="evenodd" d="M121,945.8H312.6V924.5H121v21.3Z" class="g0_34" />
<g clip-path="url(#c0_34)">
<g fill="#000000" >
<use xlink:href="#f0_12" transform="matrix(12,0,0,12,121.2,941.4)" />
<use xlink:href="#f0_l" transform="matrix(12,0,0,12,132.8,941.4)" />
<use xlink:href="#f0_24" transform="matrix(12,0,0,12,138.7,941.4)" />
<use xlink:href="#f0_j" transform="matrix(12,0,0,12,150.3,941.4)" />
<use xlink:href="#f0_c" transform="matrix(12,0,0,12,156.9,941.4)" />
<use xlink:href="#f0_e" transform="matrix(12,0,0,12,161.9,941.4)" />
<use xlink:href="#f0_b" transform="matrix(12,0,0,12,173.5,941.4)" />
<use xlink:href="#f0_7" transform="matrix(12,0,0,12,183.6,941.4)" />
<use xlink:href="#f0_c" transform="matrix(12,0,0,12,201.1,941.4)" />
<use xlink:href="#f0_9" transform="matrix(12,0,0,12,206.2,941.4)" />
<use xlink:href="#f0_c" transform="matrix(12,0,0,12,221.6,941.4)" />
<use xlink:href="#f0_1g" transform="matrix(12,0,0,12,226.6,941.4)" />
<use xlink:href="#f0_7" transform="matrix(12,0,0,12,237.6,941.4)" />
<use xlink:href="#f0_d" transform="matrix(12,0,0,12,249.4,941.4)" />
<use xlink:href="#f0_e" transform="matrix(12,0,0,12,260.5,941.4)" />
<use xlink:href="#f0_a" transform="matrix(12,0,0,12,272.1,941.4)" />
<use xlink:href="#f0_1m" transform="matrix(12,0,0,12,289.3,941.4)" />
<use xlink:href="#f0_18" transform="matrix(12,0,0,12,300.9,941.4)" />
<use xlink:href="#f2_2" transform="matrix(12,0,0,12,99.6,970.1)" />
</g>
</g>
<path fill-rule="evenodd" d="M121,974.4H235.4V953H121v21.4Z" class="g0_34" />
<g clip-path="url(#c0_34)">
<g fill="#000000" >
<use xlink:href="#f0_c" transform="matrix(12,0,0,12,121.2,970.1)" />
<use xlink:href="#f0_1g" transform="matrix(12,0,0,12,126.2,970.1)" />
<use xlink:href="#f0_8" transform="matrix(12,0,0,12,136.4,970.1)" />
<use xlink:href="#f0_f" transform="matrix(12,0,0,12,147.7,970.1)" />
<use xlink:href="#f0_c" transform="matrix(12,0,0,12,165.1,970.1)" />
<use xlink:href="#f0_9" transform="matrix(12,0,0,12,170.2,970.1)" />
<use xlink:href="#f0_c" transform="matrix(12,0,0,12,185.6,970.1)" />
<use xlink:href="#f0_1g" transform="matrix(12,0,0,12,190.6,970.1)" />
<use xlink:href="#f0_8" transform="matrix(12,0,0,12,200.9,970.1)" />
<use xlink:href="#f0_f" transform="matrix(12,0,0,12,212.2,970.1)" />
<use xlink:href="#f0_1l" transform="matrix(12,0,0,12,223.8,970.1)" />
<use xlink:href="#f2_2" transform="matrix(12,0,0,12,99.6,998.7)" />
</g>
</g>
<path fill-rule="evenodd" d="M121,1003.1H293.5V981.8H121v21.3Z" class="g0_34" />
<g clip-path="url(#c0_34)">
<g fill="#000000" >
<use xlink:href="#f0_c" transform="matrix(12,0,0,12,121.2,998.7)" />
<use xlink:href="#f0_1g" transform="matrix(12,0,0,12,126.2,998.7)" />
<use xlink:href="#f0_8" transform="matrix(12,0,0,12,136.4,998.7)" />
<use xlink:href="#f0_f" transform="matrix(12,0,0,12,147.7,998.7)" />
<use xlink:href="#f0_1g" transform="matrix(12,0,0,12,165.1,998.7)" />
<use xlink:href="#f0_g" transform="matrix(12,0,0,12,176,998.7)" />
<use xlink:href="#f0_d" transform="matrix(12,0,0,12,183,998.7)" />
<use xlink:href="#f0_c" transform="matrix(12,0,0,12,200.1,998.7)" />
<use xlink:href="#f0_9" transform="matrix(12,0,0,12,205.2,998.7)" />
<use xlink:href="#f0_c" transform="matrix(12,0,0,12,220.6,998.7)" />
<use xlink:href="#f0_1g" transform="matrix(12,0,0,12,225.6,998.7)" />
<use xlink:href="#f0_8" transform="matrix(12,0,0,12,235.8,998.7)" />
<use xlink:href="#f0_f" transform="matrix(12,0,0,12,247.1,998.7)" />
<use xlink:href="#f0_1g" transform="matrix(12,0,0,12,264.6,998.7)" />
<use xlink:href="#f0_g" transform="matrix(12,0,0,12,275.2,998.7)" />
<use xlink:href="#f0_d" transform="matrix(12,0,0,12,282.4,998.7)" />
<use xlink:href="#f0_1f" transform="matrix(12,0,0,12,86.8,1027.4)" />
<use xlink:href="#f0_o" transform="matrix(12,0,0,12,99.6,1027.4)" />
<use xlink:href="#f0_c" transform="matrix(12,0,0,12,104.6,1027.4)" />
<use xlink:href="#f0_b" transform="matrix(12,0,0,12,109.7,1027.4)" />
<use xlink:href="#f0_i" transform="matrix(12,0,0,12,119.7,1027.4)" />
</g>
<g fill="#0000FF" >
<use xlink:href="#f3_9" transform="matrix(12,0,0,12,136.3,1027.4)" />
<use xlink:href="#f3_a" transform="matrix(12,0,0,12,149.4,1027.4)" />
<use xlink:href="#f3_x" transform="matrix(12,0,0,12,161.8,1027.4)" />
<use xlink:href="#f3_3" transform="matrix(12,0,0,12,173.8,1027.4)" />
</g>
<g fill="#000000" >
<use xlink:href="#f0_n" transform="matrix(12,0,0,12,192.7,1027.4)" />
<use xlink:href="#f0_7" transform="matrix(12,0,0,12,207.6,1027.4)" />
<use xlink:href="#f0_a" transform="matrix(12,0,0,12,219.2,1027.4)" />
<use xlink:href="#f0_e" transform="matrix(12,0,0,12,230.5,1027.4)" />
<use xlink:href="#f0_p" transform="matrix(12,0,0,12,248.1,1027.4)" />
<use xlink:href="#f0_d" transform="matrix(12,0,0,12,258.9,1027.4)" />
<use xlink:href="#f0_k" transform="matrix(12,0,0,12,270.1,1027.4)" />
<use xlink:href="#f0_r" transform="matrix(12,0,0,12,281.7,1027.4)" />
<use xlink:href="#f0_t" transform="matrix(12,0,0,12,287.5,1027.4)" />
<use xlink:href="#f0_a" transform="matrix(12,0,0,12,298.3,1027.4)" />
<use xlink:href="#f0_8" transform="matrix(12,0,0,12,315.4,1027.4)" />
<use xlink:href="#f0_f" transform="matrix(12,0,0,12,326.7,1027.4)" />
<use xlink:href="#f0_f" transform="matrix(12,0,0,12,338.3,1027.4)" />
<use xlink:href="#f0_a" transform="matrix(12,0,0,12,349.9,1027.4)" />
<use xlink:href="#f0_f" transform="matrix(12,0,0,12,361.2,1027.4)" />
<use xlink:href="#f0_8" transform="matrix(12,0,0,12,378.6,1027.4)" />
<use xlink:href="#f0_o" transform="matrix(12,0,0,12,389.9,1027.4)" />
<use xlink:href="#f0_o" transform="matrix(12,0,0,12,395,1027.4)" />
<use xlink:href="#f0_6" transform="matrix(12,0,0,12,405.9,1027.4)" />
<use xlink:href="#f0_7" transform="matrix(12,0,0,12,413.1,1027.4)" />
<use xlink:href="#f0_a" transform="matrix(12,0,0,12,424.7,1027.4)" />
<use xlink:href="#f0_9" transform="matrix(12,0,0,12,441.8,1027.4)" />
<use xlink:href="#f0_b" transform="matrix(12,0,0,12,451.3,1027.4)" />
<use xlink:href="#f0_g" transform="matrix(12,0,0,12,461.4,1027.4)" />
<use xlink:href="#f0_a" transform="matrix(12,0,0,12,468.4,1027.4)" />
<use xlink:href="#f0_a" transform="matrix(12,0,0,12,479.7,1027.4)" />
<use xlink:href="#f0_e" transform="matrix(12,0,0,12,491,1027.4)" />
<use xlink:href="#f0_9" transform="matrix(12,0,0,12,502.6,1027.4)" />
<use xlink:href="#f0_7" transform="matrix(12,0,0,12,512.2,1027.4)" />
<use xlink:href="#f0_d" transform="matrix(12,0,0,12,523.8,1027.4)" />
<use xlink:href="#f0_6" transform="matrix(12,0,0,12,535,1027.4)" />
<use xlink:href="#f0_9" transform="matrix(12,0,0,12,542.1,1027.4)" />
<use xlink:href="#f0_p" transform="matrix(12,0,0,12,557.6,1027.4)" />
<use xlink:href="#f0_d" transform="matrix(12,0,0,12,568.4,1027.4)" />
<use xlink:href="#f0_k" transform="matrix(12,0,0,12,579.5,1027.4)" />
<use xlink:href="#f0_e" transform="matrix(12,0,0,12,597.1,1027.4)" />
<use xlink:href="#f0_a" transform="matrix(12,0,0,12,608.7,1027.4)" />
<use xlink:href="#f0_a" transform="matrix(12,0,0,12,620,1027.4)" />
<use xlink:href="#f0_f" transform="matrix(12,0,0,12,631.3,1027.4)" />
<use xlink:href="#f0_l" transform="matrix(12,0,0,12,642.9,1027.4)" />
</g>
</g>
<image preserveAspectRatio="none" x="87" y="87" width="736" height="494" xlink:href="img/1.png" />
<defs>
<path d="M391,0V987H-3v127H938V987H543V0Z" 
id="f0_w"
transform="scale(0.001,-0.001)" />

<path d="M139,0V1161H277V706c0,0,49,75,116,112c0,0,67,38,154,38c0,0,144,0,218,-90c0,0,74,-89,74,-262V0H702V500c0,0,0,119,-46,177c0,0,-47,59,-139,59c0,0,-112,0,-176,-71c0,0,-64,-70,-64,-193V0Z" 
id="f0_7"
transform="scale(0.001,-0.001)" />

<path d="M144,0V836H281V0Zm0,987v174H281V987Z" 
id="f0_c"
transform="scale(0.001,-0.001)" />

<path d="M376,-20c0,0,-67,0,-140,12C236,-8,164,4,83,30V172c0,0,76,-40,150,-59c0,0,74,-20,146,-20c0,0,97,0,150,33c0,0,52,33,52,94c0,0,0,56,-38,85c0,0,-38,30,-165,58l-48,11c0,0,-128,27,-184,83c0,0,-57,55,-57,152c0,0,0,118,83,182c0,0,84,65,238,65c0,0,76,0,143,-12c0,0,67,-11,124,-33V681c0,0,-58,29,-121,44c0,0,-63,15,-130,15c0,0,-102,0,-153,-31c0,0,-51,-31,-51,-94c0,0,0,-48,37,-75c0,0,36,-27,147,-52l46,-10c0,0,147,-32,208,-89c0,0,62,-57,62,-159c0,0,0,-116,-93,-184c0,0,-92,-66,-253,-66Z" 
id="f0_9"
transform="scale(0.001,-0.001)" />

<path d="M231,492l491,1c0,0,-2,112,-64,179c0,0,-61,67,-163,67c0,0,-115,0,-184,-65c0,0,-69,-64,-80,-182ZM517,-20c0,0,-199,0,-316,115C201,95,84,211,84,410c0,0,0,205,111,325c0,0,111,121,299,121c0,0,168,0,266,-109c0,0,98,-108,98,-295V385H227c0,0,9,-142,85,-216c0,0,77,-74,213,-74c0,0,80,0,154,19c0,0,74,19,147,58V42C826,42,752,11,675,-4c0,0,-78,-16,-158,-16Z" 
id="f0_a"
transform="scale(0.001,-0.001)" />

<path d="M495,-20c0,0,-189,0,-300,117C195,97,84,216,84,417c0,0,0,204,112,321c0,0,113,118,308,118c0,0,64,0,124,-14c0,0,60,-13,117,-39V675c0,0,-58,32,-117,48c0,0,-58,16,-118,16c0,0,-133,0,-207,-84c0,0,-74,-85,-74,-238c0,0,0,-153,74,-238c0,0,74,-84,207,-84c0,0,60,0,118,16c0,0,59,16,117,48V32C745,32,688,5,626,-7c0,0,-61,-13,-131,-13Z" 
id="f0_b"
transform="scale(0.001,-0.001)" />

<path d="M421,0C421,0,263,0,202,59c0,0,-60,60,-60,217V729H41V836H142v238H280V836H562V729H280V276c0,0,0,-102,28,-132c0,0,28,-29,113,-29H562V0Z" 
id="f0_6"
transform="scale(0.001,-0.001)" />

<path d="M467,95c0,0,110,0,174,86c0,0,64,87,64,236c0,0,0,148,-64,235c0,0,-64,87,-174,87c0,0,-110,0,-174,-86c0,0,-64,-86,-64,-236c0,0,0,-150,64,-236c0,0,63,-86,174,-86Zm0,-115c0,0,-179,0,-281,115C186,95,84,212,84,417c0,0,0,206,102,322c0,0,102,117,281,117c0,0,179,0,282,-117c0,0,102,-116,102,-322c0,0,0,-205,-102,-322C749,95,646,-20,467,-20Z" 
id="f0_d"
transform="scale(0.001,-0.001)" />

<path d="M139,0V836H277V706c0,0,49,75,116,112c0,0,67,38,154,38c0,0,144,0,218,-90c0,0,74,-89,74,-262V0H702V500c0,0,0,119,-46,177c0,0,-47,59,-139,59c0,0,-112,0,-176,-71c0,0,-64,-70,-64,-193V0Z" 
id="f0_e"
transform="scale(0.001,-0.001)" />

<path d="M283,0L65,836H202L373,184L544,836H706L878,184l171,652h137L967,0H806L626,685L445,0Z" 
id="f0_n"
transform="scale(0.001,-0.001)" />

<path d="M139,0V836H277V706c0,0,43,76,112,113c0,0,70,37,169,37c0,0,14,0,31,-2c0,0,17,-2,38,-6l1,-141c0,0,-23,14,-51,20c0,0,-27,6,-60,6c0,0,-116,0,-178,-75c0,0,-62,-76,-62,-218V0Z" 
id="f0_g"
transform="scale(0.001,-0.001)" />

<path d="M121,-317v116h81c0,0,57,0,88,26c0,0,31,27,69,127l25,62L46,836H191L453,182L714,836H859L492,-76c0,0,-58,-150,-113,-195c0,0,-55,-46,-148,-46Z" 
id="f0_p"
transform="scale(0.001,-0.001)" />

<path d="M424,-20c0,0,-145,0,-219,88c0,0,-75,89,-75,262V836H267V335c0,0,0,-119,46,-178c0,0,47,-59,139,-59c0,0,112,0,177,71c0,0,64,71,64,193V836H830V0H693V128C693,128,643,52,577,15c0,0,-66,-35,-153,-35Z" 
id="f0_k"
transform="scale(0.001,-0.001)" />

<path d="M408,93c0,0,115,0,184,81c0,0,69,81,69,215v30H524c0,0,-167,0,-231,-38c0,0,-64,-38,-64,-129c0,0,0,-73,48,-116c0,0,48,-43,131,-43ZM372,-20c0,0,-128,0,-204,70c0,0,-76,72,-76,193c0,0,0,141,94,212c0,0,95,72,282,72H661v13c0,0,0,95,-62,147c0,0,-63,52,-175,52c0,0,-72,0,-140,-17c0,0,-68,-17,-130,-51V798c0,0,75,29,146,43c0,0,71,15,138,15c0,0,181,0,270,-95c0,0,90,-94,90,-285V0H661V127C661,127,614,51,544,15c0,0,-70,-35,-172,-35Z" 
id="f0_8"
transform="scale(0.001,-0.001)" />

<path d="M460,93c0,0,109,0,171,86c0,0,63,86,63,238c0,0,0,151,-63,237c0,0,-62,86,-171,86c0,0,-109,0,-172,-86c0,0,-62,-86,-62,-237c0,0,0,-152,62,-238c0,0,63,-86,172,-86ZM426,-20c0,0,-151,0,-247,119c0,0,-95,121,-95,318c0,0,0,197,95,318c0,0,96,121,247,121c0,0,93,0,159,-37c0,0,66,-36,109,-110v452H831V0H694V125C694,125,651,51,585,15c0,0,-66,-35,-159,-35Z" 
id="f0_f"
transform="scale(0.001,-0.001)" />

<path d="M144,0V1161H281V0Z" 
id="f0_o"
transform="scale(0.001,-0.001)" />

<path d="M166,0V729H35V836H166v58c0,0,0,139,65,203c0,0,65,64,206,64H567V1046H435c0,0,-74,0,-102,-29c0,0,-29,-30,-29,-107V836H530V729H304V0Z" 
id="f0_h"
transform="scale(0.001,-0.001)" />

<path d="M510,93c0,0,109,0,171,86c0,0,62,86,62,238c0,0,0,151,-62,237c0,0,-62,86,-171,86c0,0,-109,0,-171,-86c0,0,-62,-86,-62,-237c0,0,0,-152,62,-238c0,0,62,-86,171,-86ZM139,-317V836H277V709c0,0,43,74,109,110c0,0,66,37,158,37c0,0,152,0,247,-121c0,0,95,-121,95,-318c0,0,0,-197,-95,-318C791,99,696,-20,544,-20c0,0,-92,0,-158,35c0,0,-66,36,-109,110V-317Z" 
id="f0_s"
transform="scale(0.001,-0.001)" />

<path d="M727,411L522,965L318,411ZM12,0L437,1114H608L1033,0H876L774,286H272L171,0Z" 
id="f0_1k"
transform="scale(0.001,-0.001)" />

<path d="M458,-20c0,0,-79,0,-168,17c0,0,-89,17,-184,52V204c0,0,91,-51,179,-77c0,0,88,-26,173,-26c0,0,129,0,199,50c0,0,70,51,70,145c0,0,0,82,-50,129c0,0,-50,46,-165,69l-92,18c0,0,-169,34,-244,105c0,0,-75,72,-75,199c0,0,0,148,104,233c0,0,104,85,287,85c0,0,78,0,159,-14c0,0,81,-14,166,-42V931c0,0,-85,41,-161,61c0,0,-76,20,-147,20c0,0,-123,0,-190,-48c0,0,-67,-48,-67,-136c0,0,0,-73,45,-111c0,0,44,-38,168,-61l91,-19c0,0,168,-32,249,-113c0,0,80,-81,80,-216c0,0,0,-162,-109,-246c0,0,-108,-82,-318,-82Z" 
id="f0_18"
transform="scale(0.001,-0.001)" />

<path d="M163,0V190H321V0Z" 
id="f0_l"
transform="scale(0.001,-0.001)" />

<path d="M150,0V1114H790V987H300V659H742V532H300V0Z" 
id="f0_1u"
transform="scale(0.001,-0.001)" />

<path d="M132,763l62,237v114H351V1000L228,763Z" 
id="f0_r"
transform="scale(0.001,-0.001)" />

<path d="M150,0V1114H300V0Z" 
id="f0_19"
transform="scale(0.001,-0.001)" />

<path d="M359,0L46,836H191L453,134L714,836H859L546,0Z" 
id="f0_t"
transform="scale(0.001,-0.001)" />

<path d="M117,-176L179,62V190H336V62L213,-176Z" 
id="f0_4"
transform="scale(0.001,-0.001)" />

<path d="M510,93c0,0,109,0,171,86c0,0,62,86,62,238c0,0,0,151,-62,237c0,0,-62,86,-171,86c0,0,-109,0,-171,-86c0,0,-62,-86,-62,-237c0,0,0,-152,62,-238c0,0,62,-86,171,-86ZM544,-20c0,0,-92,0,-158,35c0,0,-66,36,-109,110V0H139V1161H277V709c0,0,43,74,109,110c0,0,66,37,158,37c0,0,152,0,247,-121c0,0,95,-121,95,-318c0,0,0,-197,-95,-318C791,99,696,-20,544,-20Z" 
id="f0_x"
transform="scale(0.001,-0.001)" />

<path d="M139,0V836H277V706c0,0,47,77,112,113c0,0,66,37,156,37c0,0,91,0,155,-47c0,0,64,-46,94,-134c0,0,52,93,123,137c0,0,72,44,169,44c0,0,130,0,201,-92c0,0,71,-91,71,-260V0H1220V500c0,0,0,120,-42,178c0,0,-43,58,-130,58c0,0,-107,0,-169,-71c0,0,-62,-70,-62,-193V0H680V500c0,0,0,121,-43,179c0,0,-42,57,-131,57c0,0,-105,0,-167,-71c0,0,-62,-71,-62,-193V0Z" 
id="f0_u"
transform="scale(0.001,-0.001)" />

<path d="M489,572c0,0,105,0,163,54c0,0,57,55,57,155c0,0,0,100,-57,154c0,0,-58,55,-163,55H300V572ZM150,0V1114H489c0,0,188,0,283,-85c0,0,96,-85,96,-248c0,0,0,-165,-96,-249c0,0,-95,-84,-283,-84H300V0Z" 
id="f0_1g"
transform="scale(0.001,-0.001)" />

<path d="M330,0L51,1114H203L437,172l234,942H840L1074,172l234,942h153L1181,0H992L757,967L519,0Z" 
id="f0_20"
transform="scale(0.001,-0.001)" />

<path d="M-26,-317v117H9c0,0,78,0,106,36c0,0,29,36,29,150V836H281V-14c0,0,0,-160,-61,-231c0,0,-61,-72,-195,-72ZM144,987v174H281V987Z" 
id="f0_y"
transform="scale(0.001,-0.001)" />

<path d="M460,115c0,0,111,0,173,82c0,0,61,82,61,230c0,0,0,149,-61,231c0,0,-62,82,-173,82c0,0,-111,0,-173,-82c0,0,-61,-82,-61,-231c0,0,0,-148,61,-230c0,0,62,-82,173,-82ZM446,-317c0,0,-72,0,-137,11c0,0,-64,11,-124,33v134c0,0,60,-33,119,-49c0,0,59,-15,121,-15c0,0,135,0,202,70c0,0,67,71,67,212v68C694,147,652,73,585,36C585,36,519,0,426,0C426,0,272,0,178,117c0,0,-94,117,-94,310c0,0,0,194,94,311c0,0,94,118,248,118c0,0,93,0,159,-37c0,0,67,-36,109,-110V836H831V104c0,0,0,-212,-95,-317c0,0,-94,-104,-290,-104Z" 
id="f0_q"
transform="scale(0.001,-0.001)" />

<path d="M357,0V881H17v170H917V881H577V0Z" 
id="f1_1k"
transform="scale(0.001,-0.001)" />

<path d="M107,0V808H316V0Zm0,952v155H316V952Z" 
id="f1_25"
transform="scale(0.001,-0.001)" />

<path d="M484,129c0,0,168,0,168,279c0,0,0,271,-166,271c0,0,-84,0,-128,-73c0,0,-45,-73,-45,-204c0,0,0,-131,45,-202c0,0,44,-71,126,-71ZM107,-316V622c0,0,0,114,-6,186H304c0,0,4,-14,7,-54c0,0,2,-39,2,-78h3c0,0,71,148,258,148c0,0,141,0,219,-108c0,0,78,-109,78,-309c0,0,0,-202,-81,-312C790,95,709,-14,561,-14c0,0,-85,0,-148,36c0,0,-63,37,-97,107h-4c0,0,4,-23,4,-135V-316Z" 
id="f1_2c"
transform="scale(0.001,-0.001)" />

<path d="M426,-14c0,0,-166,0,-255,52C171,38,83,90,54,201l184,28c0,0,16,-57,54,-81c0,0,38,-24,134,-24c0,0,88,0,128,22c0,0,41,23,41,70c0,0,0,39,-33,62c0,0,-32,23,-110,38c0,0,-177,35,-239,65c0,0,-62,31,-95,79c0,0,-32,48,-32,118c0,0,0,115,89,180c0,0,89,64,252,64c0,0,144,0,232,-56c0,0,88,-56,109,-162L583,585c0,0,-9,49,-44,74c0,0,-35,24,-112,24c0,0,-74,0,-111,-19c0,0,-38,-19,-38,-64c0,0,0,-35,29,-55c0,0,29,-21,97,-34c0,0,94,-20,168,-40c0,0,73,-21,118,-49c0,0,44,-28,71,-73c0,0,26,-44,26,-113c0,0,0,-117,-96,-184c0,0,-96,-66,-265,-66Z" 
id="f1_2f"
transform="scale(0.001,-0.001)" />

<path d="M147,0V209H362V0Zm0,562V771H362V562Z" 
id="f1_u"
transform="scale(0.001,-0.001)" />

<path d="M391,0V530L-2,1114H159L468,656l307,458H937L543,530V0Z" 
id="f0_1r"
transform="scale(0.001,-0.001)" />

<path d="M139,0V1161H277V475L686,836H861L418,445L880,0H701L277,408V0Z" 
id="f0_i"
transform="scale(0.001,-0.001)" />

<path d="M419,111c0,0,51,0,88,37c0,0,36,36,36,87V360H419c0,0,-51,0,-88,-37c0,0,-36,-37,-36,-87c0,0,0,-52,36,-88c0,0,37,-37,88,-37Zm690,0c0,0,52,0,88,37c0,0,36,36,36,88c0,0,0,50,-36,87c0,0,-37,37,-88,37H985V235c0,0,0,-51,36,-87c0,0,37,-37,88,-37ZM874,470V691H653V470ZM543,801V926c0,0,0,51,-36,87c0,0,-37,37,-88,37c0,0,-51,0,-88,-37c0,0,-36,-36,-36,-87c0,0,0,-52,36,-88c0,0,37,-37,88,-37Zm566,0c0,0,51,0,88,37c0,0,36,36,36,88c0,0,0,51,-36,87c0,0,-36,37,-88,37c0,0,-51,0,-88,-37c0,0,-36,-36,-36,-87V801ZM419,1c0,0,-97,0,-166,68c0,0,-69,69,-69,167c0,0,0,95,69,165c0,0,69,69,163,69H543V691H416c0,0,-94,0,-163,69c0,0,-69,70,-69,166c0,0,0,97,69,165c0,0,69,69,165,69c0,0,97,0,166,-68c0,0,69,-69,69,-164V801H874V928c0,0,0,95,69,164c0,0,69,68,166,68c0,0,98,0,166,-69c0,0,69,-68,69,-165c0,0,0,-96,-69,-166c0,0,-68,-69,-163,-69H985V470h127c0,0,95,0,163,-69c0,0,69,-70,69,-165c0,0,0,-98,-69,-167c0,0,-68,-68,-166,-68c0,0,-97,0,-166,68c0,0,-69,68,-69,164V360H653V233c0,0,0,-96,-69,-164C584,69,515,1,419,1Z" 
id="f0_17"
transform="scale(0.001,-0.001)" />

<path d="M509,-14c0,0,-202,0,-317,71C192,57,77,129,44,274l213,35c0,0,21,-83,84,-121c0,0,63,-37,174,-37c0,0,230,0,230,139c0,0,0,45,-26,74c0,0,-27,29,-75,49c0,0,-48,19,-184,47c0,0,-118,27,-165,44c0,0,-46,17,-83,40c0,0,-37,22,-64,54c0,0,-26,32,-40,76c0,0,-15,43,-15,99c0,0,0,142,107,218c0,0,107,76,312,76c0,0,195,0,293,-61c0,0,98,-62,127,-203L718,774c0,0,-16,68,-66,103c0,0,-51,34,-145,34c0,0,-200,0,-200,-125c0,0,0,-41,22,-68c0,0,21,-26,63,-44c0,0,41,-18,169,-46c0,0,151,-32,217,-59c0,0,65,-27,103,-63c0,0,38,-37,58,-87c0,0,20,-50,20,-116c0,0,0,-154,-114,-236c0,0,-115,-81,-336,-81Z" 
id="f1_1j"
transform="scale(0.001,-0.001)" />

<path d="M489,595c0,0,109,0,164,50c0,0,56,50,56,148c0,0,0,97,-56,147c0,0,-55,50,-164,50H300V595ZM150,0V1114H489c0,0,191,0,285,-80c0,0,94,-80,94,-241c0,0,0,-105,-49,-175c0,0,-49,-69,-142,-96c0,0,48,-16,94,-70c0,0,46,-54,93,-148L1017,0H855L712,285c0,0,-55,112,-107,149c0,0,-52,36,-141,36H300V0Z" 
id="f0_1i"
transform="scale(0.001,-0.001)" />

<path d="M190,0V127H436V977L168,923v137l267,54H586V127H832V0Z" 
id="f0_v"
transform="scale(0.001,-0.001)" />

<path d="M486,98c0,0,117,0,175,114c0,0,59,115,59,344c0,0,0,230,-59,344c0,0,-58,115,-175,115c0,0,-117,0,-175,-115c0,0,-59,-114,-59,-344c0,0,0,-229,59,-344c0,0,58,-114,175,-114ZM485,-20c0,0,-187,0,-285,147c0,0,-99,148,-99,429c0,0,0,282,98,430c0,0,99,148,286,148c0,0,188,0,286,-148c0,0,99,-148,99,-430c0,0,0,-281,-99,-429c0,0,-98,-147,-286,-147Z" 
id="f0_1o"
transform="scale(0.001,-0.001)" />

<path d="M1111,73c0,0,63,0,100,56c0,0,37,55,37,152c0,0,0,98,-37,153c0,0,-37,56,-100,56c0,0,-65,0,-102,-55c0,0,-37,-55,-37,-154c0,0,0,-97,37,-152c0,0,37,-56,102,-56Zm0,-93c0,0,-120,0,-189,80c0,0,-69,82,-69,221c0,0,0,140,69,222c0,0,70,82,189,82c0,0,117,0,187,-82c0,0,69,-82,69,-222c0,0,0,-139,-70,-221c0,0,-69,-80,-186,-80ZM340,623c0,0,65,0,102,55c0,0,37,55,37,153c0,0,0,97,-37,152c0,0,-37,56,-102,56c0,0,-64,0,-101,-55c0,0,-37,-56,-37,-153c0,0,0,-98,37,-153c0,0,36,-55,101,-55Zm0,-95c0,0,-118,0,-187,82c0,0,-69,81,-69,221c0,0,0,139,69,221c0,0,70,82,187,82c0,0,118,0,188,-81c0,0,70,-82,70,-222c0,0,0,-140,-69,-222c0,0,-70,-81,-189,-81ZM317,-20l697,1154h120L437,-20Z" 
id="f0_28"
transform="scale(0.001,-0.001)" />

<path d="M66,0V125L582,727H84V836H736V711L220,110H736V0Z" 
id="f0_22"
transform="scale(0.001,-0.001)" />

<path d="M179,0V190H336V0Zm0,600V790H336V600Z" 
id="f0_1e"
transform="scale(0.001,-0.001)" />

<path d="M257,341c0,0,-82,0,-142,58c0,0,-60,58,-60,141c0,0,0,82,60,140c0,0,60,58,142,58c0,0,82,0,138,-59c0,0,58,-57,58,-139c0,0,0,-84,-57,-141c0,0,-56,-58,-139,-58Z" 
id="f2_2"
transform="scale(0.001,-0.001)" />

<path d="M578,388V982L197,388ZM578,0V263H74V408l464,706H727V388H887V263H727V0Z" 
id="f0_1m"
transform="scale(0.001,-0.001)" />

<path d="M280,0L660,987H125v127H841v-64L437,0Z" 
id="f0_11"
transform="scale(0.001,-0.001)" />

<path d="M74,357V479H476V357Z" 
id="f0_j"
transform="scale(0.001,-0.001)" />

<path d="M505,98c0,0,101,0,160,70c0,0,60,69,60,189c0,0,0,121,-60,191c0,0,-59,69,-160,69c0,0,-102,0,-161,-69c0,0,-59,-70,-59,-191c0,0,0,-120,59,-189c0,0,59,-70,161,-70ZM504,-20c0,0,-193,0,-295,147c0,0,-102,148,-102,429c0,0,0,264,125,421c0,0,125,157,337,157c0,0,56,0,114,-11c0,0,58,-11,121,-34V952c0,0,-57,27,-115,41c0,0,-58,14,-115,14c0,0,-149,0,-228,-101c0,0,-79,-100,-90,-304c0,0,44,65,111,100c0,0,66,34,146,34c0,0,168,0,266,-102c0,0,97,-101,97,-277c0,0,0,-171,-101,-275C775,82,673,-20,504,-20Z" 
id="f0_25"
transform="scale(0.001,-0.001)" />

<path d="M411,-20c0,0,-70,0,-142,11c0,0,-73,11,-151,35V178c0,0,67,-37,139,-54c0,0,72,-18,152,-18c0,0,129,0,204,67c0,0,75,68,75,184c0,0,0,117,-75,184c0,0,-75,68,-204,68c0,0,-61,0,-121,-13c0,0,-60,-13,-123,-42v560H757V987H303V714c0,0,33,11,66,17c0,0,33,5,65,5c0,0,187,0,296,-102c0,0,109,-102,109,-277c0,0,0,-179,-112,-279c0,0,-112,-98,-316,-98Z" 
id="f0_24"
transform="scale(0.001,-0.001)" />

<path d="M578,0V416H162V543H578V958H703V543h416V416H703V0Z" 
id="f0_29"
transform="scale(0.001,-0.001)" />

<path d="M414,-20c0,0,-70,0,-144,13c0,0,-75,13,-154,40V179c0,0,63,-36,138,-55c0,0,74,-18,156,-18c0,0,142,0,216,55c0,0,74,56,74,163c0,0,0,98,-69,153c0,0,-69,56,-192,56H309V657H445c0,0,111,0,170,44c0,0,59,45,59,128c0,0,0,86,-61,132c0,0,-61,46,-174,46c0,0,-62,0,-133,-13c0,0,-71,-14,-156,-42v134c0,0,85,24,160,36c0,0,75,12,142,12c0,0,171,0,271,-78c0,0,100,-78,100,-211c0,0,0,-92,-53,-156c0,0,-52,-64,-150,-89c0,0,108,-23,169,-96c0,0,61,-73,61,-180c0,0,0,-165,-114,-255c0,0,-113,-89,-322,-89Z" 
id="f0_12"
transform="scale(0.001,-0.001)" />

<path d="M111,0V127c0,0,86,89,234,238c0,0,148,150,186,193c0,0,73,81,101,138c0,0,29,56,29,110c0,0,0,89,-62,145c0,0,-62,56,-162,56c0,0,-71,0,-150,-25c0,0,-78,-24,-168,-75v153c0,0,91,37,170,55c0,0,79,19,145,19c0,0,173,0,276,-86c0,0,103,-87,103,-232c0,0,0,-68,-26,-130c0,0,-26,-61,-94,-145c0,0,-18,-22,-118,-125C575,416,475,313,293,127H818V0Z" 
id="f0_1l"
transform="scale(0.001,-0.001)" />

<path d="M630,-20c0,0,-253,0,-398,153C232,133,86,288,86,556c0,0,0,269,146,423c0,0,145,155,398,155c0,0,100,0,189,-26c0,0,88,-27,166,-79V869c0,0,-76,71,-163,106c0,0,-86,35,-183,35c0,0,-191,0,-292,-117C347,893,245,777,245,556c0,0,0,-220,102,-337c0,0,101,-116,292,-116c0,0,97,0,183,35c0,0,87,35,163,105V86C985,86,906,32,817,5c0,0,-88,-25,-187,-25Z" 
id="f0_1f"
transform="scale(0.001,-0.001)" />

<path d="M545,-20c0,0,-106,0,-212,20C333,0,226,19,119,58V301c0,0,107,-57,207,-85c0,0,99,-29,192,-29c0,0,94,0,144,31c0,0,50,31,50,90c0,0,0,52,-34,80c0,0,-34,29,-136,51L431,464c0,0,-167,35,-244,114c0,0,-77,78,-77,211c0,0,0,166,107,256c0,0,107,89,309,89c0,0,92,0,189,-14c0,0,97,-13,200,-41V843c0,0,-92,41,-179,62c0,0,-87,21,-165,21c0,0,-103,0,-152,-28c0,0,-49,-29,-49,-88c0,0,0,-45,33,-70c0,0,33,-25,121,-43L646,672c0,0,186,-37,264,-113c0,0,79,-76,79,-216c0,0,0,-185,-110,-275c0,0,-109,-88,-334,-88Z" 
id="f3_9"
transform="scale(0.001,-0.001)" />

<path d="M463,156c0,0,75,0,127,54c0,0,51,54,51,135v30H502c0,0,-83,0,-125,-28c0,0,-43,-28,-43,-83c0,0,0,-50,34,-79c0,0,34,-29,95,-29ZM357,-20c0,0,-130,0,-211,74c0,0,-80,76,-80,197c0,0,0,147,101,215c0,0,101,69,317,69H641v21c0,0,0,63,-50,92c0,0,-49,30,-155,30c0,0,-86,0,-160,-17c0,0,-74,-18,-137,-52V813c0,0,86,21,172,32c0,0,86,11,173,11c0,0,226,0,326,-90c0,0,100,-89,100,-290V0H641V124C641,124,588,48,521,13c0,0,-68,-33,-164,-33Z" 
id="f3_a"
transform="scale(0.001,-0.001)" />

<path d="M352,0L23,836H291L499,258L706,836H974L645,0Z" 
id="f3_x"
transform="scale(0.001,-0.001)" />

<path d="M687,509c0,0,0,76,-44,122c0,0,-44,47,-116,47c0,0,-78,0,-126,-44c0,0,-49,-43,-61,-125ZM544,-20c0,0,-227,0,-353,114C191,94,66,209,66,417c0,0,0,204,123,321c0,0,123,118,340,118c0,0,197,0,315,-119c0,0,118,-118,118,-317V344H337c0,0,10,-94,68,-141c0,0,59,-47,163,-47c0,0,85,0,173,25c0,0,89,25,182,76V51C923,51,828,15,733,-2c0,0,-94,-18,-189,-18Z" 
id="f3_3"
transform="scale(0.001,-0.001)" />


</defs>
</svg>