<?xml version="1.0" encoding="UTF-8" standalone="no"?>
<!DOCTYPE svg PUBLIC "-//W3C//DTD SVG 1.1//EN"
"http://www.w3.org/Graphics/SVG/1.1/DTD/svg11.dtd">
<svg viewBox="0 0 909 1286" version="1.1" xmlns="http://www.w3.org/2000/svg" xmlns:xlink="http://www.w3.org/1999/xlink">
<defs>
<clipPath id="c0_26"><path d="M0,1286.2V.2H909.3v1286Z" /></clipPath>
<style type="text/css"><![CDATA[
.g0_26{
fill: #FFFFCC;
}
]]></style>
</defs>
<g clip-path="url(#c0_26)">
<g fill="#000000" >
<use xlink:href="#f0_h" transform="matrix(12,0,0,12,86.8,110.9)" />
<use xlink:href="#f0_k" transform="matrix(12,0,0,12,93.2,110.9)" />
<use xlink:href="#f0_g" transform="matrix(12,0,0,12,104.8,110.9)" />
<use xlink:href="#f0_6" transform="matrix(12,0,0,12,112.4,110.9)" />
<use xlink:href="#f0_7" transform="matrix(12,0,0,12,119.6,110.9)" />
<use xlink:href="#f0_a" transform="matrix(12,0,0,12,131.2,110.9)" />
<use xlink:href="#f0_g" transform="matrix(12,0,0,12,142.5,110.9)" />
<use xlink:href="#f0_l" transform="matrix(12,0,0,12,148.3,110.9)" />
<use xlink:href="#f0_1j" transform="matrix(12,0,0,12,160.1,110.9)" />
<use xlink:href="#f0_8" transform="matrix(12,0,0,12,175.8,110.9)" />
<use xlink:href="#f0_i" transform="matrix(12,0,0,12,187,110.9)" />
<use xlink:href="#f0_a" transform="matrix(12,0,0,12,197,110.9)" />
<use xlink:href="#f0_9" transform="matrix(12,0,0,12,214.1,110.9)" />
<use xlink:href="#f0_k" transform="matrix(12,0,0,12,223.6,110.9)" />
<use xlink:href="#f0_g" transform="matrix(12,0,0,12,235.4,110.9)" />
<use xlink:href="#f0_a" transform="matrix(12,0,0,12,242.4,110.9)" />
<use xlink:href="#f0_p" transform="matrix(12,0,0,12,259.5,110.9)" />
<use xlink:href="#f0_d" transform="matrix(12,0,0,12,270.3,110.9)" />
<use xlink:href="#f0_k" transform="matrix(12,0,0,12,281.5,110.9)" />
<use xlink:href="#f0_7" transform="matrix(12,0,0,12,299,110.9)" />
<use xlink:href="#f0_8" transform="matrix(12,0,0,12,310.5,110.9)" />
<use xlink:href="#f0_t" transform="matrix(12,0,0,12,321.8,110.9)" />
<use xlink:href="#f0_a" transform="matrix(12,0,0,12,332.6,110.9)" />
<use xlink:href="#f0_6" transform="matrix(12,0,0,12,349.7,110.9)" />
<use xlink:href="#f0_7" transform="matrix(12,0,0,12,356.9,110.9)" />
<use xlink:href="#f0_a" transform="matrix(12,0,0,12,368.5,110.9)" />
<use xlink:href="#f0_h" transform="matrix(12,0,0,12,385.8,110.9)" />
<use xlink:href="#f0_d" transform="matrix(12,0,0,12,392.2,110.9)" />
<use xlink:href="#f0_o" transform="matrix(12,0,0,12,403.3,110.9)" />
<use xlink:href="#f0_o" transform="matrix(12,0,0,12,408.4,110.9)" />
<use xlink:href="#f0_d" transform="matrix(12,0,0,12,413.5,110.9)" />
<use xlink:href="#f0_n" transform="matrix(12,0,0,12,424.7,110.9)" />
<use xlink:href="#f0_c" transform="matrix(12,0,0,12,439.7,110.9)" />
<use xlink:href="#f0_e" transform="matrix(12,0,0,12,444.7,110.9)" />
<use xlink:href="#f0_q" transform="matrix(12,0,0,12,456.5,110.9)" />
<use xlink:href="#f0_g" transform="matrix(12,0,0,12,473.9,110.9)" />
<use xlink:href="#f0_a" transform="matrix(12,0,0,12,480.9,110.9)" />
<use xlink:href="#f0_8" transform="matrix(12,0,0,12,492.2,110.9)" />
<use xlink:href="#f0_f" transform="matrix(12,0,0,12,503.5,110.9)" />
<use xlink:href="#f0_p" transform="matrix(12,0,0,12,515.1,110.9)" />
<use xlink:href="#f0_x" transform="matrix(12,0,0,12,531.9,110.9)" />
<use xlink:href="#f0_a" transform="matrix(12,0,0,12,543.5,110.9)" />
<use xlink:href="#f0_h" transform="matrix(12,0,0,12,554.8,110.9)" />
<use xlink:href="#f0_d" transform="matrix(12,0,0,12,561.2,110.9)" />
<use xlink:href="#f0_g" transform="matrix(12,0,0,12,572.3,110.9)" />
<use xlink:href="#f0_a" transform="matrix(12,0,0,12,579.3,110.9)" />
<use xlink:href="#f0_p" transform="matrix(12,0,0,12,596.6,110.9)" />
<use xlink:href="#f0_d" transform="matrix(12,0,0,12,607.4,110.9)" />
<use xlink:href="#f0_k" transform="matrix(12,0,0,12,618.6,110.9)" />
<use xlink:href="#f0_a" transform="matrix(12,0,0,12,636.1,110.9)" />
<use xlink:href="#f0_t" transform="matrix(12,0,0,12,647.3,110.9)" />
<use xlink:href="#f0_a" transform="matrix(12,0,0,12,658.1,110.9)" />
<use xlink:href="#f0_e" transform="matrix(12,0,0,12,669.4,110.9)" />
<use xlink:href="#f0_q" transform="matrix(12,0,0,12,686.8,110.9)" />
<use xlink:href="#f0_a" transform="matrix(12,0,0,12,698.4,110.9)" />
<use xlink:href="#f0_6" transform="matrix(12,0,0,12,709.7,110.9)" />
<use xlink:href="#f0_9" transform="matrix(12,0,0,12,722.8,110.9)" />
<use xlink:href="#f0_6" transform="matrix(12,0,0,12,732.3,110.9)" />
<use xlink:href="#f0_8" transform="matrix(12,0,0,12,739.5,110.9)" />
<use xlink:href="#f0_g" transform="matrix(12,0,0,12,750.8,110.9)" />
<use xlink:href="#f0_6" transform="matrix(12,0,0,12,758.3,110.9)" />
<use xlink:href="#f0_a" transform="matrix(12,0,0,12,765.5,110.9)" />
<use xlink:href="#f0_f" transform="matrix(12,0,0,12,776.8,110.9)" />
<use xlink:href="#f0_1e" transform="matrix(12,0,0,12,788.4,110.9)" />
<use xlink:href="#f1_2" transform="matrix(12,0,0,12,121.2,139.6)" />
<use xlink:href="#f0_1r" transform="matrix(12,0,0,12,127.7,139.6)" />
<use xlink:href="#f0_d" transform="matrix(12,0,0,12,136.6,139.6)" />
<use xlink:href="#f0_k" transform="matrix(12,0,0,12,147.7,139.6)" />
<use xlink:href="#f0_g" transform="matrix(12,0,0,12,159.3,139.6)" />
<use xlink:href="#f0_8" transform="matrix(12,0,0,12,172.8,139.6)" />
<use xlink:href="#f0_s" transform="matrix(12,0,0,12,183.9,139.6)" />
<use xlink:href="#f0_s" transform="matrix(12,0,0,12,195.5,139.6)" />
<use xlink:href="#f0_r" transform="matrix(12,0,0,12,207.1,139.6)" />
<use xlink:href="#f0_9" transform="matrix(12,0,0,12,212.9,139.6)" />
<use xlink:href="#f0_e" transform="matrix(12,0,0,12,228.4,139.6)" />
<use xlink:href="#f0_8" transform="matrix(12,0,0,12,240,139.6)" />
<use xlink:href="#f0_u" transform="matrix(12,0,0,12,251.3,139.6)" />
<use xlink:href="#f0_a" transform="matrix(12,0,0,12,269.1,139.6)" />
<use xlink:href="#f0_l" transform="matrix(12,0,0,12,280.4,139.6)" />
<use xlink:href="#f1_2" transform="matrix(12,0,0,12,121.2,179.7)" />
<use xlink:href="#f0_1r" transform="matrix(12,0,0,12,127.7,179.7)" />
<use xlink:href="#f0_d" transform="matrix(12,0,0,12,136.6,179.7)" />
<use xlink:href="#f0_k" transform="matrix(12,0,0,12,147.7,179.7)" />
<use xlink:href="#f0_g" transform="matrix(12,0,0,12,159.3,179.7)" />
<use xlink:href="#f0_8" transform="matrix(12,0,0,12,172.8,179.7)" />
<use xlink:href="#f0_s" transform="matrix(12,0,0,12,183.9,179.7)" />
<use xlink:href="#f0_s" transform="matrix(12,0,0,12,195.5,179.7)" />
<use xlink:href="#f0_r" transform="matrix(12,0,0,12,207.1,179.7)" />
<use xlink:href="#f0_9" transform="matrix(12,0,0,12,212.9,179.7)" />
<use xlink:href="#f0_f" transform="matrix(12,0,0,12,228.4,179.7)" />
<use xlink:href="#f0_a" transform="matrix(12,0,0,12,240,179.7)" />
<use xlink:href="#f0_9" transform="matrix(12,0,0,12,251.3,179.7)" />
<use xlink:href="#f0_b" transform="matrix(12,0,0,12,260.9,179.7)" />
<use xlink:href="#f0_g" transform="matrix(12,0,0,12,270.9,179.7)" />
<use xlink:href="#f0_c" transform="matrix(12,0,0,12,278.4,179.7)" />
<use xlink:href="#f0_s" transform="matrix(12,0,0,12,283.4,179.7)" />
<use xlink:href="#f0_6" transform="matrix(12,0,0,12,295.1,179.7)" />
<use xlink:href="#f0_c" transform="matrix(12,0,0,12,302.4,179.7)" />
<use xlink:href="#f0_d" transform="matrix(12,0,0,12,307.4,179.7)" />
<use xlink:href="#f0_e" transform="matrix(12,0,0,12,318.6,179.7)" />
<use xlink:href="#f0_l" transform="matrix(12,0,0,12,330.2,179.7)" />
<use xlink:href="#f1_2" transform="matrix(12,0,0,12,121.2,219.8)" />
<use xlink:href="#f0_1r" transform="matrix(12,0,0,12,127.7,219.8)" />
<use xlink:href="#f0_d" transform="matrix(12,0,0,12,136.6,219.8)" />
<use xlink:href="#f0_k" transform="matrix(12,0,0,12,147.7,219.8)" />
<use xlink:href="#f0_g" transform="matrix(12,0,0,12,159.3,219.8)" />
<use xlink:href="#f0_8" transform="matrix(12,0,0,12,172.8,219.8)" />
<use xlink:href="#f0_s" transform="matrix(12,0,0,12,183.9,219.8)" />
<use xlink:href="#f0_s" transform="matrix(12,0,0,12,195.5,219.8)" />
<use xlink:href="#f0_r" transform="matrix(12,0,0,12,207.1,219.8)" />
<use xlink:href="#f0_9" transform="matrix(12,0,0,12,212.9,219.8)" />
<use xlink:href="#f0_c" transform="matrix(12,0,0,12,228.4,219.8)" />
<use xlink:href="#f0_b" transform="matrix(12,0,0,12,233.4,219.8)" />
<use xlink:href="#f0_d" transform="matrix(12,0,0,12,243.6,219.8)" />
<use xlink:href="#f0_e" transform="matrix(12,0,0,12,254.8,219.8)" />
<use xlink:href="#f0_4" transform="matrix(12,0,0,12,266.4,219.8)" />
<use xlink:href="#f0_9" transform="matrix(12,0,0,12,278.1,219.8)" />
<use xlink:href="#f0_c" transform="matrix(12,0,0,12,287.6,219.8)" />
<use xlink:href="#f0_22" transform="matrix(12,0,0,12,292.6,219.8)" />
<use xlink:href="#f0_a" transform="matrix(12,0,0,12,302.2,219.8)" />
<use xlink:href="#f0_f" transform="matrix(12,0,0,12,313.5,219.8)" />
<use xlink:href="#f0_v" transform="matrix(12,0,0,12,331.1,219.8)" />
<use xlink:href="#f0_1o" transform="matrix(12,0,0,12,342.7,219.8)" />
<use xlink:href="#f0_1l" transform="matrix(12,0,0,12,354.3,219.8)" />
<use xlink:href="#f0_1m" transform="matrix(12,0,0,12,365.9,219.8)" />
<use xlink:href="#f0_x" transform="matrix(12,0,0,12,383.5,219.8)" />
<use xlink:href="#f0_p" transform="matrix(12,0,0,12,395.1,219.8)" />
<use xlink:href="#f0_v" transform="matrix(12,0,0,12,411.7,219.8)" />
<use xlink:href="#f0_1o" transform="matrix(12,0,0,12,423.5,219.8)" />
<use xlink:href="#f0_1l" transform="matrix(12,0,0,12,435.1,219.8)" />
<use xlink:href="#f0_1m" transform="matrix(12,0,0,12,446.7,219.8)" />
<use xlink:href="#f0_s" transform="matrix(12,0,0,12,464.2,219.8)" />
<use xlink:href="#f0_c" transform="matrix(12,0,0,12,475.8,219.8)" />
<use xlink:href="#f0_1h" transform="matrix(12,0,0,12,480.9,219.8)" />
<use xlink:href="#f0_a" transform="matrix(12,0,0,12,491.1,219.8)" />
<use xlink:href="#f0_o" transform="matrix(12,0,0,12,502.4,219.8)" />
<use xlink:href="#f0_9" transform="matrix(12,0,0,12,507.4,219.8)" />
<use xlink:href="#f0_l" transform="matrix(12,0,0,12,517,219.8)" />
<use xlink:href="#f1_2" transform="matrix(12,0,0,12,121.2,259.9)" />
<use xlink:href="#f0_12" transform="matrix(12,0,0,12,127.7,259.9)" />
<use xlink:href="#f0_l" transform="matrix(12,0,0,12,139.3,259.9)" />
<use xlink:href="#f0_24" transform="matrix(12,0,0,12,145.3,259.9)" />
<use xlink:href="#f0_c" transform="matrix(12,0,0,12,162.7,259.9)" />
<use xlink:href="#f0_e" transform="matrix(12,0,0,12,167.7,259.9)" />
<use xlink:href="#f0_b" transform="matrix(12,0,0,12,179.3,259.9)" />
<use xlink:href="#f0_7" transform="matrix(12,0,0,12,189.4,259.9)" />
<use xlink:href="#f0_g" transform="matrix(12,0,0,12,207,259.9)" />
<use xlink:href="#f0_a" transform="matrix(12,0,0,12,214,259.9)" />
<use xlink:href="#f0_6" transform="matrix(12,0,0,12,225.3,259.9)" />
<use xlink:href="#f0_c" transform="matrix(12,0,0,12,232.5,259.9)" />
<use xlink:href="#f0_e" transform="matrix(12,0,0,12,237.5,259.9)" />
<use xlink:href="#f0_8" transform="matrix(12,0,0,12,249.1,259.9)" />
<use xlink:href="#f0_1e" transform="matrix(12,0,0,12,260.4,259.9)" />
<use xlink:href="#f0_18" transform="matrix(12,0,0,12,272.5,259.9)" />
<use xlink:href="#f0_c" transform="matrix(12,0,0,12,284.1,259.9)" />
<use xlink:href="#f0_22" transform="matrix(12,0,0,12,289.1,259.9)" />
<use xlink:href="#f0_a" transform="matrix(12,0,0,12,298.7,259.9)" />
<use xlink:href="#f0_f" transform="matrix(12,0,0,12,310,259.9)" />
<use xlink:href="#f0_1e" transform="matrix(12,0,0,12,321.6,259.9)" />
<use xlink:href="#f0_25" transform="matrix(12,0,0,12,333.7,259.9)" />
<use xlink:href="#f0_1m" transform="matrix(12,0,0,12,345.3,259.9)" />
<use xlink:href="#f0_1o" transform="matrix(12,0,0,12,357,259.9)" />
<use xlink:href="#f0_1h" transform="matrix(12,0,0,12,374.5,259.9)" />
<use xlink:href="#f0_1n" transform="matrix(12,0,0,12,391.1,259.9)" />
<use xlink:href="#f0_1l" transform="matrix(12,0,0,12,402.9,259.9)" />
<use xlink:href="#f0_1o" transform="matrix(12,0,0,12,414.5,259.9)" />
<use xlink:href="#f0_13" transform="matrix(12,0,0,12,432,259.9)" />
<use xlink:href="#f0_e" transform="matrix(12,0,0,12,439.2,259.9)" />
<use xlink:href="#f0_d" transform="matrix(12,0,0,12,450.8,259.9)" />
<use xlink:href="#f0_9" transform="matrix(12,0,0,12,467.7,259.9)" />
<use xlink:href="#f0_6" transform="matrix(12,0,0,12,477.3,259.9)" />
<use xlink:href="#f0_8" transform="matrix(12,0,0,12,484.4,259.9)" />
<use xlink:href="#f0_6" transform="matrix(12,0,0,12,495.7,259.9)" />
<use xlink:href="#f0_k" transform="matrix(12,0,0,12,502.8,259.9)" />
<use xlink:href="#f0_9" transform="matrix(12,0,0,12,514.4,259.9)" />
<use xlink:href="#f0_14" transform="matrix(12,0,0,12,524.1,259.9)" />
<use xlink:href="#f0_26" transform="matrix(12,0,0,12,531.2,259.9)" />
<use xlink:href="#f0_25" transform="matrix(12,0,0,12,543.1,259.9)" />
<use xlink:href="#f0_1m" transform="matrix(12,0,0,12,554.7,259.9)" />
<use xlink:href="#f0_1o" transform="matrix(12,0,0,12,566.5,259.9)" />
<use xlink:href="#f0_1h" transform="matrix(12,0,0,12,583.9,259.9)" />
<use xlink:href="#f0_1n" transform="matrix(12,0,0,12,600.7,259.9)" />
<use xlink:href="#f0_25" transform="matrix(12,0,0,12,612.3,259.9)" />
<use xlink:href="#f0_1o" transform="matrix(12,0,0,12,623.9,259.9)" />
<use xlink:href="#f0_13" transform="matrix(12,0,0,12,641.5,259.9)" />
<use xlink:href="#f0_h" transform="matrix(12,0,0,12,648.6,259.9)" />
<use xlink:href="#f0_k" transform="matrix(12,0,0,12,655,259.9)" />
<use xlink:href="#f0_o" transform="matrix(12,0,0,12,666.6,259.9)" />
<use xlink:href="#f0_o" transform="matrix(12,0,0,12,671.7,259.9)" />
<use xlink:href="#f0_9" transform="matrix(12,0,0,12,682.7,259.9)" />
<use xlink:href="#f0_b" transform="matrix(12,0,0,12,692.2,259.9)" />
<use xlink:href="#f0_g" transform="matrix(12,0,0,12,702.2,259.9)" />
<use xlink:href="#f0_a" transform="matrix(12,0,0,12,709.2,259.9)" />
<use xlink:href="#f0_a" transform="matrix(12,0,0,12,720.5,259.9)" />
<use xlink:href="#f0_e" transform="matrix(12,0,0,12,731.8,259.9)" />
<use xlink:href="#f0_14" transform="matrix(12,0,0,12,743.4,259.9)" />
<use xlink:href="#f0_26" transform="matrix(12,0,0,12,750.6,259.9)" />
<use xlink:href="#f0_d" transform="matrix(12,0,0,12,762.7,259.9)" />
<use xlink:href="#f0_g" transform="matrix(12,0,0,12,773.8,259.9)" />
<use xlink:href="#f0_4" transform="matrix(12,0,0,12,781.4,259.9)" />
<use xlink:href="#f0_h" transform="matrix(12,0,0,12,793.1,259.9)" />
<use xlink:href="#f0_d" transform="matrix(12,0,0,12,799.5,259.9)" />
<use xlink:href="#f0_g" transform="matrix(12,0,0,12,810.8,259.9)" />
<use xlink:href="#f0_o" transform="matrix(12,0,0,12,121.2,288.6)" />
<use xlink:href="#f0_8" transform="matrix(12,0,0,12,126.2,288.6)" />
<use xlink:href="#f0_e" transform="matrix(12,0,0,12,137.5,288.6)" />
<use xlink:href="#f0_f" transform="matrix(12,0,0,12,149.1,288.6)" />
<use xlink:href="#f0_9" transform="matrix(12,0,0,12,160.7,288.6)" />
<use xlink:href="#f0_b" transform="matrix(12,0,0,12,170.3,288.6)" />
<use xlink:href="#f0_8" transform="matrix(12,0,0,12,180.2,288.6)" />
<use xlink:href="#f0_s" transform="matrix(12,0,0,12,191.5,288.6)" />
<use xlink:href="#f0_a" transform="matrix(12,0,0,12,203.1,288.6)" />
<use xlink:href="#f0_4" transform="matrix(12,0,0,12,214.4,288.6)" />
<use xlink:href="#f0_1n" transform="matrix(12,0,0,12,226.2,288.6)" />
<use xlink:href="#f0_25" transform="matrix(12,0,0,12,237.8,288.6)" />
<use xlink:href="#f0_1o" transform="matrix(12,0,0,12,249.4,288.6)" />
<use xlink:href="#f0_1h" transform="matrix(12,0,0,12,267,288.6)" />
<use xlink:href="#f0_25" transform="matrix(12,0,0,12,283.6,288.6)" />
<use xlink:href="#f0_1o" transform="matrix(12,0,0,12,295.2,288.6)" />
<use xlink:href="#f0_1o" transform="matrix(12,0,0,12,307,288.6)" />
<use xlink:href="#f0_13" transform="matrix(12,0,0,12,324.4,288.6)" />
<use xlink:href="#f0_e" transform="matrix(12,0,0,12,331.5,288.6)" />
<use xlink:href="#f0_d" transform="matrix(12,0,0,12,343.2,288.6)" />
<use xlink:href="#f0_9" transform="matrix(12,0,0,12,360.3,288.6)" />
<use xlink:href="#f0_6" transform="matrix(12,0,0,12,369.7,288.6)" />
<use xlink:href="#f0_8" transform="matrix(12,0,0,12,376.9,288.6)" />
<use xlink:href="#f0_6" transform="matrix(12,0,0,12,388.2,288.6)" />
<use xlink:href="#f0_k" transform="matrix(12,0,0,12,395.4,288.6)" />
<use xlink:href="#f0_9" transform="matrix(12,0,0,12,406.9,288.6)" />
<use xlink:href="#f0_x" transform="matrix(12,0,0,12,422.4,288.6)" />
<use xlink:href="#f0_8" transform="matrix(12,0,0,12,433.9,288.6)" />
<use xlink:href="#f0_g" transform="matrix(12,0,0,12,445.2,288.6)" />
<use xlink:href="#f0_14" transform="matrix(12,0,0,12,452.6,288.6)" />
<use xlink:href="#f0_26" transform="matrix(12,0,0,12,459.8,288.6)" />
<use xlink:href="#f0_d" transform="matrix(12,0,0,12,471.9,288.6)" />
<use xlink:href="#f0_g" transform="matrix(12,0,0,12,483,288.6)" />
<use xlink:href="#f0_1n" transform="matrix(12,0,0,12,496.5,288.6)" />
<use xlink:href="#f0_25" transform="matrix(12,0,0,12,508.1,288.6)" />
<use xlink:href="#f0_1o" transform="matrix(12,0,0,12,519.7,288.6)" />
<use xlink:href="#f0_1h" transform="matrix(12,0,0,12,537.2,288.6)" />
<use xlink:href="#f0_25" transform="matrix(12,0,0,12,553.9,288.6)" />
<use xlink:href="#f0_1m" transform="matrix(12,0,0,12,565.5,288.6)" />
<use xlink:href="#f0_1o" transform="matrix(12,0,0,12,577.2,288.6)" />
<use xlink:href="#f0_13" transform="matrix(12,0,0,12,594.6,288.6)" />
<use xlink:href="#f0_h" transform="matrix(12,0,0,12,601.8,288.6)" />
<use xlink:href="#f0_k" transform="matrix(12,0,0,12,608.2,288.6)" />
<use xlink:href="#f0_o" transform="matrix(12,0,0,12,619.8,288.6)" />
<use xlink:href="#f0_o" transform="matrix(12,0,0,12,625,288.6)" />
<use xlink:href="#f0_9" transform="matrix(12,0,0,12,635.9,288.6)" />
<use xlink:href="#f0_b" transform="matrix(12,0,0,12,645.5,288.6)" />
<use xlink:href="#f0_g" transform="matrix(12,0,0,12,655.5,288.6)" />
<use xlink:href="#f0_a" transform="matrix(12,0,0,12,662.6,288.6)" />
<use xlink:href="#f0_a" transform="matrix(12,0,0,12,673.8,288.6)" />
<use xlink:href="#f0_e" transform="matrix(12,0,0,12,685.1,288.6)" />
<use xlink:href="#f0_14" transform="matrix(12,0,0,12,696.7,288.6)" />
<use xlink:href="#f0_l" transform="matrix(12,0,0,12,703.9,288.6)" />
<use xlink:href="#f1_2" transform="matrix(12,0,0,12,121.2,328.6)" />
<use xlink:href="#f0_1m" transform="matrix(12,0,0,12,127.7,328.6)" />
<use xlink:href="#f0_c" transform="matrix(12,0,0,12,145.3,328.6)" />
<use xlink:href="#f0_e" transform="matrix(12,0,0,12,150.3,328.6)" />
<use xlink:href="#f0_b" transform="matrix(12,0,0,12,161.9,328.6)" />
<use xlink:href="#f0_7" transform="matrix(12,0,0,12,172,328.6)" />
<use xlink:href="#f0_g" transform="matrix(12,0,0,12,189.4,328.6)" />
<use xlink:href="#f0_a" transform="matrix(12,0,0,12,196.4,328.6)" />
<use xlink:href="#f0_6" transform="matrix(12,0,0,12,207.9,328.6)" />
<use xlink:href="#f0_c" transform="matrix(12,0,0,12,215.1,328.6)" />
<use xlink:href="#f0_e" transform="matrix(12,0,0,12,220.1,328.6)" />
<use xlink:href="#f0_8" transform="matrix(12,0,0,12,231.7,328.6)" />
<use xlink:href="#f0_1e" transform="matrix(12,0,0,12,243,328.6)" />
<use xlink:href="#f0_18" transform="matrix(12,0,0,12,255,328.6)" />
<use xlink:href="#f0_c" transform="matrix(12,0,0,12,266.7,328.6)" />
<use xlink:href="#f0_22" transform="matrix(12,0,0,12,271.7,328.6)" />
<use xlink:href="#f0_a" transform="matrix(12,0,0,12,281.3,328.6)" />
<use xlink:href="#f0_f" transform="matrix(12,0,0,12,292.6,328.6)" />
<use xlink:href="#f0_1e" transform="matrix(12,0,0,12,304.2,328.6)" />
<use xlink:href="#f0_25" transform="matrix(12,0,0,12,316.2,328.6)" />
<use xlink:href="#f0_1m" transform="matrix(12,0,0,12,327.8,328.6)" />
<use xlink:href="#f0_1o" transform="matrix(12,0,0,12,339.5,328.6)" />
<use xlink:href="#f0_1h" transform="matrix(12,0,0,12,357,328.6)" />
<use xlink:href="#f0_v" transform="matrix(12,0,0,12,373.7,328.6)" />
<use xlink:href="#f0_1o" transform="matrix(12,0,0,12,385.3,328.6)" />
<use xlink:href="#f0_1n" transform="matrix(12,0,0,12,396.9,328.6)" />
<use xlink:href="#f0_25" transform="matrix(12,0,0,12,408.6,328.6)" />
<use xlink:href="#f0_13" transform="matrix(12,0,0,12,426,328.6)" />
<use xlink:href="#f0_e" transform="matrix(12,0,0,12,433.2,328.6)" />
<use xlink:href="#f0_d" transform="matrix(12,0,0,12,444.8,328.6)" />
<use xlink:href="#f0_9" transform="matrix(12,0,0,12,461.9,328.6)" />
<use xlink:href="#f0_6" transform="matrix(12,0,0,12,471.5,328.6)" />
<use xlink:href="#f0_8" transform="matrix(12,0,0,12,478.5,328.6)" />
<use xlink:href="#f0_6" transform="matrix(12,0,0,12,489.8,328.6)" />
<use xlink:href="#f0_k" transform="matrix(12,0,0,12,497,328.6)" />
<use xlink:href="#f0_9" transform="matrix(12,0,0,12,508.6,328.6)" />
<use xlink:href="#f0_14" transform="matrix(12,0,0,12,518.2,328.6)" />
<use xlink:href="#f0_26" transform="matrix(12,0,0,12,525.4,328.6)" />
<use xlink:href="#f0_25" transform="matrix(12,0,0,12,537.3,328.6)" />
<use xlink:href="#f0_1m" transform="matrix(12,0,0,12,548.9,328.6)" />
<use xlink:href="#f0_1o" transform="matrix(12,0,0,12,560.7,328.6)" />
<use xlink:href="#f0_1h" transform="matrix(12,0,0,12,578.1,328.6)" />
<use xlink:href="#f0_v" transform="matrix(12,0,0,12,594.7,328.6)" />
<use xlink:href="#f0_v" transform="matrix(12,0,0,12,606.5,328.6)" />
<use xlink:href="#f0_12" transform="matrix(12,0,0,12,618.1,328.6)" />
<use xlink:href="#f0_25" transform="matrix(12,0,0,12,629.7,328.6)" />
<use xlink:href="#f0_13" transform="matrix(12,0,0,12,647.3,328.6)" />
<use xlink:href="#f0_h" transform="matrix(12,0,0,12,654.4,328.6)" />
<use xlink:href="#f0_k" transform="matrix(12,0,0,12,660.9,328.6)" />
<use xlink:href="#f0_o" transform="matrix(12,0,0,12,672.5,328.6)" />
<use xlink:href="#f0_o" transform="matrix(12,0,0,12,677.5,328.6)" />
<use xlink:href="#f0_9" transform="matrix(12,0,0,12,688.5,328.6)" />
<use xlink:href="#f0_b" transform="matrix(12,0,0,12,698,328.6)" />
<use xlink:href="#f0_g" transform="matrix(12,0,0,12,708.2,328.6)" />
<use xlink:href="#f0_a" transform="matrix(12,0,0,12,715.2,328.6)" />
<use xlink:href="#f0_a" transform="matrix(12,0,0,12,726.5,328.6)" />
<use xlink:href="#f0_e" transform="matrix(12,0,0,12,737.8,328.6)" />
<use xlink:href="#f0_14" transform="matrix(12,0,0,12,749.4,328.6)" />
<use xlink:href="#f0_26" transform="matrix(12,0,0,12,756.6,328.6)" />
<use xlink:href="#f0_d" transform="matrix(12,0,0,12,768.5,328.6)" />
<use xlink:href="#f0_g" transform="matrix(12,0,0,12,779.8,328.6)" />
<use xlink:href="#f0_4" transform="matrix(12,0,0,12,787.2,328.6)" />
<use xlink:href="#f0_h" transform="matrix(12,0,0,12,121.2,357.3)" />
<use xlink:href="#f0_d" transform="matrix(12,0,0,12,127.6,357.3)" />
<use xlink:href="#f0_g" transform="matrix(12,0,0,12,138.9,357.3)" />
<use xlink:href="#f0_o" transform="matrix(12,0,0,12,152.2,357.3)" />
<use xlink:href="#f0_8" transform="matrix(12,0,0,12,157.2,357.3)" />
<use xlink:href="#f0_e" transform="matrix(12,0,0,12,168.5,357.3)" />
<use xlink:href="#f0_f" transform="matrix(12,0,0,12,180.1,357.3)" />
<use xlink:href="#f0_9" transform="matrix(12,0,0,12,191.7,357.3)" />
<use xlink:href="#f0_b" transform="matrix(12,0,0,12,201.3,357.3)" />
<use xlink:href="#f0_8" transform="matrix(12,0,0,12,211.4,357.3)" />
<use xlink:href="#f0_s" transform="matrix(12,0,0,12,222.7,357.3)" />
<use xlink:href="#f0_a" transform="matrix(12,0,0,12,234.3,357.3)" />
<use xlink:href="#f0_4" transform="matrix(12,0,0,12,245.6,357.3)" />
<use xlink:href="#f0_v" transform="matrix(12,0,0,12,257.2,357.3)" />
<use xlink:href="#f0_v" transform="matrix(12,0,0,12,268.8,357.3)" />
<use xlink:href="#f0_12" transform="matrix(12,0,0,12,280.4,357.3)" />
<use xlink:href="#f0_25" transform="matrix(12,0,0,12,292.1,357.3)" />
<use xlink:href="#f0_1h" transform="matrix(12,0,0,12,309.6,357.3)" />
<use xlink:href="#f0_25" transform="matrix(12,0,0,12,326.3,357.3)" />
<use xlink:href="#f0_1o" transform="matrix(12,0,0,12,337.9,357.3)" />
<use xlink:href="#f0_1o" transform="matrix(12,0,0,12,349.5,357.3)" />
<use xlink:href="#f0_13" transform="matrix(12,0,0,12,367.1,357.3)" />
<use xlink:href="#f0_e" transform="matrix(12,0,0,12,374.3,357.3)" />
<use xlink:href="#f0_d" transform="matrix(12,0,0,12,385.9,357.3)" />
<use xlink:href="#f0_9" transform="matrix(12,0,0,12,402.8,357.3)" />
<use xlink:href="#f0_6" transform="matrix(12,0,0,12,412.5,357.3)" />
<use xlink:href="#f0_8" transform="matrix(12,0,0,12,419.5,357.3)" />
<use xlink:href="#f0_6" transform="matrix(12,0,0,12,430.8,357.3)" />
<use xlink:href="#f0_k" transform="matrix(12,0,0,12,438,357.3)" />
<use xlink:href="#f0_9" transform="matrix(12,0,0,12,449.6,357.3)" />
<use xlink:href="#f0_14" transform="matrix(12,0,0,12,459.2,357.3)" />
<use xlink:href="#f0_26" transform="matrix(12,0,0,12,466.3,357.3)" />
<use xlink:href="#f0_v" transform="matrix(12,0,0,12,478.2,357.3)" />
<use xlink:href="#f0_v" transform="matrix(12,0,0,12,490,357.3)" />
<use xlink:href="#f0_12" transform="matrix(12,0,0,12,501.6,357.3)" />
<use xlink:href="#f0_25" transform="matrix(12,0,0,12,513.2,357.3)" />
<use xlink:href="#f0_1h" transform="matrix(12,0,0,12,530.8,357.3)" />
<use xlink:href="#f0_25" transform="matrix(12,0,0,12,547.4,357.3)" />
<use xlink:href="#f0_1m" transform="matrix(12,0,0,12,559,357.3)" />
<use xlink:href="#f0_1o" transform="matrix(12,0,0,12,570.8,357.3)" />
<use xlink:href="#f0_13" transform="matrix(12,0,0,12,588.2,357.3)" />
<use xlink:href="#f0_h" transform="matrix(12,0,0,12,595.4,357.3)" />
<use xlink:href="#f0_k" transform="matrix(12,0,0,12,601.8,357.3)" />
<use xlink:href="#f0_o" transform="matrix(12,0,0,12,613.4,357.3)" />
<use xlink:href="#f0_o" transform="matrix(12,0,0,12,618.6,357.3)" />
<use xlink:href="#f0_9" transform="matrix(12,0,0,12,629.4,357.3)" />
<use xlink:href="#f0_b" transform="matrix(12,0,0,12,639,357.3)" />
<use xlink:href="#f0_g" transform="matrix(12,0,0,12,649.1,357.3)" />
<use xlink:href="#f0_a" transform="matrix(12,0,0,12,656.1,357.3)" />
<use xlink:href="#f0_a" transform="matrix(12,0,0,12,667.4,357.3)" />
<use xlink:href="#f0_e" transform="matrix(12,0,0,12,678.7,357.3)" />
<use xlink:href="#f0_14" transform="matrix(12,0,0,12,690.3,357.3)" />
<use xlink:href="#f0_l" transform="matrix(12,0,0,12,697.5,357.3)" />
<use xlink:href="#f1_2" transform="matrix(12,0,0,12,121.2,397.4)" />
<use xlink:href="#f0_1m" transform="matrix(12,0,0,12,127.7,397.4)" />
<use xlink:href="#f0_l" transform="matrix(12,0,0,12,139.3,397.4)" />
<use xlink:href="#f0_11" transform="matrix(12,0,0,12,145.3,397.4)" />
<use xlink:href="#f0_c" transform="matrix(12,0,0,12,162.7,397.4)" />
<use xlink:href="#f0_e" transform="matrix(12,0,0,12,167.7,397.4)" />
<use xlink:href="#f0_b" transform="matrix(12,0,0,12,179.3,397.4)" />
<use xlink:href="#f0_7" transform="matrix(12,0,0,12,189.4,397.4)" />
<use xlink:href="#f0_g" transform="matrix(12,0,0,12,207,397.4)" />
<use xlink:href="#f0_a" transform="matrix(12,0,0,12,214,397.4)" />
<use xlink:href="#f0_6" transform="matrix(12,0,0,12,225.3,397.4)" />
<use xlink:href="#f0_c" transform="matrix(12,0,0,12,232.5,397.4)" />
<use xlink:href="#f0_e" transform="matrix(12,0,0,12,237.5,397.4)" />
<use xlink:href="#f0_8" transform="matrix(12,0,0,12,249.1,397.4)" />
<use xlink:href="#f0_1e" transform="matrix(12,0,0,12,260.4,397.4)" />
<use xlink:href="#f0_18" transform="matrix(12,0,0,12,272.5,397.4)" />
<use xlink:href="#f0_c" transform="matrix(12,0,0,12,284.1,397.4)" />
<use xlink:href="#f0_22" transform="matrix(12,0,0,12,289.1,397.4)" />
<use xlink:href="#f0_a" transform="matrix(12,0,0,12,298.7,397.4)" />
<use xlink:href="#f0_f" transform="matrix(12,0,0,12,310,397.4)" />
<use xlink:href="#f0_1e" transform="matrix(12,0,0,12,321.6,397.4)" />
<use xlink:href="#f0_11" transform="matrix(12,0,0,12,333.7,397.4)" />
<use xlink:href="#f0_24" transform="matrix(12,0,0,12,345.3,397.4)" />
<use xlink:href="#f0_1o" transform="matrix(12,0,0,12,357,397.4)" />
<use xlink:href="#f0_1h" transform="matrix(12,0,0,12,374.5,397.4)" />
<use xlink:href="#f0_v" transform="matrix(12,0,0,12,391.1,397.4)" />
<use xlink:href="#f0_12" transform="matrix(12,0,0,12,402.9,397.4)" />
<use xlink:href="#f0_12" transform="matrix(12,0,0,12,414.5,397.4)" />
<use xlink:href="#f0_1m" transform="matrix(12,0,0,12,426.1,397.4)" />
<use xlink:href="#f0_13" transform="matrix(12,0,0,12,443.6,397.4)" />
<use xlink:href="#f0_s" transform="matrix(12,0,0,12,450.8,397.4)" />
<use xlink:href="#f0_d" transform="matrix(12,0,0,12,462.4,397.4)" />
<use xlink:href="#f0_g" transform="matrix(12,0,0,12,473.5,397.4)" />
<use xlink:href="#f0_6" transform="matrix(12,0,0,12,481,397.4)" />
<use xlink:href="#f0_g" transform="matrix(12,0,0,12,488.3,397.4)" />
<use xlink:href="#f0_8" transform="matrix(12,0,0,12,495.8,397.4)" />
<use xlink:href="#f0_c" transform="matrix(12,0,0,12,507.1,397.4)" />
<use xlink:href="#f0_6" transform="matrix(12,0,0,12,512.2,397.4)" />
<use xlink:href="#f0_14" transform="matrix(12,0,0,12,519.3,397.4)" />
<use xlink:href="#f0_26" transform="matrix(12,0,0,12,526.5,397.4)" />
<use xlink:href="#f0_v" transform="matrix(12,0,0,12,538.4,397.4)" />
<use xlink:href="#f0_12" transform="matrix(12,0,0,12,550.2,397.4)" />
<use xlink:href="#f0_12" transform="matrix(12,0,0,12,561.8,397.4)" />
<use xlink:href="#f0_1m" transform="matrix(12,0,0,12,573.4,397.4)" />
<use xlink:href="#f0_1h" transform="matrix(12,0,0,12,591,397.4)" />
<use xlink:href="#f0_11" transform="matrix(12,0,0,12,607.6,397.4)" />
<use xlink:href="#f0_24" transform="matrix(12,0,0,12,619.2,397.4)" />
<use xlink:href="#f0_1o" transform="matrix(12,0,0,12,631,397.4)" />
<use xlink:href="#f0_13" transform="matrix(12,0,0,12,648.4,397.4)" />
<use xlink:href="#f0_o" transform="matrix(12,0,0,12,655.5,397.4)" />
<use xlink:href="#f0_8" transform="matrix(12,0,0,12,660.6,397.4)" />
<use xlink:href="#f0_e" transform="matrix(12,0,0,12,671.9,397.4)" />
<use xlink:href="#f0_f" transform="matrix(12,0,0,12,683.5,397.4)" />
<use xlink:href="#f0_9" transform="matrix(12,0,0,12,695.1,397.4)" />
<use xlink:href="#f0_b" transform="matrix(12,0,0,12,704.7,397.4)" />
<use xlink:href="#f0_8" transform="matrix(12,0,0,12,714.6,397.4)" />
<use xlink:href="#f0_s" transform="matrix(12,0,0,12,725.9,397.4)" />
<use xlink:href="#f0_a" transform="matrix(12,0,0,12,737.5,397.4)" />
<use xlink:href="#f0_14" transform="matrix(12,0,0,12,748.8,397.4)" />
<use xlink:href="#f0_l" transform="matrix(12,0,0,12,756,397.4)" />
<use xlink:href="#f1_2" transform="matrix(12,0,0,12,121.2,437.6)" />
<use xlink:href="#f0_24" transform="matrix(12,0,0,12,127.7,437.6)" />
<use xlink:href="#f0_l" transform="matrix(12,0,0,12,139.3,437.6)" />
<use xlink:href="#f0_24" transform="matrix(12,0,0,12,145.3,437.6)" />
<use xlink:href="#f0_c" transform="matrix(12,0,0,12,162.7,437.6)" />
<use xlink:href="#f0_e" transform="matrix(12,0,0,12,167.7,437.6)" />
<use xlink:href="#f0_b" transform="matrix(12,0,0,12,179.3,437.6)" />
<use xlink:href="#f0_7" transform="matrix(12,0,0,12,189.4,437.6)" />
<use xlink:href="#f0_g" transform="matrix(12,0,0,12,207,437.6)" />
<use xlink:href="#f0_a" transform="matrix(12,0,0,12,214,437.6)" />
<use xlink:href="#f0_6" transform="matrix(12,0,0,12,225.3,437.6)" />
<use xlink:href="#f0_c" transform="matrix(12,0,0,12,232.5,437.6)" />
<use xlink:href="#f0_e" transform="matrix(12,0,0,12,237.5,437.6)" />
<use xlink:href="#f0_8" transform="matrix(12,0,0,12,249.1,437.6)" />
<use xlink:href="#f0_1e" transform="matrix(12,0,0,12,260.4,437.6)" />
<use xlink:href="#f0_18" transform="matrix(12,0,0,12,272.5,437.6)" />
<use xlink:href="#f0_c" transform="matrix(12,0,0,12,284.1,437.6)" />
<use xlink:href="#f0_22" transform="matrix(12,0,0,12,289.1,437.6)" />
<use xlink:href="#f0_a" transform="matrix(12,0,0,12,298.7,437.6)" />
<use xlink:href="#f0_f" transform="matrix(12,0,0,12,310,437.6)" />
<use xlink:href="#f0_1e" transform="matrix(12,0,0,12,321.6,437.6)" />
<use xlink:href="#f0_v" transform="matrix(12,0,0,12,333.7,437.6)" />
<use xlink:href="#f0_1l" transform="matrix(12,0,0,12,345.3,437.6)" />
<use xlink:href="#f0_1m" transform="matrix(12,0,0,12,357,437.6)" />
<use xlink:href="#f0_1l" transform="matrix(12,0,0,12,368.6,437.6)" />
<use xlink:href="#f0_1h" transform="matrix(12,0,0,12,386.2,437.6)" />
<use xlink:href="#f0_1l" transform="matrix(12,0,0,12,402.8,437.6)" />
<use xlink:href="#f0_1l" transform="matrix(12,0,0,12,414.4,437.6)" />
<use xlink:href="#f0_1o" transform="matrix(12,0,0,12,426,437.6)" />
<use xlink:href="#f0_1p" transform="matrix(12,0,0,12,437.8,437.6)" />
<use xlink:href="#f0_13" transform="matrix(12,0,0,12,455.2,437.6)" />
<use xlink:href="#f0_s" transform="matrix(12,0,0,12,462.4,437.6)" />
<use xlink:href="#f0_d" transform="matrix(12,0,0,12,474,437.6)" />
<use xlink:href="#f0_g" transform="matrix(12,0,0,12,485.3,437.6)" />
<use xlink:href="#f0_6" transform="matrix(12,0,0,12,492.8,437.6)" />
<use xlink:href="#f0_g" transform="matrix(12,0,0,12,499.9,437.6)" />
<use xlink:href="#f0_8" transform="matrix(12,0,0,12,507.4,437.6)" />
<use xlink:href="#f0_c" transform="matrix(12,0,0,12,518.7,437.6)" />
<use xlink:href="#f0_6" transform="matrix(12,0,0,12,523.8,437.6)" />
<use xlink:href="#f0_14" transform="matrix(12,0,0,12,530.9,437.6)" />
<use xlink:href="#f0_26" transform="matrix(12,0,0,12,538.1,437.6)" />
<use xlink:href="#f0_1l" transform="matrix(12,0,0,12,550.2,437.6)" />
<use xlink:href="#f0_1l" transform="matrix(12,0,0,12,561.8,437.6)" />
<use xlink:href="#f0_1o" transform="matrix(12,0,0,12,573.4,437.6)" />
<use xlink:href="#f0_1p" transform="matrix(12,0,0,12,585.1,437.6)" />
<use xlink:href="#f0_1h" transform="matrix(12,0,0,12,602.6,437.6)" />
<use xlink:href="#f0_v" transform="matrix(12,0,0,12,619.2,437.6)" />
<use xlink:href="#f0_1l" transform="matrix(12,0,0,12,631,437.6)" />
<use xlink:href="#f0_1m" transform="matrix(12,0,0,12,642.6,437.6)" />
<use xlink:href="#f0_1l" transform="matrix(12,0,0,12,654.2,437.6)" />
<use xlink:href="#f0_13" transform="matrix(12,0,0,12,671.7,437.6)" />
<use xlink:href="#f0_o" transform="matrix(12,0,0,12,678.9,437.6)" />
<use xlink:href="#f0_8" transform="matrix(12,0,0,12,683.9,437.6)" />
<use xlink:href="#f0_e" transform="matrix(12,0,0,12,695.2,437.6)" />
<use xlink:href="#f0_f" transform="matrix(12,0,0,12,706.8,437.6)" />
<use xlink:href="#f0_9" transform="matrix(12,0,0,12,718.3,437.6)" />
<use xlink:href="#f0_b" transform="matrix(12,0,0,12,727.9,437.6)" />
<use xlink:href="#f0_8" transform="matrix(12,0,0,12,738,437.6)" />
<use xlink:href="#f0_s" transform="matrix(12,0,0,12,749.3,437.6)" />
<use xlink:href="#f0_a" transform="matrix(12,0,0,12,760.9,437.6)" />
<use xlink:href="#f0_14" transform="matrix(12,0,0,12,772.2,437.6)" />
<use xlink:href="#f0_l" transform="matrix(12,0,0,12,779.3,437.6)" />
<use xlink:href="#f1_2" transform="matrix(12,0,0,12,121.2,477.6)" />
<use xlink:href="#f0_c" transform="matrix(12,0,0,12,127.7,477.6)" />
<use xlink:href="#f0_1g" transform="matrix(12,0,0,12,132.8,477.6)" />
<use xlink:href="#f0_8" transform="matrix(12,0,0,12,143,477.6)" />
<use xlink:href="#f0_f" transform="matrix(12,0,0,12,154.3,477.6)" />
<use xlink:href="#f0_1e" transform="matrix(12,0,0,12,165.9,477.6)" />
<use xlink:href="#f0_w" transform="matrix(12,0,0,12,178,477.6)" />
<use xlink:href="#f0_7" transform="matrix(12,0,0,12,189.1,477.6)" />
<use xlink:href="#f0_a" transform="matrix(12,0,0,12,200.7,477.6)" />
<use xlink:href="#f0_9" transform="matrix(12,0,0,12,212,477.6)" />
<use xlink:href="#f0_a" transform="matrix(12,0,0,12,221.5,477.6)" />
<use xlink:href="#f0_9" transform="matrix(12,0,0,12,238.7,477.6)" />
<use xlink:href="#f0_7" transform="matrix(12,0,0,12,248.2,477.6)" />
<use xlink:href="#f0_d" transform="matrix(12,0,0,12,259.8,477.6)" />
<use xlink:href="#f0_k" transform="matrix(12,0,0,12,270.9,477.6)" />
<use xlink:href="#f0_o" transform="matrix(12,0,0,12,282.5,477.6)" />
<use xlink:href="#f0_f" transform="matrix(12,0,0,12,287.7,477.6)" />
<use xlink:href="#f0_x" transform="matrix(12,0,0,12,305.1,477.6)" />
<use xlink:href="#f0_a" transform="matrix(12,0,0,12,316.7,477.6)" />
<use xlink:href="#f0_9" transform="matrix(12,0,0,12,333.8,477.6)" />
<use xlink:href="#f0_c" transform="matrix(12,0,0,12,343.5,477.6)" />
<use xlink:href="#f0_22" transform="matrix(12,0,0,12,348.5,477.6)" />
<use xlink:href="#f0_a" transform="matrix(12,0,0,12,358.1,477.6)" />
<use xlink:href="#f0_f" transform="matrix(12,0,0,12,369.4,477.6)" />
<use xlink:href="#f0_v" transform="matrix(12,0,0,12,386.8,477.6)" />
<use xlink:href="#f0_1o" transform="matrix(12,0,0,12,398.6,477.6)" />
<use xlink:href="#f0_1l" transform="matrix(12,0,0,12,410.2,477.6)" />
<use xlink:href="#f0_1m" transform="matrix(12,0,0,12,421.8,477.6)" />
<use xlink:href="#f0_1h" transform="matrix(12,0,0,12,439.3,477.6)" />
<use xlink:href="#f0_11" transform="matrix(12,0,0,12,456,477.6)" />
<use xlink:href="#f0_1m" transform="matrix(12,0,0,12,467.6,477.6)" />
<use xlink:href="#f0_1p" transform="matrix(12,0,0,12,479.3,477.6)" />
<use xlink:href="#f0_13" transform="matrix(12,0,0,12,496.8,477.6)" />
<use xlink:href="#f0_o" transform="matrix(12,0,0,12,503.9,477.6)" />
<use xlink:href="#f0_8" transform="matrix(12,0,0,12,509,477.6)" />
<use xlink:href="#f0_e" transform="matrix(12,0,0,12,520.3,477.6)" />
<use xlink:href="#f0_f" transform="matrix(12,0,0,12,531.9,477.6)" />
<use xlink:href="#f0_9" transform="matrix(12,0,0,12,543.5,477.6)" />
<use xlink:href="#f0_b" transform="matrix(12,0,0,12,553.1,477.6)" />
<use xlink:href="#f0_8" transform="matrix(12,0,0,12,563,477.6)" />
<use xlink:href="#f0_s" transform="matrix(12,0,0,12,574.3,477.6)" />
<use xlink:href="#f0_a" transform="matrix(12,0,0,12,585.9,477.6)" />
<use xlink:href="#f0_4" transform="matrix(12,0,0,12,597.2,477.6)" />
<use xlink:href="#f0_e" transform="matrix(12,0,0,12,609,477.6)" />
<use xlink:href="#f0_d" transform="matrix(12,0,0,12,620.6,477.6)" />
<use xlink:href="#f0_9" transform="matrix(12,0,0,12,637.5,477.6)" />
<use xlink:href="#f0_6" transform="matrix(12,0,0,12,647.1,477.6)" />
<use xlink:href="#f0_8" transform="matrix(12,0,0,12,654.1,477.6)" />
<use xlink:href="#f0_6" transform="matrix(12,0,0,12,665.4,477.6)" />
<use xlink:href="#f0_k" transform="matrix(12,0,0,12,672.6,477.6)" />
<use xlink:href="#f0_9" transform="matrix(12,0,0,12,684.2,477.6)" />
<use xlink:href="#f0_14" transform="matrix(12,0,0,12,693.8,477.6)" />
<use xlink:href="#f0_26" transform="matrix(12,0,0,12,701,477.6)" />
<use xlink:href="#f0_v" transform="matrix(12,0,0,12,712.9,477.6)" />
<use xlink:href="#f0_1o" transform="matrix(12,0,0,12,724.7,477.6)" />
<use xlink:href="#f0_1l" transform="matrix(12,0,0,12,736.3,477.6)" />
<use xlink:href="#f0_1m" transform="matrix(12,0,0,12,747.9,477.6)" />
<use xlink:href="#f0_1h" transform="matrix(12,0,0,12,765.4,477.6)" />
<use xlink:href="#f0_11" transform="matrix(12,0,0,12,782.1,477.6)" />
<use xlink:href="#f0_25" transform="matrix(12,0,0,12,793.7,477.6)" />
<use xlink:href="#f0_1p" transform="matrix(12,0,0,12,805.5,477.6)" />
<use xlink:href="#f0_13" transform="matrix(12,0,0,12,121.2,506.3)" />
<use xlink:href="#f0_o" transform="matrix(12,0,0,12,128.3,506.3)" />
<use xlink:href="#f0_8" transform="matrix(12,0,0,12,133.4,506.3)" />
<use xlink:href="#f0_e" transform="matrix(12,0,0,12,144.7,506.3)" />
<use xlink:href="#f0_f" transform="matrix(12,0,0,12,156.3,506.3)" />
<use xlink:href="#f0_9" transform="matrix(12,0,0,12,167.9,506.3)" />
<use xlink:href="#f0_b" transform="matrix(12,0,0,12,177.5,506.3)" />
<use xlink:href="#f0_8" transform="matrix(12,0,0,12,187.4,506.3)" />
<use xlink:href="#f0_s" transform="matrix(12,0,0,12,198.7,506.3)" />
<use xlink:href="#f0_a" transform="matrix(12,0,0,12,210.3,506.3)" />
<use xlink:href="#f0_4" transform="matrix(12,0,0,12,221.6,506.3)" />
<use xlink:href="#f0_h" transform="matrix(12,0,0,12,233.4,506.3)" />
<use xlink:href="#f0_k" transform="matrix(12,0,0,12,239.8,506.3)" />
<use xlink:href="#f0_o" transform="matrix(12,0,0,12,251.4,506.3)" />
<use xlink:href="#f0_o" transform="matrix(12,0,0,12,256.4,506.3)" />
<use xlink:href="#f0_9" transform="matrix(12,0,0,12,267.4,506.3)" />
<use xlink:href="#f0_b" transform="matrix(12,0,0,12,276.9,506.3)" />
<use xlink:href="#f0_g" transform="matrix(12,0,0,12,286.9,506.3)" />
<use xlink:href="#f0_a" transform="matrix(12,0,0,12,294,506.3)" />
<use xlink:href="#f0_a" transform="matrix(12,0,0,12,305.3,506.3)" />
<use xlink:href="#f0_e" transform="matrix(12,0,0,12,316.5,506.3)" />
<use xlink:href="#f0_14" transform="matrix(12,0,0,12,328.2,506.3)" />
<use xlink:href="#f0_26" transform="matrix(12,0,0,12,335.3,506.3)" />
<use xlink:href="#f0_1l" transform="matrix(12,0,0,12,347.4,506.3)" />
<use xlink:href="#f0_1o" transform="matrix(12,0,0,12,359,506.3)" />
<use xlink:href="#f0_1m" transform="matrix(12,0,0,12,370.7,506.3)" />
<use xlink:href="#f0_1p" transform="matrix(12,0,0,12,382.3,506.3)" />
<use xlink:href="#f0_1h" transform="matrix(12,0,0,12,399.9,506.3)" />
<use xlink:href="#f0_v" transform="matrix(12,0,0,12,416.5,506.3)" />
<use xlink:href="#f0_1m" transform="matrix(12,0,0,12,428.1,506.3)" />
<use xlink:href="#f0_1n" transform="matrix(12,0,0,12,439.7,506.3)" />
<use xlink:href="#f0_25" transform="matrix(12,0,0,12,451.5,506.3)" />
<use xlink:href="#f0_13" transform="matrix(12,0,0,12,468.9,506.3)" />
<use xlink:href="#f0_o" transform="matrix(12,0,0,12,476.1,506.3)" />
<use xlink:href="#f0_8" transform="matrix(12,0,0,12,481.1,506.3)" />
<use xlink:href="#f0_e" transform="matrix(12,0,0,12,492.4,506.3)" />
<use xlink:href="#f0_f" transform="matrix(12,0,0,12,504,506.3)" />
<use xlink:href="#f0_9" transform="matrix(12,0,0,12,515.6,506.3)" />
<use xlink:href="#f0_b" transform="matrix(12,0,0,12,525.2,506.3)" />
<use xlink:href="#f0_8" transform="matrix(12,0,0,12,535.2,506.3)" />
<use xlink:href="#f0_s" transform="matrix(12,0,0,12,546.5,506.3)" />
<use xlink:href="#f0_a" transform="matrix(12,0,0,12,558.1,506.3)" />
<use xlink:href="#f0_7" transform="matrix(12,0,0,12,575.2,506.3)" />
<use xlink:href="#f0_c" transform="matrix(12,0,0,12,586.8,506.3)" />
<use xlink:href="#f0_j" transform="matrix(12,0,0,12,592,506.3)" />
<use xlink:href="#f0_g" transform="matrix(12,0,0,12,598.5,506.3)" />
<use xlink:href="#f0_a" transform="matrix(12,0,0,12,605.5,506.3)" />
<use xlink:href="#f0_9" transform="matrix(12,0,0,12,616.8,506.3)" />
<use xlink:href="#f0_4" transform="matrix(12,0,0,12,626.4,506.3)" />
<use xlink:href="#f0_e" transform="matrix(12,0,0,12,638.1,506.3)" />
<use xlink:href="#f0_d" transform="matrix(12,0,0,12,649.7,506.3)" />
<use xlink:href="#f0_9" transform="matrix(12,0,0,12,666.8,506.3)" />
<use xlink:href="#f0_6" transform="matrix(12,0,0,12,676.4,506.3)" />
<use xlink:href="#f0_8" transform="matrix(12,0,0,12,683.4,506.3)" />
<use xlink:href="#f0_6" transform="matrix(12,0,0,12,694.7,506.3)" />
<use xlink:href="#f0_k" transform="matrix(12,0,0,12,701.9,506.3)" />
<use xlink:href="#f0_9" transform="matrix(12,0,0,12,713.5,506.3)" />
<use xlink:href="#f0_14" transform="matrix(12,0,0,12,723.1,506.3)" />
<use xlink:href="#f0_26" transform="matrix(12,0,0,12,730.3,506.3)" />
<use xlink:href="#f0_1l" transform="matrix(12,0,0,12,742.2,506.3)" />
<use xlink:href="#f0_1o" transform="matrix(12,0,0,12,753.8,506.3)" />
<use xlink:href="#f0_1m" transform="matrix(12,0,0,12,765.5,506.3)" />
<use xlink:href="#f0_1p" transform="matrix(12,0,0,12,777.1,506.3)" />
<use xlink:href="#f0_1h" transform="matrix(12,0,0,12,794.7,506.3)" />
<use xlink:href="#f0_v" transform="matrix(12,0,0,12,121.2,534.9)" />
<use xlink:href="#f0_24" transform="matrix(12,0,0,12,132.8,534.9)" />
<use xlink:href="#f0_12" transform="matrix(12,0,0,12,144.5,534.9)" />
<use xlink:href="#f0_25" transform="matrix(12,0,0,12,156.1,534.9)" />
<use xlink:href="#f0_13" transform="matrix(12,0,0,12,173.7,534.9)" />
<use xlink:href="#f0_o" transform="matrix(12,0,0,12,180.8,534.9)" />
<use xlink:href="#f0_8" transform="matrix(12,0,0,12,185.7,534.9)" />
<use xlink:href="#f0_e" transform="matrix(12,0,0,12,197,534.9)" />
<use xlink:href="#f0_f" transform="matrix(12,0,0,12,208.6,534.9)" />
<use xlink:href="#f0_9" transform="matrix(12,0,0,12,220.2,534.9)" />
<use xlink:href="#f0_b" transform="matrix(12,0,0,12,229.9,534.9)" />
<use xlink:href="#f0_8" transform="matrix(12,0,0,12,239.9,534.9)" />
<use xlink:href="#f0_s" transform="matrix(12,0,0,12,251.2,534.9)" />
<use xlink:href="#f0_a" transform="matrix(12,0,0,12,262.8,534.9)" />
<use xlink:href="#f0_7" transform="matrix(12,0,0,12,279.9,534.9)" />
<use xlink:href="#f0_c" transform="matrix(12,0,0,12,291.5,534.9)" />
<use xlink:href="#f0_j" transform="matrix(12,0,0,12,296.6,534.9)" />
<use xlink:href="#f0_g" transform="matrix(12,0,0,12,303.3,534.9)" />
<use xlink:href="#f0_a" transform="matrix(12,0,0,12,310.3,534.9)" />
<use xlink:href="#f0_9" transform="matrix(12,0,0,12,321.6,534.9)" />
<use xlink:href="#f0_4" transform="matrix(12,0,0,12,331.2,534.9)" />
<use xlink:href="#f0_h" transform="matrix(12,0,0,12,342.8,534.9)" />
<use xlink:href="#f0_k" transform="matrix(12,0,0,12,349.2,534.9)" />
<use xlink:href="#f0_o" transform="matrix(12,0,0,12,360.8,534.9)" />
<use xlink:href="#f0_o" transform="matrix(12,0,0,12,365.9,534.9)" />
<use xlink:href="#f0_9" transform="matrix(12,0,0,12,376.9,534.9)" />
<use xlink:href="#f0_b" transform="matrix(12,0,0,12,386.5,534.9)" />
<use xlink:href="#f0_g" transform="matrix(12,0,0,12,396.5,534.9)" />
<use xlink:href="#f0_a" transform="matrix(12,0,0,12,403.6,534.9)" />
<use xlink:href="#f0_a" transform="matrix(12,0,0,12,414.9,534.9)" />
<use xlink:href="#f0_e" transform="matrix(12,0,0,12,426.1,534.9)" />
<use xlink:href="#f0_14" transform="matrix(12,0,0,12,437.8,534.9)" />
<use xlink:href="#f0_26" transform="matrix(12,0,0,12,444.9,534.9)" />
<use xlink:href="#f0_11" transform="matrix(12,0,0,12,456.8,534.9)" />
<use xlink:href="#f0_25" transform="matrix(12,0,0,12,468.6,534.9)" />
<use xlink:href="#f0_1p" transform="matrix(12,0,0,12,480.2,534.9)" />
<use xlink:href="#f0_1h" transform="matrix(12,0,0,12,497.7,534.9)" />
<use xlink:href="#f0_v" transform="matrix(12,0,0,12,514.4,534.9)" />
<use xlink:href="#f0_1o" transform="matrix(12,0,0,12,526,534.9)" />
<use xlink:href="#f0_1o" transform="matrix(12,0,0,12,537.6,534.9)" />
<use xlink:href="#f0_1m" transform="matrix(12,0,0,12,549.3,534.9)" />
<use xlink:href="#f0_13" transform="matrix(12,0,0,12,566.8,534.9)" />
<use xlink:href="#f0_s" transform="matrix(12,0,0,12,573.9,534.9)" />
<use xlink:href="#f0_d" transform="matrix(12,0,0,12,585.5,534.9)" />
<use xlink:href="#f0_g" transform="matrix(12,0,0,12,596.8,534.9)" />
<use xlink:href="#f0_6" transform="matrix(12,0,0,12,604.3,534.9)" />
<use xlink:href="#f0_g" transform="matrix(12,0,0,12,611.5,534.9)" />
<use xlink:href="#f0_8" transform="matrix(12,0,0,12,619,534.9)" />
<use xlink:href="#f0_c" transform="matrix(12,0,0,12,630.3,534.9)" />
<use xlink:href="#f0_6" transform="matrix(12,0,0,12,635.3,534.9)" />
<use xlink:href="#f0_4" transform="matrix(12,0,0,12,642.5,534.9)" />
<use xlink:href="#f0_e" transform="matrix(12,0,0,12,654.2,534.9)" />
<use xlink:href="#f0_d" transform="matrix(12,0,0,12,665.9,534.9)" />
<use xlink:href="#f0_9" transform="matrix(12,0,0,12,682.8,534.9)" />
<use xlink:href="#f0_6" transform="matrix(12,0,0,12,692.4,534.9)" />
<use xlink:href="#f0_8" transform="matrix(12,0,0,12,699.4,534.9)" />
<use xlink:href="#f0_6" transform="matrix(12,0,0,12,710.7,534.9)" />
<use xlink:href="#f0_k" transform="matrix(12,0,0,12,717.9,534.9)" />
<use xlink:href="#f0_9" transform="matrix(12,0,0,12,729.5,534.9)" />
<use xlink:href="#f0_x" transform="matrix(12,0,0,12,744.9,534.9)" />
<use xlink:href="#f0_8" transform="matrix(12,0,0,12,756.5,534.9)" />
<use xlink:href="#f0_g" transform="matrix(12,0,0,12,767.8,534.9)" />
<use xlink:href="#f0_14" transform="matrix(12,0,0,12,775.3,534.9)" />
<use xlink:href="#f0_26" transform="matrix(12,0,0,12,782.5,534.9)" />
<use xlink:href="#f0_11" transform="matrix(12,0,0,12,121.2,563.6)" />
<use xlink:href="#f0_25" transform="matrix(12,0,0,12,132.8,563.6)" />
<use xlink:href="#f0_1p" transform="matrix(12,0,0,12,144.5,563.6)" />
<use xlink:href="#f0_1h" transform="matrix(12,0,0,12,161.9,563.6)" />
<use xlink:href="#f0_v" transform="matrix(12,0,0,12,178.7,563.6)" />
<use xlink:href="#f0_1o" transform="matrix(12,0,0,12,190.3,563.6)" />
<use xlink:href="#f0_1l" transform="matrix(12,0,0,12,201.9,563.6)" />
<use xlink:href="#f0_1m" transform="matrix(12,0,0,12,213.5,563.6)" />
<use xlink:href="#f0_13" transform="matrix(12,0,0,12,231.1,563.6)" />
<use xlink:href="#f0_s" transform="matrix(12,0,0,12,238.2,563.6)" />
<use xlink:href="#f0_d" transform="matrix(12,0,0,12,249.9,563.6)" />
<use xlink:href="#f0_g" transform="matrix(12,0,0,12,261,563.6)" />
<use xlink:href="#f0_6" transform="matrix(12,0,0,12,268.5,563.6)" />
<use xlink:href="#f0_g" transform="matrix(12,0,0,12,275.8,563.6)" />
<use xlink:href="#f0_8" transform="matrix(12,0,0,12,283.3,563.6)" />
<use xlink:href="#f0_c" transform="matrix(12,0,0,12,294.6,563.6)" />
<use xlink:href="#f0_6" transform="matrix(12,0,0,12,299.6,563.6)" />
<use xlink:href="#f0_4" transform="matrix(12,0,0,12,306.8,563.6)" />
<use xlink:href="#f0_h" transform="matrix(12,0,0,12,318.5,563.6)" />
<use xlink:href="#f0_k" transform="matrix(12,0,0,12,325,563.6)" />
<use xlink:href="#f0_o" transform="matrix(12,0,0,12,336.6,563.6)" />
<use xlink:href="#f0_o" transform="matrix(12,0,0,12,341.6,563.6)" />
<use xlink:href="#f0_9" transform="matrix(12,0,0,12,352.6,563.6)" />
<use xlink:href="#f0_b" transform="matrix(12,0,0,12,362.1,563.6)" />
<use xlink:href="#f0_g" transform="matrix(12,0,0,12,372.1,563.6)" />
<use xlink:href="#f0_a" transform="matrix(12,0,0,12,379.2,563.6)" />
<use xlink:href="#f0_a" transform="matrix(12,0,0,12,390.5,563.6)" />
<use xlink:href="#f0_e" transform="matrix(12,0,0,12,401.7,563.6)" />
<use xlink:href="#f0_14" transform="matrix(12,0,0,12,413.3,563.6)" />
<use xlink:href="#f0_26" transform="matrix(12,0,0,12,420.5,563.6)" />
<use xlink:href="#f0_v" transform="matrix(12,0,0,12,432.6,563.6)" />
<use xlink:href="#f0_24" transform="matrix(12,0,0,12,444.2,563.6)" />
<use xlink:href="#f0_12" transform="matrix(12,0,0,12,455.9,563.6)" />
<use xlink:href="#f0_25" transform="matrix(12,0,0,12,467.5,563.6)" />
<use xlink:href="#f0_1h" transform="matrix(12,0,0,12,485.1,563.6)" />
<use xlink:href="#f0_1l" transform="matrix(12,0,0,12,501.7,563.6)" />
<use xlink:href="#f0_1o" transform="matrix(12,0,0,12,513.3,563.6)" />
<use xlink:href="#f0_1o" transform="matrix(12,0,0,12,524.9,563.6)" />
<use xlink:href="#f0_1p" transform="matrix(12,0,0,12,536.7,563.6)" />
<use xlink:href="#f0_13" transform="matrix(12,0,0,12,554.1,563.6)" />
<use xlink:href="#f0_7" transform="matrix(12,0,0,12,561.3,563.6)" />
<use xlink:href="#f0_c" transform="matrix(12,0,0,12,572.9,563.6)" />
<use xlink:href="#f0_j" transform="matrix(12,0,0,12,577.9,563.6)" />
<use xlink:href="#f0_g" transform="matrix(12,0,0,12,584.6,563.6)" />
<use xlink:href="#f0_a" transform="matrix(12,0,0,12,591.7,563.6)" />
<use xlink:href="#f0_9" transform="matrix(12,0,0,12,603,563.6)" />
<use xlink:href="#f0_s" transform="matrix(12,0,0,12,618.4,563.6)" />
<use xlink:href="#f0_d" transform="matrix(12,0,0,12,630,563.6)" />
<use xlink:href="#f0_g" transform="matrix(12,0,0,12,641.1,563.6)" />
<use xlink:href="#f0_6" transform="matrix(12,0,0,12,648.6,563.6)" />
<use xlink:href="#f0_g" transform="matrix(12,0,0,12,655.9,563.6)" />
<use xlink:href="#f0_8" transform="matrix(12,0,0,12,663.4,563.6)" />
<use xlink:href="#f0_c" transform="matrix(12,0,0,12,674.7,563.6)" />
<use xlink:href="#f0_6" transform="matrix(12,0,0,12,679.7,563.6)" />
<use xlink:href="#f0_4" transform="matrix(12,0,0,12,686.9,563.6)" />
<use xlink:href="#f0_e" transform="matrix(12,0,0,12,698.7,563.6)" />
<use xlink:href="#f0_d" transform="matrix(12,0,0,12,710.3,563.6)" />
<use xlink:href="#f0_9" transform="matrix(12,0,0,12,727.2,563.6)" />
<use xlink:href="#f0_6" transform="matrix(12,0,0,12,736.8,563.6)" />
<use xlink:href="#f0_8" transform="matrix(12,0,0,12,743.9,563.6)" />
<use xlink:href="#f0_6" transform="matrix(12,0,0,12,755.2,563.6)" />
<use xlink:href="#f0_k" transform="matrix(12,0,0,12,762.3,563.6)" />
<use xlink:href="#f0_9" transform="matrix(12,0,0,12,773.9,563.6)" />
<use xlink:href="#f0_x" transform="matrix(12,0,0,12,121.2,592.2)" />
<use xlink:href="#f0_8" transform="matrix(12,0,0,12,132.8,592.2)" />
<use xlink:href="#f0_g" transform="matrix(12,0,0,12,144.1,592.2)" />
<use xlink:href="#f0_14" transform="matrix(12,0,0,12,151.5,592.2)" />
<use xlink:href="#f0_26" transform="matrix(12,0,0,12,158.7,592.2)" />
<use xlink:href="#f0_v" transform="matrix(12,0,0,12,170.8,592.2)" />
<use xlink:href="#f0_24" transform="matrix(12,0,0,12,182.4,592.2)" />
<use xlink:href="#f0_12" transform="matrix(12,0,0,12,194,592.2)" />
<use xlink:href="#f0_25" transform="matrix(12,0,0,12,205.7,592.2)" />
<use xlink:href="#f0_1h" transform="matrix(12,0,0,12,223.1,592.2)" />
<use xlink:href="#f0_1l" transform="matrix(12,0,0,12,239.8,592.2)" />
<use xlink:href="#f0_1o" transform="matrix(12,0,0,12,251.5,592.2)" />
<use xlink:href="#f0_1m" transform="matrix(12,0,0,12,263.1,592.2)" />
<use xlink:href="#f0_1p" transform="matrix(12,0,0,12,274.7,592.2)" />
<use xlink:href="#f0_13" transform="matrix(12,0,0,12,292.3,592.2)" />
<use xlink:href="#f0_7" transform="matrix(12,0,0,12,299.5,592.2)" />
<use xlink:href="#f0_c" transform="matrix(12,0,0,12,311.1,592.2)" />
<use xlink:href="#f0_j" transform="matrix(12,0,0,12,316.1,592.2)" />
<use xlink:href="#f0_g" transform="matrix(12,0,0,12,322.7,592.2)" />
<use xlink:href="#f0_a" transform="matrix(12,0,0,12,329.7,592.2)" />
<use xlink:href="#f0_9" transform="matrix(12,0,0,12,341,592.2)" />
<use xlink:href="#f0_s" transform="matrix(12,0,0,12,356.6,592.2)" />
<use xlink:href="#f0_d" transform="matrix(12,0,0,12,368.2,592.2)" />
<use xlink:href="#f0_g" transform="matrix(12,0,0,12,379.3,592.2)" />
<use xlink:href="#f0_6" transform="matrix(12,0,0,12,386.8,592.2)" />
<use xlink:href="#f0_g" transform="matrix(12,0,0,12,394,592.2)" />
<use xlink:href="#f0_8" transform="matrix(12,0,0,12,401.5,592.2)" />
<use xlink:href="#f0_c" transform="matrix(12,0,0,12,412.7,592.2)" />
<use xlink:href="#f0_6" transform="matrix(12,0,0,12,417.8,592.2)" />
<use xlink:href="#f0_4" transform="matrix(12,0,0,12,425.1,592.2)" />
<use xlink:href="#f0_h" transform="matrix(12,0,0,12,436.7,592.2)" />
<use xlink:href="#f0_k" transform="matrix(12,0,0,12,443.1,592.2)" />
<use xlink:href="#f0_o" transform="matrix(12,0,0,12,454.7,592.2)" />
<use xlink:href="#f0_o" transform="matrix(12,0,0,12,459.9,592.2)" />
<use xlink:href="#f0_9" transform="matrix(12,0,0,12,470.8,592.2)" />
<use xlink:href="#f0_b" transform="matrix(12,0,0,12,480.4,592.2)" />
<use xlink:href="#f0_g" transform="matrix(12,0,0,12,490.4,592.2)" />
<use xlink:href="#f0_a" transform="matrix(12,0,0,12,497.5,592.2)" />
<use xlink:href="#f0_a" transform="matrix(12,0,0,12,508.8,592.2)" />
<use xlink:href="#f0_e" transform="matrix(12,0,0,12,520,592.2)" />
<use xlink:href="#f0_14" transform="matrix(12,0,0,12,531.7,592.2)" />
<use xlink:href="#f0_l" transform="matrix(12,0,0,12,538.8,592.2)" />
<use xlink:href="#f1_2" transform="matrix(12,0,0,12,121.2,632.3)" />
<use xlink:href="#f0_c" transform="matrix(12,0,0,12,127.7,632.3)" />
<use xlink:href="#f0_1g" transform="matrix(12,0,0,12,132.8,632.3)" />
<use xlink:href="#f0_8" transform="matrix(12,0,0,12,143,632.3)" />
<use xlink:href="#f0_f" transform="matrix(12,0,0,12,154.3,632.3)" />
<use xlink:href="#f0_1g" transform="matrix(12,0,0,12,171.7,632.3)" />
<use xlink:href="#f0_g" transform="matrix(12,0,0,12,182.6,632.3)" />
<use xlink:href="#f0_d" transform="matrix(12,0,0,12,189.6,632.3)" />
<use xlink:href="#f0_1e" transform="matrix(12,0,0,12,200.9,632.3)" />
<use xlink:href="#f0_18" transform="matrix(12,0,0,12,212.8,632.3)" />
<use xlink:href="#f0_c" transform="matrix(12,0,0,12,224.4,632.3)" />
<use xlink:href="#f0_22" transform="matrix(12,0,0,12,229.4,632.3)" />
<use xlink:href="#f0_a" transform="matrix(12,0,0,12,239,632.3)" />
<use xlink:href="#f0_f" transform="matrix(12,0,0,12,250.3,632.3)" />
<use xlink:href="#f0_1l" transform="matrix(12,0,0,12,267.9,632.3)" />
<use xlink:href="#f0_1o" transform="matrix(12,0,0,12,279.5,632.3)" />
<use xlink:href="#f0_1m" transform="matrix(12,0,0,12,291.1,632.3)" />
<use xlink:href="#f0_1p" transform="matrix(12,0,0,12,302.9,632.3)" />
<use xlink:href="#f0_1h" transform="matrix(12,0,0,12,320.3,632.3)" />
<use xlink:href="#f0_1l" transform="matrix(12,0,0,12,337.1,632.3)" />
<use xlink:href="#f0_11" transform="matrix(12,0,0,12,348.7,632.3)" />
<use xlink:href="#f0_12" transform="matrix(12,0,0,12,360.3,632.3)" />
<use xlink:href="#f0_1l" transform="matrix(12,0,0,12,371.9,632.3)" />
<use xlink:href="#f0_13" transform="matrix(12,0,0,12,389.4,632.3)" />
<use xlink:href="#f0_s" transform="matrix(12,0,0,12,396.6,632.3)" />
<use xlink:href="#f0_d" transform="matrix(12,0,0,12,408.2,632.3)" />
<use xlink:href="#f0_g" transform="matrix(12,0,0,12,419.4,632.3)" />
<use xlink:href="#f0_6" transform="matrix(12,0,0,12,426.8,632.3)" />
<use xlink:href="#f0_g" transform="matrix(12,0,0,12,434.1,632.3)" />
<use xlink:href="#f0_8" transform="matrix(12,0,0,12,441.6,632.3)" />
<use xlink:href="#f0_c" transform="matrix(12,0,0,12,452.9,632.3)" />
<use xlink:href="#f0_6" transform="matrix(12,0,0,12,458,632.3)" />
<use xlink:href="#f0_14" transform="matrix(12,0,0,12,465.1,632.3)" />
<use xlink:href="#f0_26" transform="matrix(12,0,0,12,472.3,632.3)" />
<use xlink:href="#f0_1l" transform="matrix(12,0,0,12,484.4,632.3)" />
<use xlink:href="#f0_11" transform="matrix(12,0,0,12,496,632.3)" />
<use xlink:href="#f0_12" transform="matrix(12,0,0,12,507.6,632.3)" />
<use xlink:href="#f0_1l" transform="matrix(12,0,0,12,519.2,632.3)" />
<use xlink:href="#f0_1h" transform="matrix(12,0,0,12,536.7,632.3)" />
<use xlink:href="#f0_1l" transform="matrix(12,0,0,12,553.4,632.3)" />
<use xlink:href="#f0_1o" transform="matrix(12,0,0,12,565,632.3)" />
<use xlink:href="#f0_1m" transform="matrix(12,0,0,12,576.7,632.3)" />
<use xlink:href="#f0_1p" transform="matrix(12,0,0,12,588.3,632.3)" />
<use xlink:href="#f0_13" transform="matrix(12,0,0,12,605.9,632.3)" />
<use xlink:href="#f0_o" transform="matrix(12,0,0,12,613.1,632.3)" />
<use xlink:href="#f0_8" transform="matrix(12,0,0,12,618,632.3)" />
<use xlink:href="#f0_e" transform="matrix(12,0,0,12,629.3,632.3)" />
<use xlink:href="#f0_f" transform="matrix(12,0,0,12,640.9,632.3)" />
<use xlink:href="#f0_9" transform="matrix(12,0,0,12,652.5,632.3)" />
<use xlink:href="#f0_b" transform="matrix(12,0,0,12,662.1,632.3)" />
<use xlink:href="#f0_8" transform="matrix(12,0,0,12,672.1,632.3)" />
<use xlink:href="#f0_s" transform="matrix(12,0,0,12,683.4,632.3)" />
<use xlink:href="#f0_a" transform="matrix(12,0,0,12,695,632.3)" />
<use xlink:href="#f0_14" transform="matrix(12,0,0,12,706.3,632.3)" />
<use xlink:href="#f0_l" transform="matrix(12,0,0,12,713.5,632.3)" />
</g>
</g>
<path fill-rule="evenodd" d="M86.6,676.8h57.2V653.1H86.6v23.7Z" class="g0_26" />
<g clip-path="url(#c0_26)">
<g fill="#0000FF" >
<use xlink:href="#f2_1e" transform="matrix(12,0,0,12,86.8,671.2)" />
<use xlink:href="#f2_2b" transform="matrix(12,0,0,12,100.1,671.2)" />
<use xlink:href="#f2_2g" transform="matrix(12,0,0,12,111.2,671.2)" />
<use xlink:href="#f2_21" transform="matrix(12,0,0,12,117.3,671.2)" />
<use xlink:href="#f2_2f" transform="matrix(12,0,0,12,127.5,671.2)" />
<use xlink:href="#f2_u" transform="matrix(12,0,0,12,137.7,671.2)" />
</g>
</g>
<path fill-rule="evenodd" d="M143.8,676.8h5V653.1h-5v23.7Z" class="g0_26" />
<path fill-rule="evenodd" d="M148.8,675.4H788.9V654H148.8v21.4Z" class="g0_26" />
<g clip-path="url(#c0_26)">
<g fill="#000000" >
<use xlink:href="#f0_1r" transform="matrix(12,0,0,12,149,671.2)" />
<use xlink:href="#f0_d" transform="matrix(12,0,0,12,157.8,671.2)" />
<use xlink:href="#f0_k" transform="matrix(12,0,0,12,169,671.2)" />
<use xlink:href="#f0_g" transform="matrix(12,0,0,12,180.6,671.2)" />
<use xlink:href="#f0_c" transform="matrix(12,0,0,12,194,671.2)" />
<use xlink:href="#f0_u" transform="matrix(12,0,0,12,199,671.2)" />
<use xlink:href="#f0_8" transform="matrix(12,0,0,12,216.8,671.2)" />
<use xlink:href="#f0_q" transform="matrix(12,0,0,12,228.1,671.2)" />
<use xlink:href="#f0_a" transform="matrix(12,0,0,12,239.7,671.2)" />
<use xlink:href="#f0_9" transform="matrix(12,0,0,12,251,671.2)" />
<use xlink:href="#f0_b" transform="matrix(12,0,0,12,266.4,671.2)" />
<use xlink:href="#f0_8" transform="matrix(12,0,0,12,276.4,671.2)" />
<use xlink:href="#f0_e" transform="matrix(12,0,0,12,287.7,671.2)" />
<use xlink:href="#f0_x" transform="matrix(12,0,0,12,305.2,671.2)" />
<use xlink:href="#f0_a" transform="matrix(12,0,0,12,316.8,671.2)" />
<use xlink:href="#f0_c" transform="matrix(12,0,0,12,333.9,671.2)" />
<use xlink:href="#f0_e" transform="matrix(12,0,0,12,338.9,671.2)" />
<use xlink:href="#f0_27" transform="matrix(12,0,0,12,356.5,671.2)" />
<use xlink:href="#f0_1g" transform="matrix(12,0,0,12,361.8,671.2)" />
<use xlink:href="#f0_1d" transform="matrix(12,0,0,12,372.8,671.2)" />
<use xlink:href="#f0_1v" transform="matrix(12,0,0,12,384.4,671.2)" />
<use xlink:href="#f0_d" transform="matrix(12,0,0,12,404.4,671.2)" />
<use xlink:href="#f0_g" transform="matrix(12,0,0,12,415.7,671.2)" />
<use xlink:href="#f0_1g" transform="matrix(12,0,0,12,429,671.2)" />
<use xlink:href="#f0_10" transform="matrix(12,0,0,12,440,671.2)" />
<use xlink:href="#f0_1v" transform="matrix(12,0,0,12,453.7,671.2)" />
<use xlink:href="#f0_h" transform="matrix(12,0,0,12,473.8,671.2)" />
<use xlink:href="#f0_d" transform="matrix(12,0,0,12,480.3,671.2)" />
<use xlink:href="#f0_g" transform="matrix(12,0,0,12,491.4,671.2)" />
<use xlink:href="#f0_u" transform="matrix(12,0,0,12,498.6,671.2)" />
<use xlink:href="#f0_8" transform="matrix(12,0,0,12,516.4,671.2)" />
<use xlink:href="#f0_6" transform="matrix(12,0,0,12,527.7,671.2)" />
<use xlink:href="#f0_l" transform="matrix(12,0,0,12,534.9,671.2)" />
<use xlink:href="#f0_1k" transform="matrix(12,0,0,12,546.6,671.2)" />
<use xlink:href="#f0_6" transform="matrix(12,0,0,12,558.8,671.2)" />
<use xlink:href="#f0_o" transform="matrix(12,0,0,12,571.9,671.2)" />
<use xlink:href="#f0_a" transform="matrix(12,0,0,12,576.9,671.2)" />
<use xlink:href="#f0_8" transform="matrix(12,0,0,12,588.1,671.2)" />
<use xlink:href="#f0_9" transform="matrix(12,0,0,12,599.4,671.2)" />
<use xlink:href="#f0_6" transform="matrix(12,0,0,12,609,671.2)" />
<use xlink:href="#f0_d" transform="matrix(12,0,0,12,622,671.2)" />
<use xlink:href="#f0_e" transform="matrix(12,0,0,12,633.1,671.2)" />
<use xlink:href="#f0_a" transform="matrix(12,0,0,12,644.7,671.2)" />
<use xlink:href="#f0_9" transform="matrix(12,0,0,12,661.9,671.2)" />
<use xlink:href="#f0_b" transform="matrix(12,0,0,12,671.5,671.2)" />
<use xlink:href="#f0_g" transform="matrix(12,0,0,12,681.5,671.2)" />
<use xlink:href="#f0_a" transform="matrix(12,0,0,12,688.5,671.2)" />
<use xlink:href="#f0_a" transform="matrix(12,0,0,12,699.8,671.2)" />
<use xlink:href="#f0_e" transform="matrix(12,0,0,12,711.1,671.2)" />
<use xlink:href="#f0_9" transform="matrix(12,0,0,12,722.7,671.2)" />
<use xlink:href="#f0_7" transform="matrix(12,0,0,12,732.3,671.2)" />
<use xlink:href="#f0_d" transform="matrix(12,0,0,12,743.9,671.2)" />
<use xlink:href="#f0_6" transform="matrix(12,0,0,12,755.1,671.2)" />
<use xlink:href="#f0_c" transform="matrix(12,0,0,12,768.2,671.2)" />
<use xlink:href="#f0_9" transform="matrix(12,0,0,12,773.1,671.2)" />
</g>
</g>
<path fill-rule="evenodd" d="M86.6,705.4H810.5V684H86.6v21.4Z" class="g0_26" />
<g clip-path="url(#c0_26)">
<g fill="#000000" >
<use xlink:href="#f0_g" transform="matrix(12,0,0,12,86.8,701.1)" />
<use xlink:href="#f0_a" transform="matrix(12,0,0,12,93.8,701.1)" />
<use xlink:href="#f0_21" transform="matrix(12,0,0,12,105.1,701.1)" />
<use xlink:href="#f0_k" transform="matrix(12,0,0,12,116.8,701.1)" />
<use xlink:href="#f0_c" transform="matrix(12,0,0,12,128.4,701.1)" />
<use xlink:href="#f0_g" transform="matrix(12,0,0,12,133.5,701.1)" />
<use xlink:href="#f0_a" transform="matrix(12,0,0,12,140.5,701.1)" />
<use xlink:href="#f0_f" transform="matrix(12,0,0,12,152,701.1)" />
<use xlink:href="#f0_h" transform="matrix(12,0,0,12,169.4,701.1)" />
<use xlink:href="#f0_d" transform="matrix(12,0,0,12,175.8,701.1)" />
<use xlink:href="#f0_g" transform="matrix(12,0,0,12,187.1,701.1)" />
<use xlink:href="#f0_a" transform="matrix(12,0,0,12,200.4,701.1)" />
<use xlink:href="#f0_8" transform="matrix(12,0,0,12,211.7,701.1)" />
<use xlink:href="#f0_b" transform="matrix(12,0,0,12,223,701.1)" />
<use xlink:href="#f0_7" transform="matrix(12,0,0,12,233,701.1)" />
<use xlink:href="#f0_f" transform="matrix(12,0,0,12,250.4,701.1)" />
<use xlink:href="#f0_a" transform="matrix(12,0,0,12,262,701.1)" />
<use xlink:href="#f0_t" transform="matrix(12,0,0,12,273.3,701.1)" />
<use xlink:href="#f0_c" transform="matrix(12,0,0,12,284.2,701.1)" />
<use xlink:href="#f0_b" transform="matrix(12,0,0,12,289.2,701.1)" />
<use xlink:href="#f0_a" transform="matrix(12,0,0,12,299.3,701.1)" />
<use xlink:href="#f0_p" transform="matrix(12,0,0,12,316.4,701.1)" />
<use xlink:href="#f0_d" transform="matrix(12,0,0,12,327.2,701.1)" />
<use xlink:href="#f0_k" transform="matrix(12,0,0,12,338.4,701.1)" />
<use xlink:href="#f0_g" transform="matrix(12,0,0,12,350.1,701.1)" />
<use xlink:href="#f0_8" transform="matrix(12,0,0,12,363.4,701.1)" />
<use xlink:href="#f0_s" transform="matrix(12,0,0,12,374.7,701.1)" />
<use xlink:href="#f0_s" transform="matrix(12,0,0,12,386.3,701.1)" />
<use xlink:href="#f0_9" transform="matrix(12,0,0,12,403.7,701.1)" />
<use xlink:href="#f0_k" transform="matrix(12,0,0,12,413.3,701.1)" />
<use xlink:href="#f0_s" transform="matrix(12,0,0,12,424.9,701.1)" />
<use xlink:href="#f0_s" transform="matrix(12,0,0,12,436.5,701.1)" />
<use xlink:href="#f0_d" transform="matrix(12,0,0,12,448.1,701.1)" />
<use xlink:href="#f0_g" transform="matrix(12,0,0,12,459.3,701.1)" />
<use xlink:href="#f0_6" transform="matrix(12,0,0,12,466.9,701.1)" />
<use xlink:href="#f0_9" transform="matrix(12,0,0,12,474.1,701.1)" />
<use xlink:href="#f0_13" transform="matrix(12,0,0,12,489.5,701.1)" />
<use xlink:href="#f0_u" transform="matrix(12,0,0,12,496.5,701.1)" />
<use xlink:href="#f0_8" transform="matrix(12,0,0,12,514.4,701.1)" />
<use xlink:href="#f0_1h" transform="matrix(12,0,0,12,525.7,701.1)" />
<use xlink:href="#f0_c" transform="matrix(12,0,0,12,536.5,701.1)" />
<use xlink:href="#f0_u" transform="matrix(12,0,0,12,541.6,701.1)" />
<use xlink:href="#f0_k" transform="matrix(12,0,0,12,559.4,701.1)" />
<use xlink:href="#f0_u" transform="matrix(12,0,0,12,571,701.1)" />
<use xlink:href="#f0_24" transform="matrix(12,0,0,12,594.7,701.1)" />
<use xlink:href="#f0_h" transform="matrix(12,0,0,12,612.3,701.1)" />
<use xlink:href="#f0_d" transform="matrix(12,0,0,12,618.7,701.1)" />
<use xlink:href="#f0_g" transform="matrix(12,0,0,12,629.8,701.1)" />
<use xlink:href="#f0_a" transform="matrix(12,0,0,12,643.3,701.1)" />
<use xlink:href="#f0_8" transform="matrix(12,0,0,12,654.6,701.1)" />
<use xlink:href="#f0_b" transform="matrix(12,0,0,12,665.7,701.1)" />
<use xlink:href="#f0_7" transform="matrix(12,0,0,12,675.8,701.1)" />
<use xlink:href="#f0_14" transform="matrix(12,0,0,12,687.4,701.1)" />
<use xlink:href="#f0_l" transform="matrix(12,0,0,12,694.5,701.1)" />
<use xlink:href="#f0_1r" transform="matrix(12,0,0,12,706.3,701.1)" />
<use xlink:href="#f0_d" transform="matrix(12,0,0,12,715,701.1)" />
<use xlink:href="#f0_k" transform="matrix(12,0,0,12,726.2,701.1)" />
<use xlink:href="#f0_9" transform="matrix(12,0,0,12,743.7,701.1)" />
<use xlink:href="#f0_7" transform="matrix(12,0,0,12,753.2,701.1)" />
<use xlink:href="#f0_d" transform="matrix(12,0,0,12,764.8,701.1)" />
<use xlink:href="#f0_k" transform="matrix(12,0,0,12,775.9,701.1)" />
<use xlink:href="#f0_o" transform="matrix(12,0,0,12,787.7,701.1)" />
<use xlink:href="#f0_f" transform="matrix(12,0,0,12,792.7,701.1)" />
</g>
</g>
<path fill-rule="evenodd" d="M86.6,734.1H460V712.7H86.6v21.4Z" class="g0_26" />
<g clip-path="url(#c0_26)">
<g fill="#000000" >
<use xlink:href="#f0_e" transform="matrix(12,0,0,12,86.8,729.7)" />
<use xlink:href="#f0_d" transform="matrix(12,0,0,12,98.4,729.7)" />
<use xlink:href="#f0_6" transform="matrix(12,0,0,12,109.5,729.7)" />
<use xlink:href="#f0_c" transform="matrix(12,0,0,12,122.7,729.7)" />
<use xlink:href="#f0_e" transform="matrix(12,0,0,12,127.7,729.7)" />
<use xlink:href="#f0_b" transform="matrix(12,0,0,12,139.3,729.7)" />
<use xlink:href="#f0_o" transform="matrix(12,0,0,12,149.4,729.7)" />
<use xlink:href="#f0_k" transform="matrix(12,0,0,12,154.4,729.7)" />
<use xlink:href="#f0_f" transform="matrix(12,0,0,12,166.2,729.7)" />
<use xlink:href="#f0_a" transform="matrix(12,0,0,12,177.8,729.7)" />
<use xlink:href="#f0_6" transform="matrix(12,0,0,12,194.9,729.7)" />
<use xlink:href="#f0_7" transform="matrix(12,0,0,12,202.1,729.7)" />
<use xlink:href="#f0_a" transform="matrix(12,0,0,12,213.7,729.7)" />
<use xlink:href="#f0_9" transform="matrix(12,0,0,12,230.8,729.7)" />
<use xlink:href="#f0_6" transform="matrix(12,0,0,12,240.4,729.7)" />
<use xlink:href="#f0_8" transform="matrix(12,0,0,12,247.4,729.7)" />
<use xlink:href="#f0_6" transform="matrix(12,0,0,12,258.7,729.7)" />
<use xlink:href="#f0_k" transform="matrix(12,0,0,12,265.9,729.7)" />
<use xlink:href="#f0_9" transform="matrix(12,0,0,12,277.5,729.7)" />
<use xlink:href="#f0_x" transform="matrix(12,0,0,12,292.9,729.7)" />
<use xlink:href="#f0_8" transform="matrix(12,0,0,12,304.5,729.7)" />
<use xlink:href="#f0_g" transform="matrix(12,0,0,12,315.8,729.7)" />
<use xlink:href="#f0_c" transform="matrix(12,0,0,12,329.1,729.7)" />
<use xlink:href="#f0_e" transform="matrix(12,0,0,12,334.1,729.7)" />
<use xlink:href="#f0_6" transform="matrix(12,0,0,12,351.7,729.7)" />
<use xlink:href="#f0_7" transform="matrix(12,0,0,12,358.9,729.7)" />
<use xlink:href="#f0_a" transform="matrix(12,0,0,12,370.5,729.7)" />
<use xlink:href="#f0_c" transform="matrix(12,0,0,12,387.6,729.7)" />
<use xlink:href="#f0_u" transform="matrix(12,0,0,12,392.6,729.7)" />
<use xlink:href="#f0_8" transform="matrix(12,0,0,12,410.5,729.7)" />
<use xlink:href="#f0_q" transform="matrix(12,0,0,12,421.8,729.7)" />
<use xlink:href="#f0_a" transform="matrix(12,0,0,12,433.4,729.7)" />
<use xlink:href="#f0_9" transform="matrix(12,0,0,12,444.5,729.7)" />
<use xlink:href="#f0_l" transform="matrix(12,0,0,12,454.1,729.7)" />
<use xlink:href="#f0_2" transform="matrix(12,0,0,12,86.8,787)" />
<use xlink:href="#f0_e" transform="matrix(12,0,0,12,101.1,787)" />
<use xlink:href="#f0_b" transform="matrix(12,0,0,12,112.7,787)" />
<use xlink:href="#f0_a" transform="matrix(12,0,0,12,122.8,787)" />
<use xlink:href="#f0_p" transform="matrix(12,0,0,12,140.1,787)" />
<use xlink:href="#f0_d" transform="matrix(12,0,0,12,150.9,787)" />
<use xlink:href="#f0_k" transform="matrix(12,0,0,12,162,787)" />
<use xlink:href="#f0_r" transform="matrix(12,0,0,12,173.6,787)" />
<use xlink:href="#f0_t" transform="matrix(12,0,0,12,179.5,787)" />
<use xlink:href="#f0_a" transform="matrix(12,0,0,12,190.3,787)" />
<use xlink:href="#f0_q" transform="matrix(12,0,0,12,207.4,787)" />
<use xlink:href="#f0_d" transform="matrix(12,0,0,12,219.1,787)" />
<use xlink:href="#f0_6" transform="matrix(12,0,0,12,230.3,787)" />
<use xlink:href="#f0_8" transform="matrix(12,0,0,12,243.3,787)" />
<use xlink:href="#f0_o" transform="matrix(12,0,0,12,254.6,787)" />
<use xlink:href="#f0_o" transform="matrix(12,0,0,12,259.6,787)" />
<use xlink:href="#f0_6" transform="matrix(12,0,0,12,270.6,787)" />
<use xlink:href="#f0_7" transform="matrix(12,0,0,12,277.8,787)" />
<use xlink:href="#f0_c" transform="matrix(12,0,0,12,289.4,787)" />
<use xlink:href="#f0_9" transform="matrix(12,0,0,12,294.4,787)" />
<use xlink:href="#f0_8" transform="matrix(12,0,0,12,309.9,787)" />
<use xlink:href="#f0_9" transform="matrix(12,0,0,12,321,787)" />
<use xlink:href="#f0_9" transform="matrix(12,0,0,12,330.6,787)" />
<use xlink:href="#f0_a" transform="matrix(12,0,0,12,340.1,787)" />
<use xlink:href="#f0_u" transform="matrix(12,0,0,12,351.4,787)" />
<use xlink:href="#f0_x" transform="matrix(12,0,0,12,369.2,787)" />
<use xlink:href="#f0_o" transform="matrix(12,0,0,12,380.8,787)" />
<use xlink:href="#f0_a" transform="matrix(12,0,0,12,385.9,787)" />
<use xlink:href="#f0_f" transform="matrix(12,0,0,12,397.2,787)" />
<use xlink:href="#f0_4" transform="matrix(12,0,0,12,408.8,787)" />
<use xlink:href="#f0_b" transform="matrix(12,0,0,12,420.5,787)" />
<use xlink:href="#f0_o" transform="matrix(12,0,0,12,430.6,787)" />
<use xlink:href="#f0_c" transform="matrix(12,0,0,12,435.6,787)" />
<use xlink:href="#f0_b" transform="matrix(12,0,0,12,440.7,787)" />
<use xlink:href="#f0_i" transform="matrix(12,0,0,12,450.7,787)" />
</g>
<g fill="#0000FF" >
<use xlink:href="#f3_1b" transform="matrix(12,0,0,12,467.5,787)" />
<use xlink:href="#f3_y" transform="matrix(12,0,0,12,485.7,787)" />
<use xlink:href="#f3_n" transform="matrix(12,0,0,12,504.1,787)" />
<use xlink:href="#f3_q" transform="matrix(12,0,0,12,518.2,787)" />
<use xlink:href="#f3_q" transform="matrix(12,0,0,12,531.3,787)" />
<use xlink:href="#f3_k" transform="matrix(12,0,0,12,544.4,787)" />
</g>
<g fill="#000000" >
<use xlink:href="#f0_c" transform="matrix(12,0,0,12,561.9,787)" />
<use xlink:href="#f0_e" transform="matrix(12,0,0,12,567,787)" />
<use xlink:href="#f0_c" transform="matrix(12,0,0,12,584.4,787)" />
<use xlink:href="#f0_w" transform="matrix(12,0,0,12,589.4,787)" />
<use xlink:href="#f0_k" transform="matrix(12,0,0,12,597.8,787)" />
<use xlink:href="#f0_e" transform="matrix(12,0,0,12,609.4,787)" />
<use xlink:href="#f0_a" transform="matrix(12,0,0,12,621,787)" />
<use xlink:href="#f0_9" transform="matrix(12,0,0,12,632.3,787)" />
<use xlink:href="#f0_1f" transform="matrix(12,0,0,12,647.7,787)" />
<use xlink:href="#f0_d" transform="matrix(12,0,0,12,660.5,787)" />
<use xlink:href="#f0_e" transform="matrix(12,0,0,12,671.7,787)" />
<use xlink:href="#f0_e" transform="matrix(12,0,0,12,683.3,787)" />
<use xlink:href="#f0_a" transform="matrix(12,0,0,12,694.9,787)" />
<use xlink:href="#f0_b" transform="matrix(12,0,0,12,706.2,787)" />
<use xlink:href="#f0_6" transform="matrix(12,0,0,12,716.3,787)" />
<use xlink:href="#f0_1e" transform="matrix(12,0,0,12,723.6,787)" />
</g>
</g>
<defs>
<path d="M166,0V729H35V836H166v58c0,0,0,139,65,203c0,0,65,64,206,64H567V1046H435c0,0,-74,0,-102,-29c0,0,-29,-30,-29,-107V836H530V729H304V0Z" 
id="f0_h"
transform="scale(0.001,-0.001)" />

<path d="M424,-20c0,0,-145,0,-219,88c0,0,-75,89,-75,262V836H267V335c0,0,0,-119,46,-178c0,0,47,-59,139,-59c0,0,112,0,177,71c0,0,64,71,64,193V836H830V0H693V128C693,128,643,52,577,15c0,0,-66,-35,-153,-35Z" 
id="f0_k"
transform="scale(0.001,-0.001)" />

<path d="M139,0V836H277V706c0,0,43,76,112,113c0,0,70,37,169,37c0,0,14,0,31,-2c0,0,17,-2,38,-6l1,-141c0,0,-23,14,-51,20c0,0,-27,6,-60,6c0,0,-116,0,-178,-75c0,0,-62,-76,-62,-218V0Z" 
id="f0_g"
transform="scale(0.001,-0.001)" />

<path d="M421,0C421,0,263,0,202,59c0,0,-60,60,-60,217V729H41V836H142v238H280V836H562V729H280V276c0,0,0,-102,28,-132c0,0,28,-29,113,-29H562V0Z" 
id="f0_6"
transform="scale(0.001,-0.001)" />

<path d="M139,0V1161H277V706c0,0,49,75,116,112c0,0,67,38,154,38c0,0,144,0,218,-90c0,0,74,-89,74,-262V0H702V500c0,0,0,119,-46,177c0,0,-47,59,-139,59c0,0,-112,0,-176,-71c0,0,-64,-70,-64,-193V0Z" 
id="f0_7"
transform="scale(0.001,-0.001)" />

<path d="M231,492l491,1c0,0,-2,112,-64,179c0,0,-61,67,-163,67c0,0,-115,0,-184,-65c0,0,-69,-64,-80,-182ZM517,-20c0,0,-199,0,-316,115C201,95,84,211,84,410c0,0,0,205,111,325c0,0,111,121,299,121c0,0,168,0,266,-109c0,0,98,-108,98,-295V385H227c0,0,9,-142,85,-216c0,0,77,-74,213,-74c0,0,80,0,154,19c0,0,74,19,147,58V42C826,42,752,11,675,-4c0,0,-78,-16,-158,-16Z" 
id="f0_a"
transform="scale(0.001,-0.001)" />

<path d="M163,0V190H321V0Z" 
id="f0_l"
transform="scale(0.001,-0.001)" />

<path d="M150,0V1114H375L659,356l285,758h224V0H1022V978L735,214H583L296,978V0Z" 
id="f0_1j"
transform="scale(0.001,-0.001)" />

<path d="M408,93c0,0,115,0,184,81c0,0,69,81,69,215v30H524c0,0,-167,0,-231,-38c0,0,-64,-38,-64,-129c0,0,0,-73,48,-116c0,0,48,-43,131,-43ZM372,-20c0,0,-128,0,-204,70c0,0,-76,72,-76,193c0,0,0,141,94,212c0,0,95,72,282,72H661v13c0,0,0,95,-62,147c0,0,-63,52,-175,52c0,0,-72,0,-140,-17c0,0,-68,-17,-130,-51V798c0,0,75,29,146,43c0,0,71,15,138,15c0,0,181,0,270,-95c0,0,90,-94,90,-285V0H661V127C661,127,614,51,544,15c0,0,-70,-35,-172,-35Z" 
id="f0_8"
transform="scale(0.001,-0.001)" />

<path d="M139,0V1161H277V475L686,836H861L418,445L880,0H701L277,408V0Z" 
id="f0_i"
transform="scale(0.001,-0.001)" />

<path d="M376,-20c0,0,-67,0,-140,12C236,-8,164,4,83,30V172c0,0,76,-40,150,-59c0,0,74,-20,146,-20c0,0,97,0,150,33c0,0,52,33,52,94c0,0,0,56,-38,85c0,0,-38,30,-165,58l-48,11c0,0,-128,27,-184,83c0,0,-57,55,-57,152c0,0,0,118,83,182c0,0,84,65,238,65c0,0,76,0,143,-12c0,0,67,-11,124,-33V681c0,0,-58,29,-121,44c0,0,-63,15,-130,15c0,0,-102,0,-153,-31c0,0,-51,-31,-51,-94c0,0,0,-48,37,-75c0,0,36,-27,147,-52l46,-10c0,0,147,-32,208,-89c0,0,62,-57,62,-159c0,0,0,-116,-93,-184c0,0,-92,-66,-253,-66Z" 
id="f0_9"
transform="scale(0.001,-0.001)" />

<path d="M121,-317v116h81c0,0,57,0,88,26c0,0,31,27,69,127l25,62L46,836H191L453,182L714,836H859L492,-76c0,0,-58,-150,-113,-195c0,0,-55,-46,-148,-46Z" 
id="f0_p"
transform="scale(0.001,-0.001)" />

<path d="M467,95c0,0,110,0,174,86c0,0,64,87,64,236c0,0,0,148,-64,235c0,0,-64,87,-174,87c0,0,-110,0,-174,-86c0,0,-64,-86,-64,-236c0,0,0,-150,64,-236c0,0,63,-86,174,-86Zm0,-115c0,0,-179,0,-281,115C186,95,84,212,84,417c0,0,0,206,102,322c0,0,102,117,281,117c0,0,179,0,282,-117c0,0,102,-116,102,-322c0,0,0,-205,-102,-322C749,95,646,-20,467,-20Z" 
id="f0_d"
transform="scale(0.001,-0.001)" />

<path d="M359,0L46,836H191L453,134L714,836H859L546,0Z" 
id="f0_t"
transform="scale(0.001,-0.001)" />

<path d="M144,0V1161H281V0Z" 
id="f0_o"
transform="scale(0.001,-0.001)" />

<path d="M283,0L65,836H202L373,184L544,836H706L878,184l171,652h137L967,0H806L626,685L445,0Z" 
id="f0_n"
transform="scale(0.001,-0.001)" />

<path d="M144,0V836H281V0Zm0,987v174H281V987Z" 
id="f0_c"
transform="scale(0.001,-0.001)" />

<path d="M139,0V836H277V706c0,0,49,75,116,112c0,0,67,38,154,38c0,0,144,0,218,-90c0,0,74,-89,74,-262V0H702V500c0,0,0,119,-46,177c0,0,-47,59,-139,59c0,0,-112,0,-176,-71c0,0,-64,-70,-64,-193V0Z" 
id="f0_e"
transform="scale(0.001,-0.001)" />

<path d="M460,115c0,0,111,0,173,82c0,0,61,82,61,230c0,0,0,149,-61,231c0,0,-62,82,-173,82c0,0,-111,0,-173,-82c0,0,-61,-82,-61,-231c0,0,0,-148,61,-230c0,0,62,-82,173,-82ZM446,-317c0,0,-72,0,-137,11c0,0,-64,11,-124,33v134c0,0,60,-33,119,-49c0,0,59,-15,121,-15c0,0,135,0,202,70c0,0,67,71,67,212v68C694,147,652,73,585,36C585,36,519,0,426,0C426,0,272,0,178,117c0,0,-94,117,-94,310c0,0,0,194,94,311c0,0,94,118,248,118c0,0,93,0,159,-37c0,0,67,-36,109,-110V836H831V104c0,0,0,-212,-95,-317c0,0,-94,-104,-290,-104Z" 
id="f0_q"
transform="scale(0.001,-0.001)" />

<path d="M460,93c0,0,109,0,171,86c0,0,63,86,63,238c0,0,0,151,-63,237c0,0,-62,86,-171,86c0,0,-109,0,-172,-86c0,0,-62,-86,-62,-237c0,0,0,-152,62,-238c0,0,63,-86,172,-86ZM426,-20c0,0,-151,0,-247,119c0,0,-95,121,-95,318c0,0,0,197,95,318c0,0,96,121,247,121c0,0,93,0,159,-37c0,0,66,-36,109,-110v452H831V0H694V125C694,125,651,51,585,15c0,0,-66,-35,-159,-35Z" 
id="f0_f"
transform="scale(0.001,-0.001)" />

<path d="M510,93c0,0,109,0,171,86c0,0,62,86,62,238c0,0,0,151,-62,237c0,0,-62,86,-171,86c0,0,-109,0,-171,-86c0,0,-62,-86,-62,-237c0,0,0,-152,62,-238c0,0,62,-86,171,-86ZM544,-20c0,0,-92,0,-158,35c0,0,-66,36,-109,110V0H139V1161H277V709c0,0,43,74,109,110c0,0,66,37,158,37c0,0,152,0,247,-121c0,0,95,-121,95,-318c0,0,0,-197,-95,-318C791,99,696,-20,544,-20Z" 
id="f0_x"
transform="scale(0.001,-0.001)" />

<path d="M179,0V190H336V0Zm0,600V790H336V600Z" 
id="f0_1e"
transform="scale(0.001,-0.001)" />

<path d="M257,341c0,0,-82,0,-142,58c0,0,-60,58,-60,141c0,0,0,82,60,140c0,0,60,58,142,58c0,0,82,0,138,-59c0,0,58,-57,58,-139c0,0,0,-84,-57,-141c0,0,-56,-58,-139,-58Z" 
id="f1_2"
transform="scale(0.001,-0.001)" />

<path d="M391,0V530L-2,1114H159L468,656l307,458H937L543,530V0Z" 
id="f0_1r"
transform="scale(0.001,-0.001)" />

<path d="M510,93c0,0,109,0,171,86c0,0,62,86,62,238c0,0,0,151,-62,237c0,0,-62,86,-171,86c0,0,-109,0,-171,-86c0,0,-62,-86,-62,-237c0,0,0,-152,62,-238c0,0,62,-86,171,-86ZM139,-317V836H277V709c0,0,43,74,109,110c0,0,66,37,158,37c0,0,152,0,247,-121c0,0,95,-121,95,-318c0,0,0,-197,-95,-318C791,99,696,-20,544,-20c0,0,-92,0,-158,35c0,0,-66,36,-109,110V-317Z" 
id="f0_s"
transform="scale(0.001,-0.001)" />

<path d="M132,763l62,237v114H351V1000L228,763Z" 
id="f0_r"
transform="scale(0.001,-0.001)" />

<path d="M139,0V836H277V706c0,0,47,77,112,113c0,0,66,37,156,37c0,0,91,0,155,-47c0,0,64,-46,94,-134c0,0,52,93,123,137c0,0,72,44,169,44c0,0,130,0,201,-92c0,0,71,-91,71,-260V0H1220V500c0,0,0,120,-42,178c0,0,-43,58,-130,58c0,0,-107,0,-169,-71c0,0,-62,-70,-62,-193V0H680V500c0,0,0,121,-43,179c0,0,-42,57,-131,57c0,0,-105,0,-167,-71c0,0,-62,-71,-62,-193V0Z" 
id="f0_u"
transform="scale(0.001,-0.001)" />

<path d="M495,-20c0,0,-189,0,-300,117C195,97,84,216,84,417c0,0,0,204,112,321c0,0,113,118,308,118c0,0,64,0,124,-14c0,0,60,-13,117,-39V675c0,0,-58,32,-117,48c0,0,-58,16,-118,16c0,0,-133,0,-207,-84c0,0,-74,-85,-74,-238c0,0,0,-153,74,-238c0,0,74,-84,207,-84c0,0,60,0,118,16c0,0,59,16,117,48V32C745,32,688,5,626,-7c0,0,-61,-13,-131,-13Z" 
id="f0_b"
transform="scale(0.001,-0.001)" />

<path d="M117,-176L179,62V190H336V62L213,-176Z" 
id="f0_4"
transform="scale(0.001,-0.001)" />

<path d="M66,0V125L582,727H84V836H736V711L220,110H736V0Z" 
id="f0_22"
transform="scale(0.001,-0.001)" />

<path d="M190,0V127H436V977L168,923v137l267,54H586V127H832V0Z" 
id="f0_v"
transform="scale(0.001,-0.001)" />

<path d="M486,98c0,0,117,0,175,114c0,0,59,115,59,344c0,0,0,230,-59,344c0,0,-58,115,-175,115c0,0,-117,0,-175,-115c0,0,-59,-114,-59,-344c0,0,0,-229,59,-344c0,0,58,-114,175,-114ZM485,-20c0,0,-187,0,-285,147c0,0,-99,148,-99,429c0,0,0,282,98,430c0,0,99,148,286,148c0,0,188,0,286,-148c0,0,99,-148,99,-430c0,0,0,-281,-99,-429c0,0,-98,-147,-286,-147Z" 
id="f0_1o"
transform="scale(0.001,-0.001)" />

<path d="M111,0V127c0,0,86,89,234,238c0,0,148,150,186,193c0,0,73,81,101,138c0,0,29,56,29,110c0,0,0,89,-62,145c0,0,-62,56,-162,56c0,0,-71,0,-150,-25c0,0,-78,-24,-168,-75v153c0,0,91,37,170,55c0,0,79,19,145,19c0,0,173,0,276,-86c0,0,103,-87,103,-232c0,0,0,-68,-26,-130c0,0,-26,-61,-94,-145c0,0,-18,-22,-118,-125C575,416,475,313,293,127H818V0Z" 
id="f0_1l"
transform="scale(0.001,-0.001)" />

<path d="M578,388V982L197,388ZM578,0V263H74V408l464,706H727V388H887V263H727V0Z" 
id="f0_1m"
transform="scale(0.001,-0.001)" />

<path d="M44,0L369,437L71,836H233L455,538L677,836H839L537,429L855,0H693L449,328L206,0Z" 
id="f0_1h"
transform="scale(0.001,-0.001)" />

<path d="M414,-20c0,0,-70,0,-144,13c0,0,-75,13,-154,40V179c0,0,63,-36,138,-55c0,0,74,-18,156,-18c0,0,142,0,216,55c0,0,74,56,74,163c0,0,0,98,-69,153c0,0,-69,56,-192,56H309V657H445c0,0,111,0,170,44c0,0,59,45,59,128c0,0,0,86,-61,132c0,0,-61,46,-174,46c0,0,-62,0,-133,-13c0,0,-71,-14,-156,-42v134c0,0,85,24,160,36c0,0,75,12,142,12c0,0,171,0,271,-78c0,0,100,-78,100,-211c0,0,0,-92,-53,-156c0,0,-52,-64,-150,-89c0,0,108,-23,169,-96c0,0,61,-73,61,-180c0,0,0,-165,-114,-255c0,0,-113,-89,-322,-89Z" 
id="f0_12"
transform="scale(0.001,-0.001)" />

<path d="M411,-20c0,0,-70,0,-142,11c0,0,-73,11,-151,35V178c0,0,67,-37,139,-54c0,0,72,-18,152,-18c0,0,129,0,204,67c0,0,75,68,75,184c0,0,0,117,-75,184c0,0,-75,68,-204,68c0,0,-61,0,-121,-13c0,0,-60,-13,-123,-42v560H757V987H303V714c0,0,33,11,66,17c0,0,33,5,65,5c0,0,187,0,296,-102c0,0,109,-102,109,-277c0,0,0,-179,-112,-279c0,0,-112,-98,-316,-98Z" 
id="f0_24"
transform="scale(0.001,-0.001)" />

<path d="M458,-20c0,0,-79,0,-168,17c0,0,-89,17,-184,52V204c0,0,91,-51,179,-77c0,0,88,-26,173,-26c0,0,129,0,199,50c0,0,70,51,70,145c0,0,0,82,-50,129c0,0,-50,46,-165,69l-92,18c0,0,-169,34,-244,105c0,0,-75,72,-75,199c0,0,0,148,104,233c0,0,104,85,287,85c0,0,78,0,159,-14c0,0,81,-14,166,-42V931c0,0,-85,41,-161,61c0,0,-76,20,-147,20c0,0,-123,0,-190,-48c0,0,-67,-48,-67,-136c0,0,0,-73,45,-111c0,0,44,-38,168,-61l91,-19c0,0,168,-32,249,-113c0,0,80,-81,80,-216c0,0,0,-162,-109,-246c0,0,-108,-82,-318,-82Z" 
id="f0_18"
transform="scale(0.001,-0.001)" />

<path d="M505,98c0,0,101,0,160,70c0,0,60,69,60,189c0,0,0,121,-60,191c0,0,-59,69,-160,69c0,0,-102,0,-161,-69c0,0,-59,-70,-59,-191c0,0,0,-120,59,-189c0,0,59,-70,161,-70ZM504,-20c0,0,-193,0,-295,147c0,0,-102,148,-102,429c0,0,0,264,125,421c0,0,125,157,337,157c0,0,56,0,114,-11c0,0,58,-11,121,-34V952c0,0,-57,27,-115,41c0,0,-58,14,-115,14c0,0,-149,0,-228,-101c0,0,-79,-100,-90,-304c0,0,44,65,111,100c0,0,66,34,146,34c0,0,168,0,266,-102c0,0,97,-101,97,-277c0,0,0,-171,-101,-275C775,82,673,-20,504,-20Z" 
id="f0_25"
transform="scale(0.001,-0.001)" />

<path d="M467,496c0,0,102,0,161,69c0,0,59,70,59,190c0,0,0,120,-59,190c0,0,-59,70,-161,70c0,0,-101,0,-160,-70c0,0,-60,-70,-60,-190c0,0,0,-120,60,-190c0,0,59,-69,160,-69ZM403,-20c0,0,-57,0,-115,11c0,0,-58,10,-121,32V160c0,0,57,-26,115,-40c0,0,58,-14,115,-14c0,0,149,0,228,100c0,0,79,100,90,305c0,0,-44,-65,-110,-99c0,0,-66,-35,-147,-35c0,0,-167,0,-265,102c0,0,-97,101,-97,276c0,0,0,172,101,275c0,0,102,104,270,104c0,0,194,0,295,-148c0,0,102,-148,102,-430c0,0,0,-263,-125,-420C739,136,614,-20,403,-20Z" 
id="f0_1n"
transform="scale(0.001,-0.001)" />

<path d="M354,-200c0,0,-112,175,-167,343c0,0,-56,170,-56,337c0,0,0,166,55,335c0,0,55,169,168,345H473c0,0,-100,-172,-148,-340c0,0,-48,-168,-48,-340c0,0,0,-173,48,-342c0,0,49,-168,148,-338Z" 
id="f0_13"
transform="scale(0.001,-0.001)" />

<path d="M122,-200c0,0,99,170,148,338c0,0,49,169,49,342c0,0,0,172,-49,340c0,0,-49,168,-148,340H241c0,0,112,-176,168,-345c0,0,55,-169,55,-335c0,0,0,-167,-55,-337c0,0,-56,-168,-168,-343Z" 
id="f0_14"
transform="scale(0.001,-0.001)" />

<path d="M117,-176L179,62V190H336V62L213,-176Zm62,776V790H336V600Z" 
id="f0_26"
transform="scale(0.001,-0.001)" />

<path d="M280,0L660,987H125v127H841v-64L437,0Z" 
id="f0_11"
transform="scale(0.001,-0.001)" />

<path d="M486,98c0,0,107,0,169,58c0,0,62,57,62,157c0,0,0,101,-62,159c0,0,-61,57,-169,57c0,0,-108,0,-169,-57c0,0,-62,-58,-62,-159c0,0,0,-100,62,-158c0,0,61,-57,169,-57Zm-1,549c0,0,97,0,152,49c0,0,54,48,54,135c0,0,0,87,-54,135c0,0,-55,49,-152,49c0,0,-97,0,-151,-49c0,0,-54,-48,-54,-135c0,0,0,-87,54,-135c0,0,54,-49,151,-49Zm0,-667c0,0,-184,0,-283,85c0,0,-98,86,-98,248c0,0,0,107,61,181c0,0,61,74,170,99c0,0,-97,24,-151,90c0,0,-54,67,-54,162c0,0,0,134,95,212c0,0,95,77,260,77c0,0,167,0,261,-77c0,0,95,-78,95,-212c0,0,0,-95,-54,-162c0,0,-54,-66,-151,-90c0,0,109,-25,170,-99c0,0,61,-74,61,-181c0,0,0,-162,-99,-248c0,0,-98,-85,-283,-85Z" 
id="f0_1p"
transform="scale(0.001,-0.001)" />

<path d="M489,572c0,0,105,0,163,54c0,0,57,55,57,155c0,0,0,100,-57,154c0,0,-58,55,-163,55H300V572ZM150,0V1114H489c0,0,188,0,283,-85c0,0,96,-85,96,-248c0,0,0,-165,-96,-249c0,0,-95,-84,-283,-84H300V0Z" 
id="f0_1g"
transform="scale(0.001,-0.001)" />

<path d="M391,0V987H-3v127H938V987H543V0Z" 
id="f0_w"
transform="scale(0.001,-0.001)" />

<path d="M74,357V479H476V357Z" 
id="f0_j"
transform="scale(0.001,-0.001)" />

<path d="M102,0V1051H354L818,235c0,0,-13,113,-13,205v611h195V0H742L284,809c0,0,14,-117,14,-189V0Z" 
id="f2_1e"
transform="scale(0.001,-0.001)" />

<path d="M461,129c0,0,193,0,193,276c0,0,0,144,-47,209c0,0,-47,65,-136,65c0,0,-191,0,-191,-274c0,0,0,-135,46,-205c0,0,47,-71,135,-71Zm2,-143c0,0,-188,0,-296,111C167,97,60,209,60,405c0,0,0,194,107,306c0,0,108,111,301,111c0,0,197,0,301,-107c0,0,105,-108,105,-310c0,0,0,-197,-109,-308C765,97,656,-14,463,-14Z" 
id="f2_2b"
transform="scale(0.001,-0.001)" />

<path d="M313,-13c0,0,-92,0,-142,50c0,0,-50,50,-50,152V666H19V808H131l66,189H328V808H481V666H328V245c0,0,0,-59,23,-87c0,0,22,-28,69,-28c0,0,25,0,70,10V11c0,0,-77,-24,-177,-24Z" 
id="f2_2g"
transform="scale(0.001,-0.001)" />

<path d="M595,495c0,0,-6,98,-47,147c0,0,-41,49,-111,49c0,0,-74,0,-114,-51c0,0,-40,-52,-42,-145ZM437,-14c0,0,-182,0,-280,107c0,0,-97,108,-97,315c0,0,0,199,99,307c0,0,99,107,281,107c0,0,174,0,266,-115c0,0,91,-115,91,-337v-6H280c0,0,0,-118,43,-179c0,0,44,-60,125,-60c0,0,111,0,140,97L786,205c0,0,-86,-219,-349,-219Z" 
id="f2_21"
transform="scale(0.001,-0.001)" />

<path d="M426,-14c0,0,-166,0,-255,52C171,38,83,90,54,201l184,28c0,0,16,-57,54,-81c0,0,38,-24,134,-24c0,0,88,0,128,22c0,0,41,23,41,70c0,0,0,39,-33,62c0,0,-32,23,-110,38c0,0,-177,35,-239,65c0,0,-62,31,-95,79c0,0,-32,48,-32,118c0,0,0,115,89,180c0,0,89,64,252,64c0,0,144,0,232,-56c0,0,88,-56,109,-162L583,585c0,0,-9,49,-44,74c0,0,-35,24,-112,24c0,0,-74,0,-111,-19c0,0,-38,-19,-38,-64c0,0,0,-35,29,-55c0,0,29,-21,97,-34c0,0,94,-20,168,-40c0,0,73,-21,118,-49c0,0,44,-28,71,-73c0,0,26,-44,26,-113c0,0,0,-117,-96,-184c0,0,-96,-66,-265,-66Z" 
id="f2_2f"
transform="scale(0.001,-0.001)" />

<path d="M147,0V209H362V0Zm0,562V771H362V562Z" 
id="f2_u"
transform="scale(0.001,-0.001)" />

<path d="M-78,-305v127h47c0,0,99,0,140,56c0,0,41,56,41,200V1114H300V78c0,0,0,-201,-76,-292c0,0,-77,-91,-245,-91Z" 
id="f0_27"
transform="scale(0.001,-0.001)" />

<path d="M150,0V1114H854V987H300V657H831V530H300V127H867V0Z" 
id="f0_1d"
transform="scale(0.001,-0.001)" />

<path d="M642,-20c0,0,-261,0,-409,151C233,131,86,284,86,556c0,0,0,273,147,426c0,0,148,152,409,152c0,0,109,0,207,-27c0,0,98,-26,181,-78V868c0,0,-84,71,-178,106c0,0,-94,36,-197,36c0,0,-205,0,-307,-114C348,896,245,782,245,556c0,0,0,-225,103,-339c0,0,102,-114,307,-114c0,0,79,0,142,13c0,0,62,14,112,43V459H663V583h396V104c0,0,-87,-62,-193,-94c0,0,-105,-30,-224,-30Z" 
id="f0_1v"
transform="scale(0.001,-0.001)" />

<path d="M150,0V1114H353L846,182v932H992V0H789L296,932V0Z" 
id="f0_10"
transform="scale(0.001,-0.001)" />

<path d="M727,411L522,965L318,411ZM12,0L437,1114H608L1033,0H876L774,286H272L171,0Z" 
id="f0_1k"
transform="scale(0.001,-0.001)" />

<path d="M460,93c0,0,109,0,171,86c0,0,63,86,63,238c0,0,0,151,-63,237c0,0,-62,86,-171,86c0,0,-109,0,-172,-86c0,0,-62,-86,-62,-237c0,0,0,-152,62,-238c0,0,63,-86,172,-86ZM694,-317V125C694,125,651,51,585,15c0,0,-66,-35,-159,-35c0,0,-151,0,-247,119c0,0,-95,121,-95,318c0,0,0,197,95,318c0,0,96,121,247,121c0,0,93,0,159,-37c0,0,66,-36,109,-110V836H831V-317Z" 
id="f0_21"
transform="scale(0.001,-0.001)" />

<path d="M602,101c0,0,164,0,260,122c0,0,95,123,95,333c0,0,0,211,-95,334c0,0,-96,122,-260,122c0,0,-164,0,-260,-122c0,0,-97,-123,-97,-334c0,0,0,-210,97,-333c0,0,96,-122,260,-122Zm0,-121c0,0,-235,0,-375,155C227,135,86,292,86,556c0,0,0,264,141,421c0,0,140,157,375,157c0,0,234,0,374,-157c0,0,141,-157,141,-421c0,0,0,-263,-141,-420C976,136,836,-20,602,-20Z" 
id="f0_2"
transform="scale(0.001,-0.001)" />

<path d="M140,0V1114H505L759,518l255,596h365V0H1107V815L850,214H668L412,815V0Z" 
id="f3_1b"
transform="scale(0.001,-0.001)" />

<path d="M153,-328v175h83c0,0,68,0,99,21c0,0,31,22,48,78l8,23L19,836H286L510,269L701,836H968L617,-78c0,0,-53,-139,-124,-195c0,0,-70,-55,-186,-55Z" 
id="f3_y"
transform="scale(0.001,-0.001)" />

<path d="M744,410L592,853L439,410ZM8,0L420,1114H763L1175,0H887L816,203H367L297,0Z" 
id="f3_n"
transform="scale(0.001,-0.001)" />

<path d="M573,172c0,0,86,0,131,63c0,0,45,63,45,182c0,0,0,119,-45,182c0,0,-45,63,-131,63c0,0,-86,0,-132,-63c0,0,-46,-63,-46,-182c0,0,0,-119,46,-182c0,0,46,-63,132,-63ZM128,-317V836H395V713c0,0,55,73,122,108c0,0,68,35,155,35c0,0,154,0,253,-123c0,0,100,-123,100,-316c0,0,0,-193,-100,-316c0,0,-99,-121,-253,-121c0,0,-87,0,-155,33c0,0,-67,35,-122,108V-317Z" 
id="f3_q"
transform="scale(0.001,-0.001)" />

<path d="M445,-20c0,0,-83,0,-171,12C274,-8,185,4,92,30V234c0,0,80,-39,164,-58c0,0,84,-20,170,-20c0,0,79,0,118,22c0,0,40,22,40,64c0,0,0,36,-28,53c0,0,-27,18,-108,27l-47,6c0,0,-179,23,-250,83c0,0,-72,61,-72,184c0,0,0,132,91,196c0,0,91,65,279,65c0,0,74,0,155,-12c0,0,82,-11,177,-34V606c0,0,-86,36,-165,54c0,0,-80,18,-151,18c0,0,-76,0,-113,-19c0,0,-37,-19,-37,-59c0,0,0,-32,28,-49c0,0,28,-17,100,-25l47,-7c0,0,205,-26,276,-86c0,0,71,-59,71,-187c0,0,0,-133,-98,-200c0,0,-99,-66,-294,-66Z" 
id="f3_k"
transform="scale(0.001,-0.001)" />

<path d="M630,-20c0,0,-253,0,-398,153C232,133,86,288,86,556c0,0,0,269,146,423c0,0,145,155,398,155c0,0,100,0,189,-26c0,0,88,-27,166,-79V869c0,0,-76,71,-163,106c0,0,-86,35,-183,35c0,0,-191,0,-292,-117C347,893,245,777,245,556c0,0,0,-220,102,-337c0,0,101,-116,292,-116c0,0,97,0,183,35c0,0,87,35,163,105V86C985,86,906,32,817,5c0,0,-88,-25,-187,-25Z" 
id="f0_1f"
transform="scale(0.001,-0.001)" />


</defs>
</svg>