<?xml version="1.0" encoding="UTF-8" standalone="no"?>
<!DOCTYPE svg PUBLIC "-//W3C//DTD SVG 1.1//EN"
"http://www.w3.org/Graphics/SVG/1.1/DTD/svg11.dtd">
<svg viewBox="0 0 909 1286" version="1.1" xmlns="http://www.w3.org/2000/svg" xmlns:xlink="http://www.w3.org/1999/xlink">
<defs>
<clipPath id="c0_25"><path d="M0,1286.2V.2H909.3v1286Z" /></clipPath>
<style type="text/css"><![CDATA[
.g0_25{
fill: #00FF00;
}
]]></style>
</defs>
<g clip-path="url(#c0_25)">
<g fill="#000000" >
<use xlink:href="#f0_2" transform="matrix(12,0,0,12,86.8,569.6)" />
<use xlink:href="#f0_e" transform="matrix(12,0,0,12,101.1,569.6)" />
<use xlink:href="#f0_b" transform="matrix(12,0,0,12,112.7,569.6)" />
<use xlink:href="#f0_a" transform="matrix(12,0,0,12,122.8,569.6)" />
<use xlink:href="#f0_8" transform="matrix(12,0,0,12,140.1,569.6)" />
<use xlink:href="#f0_o" transform="matrix(12,0,0,12,151.3,569.6)" />
<use xlink:href="#f0_o" transform="matrix(12,0,0,12,156.4,569.6)" />
<use xlink:href="#f0_p" transform="matrix(12,0,0,12,167.2,569.6)" />
<use xlink:href="#f0_d" transform="matrix(12,0,0,12,178.1,569.6)" />
<use xlink:href="#f0_k" transform="matrix(12,0,0,12,189.2,569.6)" />
<use xlink:href="#f0_g" transform="matrix(12,0,0,12,200.8,569.6)" />
<use xlink:href="#f0_b" transform="matrix(12,0,0,12,214.3,569.6)" />
<use xlink:href="#f0_d" transform="matrix(12,0,0,12,224.3,569.6)" />
<use xlink:href="#f0_e" transform="matrix(12,0,0,12,235.5,569.6)" />
<use xlink:href="#f0_6" transform="matrix(12,0,0,12,247.1,569.6)" />
<use xlink:href="#f0_g" transform="matrix(12,0,0,12,254.4,569.6)" />
<use xlink:href="#f0_8" transform="matrix(12,0,0,12,261.9,569.6)" />
<use xlink:href="#f0_b" transform="matrix(12,0,0,12,273.2,569.6)" />
<use xlink:href="#f0_6" transform="matrix(12,0,0,12,283.2,569.6)" />
<use xlink:href="#f0_9" transform="matrix(12,0,0,12,290.3,569.6)" />
<use xlink:href="#f0_7" transform="matrix(12,0,0,12,305.7,569.6)" />
<use xlink:href="#f0_8" transform="matrix(12,0,0,12,317.3,569.6)" />
<use xlink:href="#f0_t" transform="matrix(12,0,0,12,328.6,569.6)" />
<use xlink:href="#f0_a" transform="matrix(12,0,0,12,339.4,569.6)" />
<use xlink:href="#f0_x" transform="matrix(12,0,0,12,356.5,569.6)" />
<use xlink:href="#f0_a" transform="matrix(12,0,0,12,368.1,569.6)" />
<use xlink:href="#f0_a" transform="matrix(12,0,0,12,379.4,569.6)" />
<use xlink:href="#f0_e" transform="matrix(12,0,0,12,390.7,569.6)" />
<use xlink:href="#f0_t" transform="matrix(12,0,0,12,408.1,569.6)" />
<use xlink:href="#f0_a" transform="matrix(12,0,0,12,419,569.6)" />
<use xlink:href="#f0_g" transform="matrix(12,0,0,12,430.3,569.6)" />
<use xlink:href="#f0_c" transform="matrix(12,0,0,12,437.7,569.6)" />
<use xlink:href="#f0_h" transform="matrix(12,0,0,12,442.8,569.6)" />
<use xlink:href="#f0_c" transform="matrix(12,0,0,12,449.3,569.6)" />
<use xlink:href="#f0_a" transform="matrix(12,0,0,12,454.4,569.6)" />
<use xlink:href="#f0_f" transform="matrix(12,0,0,12,465.7,569.6)" />
<use xlink:href="#f0_4" transform="matrix(12,0,0,12,477.3,569.6)" />
<use xlink:href="#f0_6" transform="matrix(12,0,0,12,488.9,569.6)" />
<use xlink:href="#f0_7" transform="matrix(12,0,0,12,496.1,569.6)" />
<use xlink:href="#f0_a" transform="matrix(12,0,0,12,507.7,569.6)" />
<use xlink:href="#f0_1f" transform="matrix(12,0,0,12,524.9,569.6)" />
<use xlink:href="#f0_d" transform="matrix(12,0,0,12,537.7,569.6)" />
<use xlink:href="#f0_e" transform="matrix(12,0,0,12,548.9,569.6)" />
<use xlink:href="#f0_6" transform="matrix(12,0,0,12,560.5,569.6)" />
<use xlink:href="#f0_g" transform="matrix(12,0,0,12,567.7,569.6)" />
<use xlink:href="#f0_8" transform="matrix(12,0,0,12,575.1,569.6)" />
<use xlink:href="#f0_b" transform="matrix(12,0,0,12,586.4,569.6)" />
<use xlink:href="#f0_6" transform="matrix(12,0,0,12,596.5,569.6)" />
<use xlink:href="#f0_9" transform="matrix(12,0,0,12,603.5,569.6)" />
<use xlink:href="#f0_c" transform="matrix(12,0,0,12,618.9,569.6)" />
<use xlink:href="#f0_e" transform="matrix(12,0,0,12,624,569.6)" />
<use xlink:href="#f0_1g" transform="matrix(12,0,0,12,641.5,569.6)" />
<use xlink:href="#f0_g" transform="matrix(12,0,0,12,652.2,569.6)" />
<use xlink:href="#f0_d" transform="matrix(12,0,0,12,659.4,569.6)" />
<use xlink:href="#f0_b" transform="matrix(12,0,0,12,670.6,569.6)" />
<use xlink:href="#f0_a" transform="matrix(12,0,0,12,680.6,569.6)" />
<use xlink:href="#f0_9" transform="matrix(12,0,0,12,691.9,569.6)" />
<use xlink:href="#f0_9" transform="matrix(12,0,0,12,701.4,569.6)" />
<use xlink:href="#f0_s" transform="matrix(12,0,0,12,716.8,569.6)" />
<use xlink:href="#f0_8" transform="matrix(12,0,0,12,728.4,569.6)" />
<use xlink:href="#f0_e" transform="matrix(12,0,0,12,739.7,569.6)" />
<use xlink:href="#f0_a" transform="matrix(12,0,0,12,751.3,569.6)" />
<use xlink:href="#f0_o" transform="matrix(12,0,0,12,762.6,569.6)" />
<use xlink:href="#f0_n" transform="matrix(12,0,0,12,773.5,569.6)" />
<use xlink:href="#f0_c" transform="matrix(12,0,0,12,788.4,569.6)" />
<use xlink:href="#f0_o" transform="matrix(12,0,0,12,793.6,569.6)" />
<use xlink:href="#f0_o" transform="matrix(12,0,0,12,798.7,569.6)" />
<use xlink:href="#f0_f" transform="matrix(12,0,0,12,86.8,598.1)" />
<use xlink:href="#f0_c" transform="matrix(12,0,0,12,98.4,598.1)" />
<use xlink:href="#f0_9" transform="matrix(12,0,0,12,103.4,598.1)" />
<use xlink:href="#f0_8" transform="matrix(12,0,0,12,113,598.1)" />
<use xlink:href="#f0_s" transform="matrix(12,0,0,12,124.3,598.1)" />
<use xlink:href="#f0_s" transform="matrix(12,0,0,12,135.9,598.1)" />
<use xlink:href="#f0_a" transform="matrix(12,0,0,12,147.5,598.1)" />
<use xlink:href="#f0_8" transform="matrix(12,0,0,12,158.7,598.1)" />
<use xlink:href="#f0_g" transform="matrix(12,0,0,12,170,598.1)" />
<use xlink:href="#f0_4" transform="matrix(12,0,0,12,177.5,598.1)" />
<use xlink:href="#f0_8" transform="matrix(12,0,0,12,189.2,598.1)" />
<use xlink:href="#f0_e" transform="matrix(12,0,0,12,200.5,598.1)" />
<use xlink:href="#f0_f" transform="matrix(12,0,0,12,212.1,598.1)" />
<use xlink:href="#f0_p" transform="matrix(12,0,0,12,229.5,598.1)" />
<use xlink:href="#f0_d" transform="matrix(12,0,0,12,240.4,598.1)" />
<use xlink:href="#f0_k" transform="matrix(12,0,0,12,251.5,598.1)" />
<use xlink:href="#f0_r" transform="matrix(12,0,0,12,263.1,598.1)" />
<use xlink:href="#f0_g" transform="matrix(12,0,0,12,269,598.1)" />
<use xlink:href="#f0_a" transform="matrix(12,0,0,12,276.1,598.1)" />
<use xlink:href="#f0_y" transform="matrix(12,0,0,12,293.2,598.1)" />
<use xlink:href="#f0_k" transform="matrix(12,0,0,12,298.2,598.1)" />
<use xlink:href="#f0_9" transform="matrix(12,0,0,12,309.8,598.1)" />
<use xlink:href="#f0_6" transform="matrix(12,0,0,12,319.4,598.1)" />
<use xlink:href="#f0_o" transform="matrix(12,0,0,12,332.6,598.1)" />
<use xlink:href="#f0_a" transform="matrix(12,0,0,12,337.6,598.1)" />
<use xlink:href="#f0_h" transform="matrix(12,0,0,12,348.9,598.1)" />
<use xlink:href="#f0_6" transform="matrix(12,0,0,12,355,598.1)" />
<use xlink:href="#f0_n" transform="matrix(12,0,0,12,368,598.1)" />
<use xlink:href="#f0_c" transform="matrix(12,0,0,12,383,598.1)" />
<use xlink:href="#f0_6" transform="matrix(12,0,0,12,388,598.1)" />
<use xlink:href="#f0_7" transform="matrix(12,0,0,12,395.2,598.1)" />
<use xlink:href="#f0_6" transform="matrix(12,0,0,12,412.8,598.1)" />
<use xlink:href="#f0_7" transform="matrix(12,0,0,12,419.9,598.1)" />
<use xlink:href="#f0_a" transform="matrix(12,0,0,12,431.6,598.1)" />
<use xlink:href="#f0_1f" transform="matrix(12,0,0,12,448.7,598.1)" />
<use xlink:href="#f0_d" transform="matrix(12,0,0,12,461.5,598.1)" />
<use xlink:href="#f0_e" transform="matrix(12,0,0,12,472.6,598.1)" />
<use xlink:href="#f0_6" transform="matrix(12,0,0,12,484.2,598.1)" />
<use xlink:href="#f0_g" transform="matrix(12,0,0,12,491.4,598.1)" />
<use xlink:href="#f0_8" transform="matrix(12,0,0,12,498.9,598.1)" />
<use xlink:href="#f0_b" transform="matrix(12,0,0,12,510.2,598.1)" />
<use xlink:href="#f0_6" transform="matrix(12,0,0,12,520.3,598.1)" />
<use xlink:href="#f0_9" transform="matrix(12,0,0,12,527.4,598.1)" />
<use xlink:href="#f0_19" transform="matrix(12,0,0,12,542.9,598.1)" />
<use xlink:href="#f0_e" transform="matrix(12,0,0,12,548.2,598.1)" />
<use xlink:href="#f0_1d" transform="matrix(12,0,0,12,565.8,598.1)" />
<use xlink:href="#f0_h" transform="matrix(12,0,0,12,577.4,598.1)" />
<use xlink:href="#f0_h" transform="matrix(12,0,0,12,583.8,598.1)" />
<use xlink:href="#f0_a" transform="matrix(12,0,0,12,590.2,598.1)" />
<use xlink:href="#f0_b" transform="matrix(12,0,0,12,601.5,598.1)" />
<use xlink:href="#f0_6" transform="matrix(12,0,0,12,611.6,598.1)" />
<use xlink:href="#f0_1e" transform="matrix(12,0,0,12,618.7,598.1)" />
<use xlink:href="#f0_1f" transform="matrix(12,0,0,12,86.8,1011.7)" />
<use xlink:href="#f0_o" transform="matrix(12,0,0,12,99.6,1011.7)" />
<use xlink:href="#f0_c" transform="matrix(12,0,0,12,104.6,1011.7)" />
<use xlink:href="#f0_b" transform="matrix(12,0,0,12,109.7,1011.7)" />
<use xlink:href="#f0_i" transform="matrix(12,0,0,12,119.7,1011.7)" />
</g>
<g fill="#0000FF" >
<use xlink:href="#f1_t" transform="matrix(12,0,0,12,136.3,1011.7)" />
<use xlink:href="#f1_g" transform="matrix(12,0,0,12,151.5,1011.7)" />
<use xlink:href="#f1_6" transform="matrix(12,0,0,12,164.1,1011.7)" />
<use xlink:href="#f1_3" transform="matrix(12,0,0,12,177.2,1011.7)" />
</g>
<g fill="#000000" >
<use xlink:href="#f0_6" transform="matrix(12,0,0,12,196,1011.7)" />
<use xlink:href="#f0_d" transform="matrix(12,0,0,12,203.2,1011.7)" />
<use xlink:href="#f0_q" transform="matrix(12,0,0,12,220.3,1011.7)" />
<use xlink:href="#f0_d" transform="matrix(12,0,0,12,231.9,1011.7)" />
<use xlink:href="#f0_x" transform="matrix(12,0,0,12,249,1011.7)" />
<use xlink:href="#f0_8" transform="matrix(12,0,0,12,260.5,1011.7)" />
<use xlink:href="#f0_b" transform="matrix(12,0,0,12,271.8,1011.7)" />
<use xlink:href="#f0_i" transform="matrix(12,0,0,12,281.8,1011.7)" />
<use xlink:href="#f0_6" transform="matrix(12,0,0,12,298.3,1011.7)" />
<use xlink:href="#f0_d" transform="matrix(12,0,0,12,305.5,1011.7)" />
<use xlink:href="#f0_6" transform="matrix(12,0,0,12,322.6,1011.7)" />
<use xlink:href="#f0_7" transform="matrix(12,0,0,12,329.8,1011.7)" />
<use xlink:href="#f0_a" transform="matrix(12,0,0,12,341.4,1011.7)" />
<use xlink:href="#f0_u" transform="matrix(12,0,0,12,358.5,1011.7)" />
<use xlink:href="#f0_8" transform="matrix(12,0,0,12,376.2,1011.7)" />
<use xlink:href="#f0_c" transform="matrix(12,0,0,12,387.5,1011.7)" />
<use xlink:href="#f0_e" transform="matrix(12,0,0,12,392.6,1011.7)" />
<use xlink:href="#f0_c" transform="matrix(12,0,0,12,410.1,1011.7)" />
<use xlink:href="#f0_w" transform="matrix(12,0,0,12,415.2,1011.7)" />
<use xlink:href="#f0_k" transform="matrix(12,0,0,12,423.6,1011.7)" />
<use xlink:href="#f0_e" transform="matrix(12,0,0,12,435.2,1011.7)" />
<use xlink:href="#f0_a" transform="matrix(12,0,0,12,446.8,1011.7)" />
<use xlink:href="#f0_9" transform="matrix(12,0,0,12,458.1,1011.7)" />
<use xlink:href="#f0_1f" transform="matrix(12,0,0,12,473.5,1011.7)" />
<use xlink:href="#f0_d" transform="matrix(12,0,0,12,486.3,1011.7)" />
<use xlink:href="#f0_e" transform="matrix(12,0,0,12,497.5,1011.7)" />
<use xlink:href="#f0_e" transform="matrix(12,0,0,12,509.1,1011.7)" />
<use xlink:href="#f0_a" transform="matrix(12,0,0,12,520.7,1011.7)" />
<use xlink:href="#f0_b" transform="matrix(12,0,0,12,532,1011.7)" />
<use xlink:href="#f0_6" transform="matrix(12,0,0,12,542,1011.7)" />
<use xlink:href="#f0_15" transform="matrix(12,0,0,12,555,1011.7)" />
<use xlink:href="#f0_8" transform="matrix(12,0,0,12,569.1,1011.7)" />
<use xlink:href="#f0_9" transform="matrix(12,0,0,12,580.4,1011.7)" />
<use xlink:href="#f0_7" transform="matrix(12,0,0,12,590,1011.7)" />
<use xlink:href="#f0_x" transform="matrix(12,0,0,12,601.6,1011.7)" />
<use xlink:href="#f0_d" transform="matrix(12,0,0,12,613.2,1011.7)" />
<use xlink:href="#f0_8" transform="matrix(12,0,0,12,624.3,1011.7)" />
<use xlink:href="#f0_g" transform="matrix(12,0,0,12,635.6,1011.7)" />
<use xlink:href="#f0_f" transform="matrix(12,0,0,12,642.8,1011.7)" />
<use xlink:href="#f0_l" transform="matrix(12,0,0,12,654.4,1011.7)" />
</g>
</g>
<path fill-rule="evenodd" d="M86.6,1118.8H434.8v-34.7H86.6v34.7Z" class="g0_25" />
<g clip-path="url(#c0_25)">
<g fill="#006837" >
<use xlink:href="#f1_9" transform="matrix(19.5,0,0,19.5,86.8,1111.8)" />
<use xlink:href="#f1_o" transform="matrix(19.5,0,0,19.5,108.2,1111.8)" />
<use xlink:href="#f1_13" transform="matrix(19.5,0,0,19.5,129.4,1111.8)" />
<use xlink:href="#f1_z" transform="matrix(19.5,0,0,19.5,150.7,1111.8)" />
<use xlink:href="#f1_5" transform="matrix(19.5,0,0,19.5,181.8,1111.8)" />
<use xlink:href="#f1_4" transform="matrix(19.5,0,0,19.5,192,1111.8)" />
<use xlink:href="#f1_4" transform="matrix(19.5,0,0,19.5,206.2,1111.8)" />
<use xlink:href="#f1_5" transform="matrix(19.5,0,0,19.5,220.4,1111.8)" />
<use xlink:href="#f1_6" transform="matrix(19.5,0,0,19.5,230.6,1111.8)" />
<use xlink:href="#f1_7" transform="matrix(19.5,0,0,19.5,251.8,1111.8)" />
<use xlink:href="#f1_19" transform="matrix(19.5,0,0,19.5,283.6,1111.8)" />
<use xlink:href="#f1_g" transform="matrix(19.5,0,0,19.5,302.4,1111.8)" />
<use xlink:href="#f1_o" transform="matrix(19.5,0,0,19.5,322.8,1111.8)" />
<use xlink:href="#f1_b" transform="matrix(19.5,0,0,19.5,344,1111.8)" />
<use xlink:href="#f1_n" transform="matrix(19.5,0,0,19.5,369.1,1111.8)" />
<use xlink:href="#f1_q" transform="matrix(19.5,0,0,19.5,392,1111.8)" />
<use xlink:href="#f1_q" transform="matrix(19.5,0,0,19.5,413.3,1111.8)" />
</g>
<g fill="#000000" >
<use xlink:href="#f0_19" transform="matrix(12,0,0,12,86.8,1152.3)" />
<use xlink:href="#f0_h" transform="matrix(12,0,0,12,92.1,1152.3)" />
<use xlink:href="#f0_p" transform="matrix(12,0,0,12,104.5,1152.3)" />
<use xlink:href="#f0_d" transform="matrix(12,0,0,12,115.3,1152.3)" />
<use xlink:href="#f0_k" transform="matrix(12,0,0,12,126.5,1152.3)" />
<use xlink:href="#f0_g" transform="matrix(12,0,0,12,144,1152.3)" />
<use xlink:href="#f0_a" transform="matrix(12,0,0,12,151.1,1152.3)" />
<use xlink:href="#f0_8" transform="matrix(12,0,0,12,162.3,1152.3)" />
<use xlink:href="#f0_o" transform="matrix(12,0,0,12,173.6,1152.3)" />
<use xlink:href="#f0_o" transform="matrix(12,0,0,12,178.7,1152.3)" />
<use xlink:href="#f0_p" transform="matrix(12,0,0,12,183.7,1152.3)" />
<use xlink:href="#f0_n" transform="matrix(12,0,0,12,200.5,1152.3)" />
<use xlink:href="#f0_8" transform="matrix(12,0,0,12,215.3,1152.3)" />
<use xlink:href="#f0_e" transform="matrix(12,0,0,12,226.6,1152.3)" />
<use xlink:href="#f0_6" transform="matrix(12,0,0,12,238.2,1152.3)" />
<use xlink:href="#f0_6" transform="matrix(12,0,0,12,251.3,1152.3)" />
<use xlink:href="#f0_d" transform="matrix(12,0,0,12,258.5,1152.3)" />
<use xlink:href="#f0_9" transform="matrix(12,0,0,12,275.5,1152.3)" />
<use xlink:href="#f0_k" transform="matrix(12,0,0,12,285.1,1152.3)" />
<use xlink:href="#f0_x" transform="matrix(12,0,0,12,296.7,1152.3)" />
<use xlink:href="#f0_u" transform="matrix(12,0,0,12,308.3,1152.3)" />
<use xlink:href="#f0_c" transform="matrix(12,0,0,12,326.2,1152.3)" />
<use xlink:href="#f0_6" transform="matrix(12,0,0,12,331.2,1152.3)" />
<use xlink:href="#f0_8" transform="matrix(12,0,0,12,344.3,1152.3)" />
<use xlink:href="#f0_e" transform="matrix(12,0,0,12,355.5,1152.3)" />
<use xlink:href="#f0_8" transform="matrix(12,0,0,12,372.9,1152.3)" />
<use xlink:href="#f0_s" transform="matrix(12,0,0,12,384.2,1152.3)" />
<use xlink:href="#f0_s" transform="matrix(12,0,0,12,395.8,1152.3)" />
<use xlink:href="#f0_d" transform="matrix(12,0,0,12,413.2,1152.3)" />
<use xlink:href="#f0_h" transform="matrix(12,0,0,12,424.3,1152.3)" />
<use xlink:href="#f0_p" transform="matrix(12,0,0,12,436.7,1152.3)" />
<use xlink:href="#f0_d" transform="matrix(12,0,0,12,447.5,1152.3)" />
<use xlink:href="#f0_k" transform="matrix(12,0,0,12,458.7,1152.3)" />
<use xlink:href="#f0_g" transform="matrix(12,0,0,12,470.3,1152.3)" />
<use xlink:href="#f0_d" transform="matrix(12,0,0,12,483.7,1152.3)" />
<use xlink:href="#f0_n" transform="matrix(12,0,0,12,494.9,1152.3)" />
<use xlink:href="#f0_e" transform="matrix(12,0,0,12,509.9,1152.3)" />
<use xlink:href="#f0_c" transform="matrix(12,0,0,12,527.4,1152.3)" />
<use xlink:href="#f0_e" transform="matrix(12,0,0,12,532.5,1152.3)" />
<use xlink:href="#f0_9" transform="matrix(12,0,0,12,544.1,1152.3)" />
<use xlink:href="#f0_6" transform="matrix(12,0,0,12,553.7,1152.3)" />
<use xlink:href="#f0_a" transform="matrix(12,0,0,12,560.9,1152.3)" />
<use xlink:href="#f0_8" transform="matrix(12,0,0,12,572,1152.3)" />
<use xlink:href="#f0_f" transform="matrix(12,0,0,12,583.3,1152.3)" />
<use xlink:href="#f0_d" transform="matrix(12,0,0,12,600.8,1152.3)" />
<use xlink:href="#f0_h" transform="matrix(12,0,0,12,612,1152.3)" />
<use xlink:href="#f0_y" transform="matrix(12,0,0,12,624.2,1152.3)" />
<use xlink:href="#f0_k" transform="matrix(12,0,0,12,629.3,1152.3)" />
<use xlink:href="#f0_9" transform="matrix(12,0,0,12,640.9,1152.3)" />
<use xlink:href="#f0_6" transform="matrix(12,0,0,12,650.5,1152.3)" />
<use xlink:href="#f0_h" transform="matrix(12,0,0,12,663.6,1152.3)" />
<use xlink:href="#f0_d" transform="matrix(12,0,0,12,670,1152.3)" />
<use xlink:href="#f0_o" transform="matrix(12,0,0,12,681.2,1152.3)" />
<use xlink:href="#f0_o" transform="matrix(12,0,0,12,686.2,1152.3)" />
<use xlink:href="#f0_d" transform="matrix(12,0,0,12,691.4,1152.3)" />
<use xlink:href="#f0_n" transform="matrix(12,0,0,12,702.5,1152.3)" />
<use xlink:href="#f0_c" transform="matrix(12,0,0,12,717.5,1152.3)" />
<use xlink:href="#f0_e" transform="matrix(12,0,0,12,722.5,1152.3)" />
<use xlink:href="#f0_q" transform="matrix(12,0,0,12,734.3,1152.3)" />
<use xlink:href="#f0_8" transform="matrix(12,0,0,12,751.7,1152.3)" />
<use xlink:href="#f0_o" transform="matrix(12,0,0,12,763,1152.3)" />
<use xlink:href="#f0_d" transform="matrix(12,0,0,12,768,1152.3)" />
<use xlink:href="#f0_e" transform="matrix(12,0,0,12,779.2,1152.3)" />
<use xlink:href="#f0_q" transform="matrix(12,0,0,12,790.8,1152.3)" />
<use xlink:href="#f0_4" transform="matrix(12,0,0,12,802.4,1152.3)" />
<use xlink:href="#f0_6" transform="matrix(12,0,0,12,86.8,1181)" />
<use xlink:href="#f0_7" transform="matrix(12,0,0,12,94,1181)" />
<use xlink:href="#f0_a" transform="matrix(12,0,0,12,105.6,1181)" />
<use xlink:href="#f0_g" transform="matrix(12,0,0,12,116.9,1181)" />
<use xlink:href="#f0_a" transform="matrix(12,0,0,12,123.9,1181)" />
<use xlink:href="#f0_8" transform="matrix(12,0,0,12,141.1,1181)" />
<use xlink:href="#f0_g" transform="matrix(12,0,0,12,152.4,1181)" />
<use xlink:href="#f0_a" transform="matrix(12,0,0,12,159.5,1181)" />
<use xlink:href="#f0_b" transform="matrix(12,0,0,12,176.6,1181)" />
<use xlink:href="#f0_a" transform="matrix(12,0,0,12,186.6,1181)" />
<use xlink:href="#f0_g" transform="matrix(12,0,0,12,197.9,1181)" />
<use xlink:href="#f0_6" transform="matrix(12,0,0,12,205.4,1181)" />
<use xlink:href="#f0_8" transform="matrix(12,0,0,12,212.6,1181)" />
<use xlink:href="#f0_c" transform="matrix(12,0,0,12,223.9,1181)" />
<use xlink:href="#f0_e" transform="matrix(12,0,0,12,228.9,1181)" />
<use xlink:href="#f0_c" transform="matrix(12,0,0,12,246.3,1181)" />
<use xlink:href="#f0_6" transform="matrix(12,0,0,12,251.4,1181)" />
<use xlink:href="#f0_a" transform="matrix(12,0,0,12,258.6,1181)" />
<use xlink:href="#f0_u" transform="matrix(12,0,0,12,269.9,1181)" />
<use xlink:href="#f0_9" transform="matrix(12,0,0,12,287.7,1181)" />
<use xlink:href="#f0_p" transform="matrix(12,0,0,12,303.1,1181)" />
<use xlink:href="#f0_d" transform="matrix(12,0,0,12,314,1181)" />
<use xlink:href="#f0_k" transform="matrix(12,0,0,12,325.1,1181)" />
<use xlink:href="#f0_r" transform="matrix(12,0,0,12,336.7,1181)" />
<use xlink:href="#f0_o" transform="matrix(12,0,0,12,342.7,1181)" />
<use xlink:href="#f0_o" transform="matrix(12,0,0,12,347.7,1181)" />
<use xlink:href="#f0_e" transform="matrix(12,0,0,12,358.7,1181)" />
<use xlink:href="#f0_a" transform="matrix(12,0,0,12,370.3,1181)" />
<use xlink:href="#f0_a" transform="matrix(12,0,0,12,381.6,1181)" />
<use xlink:href="#f0_f" transform="matrix(12,0,0,12,392.9,1181)" />
<use xlink:href="#f0_6" transform="matrix(12,0,0,12,410.3,1181)" />
<use xlink:href="#f0_d" transform="matrix(12,0,0,12,417.5,1181)" />
<use xlink:href="#f0_q" transform="matrix(12,0,0,12,434.6,1181)" />
<use xlink:href="#f0_a" transform="matrix(12,0,0,12,446.2,1181)" />
<use xlink:href="#f0_6" transform="matrix(12,0,0,12,457.5,1181)" />
<use xlink:href="#f0_c" transform="matrix(12,0,0,12,470.5,1181)" />
<use xlink:href="#f0_e" transform="matrix(12,0,0,12,475.5,1181)" />
<use xlink:href="#f0_d" transform="matrix(12,0,0,12,492.9,1181)" />
<use xlink:href="#f0_g" transform="matrix(12,0,0,12,504.2,1181)" />
<use xlink:href="#f0_f" transform="matrix(12,0,0,12,511.4,1181)" />
<use xlink:href="#f0_a" transform="matrix(12,0,0,12,523,1181)" />
<use xlink:href="#f0_g" transform="matrix(12,0,0,12,534.3,1181)" />
<use xlink:href="#f0_4" transform="matrix(12,0,0,12,541.8,1181)" />
<use xlink:href="#f0_x" transform="matrix(12,0,0,12,553.5,1181)" />
<use xlink:href="#f0_a" transform="matrix(12,0,0,12,565.1,1181)" />
<use xlink:href="#f0_h" transform="matrix(12,0,0,12,576.4,1181)" />
<use xlink:href="#f0_d" transform="matrix(12,0,0,12,582.8,1181)" />
<use xlink:href="#f0_g" transform="matrix(12,0,0,12,594,1181)" />
<use xlink:href="#f0_a" transform="matrix(12,0,0,12,601,1181)" />
<use xlink:href="#f0_p" transform="matrix(12,0,0,12,618.3,1181)" />
<use xlink:href="#f0_d" transform="matrix(12,0,0,12,629.1,1181)" />
<use xlink:href="#f0_k" transform="matrix(12,0,0,12,640.2,1181)" />
<use xlink:href="#f0_b" transform="matrix(12,0,0,12,657.8,1181)" />
<use xlink:href="#f0_8" transform="matrix(12,0,0,12,667.7,1181)" />
<use xlink:href="#f0_e" transform="matrix(12,0,0,12,679,1181)" />
<use xlink:href="#f0_q" transform="matrix(12,0,0,12,696.5,1181)" />
<use xlink:href="#f0_d" transform="matrix(12,0,0,12,708.2,1181)" />
<use xlink:href="#f0_8" transform="matrix(12,0,0,12,725.2,1181)" />
<use xlink:href="#f0_e" transform="matrix(12,0,0,12,736.5,1181)" />
<use xlink:href="#f0_p" transform="matrix(12,0,0,12,748.1,1181)" />
</g>
</g>
<image preserveAspectRatio="none" x="87" y="87" width="736" height="437" xlink:href="img/1.png" />
<image preserveAspectRatio="none" x="87" y="603" width="736" height="363" xlink:href="img/2.png" />
<defs>
<path d="M602,101c0,0,164,0,260,122c0,0,95,123,95,333c0,0,0,211,-95,334c0,0,-96,122,-260,122c0,0,-164,0,-260,-122c0,0,-97,-123,-97,-334c0,0,0,-210,97,-333c0,0,96,-122,260,-122Zm0,-121c0,0,-235,0,-375,155C227,135,86,292,86,556c0,0,0,264,141,421c0,0,140,157,375,157c0,0,234,0,374,-157c0,0,141,-157,141,-421c0,0,0,-263,-141,-420C976,136,836,-20,602,-20Z" 
id="f0_2"
transform="scale(0.001,-0.001)" />

<path d="M139,0V836H277V706c0,0,49,75,116,112c0,0,67,38,154,38c0,0,144,0,218,-90c0,0,74,-89,74,-262V0H702V500c0,0,0,119,-46,177c0,0,-47,59,-139,59c0,0,-112,0,-176,-71c0,0,-64,-70,-64,-193V0Z" 
id="f0_e"
transform="scale(0.001,-0.001)" />

<path d="M495,-20c0,0,-189,0,-300,117C195,97,84,216,84,417c0,0,0,204,112,321c0,0,113,118,308,118c0,0,64,0,124,-14c0,0,60,-13,117,-39V675c0,0,-58,32,-117,48c0,0,-58,16,-118,16c0,0,-133,0,-207,-84c0,0,-74,-85,-74,-238c0,0,0,-153,74,-238c0,0,74,-84,207,-84c0,0,60,0,118,16c0,0,59,16,117,48V32C745,32,688,5,626,-7c0,0,-61,-13,-131,-13Z" 
id="f0_b"
transform="scale(0.001,-0.001)" />

<path d="M231,492l491,1c0,0,-2,112,-64,179c0,0,-61,67,-163,67c0,0,-115,0,-184,-65c0,0,-69,-64,-80,-182ZM517,-20c0,0,-199,0,-316,115C201,95,84,211,84,410c0,0,0,205,111,325c0,0,111,121,299,121c0,0,168,0,266,-109c0,0,98,-108,98,-295V385H227c0,0,9,-142,85,-216c0,0,77,-74,213,-74c0,0,80,0,154,19c0,0,74,19,147,58V42C826,42,752,11,675,-4c0,0,-78,-16,-158,-16Z" 
id="f0_a"
transform="scale(0.001,-0.001)" />

<path d="M408,93c0,0,115,0,184,81c0,0,69,81,69,215v30H524c0,0,-167,0,-231,-38c0,0,-64,-38,-64,-129c0,0,0,-73,48,-116c0,0,48,-43,131,-43ZM372,-20c0,0,-128,0,-204,70c0,0,-76,72,-76,193c0,0,0,141,94,212c0,0,95,72,282,72H661v13c0,0,0,95,-62,147c0,0,-63,52,-175,52c0,0,-72,0,-140,-17c0,0,-68,-17,-130,-51V798c0,0,75,29,146,43c0,0,71,15,138,15c0,0,181,0,270,-95c0,0,90,-94,90,-285V0H661V127C661,127,614,51,544,15c0,0,-70,-35,-172,-35Z" 
id="f0_8"
transform="scale(0.001,-0.001)" />

<path d="M144,0V1161H281V0Z" 
id="f0_o"
transform="scale(0.001,-0.001)" />

<path d="M121,-317v116h81c0,0,57,0,88,26c0,0,31,27,69,127l25,62L46,836H191L453,182L714,836H859L492,-76c0,0,-58,-150,-113,-195c0,0,-55,-46,-148,-46Z" 
id="f0_p"
transform="scale(0.001,-0.001)" />

<path d="M467,95c0,0,110,0,174,86c0,0,64,87,64,236c0,0,0,148,-64,235c0,0,-64,87,-174,87c0,0,-110,0,-174,-86c0,0,-64,-86,-64,-236c0,0,0,-150,64,-236c0,0,63,-86,174,-86Zm0,-115c0,0,-179,0,-281,115C186,95,84,212,84,417c0,0,0,206,102,322c0,0,102,117,281,117c0,0,179,0,282,-117c0,0,102,-116,102,-322c0,0,0,-205,-102,-322C749,95,646,-20,467,-20Z" 
id="f0_d"
transform="scale(0.001,-0.001)" />

<path d="M424,-20c0,0,-145,0,-219,88c0,0,-75,89,-75,262V836H267V335c0,0,0,-119,46,-178c0,0,47,-59,139,-59c0,0,112,0,177,71c0,0,64,71,64,193V836H830V0H693V128C693,128,643,52,577,15c0,0,-66,-35,-153,-35Z" 
id="f0_k"
transform="scale(0.001,-0.001)" />

<path d="M139,0V836H277V706c0,0,43,76,112,113c0,0,70,37,169,37c0,0,14,0,31,-2c0,0,17,-2,38,-6l1,-141c0,0,-23,14,-51,20c0,0,-27,6,-60,6c0,0,-116,0,-178,-75c0,0,-62,-76,-62,-218V0Z" 
id="f0_g"
transform="scale(0.001,-0.001)" />

<path d="M421,0C421,0,263,0,202,59c0,0,-60,60,-60,217V729H41V836H142v238H280V836H562V729H280V276c0,0,0,-102,28,-132c0,0,28,-29,113,-29H562V0Z" 
id="f0_6"
transform="scale(0.001,-0.001)" />

<path d="M376,-20c0,0,-67,0,-140,12C236,-8,164,4,83,30V172c0,0,76,-40,150,-59c0,0,74,-20,146,-20c0,0,97,0,150,33c0,0,52,33,52,94c0,0,0,56,-38,85c0,0,-38,30,-165,58l-48,11c0,0,-128,27,-184,83c0,0,-57,55,-57,152c0,0,0,118,83,182c0,0,84,65,238,65c0,0,76,0,143,-12c0,0,67,-11,124,-33V681c0,0,-58,29,-121,44c0,0,-63,15,-130,15c0,0,-102,0,-153,-31c0,0,-51,-31,-51,-94c0,0,0,-48,37,-75c0,0,36,-27,147,-52l46,-10c0,0,147,-32,208,-89c0,0,62,-57,62,-159c0,0,0,-116,-93,-184c0,0,-92,-66,-253,-66Z" 
id="f0_9"
transform="scale(0.001,-0.001)" />

<path d="M139,0V1161H277V706c0,0,49,75,116,112c0,0,67,38,154,38c0,0,144,0,218,-90c0,0,74,-89,74,-262V0H702V500c0,0,0,119,-46,177c0,0,-47,59,-139,59c0,0,-112,0,-176,-71c0,0,-64,-70,-64,-193V0Z" 
id="f0_7"
transform="scale(0.001,-0.001)" />

<path d="M359,0L46,836H191L453,134L714,836H859L546,0Z" 
id="f0_t"
transform="scale(0.001,-0.001)" />

<path d="M510,93c0,0,109,0,171,86c0,0,62,86,62,238c0,0,0,151,-62,237c0,0,-62,86,-171,86c0,0,-109,0,-171,-86c0,0,-62,-86,-62,-237c0,0,0,-152,62,-238c0,0,62,-86,171,-86ZM544,-20c0,0,-92,0,-158,35c0,0,-66,36,-109,110V0H139V1161H277V709c0,0,43,74,109,110c0,0,66,37,158,37c0,0,152,0,247,-121c0,0,95,-121,95,-318c0,0,0,-197,-95,-318C791,99,696,-20,544,-20Z" 
id="f0_x"
transform="scale(0.001,-0.001)" />

<path d="M144,0V836H281V0Zm0,987v174H281V987Z" 
id="f0_c"
transform="scale(0.001,-0.001)" />

<path d="M166,0V729H35V836H166v58c0,0,0,139,65,203c0,0,65,64,206,64H567V1046H435c0,0,-74,0,-102,-29c0,0,-29,-30,-29,-107V836H530V729H304V0Z" 
id="f0_h"
transform="scale(0.001,-0.001)" />

<path d="M460,93c0,0,109,0,171,86c0,0,63,86,63,238c0,0,0,151,-63,237c0,0,-62,86,-171,86c0,0,-109,0,-172,-86c0,0,-62,-86,-62,-237c0,0,0,-152,62,-238c0,0,63,-86,172,-86ZM426,-20c0,0,-151,0,-247,119c0,0,-95,121,-95,318c0,0,0,197,95,318c0,0,96,121,247,121c0,0,93,0,159,-37c0,0,66,-36,109,-110v452H831V0H694V125C694,125,651,51,585,15c0,0,-66,-35,-159,-35Z" 
id="f0_f"
transform="scale(0.001,-0.001)" />

<path d="M117,-176L179,62V190H336V62L213,-176Z" 
id="f0_4"
transform="scale(0.001,-0.001)" />

<path d="M630,-20c0,0,-253,0,-398,153C232,133,86,288,86,556c0,0,0,269,146,423c0,0,145,155,398,155c0,0,100,0,189,-26c0,0,88,-27,166,-79V869c0,0,-76,71,-163,106c0,0,-86,35,-183,35c0,0,-191,0,-292,-117C347,893,245,777,245,556c0,0,0,-220,102,-337c0,0,101,-116,292,-116c0,0,97,0,183,35c0,0,87,35,163,105V86C985,86,906,32,817,5c0,0,-88,-25,-187,-25Z" 
id="f0_1f"
transform="scale(0.001,-0.001)" />

<path d="M489,572c0,0,105,0,163,54c0,0,57,55,57,155c0,0,0,100,-57,154c0,0,-58,55,-163,55H300V572ZM150,0V1114H489c0,0,188,0,283,-85c0,0,96,-85,96,-248c0,0,0,-165,-96,-249c0,0,-95,-84,-283,-84H300V0Z" 
id="f0_1g"
transform="scale(0.001,-0.001)" />

<path d="M510,93c0,0,109,0,171,86c0,0,62,86,62,238c0,0,0,151,-62,237c0,0,-62,86,-171,86c0,0,-109,0,-171,-86c0,0,-62,-86,-62,-237c0,0,0,-152,62,-238c0,0,62,-86,171,-86ZM139,-317V836H277V709c0,0,43,74,109,110c0,0,66,37,158,37c0,0,152,0,247,-121c0,0,95,-121,95,-318c0,0,0,-197,-95,-318C791,99,696,-20,544,-20c0,0,-92,0,-158,35c0,0,-66,36,-109,110V-317Z" 
id="f0_s"
transform="scale(0.001,-0.001)" />

<path d="M283,0L65,836H202L373,184L544,836H706L878,184l171,652h137L967,0H806L626,685L445,0Z" 
id="f0_n"
transform="scale(0.001,-0.001)" />

<path d="M132,763l62,237v114H351V1000L228,763Z" 
id="f0_r"
transform="scale(0.001,-0.001)" />

<path d="M-26,-317v117H9c0,0,78,0,106,36c0,0,29,36,29,150V836H281V-14c0,0,0,-160,-61,-231c0,0,-61,-72,-195,-72ZM144,987v174H281V987Z" 
id="f0_y"
transform="scale(0.001,-0.001)" />

<path d="M150,0V1114H300V0Z" 
id="f0_19"
transform="scale(0.001,-0.001)" />

<path d="M150,0V1114H854V987H300V657H831V530H300V127H867V0Z" 
id="f0_1d"
transform="scale(0.001,-0.001)" />

<path d="M179,0V190H336V0Zm0,600V790H336V600Z" 
id="f0_1e"
transform="scale(0.001,-0.001)" />

<path d="M139,0V1161H277V475L686,836H861L418,445L880,0H701L277,408V0Z" 
id="f0_i"
transform="scale(0.001,-0.001)" />

<path d="M530,217c0,0,176,0,269,87c0,0,93,88,93,254c0,0,0,166,-93,252c0,0,-92,87,-269,87H427V217ZM140,0V1114H443c0,0,253,0,378,-36c0,0,124,-37,213,-123c0,0,78,-76,116,-174c0,0,38,-98,38,-223c0,0,0,-126,-38,-225c0,0,-38,-99,-116,-174c0,0,-90,-87,-215,-123C819,36,694,0,443,0Z" 
id="f1_t"
transform="scale(0.001,-0.001)" />

<path d="M526,169c0,0,87,0,133,64c0,0,46,64,46,184c0,0,0,120,-46,184c0,0,-46,64,-133,64c0,0,-89,0,-135,-64c0,0,-47,-64,-47,-184c0,0,0,-120,47,-184c0,0,46,-64,135,-64Zm0,-189c0,0,-217,0,-339,115C187,95,66,211,66,417c0,0,0,206,121,322c0,0,122,117,339,117c0,0,215,0,336,-117c0,0,122,-116,122,-322c0,0,0,-206,-122,-322C862,95,741,-20,526,-20Z" 
id="f1_g"
transform="scale(0.001,-0.001)" />

<path d="M128,0V836H395V713c0,0,60,73,128,108c0,0,68,35,150,35c0,0,145,0,220,-89c0,0,75,-89,75,-258V0H699V389c0,0,0,109,-5,150c0,0,-5,41,-16,60c0,0,-16,26,-43,41c0,0,-27,14,-61,14c0,0,-84,0,-131,-64c0,0,-48,-65,-48,-179V0Z" 
id="f1_6"
transform="scale(0.001,-0.001)" />

<path d="M687,509c0,0,0,76,-44,122c0,0,-44,47,-116,47c0,0,-78,0,-126,-44c0,0,-49,-43,-61,-125ZM544,-20c0,0,-227,0,-353,114C191,94,66,209,66,417c0,0,0,204,123,321c0,0,123,118,340,118c0,0,197,0,315,-119c0,0,118,-118,118,-317V344H337c0,0,10,-94,68,-141c0,0,59,-47,163,-47c0,0,85,0,173,25c0,0,89,25,182,76V51C923,51,828,15,733,-2c0,0,-94,-18,-189,-18Z" 
id="f1_3"
transform="scale(0.001,-0.001)" />

<path d="M460,115c0,0,111,0,173,82c0,0,61,82,61,230c0,0,0,149,-61,231c0,0,-62,82,-173,82c0,0,-111,0,-173,-82c0,0,-61,-82,-61,-231c0,0,0,-148,61,-230c0,0,62,-82,173,-82ZM446,-317c0,0,-72,0,-137,11c0,0,-64,11,-124,33v134c0,0,60,-33,119,-49c0,0,59,-15,121,-15c0,0,135,0,202,70c0,0,67,71,67,212v68C694,147,652,73,585,36C585,36,519,0,426,0C426,0,272,0,178,117c0,0,-94,117,-94,310c0,0,0,194,94,311c0,0,94,118,248,118c0,0,93,0,159,-37c0,0,67,-36,109,-110V836H831V104c0,0,0,-212,-95,-317c0,0,-94,-104,-290,-104Z" 
id="f0_q"
transform="scale(0.001,-0.001)" />

<path d="M139,0V836H277V706c0,0,47,77,112,113c0,0,66,37,156,37c0,0,91,0,155,-47c0,0,64,-46,94,-134c0,0,52,93,123,137c0,0,72,44,169,44c0,0,130,0,201,-92c0,0,71,-91,71,-260V0H1220V500c0,0,0,120,-42,178c0,0,-43,58,-130,58c0,0,-107,0,-169,-71c0,0,-62,-70,-62,-193V0H680V500c0,0,0,121,-43,179c0,0,-42,57,-131,57c0,0,-105,0,-167,-71c0,0,-62,-71,-62,-193V0Z" 
id="f0_u"
transform="scale(0.001,-0.001)" />

<path d="M391,0V987H-3v127H938V987H543V0Z" 
id="f0_w"
transform="scale(0.001,-0.001)" />

<path d="M482,124c0,0,231,0,338,105c0,0,107,104,107,329c0,0,0,224,-107,328c0,0,-107,104,-338,104H300V124ZM150,0V1114H459c0,0,324,0,476,-135c0,0,151,-135,151,-421c0,0,0,-288,-152,-423C934,135,782,0,459,0Z" 
id="f0_15"
transform="scale(0.001,-0.001)" />

<path d="M163,0V190H321V0Z" 
id="f0_l"
transform="scale(0.001,-0.001)" />

<path d="M545,-20c0,0,-106,0,-212,20C333,0,226,19,119,58V301c0,0,107,-57,207,-85c0,0,99,-29,192,-29c0,0,94,0,144,31c0,0,50,31,50,90c0,0,0,52,-34,80c0,0,-34,29,-136,51L431,464c0,0,-167,35,-244,114c0,0,-77,78,-77,211c0,0,0,166,107,256c0,0,107,89,309,89c0,0,92,0,189,-14c0,0,97,-13,200,-41V843c0,0,-92,41,-179,62c0,0,-87,21,-165,21c0,0,-103,0,-152,-28c0,0,-49,-29,-49,-88c0,0,0,-45,33,-70c0,0,33,-25,121,-43L646,672c0,0,186,-37,264,-113c0,0,79,-76,79,-216c0,0,0,-185,-110,-275c0,0,-109,-88,-334,-88Z" 
id="f1_9"
transform="scale(0.001,-0.001)" />

<path d="M415,-20c0,0,-144,0,-220,87c0,0,-76,89,-76,259V836H388V752c0,0,0,-67,-1,-170c0,0,0,-103,0,-137c0,0,0,-101,5,-145c0,0,5,-44,18,-65c0,0,16,-26,43,-40c0,0,26,-14,60,-14c0,0,84,0,132,64c0,0,47,64,47,178V836H959V0H692V121C692,121,632,48,564,13c0,0,-67,-33,-149,-33Z" 
id="f1_o"
transform="scale(0.001,-0.001)" />

<path d="M573,172c0,0,86,0,131,63c0,0,45,63,45,182c0,0,0,119,-45,182c0,0,-45,63,-131,63c0,0,-86,0,-132,-63c0,0,-46,-63,-46,-182c0,0,0,-119,46,-182c0,0,46,-63,132,-63ZM672,-20c0,0,-87,0,-155,33c0,0,-67,35,-122,108V0H128V1161H395V713c0,0,55,73,122,108c0,0,68,35,155,35c0,0,154,0,253,-123c0,0,100,-123,100,-316c0,0,0,-193,-100,-316c0,0,-99,-121,-253,-121Z" 
id="f1_13"
transform="scale(0.001,-0.001)" />

<path d="M127,0V836H396V713c0,0,49,71,113,107c0,0,64,36,141,36c0,0,86,0,152,-42c0,0,67,-42,101,-118c0,0,51,78,121,119c0,0,69,41,153,41c0,0,144,0,219,-89c0,0,76,-89,76,-258V0H1203V436c0,0,0,9,1,20c0,0,0,10,0,30c0,0,0,88,-26,128c0,0,-26,40,-84,40c0,0,-76,0,-117,-63c0,0,-42,-62,-43,-181V0H665V436c0,0,0,138,-24,178c0,0,-24,40,-85,40c0,0,-77,0,-118,-63c0,0,-42,-63,-42,-180V0Z" 
id="f1_z"
transform="scale(0.001,-0.001)" />

<path d="M128,0V836H395V0Zm0,944v217H395V944Z" 
id="f1_5"
transform="scale(0.001,-0.001)" />

<path d="M443,0C443,0,285,0,219,66c0,0,-66,66,-66,224V645H20V836H153v237H419V836H695V645H419V290c0,0,0,-58,24,-79c0,0,23,-20,91,-20H672V0Z" 
id="f1_4"
transform="scale(0.001,-0.001)" />

<path d="M520,194c0,0,84,0,130,61c0,0,46,61,46,172c0,0,0,112,-46,174c0,0,-46,61,-130,61c0,0,-82,0,-129,-61c0,0,-46,-62,-46,-174c0,0,0,-115,45,-174c0,0,45,-59,130,-59ZM469,-328c0,0,-78,0,-151,12c0,0,-73,12,-147,36V-71c0,0,70,-41,137,-61c0,0,67,-20,135,-20c0,0,131,0,192,58c0,0,61,57,61,178v58C696,142,641,69,575,34C575,34,508,0,421,0C421,0,268,0,168,121C168,121,68,241,68,428c0,0,0,187,100,307c0,0,100,120,253,120c0,0,87,0,154,-35c0,0,66,-34,121,-108V836H965V84c0,0,0,-200,-127,-306c0,0,-127,-106,-369,-106Z" 
id="f1_7"
transform="scale(0.001,-0.001)" />

<path d="M410,0V469L-14,1114H299L553,717l254,397h315L697,469V0Z" 
id="f1_19"
transform="scale(0.001,-0.001)" />

<path d="M128,0V836H395V698c0,0,52,82,118,120c0,0,67,38,161,38c0,0,13,0,29,-2c0,0,15,-1,45,-4l1,-242c0,0,-35,17,-70,25c0,0,-35,7,-70,7c0,0,-103,0,-158,-66c0,0,-56,-66,-56,-189V0Z" 
id="f1_b"
transform="scale(0.001,-0.001)" />

<path d="M744,410L592,853L439,410ZM8,0L420,1114H763L1175,0H887L816,203H367L297,0Z" 
id="f1_n"
transform="scale(0.001,-0.001)" />

<path d="M573,172c0,0,86,0,131,63c0,0,45,63,45,182c0,0,0,119,-45,182c0,0,-45,63,-131,63c0,0,-86,0,-132,-63c0,0,-46,-63,-46,-182c0,0,0,-119,46,-182c0,0,46,-63,132,-63ZM128,-317V836H395V713c0,0,55,73,122,108c0,0,68,35,155,35c0,0,154,0,253,-123c0,0,100,-123,100,-316c0,0,0,-193,-100,-316c0,0,-99,-121,-253,-121c0,0,-87,0,-155,33c0,0,-67,35,-122,108V-317Z" 
id="f1_q"
transform="scale(0.001,-0.001)" />


</defs>
</svg>