<?xml version="1.0" encoding="UTF-8" standalone="no"?>
<!DOCTYPE svg PUBLIC "-//W3C//DTD SVG 1.1//EN"
"http://www.w3.org/Graphics/SVG/1.1/DTD/svg11.dtd">
<svg viewBox="0 0 909 1286" version="1.1" xmlns="http://www.w3.org/2000/svg" xmlns:xlink="http://www.w3.org/1999/xlink">
<defs>
<clipPath id="c0_1"><path d="M0,1286.2V.2H909.3v1286Z" /></clipPath>
<style type="text/css"><![CDATA[
.g0_1{
fill: #00FF00;
}
.g1_1{
fill: none;
stroke: #000080;
stroke-width: 1.0694444;
stroke-linecap: butt;
stroke-linejoin: miter;
}
]]></style>
</defs>
<g clip-path="url(#c0_1)">
<g fill="#000000" >
<use xlink:href="#f0_2" transform="matrix(26,0,0,26,210.8,123.8)" />
<use xlink:href="#f0_3" transform="matrix(26,0,0,26,233,123.8)" />
<use xlink:href="#f0_4" transform="matrix(26,0,0,26,255,123.8)" />
<use xlink:href="#f0_5" transform="matrix(26,0,0,26,277.1,123.8)" />
<use xlink:href="#f0_6" transform="matrix(26,0,0,26,310.2,123.8)" />
<use xlink:href="#f0_7" transform="matrix(26,0,0,26,321.1,123.8)" />
<use xlink:href="#f0_9" transform="matrix(26,0,0,26,344.3,123.8)" />
<use xlink:href="#f0_a" transform="matrix(26,0,0,26,364.1,123.8)" />
<use xlink:href="#f0_9" transform="matrix(26,0,0,26,396.2,123.8)" />
<use xlink:href="#f0_b" transform="matrix(26,0,0,26,416,123.8)" />
<use xlink:href="#f0_b" transform="matrix(26,0,0,26,438,123.8)" />
<use xlink:href="#f0_7" transform="matrix(26,0,0,26,470.1,123.8)" />
<use xlink:href="#f0_c" transform="matrix(26,0,0,26,483.4,123.8)" />
<use xlink:href="#f0_9" transform="matrix(26,0,0,26,513.2,123.8)" />
<use xlink:href="#f0_b" transform="matrix(26,0,0,26,532.9,123.8)" />
<use xlink:href="#f0_b" transform="matrix(26,0,0,26,555,123.8)" />
<use xlink:href="#f0_d" transform="matrix(26,0,0,26,577.1,123.8)" />
<use xlink:href="#f0_e" transform="matrix(26,0,0,26,588.1,123.8)" />
<use xlink:href="#f0_f" transform="matrix(26,0,0,26,615.7,123.8)" />
<use xlink:href="#f0_7" transform="matrix(26,0,0,26,631,123.8)" />
<use xlink:href="#f0_c" transform="matrix(26,0,0,26,644.3,123.8)" />
<use xlink:href="#f0_g" transform="matrix(26,0,0,26,664.3,123.8)" />
<use xlink:href="#f0_e" transform="matrix(26,0,0,26,681.1,123.8)" />
</g>
</g>
<path fill-rule="evenodd" d="M86.6,231H349.2V196.3H86.6V231Z" class="g0_1" />
<g clip-path="url(#c0_1)">
<g fill="#006837" >
<use xlink:href="#f1_2" transform="matrix(19.5,0,0,19.5,86.8,224)" />
<use xlink:href="#f1_3" transform="matrix(19.5,0,0,19.5,111.2,224)" />
<use xlink:href="#f1_4" transform="matrix(19.5,0,0,19.5,131.4,224)" />
<use xlink:href="#f1_4" transform="matrix(19.5,0,0,19.5,145.7,224)" />
<use xlink:href="#f1_5" transform="matrix(19.5,0,0,19.5,159.9,224)" />
<use xlink:href="#f1_6" transform="matrix(19.5,0,0,19.5,170.1,224)" />
<use xlink:href="#f1_7" transform="matrix(19.5,0,0,19.5,191.2,224)" />
<use xlink:href="#f1_9" transform="matrix(19.5,0,0,19.5,223,224)" />
<use xlink:href="#f1_4" transform="matrix(19.5,0,0,19.5,244.3,224)" />
<use xlink:href="#f1_a" transform="matrix(19.5,0,0,19.5,258.6,224)" />
<use xlink:href="#f1_b" transform="matrix(19.5,0,0,19.5,278.7,224)" />
<use xlink:href="#f1_4" transform="matrix(19.5,0,0,19.5,293.4,224)" />
<use xlink:href="#f1_3" transform="matrix(19.5,0,0,19.5,307.7,224)" />
<use xlink:href="#f1_c" transform="matrix(19.5,0,0,19.5,327.9,224)" />
</g>
<g fill="#000000" >
<use xlink:href="#f2_2" transform="matrix(12,0,0,12,86.8,301.1)" />
<use xlink:href="#f2_3" transform="matrix(12,0,0,12,97.9,301.1)" />
<use xlink:href="#f2_4" transform="matrix(12,0,0,12,109.5,301.1)" />
<use xlink:href="#f2_6" transform="matrix(12,0,0,12,126.8,301.1)" />
<use xlink:href="#f2_7" transform="matrix(12,0,0,12,133.2,301.1)" />
<use xlink:href="#f2_8" transform="matrix(12,0,0,12,138.2,301.1)" />
<use xlink:href="#f2_9" transform="matrix(12,0,0,12,145.7,301.1)" />
<use xlink:href="#f2_a" transform="matrix(12,0,0,12,155.3,301.1)" />
<use xlink:href="#f2_9" transform="matrix(12,0,0,12,168.3,301.1)" />
<use xlink:href="#f2_a" transform="matrix(12,0,0,12,177.9,301.1)" />
<use xlink:href="#f2_4" transform="matrix(12,0,0,12,185.1,301.1)" />
<use xlink:href="#f2_b" transform="matrix(12,0,0,12,196.4,301.1)" />
<use xlink:href="#f2_a" transform="matrix(12,0,0,12,219.6,301.1)" />
<use xlink:href="#f2_c" transform="matrix(12,0,0,12,226.8,301.1)" />
<use xlink:href="#f2_a" transform="matrix(12,0,0,12,243.9,301.1)" />
<use xlink:href="#f2_3" transform="matrix(12,0,0,12,251.1,301.1)" />
<use xlink:href="#f2_4" transform="matrix(12,0,0,12,262.7,301.1)" />
<use xlink:href="#f2_d" transform="matrix(12,0,0,12,279.8,301.1)" />
<use xlink:href="#f2_b" transform="matrix(12,0,0,12,292.3,301.1)" />
<use xlink:href="#f2_b" transform="matrix(12,0,0,12,304,301.1)" />
<use xlink:href="#f2_e" transform="matrix(12,0,0,12,321.5,301.1)" />
<use xlink:href="#f2_a" transform="matrix(12,0,0,12,333.1,301.1)" />
<use xlink:href="#f2_c" transform="matrix(12,0,0,12,340.3,301.1)" />
<use xlink:href="#f2_8" transform="matrix(12,0,0,12,351.5,301.1)" />
<use xlink:href="#f2_4" transform="matrix(12,0,0,12,358.5,301.1)" />
<use xlink:href="#f2_7" transform="matrix(12,0,0,12,375.7,301.1)" />
<use xlink:href="#f2_9" transform="matrix(12,0,0,12,380.8,301.1)" />
<use xlink:href="#f2_a" transform="matrix(12,0,0,12,396.2,301.1)" />
<use xlink:href="#f2_c" transform="matrix(12,0,0,12,403.4,301.1)" />
<use xlink:href="#f2_8" transform="matrix(12,0,0,12,420.5,301.1)" />
<use xlink:href="#f2_4" transform="matrix(12,0,0,12,427.5,301.1)" />
<use xlink:href="#f2_f" transform="matrix(12,0,0,12,438.8,301.1)" />
<use xlink:href="#f2_7" transform="matrix(12,0,0,12,450.4,301.1)" />
<use xlink:href="#f2_9" transform="matrix(12,0,0,12,455.4,301.1)" />
<use xlink:href="#f2_a" transform="matrix(12,0,0,12,465,301.1)" />
<use xlink:href="#f2_4" transform="matrix(12,0,0,12,472.2,301.1)" />
<use xlink:href="#f2_8" transform="matrix(12,0,0,12,483.5,301.1)" />
<use xlink:href="#f2_g" transform="matrix(12,0,0,12,496.9,301.1)" />
<use xlink:href="#f2_9" transform="matrix(12,0,0,12,508.1,301.1)" />
<use xlink:href="#f2_g" transform="matrix(12,0,0,12,523.5,301.1)" />
<use xlink:href="#f2_h" transform="matrix(12,0,0,12,534.7,301.1)" />
<use xlink:href="#f2_d" transform="matrix(12,0,0,12,552.2,301.1)" />
<use xlink:href="#f2_b" transform="matrix(12,0,0,12,564.7,301.1)" />
<use xlink:href="#f2_b" transform="matrix(12,0,0,12,576.3,301.1)" />
<use xlink:href="#f2_i" transform="matrix(12,0,0,12,587.9,301.1)" />
<use xlink:href="#f2_4" transform="matrix(12,0,0,12,593,301.1)" />
<use xlink:href="#f2_j" transform="matrix(12,0,0,12,610.1,301.1)" />
<use xlink:href="#f2_4" transform="matrix(12,0,0,12,621.7,301.1)" />
<use xlink:href="#f2_k" transform="matrix(12,0,0,12,633,301.1)" />
<use xlink:href="#f2_4" transform="matrix(12,0,0,12,643.8,301.1)" />
<use xlink:href="#f2_i" transform="matrix(12,0,0,12,655.1,301.1)" />
<use xlink:href="#f2_c" transform="matrix(12,0,0,12,660.2,301.1)" />
<use xlink:href="#f2_b" transform="matrix(12,0,0,12,671.4,301.1)" />
<use xlink:href="#f2_4" transform="matrix(12,0,0,12,683.1,301.1)" />
<use xlink:href="#f2_8" transform="matrix(12,0,0,12,694.3,301.1)" />
<use xlink:href="#f2_l" transform="matrix(12,0,0,12,700.2,301.1)" />
<use xlink:href="#f2_m" transform="matrix(12,0,0,12,711.9,301.1)" />
<use xlink:href="#f2_c" transform="matrix(12,0,0,12,725.6,301.1)" />
<use xlink:href="#f2_a" transform="matrix(12,0,0,12,736.8,301.1)" />
<use xlink:href="#f2_4" transform="matrix(12,0,0,12,744,301.1)" />
<use xlink:href="#f2_a" transform="matrix(12,0,0,12,761.1,301.1)" />
<use xlink:href="#f2_3" transform="matrix(12,0,0,12,768.3,301.1)" />
<use xlink:href="#f2_g" transform="matrix(12,0,0,12,779.7,301.1)" />
<use xlink:href="#f2_a" transform="matrix(12,0,0,12,791,301.1)" />
<use xlink:href="#f2_n" transform="matrix(12,0,0,12,86.8,322.5)" />
<use xlink:href="#f2_4" transform="matrix(12,0,0,12,98.4,322.5)" />
<use xlink:href="#f2_o" transform="matrix(12,0,0,12,109.7,322.5)" />
<use xlink:href="#f2_c" transform="matrix(12,0,0,12,119.7,322.5)" />
<use xlink:href="#f2_p" transform="matrix(12,0,0,12,130.9,322.5)" />
<use xlink:href="#f2_7" transform="matrix(12,0,0,12,148.7,322.5)" />
<use xlink:href="#f2_h" transform="matrix(12,0,0,12,153.9,322.5)" />
<use xlink:href="#f2_f" transform="matrix(12,0,0,12,165.5,322.5)" />
<use xlink:href="#f2_g" transform="matrix(12,0,0,12,182.9,322.5)" />
<use xlink:href="#f2_h" transform="matrix(12,0,0,12,194.2,322.5)" />
<use xlink:href="#f2_d" transform="matrix(12,0,0,12,211.6,322.5)" />
<use xlink:href="#f2_b" transform="matrix(12,0,0,12,224.2,322.5)" />
<use xlink:href="#f2_b" transform="matrix(12,0,0,12,235.8,322.5)" />
<use xlink:href="#f2_i" transform="matrix(12,0,0,12,247.4,322.5)" />
<use xlink:href="#f2_4" transform="matrix(12,0,0,12,252.4,322.5)" />
<use xlink:href="#f2_j" transform="matrix(12,0,0,12,269.7,322.5)" />
<use xlink:href="#f2_4" transform="matrix(12,0,0,12,281.3,322.5)" />
<use xlink:href="#f2_k" transform="matrix(12,0,0,12,292.6,322.5)" />
<use xlink:href="#f2_4" transform="matrix(12,0,0,12,303.4,322.5)" />
<use xlink:href="#f2_i" transform="matrix(12,0,0,12,314.7,322.5)" />
<use xlink:href="#f2_c" transform="matrix(12,0,0,12,319.7,322.5)" />
<use xlink:href="#f2_b" transform="matrix(12,0,0,12,330.9,322.5)" />
<use xlink:href="#f2_4" transform="matrix(12,0,0,12,342.5,322.5)" />
<use xlink:href="#f2_8" transform="matrix(12,0,0,12,353.8,322.5)" />
<use xlink:href="#f2_7" transform="matrix(12,0,0,12,367.2,322.5)" />
<use xlink:href="#f2_9" transform="matrix(12,0,0,12,372.3,322.5)" />
<use xlink:href="#f2_6" transform="matrix(12,0,0,12,387.7,322.5)" />
<use xlink:href="#f2_8" transform="matrix(12,0,0,12,394.1,322.5)" />
<use xlink:href="#f2_4" transform="matrix(12,0,0,12,401.1,322.5)" />
<use xlink:href="#f2_4" transform="matrix(12,0,0,12,412.4,322.5)" />
<use xlink:href="#f2_q" transform="matrix(12,0,0,12,423.7,322.5)" />
<use xlink:href="#f2_n" transform="matrix(12,0,0,12,435.5,322.5)" />
<use xlink:href="#f2_r" transform="matrix(12,0,0,12,447.1,322.5)" />
<use xlink:href="#f2_a" transform="matrix(12,0,0,12,458.7,322.5)" />
<use xlink:href="#f2_a" transform="matrix(12,0,0,12,471.7,322.5)" />
<use xlink:href="#f2_3" transform="matrix(12,0,0,12,478.9,322.5)" />
<use xlink:href="#f2_7" transform="matrix(12,0,0,12,490.5,322.5)" />
<use xlink:href="#f2_9" transform="matrix(12,0,0,12,495.5,322.5)" />
<use xlink:href="#f2_7" transform="matrix(12,0,0,12,511,322.5)" />
<use xlink:href="#f2_9" transform="matrix(12,0,0,12,515.9,322.5)" />
<use xlink:href="#f2_h" transform="matrix(12,0,0,12,531.5,322.5)" />
<use xlink:href="#f2_c" transform="matrix(12,0,0,12,543.1,322.5)" />
<use xlink:href="#f2_a" transform="matrix(12,0,0,12,554.2,322.5)" />
<use xlink:href="#f2_a" transform="matrix(12,0,0,12,567.2,322.5)" />
<use xlink:href="#f2_3" transform="matrix(12,0,0,12,574.4,322.5)" />
<use xlink:href="#f2_4" transform="matrix(12,0,0,12,586,322.5)" />
<use xlink:href="#f2_9" transform="matrix(12,0,0,12,603.1,322.5)" />
<use xlink:href="#f2_g" transform="matrix(12,0,0,12,612.7,322.5)" />
<use xlink:href="#f2_p" transform="matrix(12,0,0,12,623.9,322.5)" />
<use xlink:href="#f2_4" transform="matrix(12,0,0,12,641.7,322.5)" />
<use xlink:href="#f2_g" transform="matrix(12,0,0,12,658.9,322.5)" />
<use xlink:href="#f2_9" transform="matrix(12,0,0,12,670.1,322.5)" />
<use xlink:href="#f2_n" transform="matrix(12,0,0,12,685.6,322.5)" />
<use xlink:href="#f2_4" transform="matrix(12,0,0,12,697.2,322.5)" />
<use xlink:href="#f2_7" transform="matrix(12,0,0,12,708.5,322.5)" />
<use xlink:href="#f2_h" transform="matrix(12,0,0,12,713.5,322.5)" />
<use xlink:href="#f2_f" transform="matrix(12,0,0,12,725.1,322.5)" />
<use xlink:href="#f2_g" transform="matrix(12,0,0,12,742.5,322.5)" />
<use xlink:href="#f2_n" transform="matrix(12,0,0,12,753.8,322.5)" />
<use xlink:href="#f2_i" transform="matrix(12,0,0,12,765.4,322.5)" />
<use xlink:href="#f2_4" transform="matrix(12,0,0,12,770.5,322.5)" />
<use xlink:href="#f2_a" transform="matrix(12,0,0,12,787.6,322.5)" />
<use xlink:href="#f2_c" transform="matrix(12,0,0,12,794.8,322.5)" />
<use xlink:href="#f2_9" transform="matrix(12,0,0,12,86.8,343.9)" />
<use xlink:href="#f2_r" transform="matrix(12,0,0,12,96.4,343.9)" />
<use xlink:href="#f2_n" transform="matrix(12,0,0,12,108,343.9)" />
<use xlink:href="#f2_p" transform="matrix(12,0,0,12,119.6,343.9)" />
<use xlink:href="#f2_7" transform="matrix(12,0,0,12,137.5,343.9)" />
<use xlink:href="#f2_a" transform="matrix(12,0,0,12,142.5,343.9)" />
<use xlink:href="#f2_g" transform="matrix(12,0,0,12,155.6,343.9)" />
<use xlink:href="#f2_h" transform="matrix(12,0,0,12,166.8,343.9)" />
<use xlink:href="#f2_g" transform="matrix(12,0,0,12,184.2,343.9)" />
<use xlink:href="#f2_b" transform="matrix(12,0,0,12,195.5,343.9)" />
<use xlink:href="#f2_b" transform="matrix(12,0,0,12,207.1,343.9)" />
<use xlink:href="#f2_a" transform="matrix(12,0,0,12,224.5,343.9)" />
<use xlink:href="#f2_c" transform="matrix(12,0,0,12,231.7,343.9)" />
<use xlink:href="#f2_a" transform="matrix(12,0,0,12,248.8,343.9)" />
<use xlink:href="#f2_3" transform="matrix(12,0,0,12,256,343.9)" />
<use xlink:href="#f2_4" transform="matrix(12,0,0,12,267.6,343.9)" />
<use xlink:href="#f2_g" transform="matrix(12,0,0,12,284.7,343.9)" />
<use xlink:href="#f2_b" transform="matrix(12,0,0,12,296,343.9)" />
<use xlink:href="#f2_b" transform="matrix(12,0,0,12,307.6,343.9)" />
<use xlink:href="#f2_9" transform="matrix(12,0,0,12,325,343.9)" />
<use xlink:href="#f2_a" transform="matrix(12,0,0,12,334.6,343.9)" />
<use xlink:href="#f2_c" transform="matrix(12,0,0,12,341.8,343.9)" />
<use xlink:href="#f2_8" transform="matrix(12,0,0,12,352.9,343.9)" />
<use xlink:href="#f2_4" transform="matrix(12,0,0,12,360,343.9)" />
<use xlink:href="#f2_s" transform="matrix(12,0,0,12,377.2,343.9)" />
<use xlink:href="#f2_a" transform="matrix(12,0,0,12,401.4,343.9)" />
<use xlink:href="#f2_c" transform="matrix(12,0,0,12,408.5,343.9)" />
<use xlink:href="#f2_j" transform="matrix(12,0,0,12,425.6,343.9)" />
<use xlink:href="#f2_c" transform="matrix(12,0,0,12,437.2,343.9)" />
<use xlink:href="#f2_a" transform="matrix(12,0,0,12,454.2,343.9)" />
<use xlink:href="#f2_3" transform="matrix(12,0,0,12,461.4,343.9)" />
<use xlink:href="#f2_g" transform="matrix(12,0,0,12,473,343.9)" />
<use xlink:href="#f2_a" transform="matrix(12,0,0,12,484.3,343.9)" />
<use xlink:href="#f2_t" transform="matrix(12,0,0,12,497.3,343.9)" />
<use xlink:href="#f2_c" transform="matrix(12,0,0,12,508.1,343.9)" />
<use xlink:href="#f2_r" transform="matrix(12,0,0,12,519.3,343.9)" />
<use xlink:href="#f2_p" transform="matrix(12,0,0,12,536.8,343.9)" />
<use xlink:href="#f2_r" transform="matrix(12,0,0,12,554.7,343.9)" />
<use xlink:href="#f2_9" transform="matrix(12,0,0,12,566.1,343.9)" />
<use xlink:href="#f2_a" transform="matrix(12,0,0,12,575.7,343.9)" />
<use xlink:href="#f2_b" transform="matrix(12,0,0,12,588.9,343.9)" />
<use xlink:href="#f2_g" transform="matrix(12,0,0,12,600.3,343.9)" />
<use xlink:href="#f2_t" transform="matrix(12,0,0,12,611.6,343.9)" />
<use xlink:href="#f2_u" transform="matrix(12,0,0,12,634.2,343.9)" />
<use xlink:href="#f2_e" transform="matrix(12,0,0,12,647.6,343.9)" />
<use xlink:href="#f2_v" transform="matrix(12,0,0,12,659.2,343.9)" />
<use xlink:href="#f2_w" transform="matrix(12,0,0,12,670.8,343.9)" />
<use xlink:href="#f2_w" transform="matrix(12,0,0,12,682.4,343.9)" />
<use xlink:href="#f2_6" transform="matrix(12,0,0,12,700,343.9)" />
<use xlink:href="#f2_4" transform="matrix(12,0,0,12,706.4,343.9)" />
<use xlink:href="#f2_4" transform="matrix(12,0,0,12,717.7,343.9)" />
<use xlink:href="#f2_l" transform="matrix(12,0,0,12,729,343.9)" />
<use xlink:href="#f2_x" transform="matrix(12,0,0,12,86.8,381.6)" />
<use xlink:href="#f2_c" transform="matrix(12,0,0,12,95.6,381.6)" />
<use xlink:href="#f2_r" transform="matrix(12,0,0,12,106.8,381.6)" />
<use xlink:href="#f2_p" transform="matrix(12,0,0,12,124.2,381.6)" />
<use xlink:href="#f2_g" transform="matrix(12,0,0,12,142.1,381.6)" />
<use xlink:href="#f2_t" transform="matrix(12,0,0,12,153.3,381.6)" />
<use xlink:href="#f2_g" transform="matrix(12,0,0,12,170,381.6)" />
<use xlink:href="#f2_i" transform="matrix(12,0,0,12,181.3,381.6)" />
<use xlink:href="#f2_8" transform="matrix(12,0,0,12,186.3,381.6)" />
<use xlink:href="#f2_4" transform="matrix(12,0,0,12,193.3,381.6)" />
<use xlink:href="#f2_g" transform="matrix(12,0,0,12,204.6,381.6)" />
<use xlink:href="#f2_j" transform="matrix(12,0,0,12,215.9,381.6)" />
<use xlink:href="#f2_t" transform="matrix(12,0,0,12,227.5,381.6)" />
<use xlink:href="#f2_3" transform="matrix(12,0,0,12,244.2,381.6)" />
<use xlink:href="#f2_g" transform="matrix(12,0,0,12,255.8,381.6)" />
<use xlink:href="#f2_k" transform="matrix(12,0,0,12,267.1,381.6)" />
<use xlink:href="#f2_4" transform="matrix(12,0,0,12,277.9,381.6)" />
<use xlink:href="#f2_g" transform="matrix(12,0,0,12,295,381.6)" />
<use xlink:href="#f2_j" transform="matrix(12,0,0,12,312,381.6)" />
<use xlink:href="#f2_4" transform="matrix(12,0,0,12,323.6,381.6)" />
<use xlink:href="#f2_k" transform="matrix(12,0,0,12,334.9,381.6)" />
<use xlink:href="#f2_4" transform="matrix(12,0,0,12,345.7,381.6)" />
<use xlink:href="#f2_i" transform="matrix(12,0,0,12,357,381.6)" />
<use xlink:href="#f2_c" transform="matrix(12,0,0,12,362.1,381.6)" />
<use xlink:href="#f2_b" transform="matrix(12,0,0,12,373.3,381.6)" />
<use xlink:href="#f2_4" transform="matrix(12,0,0,12,385,381.6)" />
<use xlink:href="#f2_8" transform="matrix(12,0,0,12,396.2,381.6)" />
<use xlink:href="#f2_g" transform="matrix(12,0,0,12,409.5,381.6)" />
<use xlink:href="#f2_o" transform="matrix(12,0,0,12,420.8,381.6)" />
<use xlink:href="#f2_o" transform="matrix(12,0,0,12,430.9,381.6)" />
<use xlink:href="#f2_c" transform="matrix(12,0,0,12,441,381.6)" />
<use xlink:href="#f2_r" transform="matrix(12,0,0,12,452.1,381.6)" />
<use xlink:href="#f2_h" transform="matrix(12,0,0,12,463.7,381.6)" />
<use xlink:href="#f2_a" transform="matrix(12,0,0,12,475.3,381.6)" />
<use xlink:href="#f2_y" transform="matrix(12,0,0,12,488.4,381.6)" />
<use xlink:href="#f2_7" transform="matrix(12,0,0,12,503.4,381.6)" />
<use xlink:href="#f2_a" transform="matrix(12,0,0,12,508.5,381.6)" />
<use xlink:href="#f2_3" transform="matrix(12,0,0,12,515.6,381.6)" />
<use xlink:href="#f2_d" transform="matrix(12,0,0,12,533.2,381.6)" />
<use xlink:href="#f2_b" transform="matrix(12,0,0,12,545.7,381.6)" />
<use xlink:href="#f2_b" transform="matrix(12,0,0,12,557.3,381.6)" />
<use xlink:href="#f2_i" transform="matrix(12,0,0,12,568.9,381.6)" />
<use xlink:href="#f2_4" transform="matrix(12,0,0,12,574,381.6)" />
<use xlink:href="#f2_l" transform="matrix(12,0,0,12,585.3,381.6)" />
<use xlink:href="#f2_z" transform="matrix(12,0,0,12,597,381.6)" />
<use xlink:href="#f2_6" transform="matrix(12,0,0,12,602.4,381.6)" />
<use xlink:href="#f2_9" transform="matrix(12,0,0,12,614.6,381.6)" />
<use xlink:href="#f2_c" transform="matrix(12,0,0,12,624.2,381.6)" />
<use xlink:href="#f2_q" transform="matrix(12,0,0,12,635.3,381.6)" />
<use xlink:href="#f2_9" transform="matrix(12,0,0,12,652.9,381.6)" />
<use xlink:href="#f2_10" transform="matrix(12,0,0,12,662.4,381.6)" />
<use xlink:href="#f2_7" transform="matrix(12,0,0,12,673.1,381.6)" />
<use xlink:href="#f2_b" transform="matrix(12,0,0,12,678.1,381.6)" />
<use xlink:href="#f2_a" transform="matrix(12,0,0,12,695.5,381.6)" />
<use xlink:href="#f2_3" transform="matrix(12,0,0,12,702.7,381.6)" />
<use xlink:href="#f2_7" transform="matrix(12,0,0,12,714.3,381.6)" />
<use xlink:href="#f2_9" transform="matrix(12,0,0,12,719.4,381.6)" />
<use xlink:href="#f2_9" transform="matrix(12,0,0,12,734.9,381.6)" />
<use xlink:href="#f2_4" transform="matrix(12,0,0,12,744.4,381.6)" />
<use xlink:href="#f2_o" transform="matrix(12,0,0,12,755.7,381.6)" />
<use xlink:href="#f2_a" transform="matrix(12,0,0,12,765.7,381.6)" />
<use xlink:href="#f2_7" transform="matrix(12,0,0,12,772.9,381.6)" />
<use xlink:href="#f2_c" transform="matrix(12,0,0,12,778,381.6)" />
<use xlink:href="#f2_h" transform="matrix(12,0,0,12,789.1,381.6)" />
<use xlink:href="#f2_l" transform="matrix(12,0,0,12,800.9,381.6)" />
<use xlink:href="#f2_z" transform="matrix(12,0,0,12,86.8,438.9)" />
<use xlink:href="#f2_6" transform="matrix(12,0,0,12,92.1,438.9)" />
<use xlink:href="#f2_t" transform="matrix(12,0,0,12,104.5,438.9)" />
<use xlink:href="#f2_c" transform="matrix(12,0,0,12,115.3,438.9)" />
<use xlink:href="#f2_r" transform="matrix(12,0,0,12,126.5,438.9)" />
<use xlink:href="#f2_j" transform="matrix(12,0,0,12,144,438.9)" />
<use xlink:href="#f2_c" transform="matrix(12,0,0,12,155.6,438.9)" />
<use xlink:href="#f2_h" transform="matrix(12,0,0,12,166.8,438.9)" />
<use xlink:href="#f2_11" transform="matrix(12,0,0,12,178.4,438.9)" />
<use xlink:href="#f2_a" transform="matrix(12,0,0,12,184.2,438.9)" />
<use xlink:href="#f2_t" transform="matrix(12,0,0,12,197.3,438.9)" />
<use xlink:href="#f2_4" transform="matrix(12,0,0,12,208.2,438.9)" />
<use xlink:href="#f2_a" transform="matrix(12,0,0,12,219.5,438.9)" />
<use xlink:href="#f2_3" transform="matrix(12,0,0,12,232.5,438.9)" />
<use xlink:href="#f2_g" transform="matrix(12,0,0,12,244.1,438.9)" />
<use xlink:href="#f2_k" transform="matrix(12,0,0,12,255.4,438.9)" />
<use xlink:href="#f2_4" transform="matrix(12,0,0,12,266,438.9)" />
<use xlink:href="#f2_g" transform="matrix(12,0,0,12,283.3,438.9)" />
<use xlink:href="#f2_h" transform="matrix(12,0,0,12,294.4,438.9)" />
<use xlink:href="#f2_d" transform="matrix(12,0,0,12,311.8,438.9)" />
<use xlink:href="#f2_b" transform="matrix(12,0,0,12,324.4,438.9)" />
<use xlink:href="#f2_b" transform="matrix(12,0,0,12,336,438.9)" />
<use xlink:href="#f2_i" transform="matrix(12,0,0,12,347.7,438.9)" />
<use xlink:href="#f2_4" transform="matrix(12,0,0,12,352.8,438.9)" />
<use xlink:href="#f2_j" transform="matrix(12,0,0,12,369.9,438.9)" />
<use xlink:href="#f2_4" transform="matrix(12,0,0,12,381.5,438.9)" />
<use xlink:href="#f2_k" transform="matrix(12,0,0,12,392.8,438.9)" />
<use xlink:href="#f2_4" transform="matrix(12,0,0,12,403.6,438.9)" />
<use xlink:href="#f2_i" transform="matrix(12,0,0,12,414.9,438.9)" />
<use xlink:href="#f2_c" transform="matrix(12,0,0,12,419.9,438.9)" />
<use xlink:href="#f2_b" transform="matrix(12,0,0,12,431.1,438.9)" />
<use xlink:href="#f2_4" transform="matrix(12,0,0,12,442.7,438.9)" />
<use xlink:href="#f2_8" transform="matrix(12,0,0,12,454,438.9)" />
<use xlink:href="#f2_g" transform="matrix(12,0,0,12,467.4,438.9)" />
<use xlink:href="#f2_o" transform="matrix(12,0,0,12,478.7,438.9)" />
<use xlink:href="#f2_o" transform="matrix(12,0,0,12,488.8,438.9)" />
<use xlink:href="#f2_c" transform="matrix(12,0,0,12,498.8,438.9)" />
<use xlink:href="#f2_r" transform="matrix(12,0,0,12,510,438.9)" />
<use xlink:href="#f2_h" transform="matrix(12,0,0,12,521.6,438.9)" />
<use xlink:href="#f2_a" transform="matrix(12,0,0,12,533.2,438.9)" />
<use xlink:href="#f2_q" transform="matrix(12,0,0,12,540.4,438.9)" />
<use xlink:href="#f2_f" transform="matrix(12,0,0,12,552.1,438.9)" />
<use xlink:href="#f2_c" transform="matrix(12,0,0,12,563.7,438.9)" />
<use xlink:href="#f2_a" transform="matrix(12,0,0,12,580.7,438.9)" />
<use xlink:href="#f2_c" transform="matrix(12,0,0,12,587.9,438.9)" />
<use xlink:href="#f2_a" transform="matrix(12,0,0,12,605,438.9)" />
<use xlink:href="#f2_3" transform="matrix(12,0,0,12,612.2,438.9)" />
<use xlink:href="#f2_4" transform="matrix(12,0,0,12,623.8,438.9)" />
</g>
<g fill="#000080" >
<use xlink:href="#f3_2" transform="matrix(12,0,0,12,641.2,438.9)" />
<use xlink:href="#f3_3" transform="matrix(12,0,0,12,654.5,438.9)" />
<use xlink:href="#f3_3" transform="matrix(12,0,0,12,663.6,438.9)" />
<use xlink:href="#f3_4" transform="matrix(12,0,0,12,672.8,438.9)" />
<use xlink:href="#f3_5" transform="matrix(12,0,0,12,677.9,438.9)" />
<use xlink:href="#f3_7" transform="matrix(12,0,0,12,690.7,438.9)" />
<use xlink:href="#f3_5" transform="matrix(12,0,0,12,703.8,438.9)" />
<use xlink:href="#f3_8" transform="matrix(12,0,0,12,711.9,438.9)" />
<use xlink:href="#f3_5" transform="matrix(12,0,0,12,721.1,438.9)" />
<use xlink:href="#f3_4" transform="matrix(12,0,0,12,729.3,438.9)" />
<use xlink:href="#f3_9" transform="matrix(12,0,0,12,734.4,438.9)" />
<use xlink:href="#f3_3" transform="matrix(12,0,0,12,743.5,438.9)" />
<use xlink:href="#f3_5" transform="matrix(12,0,0,12,752.7,438.9)" />
<use xlink:href="#f3_a" transform="matrix(12,0,0,12,760.8,438.9)" />
<use xlink:href="#f3_b" transform="matrix(12,0,0,12,771.5,438.9)" />
<use xlink:href="#f3_c" transform="matrix(12,0,0,12,781.7,438.9)" />
<use xlink:href="#f3_d" transform="matrix(12,0,0,12,786.7,438.9)" />
<use xlink:href="#f3_5" transform="matrix(12,0,0,12,791.8,438.9)" />
</g>
</g>
<path d="M641.1,440.6H799.8m.1,0h5.8" class="g1_1" />
<g clip-path="url(#c0_1)">
<g fill="#000000" >
<use xlink:href="#f2_g" transform="matrix(12,0,0,12,86.8,467.7)" />
<use xlink:href="#f2_h" transform="matrix(12,0,0,12,98.1,467.7)" />
<use xlink:href="#f2_j" transform="matrix(12,0,0,12,109.7,467.7)" />
<use xlink:href="#f2_7" transform="matrix(12,0,0,12,127.1,467.7)" />
<use xlink:href="#f2_h" transform="matrix(12,0,0,12,132.1,467.7)" />
<use xlink:href="#f2_a" transform="matrix(12,0,0,12,149.7,467.7)" />
<use xlink:href="#f2_3" transform="matrix(12,0,0,12,156.9,467.7)" />
<use xlink:href="#f2_4" transform="matrix(12,0,0,12,168.5,467.7)" />
<use xlink:href="#f2_r" transform="matrix(12,0,0,12,185.6,467.7)" />
<use xlink:href="#f2_b" transform="matrix(12,0,0,12,197.2,467.7)" />
<use xlink:href="#f2_b" transform="matrix(12,0,0,12,208.8,467.7)" />
<use xlink:href="#f2_4" transform="matrix(12,0,0,12,220.4,467.7)" />
<use xlink:href="#f2_8" transform="matrix(12,0,0,12,231.7,467.7)" />
<use xlink:href="#f2_8" transform="matrix(12,0,0,12,245.1,467.7)" />
<use xlink:href="#f2_7" transform="matrix(12,0,0,12,252.6,467.7)" />
<use xlink:href="#f2_f" transform="matrix(12,0,0,12,257.7,467.7)" />
<use xlink:href="#f2_3" transform="matrix(12,0,0,12,269.3,467.7)" />
<use xlink:href="#f2_a" transform="matrix(12,0,0,12,280.9,467.7)" />
<use xlink:href="#f2_o" transform="matrix(12,0,0,12,294,467.7)" />
<use xlink:href="#f2_i" transform="matrix(12,0,0,12,304.1,467.7)" />
<use xlink:href="#f2_7" transform="matrix(12,0,0,12,309.1,467.7)" />
<use xlink:href="#f2_o" transform="matrix(12,0,0,12,314.1,467.7)" />
<use xlink:href="#f2_10" transform="matrix(12,0,0,12,324.2,467.7)" />
<use xlink:href="#f2_a" transform="matrix(12,0,0,12,340.7,467.7)" />
<use xlink:href="#f2_3" transform="matrix(12,0,0,12,347.9,467.7)" />
<use xlink:href="#f2_4" transform="matrix(12,0,0,12,359.5,467.7)" />
</g>
<g fill="#0000FF" >
<use xlink:href="#f1_d" transform="matrix(12,0,0,12,376.8,467.7)" />
<use xlink:href="#f1_e" transform="matrix(12,0,0,12,390.9,467.7)" />
<use xlink:href="#f1_e" transform="matrix(12,0,0,12,401.8,467.7)" />
<use xlink:href="#f1_f" transform="matrix(12,0,0,12,412.6,467.7)" />
<use xlink:href="#f1_g" transform="matrix(12,0,0,12,425.3,467.7)" />
<use xlink:href="#f1_6" transform="matrix(12,0,0,12,438.3,467.7)" />
<use xlink:href="#f1_4" transform="matrix(12,0,0,12,451.4,467.7)" />
</g>
<g fill="#000000" >
<use xlink:href="#f2_i" transform="matrix(12,0,0,12,466.6,467.7)" />
<use xlink:href="#f2_7" transform="matrix(12,0,0,12,471.6,467.7)" />
<use xlink:href="#f2_h" transform="matrix(12,0,0,12,476.8,467.7)" />
<use xlink:href="#f2_10" transform="matrix(12,0,0,12,488.4,467.7)" />
<use xlink:href="#f2_12" transform="matrix(12,0,0,12,499.1,467.7)" />
<use xlink:href="#f2_13" transform="matrix(12,0,0,12,86.8,621.7)" />
<use xlink:href="#f2_h" transform="matrix(12,0,0,12,101.1,621.7)" />
<use xlink:href="#f2_a" transform="matrix(12,0,0,12,118.7,621.7)" />
<use xlink:href="#f2_3" transform="matrix(12,0,0,12,125.9,621.7)" />
<use xlink:href="#f2_4" transform="matrix(12,0,0,12,137.5,621.7)" />
<use xlink:href="#f2_h" transform="matrix(12,0,0,12,154.6,621.7)" />
<use xlink:href="#f2_4" transform="matrix(12,0,0,12,166.2,621.7)" />
<use xlink:href="#f2_14" transform="matrix(12,0,0,12,177.2,621.7)" />
<use xlink:href="#f2_a" transform="matrix(12,0,0,12,188,621.7)" />
<use xlink:href="#f2_b" transform="matrix(12,0,0,12,201,621.7)" />
<use xlink:href="#f2_g" transform="matrix(12,0,0,12,212.6,621.7)" />
<use xlink:href="#f2_f" transform="matrix(12,0,0,12,223.9,621.7)" />
<use xlink:href="#f2_4" transform="matrix(12,0,0,12,235.5,621.7)" />
<use xlink:href="#f2_q" transform="matrix(12,0,0,12,246.8,621.7)" />
<use xlink:href="#f2_t" transform="matrix(12,0,0,12,258.5,621.7)" />
<use xlink:href="#f2_c" transform="matrix(12,0,0,12,269.3,621.7)" />
<use xlink:href="#f2_r" transform="matrix(12,0,0,12,280.4,621.7)" />
<use xlink:href="#f2_o" transform="matrix(12,0,0,12,298,621.7)" />
<use xlink:href="#f2_g" transform="matrix(12,0,0,12,307.9,621.7)" />
<use xlink:href="#f2_h" transform="matrix(12,0,0,12,319.2,621.7)" />
<use xlink:href="#f2_o" transform="matrix(12,0,0,12,336.8,621.7)" />
<use xlink:href="#f2_3" transform="matrix(12,0,0,12,346.8,621.7)" />
<use xlink:href="#f2_c" transform="matrix(12,0,0,12,358.4,621.7)" />
<use xlink:href="#f2_c" transform="matrix(12,0,0,12,369.6,621.7)" />
<use xlink:href="#f2_9" transform="matrix(12,0,0,12,380.7,621.7)" />
<use xlink:href="#f2_4" transform="matrix(12,0,0,12,390.3,621.7)" />
<use xlink:href="#f2_a" transform="matrix(12,0,0,12,407.4,621.7)" />
<use xlink:href="#f2_c" transform="matrix(12,0,0,12,414.6,621.7)" />
<use xlink:href="#f2_o" transform="matrix(12,0,0,12,431.7,621.7)" />
<use xlink:href="#f2_8" transform="matrix(12,0,0,12,441.8,621.7)" />
<use xlink:href="#f2_4" transform="matrix(12,0,0,12,448.8,621.7)" />
<use xlink:href="#f2_g" transform="matrix(12,0,0,12,460.1,621.7)" />
<use xlink:href="#f2_a" transform="matrix(12,0,0,12,471.4,621.7)" />
<use xlink:href="#f2_4" transform="matrix(12,0,0,12,478.6,621.7)" />
<use xlink:href="#f2_g" transform="matrix(12,0,0,12,495.7,621.7)" />
<use xlink:href="#f2_o" transform="matrix(12,0,0,12,512.7,621.7)" />
<use xlink:href="#f2_c" transform="matrix(12,0,0,12,522.7,621.7)" />
<use xlink:href="#f2_p" transform="matrix(12,0,0,12,533.9,621.7)" />
<use xlink:href="#f2_b" transform="matrix(12,0,0,12,551.7,621.7)" />
<use xlink:href="#f2_i" transform="matrix(12,0,0,12,563.5,621.7)" />
<use xlink:href="#f2_4" transform="matrix(12,0,0,12,568.5,621.7)" />
<use xlink:href="#f2_a" transform="matrix(12,0,0,12,579.8,621.7)" />
<use xlink:href="#f2_4" transform="matrix(12,0,0,12,587,621.7)" />
<use xlink:href="#f2_i" transform="matrix(12,0,0,12,598.3,621.7)" />
<use xlink:href="#f2_t" transform="matrix(12,0,0,12,603.3,621.7)" />
<use xlink:href="#f2_h" transform="matrix(12,0,0,12,620.1,621.7)" />
<use xlink:href="#f2_4" transform="matrix(12,0,0,12,631.6,621.7)" />
<use xlink:href="#f2_y" transform="matrix(12,0,0,12,642.9,621.7)" />
<use xlink:href="#f2_d" transform="matrix(12,0,0,12,663.8,621.7)" />
<use xlink:href="#f2_b" transform="matrix(12,0,0,12,676.3,621.7)" />
<use xlink:href="#f2_b" transform="matrix(12,0,0,12,687.9,621.7)" />
<use xlink:href="#f2_i" transform="matrix(12,0,0,12,699.5,621.7)" />
<use xlink:href="#f2_4" transform="matrix(12,0,0,12,704.6,621.7)" />
<use xlink:href="#f2_z" transform="matrix(12,0,0,12,721.8,621.7)" />
<use xlink:href="#f2_15" transform="matrix(12,0,0,12,727.1,621.7)" />
<use xlink:href="#f2_c" transform="matrix(12,0,0,12,747.1,621.7)" />
<use xlink:href="#f2_8" transform="matrix(12,0,0,12,758.3,621.7)" />
<use xlink:href="#f2_r" transform="matrix(12,0,0,12,771.6,621.7)" />
<use xlink:href="#f2_9" transform="matrix(12,0,0,12,783.2,621.7)" />
<use xlink:href="#f2_4" transform="matrix(12,0,0,12,792.8,621.7)" />
<use xlink:href="#f2_g" transform="matrix(12,0,0,12,86.8,650.4)" />
<use xlink:href="#f2_h" transform="matrix(12,0,0,12,98.1,650.4)" />
<use xlink:href="#f2_4" transform="matrix(12,0,0,12,115.5,650.4)" />
<use xlink:href="#f2_14" transform="matrix(12,0,0,12,126.5,650.4)" />
<use xlink:href="#f2_7" transform="matrix(12,0,0,12,137.3,650.4)" />
<use xlink:href="#f2_9" transform="matrix(12,0,0,12,142.4,650.4)" />
<use xlink:href="#f2_a" transform="matrix(12,0,0,12,152,650.4)" />
<use xlink:href="#f2_7" transform="matrix(12,0,0,12,159.2,650.4)" />
<use xlink:href="#f2_h" transform="matrix(12,0,0,12,164.2,650.4)" />
<use xlink:href="#f2_f" transform="matrix(12,0,0,12,175.8,650.4)" />
<use xlink:href="#f2_c" transform="matrix(12,0,0,12,193.2,650.4)" />
<use xlink:href="#f2_h" transform="matrix(12,0,0,12,204.4,650.4)" />
<use xlink:href="#f2_4" transform="matrix(12,0,0,12,216,650.4)" />
<use xlink:href="#f2_l" transform="matrix(12,0,0,12,227.3,650.4)" />
<use xlink:href="#f2_z" transform="matrix(12,0,0,12,239,650.4)" />
<use xlink:href="#f2_6" transform="matrix(12,0,0,12,244.4,650.4)" />
<use xlink:href="#f2_t" transform="matrix(12,0,0,12,256.7,650.4)" />
<use xlink:href="#f2_c" transform="matrix(12,0,0,12,267.6,650.4)" />
<use xlink:href="#f2_r" transform="matrix(12,0,0,12,278.7,650.4)" />
<use xlink:href="#f2_y" transform="matrix(12,0,0,12,296.3,650.4)" />
<use xlink:href="#f2_g" transform="matrix(12,0,0,12,311.1,650.4)" />
<use xlink:href="#f2_h" transform="matrix(12,0,0,12,322.4,650.4)" />
<use xlink:href="#f2_a" transform="matrix(12,0,0,12,334,650.4)" />
<use xlink:href="#f2_q" transform="matrix(12,0,0,12,341.2,650.4)" />
<use xlink:href="#f2_t" transform="matrix(12,0,0,12,352.9,650.4)" />
<use xlink:href="#f2_c" transform="matrix(12,0,0,12,363.7,650.4)" />
<use xlink:href="#f2_r" transform="matrix(12,0,0,12,374.9,650.4)" />
<use xlink:href="#f2_o" transform="matrix(12,0,0,12,392.3,650.4)" />
<use xlink:href="#f2_g" transform="matrix(12,0,0,12,402.4,650.4)" />
<use xlink:href="#f2_h" transform="matrix(12,0,0,12,413.7,650.4)" />
<use xlink:href="#f2_9" transform="matrix(12,0,0,12,431.1,650.4)" />
<use xlink:href="#f2_g" transform="matrix(12,0,0,12,440.7,650.4)" />
<use xlink:href="#f2_k" transform="matrix(12,0,0,12,451.8,650.4)" />
<use xlink:href="#f2_4" transform="matrix(12,0,0,12,462.7,650.4)" />
<use xlink:href="#f2_a" transform="matrix(12,0,0,12,479.8,650.4)" />
<use xlink:href="#f2_7" transform="matrix(12,0,0,12,487,650.4)" />
<use xlink:href="#f2_p" transform="matrix(12,0,0,12,492,650.4)" />
<use xlink:href="#f2_4" transform="matrix(12,0,0,12,509.9,650.4)" />
<use xlink:href="#f2_g" transform="matrix(12,0,0,12,527.1,650.4)" />
<use xlink:href="#f2_h" transform="matrix(12,0,0,12,538.2,650.4)" />
<use xlink:href="#f2_j" transform="matrix(12,0,0,12,549.8,650.4)" />
<use xlink:href="#f2_r" transform="matrix(12,0,0,12,567.3,650.4)" />
<use xlink:href="#f2_9" transform="matrix(12,0,0,12,578.9,650.4)" />
<use xlink:href="#f2_4" transform="matrix(12,0,0,12,588.5,650.4)" />
<use xlink:href="#f2_a" transform="matrix(12,0,0,12,605.6,650.4)" />
<use xlink:href="#f2_3" transform="matrix(12,0,0,12,612.8,650.4)" />
<use xlink:href="#f2_4" transform="matrix(12,0,0,12,624.4,650.4)" />
<use xlink:href="#f2_d" transform="matrix(12,0,0,12,641.5,650.4)" />
<use xlink:href="#f2_b" transform="matrix(12,0,0,12,654,650.4)" />
<use xlink:href="#f2_b" transform="matrix(12,0,0,12,665.6,650.4)" />
<use xlink:href="#f2_i" transform="matrix(12,0,0,12,677.2,650.4)" />
<use xlink:href="#f2_4" transform="matrix(12,0,0,12,682.2,650.4)" />
<use xlink:href="#f2_z" transform="matrix(12,0,0,12,699.5,650.4)" />
<use xlink:href="#f2_15" transform="matrix(12,0,0,12,704.8,650.4)" />
<use xlink:href="#f2_t" transform="matrix(12,0,0,12,724.9,650.4)" />
<use xlink:href="#f2_c" transform="matrix(12,0,0,12,735.7,650.4)" />
<use xlink:href="#f2_r" transform="matrix(12,0,0,12,746.8,650.4)" />
<use xlink:href="#f2_g" transform="matrix(12,0,0,12,86.8,678.9)" />
<use xlink:href="#f2_i" transform="matrix(12,0,0,12,98.1,678.9)" />
<use xlink:href="#f2_8" transform="matrix(12,0,0,12,103.1,678.9)" />
<use xlink:href="#f2_4" transform="matrix(12,0,0,12,110.1,678.9)" />
<use xlink:href="#f2_g" transform="matrix(12,0,0,12,121.4,678.9)" />
<use xlink:href="#f2_j" transform="matrix(12,0,0,12,132.7,678.9)" />
<use xlink:href="#f2_t" transform="matrix(12,0,0,12,144.3,678.9)" />
<use xlink:href="#f2_r" transform="matrix(12,0,0,12,161,678.9)" />
<use xlink:href="#f2_9" transform="matrix(12,0,0,12,172.6,678.9)" />
<use xlink:href="#f2_4" transform="matrix(12,0,0,12,182.2,678.9)" />
<use xlink:href="#f2_6" transform="matrix(12,0,0,12,199.3,678.9)" />
<use xlink:href="#f2_c" transform="matrix(12,0,0,12,205.7,678.9)" />
<use xlink:href="#f2_8" transform="matrix(12,0,0,12,217,678.9)" />
<use xlink:href="#f2_t" transform="matrix(12,0,0,12,230.3,678.9)" />
<use xlink:href="#f2_c" transform="matrix(12,0,0,12,241.1,678.9)" />
<use xlink:href="#f2_r" transform="matrix(12,0,0,12,252.3,678.9)" />
<use xlink:href="#f2_8" transform="matrix(12,0,0,12,264,678.9)" />
<use xlink:href="#f2_7" transform="matrix(12,0,0,12,277.3,678.9)" />
<use xlink:href="#f2_2" transform="matrix(12,0,0,12,282.4,678.9)" />
<use xlink:href="#f2_r" transform="matrix(12,0,0,12,290.8,678.9)" />
<use xlink:href="#f2_h" transform="matrix(12,0,0,12,302.4,678.9)" />
<use xlink:href="#f2_4" transform="matrix(12,0,0,12,314,678.9)" />
<use xlink:href="#f2_9" transform="matrix(12,0,0,12,325.3,678.9)" />
<use xlink:href="#f2_b" transform="matrix(12,0,0,12,340.7,678.9)" />
<use xlink:href="#f2_r" transform="matrix(12,0,0,12,352.3,678.9)" />
<use xlink:href="#f2_8" transform="matrix(12,0,0,12,364,678.9)" />
<use xlink:href="#f2_o" transform="matrix(12,0,0,12,371.1,678.9)" />
<use xlink:href="#f2_3" transform="matrix(12,0,0,12,381.1,678.9)" />
<use xlink:href="#f2_g" transform="matrix(12,0,0,12,392.7,678.9)" />
<use xlink:href="#f2_9" transform="matrix(12,0,0,12,403.9,678.9)" />
<use xlink:href="#f2_4" transform="matrix(12,0,0,12,413.5,678.9)" />
<use xlink:href="#f2_9" transform="matrix(12,0,0,12,424.8,678.9)" />
<use xlink:href="#f2_q" transform="matrix(12,0,0,12,434.4,678.9)" />
<use xlink:href="#f2_n" transform="matrix(12,0,0,12,446,678.9)" />
<use xlink:href="#f2_r" transform="matrix(12,0,0,12,457.6,678.9)" />
<use xlink:href="#f2_a" transform="matrix(12,0,0,12,469.2,678.9)" />
<use xlink:href="#f2_7" transform="matrix(12,0,0,12,482.2,678.9)" />
<use xlink:href="#f2_a" transform="matrix(12,0,0,12,487.3,678.9)" />
<use xlink:href="#f2_11" transform="matrix(12,0,0,12,494.6,678.9)" />
<use xlink:href="#f2_9" transform="matrix(12,0,0,12,500.4,678.9)" />
<use xlink:href="#f2_n" transform="matrix(12,0,0,12,515.8,678.9)" />
<use xlink:href="#f2_4" transform="matrix(12,0,0,12,527.4,678.9)" />
<use xlink:href="#f2_a" transform="matrix(12,0,0,12,538.7,678.9)" />
<use xlink:href="#f2_a" transform="matrix(12,0,0,12,545.9,678.9)" />
<use xlink:href="#f2_4" transform="matrix(12,0,0,12,553.1,678.9)" />
<use xlink:href="#f2_8" transform="matrix(12,0,0,12,564.4,678.9)" />
<use xlink:href="#f2_a" transform="matrix(12,0,0,12,577.7,678.9)" />
<use xlink:href="#f2_c" transform="matrix(12,0,0,12,584.8,678.9)" />
<use xlink:href="#f2_3" transform="matrix(12,0,0,12,601.9,678.9)" />
<use xlink:href="#f2_g" transform="matrix(12,0,0,12,613.4,678.9)" />
<use xlink:href="#f2_k" transform="matrix(12,0,0,12,624.7,678.9)" />
<use xlink:href="#f2_4" transform="matrix(12,0,0,12,635.5,678.9)" />
<use xlink:href="#f2_g" transform="matrix(12,0,0,12,652.6,678.9)" />
<use xlink:href="#f2_j" transform="matrix(12,0,0,12,669.7,678.9)" />
<use xlink:href="#f2_7" transform="matrix(12,0,0,12,681.3,678.9)" />
<use xlink:href="#f2_6" transform="matrix(12,0,0,12,686.4,678.9)" />
<use xlink:href="#f2_6" transform="matrix(12,0,0,12,692.9,678.9)" />
<use xlink:href="#f2_4" transform="matrix(12,0,0,12,699.3,678.9)" />
<use xlink:href="#f2_8" transform="matrix(12,0,0,12,710.6,678.9)" />
<use xlink:href="#f2_4" transform="matrix(12,0,0,12,717.7,678.9)" />
<use xlink:href="#f2_h" transform="matrix(12,0,0,12,729,678.9)" />
<use xlink:href="#f2_a" transform="matrix(12,0,0,12,740.6,678.9)" />
<use xlink:href="#f2_z" transform="matrix(12,0,0,12,753.7,678.9)" />
<use xlink:href="#f2_15" transform="matrix(12,0,0,12,759,678.9)" />
<use xlink:href="#f2_a" transform="matrix(12,0,0,12,779,678.9)" />
<use xlink:href="#f2_c" transform="matrix(12,0,0,12,786.2,678.9)" />
<use xlink:href="#f2_10" transform="matrix(12,0,0,12,86.8,707.7)" />
<use xlink:href="#f2_4" transform="matrix(12,0,0,12,96.9,707.7)" />
<use xlink:href="#f2_4" transform="matrix(12,0,0,12,108,707.7)" />
<use xlink:href="#f2_b" transform="matrix(12,0,0,12,119.3,707.7)" />
<use xlink:href="#f2_t" transform="matrix(12,0,0,12,136.8,707.7)" />
<use xlink:href="#f2_c" transform="matrix(12,0,0,12,147.7,707.7)" />
<use xlink:href="#f2_r" transform="matrix(12,0,0,12,158.8,707.7)" />
<use xlink:href="#f2_8" transform="matrix(12,0,0,12,170.4,707.7)" />
<use xlink:href="#f2_b" transform="matrix(12,0,0,12,183.9,707.7)" />
<use xlink:href="#f2_4" transform="matrix(12,0,0,12,195.5,707.7)" />
<use xlink:href="#f2_8" transform="matrix(12,0,0,12,206.8,707.7)" />
<use xlink:href="#f2_9" transform="matrix(12,0,0,12,214.1,707.7)" />
<use xlink:href="#f2_c" transform="matrix(12,0,0,12,223.7,707.7)" />
<use xlink:href="#f2_h" transform="matrix(12,0,0,12,234.8,707.7)" />
<use xlink:href="#f2_g" transform="matrix(12,0,0,12,246.4,707.7)" />
<use xlink:href="#f2_i" transform="matrix(12,0,0,12,257.7,707.7)" />
<use xlink:href="#f2_g" transform="matrix(12,0,0,12,268.7,707.7)" />
<use xlink:href="#f2_h" transform="matrix(12,0,0,12,279.9,707.7)" />
<use xlink:href="#f2_j" transform="matrix(12,0,0,12,291.5,707.7)" />
<use xlink:href="#f2_b" transform="matrix(12,0,0,12,309,707.7)" />
<use xlink:href="#f2_8" transform="matrix(12,0,0,12,320.6,707.7)" />
<use xlink:href="#f2_c" transform="matrix(12,0,0,12,327.8,707.7)" />
<use xlink:href="#f2_6" transform="matrix(12,0,0,12,339,707.7)" />
<use xlink:href="#f2_4" transform="matrix(12,0,0,12,345.4,707.7)" />
<use xlink:href="#f2_9" transform="matrix(12,0,0,12,356.7,707.7)" />
<use xlink:href="#f2_9" transform="matrix(12,0,0,12,366.2,707.7)" />
<use xlink:href="#f2_7" transform="matrix(12,0,0,12,375.8,707.7)" />
<use xlink:href="#f2_c" transform="matrix(12,0,0,12,380.8,707.7)" />
<use xlink:href="#f2_h" transform="matrix(12,0,0,12,392,707.7)" />
<use xlink:href="#f2_g" transform="matrix(12,0,0,12,403.6,707.7)" />
<use xlink:href="#f2_i" transform="matrix(12,0,0,12,414.9,707.7)" />
<use xlink:href="#f2_i" transform="matrix(12,0,0,12,425.8,707.7)" />
<use xlink:href="#f2_7" transform="matrix(12,0,0,12,430.9,707.7)" />
<use xlink:href="#f2_k" transform="matrix(12,0,0,12,435.9,707.7)" />
<use xlink:href="#f2_4" transform="matrix(12,0,0,12,446.8,707.7)" />
<use xlink:href="#f2_9" transform="matrix(12,0,0,12,458,707.7)" />
<use xlink:href="#f2_9" transform="matrix(12,0,0,12,473.5,707.7)" />
<use xlink:href="#f2_4" transform="matrix(12,0,0,12,483.1,707.7)" />
<use xlink:href="#f2_b" transform="matrix(12,0,0,12,494.4,707.7)" />
<use xlink:href="#f2_g" transform="matrix(12,0,0,12,505.8,707.7)" />
<use xlink:href="#f2_8" transform="matrix(12,0,0,12,517.1,707.7)" />
<use xlink:href="#f2_g" transform="matrix(12,0,0,12,524.6,707.7)" />
<use xlink:href="#f2_a" transform="matrix(12,0,0,12,535.9,707.7)" />
<use xlink:href="#f2_4" transform="matrix(12,0,0,12,543.1,707.7)" />
<use xlink:href="#f2_l" transform="matrix(12,0,0,12,554.4,707.7)" />
<use xlink:href="#f2_e" transform="matrix(12,0,0,12,86.8,736.2)" />
<use xlink:href="#f2_c" transform="matrix(12,0,0,12,98.4,736.2)" />
<use xlink:href="#f2_q" transform="matrix(12,0,0,12,109.7,736.2)" />
<use xlink:href="#f2_o" transform="matrix(12,0,0,12,121.3,736.2)" />
<use xlink:href="#f2_i" transform="matrix(12,0,0,12,131.4,736.2)" />
<use xlink:href="#f2_7" transform="matrix(12,0,0,12,136.4,736.2)" />
<use xlink:href="#f2_o" transform="matrix(12,0,0,12,141.4,736.2)" />
<use xlink:href="#f2_10" transform="matrix(12,0,0,12,151.5,736.2)" />
</g>
<g fill="#0000FF" >
<use xlink:href="#f1_h" transform="matrix(12,0,0,12,168.2,736.2)" />
<use xlink:href="#f1_b" transform="matrix(12,0,0,12,181.6,736.2)" />
<use xlink:href="#f1_3" transform="matrix(12,0,0,12,190.7,736.2)" />
<use xlink:href="#f1_a" transform="matrix(12,0,0,12,203,736.2)" />
<use xlink:href="#f1_4" transform="matrix(12,0,0,12,215.4,736.2)" />
<use xlink:href="#f1_3" transform="matrix(12,0,0,12,224.2,736.2)" />
<use xlink:href="#f1_d" transform="matrix(12,0,0,12,243,736.2)" />
<use xlink:href="#f1_i" transform="matrix(12,0,0,12,257.2,736.2)" />
<use xlink:href="#f1_i" transform="matrix(12,0,0,12,270.3,736.2)" />
<use xlink:href="#f1_j" transform="matrix(12,0,0,12,283.5,736.2)" />
<use xlink:href="#f1_3" transform="matrix(12,0,0,12,289.7,736.2)" />
<use xlink:href="#f1_k" transform="matrix(12,0,0,12,308.5,736.2)" />
<use xlink:href="#f1_l" transform="matrix(12,0,0,12,315.2,736.2)" />
</g>
<g fill="#000000" >
<use xlink:href="#f2_12" transform="matrix(12,0,0,12,330.6,736.2)" />
<use xlink:href="#f2_16" transform="matrix(12,0,0,12,86.8,1194.6)" />
<use xlink:href="#f2_7" transform="matrix(12,0,0,12,95.9,1194.6)" />
<use xlink:href="#f2_i" transform="matrix(12,0,0,12,101.1,1194.6)" />
<use xlink:href="#f2_i" transform="matrix(12,0,0,12,106.2,1194.6)" />
<use xlink:href="#f2_7" transform="matrix(12,0,0,12,117.1,1194.6)" />
<use xlink:href="#f2_h" transform="matrix(12,0,0,12,122.2,1194.6)" />
<use xlink:href="#f2_t" transform="matrix(12,0,0,12,139.6,1194.6)" />
<use xlink:href="#f2_c" transform="matrix(12,0,0,12,150.4,1194.6)" />
<use xlink:href="#f2_r" transform="matrix(12,0,0,12,161.6,1194.6)" />
<use xlink:href="#f2_8" transform="matrix(12,0,0,12,173.3,1194.6)" />
<use xlink:href="#f2_4" transform="matrix(12,0,0,12,186.6,1194.6)" />
<use xlink:href="#f2_p" transform="matrix(12,0,0,12,197.9,1194.6)" />
<use xlink:href="#f2_g" transform="matrix(12,0,0,12,215.8,1194.6)" />
<use xlink:href="#f2_7" transform="matrix(12,0,0,12,227.1,1194.6)" />
<use xlink:href="#f2_i" transform="matrix(12,0,0,12,232.1,1194.6)" />
<use xlink:href="#f2_q" transform="matrix(12,0,0,12,237.1,1194.6)" />
<use xlink:href="#f2_b" transform="matrix(12,0,0,12,248.9,1194.6)" />
<use xlink:href="#f2_g" transform="matrix(12,0,0,12,260.4,1194.6)" />
<use xlink:href="#f2_9" transform="matrix(12,0,0,12,271.7,1194.6)" />
<use xlink:href="#f2_9" transform="matrix(12,0,0,12,281.1,1194.6)" />
<use xlink:href="#f2_y" transform="matrix(12,0,0,12,290.7,1194.6)" />
<use xlink:href="#f2_c" transform="matrix(12,0,0,12,305.7,1194.6)" />
<use xlink:href="#f2_8" transform="matrix(12,0,0,12,317,1194.6)" />
<use xlink:href="#f2_j" transform="matrix(12,0,0,12,324.2,1194.6)" />
<use xlink:href="#f2_g" transform="matrix(12,0,0,12,341.6,1194.6)" />
<use xlink:href="#f2_h" transform="matrix(12,0,0,12,352.9,1194.6)" />
<use xlink:href="#f2_j" transform="matrix(12,0,0,12,364.5,1194.6)" />
<use xlink:href="#f2_9" transform="matrix(12,0,0,12,381.9,1194.6)" />
<use xlink:href="#f2_4" transform="matrix(12,0,0,12,391.5,1194.6)" />
<use xlink:href="#f2_o" transform="matrix(12,0,0,12,402.8,1194.6)" />
<use xlink:href="#f2_r" transform="matrix(12,0,0,12,412.9,1194.6)" />
<use xlink:href="#f2_8" transform="matrix(12,0,0,12,424.5,1194.6)" />
<use xlink:href="#f2_7" transform="matrix(12,0,0,12,432,1194.6)" />
<use xlink:href="#f2_a" transform="matrix(12,0,0,12,437,1194.6)" />
<use xlink:href="#f2_t" transform="matrix(12,0,0,12,444.2,1194.6)" />
<use xlink:href="#f2_7" transform="matrix(12,0,0,12,461,1194.6)" />
<use xlink:href="#f2_h" transform="matrix(12,0,0,12,466,1194.6)" />
<use xlink:href="#f2_6" transform="matrix(12,0,0,12,477.6,1194.6)" />
<use xlink:href="#f2_c" transform="matrix(12,0,0,12,484,1194.6)" />
<use xlink:href="#f2_8" transform="matrix(12,0,0,12,495.2,1194.6)" />
<use xlink:href="#f2_p" transform="matrix(12,0,0,12,502.4,1194.6)" />
<use xlink:href="#f2_g" transform="matrix(12,0,0,12,520.2,1194.6)" />
<use xlink:href="#f2_a" transform="matrix(12,0,0,12,531.5,1194.6)" />
<use xlink:href="#f2_7" transform="matrix(12,0,0,12,538.7,1194.6)" />
<use xlink:href="#f2_c" transform="matrix(12,0,0,12,543.9,1194.6)" />
<use xlink:href="#f2_h" transform="matrix(12,0,0,12,555,1194.6)" />
<use xlink:href="#f2_l" transform="matrix(12,0,0,12,566.6,1194.6)" />
<use xlink:href="#f2_u" transform="matrix(12,0,0,12,578.4,1194.6)" />
<use xlink:href="#f2_9" transform="matrix(12,0,0,12,591.7,1194.6)" />
<use xlink:href="#f2_4" transform="matrix(12,0,0,12,601.3,1194.6)" />
<use xlink:href="#f2_g" transform="matrix(12,0,0,12,618.4,1194.6)" />
<use xlink:href="#f2_h" transform="matrix(12,0,0,12,629.7,1194.6)" />
<use xlink:href="#f2_4" transform="matrix(12,0,0,12,647.1,1194.6)" />
<use xlink:href="#f2_p" transform="matrix(12,0,0,12,658.2,1194.6)" />
<use xlink:href="#f2_g" transform="matrix(12,0,0,12,676.1,1194.6)" />
<use xlink:href="#f2_7" transform="matrix(12,0,0,12,687.4,1194.6)" />
<use xlink:href="#f2_i" transform="matrix(12,0,0,12,692.4,1194.6)" />
<use xlink:href="#f2_g" transform="matrix(12,0,0,12,703.4,1194.6)" />
<use xlink:href="#f2_j" transform="matrix(12,0,0,12,714.6,1194.6)" />
<use xlink:href="#f2_j" transform="matrix(12,0,0,12,726.2,1194.6)" />
<use xlink:href="#f2_8" transform="matrix(12,0,0,12,737.9,1194.6)" />
<use xlink:href="#f2_4" transform="matrix(12,0,0,12,744.9,1194.6)" />
<use xlink:href="#f2_9" transform="matrix(12,0,0,12,756.2,1194.6)" />
<use xlink:href="#f2_9" transform="matrix(12,0,0,12,765.7,1194.6)" />
<use xlink:href="#f2_a" transform="matrix(12,0,0,12,781.1,1194.6)" />
<use xlink:href="#f2_3" transform="matrix(12,0,0,12,788.3,1194.6)" />
<use xlink:href="#f2_g" transform="matrix(12,0,0,12,799.9,1194.6)" />
<use xlink:href="#f2_a" transform="matrix(12,0,0,12,811.2,1194.6)" />
</g>
</g>
<image preserveAspectRatio="none" x="87" y="484" width="736" height="92" xlink:href="img/1.png" />
<image preserveAspectRatio="none" x="81" y="747" width="544" height="383" xlink:href="img/2.png" />
<defs>
<path d="M78,-22V359h28c0,0,32,-161,126,-246c0,0,94,-85,202,-85c0,0,84,0,133,46c0,0,50,45,50,106c0,0,0,36,-19,69c0,0,-19,34,-58,64c0,0,-39,30,-138,79c0,0,-138,68,-198,115c0,0,-60,48,-92,107c0,0,-33,59,-33,130c0,0,0,120,89,205c0,0,89,85,224,85c0,0,49,0,96,-11c0,0,35,-9,85,-34c0,0,51,-24,71,-24c0,0,19,0,30,12c0,0,12,12,21,57h23l8,-337H695c0,0,-21,127,-106,204c0,0,-85,78,-184,78c0,0,-76,0,-121,-41c0,0,-44,-41,-44,-94c0,0,0,-33,15,-59c0,0,22,-35,70,-70c0,0,35,-24,162,-87c0,0,178,-87,240,-165c0,0,61,-77,61,-177c0,0,0,-127,-99,-218c0,0,-99,-90,-251,-90c0,0,-48,0,-90,9c0,0,-43,10,-107,36c0,0,-36,15,-59,15c0,0,-20,0,-41,-15c0,0,-22,-15,-35,-45Z" 
id="f0_2"
transform="scale(0.001,-0.001)" />

<path d="M304,-20c0,0,-59,0,-105,36c0,0,-45,36,-61,84c0,0,-16,49,-16,169V546c0,0,0,79,-14,98c0,0,-15,20,-61,26v27H331V221c0,0,0,-74,8,-96c0,0,7,-21,22,-33c0,0,15,-11,35,-11c0,0,27,0,49,14c0,0,30,20,71,78V546c0,0,0,79,-14,98c0,0,-15,20,-61,26v27H726V152c0,0,0,-81,14,-100c0,0,15,-20,61,-26V0H516V93C516,93,466,34,416,7c0,0,-50,-27,-112,-27Z" 
id="f0_3"
transform="scale(0.001,-0.001)" />

<path d="M434,31c0,0,38,0,65,22c0,0,28,22,46,86c0,0,18,64,18,231c0,0,0,161,-40,220c0,0,-29,44,-78,44c0,0,-64,0,-123,-73V251c0,0,0,-95,4,-121c0,0,8,-44,36,-71c0,0,28,-28,72,-28ZM115,-20V867c0,0,0,61,-5,75c0,0,-7,21,-23,31c0,0,-17,10,-55,12v27H322V628c0,0,88,91,192,91c0,0,72,0,135,-42c0,0,64,-43,99,-120c0,0,36,-78,36,-179c0,0,0,-114,-45,-208C739,170,693,77,617,28c0,0,-76,-48,-174,-48c0,0,-56,0,-100,18c0,0,-44,17,-87,57L141,-20Z" 
id="f0_4"
transform="scale(0.001,-0.001)" />

<path d="M56,0V26c0,0,44,5,63,29c0,0,13,16,13,97V546c0,0,0,79,-15,98c0,0,-14,20,-61,26v27H341V606c0,0,57,63,106,88c0,0,49,25,108,25c0,0,67,0,112,-32c0,0,46,-31,71,-95c0,0,59,67,114,97c0,0,55,30,115,30c0,0,72,0,115,-34c0,0,43,-33,60,-84c0,0,16,-51,16,-163V152c0,0,0,-81,15,-100c0,0,14,-20,61,-26V0H873V26c0,0,42,4,63,33c0,0,13,20,13,93V452c0,0,0,93,-7,119c0,0,-8,25,-24,38c0,0,-16,12,-37,12c0,0,-32,0,-65,-24c0,0,-33,-23,-66,-70V152c0,0,0,-76,12,-95c0,0,17,-28,66,-31V0H466V26c0,0,29,2,46,15c0,0,17,13,23,31c0,0,5,18,5,80V452c0,0,0,95,-7,119c0,0,-8,24,-25,37c0,0,-18,14,-38,14c0,0,-30,0,-54,-16c0,0,-35,-23,-75,-79V152c0,0,0,-74,14,-98c0,0,15,-23,61,-28V0Z" 
id="f0_5"
transform="scale(0.001,-0.001)" />

<path d="M32,0V26c0,0,46,2,69,27c0,0,14,18,14,92V551c0,0,0,75,-17,95c0,0,-17,21,-66,24v27H325V145c0,0,0,-74,17,-95c0,0,17,-21,68,-24V0ZM220,804c0,0,-48,0,-82,33c0,0,-33,34,-33,82c0,0,0,48,33,82c0,0,34,33,82,33c0,0,48,0,82,-33c0,0,33,-34,33,-82c0,0,0,-48,-34,-82c0,0,-34,-33,-81,-33Z" 
id="f0_6"
transform="scale(0.001,-0.001)" />

<path d="M298,-9c0,0,-67,0,-113,36c0,0,-46,37,-58,83c0,0,-8,25,-8,137V624H28v26c0,0,94,66,161,139c0,0,66,73,115,163h25V697H494V624H329V193c0,0,0,-60,5,-78c0,0,6,-17,20,-28c0,0,14,-11,26,-11c0,0,48,0,92,75l22,-17C494,134,434,-9,298,-9Z" 
id="f0_7"
transform="scale(0.001,-0.001)" />

<path d="M350,115c0,0,37,0,86,42V391c0,0,-90,-53,-134,-113c0,0,-29,-41,-29,-82c0,0,0,-34,24,-60c0,0,19,-21,53,-21ZM207,-9c0,0,-59,0,-99,38c0,0,-40,40,-40,99c0,0,0,80,69,143c0,0,69,64,299,170v70c0,0,0,79,-8,100c0,0,-9,20,-33,36c0,0,-23,15,-53,15c0,0,-49,0,-80,-22c0,0,-19,-13,-19,-31c0,0,0,-16,21,-39c0,0,28,-32,28,-62c0,0,0,-36,-27,-62c0,0,-27,-26,-71,-26c0,0,-47,0,-79,29c0,0,-32,28,-32,66c0,0,0,54,43,103c0,0,42,48,118,75c0,0,76,26,158,26c0,0,99,0,157,-42c0,0,58,-43,75,-92c0,0,11,-31,11,-144V170c0,0,0,-47,3,-60c0,0,4,-12,11,-18c0,0,8,-6,18,-6c0,0,19,0,39,28L738,96c0,0,-37,-56,-77,-81c0,0,-40,-24,-90,-24c0,0,-60,0,-94,27c0,0,-33,28,-41,85C436,103,309,-9,207,-9Z" 
id="f0_9"
transform="scale(0.001,-0.001)" />

<path d="M52,0V26c0,0,44,5,62,29c0,0,13,16,13,97V546c0,0,0,79,-14,98c0,0,-15,20,-61,26v27H336V607c0,0,54,59,104,85c0,0,49,27,106,27c0,0,68,0,113,-38c0,0,44,-38,59,-94c0,0,12,-42,12,-163V152c0,0,0,-81,15,-101c0,0,14,-19,61,-25V0H452V26c0,0,40,6,57,33c0,0,12,19,12,93V462c0,0,0,86,-7,109c0,0,-6,22,-22,35c0,0,-16,12,-36,12c0,0,-64,0,-120,-92V152c0,0,0,-79,15,-100c0,0,15,-20,55,-26V0Z" 
id="f0_a"
transform="scale(0.001,-0.001)" />

<path d="M459,56c0,0,40,0,66,42c0,0,39,63,39,239c0,0,0,180,-42,247c0,0,-29,44,-76,44c0,0,-76,0,-124,-109V147c0,0,64,-91,137,-91ZM29,-326v28c0,0,46,1,69,26c0,0,14,17,14,89V551c0,0,0,75,-17,95c0,0,-17,21,-66,24v27H322V605c0,0,36,54,74,78c0,0,55,36,119,36c0,0,77,0,140,-49c0,0,63,-48,95,-134c0,0,33,-85,33,-184c0,0,0,-106,-34,-193c0,0,-34,-88,-98,-134c0,0,-65,-45,-144,-45c0,0,-57,0,-107,25c0,0,-37,19,-78,66V-188c0,0,0,-53,8,-73c0,0,9,-19,27,-28c0,0,18,-9,70,-9v-28Z" 
id="f0_b"
transform="scale(0.001,-0.001)" />

<path d="M381,31c0,0,33,0,56,19c0,0,29,25,38,71c0,0,15,71,15,286c0,0,0,127,-14,174c0,0,-14,48,-42,69c0,0,-19,16,-50,16c0,0,-38,0,-65,-29c0,0,-27,-29,-36,-113c0,0,-8,-85,-8,-235c0,0,0,-80,10,-150c0,0,8,-53,35,-80c0,0,27,-28,61,-28Zm2,-51c0,0,-157,0,-242,110c0,0,-85,110,-85,256c0,0,0,150,87,261c0,0,86,112,238,112c0,0,90,0,169,-47c0,0,78,-47,119,-134c0,0,40,-86,40,-189c0,0,0,-149,-75,-249c0,0,-91,-120,-251,-120Z" 
id="f0_c"
transform="scale(0.001,-0.001)" />

<path d="M32,0V26c0,0,46,2,69,27c0,0,14,18,14,92V867c0,0,0,74,-17,94c0,0,-17,21,-66,24v27H325V145c0,0,0,-74,17,-95c0,0,17,-21,68,-24V0Z" 
id="f0_d"
transform="scale(0.001,-0.001)" />

<path d="M458,424c0,0,0,120,-13,165c0,0,-13,44,-40,67c0,0,-16,14,-42,14c0,0,-39,0,-63,-38c0,0,-44,-66,-44,-182V424ZM358,-20c0,0,-155,0,-235,119c0,0,-64,96,-64,239c0,0,0,174,94,277c0,0,94,104,221,104c0,0,106,0,184,-87c0,0,78,-87,84,-257H259c0,0,7,-139,74,-220c0,0,51,-62,124,-62c0,0,45,0,81,25c0,0,37,25,79,90l25,-16C642,192,585,76,517,28c0,0,-69,-48,-159,-48Z" 
id="f0_e"
transform="scale(0.001,-0.001)" />

<path d="M312,-20c0,0,-50,0,-134,30c0,0,-22,9,-30,9c0,0,-25,0,-41,-37H82L70,232H97c0,0,33,-99,91,-148c0,0,59,-49,111,-49c0,0,35,0,58,22c0,0,22,22,22,54c0,0,0,35,-22,61c0,0,-22,27,-100,80c0,0,-114,79,-147,120c0,0,-49,62,-49,136c0,0,0,80,55,145c0,0,56,66,161,66c0,0,56,0,109,-28c0,0,20,-11,33,-11c0,0,13,0,21,5c0,0,9,6,27,32h26L504,479H477c0,0,-45,106,-94,145c0,0,-48,39,-96,39c0,0,-31,0,-52,-21c0,0,-22,-20,-22,-47c0,0,0,-20,15,-39c0,0,24,-30,133,-105c0,0,110,-74,144,-126c0,0,35,-52,35,-116c0,0,0,-58,-29,-114C511,95,482,39,429,9c0,0,-53,-29,-117,-29Z" 
id="f0_f"
transform="scale(0.001,-0.001)" />

<path d="M57,0V26c0,0,45,4,61,25c0,0,16,22,16,113V550c0,0,0,59,-6,76c0,0,-7,21,-22,30c0,0,-14,10,-49,14v27H342l1,-158c0,0,69,109,121,144c0,0,52,36,100,36c0,0,42,0,66,-26c0,0,25,-26,25,-73c0,0,0,-50,-24,-77c0,0,-25,-28,-59,-28c0,0,-39,0,-68,25c0,0,-28,26,-33,29c0,0,-8,4,-17,4c0,0,-22,0,-41,-16c0,0,-31,-26,-46,-73c0,0,-24,-72,-24,-159V122c0,0,0,-42,5,-54c0,0,9,-21,27,-30c0,0,17,-9,59,-12V0Z" 
id="f0_g"
transform="scale(0.001,-0.001)" />

<path d="M679,-20c0,0,-278,0,-440,154C239,134,76,290,76,556c0,0,0,269,166,424c0,0,165,154,453,154c0,0,111,0,213,-21c0,0,102,-21,192,-62V820c0,0,-93,54,-185,80c0,0,-92,26,-185,26c0,0,-171,0,-264,-96c0,0,-92,-96,-92,-274c0,0,0,-177,89,-273c0,0,89,-96,254,-96c0,0,45,0,83,5c0,0,39,6,69,18V425H694V618h447V83C1141,83,1034,31,918,5C918,5,803,-20,679,-20Z" 
id="f1_2"
transform="scale(0.001,-0.001)" />

<path d="M687,509c0,0,0,76,-44,122c0,0,-44,47,-116,47c0,0,-78,0,-126,-44c0,0,-49,-43,-61,-125ZM544,-20c0,0,-227,0,-353,114C191,94,66,209,66,417c0,0,0,204,123,321c0,0,123,118,340,118c0,0,197,0,315,-119c0,0,118,-118,118,-317V344H337c0,0,10,-94,68,-141c0,0,59,-47,163,-47c0,0,85,0,173,25c0,0,89,25,182,76V51C923,51,828,15,733,-2c0,0,-94,-18,-189,-18Z" 
id="f1_3"
transform="scale(0.001,-0.001)" />

<path d="M443,0C443,0,285,0,219,66c0,0,-66,66,-66,224V645H20V836H153v237H419V836H695V645H419V290c0,0,0,-58,24,-79c0,0,23,-20,91,-20H672V0Z" 
id="f1_4"
transform="scale(0.001,-0.001)" />

<path d="M128,0V836H395V0Zm0,944v217H395V944Z" 
id="f1_5"
transform="scale(0.001,-0.001)" />

<path d="M128,0V836H395V713c0,0,60,73,128,108c0,0,68,35,150,35c0,0,145,0,220,-89c0,0,75,-89,75,-258V0H699V389c0,0,0,109,-5,150c0,0,-5,41,-16,60c0,0,-16,26,-43,41c0,0,-27,14,-61,14c0,0,-84,0,-131,-64c0,0,-48,-65,-48,-179V0Z" 
id="f1_6"
transform="scale(0.001,-0.001)" />

<path d="M520,194c0,0,84,0,130,61c0,0,46,61,46,172c0,0,0,112,-46,174c0,0,-46,61,-130,61c0,0,-82,0,-129,-61c0,0,-46,-62,-46,-174c0,0,0,-115,45,-174c0,0,45,-59,130,-59ZM469,-328c0,0,-78,0,-151,12c0,0,-73,12,-147,36V-71c0,0,70,-41,137,-61c0,0,67,-20,135,-20c0,0,131,0,192,58c0,0,61,57,61,178v58C696,142,641,69,575,34C575,34,508,0,421,0C421,0,268,0,168,121C168,121,68,241,68,428c0,0,0,187,100,307c0,0,100,120,253,120c0,0,87,0,154,-35c0,0,66,-34,121,-108V836H965V84c0,0,0,-200,-127,-306c0,0,-127,-106,-369,-106Z" 
id="f1_7"
transform="scale(0.001,-0.001)" />

<path d="M545,-20c0,0,-106,0,-212,20C333,0,226,19,119,58V301c0,0,107,-57,207,-85c0,0,99,-29,192,-29c0,0,94,0,144,31c0,0,50,31,50,90c0,0,0,52,-34,80c0,0,-34,29,-136,51L431,464c0,0,-167,35,-244,114c0,0,-77,78,-77,211c0,0,0,166,107,256c0,0,107,89,309,89c0,0,92,0,189,-14c0,0,97,-13,200,-41V843c0,0,-92,41,-179,62c0,0,-87,21,-165,21c0,0,-103,0,-152,-28c0,0,-49,-29,-49,-88c0,0,0,-45,33,-70c0,0,33,-25,121,-43L646,672c0,0,186,-37,264,-113c0,0,79,-76,79,-216c0,0,0,-185,-110,-275c0,0,-109,-88,-334,-88Z" 
id="f1_9"
transform="scale(0.001,-0.001)" />

<path d="M463,156c0,0,75,0,127,54c0,0,51,54,51,135v30H502c0,0,-83,0,-125,-28c0,0,-43,-28,-43,-83c0,0,0,-50,34,-79c0,0,34,-29,95,-29ZM357,-20c0,0,-130,0,-211,74c0,0,-80,76,-80,197c0,0,0,147,101,215c0,0,101,69,317,69H641v21c0,0,0,63,-50,92c0,0,-49,30,-155,30c0,0,-86,0,-160,-17c0,0,-74,-18,-137,-52V813c0,0,86,21,172,32c0,0,86,11,173,11c0,0,226,0,326,-90c0,0,100,-89,100,-290V0H641V124C641,124,588,48,521,13c0,0,-68,-33,-164,-33Z" 
id="f1_a"
transform="scale(0.001,-0.001)" />

<path d="M128,0V836H395V698c0,0,52,82,118,120c0,0,67,38,161,38c0,0,13,0,29,-2c0,0,15,-1,45,-4l1,-242c0,0,-35,17,-70,25c0,0,-35,7,-70,7c0,0,-103,0,-158,-66c0,0,-56,-66,-56,-189V0Z" 
id="f1_b"
transform="scale(0.001,-0.001)" />

<path d="M520,172c0,0,86,0,131,63c0,0,45,63,45,182c0,0,0,119,-45,182c0,0,-45,63,-131,63c0,0,-85,0,-130,-63c0,0,-45,-63,-45,-182c0,0,0,-119,45,-182c0,0,45,-63,130,-63ZM421,-20c0,0,-154,0,-253,121C168,101,68,224,68,417c0,0,0,193,100,316c0,0,99,123,253,123c0,0,87,0,153,-35c0,0,67,-35,122,-108v448H965V0H696V121C696,121,641,47,575,13c0,0,-67,-33,-154,-33Z" 
id="f1_c"
transform="scale(0.001,-0.001)" />

<path d="M391,0V987H-3v127H938V987H543V0Z" 
id="f2_2"
transform="scale(0.001,-0.001)" />

<path d="M139,0V1161H277V706c0,0,49,75,116,112c0,0,67,38,154,38c0,0,144,0,218,-90c0,0,74,-89,74,-262V0H702V500c0,0,0,119,-46,177c0,0,-47,59,-139,59c0,0,-112,0,-176,-71c0,0,-64,-70,-64,-193V0Z" 
id="f2_3"
transform="scale(0.001,-0.001)" />

<path d="M231,492l491,1c0,0,-2,112,-64,179c0,0,-61,67,-163,67c0,0,-115,0,-184,-65c0,0,-69,-64,-80,-182ZM517,-20c0,0,-199,0,-316,115C201,95,84,211,84,410c0,0,0,205,111,325c0,0,111,121,299,121c0,0,168,0,266,-109c0,0,98,-108,98,-295V385H227c0,0,9,-142,85,-216c0,0,77,-74,213,-74c0,0,80,0,154,19c0,0,74,19,147,58V42C826,42,752,11,675,-4c0,0,-78,-16,-158,-16Z" 
id="f2_4"
transform="scale(0.001,-0.001)" />

<path d="M166,0V729H35V836H166v58c0,0,0,139,65,203c0,0,65,64,206,64H567V1046H435c0,0,-74,0,-102,-29c0,0,-29,-30,-29,-107V836H530V729H304V0Z" 
id="f2_6"
transform="scale(0.001,-0.001)" />

<path d="M144,0V836H281V0Zm0,987v174H281V987Z" 
id="f2_7"
transform="scale(0.001,-0.001)" />

<path d="M139,0V836H277V706c0,0,43,76,112,113c0,0,70,37,169,37c0,0,14,0,31,-2c0,0,17,-2,38,-6l1,-141c0,0,-23,14,-51,20c0,0,-27,6,-60,6c0,0,-116,0,-178,-75c0,0,-62,-76,-62,-218V0Z" 
id="f2_8"
transform="scale(0.001,-0.001)" />

<path d="M376,-20c0,0,-67,0,-140,12C236,-8,164,4,83,30V172c0,0,76,-40,150,-59c0,0,74,-20,146,-20c0,0,97,0,150,33c0,0,52,33,52,94c0,0,0,56,-38,85c0,0,-38,30,-165,58l-48,11c0,0,-128,27,-184,83c0,0,-57,55,-57,152c0,0,0,118,83,182c0,0,84,65,238,65c0,0,76,0,143,-12c0,0,67,-11,124,-33V681c0,0,-58,29,-121,44c0,0,-63,15,-130,15c0,0,-102,0,-153,-31c0,0,-51,-31,-51,-94c0,0,0,-48,37,-75c0,0,36,-27,147,-52l46,-10c0,0,147,-32,208,-89c0,0,62,-57,62,-159c0,0,0,-116,-93,-184c0,0,-92,-66,-253,-66Z" 
id="f2_9"
transform="scale(0.001,-0.001)" />

<path d="M421,0C421,0,263,0,202,59c0,0,-60,60,-60,217V729H41V836H142v238H280V836H562V729H280V276c0,0,0,-102,28,-132c0,0,28,-29,113,-29H562V0Z" 
id="f2_a"
transform="scale(0.001,-0.001)" />

<path d="M510,93c0,0,109,0,171,86c0,0,62,86,62,238c0,0,0,151,-62,237c0,0,-62,86,-171,86c0,0,-109,0,-171,-86c0,0,-62,-86,-62,-237c0,0,0,-152,62,-238c0,0,62,-86,171,-86ZM139,-317V836H277V709c0,0,43,74,109,110c0,0,66,37,158,37c0,0,152,0,247,-121c0,0,95,-121,95,-318c0,0,0,-197,-95,-318C791,99,696,-20,544,-20c0,0,-92,0,-158,35c0,0,-66,36,-109,110V-317Z" 
id="f2_b"
transform="scale(0.001,-0.001)" />

<path d="M467,95c0,0,110,0,174,86c0,0,64,87,64,236c0,0,0,148,-64,235c0,0,-64,87,-174,87c0,0,-110,0,-174,-86c0,0,-64,-86,-64,-236c0,0,0,-150,64,-236c0,0,63,-86,174,-86Zm0,-115c0,0,-179,0,-281,115C186,95,84,212,84,417c0,0,0,206,102,322c0,0,102,117,281,117c0,0,179,0,282,-117c0,0,102,-116,102,-322c0,0,0,-205,-102,-322C749,95,646,-20,467,-20Z" 
id="f2_c"
transform="scale(0.001,-0.001)" />

<path d="M727,411L522,965L318,411ZM12,0L437,1114H608L1033,0H876L774,286H272L171,0Z" 
id="f2_d"
transform="scale(0.001,-0.001)" />

<path d="M458,-20c0,0,-79,0,-168,17c0,0,-89,17,-184,52V204c0,0,91,-51,179,-77c0,0,88,-26,173,-26c0,0,129,0,199,50c0,0,70,51,70,145c0,0,0,82,-50,129c0,0,-50,46,-165,69l-92,18c0,0,-169,34,-244,105c0,0,-75,72,-75,199c0,0,0,148,104,233c0,0,104,85,287,85c0,0,78,0,159,-14c0,0,81,-14,166,-42V931c0,0,-85,41,-161,61c0,0,-76,20,-147,20c0,0,-123,0,-190,-48c0,0,-67,-48,-67,-136c0,0,0,-73,45,-111c0,0,44,-38,168,-61l91,-19c0,0,168,-32,249,-113c0,0,80,-81,80,-216c0,0,0,-162,-109,-246c0,0,-108,-82,-318,-82Z" 
id="f2_e"
transform="scale(0.001,-0.001)" />

<path d="M460,115c0,0,111,0,173,82c0,0,61,82,61,230c0,0,0,149,-61,231c0,0,-62,82,-173,82c0,0,-111,0,-173,-82c0,0,-61,-82,-61,-231c0,0,0,-148,61,-230c0,0,62,-82,173,-82ZM446,-317c0,0,-72,0,-137,11c0,0,-64,11,-124,33v134c0,0,60,-33,119,-49c0,0,59,-15,121,-15c0,0,135,0,202,70c0,0,67,71,67,212v68C694,147,652,73,585,36C585,36,519,0,426,0C426,0,272,0,178,117c0,0,-94,117,-94,310c0,0,0,194,94,311c0,0,94,118,248,118c0,0,93,0,159,-37c0,0,67,-36,109,-110V836H831V104c0,0,0,-212,-95,-317c0,0,-94,-104,-290,-104Z" 
id="f2_f"
transform="scale(0.001,-0.001)" />

<path d="M408,93c0,0,115,0,184,81c0,0,69,81,69,215v30H524c0,0,-167,0,-231,-38c0,0,-64,-38,-64,-129c0,0,0,-73,48,-116c0,0,48,-43,131,-43ZM372,-20c0,0,-128,0,-204,70c0,0,-76,72,-76,193c0,0,0,141,94,212c0,0,95,72,282,72H661v13c0,0,0,95,-62,147c0,0,-63,52,-175,52c0,0,-72,0,-140,-17c0,0,-68,-17,-130,-51V798c0,0,75,29,146,43c0,0,71,15,138,15c0,0,181,0,270,-95c0,0,90,-94,90,-285V0H661V127C661,127,614,51,544,15c0,0,-70,-35,-172,-35Z" 
id="f2_g"
transform="scale(0.001,-0.001)" />

<path d="M139,0V836H277V706c0,0,49,75,116,112c0,0,67,38,154,38c0,0,144,0,218,-90c0,0,74,-89,74,-262V0H702V500c0,0,0,119,-46,177c0,0,-47,59,-139,59c0,0,-112,0,-176,-71c0,0,-64,-70,-64,-193V0Z" 
id="f2_h"
transform="scale(0.001,-0.001)" />

<path d="M144,0V1161H281V0Z" 
id="f2_i"
transform="scale(0.001,-0.001)" />

<path d="M460,93c0,0,109,0,171,86c0,0,63,86,63,238c0,0,0,151,-63,237c0,0,-62,86,-171,86c0,0,-109,0,-172,-86c0,0,-62,-86,-62,-237c0,0,0,-152,62,-238c0,0,63,-86,172,-86ZM426,-20c0,0,-151,0,-247,119c0,0,-95,121,-95,318c0,0,0,197,95,318c0,0,96,121,247,121c0,0,93,0,159,-37c0,0,66,-36,109,-110v452H831V0H694V125C694,125,651,51,585,15c0,0,-66,-35,-159,-35Z" 
id="f2_j"
transform="scale(0.001,-0.001)" />

<path d="M359,0L46,836H191L453,134L714,836H859L546,0Z" 
id="f2_k"
transform="scale(0.001,-0.001)" />

<path d="M163,0V190H321V0Z" 
id="f2_l"
transform="scale(0.001,-0.001)" />

<path d="M150,0V1114H353L846,182v932H992V0H789L296,932V0Z" 
id="f2_m"
transform="scale(0.001,-0.001)" />

<path d="M510,93c0,0,109,0,171,86c0,0,62,86,62,238c0,0,0,151,-62,237c0,0,-62,86,-171,86c0,0,-109,0,-171,-86c0,0,-62,-86,-62,-237c0,0,0,-152,62,-238c0,0,62,-86,171,-86ZM544,-20c0,0,-92,0,-158,35c0,0,-66,36,-109,110V0H139V1161H277V709c0,0,43,74,109,110c0,0,66,37,158,37c0,0,152,0,247,-121c0,0,95,-121,95,-318c0,0,0,-197,-95,-318C791,99,696,-20,544,-20Z" 
id="f2_n"
transform="scale(0.001,-0.001)" />

<path d="M495,-20c0,0,-189,0,-300,117C195,97,84,216,84,417c0,0,0,204,112,321c0,0,113,118,308,118c0,0,64,0,124,-14c0,0,60,-13,117,-39V675c0,0,-58,32,-117,48c0,0,-58,16,-118,16c0,0,-133,0,-207,-84c0,0,-74,-85,-74,-238c0,0,0,-153,74,-238c0,0,74,-84,207,-84c0,0,60,0,118,16c0,0,59,16,117,48V32C745,32,688,5,626,-7c0,0,-61,-13,-131,-13Z" 
id="f2_o"
transform="scale(0.001,-0.001)" />

<path d="M139,0V836H277V706c0,0,47,77,112,113c0,0,66,37,156,37c0,0,91,0,155,-47c0,0,64,-46,94,-134c0,0,52,93,123,137c0,0,72,44,169,44c0,0,130,0,201,-92c0,0,71,-91,71,-260V0H1220V500c0,0,0,120,-42,178c0,0,-43,58,-130,58c0,0,-107,0,-169,-71c0,0,-62,-70,-62,-193V0H680V500c0,0,0,121,-43,179c0,0,-42,57,-131,57c0,0,-105,0,-167,-71c0,0,-62,-71,-62,-193V0Z" 
id="f2_p"
transform="scale(0.001,-0.001)" />

<path d="M117,-176L179,62V190H336V62L213,-176Z" 
id="f2_q"
transform="scale(0.001,-0.001)" />

<path d="M424,-20c0,0,-145,0,-219,88c0,0,-75,89,-75,262V836H267V335c0,0,0,-119,46,-178c0,0,47,-59,139,-59c0,0,112,0,177,71c0,0,64,71,64,193V836H830V0H693V128C693,128,643,52,577,15c0,0,-66,-35,-153,-35Z" 
id="f2_r"
transform="scale(0.001,-0.001)" />

<path d="M74,365V472H1453V365Z" 
id="f2_s"
transform="scale(0.001,-0.001)" />

<path d="M121,-317v116h81c0,0,57,0,88,26c0,0,31,27,69,127l25,62L46,836H191L453,182L714,836H859L492,-76c0,0,-58,-150,-113,-195c0,0,-55,-46,-148,-46Z" 
id="f2_t"
transform="scale(0.001,-0.001)" />

<path d="M560,-20c0,0,-211,0,-319,110c0,0,-108,111,-108,328v696H285V437c0,0,0,-179,64,-258c0,0,65,-78,211,-78c0,0,144,0,209,78c0,0,65,79,65,258v677H986V418c0,0,0,-217,-108,-328C878,90,770,-20,560,-20Z" 
id="f2_u"
transform="scale(0.001,-0.001)" />

<path d="M516,109c0,0,95,12,143,53c0,0,48,41,48,108c0,0,0,66,-46,104c0,0,-46,39,-145,57V109ZM442,574V881c0,0,-87,-10,-132,-50c0,0,-46,-39,-46,-105c0,0,0,-64,42,-100c0,0,42,-36,136,-52Zm0,-798L441,0c0,0,-78,1,-156,18c0,0,-79,17,-158,50V202c0,0,76,-47,154,-71c0,0,78,-24,161,-25V446c0,0,-165,27,-240,91c0,0,-75,64,-75,176c0,0,0,122,81,192c0,0,82,70,234,81v175h74V988c0,0,70,-3,135,-15c0,0,64,-11,126,-31V811c0,0,-62,31,-127,49c0,0,-65,17,-134,20V561c0,0,169,-26,249,-94c0,0,80,-67,80,-183c0,0,0,-126,-85,-199C760,85,676,13,516,1V-224Z" 
id="f2_v"
transform="scale(0.001,-0.001)" />

<path d="M467,496c0,0,102,0,161,69c0,0,59,70,59,190c0,0,0,120,-59,190c0,0,-59,70,-161,70c0,0,-101,0,-160,-70c0,0,-60,-70,-60,-190c0,0,0,-120,60,-190c0,0,59,-69,160,-69ZM403,-20c0,0,-57,0,-115,11c0,0,-58,10,-121,32V160c0,0,57,-26,115,-40c0,0,58,-14,115,-14c0,0,149,0,228,100c0,0,79,100,90,305c0,0,-44,-65,-110,-99c0,0,-66,-35,-147,-35c0,0,-167,0,-265,102c0,0,-97,101,-97,276c0,0,0,172,101,275c0,0,102,104,270,104c0,0,194,0,295,-148c0,0,102,-148,102,-430c0,0,0,-263,-125,-420C739,136,614,-20,403,-20Z" 
id="f2_w"
transform="scale(0.001,-0.001)" />

<path d="M391,0V530L-2,1114H159L468,656l307,458H937L543,530V0Z" 
id="f2_x"
transform="scale(0.001,-0.001)" />

<path d="M283,0L65,836H202L373,184L544,836H706L878,184l171,652h137L967,0H806L626,685L445,0Z" 
id="f2_y"
transform="scale(0.001,-0.001)" />

<path d="M150,0V1114H300V0Z" 
id="f2_z"
transform="scale(0.001,-0.001)" />

<path d="M139,0V1161H277V475L686,836H861L418,445L880,0H701L277,408V0Z" 
id="f2_10"
transform="scale(0.001,-0.001)" />

<path d="M132,763l62,237v114H351V1000L228,763Z" 
id="f2_11"
transform="scale(0.001,-0.001)" />

<path d="M678,393L506,802L330,393ZM11,0V27c0,0,63,12,82,30c0,0,38,35,84,145l356,832h27L912,193c0,0,43,-101,77,-132c0,0,35,-30,97,-34V0H687V27c0,0,60,3,82,21c0,0,21,17,21,41c0,0,0,33,-30,104L700,338H307L239,179c0,0,-26,-59,-26,-88c0,0,0,-23,22,-41c0,0,22,-17,95,-23V0Z" 
id="f3_2"
transform="scale(0.001,-0.001)" />

<path d="M398,24c0,0,74,0,120,58c0,0,61,76,61,214c0,0,0,156,-69,240c0,0,-47,59,-113,59c0,0,-36,0,-71,-18c0,0,-27,-14,-88,-81V242c0,0,0,-83,6,-109c0,0,11,-43,51,-76c0,0,41,-33,103,-33ZM-4,-326v27H15c5,0,42,0,69,16c0,0,14,8,22,26c0,0,7,19,7,94V481c0,0,0,67,-6,85c0,0,-5,18,-18,27c0,0,-13,9,-36,9c0,0,-18,0,-45,-10L0,615l209,85h29V540c0,0,53,91,106,127c0,0,53,36,112,36c0,0,103,0,172,-80c0,0,84,-99,84,-257c0,0,0,-176,-102,-292c0,0,-83,-94,-210,-94c0,0,-55,0,-95,16c0,0,-30,10,-67,44V-167c0,0,0,-71,8,-90c0,0,9,-20,30,-31c0,0,21,-11,77,-11v-27Z" 
id="f3_3"
transform="scale(0.001,-0.001)" />

<path d="M58,0V26c0,0,47,0,64,10c0,0,18,10,28,32c0,0,9,23,9,86V775c0,0,0,116,-5,142c0,0,-5,27,-17,37c0,0,-11,9,-29,9c0,0,-20,0,-49,-12L46,978l204,83h34V154c0,0,0,-64,9,-85c0,0,9,-21,29,-32c0,0,19,-11,72,-11V0Z" 
id="f3_4"
transform="scale(0.001,-0.001)" />

<path d="M479,469c0,0,-4,66,-16,93c0,0,-18,42,-55,65c0,0,-37,24,-78,24c0,0,-62,0,-111,-48c0,0,-48,-48,-57,-134ZM355,-20c0,0,-123,0,-211,95c0,0,-87,96,-87,258c0,0,0,175,90,273c0,0,89,98,225,98c0,0,115,0,189,-76c0,0,74,-75,74,-202H162c0,0,0,-152,74,-239c0,0,75,-86,175,-86c0,0,67,0,117,36c0,0,50,37,83,127l24,-15c0,0,-16,-102,-91,-186c0,0,-76,-83,-189,-83Z" 
id="f3_5"
transform="scale(0.001,-0.001)" />

<path d="M473,53c0,0,173,0,287,121c0,0,114,122,114,330c0,0,0,210,-114,330c0,0,-114,121,-293,121c0,0,-67,0,-153,-21V74c0,0,95,-21,159,-21ZM26,0V27H64c0,0,64,0,91,41c0,0,16,25,16,111V833c0,0,0,95,-21,119c0,0,-29,33,-86,33H26v27H438c0,0,226,0,345,-51c0,0,118,-52,190,-172c0,0,72,-120,72,-278c0,0,0,-211,-129,-353C916,158,773,0,478,0Z" 
id="f3_7"
transform="scale(0.001,-0.001)" />

<path d="M376,-20L133,556c0,0,-17,41,-31,58c0,0,-15,18,-39,30c0,0,-12,7,-50,13v26H335V657H314c0,0,-29,0,-44,-14c0,0,-16,-14,-15,-38c0,0,-1,-26,15,-62L429,165L588,557c0,0,17,42,17,64c0,0,0,10,-6,17c0,0,-8,11,-21,15c0,0,-13,4,-52,4v26H750V657c0,0,-39,-3,-54,-16c0,0,-26,-23,-47,-76L409,-20Z" 
id="f3_8"
transform="scale(0.001,-0.001)" />

<path d="M406,32c0,0,72,0,119,60c0,0,47,59,47,205c0,0,0,181,-78,286c0,0,-53,71,-135,71c0,0,-40,0,-79,-23c0,0,-40,-24,-65,-83c0,0,-24,-58,-24,-151c0,0,0,-149,59,-257c0,0,59,-108,156,-108ZM374,-20c0,0,-154,0,-245,122c0,0,-77,104,-77,233c0,0,0,94,46,187c0,0,47,92,123,137c0,0,76,44,161,44c0,0,155,0,249,-118c0,0,80,-100,80,-231c0,0,0,-91,-44,-185C667,169,623,75,546,27c0,0,-77,-47,-172,-47Z" 
id="f3_9"
transform="scale(0.001,-0.001)" />

<path d="M17,0V26c0,0,52,0,77,17c0,0,19,12,26,38c0,0,4,13,4,73V419c0,0,0,119,-5,142c0,0,-4,23,-17,33c0,0,-13,11,-33,11c0,0,-23,0,-52,-11l-7,26l207,83h31V549c0,0,86,154,176,154c0,0,41,0,68,-25c0,0,27,-25,27,-58c0,0,0,-29,-20,-49c0,0,-19,-20,-46,-20c0,0,-26,0,-58,25c0,0,-33,26,-48,26c0,0,-14,0,-29,-15c0,0,-34,-30,-70,-101V159c0,0,0,-56,15,-85c0,0,9,-20,34,-34c0,0,24,-14,71,-14V0Z" 
id="f3_a"
transform="scale(0.001,-0.001)" />

<path d="M107,-21V325h27c0,0,19,-109,52,-163c0,0,33,-54,100,-90c0,0,68,-36,148,-36c0,0,93,0,148,49c0,0,54,50,54,117c0,0,0,37,-21,75c0,0,-20,38,-64,71c0,0,-29,22,-159,95c0,0,-130,72,-185,115c0,0,-55,44,-83,96c0,0,-28,52,-28,114c0,0,0,109,83,188c0,0,84,78,213,78c0,0,81,0,171,-39c0,0,42,-19,59,-19c0,0,20,0,32,11c0,0,12,12,20,47h27V684H674c0,0,-14,101,-48,161c0,0,-35,60,-100,95c0,0,-64,35,-133,35c0,0,-77,0,-128,-47c0,0,-51,-48,-51,-108c0,0,0,-46,32,-84c0,0,47,-56,221,-149c0,0,142,-76,194,-117c0,0,51,-41,80,-96c0,0,28,-55,28,-115c0,0,0,-115,-90,-198c0,0,-89,-82,-229,-82c0,0,-44,0,-83,6c0,0,-23,4,-95,27c0,0,-73,24,-93,24c0,0,-18,0,-29,-11c0,0,-11,-12,-16,-46Z" 
id="f3_b"
transform="scale(0.001,-0.001)" />

<path d="M55,0V26c0,0,50,0,67,10c0,0,17,10,27,32c0,0,10,23,10,86V418c0,0,0,111,-6,144c0,0,-6,24,-17,33c0,0,-11,10,-30,10c0,0,-21,0,-51,-11L45,620l206,83h33V154c0,0,0,-64,9,-85c0,0,9,-22,27,-32c0,0,19,-11,67,-11V0ZM222,909c0,0,-32,0,-54,23c0,0,-22,22,-22,53c0,0,0,32,22,54c0,0,22,22,54,22c0,0,31,0,53,-22c0,0,22,-22,22,-54c0,0,0,-31,-22,-53c0,0,-22,-23,-53,-23Z" 
id="f3_c"
transform="scale(0.001,-0.001)" />

<path d="M255,-10c0,0,-35,0,-68,18c0,0,-32,19,-48,55c0,0,-16,35,-16,109V632H15v24c0,0,41,16,84,56c0,0,43,39,77,92c0,0,17,29,48,104h23V683H407V632H247V188c0,0,0,-66,19,-90c0,0,19,-23,49,-23c0,0,24,0,47,16c0,0,23,15,36,45h29c0,0,-26,-73,-74,-110c0,0,-47,-36,-98,-36Z" 
id="f3_d"
transform="scale(0.001,-0.001)" />

<path d="M744,410L592,853L439,410ZM8,0L420,1114H763L1175,0H887L816,203H367L297,0Z" 
id="f1_d"
transform="scale(0.001,-0.001)" />

<path d="M547,-20c0,0,-226,0,-354,114C193,94,66,210,66,417c0,0,0,207,127,323c0,0,128,116,354,116c0,0,66,0,129,-12c0,0,64,-11,128,-34V592c0,0,-55,37,-110,55c0,0,-54,18,-113,18c0,0,-112,0,-175,-65c0,0,-62,-66,-62,-183c0,0,0,-117,62,-183c0,0,63,-65,175,-65c0,0,62,0,119,19c0,0,56,19,104,55V24C804,24,741,1,676,-9c0,0,-64,-11,-129,-11Z" 
id="f1_e"
transform="scale(0.001,-0.001)" />

<path d="M526,169c0,0,87,0,133,64c0,0,46,64,46,184c0,0,0,120,-46,184c0,0,-46,64,-133,64c0,0,-89,0,-135,-64c0,0,-47,-64,-47,-184c0,0,0,-120,47,-184c0,0,46,-64,135,-64Zm0,-189c0,0,-217,0,-339,115C187,95,66,211,66,417c0,0,0,206,121,322c0,0,122,117,339,117c0,0,215,0,336,-117c0,0,122,-116,122,-322c0,0,0,-206,-122,-322C862,95,741,-20,526,-20Z" 
id="f1_f"
transform="scale(0.001,-0.001)" />

<path d="M415,-20c0,0,-144,0,-220,87c0,0,-76,89,-76,259V836H388V752c0,0,0,-67,-1,-170c0,0,0,-103,0,-137c0,0,0,-101,5,-145c0,0,5,-44,18,-65c0,0,16,-26,43,-40c0,0,26,-14,60,-14c0,0,84,0,132,64c0,0,47,64,47,178V836H959V0H692V121C692,121,632,48,564,13c0,0,-67,-33,-149,-33Z" 
id="f1_g"
transform="scale(0.001,-0.001)" />

<path d="M179,0V190H336V0Zm0,600V790H336V600Z" 
id="f2_12"
transform="scale(0.001,-0.001)" />

<path d="M602,101c0,0,164,0,260,122c0,0,95,123,95,333c0,0,0,211,-95,334c0,0,-96,122,-260,122c0,0,-164,0,-260,-122c0,0,-97,-123,-97,-334c0,0,0,-210,97,-333c0,0,96,-122,260,-122Zm0,-121c0,0,-235,0,-375,155C227,135,86,292,86,556c0,0,0,264,141,421c0,0,140,157,375,157c0,0,234,0,374,-157c0,0,141,-157,141,-421c0,0,0,-263,-141,-420C976,136,836,-20,602,-20Z" 
id="f2_13"
transform="scale(0.001,-0.001)" />

<path d="M44,0L369,437L71,836H233L455,538L677,836H839L537,429L855,0H693L449,328L206,0Z" 
id="f2_14"
transform="scale(0.001,-0.001)" />

<path d="M482,124c0,0,231,0,338,105c0,0,107,104,107,329c0,0,0,224,-107,328c0,0,-107,104,-338,104H300V124ZM150,0V1114H459c0,0,324,0,476,-135c0,0,151,-135,151,-421c0,0,0,-288,-152,-423C934,135,782,0,459,0Z" 
id="f2_15"
transform="scale(0.001,-0.001)" />

<path d="M680,-20c0,0,-278,0,-441,154C239,134,76,290,76,556c0,0,0,267,163,423c0,0,163,155,441,155c0,0,93,0,179,-21c0,0,86,-21,165,-62V820c0,0,-80,55,-158,81c0,0,-77,25,-163,25c0,0,-154,0,-241,-98c0,0,-88,-99,-88,-272c0,0,0,-172,87,-271c0,0,88,-98,242,-98c0,0,86,0,163,25c0,0,78,26,158,80V61C1024,61,945,20,859,0c0,0,-86,-20,-179,-20Z" 
id="f1_h"
transform="scale(0.001,-0.001)" />

<path d="M573,172c0,0,86,0,131,63c0,0,45,63,45,182c0,0,0,119,-45,182c0,0,-45,63,-131,63c0,0,-86,0,-132,-63c0,0,-46,-63,-46,-182c0,0,0,-119,46,-182c0,0,46,-63,132,-63ZM128,-317V836H395V713c0,0,55,73,122,108c0,0,68,35,155,35c0,0,154,0,253,-123c0,0,100,-123,100,-316c0,0,0,-193,-100,-316c0,0,-99,-121,-253,-121c0,0,-87,0,-155,33c0,0,-67,35,-122,108V-317Z" 
id="f1_i"
transform="scale(0.001,-0.001)" />

<path d="M128,0V1161H395V0Z" 
id="f1_j"
transform="scale(0.001,-0.001)" />

<path d="M140,0V1114H427V0Z" 
id="f1_k"
transform="scale(0.001,-0.001)" />

<path d="M530,217c0,0,176,0,269,87c0,0,93,88,93,254c0,0,0,166,-93,252c0,0,-92,87,-269,87H427V217ZM140,0V1114H443c0,0,253,0,378,-36c0,0,124,-37,213,-123c0,0,78,-76,116,-174c0,0,38,-98,38,-223c0,0,0,-126,-38,-225c0,0,-38,-99,-116,-174c0,0,-90,-87,-215,-123C819,36,694,0,443,0Z" 
id="f1_l"
transform="scale(0.001,-0.001)" />

<path d="M150,0V1114H790V987H300V659H742V532H300V0Z" 
id="f2_16"
transform="scale(0.001,-0.001)" />


</defs>
</svg>