<?xml version="1.0" encoding="UTF-8" standalone="no"?>
<!DOCTYPE svg PUBLIC "-//W3C//DTD SVG 1.1//EN"
"http://www.w3.org/Graphics/SVG/1.1/DTD/svg11.dtd">
<svg viewBox="0 0 909 1286" version="1.1" xmlns="http://www.w3.org/2000/svg" xmlns:xlink="http://www.w3.org/1999/xlink">
<defs>
<clipPath id="c0_9"><path d="M0,1286.2V.2H909.3v1286Z" /></clipPath>
</defs>
<g clip-path="url(#c0_9)">
<g fill="#000000" >
<use xlink:href="#f0_10" transform="matrix(12,0,0,12,86.8,110.9)" />
<use xlink:href="#f0_a" transform="matrix(12,0,0,12,100.5,110.9)" />
<use xlink:href="#f0_1h" transform="matrix(12,0,0,12,111.5,110.9)" />
<use xlink:href="#f0_6" transform="matrix(12,0,0,12,122.3,110.9)" />
<use xlink:href="#f0_9" transform="matrix(12,0,0,12,135.3,110.9)" />
<use xlink:href="#f0_6" transform="matrix(12,0,0,12,144.9,110.9)" />
<use xlink:href="#f0_a" transform="matrix(12,0,0,12,152,110.9)" />
<use xlink:href="#f0_s" transform="matrix(12,0,0,12,163.3,110.9)" />
<use xlink:href="#f0_c" transform="matrix(12,0,0,12,180.8,110.9)" />
<use xlink:href="#f0_9" transform="matrix(12,0,0,12,185.9,110.9)" />
<use xlink:href="#f0_6" transform="matrix(12,0,0,12,201.3,110.9)" />
<use xlink:href="#f0_d" transform="matrix(12,0,0,12,208.5,110.9)" />
<use xlink:href="#f0_s" transform="matrix(12,0,0,12,225.4,110.9)" />
<use xlink:href="#f0_d" transform="matrix(12,0,0,12,237.2,110.9)" />
<use xlink:href="#f0_c" transform="matrix(12,0,0,12,248.3,110.9)" />
<use xlink:href="#f0_e" transform="matrix(12,0,0,12,253.4,110.9)" />
<use xlink:href="#f0_6" transform="matrix(12,0,0,12,265,110.9)" />
<use xlink:href="#f0_z" transform="matrix(12,0,0,12,278.1,110.9)" />
<use xlink:href="#f0_b" transform="matrix(12,0,0,12,290.6,110.9)" />
<use xlink:href="#f0_d" transform="matrix(12,0,0,12,300.7,110.9)" />
<use xlink:href="#f0_f" transform="matrix(12,0,0,12,311.8,110.9)" />
<use xlink:href="#f0_a" transform="matrix(12,0,0,12,323.4,110.9)" />
<use xlink:href="#f0_6" transform="matrix(12,0,0,12,340.5,110.9)" />
<use xlink:href="#f0_d" transform="matrix(12,0,0,12,347.7,110.9)" />
<use xlink:href="#f0_6" transform="matrix(12,0,0,12,364.8,110.9)" />
<use xlink:href="#f0_7" transform="matrix(12,0,0,12,372,110.9)" />
<use xlink:href="#f0_a" transform="matrix(12,0,0,12,383.6,110.9)" />
<use xlink:href="#f0_b" transform="matrix(12,0,0,12,400.7,110.9)" />
<use xlink:href="#f0_d" transform="matrix(12,0,0,12,410.8,110.9)" />
<use xlink:href="#f0_g" transform="matrix(12,0,0,12,421.9,110.9)" />
<use xlink:href="#f0_g" transform="matrix(12,0,0,12,429.3,110.9)" />
<use xlink:href="#f0_a" transform="matrix(12,0,0,12,436.3,110.9)" />
<use xlink:href="#f0_b" transform="matrix(12,0,0,12,447.6,110.9)" />
<use xlink:href="#f0_6" transform="matrix(12,0,0,12,457.7,110.9)" />
<use xlink:href="#f0_s" transform="matrix(12,0,0,12,470.8,110.9)" />
<use xlink:href="#f0_g" transform="matrix(12,0,0,12,482.4,110.9)" />
<use xlink:href="#f0_d" transform="matrix(12,0,0,12,489.4,110.9)" />
<use xlink:href="#f0_t" transform="matrix(12,0,0,12,500.6,110.9)" />
<use xlink:href="#f0_c" transform="matrix(12,0,0,12,511.5,110.9)" />
<use xlink:href="#f0_9" transform="matrix(12,0,0,12,516.6,110.9)" />
<use xlink:href="#f0_c" transform="matrix(12,0,0,12,526.2,110.9)" />
<use xlink:href="#f0_d" transform="matrix(12,0,0,12,531.2,110.9)" />
<use xlink:href="#f0_e" transform="matrix(12,0,0,12,542.4,110.9)" />
<use xlink:href="#f0_c" transform="matrix(12,0,0,12,554,110.9)" />
<use xlink:href="#f0_e" transform="matrix(12,0,0,12,559.2,110.9)" />
<use xlink:href="#f0_q" transform="matrix(12,0,0,12,570.8,110.9)" />
<use xlink:href="#f0_s" transform="matrix(12,0,0,12,588.2,110.9)" />
<use xlink:href="#f0_g" transform="matrix(12,0,0,12,599.9,110.9)" />
<use xlink:href="#f0_d" transform="matrix(12,0,0,12,606.9,110.9)" />
<use xlink:href="#f0_h" transform="matrix(12,0,0,12,618.1,110.9)" />
<use xlink:href="#f0_c" transform="matrix(12,0,0,12,624.6,110.9)" />
<use xlink:href="#f0_o" transform="matrix(12,0,0,12,629.7,110.9)" />
<use xlink:href="#f0_a" transform="matrix(12,0,0,12,634.7,110.9)" />
<use xlink:href="#f0_9" transform="matrix(12,0,0,12,646,110.9)" />
<use xlink:href="#f0_l" transform="matrix(12,0,0,12,655.6,110.9)" />
<use xlink:href="#f0_1f" transform="matrix(12,0,0,12,667.2,110.9)" />
<use xlink:href="#f0_o" transform="matrix(12,0,0,12,680.1,110.9)" />
<use xlink:href="#f0_c" transform="matrix(12,0,0,12,685.1,110.9)" />
<use xlink:href="#f0_b" transform="matrix(12,0,0,12,690.1,110.9)" />
<use xlink:href="#f0_i" transform="matrix(12,0,0,12,700.2,110.9)" />
<use xlink:href="#f0_d" transform="matrix(12,0,0,12,716.7,110.9)" />
<use xlink:href="#f0_e" transform="matrix(12,0,0,12,727.8,110.9)" />
<use xlink:href="#f0_6" transform="matrix(12,0,0,12,745.4,110.9)" />
<use xlink:href="#f0_7" transform="matrix(12,0,0,12,752.6,110.9)" />
<use xlink:href="#f0_a" transform="matrix(12,0,0,12,764.2,110.9)" />
</g>
<g fill="#0000FF" >
<use xlink:href="#f1_11" transform="matrix(12,0,0,12,86.8,139.6)" />
<use xlink:href="#f1_o" transform="matrix(12,0,0,12,100.8,139.6)" />
<use xlink:href="#f1_5" transform="matrix(12,0,0,12,113.8,139.6)" />
<use xlink:href="#f1_r" transform="matrix(12,0,0,12,120.1,139.6)" />
<use xlink:href="#f1_c" transform="matrix(12,0,0,12,126.3,139.6)" />
<use xlink:href="#f1_9" transform="matrix(12,0,0,12,145.9,139.6)" />
<use xlink:href="#f1_3" transform="matrix(12,0,0,12,159.1,139.6)" />
<use xlink:href="#f1_4" transform="matrix(12,0,0,12,171.5,139.6)" />
<use xlink:href="#f1_4" transform="matrix(12,0,0,12,180.2,139.6)" />
<use xlink:href="#f1_5" transform="matrix(12,0,0,12,188.9,139.6)" />
<use xlink:href="#f1_6" transform="matrix(12,0,0,12,195.3,139.6)" />
<use xlink:href="#f1_7" transform="matrix(12,0,0,12,208.3,139.6)" />
<use xlink:href="#f1_k" transform="matrix(12,0,0,12,221.4,139.6)" />
</g>
<g fill="#000000" >
<use xlink:href="#f0_6" transform="matrix(12,0,0,12,238.9,139.6)" />
<use xlink:href="#f0_8" transform="matrix(12,0,0,12,246,139.6)" />
<use xlink:href="#f0_x" transform="matrix(12,0,0,12,257.3,139.6)" />
<use xlink:href="#f0_8" transform="matrix(12,0,0,12,274.8,139.6)" />
<use xlink:href="#f0_e" transform="matrix(12,0,0,12,286,139.6)" />
<use xlink:href="#f0_f" transform="matrix(12,0,0,12,297.6,139.6)" />
<use xlink:href="#f0_9" transform="matrix(12,0,0,12,315.1,139.6)" />
<use xlink:href="#f0_a" transform="matrix(12,0,0,12,324.6,139.6)" />
<use xlink:href="#f0_8" transform="matrix(12,0,0,12,335.9,139.6)" />
<use xlink:href="#f0_g" transform="matrix(12,0,0,12,347.2,139.6)" />
<use xlink:href="#f0_b" transform="matrix(12,0,0,12,354.2,139.6)" />
<use xlink:href="#f0_7" transform="matrix(12,0,0,12,364.3,139.6)" />
<use xlink:href="#f0_h" transform="matrix(12,0,0,12,381.7,139.6)" />
<use xlink:href="#f0_d" transform="matrix(12,0,0,12,388.2,139.6)" />
<use xlink:href="#f0_g" transform="matrix(12,0,0,12,399.4,139.6)" />
<use xlink:href="#f0_6" transform="matrix(12,0,0,12,412.8,139.6)" />
<use xlink:href="#f0_7" transform="matrix(12,0,0,12,420,139.6)" />
<use xlink:href="#f0_a" transform="matrix(12,0,0,12,431.6,139.6)" />
<use xlink:href="#f0_n" transform="matrix(12,0,0,12,448.7,139.6)" />
<use xlink:href="#f0_d" transform="matrix(12,0,0,12,463.7,139.6)" />
<use xlink:href="#f0_g" transform="matrix(12,0,0,12,474.8,139.6)" />
<use xlink:href="#f0_f" transform="matrix(12,0,0,12,482,139.6)" />
<use xlink:href="#f0_1b" transform="matrix(12,0,0,12,499.6,139.6)" />
<use xlink:href="#f0_9" transform="matrix(12,0,0,12,509,139.6)" />
<use xlink:href="#f0_c" transform="matrix(12,0,0,12,518.7,139.6)" />
<use xlink:href="#f0_q" transform="matrix(12,0,0,12,523.7,139.6)" />
<use xlink:href="#f0_e" transform="matrix(12,0,0,12,535.3,139.6)" />
<use xlink:href="#f0_c" transform="matrix(12,0,0,12,546.9,139.6)" />
<use xlink:href="#f0_e" transform="matrix(12,0,0,12,551.9,139.6)" />
<use xlink:href="#f0_q" transform="matrix(12,0,0,12,563.6,139.6)" />
<use xlink:href="#f0_1c" transform="matrix(12,0,0,12,575.2,139.6)" />
<use xlink:href="#f0_l" transform="matrix(12,0,0,12,584.8,139.6)" />
<use xlink:href="#f0_19" transform="matrix(12,0,0,12,596.4,139.6)" />
<use xlink:href="#f0_e" transform="matrix(12,0,0,12,601.7,139.6)" />
<use xlink:href="#f0_6" transform="matrix(12,0,0,12,619.3,139.6)" />
<use xlink:href="#f0_7" transform="matrix(12,0,0,12,626.5,139.6)" />
<use xlink:href="#f0_a" transform="matrix(12,0,0,12,638.1,139.6)" />
<use xlink:href="#f0_9" transform="matrix(12,0,0,12,655.2,139.6)" />
<use xlink:href="#f0_a" transform="matrix(12,0,0,12,664.8,139.6)" />
<use xlink:href="#f0_8" transform="matrix(12,0,0,12,676,139.6)" />
<use xlink:href="#f0_g" transform="matrix(12,0,0,12,687.2,139.6)" />
<use xlink:href="#f0_b" transform="matrix(12,0,0,12,694.3,139.6)" />
<use xlink:href="#f0_7" transform="matrix(12,0,0,12,704.3,139.6)" />
<use xlink:href="#f0_g" transform="matrix(12,0,0,12,721.9,139.6)" />
<use xlink:href="#f0_a" transform="matrix(12,0,0,12,728.9,139.6)" />
<use xlink:href="#f0_9" transform="matrix(12,0,0,12,740.2,139.6)" />
<use xlink:href="#f0_k" transform="matrix(12,0,0,12,749.8,139.6)" />
<use xlink:href="#f0_o" transform="matrix(12,0,0,12,761.4,139.6)" />
<use xlink:href="#f0_6" transform="matrix(12,0,0,12,766.5,139.6)" />
<use xlink:href="#f0_9" transform="matrix(12,0,0,12,773.7,139.6)" />
<use xlink:href="#f0_o" transform="matrix(12,0,0,12,789.1,139.6)" />
<use xlink:href="#f0_c" transform="matrix(12,0,0,12,794.1,139.6)" />
<use xlink:href="#f0_9" transform="matrix(12,0,0,12,799.2,139.6)" />
<use xlink:href="#f0_6" transform="matrix(12,0,0,12,808.8,139.6)" />
<use xlink:href="#f0_k" transform="matrix(12,0,0,12,86.8,168.2)" />
<use xlink:href="#f0_e" transform="matrix(12,0,0,12,98.4,168.2)" />
<use xlink:href="#f0_f" transform="matrix(12,0,0,12,110,168.2)" />
<use xlink:href="#f0_a" transform="matrix(12,0,0,12,121.6,168.2)" />
<use xlink:href="#f0_g" transform="matrix(12,0,0,12,132.9,168.2)" />
<use xlink:href="#f0_6" transform="matrix(12,0,0,12,146.3,168.2)" />
<use xlink:href="#f0_7" transform="matrix(12,0,0,12,153.5,168.2)" />
<use xlink:href="#f0_a" transform="matrix(12,0,0,12,165.1,168.2)" />
</g>
<g fill="#0000FF" >
<use xlink:href="#f1_12" transform="matrix(12,0,0,12,182.3,168.2)" />
<use xlink:href="#f1_g" transform="matrix(12,0,0,12,195.7,168.2)" />
<use xlink:href="#f1_c" transform="matrix(12,0,0,12,208.2,168.2)" />
<use xlink:href="#f1_3" transform="matrix(12,0,0,12,221.5,168.2)" />
<use xlink:href="#f1_9" transform="matrix(12,0,0,12,240.3,168.2)" />
<use xlink:href="#f1_5" transform="matrix(12,0,0,12,253.4,168.2)" />
<use xlink:href="#f1_7" transform="matrix(12,0,0,12,259.7,168.2)" />
<use xlink:href="#f1_6" transform="matrix(12,0,0,12,272.8,168.2)" />
<use xlink:href="#f1_5" transform="matrix(12,0,0,12,285.8,168.2)" />
<use xlink:href="#f1_6" transform="matrix(12,0,0,12,292.2,168.2)" />
<use xlink:href="#f1_7" transform="matrix(12,0,0,12,305.2,168.2)" />
<use xlink:href="#f1_s" transform="matrix(12,0,0,12,324.7,168.2)" />
<use xlink:href="#f1_c" transform="matrix(12,0,0,12,331.6,168.2)" />
<use xlink:href="#f1_3" transform="matrix(12,0,0,12,344.7,168.2)" />
<use xlink:href="#f1_6" transform="matrix(12,0,0,12,357.1,168.2)" />
<use xlink:href="#f1_4" transform="matrix(12,0,0,12,370,168.2)" />
<use xlink:href="#f1_5" transform="matrix(12,0,0,12,378.7,168.2)" />
<use xlink:href="#f1_4" transform="matrix(12,0,0,12,385.1,168.2)" />
<use xlink:href="#f1_y" transform="matrix(12,0,0,12,393.8,168.2)" />
</g>
<g fill="#000000" >
<use xlink:href="#f0_9" transform="matrix(12,0,0,12,412.5,168.2)" />
<use xlink:href="#f0_a" transform="matrix(12,0,0,12,422,168.2)" />
<use xlink:href="#f0_b" transform="matrix(12,0,0,12,433.3,168.2)" />
<use xlink:href="#f0_6" transform="matrix(12,0,0,12,443.3,168.2)" />
<use xlink:href="#f0_c" transform="matrix(12,0,0,12,450.5,168.2)" />
<use xlink:href="#f0_d" transform="matrix(12,0,0,12,455.6,168.2)" />
<use xlink:href="#f0_e" transform="matrix(12,0,0,12,466.9,168.2)" />
<use xlink:href="#f0_4" transform="matrix(12,0,0,12,478.5,168.2)" />
<use xlink:href="#f0_b" transform="matrix(12,0,0,12,490.1,168.2)" />
<use xlink:href="#f0_o" transform="matrix(12,0,0,12,500.2,168.2)" />
<use xlink:href="#f0_c" transform="matrix(12,0,0,12,505.3,168.2)" />
<use xlink:href="#f0_b" transform="matrix(12,0,0,12,510.4,168.2)" />
<use xlink:href="#f0_i" transform="matrix(12,0,0,12,520.4,168.2)" />
<use xlink:href="#f0_d" transform="matrix(12,0,0,12,536.9,168.2)" />
<use xlink:href="#f0_e" transform="matrix(12,0,0,12,548.1,168.2)" />
<use xlink:href="#f0_6" transform="matrix(12,0,0,12,565.5,168.2)" />
<use xlink:href="#f0_7" transform="matrix(12,0,0,12,572.7,168.2)" />
<use xlink:href="#f0_a" transform="matrix(12,0,0,12,584.3,168.2)" />
<use xlink:href="#f0_f" transform="matrix(12,0,0,12,601.5,168.2)" />
<use xlink:href="#f0_g" transform="matrix(12,0,0,12,613.1,168.2)" />
<use xlink:href="#f0_d" transform="matrix(12,0,0,12,620.1,168.2)" />
<use xlink:href="#f0_s" transform="matrix(12,0,0,12,631.3,168.2)" />
<use xlink:href="#f0_f" transform="matrix(12,0,0,12,648.8,168.2)" />
<use xlink:href="#f0_d" transform="matrix(12,0,0,12,660.4,168.2)" />
<use xlink:href="#f0_n" transform="matrix(12,0,0,12,671.6,168.2)" />
<use xlink:href="#f0_e" transform="matrix(12,0,0,12,686.6,168.2)" />
<use xlink:href="#f0_9" transform="matrix(12,0,0,12,698.2,168.2)" />
<use xlink:href="#f0_h" transform="matrix(12,0,0,12,713.7,168.2)" />
<use xlink:href="#f0_d" transform="matrix(12,0,0,12,720.1,168.2)" />
<use xlink:href="#f0_g" transform="matrix(12,0,0,12,731.3,168.2)" />
<use xlink:href="#f0_6" transform="matrix(12,0,0,12,744.7,168.2)" />
<use xlink:href="#f0_7" transform="matrix(12,0,0,12,751.9,168.2)" />
<use xlink:href="#f0_a" transform="matrix(12,0,0,12,763.5,168.2)" />
</g>
<g fill="#0000FF" >
<use xlink:href="#f1_t" transform="matrix(12,0,0,12,86.8,196.9)" />
<use xlink:href="#f1_3" transform="matrix(12,0,0,12,102,196.9)" />
<use xlink:href="#f1_13" transform="matrix(12,0,0,12,114.4,196.9)" />
<use xlink:href="#f1_o" transform="matrix(12,0,0,12,127.5,196.9)" />
<use xlink:href="#f1_7" transform="matrix(12,0,0,12,140.5,196.9)" />
</g>
<g fill="#000000" >
<use xlink:href="#f0_8" transform="matrix(12,0,0,12,160.3,196.9)" />
<use xlink:href="#f0_e" transform="matrix(12,0,0,12,171.4,196.9)" />
<use xlink:href="#f0_f" transform="matrix(12,0,0,12,183,196.9)" />
</g>
<g fill="#0000FF" >
<use xlink:href="#f1_w" transform="matrix(12,0,0,12,200.6,196.9)" />
<use xlink:href="#f1_3" transform="matrix(12,0,0,12,214.7,196.9)" />
<use xlink:href="#f1_r" transform="matrix(12,0,0,12,227,196.9)" />
<use xlink:href="#f1_3" transform="matrix(12,0,0,12,233.4,196.9)" />
<use xlink:href="#f1_a" transform="matrix(12,0,0,12,245.8,196.9)" />
<use xlink:href="#f1_k" transform="matrix(12,0,0,12,258.2,196.9)" />
<use xlink:href="#f1_3" transform="matrix(12,0,0,12,269.1,196.9)" />
</g>
<g fill="#000000" >
<use xlink:href="#f0_a" transform="matrix(12,0,0,12,288,196.9)" />
<use xlink:href="#f0_e" transform="matrix(12,0,0,12,299.3,196.9)" />
<use xlink:href="#f0_6" transform="matrix(12,0,0,12,310.9,196.9)" />
<use xlink:href="#f0_g" transform="matrix(12,0,0,12,318.1,196.9)" />
<use xlink:href="#f0_c" transform="matrix(12,0,0,12,325.6,196.9)" />
<use xlink:href="#f0_a" transform="matrix(12,0,0,12,330.6,196.9)" />
<use xlink:href="#f0_9" transform="matrix(12,0,0,12,341.9,196.9)" />
<use xlink:href="#f0_8" transform="matrix(12,0,0,12,357.3,196.9)" />
<use xlink:href="#f0_e" transform="matrix(12,0,0,12,368.6,196.9)" />
<use xlink:href="#f0_f" transform="matrix(12,0,0,12,380.2,196.9)" />
<use xlink:href="#f0_b" transform="matrix(12,0,0,12,397.6,196.9)" />
<use xlink:href="#f0_7" transform="matrix(12,0,0,12,407.7,196.9)" />
<use xlink:href="#f0_d" transform="matrix(12,0,0,12,419.3,196.9)" />
<use xlink:href="#f0_d" transform="matrix(12,0,0,12,430.6,196.9)" />
<use xlink:href="#f0_9" transform="matrix(12,0,0,12,441.7,196.9)" />
<use xlink:href="#f0_a" transform="matrix(12,0,0,12,451.3,196.9)" />
<use xlink:href="#f0_6" transform="matrix(12,0,0,12,468.4,196.9)" />
<use xlink:href="#f0_7" transform="matrix(12,0,0,12,475.6,196.9)" />
<use xlink:href="#f0_a" transform="matrix(12,0,0,12,487.2,196.9)" />
<use xlink:href="#f0_b" transform="matrix(12,0,0,12,504.3,196.9)" />
<use xlink:href="#f0_d" transform="matrix(12,0,0,12,514.4,196.9)" />
<use xlink:href="#f0_g" transform="matrix(12,0,0,12,525.5,196.9)" />
<use xlink:href="#f0_g" transform="matrix(12,0,0,12,532.9,196.9)" />
<use xlink:href="#f0_a" transform="matrix(12,0,0,12,539.9,196.9)" />
<use xlink:href="#f0_b" transform="matrix(12,0,0,12,551.2,196.9)" />
<use xlink:href="#f0_6" transform="matrix(12,0,0,12,561.3,196.9)" />
<use xlink:href="#f0_s" transform="matrix(12,0,0,12,574.3,196.9)" />
<use xlink:href="#f0_g" transform="matrix(12,0,0,12,586,196.9)" />
<use xlink:href="#f0_d" transform="matrix(12,0,0,12,593,196.9)" />
<use xlink:href="#f0_t" transform="matrix(12,0,0,12,604.2,196.9)" />
<use xlink:href="#f0_c" transform="matrix(12,0,0,12,615,196.9)" />
<use xlink:href="#f0_9" transform="matrix(12,0,0,12,620.1,196.9)" />
<use xlink:href="#f0_c" transform="matrix(12,0,0,12,629.7,196.9)" />
<use xlink:href="#f0_d" transform="matrix(12,0,0,12,634.8,196.9)" />
<use xlink:href="#f0_e" transform="matrix(12,0,0,12,646,196.9)" />
<use xlink:href="#f0_c" transform="matrix(12,0,0,12,657.6,196.9)" />
<use xlink:href="#f0_e" transform="matrix(12,0,0,12,662.6,196.9)" />
<use xlink:href="#f0_q" transform="matrix(12,0,0,12,674.2,196.9)" />
<use xlink:href="#f0_s" transform="matrix(12,0,0,12,691.8,196.9)" />
<use xlink:href="#f0_g" transform="matrix(12,0,0,12,703.4,196.9)" />
<use xlink:href="#f0_d" transform="matrix(12,0,0,12,710.6,196.9)" />
<use xlink:href="#f0_h" transform="matrix(12,0,0,12,721.7,196.9)" />
<use xlink:href="#f0_c" transform="matrix(12,0,0,12,728.2,196.9)" />
<use xlink:href="#f0_o" transform="matrix(12,0,0,12,733.3,196.9)" />
<use xlink:href="#f0_a" transform="matrix(12,0,0,12,738.4,196.9)" />
<use xlink:href="#f0_9" transform="matrix(12,0,0,12,749.7,196.9)" />
<use xlink:href="#f0_h" transform="matrix(12,0,0,12,765.1,196.9)" />
<use xlink:href="#f0_g" transform="matrix(12,0,0,12,771.5,196.9)" />
<use xlink:href="#f0_d" transform="matrix(12,0,0,12,778.7,196.9)" />
<use xlink:href="#f0_u" transform="matrix(12,0,0,12,789.8,196.9)" />
<use xlink:href="#f0_6" transform="matrix(12,0,0,12,86.8,225.5)" />
<use xlink:href="#f0_7" transform="matrix(12,0,0,12,94,225.5)" />
<use xlink:href="#f0_d" transform="matrix(12,0,0,12,105.6,225.5)" />
<use xlink:href="#f0_9" transform="matrix(12,0,0,12,116.7,225.5)" />
<use xlink:href="#f0_a" transform="matrix(12,0,0,12,126.3,225.5)" />
<use xlink:href="#f0_s" transform="matrix(12,0,0,12,143.4,225.5)" />
<use xlink:href="#f0_g" transform="matrix(12,0,0,12,155.2,225.5)" />
<use xlink:href="#f0_a" transform="matrix(12,0,0,12,162.2,225.5)" />
<use xlink:href="#f0_9" transform="matrix(12,0,0,12,173.5,225.5)" />
<use xlink:href="#f0_a" transform="matrix(12,0,0,12,183,225.5)" />
<use xlink:href="#f0_e" transform="matrix(12,0,0,12,194.3,225.5)" />
<use xlink:href="#f0_6" transform="matrix(12,0,0,12,205.9,225.5)" />
<use xlink:href="#f0_a" transform="matrix(12,0,0,12,213.1,225.5)" />
<use xlink:href="#f0_f" transform="matrix(12,0,0,12,224.4,225.5)" />
<use xlink:href="#f0_x" transform="matrix(12,0,0,12,241.9,225.5)" />
<use xlink:href="#f0_p" transform="matrix(12,0,0,12,253.5,225.5)" />
<use xlink:href="#f0_z" transform="matrix(12,0,0,12,270.2,225.5)" />
<use xlink:href="#f0_b" transform="matrix(12,0,0,12,282.7,225.5)" />
<use xlink:href="#f0_d" transform="matrix(12,0,0,12,292.8,225.5)" />
<use xlink:href="#f0_f" transform="matrix(12,0,0,12,303.9,225.5)" />
<use xlink:href="#f0_a" transform="matrix(12,0,0,12,315.5,225.5)" />
<use xlink:href="#f0_l" transform="matrix(12,0,0,12,326.8,225.5)" />
<use xlink:href="#f0_1r" transform="matrix(12,0,0,12,86.8,254.2)" />
<use xlink:href="#f0_d" transform="matrix(12,0,0,12,95.6,254.2)" />
<use xlink:href="#f0_k" transform="matrix(12,0,0,12,106.8,254.2)" />
<use xlink:href="#f0_9" transform="matrix(12,0,0,12,124.2,254.2)" />
<use xlink:href="#f0_7" transform="matrix(12,0,0,12,133.8,254.2)" />
<use xlink:href="#f0_d" transform="matrix(12,0,0,12,145.4,254.2)" />
<use xlink:href="#f0_k" transform="matrix(12,0,0,12,156.6,254.2)" />
<use xlink:href="#f0_o" transform="matrix(12,0,0,12,168.2,254.2)" />
<use xlink:href="#f0_f" transform="matrix(12,0,0,12,173.2,254.2)" />
<use xlink:href="#f0_9" transform="matrix(12,0,0,12,190.8,254.2)" />
<use xlink:href="#f0_a" transform="matrix(12,0,0,12,200.4,254.2)" />
<use xlink:href="#f0_o" transform="matrix(12,0,0,12,211.7,254.2)" />
<use xlink:href="#f0_a" transform="matrix(12,0,0,12,216.7,254.2)" />
<use xlink:href="#f0_b" transform="matrix(12,0,0,12,228,254.2)" />
<use xlink:href="#f0_6" transform="matrix(12,0,0,12,238.1,254.2)" />
<use xlink:href="#f0_p" transform="matrix(12,0,0,12,251.1,254.2)" />
<use xlink:href="#f0_d" transform="matrix(12,0,0,12,261.9,254.2)" />
<use xlink:href="#f0_k" transform="matrix(12,0,0,12,273,254.2)" />
<use xlink:href="#f0_g" transform="matrix(12,0,0,12,284.6,254.2)" />
<use xlink:href="#f0_f" transform="matrix(12,0,0,12,298.1,254.2)" />
<use xlink:href="#f0_a" transform="matrix(12,0,0,12,309.7,254.2)" />
<use xlink:href="#f0_t" transform="matrix(12,0,0,12,321,254.2)" />
<use xlink:href="#f0_a" transform="matrix(12,0,0,12,331.8,254.2)" />
<use xlink:href="#f0_o" transform="matrix(12,0,0,12,343.1,254.2)" />
<use xlink:href="#f0_d" transform="matrix(12,0,0,12,348.2,254.2)" />
<use xlink:href="#f0_s" transform="matrix(12,0,0,12,359.3,254.2)" />
<use xlink:href="#f0_a" transform="matrix(12,0,0,12,370.9,254.2)" />
<use xlink:href="#f0_g" transform="matrix(12,0,0,12,382.2,254.2)" />
<use xlink:href="#f0_s" transform="matrix(12,0,0,12,395.6,254.2)" />
<use xlink:href="#f0_g" transform="matrix(12,0,0,12,407.2,254.2)" />
<use xlink:href="#f0_d" transform="matrix(12,0,0,12,414.4,254.2)" />
<use xlink:href="#f0_h" transform="matrix(12,0,0,12,425.6,254.2)" />
<use xlink:href="#f0_c" transform="matrix(12,0,0,12,432,254.2)" />
<use xlink:href="#f0_o" transform="matrix(12,0,0,12,437.2,254.2)" />
<use xlink:href="#f0_a" transform="matrix(12,0,0,12,442.2,254.2)" />
<use xlink:href="#f0_h" transform="matrix(12,0,0,12,459.3,254.2)" />
<use xlink:href="#f0_d" transform="matrix(12,0,0,12,465.7,254.2)" />
<use xlink:href="#f0_g" transform="matrix(12,0,0,12,477,254.2)" />
<use xlink:href="#f0_6" transform="matrix(12,0,0,12,490.3,254.2)" />
<use xlink:href="#f0_7" transform="matrix(12,0,0,12,497.5,254.2)" />
<use xlink:href="#f0_a" transform="matrix(12,0,0,12,509.1,254.2)" />
<use xlink:href="#f0_15" transform="matrix(12,0,0,12,526.2,254.2)" />
<use xlink:href="#f0_a" transform="matrix(12,0,0,12,540.3,254.2)" />
<use xlink:href="#f0_x" transform="matrix(12,0,0,12,551.6,254.2)" />
<use xlink:href="#f0_k" transform="matrix(12,0,0,12,563.2,254.2)" />
<use xlink:href="#f0_q" transform="matrix(12,0,0,12,574.9,254.2)" />
<use xlink:href="#f0_x" transform="matrix(12,0,0,12,592.3,254.2)" />
<use xlink:href="#f0_k" transform="matrix(12,0,0,12,603.9,254.2)" />
<use xlink:href="#f0_c" transform="matrix(12,0,0,12,615.5,254.2)" />
<use xlink:href="#f0_o" transform="matrix(12,0,0,12,620.7,254.2)" />
<use xlink:href="#f0_f" transform="matrix(12,0,0,12,625.8,254.2)" />
<use xlink:href="#f0_4" transform="matrix(12,0,0,12,637.4,254.2)" />
<use xlink:href="#f0_8" transform="matrix(12,0,0,12,649.1,254.2)" />
<use xlink:href="#f0_e" transform="matrix(12,0,0,12,660.3,254.2)" />
<use xlink:href="#f0_f" transform="matrix(12,0,0,12,671.9,254.2)" />
<use xlink:href="#f0_p" transform="matrix(12,0,0,12,689.4,254.2)" />
<use xlink:href="#f0_d" transform="matrix(12,0,0,12,700.2,254.2)" />
<use xlink:href="#f0_k" transform="matrix(12,0,0,12,711.4,254.2)" />
<use xlink:href="#f0_g" transform="matrix(12,0,0,12,723,254.2)" />
<use xlink:href="#f0_f" transform="matrix(12,0,0,12,86.8,282.8)" />
<use xlink:href="#f0_c" transform="matrix(12,0,0,12,98.4,282.8)" />
<use xlink:href="#f0_9" transform="matrix(12,0,0,12,103.4,282.8)" />
<use xlink:href="#f0_6" transform="matrix(12,0,0,12,113,282.8)" />
<use xlink:href="#f0_g" transform="matrix(12,0,0,12,120.2,282.8)" />
<use xlink:href="#f0_c" transform="matrix(12,0,0,12,127.8,282.8)" />
<use xlink:href="#f0_x" transform="matrix(12,0,0,12,132.9,282.8)" />
<use xlink:href="#f0_k" transform="matrix(12,0,0,12,144.5,282.8)" />
<use xlink:href="#f0_6" transform="matrix(12,0,0,12,156.1,282.8)" />
<use xlink:href="#f0_c" transform="matrix(12,0,0,12,163.3,282.8)" />
<use xlink:href="#f0_d" transform="matrix(12,0,0,12,168.5,282.8)" />
<use xlink:href="#f0_e" transform="matrix(12,0,0,12,179.6,282.8)" />
<use xlink:href="#f0_s" transform="matrix(12,0,0,12,197,282.8)" />
<use xlink:href="#f0_g" transform="matrix(12,0,0,12,208.8,282.8)" />
<use xlink:href="#f0_d" transform="matrix(12,0,0,12,215.8,282.8)" />
<use xlink:href="#f0_h" transform="matrix(12,0,0,12,226.9,282.8)" />
<use xlink:href="#f0_c" transform="matrix(12,0,0,12,233.5,282.8)" />
<use xlink:href="#f0_o" transform="matrix(12,0,0,12,238.5,282.8)" />
<use xlink:href="#f0_a" transform="matrix(12,0,0,12,243.6,282.8)" />
<use xlink:href="#f0_h" transform="matrix(12,0,0,12,260.8,282.8)" />
<use xlink:href="#f0_d" transform="matrix(12,0,0,12,267.2,282.8)" />
<use xlink:href="#f0_g" transform="matrix(12,0,0,12,278.4,282.8)" />
<use xlink:href="#f0_6" transform="matrix(12,0,0,12,291.8,282.8)" />
<use xlink:href="#f0_7" transform="matrix(12,0,0,12,299,282.8)" />
<use xlink:href="#f0_a" transform="matrix(12,0,0,12,310.6,282.8)" />
<use xlink:href="#f0_1i" transform="matrix(12,0,0,12,327.7,282.8)" />
<use xlink:href="#f0_a" transform="matrix(12,0,0,12,339.6,282.8)" />
<use xlink:href="#f0_o" transform="matrix(12,0,0,12,350.9,282.8)" />
<use xlink:href="#f0_a" transform="matrix(12,0,0,12,355.9,282.8)" />
<use xlink:href="#f0_8" transform="matrix(12,0,0,12,367.1,282.8)" />
<use xlink:href="#f0_9" transform="matrix(12,0,0,12,378.4,282.8)" />
<use xlink:href="#f0_a" transform="matrix(12,0,0,12,388,282.8)" />
<use xlink:href="#f0_x" transform="matrix(12,0,0,12,405.1,282.8)" />
<use xlink:href="#f0_k" transform="matrix(12,0,0,12,416.7,282.8)" />
<use xlink:href="#f0_c" transform="matrix(12,0,0,12,428.3,282.8)" />
<use xlink:href="#f0_o" transform="matrix(12,0,0,12,433.4,282.8)" />
<use xlink:href="#f0_f" transform="matrix(12,0,0,12,438.4,282.8)" />
<use xlink:href="#f0_1e" transform="matrix(12,0,0,12,450.1,282.8)" />
<use xlink:href="#f0_1r" transform="matrix(12,0,0,12,86.8,550)" />
<use xlink:href="#f0_d" transform="matrix(12,0,0,12,95.6,550)" />
<use xlink:href="#f0_k" transform="matrix(12,0,0,12,106.8,550)" />
<use xlink:href="#f0_r" transform="matrix(12,0,0,12,118.4,550)" />
<use xlink:href="#f0_g" transform="matrix(12,0,0,12,124.2,550)" />
<use xlink:href="#f0_a" transform="matrix(12,0,0,12,131.2,550)" />
<use xlink:href="#f0_8" transform="matrix(12,0,0,12,148.5,550)" />
<use xlink:href="#f0_o" transform="matrix(12,0,0,12,159.8,550)" />
<use xlink:href="#f0_u" transform="matrix(12,0,0,12,164.8,550)" />
<use xlink:href="#f0_d" transform="matrix(12,0,0,12,182.7,550)" />
<use xlink:href="#f0_9" transform="matrix(12,0,0,12,193.8,550)" />
<use xlink:href="#f0_6" transform="matrix(12,0,0,12,203.4,550)" />
<use xlink:href="#f0_g" transform="matrix(12,0,0,12,216.4,550)" />
<use xlink:href="#f0_a" transform="matrix(12,0,0,12,223.4,550)" />
<use xlink:href="#f0_8" transform="matrix(12,0,0,12,234.7,550)" />
<use xlink:href="#f0_f" transform="matrix(12,0,0,12,246,550)" />
<use xlink:href="#f0_p" transform="matrix(12,0,0,12,257.6,550)" />
<use xlink:href="#f0_6" transform="matrix(12,0,0,12,274.3,550)" />
<use xlink:href="#f0_d" transform="matrix(12,0,0,12,281.5,550)" />
<use xlink:href="#f0_x" transform="matrix(12,0,0,12,298.6,550)" />
<use xlink:href="#f0_k" transform="matrix(12,0,0,12,310.2,550)" />
<use xlink:href="#f0_c" transform="matrix(12,0,0,12,321.8,550)" />
<use xlink:href="#f0_o" transform="matrix(12,0,0,12,326.8,550)" />
<use xlink:href="#f0_f" transform="matrix(12,0,0,12,332,550)" />
<use xlink:href="#f0_4" transform="matrix(12,0,0,12,343.6,550)" />
<use xlink:href="#f0_x" transform="matrix(12,0,0,12,355.2,550)" />
<use xlink:href="#f0_k" transform="matrix(12,0,0,12,366.8,550)" />
<use xlink:href="#f0_6" transform="matrix(12,0,0,12,378.4,550)" />
<use xlink:href="#f0_x" transform="matrix(12,0,0,12,391.6,550)" />
<use xlink:href="#f0_a" transform="matrix(12,0,0,12,403.2,550)" />
<use xlink:href="#f0_h" transform="matrix(12,0,0,12,414.4,550)" />
<use xlink:href="#f0_d" transform="matrix(12,0,0,12,420.9,550)" />
<use xlink:href="#f0_g" transform="matrix(12,0,0,12,432.2,550)" />
<use xlink:href="#f0_a" transform="matrix(12,0,0,12,439.2,550)" />
<use xlink:href="#f0_p" transform="matrix(12,0,0,12,456.3,550)" />
<use xlink:href="#f0_d" transform="matrix(12,0,0,12,467.1,550)" />
<use xlink:href="#f0_k" transform="matrix(12,0,0,12,478.3,550)" />
<use xlink:href="#f0_f" transform="matrix(12,0,0,12,495.8,550)" />
<use xlink:href="#f0_d" transform="matrix(12,0,0,12,507.4,550)" />
<use xlink:href="#f0_4" transform="matrix(12,0,0,12,518.6,550)" />
<use xlink:href="#f0_u" transform="matrix(12,0,0,12,530.3,550)" />
<use xlink:href="#f0_8" transform="matrix(12,0,0,12,548.1,550)" />
<use xlink:href="#f0_i" transform="matrix(12,0,0,12,559.4,550)" />
<use xlink:href="#f0_a" transform="matrix(12,0,0,12,569.3,550)" />
<use xlink:href="#f0_9" transform="matrix(12,0,0,12,586.4,550)" />
<use xlink:href="#f0_k" transform="matrix(12,0,0,12,596,550)" />
<use xlink:href="#f0_g" transform="matrix(12,0,0,12,607.6,550)" />
<use xlink:href="#f0_a" transform="matrix(12,0,0,12,614.6,550)" />
<use xlink:href="#f0_6" transform="matrix(12,0,0,12,631.9,550)" />
<use xlink:href="#f0_7" transform="matrix(12,0,0,12,639.1,550)" />
<use xlink:href="#f0_a" transform="matrix(12,0,0,12,650.7,550)" />
<use xlink:href="#f0_f" transform="matrix(12,0,0,12,667.8,550)" />
<use xlink:href="#f0_a" transform="matrix(12,0,0,12,679.4,550)" />
<use xlink:href="#f0_t" transform="matrix(12,0,0,12,690.7,550)" />
<use xlink:href="#f0_c" transform="matrix(12,0,0,12,701.5,550)" />
<use xlink:href="#f0_b" transform="matrix(12,0,0,12,706.6,550)" />
<use xlink:href="#f0_a" transform="matrix(12,0,0,12,716.6,550)" />
<use xlink:href="#f0_p" transform="matrix(12,0,0,12,733.7,550)" />
<use xlink:href="#f0_d" transform="matrix(12,0,0,12,744.6,550)" />
<use xlink:href="#f0_k" transform="matrix(12,0,0,12,755.7,550)" />
<use xlink:href="#f0_n" transform="matrix(12,0,0,12,773.3,550)" />
<use xlink:href="#f0_8" transform="matrix(12,0,0,12,788.2,550)" />
<use xlink:href="#f0_e" transform="matrix(12,0,0,12,799.5,550)" />
<use xlink:href="#f0_6" transform="matrix(12,0,0,12,811.1,550)" />
<use xlink:href="#f0_6" transform="matrix(12,0,0,12,86.8,578.7)" />
<use xlink:href="#f0_d" transform="matrix(12,0,0,12,94,578.7)" />
<use xlink:href="#f0_x" transform="matrix(12,0,0,12,111.1,578.7)" />
<use xlink:href="#f0_k" transform="matrix(12,0,0,12,122.7,578.7)" />
<use xlink:href="#f0_c" transform="matrix(12,0,0,12,134.3,578.7)" />
<use xlink:href="#f0_o" transform="matrix(12,0,0,12,139.3,578.7)" />
<use xlink:href="#f0_f" transform="matrix(12,0,0,12,144.5,578.7)" />
<use xlink:href="#f0_d" transform="matrix(12,0,0,12,161.9,578.7)" />
<use xlink:href="#f0_e" transform="matrix(12,0,0,12,173.1,578.7)" />
<use xlink:href="#f0_c" transform="matrix(12,0,0,12,190.6,578.7)" />
<use xlink:href="#f0_9" transform="matrix(12,0,0,12,195.7,578.7)" />
<use xlink:href="#f0_b" transform="matrix(12,0,0,12,211.1,578.7)" />
<use xlink:href="#f0_d" transform="matrix(12,0,0,12,221.1,578.7)" />
<use xlink:href="#f0_e" transform="matrix(12,0,0,12,232.3,578.7)" />
<use xlink:href="#f0_e" transform="matrix(12,0,0,12,243.9,578.7)" />
<use xlink:href="#f0_a" transform="matrix(12,0,0,12,255.5,578.7)" />
<use xlink:href="#f0_b" transform="matrix(12,0,0,12,266.8,578.7)" />
<use xlink:href="#f0_6" transform="matrix(12,0,0,12,276.9,578.7)" />
<use xlink:href="#f0_a" transform="matrix(12,0,0,12,284,578.7)" />
<use xlink:href="#f0_f" transform="matrix(12,0,0,12,295.3,578.7)" />
<use xlink:href="#f0_6" transform="matrix(12,0,0,12,312.9,578.7)" />
<use xlink:href="#f0_d" transform="matrix(12,0,0,12,320.1,578.7)" />
<use xlink:href="#f0_p" transform="matrix(12,0,0,12,337,578.7)" />
<use xlink:href="#f0_d" transform="matrix(12,0,0,12,347.9,578.7)" />
<use xlink:href="#f0_k" transform="matrix(12,0,0,12,359,578.7)" />
<use xlink:href="#f0_g" transform="matrix(12,0,0,12,370.8,578.7)" />
<use xlink:href="#f0_1j" transform="matrix(12,0,0,12,384.1,578.7)" />
<use xlink:href="#f0_8" transform="matrix(12,0,0,12,399.9,578.7)" />
<use xlink:href="#f0_b" transform="matrix(12,0,0,12,411.1,578.7)" />
<use xlink:href="#f0_l" transform="matrix(12,0,0,12,421.1,578.7)" />
<use xlink:href="#f0_w" transform="matrix(12,0,0,12,432.9,578.7)" />
<use xlink:href="#f0_7" transform="matrix(12,0,0,12,444,578.7)" />
<use xlink:href="#f0_a" transform="matrix(12,0,0,12,455.6,578.7)" />
<use xlink:href="#f0_e" transform="matrix(12,0,0,12,466.9,578.7)" />
<use xlink:href="#f0_b" transform="matrix(12,0,0,12,484.4,578.7)" />
<use xlink:href="#f0_7" transform="matrix(12,0,0,12,494.4,578.7)" />
<use xlink:href="#f0_d" transform="matrix(12,0,0,12,506,578.7)" />
<use xlink:href="#f0_d" transform="matrix(12,0,0,12,517.2,578.7)" />
<use xlink:href="#f0_9" transform="matrix(12,0,0,12,528.3,578.7)" />
<use xlink:href="#f0_a" transform="matrix(12,0,0,12,537.9,578.7)" />
<use xlink:href="#f0_6" transform="matrix(12,0,0,12,555,578.7)" />
<use xlink:href="#f0_d" transform="matrix(12,0,0,12,562.2,578.7)" />
<use xlink:href="#f0_x" transform="matrix(12,0,0,12,579.3,578.7)" />
<use xlink:href="#f0_k" transform="matrix(12,0,0,12,590.9,578.7)" />
<use xlink:href="#f0_c" transform="matrix(12,0,0,12,602.5,578.7)" />
<use xlink:href="#f0_o" transform="matrix(12,0,0,12,607.7,578.7)" />
<use xlink:href="#f0_f" transform="matrix(12,0,0,12,612.7,578.7)" />
<use xlink:href="#f0_h" transform="matrix(12,0,0,12,630.2,578.7)" />
<use xlink:href="#f0_d" transform="matrix(12,0,0,12,636.7,578.7)" />
<use xlink:href="#f0_g" transform="matrix(12,0,0,12,647.9,578.7)" />
<use xlink:href="#f0_6" transform="matrix(12,0,0,12,661.3,578.7)" />
<use xlink:href="#f0_7" transform="matrix(12,0,0,12,668.5,578.7)" />
<use xlink:href="#f0_8" transform="matrix(12,0,0,12,679.9,578.7)" />
<use xlink:href="#f0_6" transform="matrix(12,0,0,12,691.2,578.7)" />
<use xlink:href="#f0_f" transform="matrix(12,0,0,12,704.2,578.7)" />
<use xlink:href="#f0_a" transform="matrix(12,0,0,12,715.8,578.7)" />
<use xlink:href="#f0_t" transform="matrix(12,0,0,12,727.1,578.7)" />
<use xlink:href="#f0_c" transform="matrix(12,0,0,12,737.9,578.7)" />
<use xlink:href="#f0_b" transform="matrix(12,0,0,12,743,578.7)" />
<use xlink:href="#f0_a" transform="matrix(12,0,0,12,753,578.7)" />
<use xlink:href="#f0_k" transform="matrix(12,0,0,12,770.3,578.7)" />
<use xlink:href="#f0_9" transform="matrix(12,0,0,12,781.8,578.7)" />
<use xlink:href="#f0_c" transform="matrix(12,0,0,12,791.4,578.7)" />
<use xlink:href="#f0_e" transform="matrix(12,0,0,12,796.4,578.7)" />
<use xlink:href="#f0_q" transform="matrix(12,0,0,12,808,578.7)" />
<use xlink:href="#f0_6" transform="matrix(12,0,0,12,86.8,607.3)" />
<use xlink:href="#f0_7" transform="matrix(12,0,0,12,94,607.3)" />
<use xlink:href="#f0_a" transform="matrix(12,0,0,12,105.6,607.3)" />
<use xlink:href="#f0_9" transform="matrix(12,0,0,12,122.7,607.3)" />
<use xlink:href="#f0_b" transform="matrix(12,0,0,12,132.3,607.3)" />
<use xlink:href="#f0_7" transform="matrix(12,0,0,12,142.3,607.3)" />
<use xlink:href="#f0_a" transform="matrix(12,0,0,12,154,607.3)" />
<use xlink:href="#f0_u" transform="matrix(12,0,0,12,165.2,607.3)" />
<use xlink:href="#f0_a" transform="matrix(12,0,0,12,183.1,607.3)" />
<use xlink:href="#f0_b" transform="matrix(12,0,0,12,200.2,607.3)" />
<use xlink:href="#f0_7" transform="matrix(12,0,0,12,210.3,607.3)" />
<use xlink:href="#f0_d" transform="matrix(12,0,0,12,221.9,607.3)" />
<use xlink:href="#f0_d" transform="matrix(12,0,0,12,233,607.3)" />
<use xlink:href="#f0_9" transform="matrix(12,0,0,12,244.2,607.3)" />
<use xlink:href="#f0_a" transform="matrix(12,0,0,12,253.8,607.3)" />
<use xlink:href="#f0_g" transform="matrix(12,0,0,12,265.1,607.3)" />
<use xlink:href="#f0_1e" transform="matrix(12,0,0,12,272.3,607.3)" />
<use xlink:href="#f0_1g" transform="matrix(12,0,0,12,86.8,1034.6)" />
<use xlink:href="#f0_g" transform="matrix(12,0,0,12,97.6,1034.6)" />
<use xlink:href="#f0_a" transform="matrix(12,0,0,12,104.7,1034.6)" />
<use xlink:href="#f0_9" transform="matrix(12,0,0,12,115.9,1034.6)" />
<use xlink:href="#f0_9" transform="matrix(12,0,0,12,125.4,1034.6)" />
</g>
<g fill="#0000FF" >
<use xlink:href="#f0_17" transform="matrix(12,0,0,12,140.9,1034.6)" />
<use xlink:href="#f1_11" transform="matrix(12,0,0,12,159.2,1034.6)" />
</g>
<g fill="#000000" >
<use xlink:href="#f0_6" transform="matrix(12,0,0,12,179.7,1034.6)" />
<use xlink:href="#f0_d" transform="matrix(12,0,0,12,186.9,1034.6)" />
<use xlink:href="#f0_x" transform="matrix(12,0,0,12,203.8,1034.6)" />
<use xlink:href="#f0_k" transform="matrix(12,0,0,12,215.4,1034.6)" />
<use xlink:href="#f0_c" transform="matrix(12,0,0,12,227.2,1034.6)" />
<use xlink:href="#f0_o" transform="matrix(12,0,0,12,232.2,1034.6)" />
<use xlink:href="#f0_f" transform="matrix(12,0,0,12,237.3,1034.6)" />
<use xlink:href="#f0_6" transform="matrix(12,0,0,12,254.8,1034.6)" />
<use xlink:href="#f0_7" transform="matrix(12,0,0,12,262,1034.6)" />
<use xlink:href="#f0_a" transform="matrix(12,0,0,12,273.6,1034.6)" />
<use xlink:href="#f0_s" transform="matrix(12,0,0,12,290.7,1034.6)" />
<use xlink:href="#f0_g" transform="matrix(12,0,0,12,302.3,1034.6)" />
<use xlink:href="#f0_d" transform="matrix(12,0,0,12,309.5,1034.6)" />
<use xlink:href="#f0_y" transform="matrix(12,0,0,12,320.7,1034.6)" />
<use xlink:href="#f0_a" transform="matrix(12,0,0,12,325.7,1034.6)" />
<use xlink:href="#f0_b" transform="matrix(12,0,0,12,337,1034.6)" />
<use xlink:href="#f0_6" transform="matrix(12,0,0,12,347.1,1034.6)" />
<use xlink:href="#f0_l" transform="matrix(12,0,0,12,354.2,1034.6)" />
<use xlink:href="#f0_1r" transform="matrix(12,0,0,12,366,1034.6)" />
<use xlink:href="#f0_d" transform="matrix(12,0,0,12,374.7,1034.6)" />
<use xlink:href="#f0_k" transform="matrix(12,0,0,12,385.8,1034.6)" />
<use xlink:href="#f0_u" transform="matrix(12,0,0,12,403.4,1034.6)" />
<use xlink:href="#f0_8" transform="matrix(12,0,0,12,421.1,1034.6)" />
<use xlink:href="#f0_p" transform="matrix(12,0,0,12,432.4,1034.6)" />
<use xlink:href="#f0_9" transform="matrix(12,0,0,12,449.1,1034.6)" />
<use xlink:href="#f0_a" transform="matrix(12,0,0,12,458.7,1034.6)" />
<use xlink:href="#f0_a" transform="matrix(12,0,0,12,470,1034.6)" />
<use xlink:href="#f0_8" transform="matrix(12,0,0,12,487.1,1034.6)" />
<use xlink:href="#f0_s" transform="matrix(12,0,0,12,504,1034.6)" />
<use xlink:href="#f0_g" transform="matrix(12,0,0,12,515.8,1034.6)" />
<use xlink:href="#f0_d" transform="matrix(12,0,0,12,522.8,1034.6)" />
<use xlink:href="#f0_u" transform="matrix(12,0,0,12,534,1034.6)" />
<use xlink:href="#f0_s" transform="matrix(12,0,0,12,551.8,1034.6)" />
<use xlink:href="#f0_6" transform="matrix(12,0,0,12,563.4,1034.6)" />
<use xlink:href="#f0_9" transform="matrix(12,0,0,12,576.5,1034.6)" />
<use xlink:href="#f0_8" transform="matrix(12,0,0,12,586,1034.6)" />
<use xlink:href="#f0_p" transform="matrix(12,0,0,12,597.3,1034.6)" />
<use xlink:href="#f0_c" transform="matrix(12,0,0,12,608.2,1034.6)" />
<use xlink:href="#f0_e" transform="matrix(12,0,0,12,613.2,1034.6)" />
<use xlink:href="#f0_q" transform="matrix(12,0,0,12,624.8,1034.6)" />
<use xlink:href="#f0_1b" transform="matrix(12,0,0,12,642.4,1034.6)" />
<use xlink:href="#f0_b" transform="matrix(12,0,0,12,651.8,1034.6)" />
<use xlink:href="#f0_d" transform="matrix(12,0,0,12,661.9,1034.6)" />
<use xlink:href="#f0_f" transform="matrix(12,0,0,12,673.1,1034.6)" />
<use xlink:href="#f0_a" transform="matrix(12,0,0,12,684.7,1034.6)" />
<use xlink:href="#f0_9" transform="matrix(12,0,0,12,696,1034.6)" />
<use xlink:href="#f0_c" transform="matrix(12,0,0,12,705.6,1034.6)" />
<use xlink:href="#f0_q" transform="matrix(12,0,0,12,710.6,1034.6)" />
<use xlink:href="#f0_e" transform="matrix(12,0,0,12,722.2,1034.6)" />
<use xlink:href="#f0_n" transform="matrix(12,0,0,12,739.7,1034.6)" />
<use xlink:href="#f0_8" transform="matrix(12,0,0,12,754.6,1034.6)" />
<use xlink:href="#f0_e" transform="matrix(12,0,0,12,765.9,1034.6)" />
<use xlink:href="#f0_6" transform="matrix(12,0,0,12,777.5,1034.6)" />
<use xlink:href="#f0_9" transform="matrix(12,0,0,12,784.6,1034.6)" />
<use xlink:href="#f0_6" transform="matrix(12,0,0,12,800.1,1034.6)" />
<use xlink:href="#f0_d" transform="matrix(12,0,0,12,807.3,1034.6)" />
<use xlink:href="#f0_9" transform="matrix(12,0,0,12,86.8,1063.2)" />
<use xlink:href="#f0_c" transform="matrix(12,0,0,12,96.4,1063.2)" />
<use xlink:href="#f0_q" transform="matrix(12,0,0,12,101.4,1063.2)" />
<use xlink:href="#f0_e" transform="matrix(12,0,0,12,113,1063.2)" />
<use xlink:href="#f0_k" transform="matrix(12,0,0,12,130.6,1063.2)" />
<use xlink:href="#f0_9" transform="matrix(12,0,0,12,142,1063.2)" />
<use xlink:href="#f0_c" transform="matrix(12,0,0,12,151.6,1063.2)" />
<use xlink:href="#f0_e" transform="matrix(12,0,0,12,156.7,1063.2)" />
<use xlink:href="#f0_q" transform="matrix(12,0,0,12,168.3,1063.2)" />
<use xlink:href="#f0_i" transform="matrix(12,0,0,12,185.9,1063.2)" />
<use xlink:href="#f0_a" transform="matrix(12,0,0,12,195.8,1063.2)" />
<use xlink:href="#f0_p" transform="matrix(12,0,0,12,207.1,1063.2)" />
<use xlink:href="#f0_1s" transform="matrix(12,0,0,12,223.7,1063.2)" />
<use xlink:href="#f0_s" transform="matrix(12,0,0,12,229.5,1063.2)" />
<use xlink:href="#f0_g" transform="matrix(12,0,0,12,241.1,1063.2)" />
<use xlink:href="#f0_c" transform="matrix(12,0,0,12,248.8,1063.2)" />
<use xlink:href="#f0_t" transform="matrix(12,0,0,12,253.8,1063.2)" />
<use xlink:href="#f0_8" transform="matrix(12,0,0,12,264.6,1063.2)" />
<use xlink:href="#f0_6" transform="matrix(12,0,0,12,275.9,1063.2)" />
<use xlink:href="#f0_a" transform="matrix(12,0,0,12,283.1,1063.2)" />
<use xlink:href="#f0_3" transform="matrix(12,0,0,12,294.3,1063.2)" />
<use xlink:href="#f0_a" transform="matrix(12,0,0,12,305.4,1063.2)" />
<use xlink:href="#f0_p" transform="matrix(12,0,0,12,316.7,1063.2)" />
<use xlink:href="#f0_r" transform="matrix(12,0,0,12,327.5,1063.2)" />
<use xlink:href="#f0_c" transform="matrix(12,0,0,12,339.2,1063.2)" />
<use xlink:href="#f0_e" transform="matrix(12,0,0,12,344.2,1063.2)" />
<use xlink:href="#f0_p" transform="matrix(12,0,0,12,361.8,1063.2)" />
<use xlink:href="#f0_d" transform="matrix(12,0,0,12,372.6,1063.2)" />
<use xlink:href="#f0_k" transform="matrix(12,0,0,12,383.8,1063.2)" />
<use xlink:href="#f0_g" transform="matrix(12,0,0,12,395.4,1063.2)" />
<use xlink:href="#f0_i" transform="matrix(12,0,0,12,408.8,1063.2)" />
<use xlink:href="#f0_a" transform="matrix(12,0,0,12,418.7,1063.2)" />
<use xlink:href="#f0_p" transform="matrix(12,0,0,12,430,1063.2)" />
<use xlink:href="#f0_b" transform="matrix(12,0,0,12,440.9,1063.2)" />
<use xlink:href="#f0_7" transform="matrix(12,0,0,12,450.9,1063.2)" />
<use xlink:href="#f0_8" transform="matrix(12,0,0,12,462.5,1063.2)" />
<use xlink:href="#f0_c" transform="matrix(12,0,0,12,473.8,1063.2)" />
<use xlink:href="#f0_e" transform="matrix(12,0,0,12,478.9,1063.2)" />
<use xlink:href="#f0_1c" transform="matrix(12,0,0,12,489.4,1063.2)" />
<use xlink:href="#f0_l" transform="matrix(12,0,0,12,498.9,1063.2)" />
<use xlink:href="#f0_w" transform="matrix(12,0,0,12,510.6,1063.2)" />
<use xlink:href="#f0_7" transform="matrix(12,0,0,12,521.8,1063.2)" />
<use xlink:href="#f0_a" transform="matrix(12,0,0,12,533.4,1063.2)" />
<use xlink:href="#f0_1j" transform="matrix(12,0,0,12,550.5,1063.2)" />
<use xlink:href="#f0_8" transform="matrix(12,0,0,12,566.4,1063.2)" />
<use xlink:href="#f0_b" transform="matrix(12,0,0,12,577.5,1063.2)" />
<use xlink:href="#f0_c" transform="matrix(12,0,0,12,593.5,1063.2)" />
<use xlink:href="#f0_9" transform="matrix(12,0,0,12,598.4,1063.2)" />
<use xlink:href="#f0_o" transform="matrix(12,0,0,12,614,1063.2)" />
<use xlink:href="#f0_a" transform="matrix(12,0,0,12,619,1063.2)" />
<use xlink:href="#f0_6" transform="matrix(12,0,0,12,630.3,1063.2)" />
<use xlink:href="#f0_6" transform="matrix(12,0,0,12,637.5,1063.2)" />
<use xlink:href="#f0_c" transform="matrix(12,0,0,12,644.7,1063.2)" />
<use xlink:href="#f0_e" transform="matrix(12,0,0,12,649.7,1063.2)" />
<use xlink:href="#f0_q" transform="matrix(12,0,0,12,661.3,1063.2)" />
<use xlink:href="#f0_p" transform="matrix(12,0,0,12,678.9,1063.2)" />
<use xlink:href="#f0_d" transform="matrix(12,0,0,12,689.7,1063.2)" />
<use xlink:href="#f0_k" transform="matrix(12,0,0,12,700.9,1063.2)" />
<use xlink:href="#f0_i" transform="matrix(12,0,0,12,718.3,1063.2)" />
<use xlink:href="#f0_e" transform="matrix(12,0,0,12,728.9,1063.2)" />
<use xlink:href="#f0_d" transform="matrix(12,0,0,12,740.5,1063.2)" />
<use xlink:href="#f0_n" transform="matrix(12,0,0,12,751.7,1063.2)" />
<use xlink:href="#f0_z" transform="matrix(12,0,0,12,86.8,1091.9)" />
<use xlink:href="#f0_b" transform="matrix(12,0,0,12,99.3,1091.9)" />
<use xlink:href="#f0_d" transform="matrix(12,0,0,12,109.4,1091.9)" />
<use xlink:href="#f0_f" transform="matrix(12,0,0,12,120.7,1091.9)" />
<use xlink:href="#f0_a" transform="matrix(12,0,0,12,132.3,1091.9)" />
<use xlink:href="#f0_n" transform="matrix(12,0,0,12,149.4,1091.9)" />
<use xlink:href="#f0_8" transform="matrix(12,0,0,12,164.3,1091.9)" />
<use xlink:href="#f0_e" transform="matrix(12,0,0,12,175.6,1091.9)" />
<use xlink:href="#f0_6" transform="matrix(12,0,0,12,187.2,1091.9)" />
<use xlink:href="#f0_9" transform="matrix(12,0,0,12,194.3,1091.9)" />
<use xlink:href="#f0_6" transform="matrix(12,0,0,12,209.8,1091.9)" />
<use xlink:href="#f0_d" transform="matrix(12,0,0,12,217,1091.9)" />
<use xlink:href="#f0_8" transform="matrix(12,0,0,12,234,1091.9)" />
<use xlink:href="#f0_b" transform="matrix(12,0,0,12,245.3,1091.9)" />
<use xlink:href="#f0_b" transform="matrix(12,0,0,12,255.3,1091.9)" />
<use xlink:href="#f0_a" transform="matrix(12,0,0,12,265.4,1091.9)" />
<use xlink:href="#f0_9" transform="matrix(12,0,0,12,276.5,1091.9)" />
<use xlink:href="#f0_9" transform="matrix(12,0,0,12,286.1,1091.9)" />
<use xlink:href="#f0_p" transform="matrix(12,0,0,12,301.6,1091.9)" />
<use xlink:href="#f0_d" transform="matrix(12,0,0,12,312.4,1091.9)" />
<use xlink:href="#f0_k" transform="matrix(12,0,0,12,323.5,1091.9)" />
<use xlink:href="#f0_g" transform="matrix(12,0,0,12,335.1,1091.9)" />
<use xlink:href="#f0_b" transform="matrix(12,0,0,12,348.6,1091.9)" />
<use xlink:href="#f0_g" transform="matrix(12,0,0,12,358.6,1091.9)" />
<use xlink:href="#f0_a" transform="matrix(12,0,0,12,365.7,1091.9)" />
<use xlink:href="#f0_f" transform="matrix(12,0,0,12,377,1091.9)" />
<use xlink:href="#f0_a" transform="matrix(12,0,0,12,388.6,1091.9)" />
<use xlink:href="#f0_e" transform="matrix(12,0,0,12,399.9,1091.9)" />
<use xlink:href="#f0_6" transform="matrix(12,0,0,12,411.5,1091.9)" />
<use xlink:href="#f0_c" transform="matrix(12,0,0,12,418.6,1091.9)" />
<use xlink:href="#f0_8" transform="matrix(12,0,0,12,423.7,1091.9)" />
<use xlink:href="#f0_o" transform="matrix(12,0,0,12,435,1091.9)" />
<use xlink:href="#f0_9" transform="matrix(12,0,0,12,440,1091.9)" />
<use xlink:href="#f0_l" transform="matrix(12,0,0,12,449.6,1091.9)" />
<use xlink:href="#f0_1f" transform="matrix(12,0,0,12,461.3,1091.9)" />
<use xlink:href="#f0_o" transform="matrix(12,0,0,12,474.1,1091.9)" />
<use xlink:href="#f0_c" transform="matrix(12,0,0,12,479.1,1091.9)" />
<use xlink:href="#f0_b" transform="matrix(12,0,0,12,484.2,1091.9)" />
<use xlink:href="#f0_i" transform="matrix(12,0,0,12,494.2,1091.9)" />
</g>
<g fill="#0000FF" >
<use xlink:href="#f1_n" transform="matrix(12,0,0,12,511,1091.9)" />
<use xlink:href="#f1_r" transform="matrix(12,0,0,12,525.2,1091.9)" />
<use xlink:href="#f1_v" transform="matrix(12,0,0,12,531.5,1091.9)" />
<use xlink:href="#f1_a" transform="matrix(12,0,0,12,548.4,1091.9)" />
<use xlink:href="#f1_y" transform="matrix(12,0,0,12,560.2,1091.9)" />
<use xlink:href="#f1_k" transform="matrix(12,0,0,12,572.3,1091.9)" />
<use xlink:href="#f1_n" transform="matrix(12,0,0,12,589.5,1091.9)" />
<use xlink:href="#f1_r" transform="matrix(12,0,0,12,603.7,1091.9)" />
<use xlink:href="#f1_r" transform="matrix(12,0,0,12,610,1091.9)" />
<use xlink:href="#f1_g" transform="matrix(12,0,0,12,616.2,1091.9)" />
<use xlink:href="#f1_v" transform="matrix(12,0,0,12,628.8,1091.9)" />
</g>
<g fill="#000000" >
<use xlink:href="#f0_l" transform="matrix(12,0,0,12,645.8,1091.9)" />
<use xlink:href="#f0_19" transform="matrix(12,0,0,12,86.8,1120.5)" />
<use xlink:href="#f0_h" transform="matrix(12,0,0,12,92.1,1120.5)" />
<use xlink:href="#f0_6" transform="matrix(12,0,0,12,104.5,1120.5)" />
<use xlink:href="#f0_7" transform="matrix(12,0,0,12,111.7,1120.5)" />
<use xlink:href="#f0_a" transform="matrix(12,0,0,12,123.3,1120.5)" />
<use xlink:href="#f0_g" transform="matrix(12,0,0,12,134.6,1120.5)" />
<use xlink:href="#f0_a" transform="matrix(12,0,0,12,141.6,1120.5)" />
<use xlink:href="#f0_8" transform="matrix(12,0,0,12,158.8,1120.5)" />
<use xlink:href="#f0_g" transform="matrix(12,0,0,12,170.1,1120.5)" />
<use xlink:href="#f0_a" transform="matrix(12,0,0,12,177.2,1120.5)" />
<use xlink:href="#f0_8" transform="matrix(12,0,0,12,194.3,1120.5)" />
<use xlink:href="#f0_e" transform="matrix(12,0,0,12,205.6,1120.5)" />
<use xlink:href="#f0_p" transform="matrix(12,0,0,12,217.2,1120.5)" />
<use xlink:href="#f0_s" transform="matrix(12,0,0,12,233.8,1120.5)" />
<use xlink:href="#f0_g" transform="matrix(12,0,0,12,245.4,1120.5)" />
<use xlink:href="#f0_d" transform="matrix(12,0,0,12,252.4,1120.5)" />
<use xlink:href="#f0_x" transform="matrix(12,0,0,12,263.7,1120.5)" />
<use xlink:href="#f0_o" transform="matrix(12,0,0,12,275.3,1120.5)" />
<use xlink:href="#f0_a" transform="matrix(12,0,0,12,280.4,1120.5)" />
<use xlink:href="#f0_u" transform="matrix(12,0,0,12,291.7,1120.5)" />
<use xlink:href="#f0_9" transform="matrix(12,0,0,12,309.5,1120.5)" />
<use xlink:href="#f0_n" transform="matrix(12,0,0,12,324.9,1120.5)" />
<use xlink:href="#f0_c" transform="matrix(12,0,0,12,339.9,1120.5)" />
<use xlink:href="#f0_6" transform="matrix(12,0,0,12,345,1120.5)" />
<use xlink:href="#f0_7" transform="matrix(12,0,0,12,352.2,1120.5)" />
<use xlink:href="#f0_p" transform="matrix(12,0,0,12,369.7,1120.5)" />
<use xlink:href="#f0_d" transform="matrix(12,0,0,12,380.6,1120.5)" />
<use xlink:href="#f0_k" transform="matrix(12,0,0,12,391.7,1120.5)" />
<use xlink:href="#f0_g" transform="matrix(12,0,0,12,403.3,1120.5)" />
<use xlink:href="#f0_s" transform="matrix(12,0,0,12,416.7,1120.5)" />
<use xlink:href="#f0_g" transform="matrix(12,0,0,12,428.3,1120.5)" />
<use xlink:href="#f0_d" transform="matrix(12,0,0,12,435.4,1120.5)" />
<use xlink:href="#f0_h" transform="matrix(12,0,0,12,446.7,1120.5)" />
<use xlink:href="#f0_c" transform="matrix(12,0,0,12,453.1,1120.5)" />
<use xlink:href="#f0_o" transform="matrix(12,0,0,12,458.1,1120.5)" />
<use xlink:href="#f0_a" transform="matrix(12,0,0,12,463.2,1120.5)" />
<use xlink:href="#f0_9" transform="matrix(12,0,0,12,474.5,1120.5)" />
<use xlink:href="#f0_4" transform="matrix(12,0,0,12,484.1,1120.5)" />
<use xlink:href="#f0_p" transform="matrix(12,0,0,12,495.8,1120.5)" />
<use xlink:href="#f0_d" transform="matrix(12,0,0,12,506.6,1120.5)" />
<use xlink:href="#f0_k" transform="matrix(12,0,0,12,517.8,1120.5)" />
<use xlink:href="#f0_r" transform="matrix(12,0,0,12,529.4,1120.5)" />
<use xlink:href="#f0_o" transform="matrix(12,0,0,12,535.2,1120.5)" />
<use xlink:href="#f0_o" transform="matrix(12,0,0,12,540.3,1120.5)" />
<use xlink:href="#f0_9" transform="matrix(12,0,0,12,551.2,1120.5)" />
<use xlink:href="#f0_a" transform="matrix(12,0,0,12,560.8,1120.5)" />
<use xlink:href="#f0_a" transform="matrix(12,0,0,12,572,1120.5)" />
<use xlink:href="#f0_9" transform="matrix(12,0,0,12,589.1,1120.5)" />
<use xlink:href="#f0_d" transform="matrix(12,0,0,12,598.7,1120.5)" />
<use xlink:href="#f0_u" transform="matrix(12,0,0,12,609.8,1120.5)" />
<use xlink:href="#f0_a" transform="matrix(12,0,0,12,627.7,1120.5)" />
<use xlink:href="#f0_6" transform="matrix(12,0,0,12,639,1120.5)" />
<use xlink:href="#f0_7" transform="matrix(12,0,0,12,646.2,1120.5)" />
<use xlink:href="#f0_c" transform="matrix(12,0,0,12,657.8,1120.5)" />
<use xlink:href="#f0_e" transform="matrix(12,0,0,12,662.8,1120.5)" />
<use xlink:href="#f0_q" transform="matrix(12,0,0,12,674.4,1120.5)" />
<use xlink:href="#f0_o" transform="matrix(12,0,0,12,692,1120.5)" />
<use xlink:href="#f0_c" transform="matrix(12,0,0,12,697,1120.5)" />
<use xlink:href="#f0_i" transform="matrix(12,0,0,12,702.1,1120.5)" />
<use xlink:href="#f0_a" transform="matrix(12,0,0,12,712.2,1120.5)" />
<use xlink:href="#f0_6" transform="matrix(12,0,0,12,729.3,1120.5)" />
<use xlink:href="#f0_7" transform="matrix(12,0,0,12,736.5,1120.5)" />
<use xlink:href="#f0_c" transform="matrix(12,0,0,12,748.1,1120.5)" />
<use xlink:href="#f0_9" transform="matrix(12,0,0,12,753.1,1120.5)" />
<use xlink:href="#f0_s" transform="matrix(12,0,0,12,86.8,1149.2)" />
<use xlink:href="#f0_d" transform="matrix(12,0,0,12,98.4,1149.2)" />
<use xlink:href="#f0_s" transform="matrix(12,0,0,12,109.7,1149.2)" />
<use xlink:href="#f0_k" transform="matrix(12,0,0,12,121.3,1149.2)" />
<use xlink:href="#f0_s" transform="matrix(12,0,0,12,132.9,1149.2)" />
<use xlink:href="#f0_c" transform="matrix(12,0,0,12,150.3,1149.2)" />
<use xlink:href="#f0_e" transform="matrix(12,0,0,12,155.3,1149.2)" />
<use xlink:href="#f0_z" transform="matrix(12,0,0,12,172.9,1149.2)" />
<use xlink:href="#f0_b" transform="matrix(12,0,0,12,185.4,1149.2)" />
<use xlink:href="#f0_d" transform="matrix(12,0,0,12,195.5,1149.2)" />
<use xlink:href="#f0_f" transform="matrix(12,0,0,12,206.6,1149.2)" />
<use xlink:href="#f0_a" transform="matrix(12,0,0,12,218.2,1149.2)" />
<use xlink:href="#f0_1e" transform="matrix(12,0,0,12,229.7,1149.2)" />
</g>
</g>
<image preserveAspectRatio="none" x="87" y="287" width="736" height="218" xlink:href="img/1.png" />
<image preserveAspectRatio="none" x="87" y="640" width="736" height="349" xlink:href="img/2.png" />
<defs>
<path d="M150,0V1114H353L846,182v932H992V0H789L296,932V0Z" 
id="f0_10"
transform="scale(0.001,-0.001)" />

<path d="M231,492l491,1c0,0,-2,112,-64,179c0,0,-61,67,-163,67c0,0,-115,0,-184,-65c0,0,-69,-64,-80,-182ZM517,-20c0,0,-199,0,-316,115C201,95,84,211,84,410c0,0,0,205,111,325c0,0,111,121,299,121c0,0,168,0,266,-109c0,0,98,-108,98,-295V385H227c0,0,9,-142,85,-216c0,0,77,-74,213,-74c0,0,80,0,154,19c0,0,74,19,147,58V42C826,42,752,11,675,-4c0,0,-78,-16,-158,-16Z" 
id="f0_a"
transform="scale(0.001,-0.001)" />

<path d="M44,0L369,437L71,836H233L455,538L677,836H839L537,429L855,0H693L449,328L206,0Z" 
id="f0_1h"
transform="scale(0.001,-0.001)" />

<path d="M421,0C421,0,263,0,202,59c0,0,-60,60,-60,217V729H41V836H142v238H280V836H562V729H280V276c0,0,0,-102,28,-132c0,0,28,-29,113,-29H562V0Z" 
id="f0_6"
transform="scale(0.001,-0.001)" />

<path d="M376,-20c0,0,-67,0,-140,12C236,-8,164,4,83,30V172c0,0,76,-40,150,-59c0,0,74,-20,146,-20c0,0,97,0,150,33c0,0,52,33,52,94c0,0,0,56,-38,85c0,0,-38,30,-165,58l-48,11c0,0,-128,27,-184,83c0,0,-57,55,-57,152c0,0,0,118,83,182c0,0,84,65,238,65c0,0,76,0,143,-12c0,0,67,-11,124,-33V681c0,0,-58,29,-121,44c0,0,-63,15,-130,15c0,0,-102,0,-153,-31c0,0,-51,-31,-51,-94c0,0,0,-48,37,-75c0,0,36,-27,147,-52l46,-10c0,0,147,-32,208,-89c0,0,62,-57,62,-159c0,0,0,-116,-93,-184c0,0,-92,-66,-253,-66Z" 
id="f0_9"
transform="scale(0.001,-0.001)" />

<path d="M510,93c0,0,109,0,171,86c0,0,62,86,62,238c0,0,0,151,-62,237c0,0,-62,86,-171,86c0,0,-109,0,-171,-86c0,0,-62,-86,-62,-237c0,0,0,-152,62,-238c0,0,62,-86,171,-86ZM139,-317V836H277V709c0,0,43,74,109,110c0,0,66,37,158,37c0,0,152,0,247,-121c0,0,95,-121,95,-318c0,0,0,-197,-95,-318C791,99,696,-20,544,-20c0,0,-92,0,-158,35c0,0,-66,36,-109,110V-317Z" 
id="f0_s"
transform="scale(0.001,-0.001)" />

<path d="M144,0V836H281V0Zm0,987v174H281V987Z" 
id="f0_c"
transform="scale(0.001,-0.001)" />

<path d="M467,95c0,0,110,0,174,86c0,0,64,87,64,236c0,0,0,148,-64,235c0,0,-64,87,-174,87c0,0,-110,0,-174,-86c0,0,-64,-86,-64,-236c0,0,0,-150,64,-236c0,0,63,-86,174,-86Zm0,-115c0,0,-179,0,-281,115C186,95,84,212,84,417c0,0,0,206,102,322c0,0,102,117,281,117c0,0,179,0,282,-117c0,0,102,-116,102,-322c0,0,0,-205,-102,-322C749,95,646,-20,467,-20Z" 
id="f0_d"
transform="scale(0.001,-0.001)" />

<path d="M139,0V836H277V706c0,0,49,75,116,112c0,0,67,38,154,38c0,0,144,0,218,-90c0,0,74,-89,74,-262V0H702V500c0,0,0,119,-46,177c0,0,-47,59,-139,59c0,0,-112,0,-176,-71c0,0,-64,-70,-64,-193V0Z" 
id="f0_e"
transform="scale(0.001,-0.001)" />

<path d="M46,0L444,595L97,1114H259L536,700l278,414H976L618,579L999,0H837L524,474L209,0Z" 
id="f0_z"
transform="scale(0.001,-0.001)" />

<path d="M495,-20c0,0,-189,0,-300,117C195,97,84,216,84,417c0,0,0,204,112,321c0,0,113,118,308,118c0,0,64,0,124,-14c0,0,60,-13,117,-39V675c0,0,-58,32,-117,48c0,0,-58,16,-118,16c0,0,-133,0,-207,-84c0,0,-74,-85,-74,-238c0,0,0,-153,74,-238c0,0,74,-84,207,-84c0,0,60,0,118,16c0,0,59,16,117,48V32C745,32,688,5,626,-7c0,0,-61,-13,-131,-13Z" 
id="f0_b"
transform="scale(0.001,-0.001)" />

<path d="M460,93c0,0,109,0,171,86c0,0,63,86,63,238c0,0,0,151,-63,237c0,0,-62,86,-171,86c0,0,-109,0,-172,-86c0,0,-62,-86,-62,-237c0,0,0,-152,62,-238c0,0,63,-86,172,-86ZM426,-20c0,0,-151,0,-247,119c0,0,-95,121,-95,318c0,0,0,197,95,318c0,0,96,121,247,121c0,0,93,0,159,-37c0,0,66,-36,109,-110v452H831V0H694V125C694,125,651,51,585,15c0,0,-66,-35,-159,-35Z" 
id="f0_f"
transform="scale(0.001,-0.001)" />

<path d="M139,0V1161H277V706c0,0,49,75,116,112c0,0,67,38,154,38c0,0,144,0,218,-90c0,0,74,-89,74,-262V0H702V500c0,0,0,119,-46,177c0,0,-47,59,-139,59c0,0,-112,0,-176,-71c0,0,-64,-70,-64,-193V0Z" 
id="f0_7"
transform="scale(0.001,-0.001)" />

<path d="M139,0V836H277V706c0,0,43,76,112,113c0,0,70,37,169,37c0,0,14,0,31,-2c0,0,17,-2,38,-6l1,-141c0,0,-23,14,-51,20c0,0,-27,6,-60,6c0,0,-116,0,-178,-75c0,0,-62,-76,-62,-218V0Z" 
id="f0_g"
transform="scale(0.001,-0.001)" />

<path d="M359,0L46,836H191L453,134L714,836H859L546,0Z" 
id="f0_t"
transform="scale(0.001,-0.001)" />

<path d="M460,115c0,0,111,0,173,82c0,0,61,82,61,230c0,0,0,149,-61,231c0,0,-62,82,-173,82c0,0,-111,0,-173,-82c0,0,-61,-82,-61,-231c0,0,0,-148,61,-230c0,0,62,-82,173,-82ZM446,-317c0,0,-72,0,-137,11c0,0,-64,11,-124,33v134c0,0,60,-33,119,-49c0,0,59,-15,121,-15c0,0,135,0,202,70c0,0,67,71,67,212v68C694,147,652,73,585,36C585,36,519,0,426,0C426,0,272,0,178,117c0,0,-94,117,-94,310c0,0,0,194,94,311c0,0,94,118,248,118c0,0,93,0,159,-37c0,0,67,-36,109,-110V836H831V104c0,0,0,-212,-95,-317c0,0,-94,-104,-290,-104Z" 
id="f0_q"
transform="scale(0.001,-0.001)" />

<path d="M166,0V729H35V836H166v58c0,0,0,139,65,203c0,0,65,64,206,64H567V1046H435c0,0,-74,0,-102,-29c0,0,-29,-30,-29,-107V836H530V729H304V0Z" 
id="f0_h"
transform="scale(0.001,-0.001)" />

<path d="M144,0V1161H281V0Z" 
id="f0_o"
transform="scale(0.001,-0.001)" />

<path d="M163,0V190H321V0Z" 
id="f0_l"
transform="scale(0.001,-0.001)" />

<path d="M630,-20c0,0,-253,0,-398,153C232,133,86,288,86,556c0,0,0,269,146,423c0,0,145,155,398,155c0,0,100,0,189,-26c0,0,88,-27,166,-79V869c0,0,-76,71,-163,106c0,0,-86,35,-183,35c0,0,-191,0,-292,-117C347,893,245,777,245,556c0,0,0,-220,102,-337c0,0,101,-116,292,-116c0,0,97,0,183,35c0,0,87,35,163,105V86C985,86,906,32,817,5c0,0,-88,-25,-187,-25Z" 
id="f0_1f"
transform="scale(0.001,-0.001)" />

<path d="M139,0V1161H277V475L686,836H861L418,445L880,0H701L277,408V0Z" 
id="f0_i"
transform="scale(0.001,-0.001)" />

<path d="M596,196c0,0,86,0,130,36c0,0,44,37,44,110c0,0,0,73,-44,109c0,0,-43,36,-130,36H427V196ZM586,683c0,0,68,0,103,29c0,0,35,30,35,88c0,0,0,58,-35,88c0,0,-35,30,-103,30H427V683ZM140,0V1114H571c0,0,232,0,336,-70c0,0,104,-71,104,-225c0,0,0,-81,-38,-138c0,0,-38,-57,-110,-85c0,0,92,-27,143,-99c0,0,51,-73,51,-178c0,0,0,-161,-109,-240C948,79,839,0,616,0Z" 
id="f1_11"
transform="scale(0.001,-0.001)" />

<path d="M415,-20c0,0,-144,0,-220,87c0,0,-76,89,-76,259V836H388V752c0,0,0,-67,-1,-170c0,0,0,-103,0,-137c0,0,0,-101,5,-145c0,0,5,-44,18,-65c0,0,16,-26,43,-40c0,0,26,-14,60,-14c0,0,84,0,132,64c0,0,47,64,47,178V836H959V0H692V121C692,121,632,48,564,13c0,0,-67,-33,-149,-33Z" 
id="f1_o"
transform="scale(0.001,-0.001)" />

<path d="M128,0V836H395V0Zm0,944v217H395V944Z" 
id="f1_5"
transform="scale(0.001,-0.001)" />

<path d="M128,0V1161H395V0Z" 
id="f1_r"
transform="scale(0.001,-0.001)" />

<path d="M520,172c0,0,86,0,131,63c0,0,45,63,45,182c0,0,0,119,-45,182c0,0,-45,63,-131,63c0,0,-85,0,-130,-63c0,0,-45,-63,-45,-182c0,0,0,-119,45,-182c0,0,45,-63,130,-63ZM421,-20c0,0,-154,0,-253,121C168,101,68,224,68,417c0,0,0,193,100,316c0,0,99,123,253,123c0,0,87,0,153,-35c0,0,67,-35,122,-108v448H965V0H696V121C696,121,641,47,575,13c0,0,-67,-33,-154,-33Z" 
id="f1_c"
transform="scale(0.001,-0.001)" />

<path d="M545,-20c0,0,-106,0,-212,20C333,0,226,19,119,58V301c0,0,107,-57,207,-85c0,0,99,-29,192,-29c0,0,94,0,144,31c0,0,50,31,50,90c0,0,0,52,-34,80c0,0,-34,29,-136,51L431,464c0,0,-167,35,-244,114c0,0,-77,78,-77,211c0,0,0,166,107,256c0,0,107,89,309,89c0,0,92,0,189,-14c0,0,97,-13,200,-41V843c0,0,-92,41,-179,62c0,0,-87,21,-165,21c0,0,-103,0,-152,-28c0,0,-49,-29,-49,-88c0,0,0,-45,33,-70c0,0,33,-25,121,-43L646,672c0,0,186,-37,264,-113c0,0,79,-76,79,-216c0,0,0,-185,-110,-275c0,0,-109,-88,-334,-88Z" 
id="f1_9"
transform="scale(0.001,-0.001)" />

<path d="M687,509c0,0,0,76,-44,122c0,0,-44,47,-116,47c0,0,-78,0,-126,-44c0,0,-49,-43,-61,-125ZM544,-20c0,0,-227,0,-353,114C191,94,66,209,66,417c0,0,0,204,123,321c0,0,123,118,340,118c0,0,197,0,315,-119c0,0,118,-118,118,-317V344H337c0,0,10,-94,68,-141c0,0,59,-47,163,-47c0,0,85,0,173,25c0,0,89,25,182,76V51C923,51,828,15,733,-2c0,0,-94,-18,-189,-18Z" 
id="f1_3"
transform="scale(0.001,-0.001)" />

<path d="M443,0C443,0,285,0,219,66c0,0,-66,66,-66,224V645H20V836H153v237H419V836H695V645H419V290c0,0,0,-58,24,-79c0,0,23,-20,91,-20H672V0Z" 
id="f1_4"
transform="scale(0.001,-0.001)" />

<path d="M128,0V836H395V713c0,0,60,73,128,108c0,0,68,35,150,35c0,0,145,0,220,-89c0,0,75,-89,75,-258V0H699V389c0,0,0,109,-5,150c0,0,-5,41,-16,60c0,0,-16,26,-43,41c0,0,-27,14,-61,14c0,0,-84,0,-131,-64c0,0,-48,-65,-48,-179V0Z" 
id="f1_6"
transform="scale(0.001,-0.001)" />

<path d="M520,194c0,0,84,0,130,61c0,0,46,61,46,172c0,0,0,112,-46,174c0,0,-46,61,-130,61c0,0,-82,0,-129,-61c0,0,-46,-62,-46,-174c0,0,0,-115,45,-174c0,0,45,-59,130,-59ZM469,-328c0,0,-78,0,-151,12c0,0,-73,12,-147,36V-71c0,0,70,-41,137,-61c0,0,67,-20,135,-20c0,0,131,0,192,58c0,0,61,57,61,178v58C696,142,641,69,575,34C575,34,508,0,421,0C421,0,268,0,168,121C168,121,68,241,68,428c0,0,0,187,100,307c0,0,100,120,253,120c0,0,87,0,154,-35c0,0,66,-34,121,-108V836H965V84c0,0,0,-200,-127,-306c0,0,-127,-106,-369,-106Z" 
id="f1_7"
transform="scale(0.001,-0.001)" />

<path d="M445,-20c0,0,-83,0,-171,12C274,-8,185,4,92,30V234c0,0,80,-39,164,-58c0,0,84,-20,170,-20c0,0,79,0,118,22c0,0,40,22,40,64c0,0,0,36,-28,53c0,0,-27,18,-108,27l-47,6c0,0,-179,23,-250,83c0,0,-72,61,-72,184c0,0,0,132,91,196c0,0,91,65,279,65c0,0,74,0,155,-12c0,0,82,-11,177,-34V606c0,0,-86,36,-165,54c0,0,-80,18,-151,18c0,0,-76,0,-113,-19c0,0,-37,-19,-37,-59c0,0,0,-32,28,-49c0,0,28,-17,100,-25l47,-7c0,0,205,-26,276,-86c0,0,71,-59,71,-187c0,0,0,-133,-98,-200c0,0,-99,-66,-294,-66Z" 
id="f1_k"
transform="scale(0.001,-0.001)" />

<path d="M408,93c0,0,115,0,184,81c0,0,69,81,69,215v30H524c0,0,-167,0,-231,-38c0,0,-64,-38,-64,-129c0,0,0,-73,48,-116c0,0,48,-43,131,-43ZM372,-20c0,0,-128,0,-204,70c0,0,-76,72,-76,193c0,0,0,141,94,212c0,0,95,72,282,72H661v13c0,0,0,95,-62,147c0,0,-63,52,-175,52c0,0,-72,0,-140,-17c0,0,-68,-17,-130,-51V798c0,0,75,29,146,43c0,0,71,15,138,15c0,0,181,0,270,-95c0,0,90,-94,90,-285V0H661V127C661,127,614,51,544,15c0,0,-70,-35,-172,-35Z" 
id="f0_8"
transform="scale(0.001,-0.001)" />

<path d="M510,93c0,0,109,0,171,86c0,0,62,86,62,238c0,0,0,151,-62,237c0,0,-62,86,-171,86c0,0,-109,0,-171,-86c0,0,-62,-86,-62,-237c0,0,0,-152,62,-238c0,0,62,-86,171,-86ZM544,-20c0,0,-92,0,-158,35c0,0,-66,36,-109,110V0H139V1161H277V709c0,0,43,74,109,110c0,0,66,37,158,37c0,0,152,0,247,-121c0,0,95,-121,95,-318c0,0,0,-197,-95,-318C791,99,696,-20,544,-20Z" 
id="f0_x"
transform="scale(0.001,-0.001)" />

<path d="M283,0L65,836H202L373,184L544,836H706L878,184l171,652h137L967,0H806L626,685L445,0Z" 
id="f0_n"
transform="scale(0.001,-0.001)" />

<path d="M130,747V876l123,238h96L287,876V747Zm306,0V876l123,238h96L594,876V747Z" 
id="f0_1b"
transform="scale(0.001,-0.001)" />

<path d="M129,747l62,239v128H348V986L225,747Zm306,0l62,239v128H654V986L531,747Z" 
id="f0_1c"
transform="scale(0.001,-0.001)" />

<path d="M150,0V1114H300V0Z" 
id="f0_19"
transform="scale(0.001,-0.001)" />

<path d="M424,-20c0,0,-145,0,-219,88c0,0,-75,89,-75,262V836H267V335c0,0,0,-119,46,-178c0,0,47,-59,139,-59c0,0,112,0,177,71c0,0,64,71,64,193V836H830V0H693V128C693,128,643,52,577,15c0,0,-66,-35,-153,-35Z" 
id="f0_k"
transform="scale(0.001,-0.001)" />

<path d="M680,-20c0,0,-278,0,-441,154C239,134,76,290,76,556c0,0,0,267,163,423c0,0,163,155,441,155c0,0,93,0,179,-21c0,0,86,-21,165,-62V820c0,0,-80,55,-158,81c0,0,-77,25,-163,25c0,0,-154,0,-241,-98c0,0,-88,-99,-88,-272c0,0,0,-172,87,-271c0,0,88,-98,242,-98c0,0,86,0,163,25c0,0,78,26,158,80V61C1024,61,945,20,859,0c0,0,-86,-20,-179,-20Z" 
id="f1_12"
transform="scale(0.001,-0.001)" />

<path d="M526,169c0,0,87,0,133,64c0,0,46,64,46,184c0,0,0,120,-46,184c0,0,-46,64,-133,64c0,0,-89,0,-135,-64c0,0,-47,-64,-47,-184c0,0,0,-120,47,-184c0,0,46,-64,135,-64Zm0,-189c0,0,-217,0,-339,115C187,95,66,211,66,417c0,0,0,206,121,322c0,0,122,117,339,117c0,0,215,0,336,-117c0,0,122,-116,122,-322c0,0,0,-206,-122,-322C862,95,741,-20,526,-20Z" 
id="f1_g"
transform="scale(0.001,-0.001)" />

<path d="M140,0V1114H427V0Z" 
id="f1_s"
transform="scale(0.001,-0.001)" />

<path d="M153,-328v175h83c0,0,68,0,99,21c0,0,31,22,48,78l8,23L19,836H286L510,269L701,836H968L617,-78c0,0,-53,-139,-124,-195c0,0,-70,-55,-186,-55Z" 
id="f1_y"
transform="scale(0.001,-0.001)" />

<path d="M117,-176L179,62V190H336V62L213,-176Z" 
id="f0_4"
transform="scale(0.001,-0.001)" />

<path d="M530,217c0,0,176,0,269,87c0,0,93,88,93,254c0,0,0,166,-93,252c0,0,-92,87,-269,87H427V217ZM140,0V1114H443c0,0,253,0,378,-36c0,0,124,-37,213,-123c0,0,78,-76,116,-174c0,0,38,-98,38,-223c0,0,0,-126,-38,-225c0,0,-38,-99,-116,-174c0,0,-90,-87,-215,-123C819,36,694,0,443,0Z" 
id="f1_t"
transform="scale(0.001,-0.001)" />

<path d="M573,172c0,0,86,0,131,63c0,0,45,63,45,182c0,0,0,119,-45,182c0,0,-45,63,-131,63c0,0,-86,0,-132,-63c0,0,-46,-63,-46,-182c0,0,0,-119,46,-182c0,0,46,-63,132,-63ZM672,-20c0,0,-87,0,-155,33c0,0,-67,35,-122,108V0H128V1161H395V713c0,0,55,73,122,108c0,0,68,35,155,35c0,0,154,0,253,-123c0,0,100,-123,100,-316c0,0,0,-193,-100,-316c0,0,-99,-121,-253,-121Z" 
id="f1_13"
transform="scale(0.001,-0.001)" />

<path d="M548,620c0,0,90,0,129,33c0,0,39,34,39,111c0,0,0,76,-39,109c0,0,-39,32,-129,32H427V620ZM140,0V1114H578c0,0,220,0,323,-74c0,0,102,-74,102,-234c0,0,0,-110,-53,-181c0,0,-54,-71,-161,-104c0,0,59,-14,106,-61c0,0,46,-47,94,-144L1145,0H839L703,277c0,0,-41,83,-83,114c0,0,-42,30,-112,30H427V0Z" 
id="f1_w"
transform="scale(0.001,-0.001)" />

<path d="M463,156c0,0,75,0,127,54c0,0,51,54,51,135v30H502c0,0,-83,0,-125,-28c0,0,-43,-28,-43,-83c0,0,0,-50,34,-79c0,0,34,-29,95,-29ZM357,-20c0,0,-130,0,-211,74c0,0,-80,76,-80,197c0,0,0,147,101,215c0,0,101,69,317,69H641v21c0,0,0,63,-50,92c0,0,-49,30,-155,30c0,0,-86,0,-160,-17c0,0,-74,-18,-137,-52V813c0,0,86,21,172,32c0,0,86,11,173,11c0,0,226,0,326,-90c0,0,100,-89,100,-290V0H641V124C641,124,588,48,521,13c0,0,-68,-33,-164,-33Z" 
id="f1_a"
transform="scale(0.001,-0.001)" />

<path d="M139,0V836H277V706c0,0,47,77,112,113c0,0,66,37,156,37c0,0,91,0,155,-47c0,0,64,-46,94,-134c0,0,52,93,123,137c0,0,72,44,169,44c0,0,130,0,201,-92c0,0,71,-91,71,-260V0H1220V500c0,0,0,120,-42,178c0,0,-43,58,-130,58c0,0,-107,0,-169,-71c0,0,-62,-70,-62,-193V0H680V500c0,0,0,121,-43,179c0,0,-42,57,-131,57c0,0,-105,0,-167,-71c0,0,-62,-71,-62,-193V0Z" 
id="f0_u"
transform="scale(0.001,-0.001)" />

<path d="M121,-317v116h81c0,0,57,0,88,26c0,0,31,27,69,127l25,62L46,836H191L453,182L714,836H859L492,-76c0,0,-58,-150,-113,-195c0,0,-55,-46,-148,-46Z" 
id="f0_p"
transform="scale(0.001,-0.001)" />

<path d="M391,0V530L-2,1114H159L468,656l307,458H937L543,530V0Z" 
id="f0_1r"
transform="scale(0.001,-0.001)" />

<path d="M482,124c0,0,231,0,338,105c0,0,107,104,107,329c0,0,0,224,-107,328c0,0,-107,104,-338,104H300V124ZM150,0V1114H459c0,0,324,0,476,-135c0,0,151,-135,151,-421c0,0,0,-288,-152,-423C934,135,782,0,459,0Z" 
id="f0_15"
transform="scale(0.001,-0.001)" />

<path d="M489,595c0,0,109,0,164,50c0,0,56,50,56,148c0,0,0,97,-56,147c0,0,-55,50,-164,50H300V595ZM150,0V1114H489c0,0,191,0,285,-80c0,0,94,-80,94,-241c0,0,0,-105,-49,-175c0,0,-49,-69,-142,-96c0,0,48,-16,94,-70c0,0,46,-54,93,-148L1017,0H855L712,285c0,0,-55,112,-107,149c0,0,-52,36,-141,36H300V0Z" 
id="f0_1i"
transform="scale(0.001,-0.001)" />

<path d="M179,0V190H336V0Zm0,600V790H336V600Z" 
id="f0_1e"
transform="scale(0.001,-0.001)" />

<path d="M132,763l62,237v114H351V1000L228,763Z" 
id="f0_r"
transform="scale(0.001,-0.001)" />

<path d="M150,0V1114H375L659,356l285,758h224V0H1022V978L735,214H583L296,978V0Z" 
id="f0_1j"
transform="scale(0.001,-0.001)" />

<path d="M391,0V987H-3v127H938V987H543V0Z" 
id="f0_w"
transform="scale(0.001,-0.001)" />

<path d="M489,572c0,0,105,0,163,54c0,0,57,55,57,155c0,0,0,100,-57,154c0,0,-58,55,-163,55H300V572ZM150,0V1114H489c0,0,188,0,283,-85c0,0,96,-85,96,-248c0,0,0,-165,-96,-249c0,0,-95,-84,-283,-84H300V0Z" 
id="f0_1g"
transform="scale(0.001,-0.001)" />

<path d="M419,111c0,0,51,0,88,37c0,0,36,36,36,87V360H419c0,0,-51,0,-88,-37c0,0,-36,-37,-36,-87c0,0,0,-52,36,-88c0,0,37,-37,88,-37Zm690,0c0,0,52,0,88,37c0,0,36,36,36,88c0,0,0,50,-36,87c0,0,-37,37,-88,37H985V235c0,0,0,-51,36,-87c0,0,37,-37,88,-37ZM874,470V691H653V470ZM543,801V926c0,0,0,51,-36,87c0,0,-37,37,-88,37c0,0,-51,0,-88,-37c0,0,-36,-36,-36,-87c0,0,0,-52,36,-88c0,0,37,-37,88,-37Zm566,0c0,0,51,0,88,37c0,0,36,36,36,88c0,0,0,51,-36,87c0,0,-36,37,-88,37c0,0,-51,0,-88,-37c0,0,-36,-36,-36,-87V801ZM419,1c0,0,-97,0,-166,68c0,0,-69,69,-69,167c0,0,0,95,69,165c0,0,69,69,163,69H543V691H416c0,0,-94,0,-163,69c0,0,-69,70,-69,166c0,0,0,97,69,165c0,0,69,69,165,69c0,0,97,0,166,-68c0,0,69,-69,69,-164V801H874V928c0,0,0,95,69,164c0,0,69,68,166,68c0,0,98,0,166,-69c0,0,69,-68,69,-165c0,0,0,-96,-69,-166c0,0,-68,-69,-163,-69H985V470h127c0,0,95,0,163,-69c0,0,69,-70,69,-165c0,0,0,-98,-69,-167c0,0,-68,-68,-166,-68c0,0,-97,0,-166,68c0,0,-69,68,-69,164V360H653V233c0,0,0,-96,-69,-164C584,69,515,1,419,1Z" 
id="f0_17"
transform="scale(0.001,-0.001)" />

<path d="M-26,-317v117H9c0,0,78,0,106,36c0,0,29,36,29,150V836H281V-14c0,0,0,-160,-61,-231c0,0,-61,-72,-195,-72ZM144,987v174H281V987Z" 
id="f0_y"
transform="scale(0.001,-0.001)" />

<path d="M130,747V876l123,238h96L287,876V747Z" 
id="f0_1s"
transform="scale(0.001,-0.001)" />

<path d="M150,0V1114H300V643l500,471H994L441,595L1034,0H835L300,536V0Z" 
id="f0_3"
transform="scale(0.001,-0.001)" />

<path d="M744,410L592,853L439,410ZM8,0L420,1114H763L1175,0H887L816,203H367L297,0Z" 
id="f1_n"
transform="scale(0.001,-0.001)" />

<path d="M274,0L54,836H313L454,260L594,836H817L958,266l141,570h259L1138,0H847L706,575L565,0Z" 
id="f1_v"
transform="scale(0.001,-0.001)" />


</defs>
</svg>