<?xml version="1.0" encoding="UTF-8" standalone="no"?>
<!DOCTYPE svg PUBLIC "-//W3C//DTD SVG 1.1//EN"
"http://www.w3.org/Graphics/SVG/1.1/DTD/svg11.dtd">
<svg viewBox="0 0 909 1286" version="1.1" xmlns="http://www.w3.org/2000/svg" xmlns:xlink="http://www.w3.org/1999/xlink">
<defs>
<clipPath id="c0_42"><path d="M0,1286.2V.2H909.3v1286Z" /></clipPath>
</defs>
<g clip-path="url(#c0_42)">
<g fill="#000000" >
<use xlink:href="#f0_18" transform="matrix(12,0,0,12,86.8,712.6)" />
<use xlink:href="#f0_b" transform="matrix(12,0,0,12,98.4,712.6)" />
<use xlink:href="#f0_g" transform="matrix(12,0,0,12,108.6,712.6)" />
<use xlink:href="#f0_d" transform="matrix(12,0,0,12,115.6,712.6)" />
<use xlink:href="#f0_o" transform="matrix(12,0,0,12,126.8,712.6)" />
<use xlink:href="#f0_o" transform="matrix(12,0,0,12,131.9,712.6)" />
<use xlink:href="#f0_f" transform="matrix(12,0,0,12,142.8,712.6)" />
<use xlink:href="#f0_d" transform="matrix(12,0,0,12,154.4,712.6)" />
<use xlink:href="#f0_n" transform="matrix(12,0,0,12,165.7,712.6)" />
<use xlink:href="#f0_e" transform="matrix(12,0,0,12,180.7,712.6)" />
<use xlink:href="#f0_6" transform="matrix(12,0,0,12,198.1,712.6)" />
<use xlink:href="#f0_d" transform="matrix(12,0,0,12,205.3,712.6)" />
</g>
<g fill="#0000FF" >
<use xlink:href="#f1_n" transform="matrix(12,0,0,12,222.4,712.6)" />
<use xlink:href="#f1_q" transform="matrix(12,0,0,12,236.6,712.6)" />
<use xlink:href="#f1_q" transform="matrix(12,0,0,12,249.8,712.6)" />
<use xlink:href="#f1_w" transform="matrix(12,0,0,12,269.3,712.6)" />
<use xlink:href="#f1_3" transform="matrix(12,0,0,12,283.3,712.6)" />
<use xlink:href="#f1_x" transform="matrix(12,0,0,12,295.7,712.6)" />
<use xlink:href="#f1_5" transform="matrix(12,0,0,12,307.6,712.6)" />
<use xlink:href="#f1_3" transform="matrix(12,0,0,12,314,712.6)" />
<use xlink:href="#f1_v" transform="matrix(12,0,0,12,326.4,712.6)" />
<use xlink:href="#f1_s" transform="matrix(12,0,0,12,349.8,712.6)" />
<use xlink:href="#f1_6" transform="matrix(12,0,0,12,356.6,712.6)" />
<use xlink:href="#f1_j" transform="matrix(12,0,0,12,369.6,712.6)" />
<use xlink:href="#f1_g" transform="matrix(12,0,0,12,377.5,712.6)" />
<use xlink:href="#f1_b" transform="matrix(12,0,0,12,390,712.6)" />
<use xlink:href="#f1_z" transform="matrix(12,0,0,12,399.1,712.6)" />
<use xlink:href="#f1_a" transform="matrix(12,0,0,12,418.2,712.6)" />
<use xlink:href="#f1_4" transform="matrix(12,0,0,12,430.7,712.6)" />
<use xlink:href="#f1_5" transform="matrix(12,0,0,12,439.4,712.6)" />
<use xlink:href="#f1_g" transform="matrix(12,0,0,12,445.6,712.6)" />
<use xlink:href="#f1_6" transform="matrix(12,0,0,12,458.3,712.6)" />
</g>
<g fill="#000000" >
<use xlink:href="#f0_l" transform="matrix(12,0,0,12,471.5,712.6)" />
<use xlink:href="#f0_w" transform="matrix(12,0,0,12,483.2,712.6)" />
<use xlink:href="#f0_7" transform="matrix(12,0,0,12,494.4,712.6)" />
<use xlink:href="#f0_c" transform="matrix(12,0,0,12,506,712.6)" />
<use xlink:href="#f0_9" transform="matrix(12,0,0,12,511,712.6)" />
<use xlink:href="#f0_9" transform="matrix(12,0,0,12,526.4,712.6)" />
<use xlink:href="#f0_a" transform="matrix(12,0,0,12,536,712.6)" />
<use xlink:href="#f0_b" transform="matrix(12,0,0,12,547.2,712.6)" />
<use xlink:href="#f0_6" transform="matrix(12,0,0,12,557.3,712.6)" />
<use xlink:href="#f0_c" transform="matrix(12,0,0,12,564.4,712.6)" />
<use xlink:href="#f0_d" transform="matrix(12,0,0,12,569.6,712.6)" />
<use xlink:href="#f0_e" transform="matrix(12,0,0,12,580.8,712.6)" />
<use xlink:href="#f0_c" transform="matrix(12,0,0,12,598.2,712.6)" />
<use xlink:href="#f0_9" transform="matrix(12,0,0,12,603.2,712.6)" />
<use xlink:href="#f0_f" transform="matrix(12,0,0,12,618.6,712.6)" />
<use xlink:href="#f0_a" transform="matrix(12,0,0,12,630.2,712.6)" />
<use xlink:href="#f0_9" transform="matrix(12,0,0,12,641.5,712.6)" />
<use xlink:href="#f0_c" transform="matrix(12,0,0,12,651.1,712.6)" />
<use xlink:href="#f0_q" transform="matrix(12,0,0,12,656.2,712.6)" />
<use xlink:href="#f0_e" transform="matrix(12,0,0,12,667.8,712.6)" />
<use xlink:href="#f0_a" transform="matrix(12,0,0,12,679.4,712.6)" />
<use xlink:href="#f0_f" transform="matrix(12,0,0,12,690.7,712.6)" />
<use xlink:href="#f0_6" transform="matrix(12,0,0,12,708.2,712.6)" />
<use xlink:href="#f0_d" transform="matrix(12,0,0,12,715.4,712.6)" />
<use xlink:href="#f0_7" transform="matrix(12,0,0,12,732.4,712.6)" />
<use xlink:href="#f0_a" transform="matrix(12,0,0,12,744,712.6)" />
<use xlink:href="#f0_o" transform="matrix(12,0,0,12,755.3,712.6)" />
<use xlink:href="#f0_s" transform="matrix(12,0,0,12,760.3,712.6)" />
<use xlink:href="#f0_6" transform="matrix(12,0,0,12,777.9,712.6)" />
<use xlink:href="#f0_7" transform="matrix(12,0,0,12,785.1,712.6)" />
<use xlink:href="#f0_a" transform="matrix(12,0,0,12,796.7,712.6)" />
<use xlink:href="#f0_s" transform="matrix(12,0,0,12,86.8,741.1)" />
<use xlink:href="#f0_a" transform="matrix(12,0,0,12,98.4,741.1)" />
<use xlink:href="#f0_g" transform="matrix(12,0,0,12,109.7,741.1)" />
<use xlink:href="#f0_9" transform="matrix(12,0,0,12,117.2,741.1)" />
<use xlink:href="#f0_d" transform="matrix(12,0,0,12,126.8,741.1)" />
<use xlink:href="#f0_e" transform="matrix(12,0,0,12,137.9,741.1)" />
<use xlink:href="#f0_n" transform="matrix(12,0,0,12,155.5,741.1)" />
<use xlink:href="#f0_7" transform="matrix(12,0,0,12,170.5,741.1)" />
<use xlink:href="#f0_d" transform="matrix(12,0,0,12,182.1,741.1)" />
<use xlink:href="#f0_g" transform="matrix(12,0,0,12,199.1,741.1)" />
<use xlink:href="#f0_a" transform="matrix(12,0,0,12,206.2,741.1)" />
<use xlink:href="#f0_t" transform="matrix(12,0,0,12,217.5,741.1)" />
<use xlink:href="#f0_c" transform="matrix(12,0,0,12,228.3,741.1)" />
<use xlink:href="#f0_a" transform="matrix(12,0,0,12,233.3,741.1)" />
<use xlink:href="#f0_n" transform="matrix(12,0,0,12,244.6,741.1)" />
<use xlink:href="#f0_9" transform="matrix(12,0,0,12,259.6,741.1)" />
<use xlink:href="#f0_8" transform="matrix(12,0,0,12,275,741.1)" />
<use xlink:href="#f0_e" transform="matrix(12,0,0,12,286.3,741.1)" />
<use xlink:href="#f0_f" transform="matrix(12,0,0,12,297.9,741.1)" />
<use xlink:href="#f0_8" transform="matrix(12,0,0,12,315.3,741.1)" />
<use xlink:href="#f0_s" transform="matrix(12,0,0,12,326.6,741.1)" />
<use xlink:href="#f0_s" transform="matrix(12,0,0,12,338.2,741.1)" />
<use xlink:href="#f0_g" transform="matrix(12,0,0,12,349.8,741.1)" />
<use xlink:href="#f0_d" transform="matrix(12,0,0,12,356.9,741.1)" />
<use xlink:href="#f0_t" transform="matrix(12,0,0,12,368,741.1)" />
<use xlink:href="#f0_a" transform="matrix(12,0,0,12,378.8,741.1)" />
<use xlink:href="#f0_9" transform="matrix(12,0,0,12,390.1,741.1)" />
<use xlink:href="#f0_p" transform="matrix(12,0,0,12,405.6,741.1)" />
<use xlink:href="#f0_d" transform="matrix(12,0,0,12,416.4,741.1)" />
<use xlink:href="#f0_k" transform="matrix(12,0,0,12,427.5,741.1)" />
<use xlink:href="#f0_g" transform="matrix(12,0,0,12,439.3,741.1)" />
<use xlink:href="#f0_8" transform="matrix(12,0,0,12,452.6,741.1)" />
<use xlink:href="#f0_s" transform="matrix(12,0,0,12,463.9,741.1)" />
<use xlink:href="#f0_s" transform="matrix(12,0,0,12,475.5,741.1)" />
<use xlink:href="#f0_l" transform="matrix(12,0,0,12,487.1,741.1)" />
<use xlink:href="#f0_w" transform="matrix(12,0,0,12,498.8,741.1)" />
<use xlink:href="#f0_7" transform="matrix(12,0,0,12,510,741.1)" />
<use xlink:href="#f0_a" transform="matrix(12,0,0,12,521.6,741.1)" />
</g>
<g fill="#0000FF" >
<use xlink:href="#f1_1d" transform="matrix(12,0,0,12,539,741.1)" />
<use xlink:href="#f1_g" transform="matrix(12,0,0,12,554.4,741.1)" />
<use xlink:href="#f1_4" transform="matrix(12,0,0,12,566.9,741.1)" />
<use xlink:href="#f1_3" transform="matrix(12,0,0,12,575.6,741.1)" />
<use xlink:href="#f1_k" transform="matrix(12,0,0,12,588.2,741.1)" />
</g>
<g fill="#000000" >
<use xlink:href="#f0_b" transform="matrix(12,0,0,12,605.5,741.1)" />
<use xlink:href="#f0_8" transform="matrix(12,0,0,12,615.5,741.1)" />
<use xlink:href="#f0_e" transform="matrix(12,0,0,12,626.8,741.1)" />
<use xlink:href="#f0_x" transform="matrix(12,0,0,12,644.2,741.1)" />
<use xlink:href="#f0_a" transform="matrix(12,0,0,12,655.8,741.1)" />
<use xlink:href="#f0_k" transform="matrix(12,0,0,12,672.9,741.1)" />
<use xlink:href="#f0_9" transform="matrix(12,0,0,12,684.5,741.1)" />
<use xlink:href="#f0_a" transform="matrix(12,0,0,12,694.2,741.1)" />
<use xlink:href="#f0_f" transform="matrix(12,0,0,12,705.4,741.1)" />
<use xlink:href="#f0_h" transform="matrix(12,0,0,12,722.9,741.1)" />
<use xlink:href="#f0_d" transform="matrix(12,0,0,12,729.3,741.1)" />
<use xlink:href="#f0_g" transform="matrix(12,0,0,12,740.4,741.1)" />
<use xlink:href="#f0_f" transform="matrix(12,0,0,12,753.9,741.1)" />
<use xlink:href="#f0_a" transform="matrix(12,0,0,12,765.5,741.1)" />
<use xlink:href="#f0_6" transform="matrix(12,0,0,12,776.8,741.1)" />
<use xlink:href="#f0_8" transform="matrix(12,0,0,12,784,741.1)" />
<use xlink:href="#f0_c" transform="matrix(12,0,0,12,795.2,741.1)" />
<use xlink:href="#f0_o" transform="matrix(12,0,0,12,800.3,741.1)" />
<use xlink:href="#f0_9" transform="matrix(12,0,0,12,805.3,741.1)" />
<use xlink:href="#f0_8" transform="matrix(12,0,0,12,86.8,769.8)" />
<use xlink:href="#f0_x" transform="matrix(12,0,0,12,98.1,769.8)" />
<use xlink:href="#f0_d" transform="matrix(12,0,0,12,109.7,769.8)" />
<use xlink:href="#f0_k" transform="matrix(12,0,0,12,120.8,769.8)" />
<use xlink:href="#f0_6" transform="matrix(12,0,0,12,132.4,769.8)" />
<use xlink:href="#f0_p" transform="matrix(12,0,0,12,145.6,769.8)" />
<use xlink:href="#f0_d" transform="matrix(12,0,0,12,156.4,769.8)" />
<use xlink:href="#f0_k" transform="matrix(12,0,0,12,167.5,769.8)" />
<use xlink:href="#f0_g" transform="matrix(12,0,0,12,179.1,769.8)" />
<use xlink:href="#f0_8" transform="matrix(12,0,0,12,192.6,769.8)" />
<use xlink:href="#f0_s" transform="matrix(12,0,0,12,203.7,769.8)" />
<use xlink:href="#f0_s" transform="matrix(12,0,0,12,215.3,769.8)" />
<use xlink:href="#f0_6" transform="matrix(12,0,0,12,232.9,769.8)" />
<use xlink:href="#f0_7" transform="matrix(12,0,0,12,240.1,769.8)" />
<use xlink:href="#f0_8" transform="matrix(12,0,0,12,251.5,769.8)" />
<use xlink:href="#f0_6" transform="matrix(12,0,0,12,262.8,769.8)" />
<use xlink:href="#f0_p" transform="matrix(12,0,0,12,276,769.8)" />
<use xlink:href="#f0_d" transform="matrix(12,0,0,12,286.8,769.8)" />
<use xlink:href="#f0_k" transform="matrix(12,0,0,12,297.9,769.8)" />
<use xlink:href="#f0_n" transform="matrix(12,0,0,12,315.4,769.8)" />
<use xlink:href="#f0_8" transform="matrix(12,0,0,12,330.3,769.8)" />
<use xlink:href="#f0_e" transform="matrix(12,0,0,12,341.6,769.8)" />
<use xlink:href="#f0_6" transform="matrix(12,0,0,12,353.2,769.8)" />
<use xlink:href="#f0_6" transform="matrix(12,0,0,12,366.2,769.8)" />
<use xlink:href="#f0_7" transform="matrix(12,0,0,12,373.4,769.8)" />
<use xlink:href="#f0_a" transform="matrix(12,0,0,12,385,769.8)" />
<use xlink:href="#f0_g" transform="matrix(12,0,0,12,402.1,769.8)" />
<use xlink:href="#f0_a" transform="matrix(12,0,0,12,409.2,769.8)" />
<use xlink:href="#f0_t" transform="matrix(12,0,0,12,420.4,769.8)" />
<use xlink:href="#f0_c" transform="matrix(12,0,0,12,431.4,769.8)" />
<use xlink:href="#f0_a" transform="matrix(12,0,0,12,436.5,769.8)" />
<use xlink:href="#f0_n" transform="matrix(12,0,0,12,447.8,769.8)" />
<use xlink:href="#f0_a" transform="matrix(12,0,0,12,462.7,769.8)" />
<use xlink:href="#f0_g" transform="matrix(12,0,0,12,474,769.8)" />
<use xlink:href="#f0_6" transform="matrix(12,0,0,12,487.5,769.8)" />
<use xlink:href="#f0_d" transform="matrix(12,0,0,12,494.6,769.8)" />
<use xlink:href="#f0_i" transform="matrix(12,0,0,12,511.6,769.8)" />
<use xlink:href="#f0_e" transform="matrix(12,0,0,12,522.3,769.8)" />
<use xlink:href="#f0_d" transform="matrix(12,0,0,12,533.9,769.8)" />
<use xlink:href="#f0_n" transform="matrix(12,0,0,12,545,769.8)" />
<use xlink:href="#f0_8" transform="matrix(12,0,0,12,565.9,769.8)" />
<use xlink:href="#f0_x" transform="matrix(12,0,0,12,577.1,769.8)" />
<use xlink:href="#f0_d" transform="matrix(12,0,0,12,588.7,769.8)" />
<use xlink:href="#f0_k" transform="matrix(12,0,0,12,599.8,769.8)" />
<use xlink:href="#f0_6" transform="matrix(12,0,0,12,611.4,769.8)" />
<use xlink:href="#f0_l" transform="matrix(12,0,0,12,618.8,769.8)" />
<use xlink:href="#f0_1u" transform="matrix(12,0,0,12,630.4,769.8)" />
<use xlink:href="#f0_d" transform="matrix(12,0,0,12,640.3,769.8)" />
<use xlink:href="#f0_g" transform="matrix(12,0,0,12,651.5,769.8)" />
<use xlink:href="#f0_a" transform="matrix(12,0,0,12,664.9,769.8)" />
<use xlink:href="#f0_1h" transform="matrix(12,0,0,12,675.9,769.8)" />
<use xlink:href="#f0_8" transform="matrix(12,0,0,12,686.6,769.8)" />
<use xlink:href="#f0_u" transform="matrix(12,0,0,12,697.9,769.8)" />
<use xlink:href="#f0_s" transform="matrix(12,0,0,12,715.7,769.8)" />
<use xlink:href="#f0_o" transform="matrix(12,0,0,12,727.3,769.8)" />
<use xlink:href="#f0_a" transform="matrix(12,0,0,12,732.4,769.8)" />
<use xlink:href="#f0_4" transform="matrix(12,0,0,12,743.7,769.8)" />
<use xlink:href="#f0_c" transform="matrix(12,0,0,12,755.4,769.8)" />
<use xlink:href="#f0_h" transform="matrix(12,0,0,12,760.5,769.8)" />
<use xlink:href="#f0_k" transform="matrix(12,0,0,12,772.7,769.8)" />
<use xlink:href="#f0_9" transform="matrix(12,0,0,12,784.3,769.8)" />
<use xlink:href="#f0_a" transform="matrix(12,0,0,12,793.9,769.8)" />
<use xlink:href="#f0_g" transform="matrix(12,0,0,12,805.2,769.8)" />
<use xlink:href="#f0_9" transform="matrix(12,0,0,12,812.7,769.8)" />
<use xlink:href="#f0_e" transform="matrix(12,0,0,12,86.8,798.4)" />
<use xlink:href="#f0_a" transform="matrix(12,0,0,12,98.4,798.4)" />
<use xlink:href="#f0_a" transform="matrix(12,0,0,12,109.7,798.4)" />
<use xlink:href="#f0_f" transform="matrix(12,0,0,12,121,798.4)" />
<use xlink:href="#f0_6" transform="matrix(12,0,0,12,138.4,798.4)" />
<use xlink:href="#f0_d" transform="matrix(12,0,0,12,145.6,798.4)" />
<use xlink:href="#f0_9" transform="matrix(12,0,0,12,162.7,798.4)" />
<use xlink:href="#f0_c" transform="matrix(12,0,0,12,172.3,798.4)" />
<use xlink:href="#f0_q" transform="matrix(12,0,0,12,177.3,798.4)" />
<use xlink:href="#f0_e" transform="matrix(12,0,0,12,188.9,798.4)" />
<use xlink:href="#f0_k" transform="matrix(12,0,0,12,206.3,798.4)" />
<use xlink:href="#f0_s" transform="matrix(12,0,0,12,218,798.4)" />
<use xlink:href="#f0_8" transform="matrix(12,0,0,12,235.5,798.4)" />
<use xlink:href="#f0_6" transform="matrix(12,0,0,12,246.7,798.4)" />
<use xlink:href="#f0_8" transform="matrix(12,0,0,12,259.7,798.4)" />
<use xlink:href="#f0_n" transform="matrix(12,0,0,12,276.8,798.4)" />
<use xlink:href="#f0_a" transform="matrix(12,0,0,12,291.7,798.4)" />
<use xlink:href="#f0_x" transform="matrix(12,0,0,12,303,798.4)" />
<use xlink:href="#f0_9" transform="matrix(12,0,0,12,314.6,798.4)" />
<use xlink:href="#f0_c" transform="matrix(12,0,0,12,324.2,798.4)" />
<use xlink:href="#f0_6" transform="matrix(12,0,0,12,329.3,798.4)" />
<use xlink:href="#f0_a" transform="matrix(12,0,0,12,336.5,798.4)" />
<use xlink:href="#f0_d" transform="matrix(12,0,0,12,353.6,798.4)" />
<use xlink:href="#f0_g" transform="matrix(12,0,0,12,364.7,798.4)" />
<use xlink:href="#f0_a" transform="matrix(12,0,0,12,378.2,798.4)" />
<use xlink:href="#f0_t" transform="matrix(12,0,0,12,389.5,798.4)" />
<use xlink:href="#f0_a" transform="matrix(12,0,0,12,400.3,798.4)" />
<use xlink:href="#f0_e" transform="matrix(12,0,0,12,411.6,798.4)" />
<use xlink:href="#f0_n" transform="matrix(12,0,0,12,429,798.4)" />
<use xlink:href="#f0_c" transform="matrix(12,0,0,12,444,798.4)" />
<use xlink:href="#f0_6" transform="matrix(12,0,0,12,449,798.4)" />
<use xlink:href="#f0_7" transform="matrix(12,0,0,12,456.2,798.4)" />
<use xlink:href="#f0_c" transform="matrix(12,0,0,12,468,798.4)" />
<use xlink:href="#f0_e" transform="matrix(12,0,0,12,473,798.4)" />
<use xlink:href="#f0_6" transform="matrix(12,0,0,12,490.4,798.4)" />
<use xlink:href="#f0_7" transform="matrix(12,0,0,12,497.6,798.4)" />
<use xlink:href="#f0_a" transform="matrix(12,0,0,12,509.2,798.4)" />
<use xlink:href="#f0_8" transform="matrix(12,0,0,12,526.3,798.4)" />
<use xlink:href="#f0_s" transform="matrix(12,0,0,12,537.6,798.4)" />
<use xlink:href="#f0_s" transform="matrix(12,0,0,12,549.2,798.4)" />
<use xlink:href="#f0_c" transform="matrix(12,0,0,12,566.6,798.4)" />
<use xlink:href="#f0_e" transform="matrix(12,0,0,12,571.7,798.4)" />
<use xlink:href="#f0_d" transform="matrix(12,0,0,12,589.2,798.4)" />
<use xlink:href="#f0_g" transform="matrix(12,0,0,12,600.4,798.4)" />
<use xlink:href="#f0_f" transform="matrix(12,0,0,12,607.6,798.4)" />
<use xlink:href="#f0_a" transform="matrix(12,0,0,12,619.2,798.4)" />
<use xlink:href="#f0_g" transform="matrix(12,0,0,12,630.6,798.4)" />
<use xlink:href="#f0_6" transform="matrix(12,0,0,12,643.9,798.4)" />
<use xlink:href="#f0_d" transform="matrix(12,0,0,12,651.1,798.4)" />
<use xlink:href="#f0_k" transform="matrix(12,0,0,12,668.2,798.4)" />
<use xlink:href="#f0_9" transform="matrix(12,0,0,12,679.7,798.4)" />
<use xlink:href="#f0_a" transform="matrix(12,0,0,12,689.3,798.4)" />
<use xlink:href="#f0_c" transform="matrix(12,0,0,12,706.4,798.4)" />
<use xlink:href="#f0_6" transform="matrix(12,0,0,12,711.4,798.4)" />
<use xlink:href="#f0_4" transform="matrix(12,0,0,12,718.7,798.4)" />
<use xlink:href="#f0_s" transform="matrix(12,0,0,12,730.4,798.4)" />
<use xlink:href="#f0_g" transform="matrix(12,0,0,12,742.1,798.4)" />
<use xlink:href="#f0_d" transform="matrix(12,0,0,12,749.1,798.4)" />
<use xlink:href="#f0_t" transform="matrix(12,0,0,12,760.3,798.4)" />
<use xlink:href="#f0_c" transform="matrix(12,0,0,12,771.1,798.4)" />
<use xlink:href="#f0_f" transform="matrix(12,0,0,12,776.1,798.4)" />
<use xlink:href="#f0_a" transform="matrix(12,0,0,12,787.8,798.4)" />
<use xlink:href="#f0_9" transform="matrix(12,0,0,12,86.8,827.1)" />
<use xlink:href="#f0_d" transform="matrix(12,0,0,12,96.4,827.1)" />
<use xlink:href="#f0_u" transform="matrix(12,0,0,12,107.5,827.1)" />
<use xlink:href="#f0_a" transform="matrix(12,0,0,12,125.4,827.1)" />
<use xlink:href="#f0_b" transform="matrix(12,0,0,12,142.5,827.1)" />
<use xlink:href="#f0_g" transform="matrix(12,0,0,12,152.6,827.1)" />
<use xlink:href="#f0_a" transform="matrix(12,0,0,12,159.6,827.1)" />
<use xlink:href="#f0_f" transform="matrix(12,0,0,12,170.9,827.1)" />
<use xlink:href="#f0_a" transform="matrix(12,0,0,12,182.5,827.1)" />
<use xlink:href="#f0_e" transform="matrix(12,0,0,12,193.8,827.1)" />
<use xlink:href="#f0_6" transform="matrix(12,0,0,12,205.4,827.1)" />
<use xlink:href="#f0_c" transform="matrix(12,0,0,12,212.7,827.1)" />
<use xlink:href="#f0_8" transform="matrix(12,0,0,12,217.7,827.1)" />
<use xlink:href="#f0_o" transform="matrix(12,0,0,12,229,827.1)" />
<use xlink:href="#f0_9" transform="matrix(12,0,0,12,233.9,827.1)" />
<use xlink:href="#f0_7" transform="matrix(12,0,0,12,249.5,827.1)" />
<use xlink:href="#f0_a" transform="matrix(12,0,0,12,261.1,827.1)" />
<use xlink:href="#f0_g" transform="matrix(12,0,0,12,272.4,827.1)" />
<use xlink:href="#f0_a" transform="matrix(12,0,0,12,279.4,827.1)" />
<use xlink:href="#f0_6" transform="matrix(12,0,0,12,296.5,827.1)" />
<use xlink:href="#f0_d" transform="matrix(12,0,0,12,303.7,827.1)" />
<use xlink:href="#f0_u" transform="matrix(12,0,0,12,320.8,827.1)" />
<use xlink:href="#f0_8" transform="matrix(12,0,0,12,338.5,827.1)" />
<use xlink:href="#f0_i" transform="matrix(12,0,0,12,349.8,827.1)" />
<use xlink:href="#f0_a" transform="matrix(12,0,0,12,359.7,827.1)" />
<use xlink:href="#f0_6" transform="matrix(12,0,0,12,377,827.1)" />
<use xlink:href="#f0_7" transform="matrix(12,0,0,12,384.2,827.1)" />
<use xlink:href="#f0_a" transform="matrix(12,0,0,12,395.8,827.1)" />
<use xlink:href="#f0_g" transform="matrix(12,0,0,12,412.9,827.1)" />
<use xlink:href="#f0_a" transform="matrix(12,0,0,12,419.9,827.1)" />
<use xlink:href="#f0_t" transform="matrix(12,0,0,12,431.2,827.1)" />
<use xlink:href="#f0_c" transform="matrix(12,0,0,12,442,827.1)" />
<use xlink:href="#f0_a" transform="matrix(12,0,0,12,447.1,827.1)" />
<use xlink:href="#f0_n" transform="matrix(12,0,0,12,458.4,827.1)" />
<use xlink:href="#f0_a" transform="matrix(12,0,0,12,473.3,827.1)" />
<use xlink:href="#f0_g" transform="matrix(12,0,0,12,484.6,827.1)" />
<use xlink:href="#f0_r" transform="matrix(12,0,0,12,492.1,827.1)" />
<use xlink:href="#f0_9" transform="matrix(12,0,0,12,497.9,827.1)" />
<use xlink:href="#f0_y" transform="matrix(12,0,0,12,513.5,827.1)" />
<use xlink:href="#f0_d" transform="matrix(12,0,0,12,518.5,827.1)" />
<use xlink:href="#f0_x" transform="matrix(12,0,0,12,529.7,827.1)" />
<use xlink:href="#f0_a" transform="matrix(12,0,0,12,547.2,827.1)" />
<use xlink:href="#f0_8" transform="matrix(12,0,0,12,558.3,827.1)" />
<use xlink:href="#f0_9" transform="matrix(12,0,0,12,569.6,827.1)" />
<use xlink:href="#f0_c" transform="matrix(12,0,0,12,579.2,827.1)" />
<use xlink:href="#f0_a" transform="matrix(12,0,0,12,584.3,827.1)" />
<use xlink:href="#f0_g" transform="matrix(12,0,0,12,595.6,827.1)" />
<use xlink:href="#f0_l" transform="matrix(12,0,0,12,601.4,827.1)" />
<use xlink:href="#f0_1k" transform="matrix(12,0,0,12,613,827.1)" />
<use xlink:href="#f0_o" transform="matrix(12,0,0,12,625.5,827.1)" />
<use xlink:href="#f0_9" transform="matrix(12,0,0,12,630.6,827.1)" />
<use xlink:href="#f0_d" transform="matrix(12,0,0,12,640.2,827.1)" />
<use xlink:href="#f0_4" transform="matrix(12,0,0,12,651.3,827.1)" />
<use xlink:href="#f0_c" transform="matrix(12,0,0,12,663.1,827.1)" />
<use xlink:href="#f0_h" transform="matrix(12,0,0,12,668.1,827.1)" />
<use xlink:href="#f0_p" transform="matrix(12,0,0,12,680.5,827.1)" />
<use xlink:href="#f0_d" transform="matrix(12,0,0,12,691.3,827.1)" />
<use xlink:href="#f0_k" transform="matrix(12,0,0,12,702.5,827.1)" />
<use xlink:href="#f0_g" transform="matrix(12,0,0,12,714.1,827.1)" />
<use xlink:href="#f0_8" transform="matrix(12,0,0,12,727.5,827.1)" />
<use xlink:href="#f0_s" transform="matrix(12,0,0,12,738.7,827.1)" />
<use xlink:href="#f0_s" transform="matrix(12,0,0,12,750.3,827.1)" />
<use xlink:href="#f0_g" transform="matrix(12,0,0,12,86.8,855.7)" />
<use xlink:href="#f0_a" transform="matrix(12,0,0,12,93.8,855.7)" />
<use xlink:href="#f0_21" transform="matrix(12,0,0,12,105.1,855.7)" />
<use xlink:href="#f0_k" transform="matrix(12,0,0,12,116.8,855.7)" />
<use xlink:href="#f0_c" transform="matrix(12,0,0,12,128.4,855.7)" />
<use xlink:href="#f0_g" transform="matrix(12,0,0,12,133.5,855.7)" />
<use xlink:href="#f0_a" transform="matrix(12,0,0,12,140.5,855.7)" />
<use xlink:href="#f0_9" transform="matrix(12,0,0,12,151.8,855.7)" />
<use xlink:href="#f0_9" transform="matrix(12,0,0,12,167.4,855.7)" />
<use xlink:href="#f0_s" transform="matrix(12,0,0,12,176.8,855.7)" />
<use xlink:href="#f0_a" transform="matrix(12,0,0,12,188.4,855.7)" />
<use xlink:href="#f0_b" transform="matrix(12,0,0,12,199.7,855.7)" />
<use xlink:href="#f0_c" transform="matrix(12,0,0,12,209.8,855.7)" />
<use xlink:href="#f0_8" transform="matrix(12,0,0,12,214.8,855.7)" />
<use xlink:href="#f0_o" transform="matrix(12,0,0,12,226.1,855.7)" />
<use xlink:href="#f0_7" transform="matrix(12,0,0,12,237,855.7)" />
<use xlink:href="#f0_8" transform="matrix(12,0,0,12,248.6,855.7)" />
<use xlink:href="#f0_g" transform="matrix(12,0,0,12,259.9,855.7)" />
<use xlink:href="#f0_f" transform="matrix(12,0,0,12,267.1,855.7)" />
<use xlink:href="#f0_n" transform="matrix(12,0,0,12,278.7,855.7)" />
<use xlink:href="#f0_8" transform="matrix(12,0,0,12,293.7,855.7)" />
<use xlink:href="#f0_g" transform="matrix(12,0,0,12,304.9,855.7)" />
<use xlink:href="#f0_a" transform="matrix(12,0,0,12,312,855.7)" />
<use xlink:href="#f0_4" transform="matrix(12,0,0,12,323.3,855.7)" />
<use xlink:href="#f0_a" transform="matrix(12,0,0,12,335,855.7)" />
<use xlink:href="#f0_e" transform="matrix(12,0,0,12,346.3,855.7)" />
<use xlink:href="#f0_9" transform="matrix(12,0,0,12,357.8,855.7)" />
<use xlink:href="#f0_k" transform="matrix(12,0,0,12,367.4,855.7)" />
<use xlink:href="#f0_g" transform="matrix(12,0,0,12,379.1,855.7)" />
<use xlink:href="#f0_a" transform="matrix(12,0,0,12,386.1,855.7)" />
<use xlink:href="#f0_6" transform="matrix(12,0,0,12,403.2,855.7)" />
<use xlink:href="#f0_7" transform="matrix(12,0,0,12,410.4,855.7)" />
<use xlink:href="#f0_8" transform="matrix(12,0,0,12,422,855.7)" />
<use xlink:href="#f0_6" transform="matrix(12,0,0,12,433.3,855.7)" />
<use xlink:href="#f0_p" transform="matrix(12,0,0,12,446.3,855.7)" />
<use xlink:href="#f0_d" transform="matrix(12,0,0,12,457.2,855.7)" />
<use xlink:href="#f0_k" transform="matrix(12,0,0,12,468.3,855.7)" />
<use xlink:href="#f0_a" transform="matrix(12,0,0,12,485.9,855.7)" />
<use xlink:href="#f0_1h" transform="matrix(12,0,0,12,496.7,855.7)" />
<use xlink:href="#f0_s" transform="matrix(12,0,0,12,507.5,855.7)" />
<use xlink:href="#f0_o" transform="matrix(12,0,0,12,519.2,855.7)" />
<use xlink:href="#f0_8" transform="matrix(12,0,0,12,524.2,855.7)" />
<use xlink:href="#f0_c" transform="matrix(12,0,0,12,535.5,855.7)" />
<use xlink:href="#f0_e" transform="matrix(12,0,0,12,540.5,855.7)" />
<use xlink:href="#f0_6" transform="matrix(12,0,0,12,558.1,855.7)" />
<use xlink:href="#f0_7" transform="matrix(12,0,0,12,565.3,855.7)" />
<use xlink:href="#f0_8" transform="matrix(12,0,0,12,576.9,855.7)" />
<use xlink:href="#f0_6" transform="matrix(12,0,0,12,588.2,855.7)" />
<use xlink:href="#f0_7" transform="matrix(12,0,0,12,601.2,855.7)" />
<use xlink:href="#f0_a" transform="matrix(12,0,0,12,612.8,855.7)" />
<use xlink:href="#f0_g" transform="matrix(12,0,0,12,624.1,855.7)" />
<use xlink:href="#f0_a" transform="matrix(12,0,0,12,631.1,855.7)" />
<use xlink:href="#f0_6" transform="matrix(12,0,0,12,648.2,855.7)" />
<use xlink:href="#f0_d" transform="matrix(12,0,0,12,655.4,855.7)" />
<use xlink:href="#f0_d" transform="matrix(12,0,0,12,666.7,855.7)" />
<use xlink:href="#f0_4" transform="matrix(12,0,0,12,677.8,855.7)" />
<use xlink:href="#f0_8" transform="matrix(12,0,0,12,689.6,855.7)" />
<use xlink:href="#f0_e" transform="matrix(12,0,0,12,700.7,855.7)" />
<use xlink:href="#f0_f" transform="matrix(12,0,0,12,712.3,855.7)" />
<use xlink:href="#f0_6" transform="matrix(12,0,0,12,729.9,855.7)" />
<use xlink:href="#f0_g" transform="matrix(12,0,0,12,737.1,855.7)" />
<use xlink:href="#f0_p" transform="matrix(12,0,0,12,744.5,855.7)" />
<use xlink:href="#f0_6" transform="matrix(12,0,0,12,761.2,855.7)" />
<use xlink:href="#f0_d" transform="matrix(12,0,0,12,768.4,855.7)" />
<use xlink:href="#f0_7" transform="matrix(12,0,0,12,86.8,884.4)" />
<use xlink:href="#f0_8" transform="matrix(12,0,0,12,98.4,884.4)" />
<use xlink:href="#f0_t" transform="matrix(12,0,0,12,109.7,884.4)" />
<use xlink:href="#f0_a" transform="matrix(12,0,0,12,120.5,884.4)" />
<use xlink:href="#f0_8" transform="matrix(12,0,0,12,137.6,884.4)" />
<use xlink:href="#f0_n" transform="matrix(12,0,0,12,154.7,884.4)" />
<use xlink:href="#f0_8" transform="matrix(12,0,0,12,169.5,884.4)" />
<use xlink:href="#f0_p" transform="matrix(12,0,0,12,180.8,884.4)" />
<use xlink:href="#f0_h" transform="matrix(12,0,0,12,197.5,884.4)" />
<use xlink:href="#f0_d" transform="matrix(12,0,0,12,204,884.4)" />
<use xlink:href="#f0_g" transform="matrix(12,0,0,12,215.1,884.4)" />
<use xlink:href="#f0_6" transform="matrix(12,0,0,12,228.6,884.4)" />
<use xlink:href="#f0_7" transform="matrix(12,0,0,12,235.8,884.4)" />
<use xlink:href="#f0_a" transform="matrix(12,0,0,12,247.4,884.4)" />
<use xlink:href="#f0_g" transform="matrix(12,0,0,12,264.5,884.4)" />
<use xlink:href="#f0_a" transform="matrix(12,0,0,12,271.5,884.4)" />
<use xlink:href="#f0_t" transform="matrix(12,0,0,12,282.8,884.4)" />
<use xlink:href="#f0_c" transform="matrix(12,0,0,12,293.6,884.4)" />
<use xlink:href="#f0_a" transform="matrix(12,0,0,12,298.7,884.4)" />
<use xlink:href="#f0_n" transform="matrix(12,0,0,12,309.9,884.4)" />
<use xlink:href="#f0_a" transform="matrix(12,0,0,12,324.9,884.4)" />
<use xlink:href="#f0_g" transform="matrix(12,0,0,12,336.2,884.4)" />
<use xlink:href="#f0_6" transform="matrix(12,0,0,12,349.7,884.4)" />
<use xlink:href="#f0_d" transform="matrix(12,0,0,12,356.8,884.4)" />
<use xlink:href="#f0_k" transform="matrix(12,0,0,12,373.9,884.4)" />
<use xlink:href="#f0_9" transform="matrix(12,0,0,12,385.4,884.4)" />
<use xlink:href="#f0_a" transform="matrix(12,0,0,12,395,884.4)" />
<use xlink:href="#f0_6" transform="matrix(12,0,0,12,412.1,884.4)" />
<use xlink:href="#f0_7" transform="matrix(12,0,0,12,419.3,884.4)" />
<use xlink:href="#f0_a" transform="matrix(12,0,0,12,430.9,884.4)" />
<use xlink:href="#f0_8" transform="matrix(12,0,0,12,448,884.4)" />
<use xlink:href="#f0_s" transform="matrix(12,0,0,12,459.3,884.4)" />
<use xlink:href="#f0_s" transform="matrix(12,0,0,12,470.9,884.4)" />
<use xlink:href="#f0_n" transform="matrix(12,0,0,12,488.3,884.4)" />
<use xlink:href="#f0_c" transform="matrix(12,0,0,12,503.3,884.4)" />
<use xlink:href="#f0_6" transform="matrix(12,0,0,12,508.3,884.4)" />
<use xlink:href="#f0_7" transform="matrix(12,0,0,12,515.5,884.4)" />
<use xlink:href="#f0_d" transform="matrix(12,0,0,12,527.3,884.4)" />
<use xlink:href="#f0_k" transform="matrix(12,0,0,12,538.4,884.4)" />
<use xlink:href="#f0_6" transform="matrix(12,0,0,12,550,884.4)" />
<use xlink:href="#f0_6" transform="matrix(12,0,0,12,563.2,884.4)" />
<use xlink:href="#f0_7" transform="matrix(12,0,0,12,570.3,884.4)" />
<use xlink:href="#f0_a" transform="matrix(12,0,0,12,581.9,884.4)" />
<use xlink:href="#f0_7" transform="matrix(12,0,0,12,599,884.4)" />
<use xlink:href="#f0_8" transform="matrix(12,0,0,12,610.5,884.4)" />
<use xlink:href="#f0_g" transform="matrix(12,0,0,12,621.8,884.4)" />
<use xlink:href="#f0_f" transform="matrix(12,0,0,12,629,884.4)" />
<use xlink:href="#f0_n" transform="matrix(12,0,0,12,640.7,884.4)" />
<use xlink:href="#f0_8" transform="matrix(12,0,0,12,655.7,884.4)" />
<use xlink:href="#f0_g" transform="matrix(12,0,0,12,667,884.4)" />
<use xlink:href="#f0_a" transform="matrix(12,0,0,12,674,884.4)" />
<use xlink:href="#f0_l" transform="matrix(12,0,0,12,685.3,884.4)" />
<use xlink:href="#f0_1f" transform="matrix(12,0,0,12,696.9,884.4)" />
<use xlink:href="#f0_d" transform="matrix(12,0,0,12,709.8,884.4)" />
<use xlink:href="#f0_u" transform="matrix(12,0,0,12,720.9,884.4)" />
<use xlink:href="#f0_s" transform="matrix(12,0,0,12,738.8,884.4)" />
<use xlink:href="#f0_o" transform="matrix(12,0,0,12,750.4,884.4)" />
<use xlink:href="#f0_a" transform="matrix(12,0,0,12,755.4,884.4)" />
<use xlink:href="#f0_6" transform="matrix(12,0,0,12,766.7,884.4)" />
<use xlink:href="#f0_a" transform="matrix(12,0,0,12,773.9,884.4)" />
<use xlink:href="#f0_6" transform="matrix(12,0,0,12,791.1,884.4)" />
<use xlink:href="#f0_7" transform="matrix(12,0,0,12,798.3,884.4)" />
<use xlink:href="#f0_a" transform="matrix(12,0,0,12,809.9,884.4)" />
<use xlink:href="#f0_b" transform="matrix(12,0,0,12,86.8,913)" />
<use xlink:href="#f0_d" transform="matrix(12,0,0,12,96.8,913)" />
<use xlink:href="#f0_e" transform="matrix(12,0,0,12,108,913)" />
<use xlink:href="#f0_6" transform="matrix(12,0,0,12,119.6,913)" />
<use xlink:href="#f0_8" transform="matrix(12,0,0,12,126.8,913)" />
<use xlink:href="#f0_b" transform="matrix(12,0,0,12,138.1,913)" />
<use xlink:href="#f0_6" transform="matrix(12,0,0,12,148.1,913)" />
<use xlink:href="#f0_c" transform="matrix(12,0,0,12,161.3,913)" />
<use xlink:href="#f0_e" transform="matrix(12,0,0,12,166.3,913)" />
<use xlink:href="#f0_h" transform="matrix(12,0,0,12,177.9,913)" />
<use xlink:href="#f0_d" transform="matrix(12,0,0,12,184.3,913)" />
<use xlink:href="#f0_g" transform="matrix(12,0,0,12,195.5,913)" />
<use xlink:href="#f0_u" transform="matrix(12,0,0,12,202.7,913)" />
<use xlink:href="#f0_8" transform="matrix(12,0,0,12,220.5,913)" />
<use xlink:href="#f0_6" transform="matrix(12,0,0,12,231.8,913)" />
<use xlink:href="#f0_c" transform="matrix(12,0,0,12,239,913)" />
<use xlink:href="#f0_d" transform="matrix(12,0,0,12,244.2,913)" />
<use xlink:href="#f0_e" transform="matrix(12,0,0,12,255.3,913)" />
<use xlink:href="#f0_9" transform="matrix(12,0,0,12,272.7,913)" />
<use xlink:href="#f0_d" transform="matrix(12,0,0,12,282.3,913)" />
<use xlink:href="#f0_6" transform="matrix(12,0,0,12,299.4,913)" />
<use xlink:href="#f0_7" transform="matrix(12,0,0,12,306.6,913)" />
<use xlink:href="#f0_8" transform="matrix(12,0,0,12,318.1,913)" />
<use xlink:href="#f0_6" transform="matrix(12,0,0,12,329.4,913)" />
<use xlink:href="#f0_6" transform="matrix(12,0,0,12,342.4,913)" />
<use xlink:href="#f0_7" transform="matrix(12,0,0,12,349.5,913)" />
<use xlink:href="#f0_a" transform="matrix(12,0,0,12,361.2,913)" />
<use xlink:href="#f0_g" transform="matrix(12,0,0,12,378.4,913)" />
<use xlink:href="#f0_a" transform="matrix(12,0,0,12,385.4,913)" />
<use xlink:href="#f0_t" transform="matrix(12,0,0,12,396.7,913)" />
<use xlink:href="#f0_c" transform="matrix(12,0,0,12,407.5,913)" />
<use xlink:href="#f0_a" transform="matrix(12,0,0,12,412.6,913)" />
<use xlink:href="#f0_n" transform="matrix(12,0,0,12,423.9,913)" />
<use xlink:href="#f0_a" transform="matrix(12,0,0,12,438.9,913)" />
<use xlink:href="#f0_g" transform="matrix(12,0,0,12,450.1,913)" />
<use xlink:href="#f0_b" transform="matrix(12,0,0,12,463.6,913)" />
<use xlink:href="#f0_8" transform="matrix(12,0,0,12,473.5,913)" />
<use xlink:href="#f0_e" transform="matrix(12,0,0,12,484.8,913)" />
<use xlink:href="#f0_g" transform="matrix(12,0,0,12,502.4,913)" />
<use xlink:href="#f0_a" transform="matrix(12,0,0,12,509.4,913)" />
<use xlink:href="#f0_8" transform="matrix(12,0,0,12,520.7,913)" />
<use xlink:href="#f0_b" transform="matrix(12,0,0,12,532,913)" />
<use xlink:href="#f0_7" transform="matrix(12,0,0,12,542,913)" />
<use xlink:href="#f0_p" transform="matrix(12,0,0,12,559.4,913)" />
<use xlink:href="#f0_d" transform="matrix(12,0,0,12,570.3,913)" />
<use xlink:href="#f0_k" transform="matrix(12,0,0,12,581.4,913)" />
<use xlink:href="#f0_6" transform="matrix(12,0,0,12,598.8,913)" />
<use xlink:href="#f0_d" transform="matrix(12,0,0,12,606,913)" />
<use xlink:href="#f0_f" transform="matrix(12,0,0,12,623.1,913)" />
<use xlink:href="#f0_c" transform="matrix(12,0,0,12,634.7,913)" />
<use xlink:href="#f0_9" transform="matrix(12,0,0,12,639.8,913)" />
<use xlink:href="#f0_b" transform="matrix(12,0,0,12,649.4,913)" />
<use xlink:href="#f0_k" transform="matrix(12,0,0,12,659.5,913)" />
<use xlink:href="#f0_9" transform="matrix(12,0,0,12,671.1,913)" />
<use xlink:href="#f0_9" transform="matrix(12,0,0,12,680.5,913)" />
<use xlink:href="#f0_6" transform="matrix(12,0,0,12,696,913)" />
<use xlink:href="#f0_7" transform="matrix(12,0,0,12,703.1,913)" />
<use xlink:href="#f0_c" transform="matrix(12,0,0,12,714.7,913)" />
<use xlink:href="#f0_e" transform="matrix(12,0,0,12,719.8,913)" />
<use xlink:href="#f0_q" transform="matrix(12,0,0,12,731.5,913)" />
<use xlink:href="#f0_9" transform="matrix(12,0,0,12,743.1,913)" />
<use xlink:href="#f0_c" transform="matrix(12,0,0,12,758.6,913)" />
<use xlink:href="#f0_h" transform="matrix(12,0,0,12,763.6,913)" />
<use xlink:href="#f0_6" transform="matrix(12,0,0,12,776,913)" />
<use xlink:href="#f0_7" transform="matrix(12,0,0,12,783.2,913)" />
<use xlink:href="#f0_a" transform="matrix(12,0,0,12,794.8,913)" />
<use xlink:href="#f0_p" transform="matrix(12,0,0,12,806,913)" />
<use xlink:href="#f0_e" transform="matrix(12,0,0,12,86.8,941.7)" />
<use xlink:href="#f0_a" transform="matrix(12,0,0,12,98.4,941.7)" />
<use xlink:href="#f0_a" transform="matrix(12,0,0,12,109.7,941.7)" />
<use xlink:href="#f0_f" transform="matrix(12,0,0,12,121,941.7)" />
<use xlink:href="#f0_6" transform="matrix(12,0,0,12,138.4,941.7)" />
<use xlink:href="#f0_d" transform="matrix(12,0,0,12,145.6,941.7)" />
<use xlink:href="#f0_1e" transform="matrix(12,0,0,12,156.9,941.7)" />
</g>
</g>
<image preserveAspectRatio="none" x="229" y="87" width="452" height="573" xlink:href="img/1.png" />
<defs>
<path d="M458,-20c0,0,-79,0,-168,17c0,0,-89,17,-184,52V204c0,0,91,-51,179,-77c0,0,88,-26,173,-26c0,0,129,0,199,50c0,0,70,51,70,145c0,0,0,82,-50,129c0,0,-50,46,-165,69l-92,18c0,0,-169,34,-244,105c0,0,-75,72,-75,199c0,0,0,148,104,233c0,0,104,85,287,85c0,0,78,0,159,-14c0,0,81,-14,166,-42V931c0,0,-85,41,-161,61c0,0,-76,20,-147,20c0,0,-123,0,-190,-48c0,0,-67,-48,-67,-136c0,0,0,-73,45,-111c0,0,44,-38,168,-61l91,-19c0,0,168,-32,249,-113c0,0,80,-81,80,-216c0,0,0,-162,-109,-246c0,0,-108,-82,-318,-82Z" 
id="f0_18"
transform="scale(0.001,-0.001)" />

<path d="M495,-20c0,0,-189,0,-300,117C195,97,84,216,84,417c0,0,0,204,112,321c0,0,113,118,308,118c0,0,64,0,124,-14c0,0,60,-13,117,-39V675c0,0,-58,32,-117,48c0,0,-58,16,-118,16c0,0,-133,0,-207,-84c0,0,-74,-85,-74,-238c0,0,0,-153,74,-238c0,0,74,-84,207,-84c0,0,60,0,118,16c0,0,59,16,117,48V32C745,32,688,5,626,-7c0,0,-61,-13,-131,-13Z" 
id="f0_b"
transform="scale(0.001,-0.001)" />

<path d="M139,0V836H277V706c0,0,43,76,112,113c0,0,70,37,169,37c0,0,14,0,31,-2c0,0,17,-2,38,-6l1,-141c0,0,-23,14,-51,20c0,0,-27,6,-60,6c0,0,-116,0,-178,-75c0,0,-62,-76,-62,-218V0Z" 
id="f0_g"
transform="scale(0.001,-0.001)" />

<path d="M467,95c0,0,110,0,174,86c0,0,64,87,64,236c0,0,0,148,-64,235c0,0,-64,87,-174,87c0,0,-110,0,-174,-86c0,0,-64,-86,-64,-236c0,0,0,-150,64,-236c0,0,63,-86,174,-86Zm0,-115c0,0,-179,0,-281,115C186,95,84,212,84,417c0,0,0,206,102,322c0,0,102,117,281,117c0,0,179,0,282,-117c0,0,102,-116,102,-322c0,0,0,-205,-102,-322C749,95,646,-20,467,-20Z" 
id="f0_d"
transform="scale(0.001,-0.001)" />

<path d="M144,0V1161H281V0Z" 
id="f0_o"
transform="scale(0.001,-0.001)" />

<path d="M460,93c0,0,109,0,171,86c0,0,63,86,63,238c0,0,0,151,-63,237c0,0,-62,86,-171,86c0,0,-109,0,-172,-86c0,0,-62,-86,-62,-237c0,0,0,-152,62,-238c0,0,63,-86,172,-86ZM426,-20c0,0,-151,0,-247,119c0,0,-95,121,-95,318c0,0,0,197,95,318c0,0,96,121,247,121c0,0,93,0,159,-37c0,0,66,-36,109,-110v452H831V0H694V125C694,125,651,51,585,15c0,0,-66,-35,-159,-35Z" 
id="f0_f"
transform="scale(0.001,-0.001)" />

<path d="M283,0L65,836H202L373,184L544,836H706L878,184l171,652h137L967,0H806L626,685L445,0Z" 
id="f0_n"
transform="scale(0.001,-0.001)" />

<path d="M139,0V836H277V706c0,0,49,75,116,112c0,0,67,38,154,38c0,0,144,0,218,-90c0,0,74,-89,74,-262V0H702V500c0,0,0,119,-46,177c0,0,-47,59,-139,59c0,0,-112,0,-176,-71c0,0,-64,-70,-64,-193V0Z" 
id="f0_e"
transform="scale(0.001,-0.001)" />

<path d="M421,0C421,0,263,0,202,59c0,0,-60,60,-60,217V729H41V836H142v238H280V836H562V729H280V276c0,0,0,-102,28,-132c0,0,28,-29,113,-29H562V0Z" 
id="f0_6"
transform="scale(0.001,-0.001)" />

<path d="M744,410L592,853L439,410ZM8,0L420,1114H763L1175,0H887L816,203H367L297,0Z" 
id="f1_n"
transform="scale(0.001,-0.001)" />

<path d="M573,172c0,0,86,0,131,63c0,0,45,63,45,182c0,0,0,119,-45,182c0,0,-45,63,-131,63c0,0,-86,0,-132,-63c0,0,-46,-63,-46,-182c0,0,0,-119,46,-182c0,0,46,-63,132,-63ZM128,-317V836H395V713c0,0,55,73,122,108c0,0,68,35,155,35c0,0,154,0,253,-123c0,0,100,-123,100,-316c0,0,0,-193,-100,-316c0,0,-99,-121,-253,-121c0,0,-87,0,-155,33c0,0,-67,35,-122,108V-317Z" 
id="f1_q"
transform="scale(0.001,-0.001)" />

<path d="M548,620c0,0,90,0,129,33c0,0,39,34,39,111c0,0,0,76,-39,109c0,0,-39,32,-129,32H427V620ZM140,0V1114H578c0,0,220,0,323,-74c0,0,102,-74,102,-234c0,0,0,-110,-53,-181c0,0,-54,-71,-161,-104c0,0,59,-14,106,-61c0,0,46,-47,94,-144L1145,0H839L703,277c0,0,-41,83,-83,114c0,0,-42,30,-112,30H427V0Z" 
id="f1_w"
transform="scale(0.001,-0.001)" />

<path d="M687,509c0,0,0,76,-44,122c0,0,-44,47,-116,47c0,0,-78,0,-126,-44c0,0,-49,-43,-61,-125ZM544,-20c0,0,-227,0,-353,114C191,94,66,209,66,417c0,0,0,204,123,321c0,0,123,118,340,118c0,0,197,0,315,-119c0,0,118,-118,118,-317V344H337c0,0,10,-94,68,-141c0,0,59,-47,163,-47c0,0,85,0,173,25c0,0,89,25,182,76V51C923,51,828,15,733,-2c0,0,-94,-18,-189,-18Z" 
id="f1_3"
transform="scale(0.001,-0.001)" />

<path d="M352,0L23,836H291L499,258L706,836H974L645,0Z" 
id="f1_x"
transform="scale(0.001,-0.001)" />

<path d="M128,0V836H395V0Zm0,944v217H395V944Z" 
id="f1_5"
transform="scale(0.001,-0.001)" />

<path d="M274,0L54,836H313L454,260L594,836H817L958,266l141,570h259L1138,0H847L706,575L565,0Z" 
id="f1_v"
transform="scale(0.001,-0.001)" />

<path d="M140,0V1114H427V0Z" 
id="f1_s"
transform="scale(0.001,-0.001)" />

<path d="M128,0V836H395V713c0,0,60,73,128,108c0,0,68,35,150,35c0,0,145,0,220,-89c0,0,75,-89,75,-258V0H699V389c0,0,0,109,-5,150c0,0,-5,41,-16,60c0,0,-16,26,-43,41c0,0,-27,14,-61,14c0,0,-84,0,-131,-64c0,0,-48,-65,-48,-179V0Z" 
id="f1_6"
transform="scale(0.001,-0.001)" />

<path d="M162,0V645H29V836H162v58c0,0,0,136,76,201c0,0,76,66,236,66H679V986H531c0,0,-57,0,-79,-21c0,0,-23,-20,-23,-71V836H657V645H429V0Z" 
id="f1_j"
transform="scale(0.001,-0.001)" />

<path d="M526,169c0,0,87,0,133,64c0,0,46,64,46,184c0,0,0,120,-46,184c0,0,-46,64,-133,64c0,0,-89,0,-135,-64c0,0,-47,-64,-47,-184c0,0,0,-120,47,-184c0,0,46,-64,135,-64Zm0,-189c0,0,-217,0,-339,115C187,95,66,211,66,417c0,0,0,206,121,322c0,0,122,117,339,117c0,0,215,0,336,-117c0,0,122,-116,122,-322c0,0,0,-206,-122,-322C862,95,741,-20,526,-20Z" 
id="f1_g"
transform="scale(0.001,-0.001)" />

<path d="M128,0V836H395V698c0,0,52,82,118,120c0,0,67,38,161,38c0,0,13,0,29,-2c0,0,15,-1,45,-4l1,-242c0,0,-35,17,-70,25c0,0,-35,7,-70,7c0,0,-103,0,-158,-66c0,0,-56,-66,-56,-189V0Z" 
id="f1_b"
transform="scale(0.001,-0.001)" />

<path d="M127,0V836H396V713c0,0,49,71,113,107c0,0,64,36,141,36c0,0,86,0,152,-42c0,0,67,-42,101,-118c0,0,51,78,121,119c0,0,69,41,153,41c0,0,144,0,219,-89c0,0,76,-89,76,-258V0H1203V436c0,0,0,9,1,20c0,0,0,10,0,30c0,0,0,88,-26,128c0,0,-26,40,-84,40c0,0,-76,0,-117,-63c0,0,-42,-62,-43,-181V0H665V436c0,0,0,138,-24,178c0,0,-24,40,-85,40c0,0,-77,0,-118,-63c0,0,-42,-63,-42,-180V0Z" 
id="f1_z"
transform="scale(0.001,-0.001)" />

<path d="M463,156c0,0,75,0,127,54c0,0,51,54,51,135v30H502c0,0,-83,0,-125,-28c0,0,-43,-28,-43,-83c0,0,0,-50,34,-79c0,0,34,-29,95,-29ZM357,-20c0,0,-130,0,-211,74c0,0,-80,76,-80,197c0,0,0,147,101,215c0,0,101,69,317,69H641v21c0,0,0,63,-50,92c0,0,-49,30,-155,30c0,0,-86,0,-160,-17c0,0,-74,-18,-137,-52V813c0,0,86,21,172,32c0,0,86,11,173,11c0,0,226,0,326,-90c0,0,100,-89,100,-290V0H641V124C641,124,588,48,521,13c0,0,-68,-33,-164,-33Z" 
id="f1_a"
transform="scale(0.001,-0.001)" />

<path d="M443,0C443,0,285,0,219,66c0,0,-66,66,-66,224V645H20V836H153v237H419V836H695V645H419V290c0,0,0,-58,24,-79c0,0,23,-20,91,-20H672V0Z" 
id="f1_4"
transform="scale(0.001,-0.001)" />

<path d="M163,0V190H321V0Z" 
id="f0_l"
transform="scale(0.001,-0.001)" />

<path d="M391,0V987H-3v127H938V987H543V0Z" 
id="f0_w"
transform="scale(0.001,-0.001)" />

<path d="M139,0V1161H277V706c0,0,49,75,116,112c0,0,67,38,154,38c0,0,144,0,218,-90c0,0,74,-89,74,-262V0H702V500c0,0,0,119,-46,177c0,0,-47,59,-139,59c0,0,-112,0,-176,-71c0,0,-64,-70,-64,-193V0Z" 
id="f0_7"
transform="scale(0.001,-0.001)" />

<path d="M144,0V836H281V0Zm0,987v174H281V987Z" 
id="f0_c"
transform="scale(0.001,-0.001)" />

<path d="M376,-20c0,0,-67,0,-140,12C236,-8,164,4,83,30V172c0,0,76,-40,150,-59c0,0,74,-20,146,-20c0,0,97,0,150,33c0,0,52,33,52,94c0,0,0,56,-38,85c0,0,-38,30,-165,58l-48,11c0,0,-128,27,-184,83c0,0,-57,55,-57,152c0,0,0,118,83,182c0,0,84,65,238,65c0,0,76,0,143,-12c0,0,67,-11,124,-33V681c0,0,-58,29,-121,44c0,0,-63,15,-130,15c0,0,-102,0,-153,-31c0,0,-51,-31,-51,-94c0,0,0,-48,37,-75c0,0,36,-27,147,-52l46,-10c0,0,147,-32,208,-89c0,0,62,-57,62,-159c0,0,0,-116,-93,-184c0,0,-92,-66,-253,-66Z" 
id="f0_9"
transform="scale(0.001,-0.001)" />

<path d="M231,492l491,1c0,0,-2,112,-64,179c0,0,-61,67,-163,67c0,0,-115,0,-184,-65c0,0,-69,-64,-80,-182ZM517,-20c0,0,-199,0,-316,115C201,95,84,211,84,410c0,0,0,205,111,325c0,0,111,121,299,121c0,0,168,0,266,-109c0,0,98,-108,98,-295V385H227c0,0,9,-142,85,-216c0,0,77,-74,213,-74c0,0,80,0,154,19c0,0,74,19,147,58V42C826,42,752,11,675,-4c0,0,-78,-16,-158,-16Z" 
id="f0_a"
transform="scale(0.001,-0.001)" />

<path d="M460,115c0,0,111,0,173,82c0,0,61,82,61,230c0,0,0,149,-61,231c0,0,-62,82,-173,82c0,0,-111,0,-173,-82c0,0,-61,-82,-61,-231c0,0,0,-148,61,-230c0,0,62,-82,173,-82ZM446,-317c0,0,-72,0,-137,11c0,0,-64,11,-124,33v134c0,0,60,-33,119,-49c0,0,59,-15,121,-15c0,0,135,0,202,70c0,0,67,71,67,212v68C694,147,652,73,585,36C585,36,519,0,426,0C426,0,272,0,178,117c0,0,-94,117,-94,310c0,0,0,194,94,311c0,0,94,118,248,118c0,0,93,0,159,-37c0,0,67,-36,109,-110V836H831V104c0,0,0,-212,-95,-317c0,0,-94,-104,-290,-104Z" 
id="f0_q"
transform="scale(0.001,-0.001)" />

<path d="M510,93c0,0,109,0,171,86c0,0,62,86,62,238c0,0,0,151,-62,237c0,0,-62,86,-171,86c0,0,-109,0,-171,-86c0,0,-62,-86,-62,-237c0,0,0,-152,62,-238c0,0,62,-86,171,-86ZM139,-317V836H277V709c0,0,43,74,109,110c0,0,66,37,158,37c0,0,152,0,247,-121c0,0,95,-121,95,-318c0,0,0,-197,-95,-318C791,99,696,-20,544,-20c0,0,-92,0,-158,35c0,0,-66,36,-109,110V-317Z" 
id="f0_s"
transform="scale(0.001,-0.001)" />

<path d="M359,0L46,836H191L453,134L714,836H859L546,0Z" 
id="f0_t"
transform="scale(0.001,-0.001)" />

<path d="M408,93c0,0,115,0,184,81c0,0,69,81,69,215v30H524c0,0,-167,0,-231,-38c0,0,-64,-38,-64,-129c0,0,0,-73,48,-116c0,0,48,-43,131,-43ZM372,-20c0,0,-128,0,-204,70c0,0,-76,72,-76,193c0,0,0,141,94,212c0,0,95,72,282,72H661v13c0,0,0,95,-62,147c0,0,-63,52,-175,52c0,0,-72,0,-140,-17c0,0,-68,-17,-130,-51V798c0,0,75,29,146,43c0,0,71,15,138,15c0,0,181,0,270,-95c0,0,90,-94,90,-285V0H661V127C661,127,614,51,544,15c0,0,-70,-35,-172,-35Z" 
id="f0_8"
transform="scale(0.001,-0.001)" />

<path d="M121,-317v116h81c0,0,57,0,88,26c0,0,31,27,69,127l25,62L46,836H191L453,182L714,836H859L492,-76c0,0,-58,-150,-113,-195c0,0,-55,-46,-148,-46Z" 
id="f0_p"
transform="scale(0.001,-0.001)" />

<path d="M424,-20c0,0,-145,0,-219,88c0,0,-75,89,-75,262V836H267V335c0,0,0,-119,46,-178c0,0,47,-59,139,-59c0,0,112,0,177,71c0,0,64,71,64,193V836H830V0H693V128C693,128,643,52,577,15c0,0,-66,-35,-153,-35Z" 
id="f0_k"
transform="scale(0.001,-0.001)" />

<path d="M140,0V1114H460L866,350v764h272V0H818L412,764V0Z" 
id="f1_1d"
transform="scale(0.001,-0.001)" />

<path d="M445,-20c0,0,-83,0,-171,12C274,-8,185,4,92,30V234c0,0,80,-39,164,-58c0,0,84,-20,170,-20c0,0,79,0,118,22c0,0,40,22,40,64c0,0,0,36,-28,53c0,0,-27,18,-108,27l-47,6c0,0,-179,23,-250,83c0,0,-72,61,-72,184c0,0,0,132,91,196c0,0,91,65,279,65c0,0,74,0,155,-12c0,0,82,-11,177,-34V606c0,0,-86,36,-165,54c0,0,-80,18,-151,18c0,0,-76,0,-113,-19c0,0,-37,-19,-37,-59c0,0,0,-32,28,-49c0,0,28,-17,100,-25l47,-7c0,0,205,-26,276,-86c0,0,71,-59,71,-187c0,0,0,-133,-98,-200c0,0,-99,-66,-294,-66Z" 
id="f1_k"
transform="scale(0.001,-0.001)" />

<path d="M510,93c0,0,109,0,171,86c0,0,62,86,62,238c0,0,0,151,-62,237c0,0,-62,86,-171,86c0,0,-109,0,-171,-86c0,0,-62,-86,-62,-237c0,0,0,-152,62,-238c0,0,62,-86,171,-86ZM544,-20c0,0,-92,0,-158,35c0,0,-66,36,-109,110V0H139V1161H277V709c0,0,43,74,109,110c0,0,66,37,158,37c0,0,152,0,247,-121c0,0,95,-121,95,-318c0,0,0,-197,-95,-318C791,99,696,-20,544,-20Z" 
id="f0_x"
transform="scale(0.001,-0.001)" />

<path d="M166,0V729H35V836H166v58c0,0,0,139,65,203c0,0,65,64,206,64H567V1046H435c0,0,-74,0,-102,-29c0,0,-29,-30,-29,-107V836H530V729H304V0Z" 
id="f0_h"
transform="scale(0.001,-0.001)" />

<path d="M139,0V1161H277V475L686,836H861L418,445L880,0H701L277,408V0Z" 
id="f0_i"
transform="scale(0.001,-0.001)" />

<path d="M150,0V1114H790V987H300V659H742V532H300V0Z" 
id="f0_1u"
transform="scale(0.001,-0.001)" />

<path d="M44,0L369,437L71,836H233L455,538L677,836H839L537,429L855,0H693L449,328L206,0Z" 
id="f0_1h"
transform="scale(0.001,-0.001)" />

<path d="M139,0V836H277V706c0,0,47,77,112,113c0,0,66,37,156,37c0,0,91,0,155,-47c0,0,64,-46,94,-134c0,0,52,93,123,137c0,0,72,44,169,44c0,0,130,0,201,-92c0,0,71,-91,71,-260V0H1220V500c0,0,0,120,-42,178c0,0,-43,58,-130,58c0,0,-107,0,-169,-71c0,0,-62,-70,-62,-193V0H680V500c0,0,0,121,-43,179c0,0,-42,57,-131,57c0,0,-105,0,-167,-71c0,0,-62,-71,-62,-193V0Z" 
id="f0_u"
transform="scale(0.001,-0.001)" />

<path d="M117,-176L179,62V190H336V62L213,-176Z" 
id="f0_4"
transform="scale(0.001,-0.001)" />

<path d="M132,763l62,237v114H351V1000L228,763Z" 
id="f0_r"
transform="scale(0.001,-0.001)" />

<path d="M-26,-317v117H9c0,0,78,0,106,36c0,0,29,36,29,150V836H281V-14c0,0,0,-160,-61,-231c0,0,-61,-72,-195,-72ZM144,987v174H281V987Z" 
id="f0_y"
transform="scale(0.001,-0.001)" />

<path d="M727,411L522,965L318,411ZM12,0L437,1114H608L1033,0H876L774,286H272L171,0Z" 
id="f0_1k"
transform="scale(0.001,-0.001)" />

<path d="M460,93c0,0,109,0,171,86c0,0,63,86,63,238c0,0,0,151,-63,237c0,0,-62,86,-171,86c0,0,-109,0,-172,-86c0,0,-62,-86,-62,-237c0,0,0,-152,62,-238c0,0,63,-86,172,-86ZM694,-317V125C694,125,651,51,585,15c0,0,-66,-35,-159,-35c0,0,-151,0,-247,119c0,0,-95,121,-95,318c0,0,0,197,95,318c0,0,96,121,247,121c0,0,93,0,159,-37c0,0,66,-36,109,-110V836H831V-317Z" 
id="f0_21"
transform="scale(0.001,-0.001)" />

<path d="M630,-20c0,0,-253,0,-398,153C232,133,86,288,86,556c0,0,0,269,146,423c0,0,145,155,398,155c0,0,100,0,189,-26c0,0,88,-27,166,-79V869c0,0,-76,71,-163,106c0,0,-86,35,-183,35c0,0,-191,0,-292,-117C347,893,245,777,245,556c0,0,0,-220,102,-337c0,0,101,-116,292,-116c0,0,97,0,183,35c0,0,87,35,163,105V86C985,86,906,32,817,5c0,0,-88,-25,-187,-25Z" 
id="f0_1f"
transform="scale(0.001,-0.001)" />

<path d="M179,0V190H336V0Zm0,600V790H336V600Z" 
id="f0_1e"
transform="scale(0.001,-0.001)" />


</defs>
</svg>