<?xml version="1.0" encoding="UTF-8" standalone="no"?>
<!DOCTYPE svg PUBLIC "-//W3C//DTD SVG 1.1//EN"
"http://www.w3.org/Graphics/SVG/1.1/DTD/svg11.dtd">
<svg viewBox="0 0 909 1286" version="1.1" xmlns="http://www.w3.org/2000/svg" xmlns:xlink="http://www.w3.org/1999/xlink">
<defs>
<clipPath id="c0_6"><path d="M0,1286.2V.2H909.3v1286Z" /></clipPath>
</defs>
<g clip-path="url(#c0_6)">
<g fill="#000000" >
<use xlink:href="#f0_1k" transform="matrix(12,0,0,12,86.8,732.6)" />
<use xlink:href="#f0_6" transform="matrix(12,0,0,12,99,732.6)" />
<use xlink:href="#f0_6" transform="matrix(12,0,0,12,112.1,732.6)" />
<use xlink:href="#f0_7" transform="matrix(12,0,0,12,119.3,732.6)" />
<use xlink:href="#f0_a" transform="matrix(12,0,0,12,130.9,732.6)" />
<use xlink:href="#f0_x" transform="matrix(12,0,0,12,148,732.6)" />
<use xlink:href="#f0_d" transform="matrix(12,0,0,12,159.6,732.6)" />
<use xlink:href="#f0_6" transform="matrix(12,0,0,12,170.8,732.6)" />
<use xlink:href="#f0_6" transform="matrix(12,0,0,12,178,732.6)" />
<use xlink:href="#f0_d" transform="matrix(12,0,0,12,185.2,732.6)" />
<use xlink:href="#f0_u" transform="matrix(12,0,0,12,196.3,732.6)" />
<use xlink:href="#f0_4" transform="matrix(12,0,0,12,214.2,732.6)" />
<use xlink:href="#f0_p" transform="matrix(12,0,0,12,225.9,732.6)" />
<use xlink:href="#f0_d" transform="matrix(12,0,0,12,236.7,732.6)" />
<use xlink:href="#f0_k" transform="matrix(12,0,0,12,247.9,732.6)" />
<use xlink:href="#f0_n" transform="matrix(12,0,0,12,265.5,732.6)" />
<use xlink:href="#f0_c" transform="matrix(12,0,0,12,280.4,732.6)" />
<use xlink:href="#f0_o" transform="matrix(12,0,0,12,285.5,732.6)" />
<use xlink:href="#f0_o" transform="matrix(12,0,0,12,290.5,732.6)" />
<use xlink:href="#f0_9" transform="matrix(12,0,0,12,301.5,732.6)" />
<use xlink:href="#f0_a" transform="matrix(12,0,0,12,311.1,732.6)" />
<use xlink:href="#f0_a" transform="matrix(12,0,0,12,322.3,732.6)" />
<use xlink:href="#f0_8" transform="matrix(12,0,0,12,339.4,732.6)" />
<use xlink:href="#f0_o" transform="matrix(12,0,0,12,356.5,732.6)" />
<use xlink:href="#f0_c" transform="matrix(12,0,0,12,361.5,732.6)" />
<use xlink:href="#f0_9" transform="matrix(12,0,0,12,366.5,732.6)" />
<use xlink:href="#f0_6" transform="matrix(12,0,0,12,376.2,732.6)" />
<use xlink:href="#f0_d" transform="matrix(12,0,0,12,389.3,732.6)" />
<use xlink:href="#f0_h" transform="matrix(12,0,0,12,400.4,732.6)" />
<use xlink:href="#f0_6" transform="matrix(12,0,0,12,412.7,732.6)" />
<use xlink:href="#f0_7" transform="matrix(12,0,0,12,419.8,732.6)" />
<use xlink:href="#f0_a" transform="matrix(12,0,0,12,431.4,732.6)" />
<use xlink:href="#f0_s" transform="matrix(12,0,0,12,448.7,732.6)" />
<use xlink:href="#f0_g" transform="matrix(12,0,0,12,460.3,732.6)" />
<use xlink:href="#f0_d" transform="matrix(12,0,0,12,467.3,732.6)" />
<use xlink:href="#f0_t" transform="matrix(12,0,0,12,478.5,732.6)" />
<use xlink:href="#f0_c" transform="matrix(12,0,0,12,489.4,732.6)" />
<use xlink:href="#f0_9" transform="matrix(12,0,0,12,494.5,732.6)" />
<use xlink:href="#f0_c" transform="matrix(12,0,0,12,504.1,732.6)" />
<use xlink:href="#f0_d" transform="matrix(12,0,0,12,509.1,732.6)" />
<use xlink:href="#f0_e" transform="matrix(12,0,0,12,520.3,732.6)" />
<use xlink:href="#f0_c" transform="matrix(12,0,0,12,531.9,732.6)" />
<use xlink:href="#f0_e" transform="matrix(12,0,0,12,536.9,732.6)" />
<use xlink:href="#f0_q" transform="matrix(12,0,0,12,548.7,732.6)" />
<use xlink:href="#f0_s" transform="matrix(12,0,0,12,566.1,732.6)" />
<use xlink:href="#f0_g" transform="matrix(12,0,0,12,577.8,732.6)" />
<use xlink:href="#f0_d" transform="matrix(12,0,0,12,584.9,732.6)" />
<use xlink:href="#f0_h" transform="matrix(12,0,0,12,596,732.6)" />
<use xlink:href="#f0_c" transform="matrix(12,0,0,12,602.5,732.6)" />
<use xlink:href="#f0_o" transform="matrix(12,0,0,12,607.6,732.6)" />
<use xlink:href="#f0_a" transform="matrix(12,0,0,12,612.6,732.6)" />
<use xlink:href="#f0_9" transform="matrix(12,0,0,12,623.9,732.6)" />
<use xlink:href="#f0_b" transform="matrix(12,0,0,12,639.3,732.6)" />
<use xlink:href="#f0_g" transform="matrix(12,0,0,12,649.4,732.6)" />
<use xlink:href="#f0_a" transform="matrix(12,0,0,12,656.4,732.6)" />
<use xlink:href="#f0_8" transform="matrix(12,0,0,12,667.7,732.6)" />
<use xlink:href="#f0_6" transform="matrix(12,0,0,12,679,732.6)" />
<use xlink:href="#f0_a" transform="matrix(12,0,0,12,686.2,732.6)" />
<use xlink:href="#f0_f" transform="matrix(12,0,0,12,697.5,732.6)" />
<use xlink:href="#f0_9" transform="matrix(12,0,0,12,714.9,732.6)" />
<use xlink:href="#f0_d" transform="matrix(12,0,0,12,724.5,732.6)" />
<use xlink:href="#f0_h" transform="matrix(12,0,0,12,741.5,732.6)" />
<use xlink:href="#f0_8" transform="matrix(12,0,0,12,747.9,732.6)" />
<use xlink:href="#f0_g" transform="matrix(12,0,0,12,759.2,732.6)" />
<use xlink:href="#f0_c" transform="matrix(12,0,0,12,772.5,732.6)" />
<use xlink:href="#f0_e" transform="matrix(12,0,0,12,777.5,732.6)" />
<use xlink:href="#f0_6" transform="matrix(12,0,0,12,86.8,761.3)" />
<use xlink:href="#f0_7" transform="matrix(12,0,0,12,94,761.3)" />
<use xlink:href="#f0_a" transform="matrix(12,0,0,12,105.6,761.3)" />
<use xlink:href="#f0_1g" transform="matrix(12,0,0,12,122.7,761.3)" />
<use xlink:href="#f0_d" transform="matrix(12,0,0,12,133.1,761.3)" />
<use xlink:href="#f0_g" transform="matrix(12,0,0,12,144.4,761.3)" />
<use xlink:href="#f0_6" transform="matrix(12,0,0,12,151.8,761.3)" />
<use xlink:href="#f0_8" transform="matrix(12,0,0,12,159,761.3)" />
<use xlink:href="#f0_o" transform="matrix(12,0,0,12,170.3,761.3)" />
<use xlink:href="#f0_4" transform="matrix(12,0,0,12,175.4,761.3)" />
<use xlink:href="#f0_8" transform="matrix(12,0,0,12,187.1,761.3)" />
<use xlink:href="#f0_e" transform="matrix(12,0,0,12,198.3,761.3)" />
<use xlink:href="#f0_f" transform="matrix(12,0,0,12,209.9,761.3)" />
<use xlink:href="#f0_8" transform="matrix(12,0,0,12,227.3,761.3)" />
<use xlink:href="#f0_f" transform="matrix(12,0,0,12,244.4,761.3)" />
<use xlink:href="#f0_d" transform="matrix(12,0,0,12,256,761.3)" />
<use xlink:href="#f0_n" transform="matrix(12,0,0,12,267.1,761.3)" />
<use xlink:href="#f0_e" transform="matrix(12,0,0,12,282.1,761.3)" />
<use xlink:href="#f0_o" transform="matrix(12,0,0,12,293.9,761.3)" />
<use xlink:href="#f0_d" transform="matrix(12,0,0,12,298.9,761.3)" />
<use xlink:href="#f0_8" transform="matrix(12,0,0,12,310.1,761.3)" />
<use xlink:href="#f0_f" transform="matrix(12,0,0,12,321.4,761.3)" />
<use xlink:href="#f0_x" transform="matrix(12,0,0,12,338.9,761.3)" />
<use xlink:href="#f0_k" transform="matrix(12,0,0,12,350.5,761.3)" />
<use xlink:href="#f0_6" transform="matrix(12,0,0,12,362.1,761.3)" />
<use xlink:href="#f0_6" transform="matrix(12,0,0,12,369.3,761.3)" />
<use xlink:href="#f0_d" transform="matrix(12,0,0,12,376.5,761.3)" />
<use xlink:href="#f0_e" transform="matrix(12,0,0,12,387.6,761.3)" />
<use xlink:href="#f0_e" transform="matrix(12,0,0,12,405.2,761.3)" />
<use xlink:href="#f0_a" transform="matrix(12,0,0,12,416.6,761.3)" />
<use xlink:href="#f0_1h" transform="matrix(12,0,0,12,427.6,761.3)" />
<use xlink:href="#f0_6" transform="matrix(12,0,0,12,438.5,761.3)" />
<use xlink:href="#f0_6" transform="matrix(12,0,0,12,451.6,761.3)" />
<use xlink:href="#f0_d" transform="matrix(12,0,0,12,458.8,761.3)" />
<use xlink:href="#f0_a" transform="matrix(12,0,0,12,475.7,761.3)" />
<use xlink:href="#f0_8" transform="matrix(12,0,0,12,487,761.3)" />
<use xlink:href="#f0_b" transform="matrix(12,0,0,12,498.3,761.3)" />
<use xlink:href="#f0_7" transform="matrix(12,0,0,12,508.4,761.3)" />
<use xlink:href="#f0_d" transform="matrix(12,0,0,12,525.8,761.3)" />
<use xlink:href="#f0_e" transform="matrix(12,0,0,12,537,761.3)" />
<use xlink:href="#f0_a" transform="matrix(12,0,0,12,548.6,761.3)" />
<use xlink:href="#f0_6" transform="matrix(12,0,0,12,565.7,761.3)" />
<use xlink:href="#f0_7" transform="matrix(12,0,0,12,572.8,761.3)" />
<use xlink:href="#f0_8" transform="matrix(12,0,0,12,584.5,761.3)" />
<use xlink:href="#f0_6" transform="matrix(12,0,0,12,595.7,761.3)" />
<use xlink:href="#f0_7" transform="matrix(12,0,0,12,608.7,761.3)" />
<use xlink:href="#f0_8" transform="matrix(12,0,0,12,620.4,761.3)" />
<use xlink:href="#f0_9" transform="matrix(12,0,0,12,631.5,761.3)" />
<use xlink:href="#f0_e" transform="matrix(12,0,0,12,641.1,761.3)" />
<use xlink:href="#f0_r" transform="matrix(12,0,0,12,652.7,761.3)" />
<use xlink:href="#f0_6" transform="matrix(12,0,0,12,658.5,761.3)" />
<use xlink:href="#f0_p" transform="matrix(12,0,0,12,671.6,761.3)" />
<use xlink:href="#f0_a" transform="matrix(12,0,0,12,682.5,761.3)" />
<use xlink:href="#f0_6" transform="matrix(12,0,0,12,693.8,761.3)" />
<use xlink:href="#f0_x" transform="matrix(12,0,0,12,706.8,761.3)" />
<use xlink:href="#f0_a" transform="matrix(12,0,0,12,718.4,761.3)" />
<use xlink:href="#f0_a" transform="matrix(12,0,0,12,729.7,761.3)" />
<use xlink:href="#f0_e" transform="matrix(12,0,0,12,741,761.3)" />
<use xlink:href="#f0_f" transform="matrix(12,0,0,12,86.8,789.9)" />
<use xlink:href="#f0_d" transform="matrix(12,0,0,12,98.4,789.9)" />
<use xlink:href="#f0_n" transform="matrix(12,0,0,12,109.7,789.9)" />
<use xlink:href="#f0_e" transform="matrix(12,0,0,12,124.7,789.9)" />
<use xlink:href="#f0_o" transform="matrix(12,0,0,12,136.3,789.9)" />
<use xlink:href="#f0_d" transform="matrix(12,0,0,12,141.3,789.9)" />
<use xlink:href="#f0_8" transform="matrix(12,0,0,12,152.4,789.9)" />
<use xlink:href="#f0_f" transform="matrix(12,0,0,12,163.7,789.9)" />
<use xlink:href="#f0_a" transform="matrix(12,0,0,12,175.3,789.9)" />
<use xlink:href="#f0_f" transform="matrix(12,0,0,12,186.6,789.9)" />
<use xlink:href="#f0_d" transform="matrix(12,0,0,12,204.2,789.9)" />
<use xlink:href="#f0_g" transform="matrix(12,0,0,12,215.3,789.9)" />
<use xlink:href="#f0_c" transform="matrix(12,0,0,12,228.8,789.9)" />
<use xlink:href="#f0_e" transform="matrix(12,0,0,12,233.8,789.9)" />
<use xlink:href="#f0_9" transform="matrix(12,0,0,12,245.4,789.9)" />
<use xlink:href="#f0_6" transform="matrix(12,0,0,12,255,789.9)" />
<use xlink:href="#f0_8" transform="matrix(12,0,0,12,262,789.9)" />
<use xlink:href="#f0_o" transform="matrix(12,0,0,12,273.3,789.9)" />
<use xlink:href="#f0_o" transform="matrix(12,0,0,12,278.4,789.9)" />
<use xlink:href="#f0_a" transform="matrix(12,0,0,12,283.4,789.9)" />
<use xlink:href="#f0_f" transform="matrix(12,0,0,12,294.7,789.9)" />
<use xlink:href="#f0_c" transform="matrix(12,0,0,12,312.3,789.9)" />
<use xlink:href="#f0_e" transform="matrix(12,0,0,12,317.3,789.9)" />
<use xlink:href="#f0_z" transform="matrix(12,0,0,12,334.9,789.9)" />
<use xlink:href="#f0_b" transform="matrix(12,0,0,12,347.4,789.9)" />
<use xlink:href="#f0_d" transform="matrix(12,0,0,12,357.5,789.9)" />
<use xlink:href="#f0_f" transform="matrix(12,0,0,12,368.6,789.9)" />
<use xlink:href="#f0_a" transform="matrix(12,0,0,12,380.2,789.9)" />
<use xlink:href="#f0_l" transform="matrix(12,0,0,12,391.5,789.9)" />
<use xlink:href="#f0_19" transform="matrix(12,0,0,12,403.1,789.9)" />
<use xlink:href="#f0_h" transform="matrix(12,0,0,12,408.6,789.9)" />
<use xlink:href="#f0_p" transform="matrix(12,0,0,12,420.8,789.9)" />
<use xlink:href="#f0_d" transform="matrix(12,0,0,12,431.7,789.9)" />
<use xlink:href="#f0_k" transform="matrix(12,0,0,12,442.8,789.9)" />
<use xlink:href="#f0_b" transform="matrix(12,0,0,12,460.4,789.9)" />
<use xlink:href="#f0_g" transform="matrix(12,0,0,12,470.4,789.9)" />
<use xlink:href="#f0_a" transform="matrix(12,0,0,12,477.5,789.9)" />
<use xlink:href="#f0_8" transform="matrix(12,0,0,12,488.8,789.9)" />
<use xlink:href="#f0_6" transform="matrix(12,0,0,12,500,789.9)" />
<use xlink:href="#f0_a" transform="matrix(12,0,0,12,507.2,789.9)" />
<use xlink:href="#f0_f" transform="matrix(12,0,0,12,518.5,789.9)" />
<use xlink:href="#f0_6" transform="matrix(12,0,0,12,535.9,789.9)" />
<use xlink:href="#f0_7" transform="matrix(12,0,0,12,543.1,789.9)" />
<use xlink:href="#f0_a" transform="matrix(12,0,0,12,554.7,789.9)" />
<use xlink:href="#f0_6" transform="matrix(12,0,0,12,571.8,789.9)" />
<use xlink:href="#f0_n" transform="matrix(12,0,0,12,579,789.9)" />
<use xlink:href="#f0_d" transform="matrix(12,0,0,12,594.1,789.9)" />
<use xlink:href="#f0_s" transform="matrix(12,0,0,12,611.1,789.9)" />
<use xlink:href="#f0_g" transform="matrix(12,0,0,12,622.8,789.9)" />
<use xlink:href="#f0_d" transform="matrix(12,0,0,12,629.9,789.9)" />
<use xlink:href="#f0_h" transform="matrix(12,0,0,12,641,789.9)" />
<use xlink:href="#f0_c" transform="matrix(12,0,0,12,647.6,789.9)" />
<use xlink:href="#f0_o" transform="matrix(12,0,0,12,652.6,789.9)" />
<use xlink:href="#f0_a" transform="matrix(12,0,0,12,657.6,789.9)" />
<use xlink:href="#f0_9" transform="matrix(12,0,0,12,668.9,789.9)" />
<use xlink:href="#f0_f" transform="matrix(12,0,0,12,684.4,789.9)" />
<use xlink:href="#f0_a" transform="matrix(12,0,0,12,696,789.9)" />
<use xlink:href="#f0_9" transform="matrix(12,0,0,12,707.1,789.9)" />
<use xlink:href="#f0_b" transform="matrix(12,0,0,12,716.7,789.9)" />
<use xlink:href="#f0_g" transform="matrix(12,0,0,12,726.8,789.9)" />
<use xlink:href="#f0_c" transform="matrix(12,0,0,12,734.4,789.9)" />
<use xlink:href="#f0_x" transform="matrix(12,0,0,12,739.4,789.9)" />
<use xlink:href="#f0_a" transform="matrix(12,0,0,12,751,789.9)" />
<use xlink:href="#f0_f" transform="matrix(12,0,0,12,762.3,789.9)" />
<use xlink:href="#f0_c" transform="matrix(12,0,0,12,779.8,789.9)" />
<use xlink:href="#f0_e" transform="matrix(12,0,0,12,784.8,789.9)" />
<use xlink:href="#f0_s" transform="matrix(12,0,0,12,86.8,818.6)" />
<use xlink:href="#f0_8" transform="matrix(12,0,0,12,98.4,818.6)" />
<use xlink:href="#f0_g" transform="matrix(12,0,0,12,109.7,818.6)" />
<use xlink:href="#f0_6" transform="matrix(12,0,0,12,117.2,818.6)" />
<use xlink:href="#f0_v" transform="matrix(12,0,0,12,130.3,818.6)" />
<use xlink:href="#f0_4" transform="matrix(12,0,0,12,141.9,818.6)" />
<use xlink:href="#f0_6" transform="matrix(12,0,0,12,153.5,818.6)" />
<use xlink:href="#f0_7" transform="matrix(12,0,0,12,160.7,818.6)" />
<use xlink:href="#f0_d" transform="matrix(12,0,0,12,172.3,818.6)" />
<use xlink:href="#f0_9" transform="matrix(12,0,0,12,183.4,818.6)" />
<use xlink:href="#f0_a" transform="matrix(12,0,0,12,193.1,818.6)" />
<use xlink:href="#f0_n" transform="matrix(12,0,0,12,210.2,818.6)" />
<use xlink:href="#f0_c" transform="matrix(12,0,0,12,225.1,818.6)" />
<use xlink:href="#f0_o" transform="matrix(12,0,0,12,230.3,818.6)" />
<use xlink:href="#f0_o" transform="matrix(12,0,0,12,235.4,818.6)" />
<use xlink:href="#f0_x" transform="matrix(12,0,0,12,246.3,818.6)" />
<use xlink:href="#f0_a" transform="matrix(12,0,0,12,257.9,818.6)" />
<use xlink:href="#f0_o" transform="matrix(12,0,0,12,275,818.6)" />
<use xlink:href="#f0_c" transform="matrix(12,0,0,12,280.1,818.6)" />
<use xlink:href="#f0_9" transform="matrix(12,0,0,12,285.1,818.6)" />
<use xlink:href="#f0_6" transform="matrix(12,0,0,12,294.7,818.6)" />
<use xlink:href="#f0_a" transform="matrix(12,0,0,12,301.9,818.6)" />
<use xlink:href="#f0_f" transform="matrix(12,0,0,12,313.2,818.6)" />
<use xlink:href="#f0_7" transform="matrix(12,0,0,12,330.6,818.6)" />
<use xlink:href="#f0_a" transform="matrix(12,0,0,12,342.2,818.6)" />
<use xlink:href="#f0_g" transform="matrix(12,0,0,12,353.5,818.6)" />
<use xlink:href="#f0_a" transform="matrix(12,0,0,12,360.5,818.6)" />
<use xlink:href="#f0_l" transform="matrix(12,0,0,12,371.8,818.6)" />
<use xlink:href="#f0_1f" transform="matrix(12,0,0,12,383.6,818.6)" />
<use xlink:href="#f0_o" transform="matrix(12,0,0,12,396.4,818.6)" />
<use xlink:href="#f0_c" transform="matrix(12,0,0,12,401.5,818.6)" />
<use xlink:href="#f0_b" transform="matrix(12,0,0,12,406.5,818.6)" />
<use xlink:href="#f0_i" transform="matrix(12,0,0,12,416.6,818.6)" />
</g>
<g fill="#0000FF" >
<use xlink:href="#f1_t" transform="matrix(12,0,0,12,433.3,818.6)" />
<use xlink:href="#f1_g" transform="matrix(12,0,0,12,448.5,818.6)" />
<use xlink:href="#f1_v" transform="matrix(12,0,0,12,461.1,818.6)" />
<use xlink:href="#f1_6" transform="matrix(12,0,0,12,478,818.6)" />
<use xlink:href="#f1_r" transform="matrix(12,0,0,12,491,818.6)" />
<use xlink:href="#f1_g" transform="matrix(12,0,0,12,497.4,818.6)" />
<use xlink:href="#f1_a" transform="matrix(12,0,0,12,509.9,818.6)" />
<use xlink:href="#f1_c" transform="matrix(12,0,0,12,522.2,818.6)" />
<use xlink:href="#f1_n" transform="matrix(12,0,0,12,541.8,818.6)" />
<use xlink:href="#f1_r" transform="matrix(12,0,0,12,556,818.6)" />
<use xlink:href="#f1_r" transform="matrix(12,0,0,12,562.2,818.6)" />
</g>
<g fill="#000000" >
<use xlink:href="#f0_c" transform="matrix(12,0,0,12,575.1,818.6)" />
<use xlink:href="#f0_e" transform="matrix(12,0,0,12,580.1,818.6)" />
<use xlink:href="#f0_6" transform="matrix(12,0,0,12,597.5,818.6)" />
<use xlink:href="#f0_7" transform="matrix(12,0,0,12,604.7,818.6)" />
<use xlink:href="#f0_a" transform="matrix(12,0,0,12,616.3,818.6)" />
<use xlink:href="#f0_o" transform="matrix(12,0,0,12,633.5,818.6)" />
<use xlink:href="#f0_d" transform="matrix(12,0,0,12,638.6,818.6)" />
<use xlink:href="#f0_n" transform="matrix(12,0,0,12,649.7,818.6)" />
<use xlink:href="#f0_a" transform="matrix(12,0,0,12,664.7,818.6)" />
<use xlink:href="#f0_g" transform="matrix(12,0,0,12,676,818.6)" />
<use xlink:href="#f0_o" transform="matrix(12,0,0,12,689.4,818.6)" />
<use xlink:href="#f0_a" transform="matrix(12,0,0,12,694.5,818.6)" />
<use xlink:href="#f0_h" transform="matrix(12,0,0,12,705.8,818.6)" />
<use xlink:href="#f0_6" transform="matrix(12,0,0,12,711.9,818.6)" />
<use xlink:href="#f0_b" transform="matrix(12,0,0,12,724.9,818.6)" />
<use xlink:href="#f0_d" transform="matrix(12,0,0,12,734.9,818.6)" />
<use xlink:href="#f0_g" transform="matrix(12,0,0,12,746.2,818.6)" />
<use xlink:href="#f0_e" transform="matrix(12,0,0,12,753.4,818.6)" />
<use xlink:href="#f0_a" transform="matrix(12,0,0,12,765,818.6)" />
<use xlink:href="#f0_g" transform="matrix(12,0,0,12,776.3,818.6)" />
<use xlink:href="#f0_6" transform="matrix(12,0,0,12,789.6,818.6)" />
<use xlink:href="#f0_d" transform="matrix(12,0,0,12,796.8,818.6)" />
<use xlink:href="#f0_c" transform="matrix(12,0,0,12,86.8,847.2)" />
<use xlink:href="#f0_e" transform="matrix(12,0,0,12,91.8,847.2)" />
<use xlink:href="#f0_9" transform="matrix(12,0,0,12,103.4,847.2)" />
<use xlink:href="#f0_6" transform="matrix(12,0,0,12,113,847.2)" />
<use xlink:href="#f0_8" transform="matrix(12,0,0,12,120.2,847.2)" />
<use xlink:href="#f0_o" transform="matrix(12,0,0,12,131.5,847.2)" />
<use xlink:href="#f0_o" transform="matrix(12,0,0,12,136.6,847.2)" />
<use xlink:href="#f0_6" transform="matrix(12,0,0,12,147.5,847.2)" />
<use xlink:href="#f0_7" transform="matrix(12,0,0,12,154.7,847.2)" />
<use xlink:href="#f0_a" transform="matrix(12,0,0,12,166.3,847.2)" />
<use xlink:href="#f0_s" transform="matrix(12,0,0,12,183.4,847.2)" />
<use xlink:href="#f0_g" transform="matrix(12,0,0,12,195,847.2)" />
<use xlink:href="#f0_d" transform="matrix(12,0,0,12,202.2,847.2)" />
<use xlink:href="#f0_h" transform="matrix(12,0,0,12,213.4,847.2)" />
<use xlink:href="#f0_c" transform="matrix(12,0,0,12,219.8,847.2)" />
<use xlink:href="#f0_o" transform="matrix(12,0,0,12,224.8,847.2)" />
<use xlink:href="#f0_a" transform="matrix(12,0,0,12,229.9,847.2)" />
<use xlink:href="#f0_9" transform="matrix(12,0,0,12,241.2,847.2)" />
<use xlink:href="#f0_c" transform="matrix(12,0,0,12,256.6,847.2)" />
<use xlink:href="#f0_e" transform="matrix(12,0,0,12,261.6,847.2)" />
<use xlink:href="#f0_z" transform="matrix(12,0,0,12,279.2,847.2)" />
<use xlink:href="#f0_b" transform="matrix(12,0,0,12,291.7,847.2)" />
<use xlink:href="#f0_d" transform="matrix(12,0,0,12,301.8,847.2)" />
<use xlink:href="#f0_f" transform="matrix(12,0,0,12,312.9,847.2)" />
<use xlink:href="#f0_a" transform="matrix(12,0,0,12,324.5,847.2)" />
<use xlink:href="#f0_1e" transform="matrix(12,0,0,12,336,847.2)" />
</g>
</g>
<image preserveAspectRatio="none" x="87" y="87" width="736" height="543" xlink:href="img/1.png" />
<defs>
<path d="M727,411L522,965L318,411ZM12,0L437,1114H608L1033,0H876L774,286H272L171,0Z" 
id="f0_1k"
transform="scale(0.001,-0.001)" />

<path d="M421,0C421,0,263,0,202,59c0,0,-60,60,-60,217V729H41V836H142v238H280V836H562V729H280V276c0,0,0,-102,28,-132c0,0,28,-29,113,-29H562V0Z" 
id="f0_6"
transform="scale(0.001,-0.001)" />

<path d="M139,0V1161H277V706c0,0,49,75,116,112c0,0,67,38,154,38c0,0,144,0,218,-90c0,0,74,-89,74,-262V0H702V500c0,0,0,119,-46,177c0,0,-47,59,-139,59c0,0,-112,0,-176,-71c0,0,-64,-70,-64,-193V0Z" 
id="f0_7"
transform="scale(0.001,-0.001)" />

<path d="M231,492l491,1c0,0,-2,112,-64,179c0,0,-61,67,-163,67c0,0,-115,0,-184,-65c0,0,-69,-64,-80,-182ZM517,-20c0,0,-199,0,-316,115C201,95,84,211,84,410c0,0,0,205,111,325c0,0,111,121,299,121c0,0,168,0,266,-109c0,0,98,-108,98,-295V385H227c0,0,9,-142,85,-216c0,0,77,-74,213,-74c0,0,80,0,154,19c0,0,74,19,147,58V42C826,42,752,11,675,-4c0,0,-78,-16,-158,-16Z" 
id="f0_a"
transform="scale(0.001,-0.001)" />

<path d="M510,93c0,0,109,0,171,86c0,0,62,86,62,238c0,0,0,151,-62,237c0,0,-62,86,-171,86c0,0,-109,0,-171,-86c0,0,-62,-86,-62,-237c0,0,0,-152,62,-238c0,0,62,-86,171,-86ZM544,-20c0,0,-92,0,-158,35c0,0,-66,36,-109,110V0H139V1161H277V709c0,0,43,74,109,110c0,0,66,37,158,37c0,0,152,0,247,-121c0,0,95,-121,95,-318c0,0,0,-197,-95,-318C791,99,696,-20,544,-20Z" 
id="f0_x"
transform="scale(0.001,-0.001)" />

<path d="M467,95c0,0,110,0,174,86c0,0,64,87,64,236c0,0,0,148,-64,235c0,0,-64,87,-174,87c0,0,-110,0,-174,-86c0,0,-64,-86,-64,-236c0,0,0,-150,64,-236c0,0,63,-86,174,-86Zm0,-115c0,0,-179,0,-281,115C186,95,84,212,84,417c0,0,0,206,102,322c0,0,102,117,281,117c0,0,179,0,282,-117c0,0,102,-116,102,-322c0,0,0,-205,-102,-322C749,95,646,-20,467,-20Z" 
id="f0_d"
transform="scale(0.001,-0.001)" />

<path d="M139,0V836H277V706c0,0,47,77,112,113c0,0,66,37,156,37c0,0,91,0,155,-47c0,0,64,-46,94,-134c0,0,52,93,123,137c0,0,72,44,169,44c0,0,130,0,201,-92c0,0,71,-91,71,-260V0H1220V500c0,0,0,120,-42,178c0,0,-43,58,-130,58c0,0,-107,0,-169,-71c0,0,-62,-70,-62,-193V0H680V500c0,0,0,121,-43,179c0,0,-42,57,-131,57c0,0,-105,0,-167,-71c0,0,-62,-71,-62,-193V0Z" 
id="f0_u"
transform="scale(0.001,-0.001)" />

<path d="M117,-176L179,62V190H336V62L213,-176Z" 
id="f0_4"
transform="scale(0.001,-0.001)" />

<path d="M121,-317v116h81c0,0,57,0,88,26c0,0,31,27,69,127l25,62L46,836H191L453,182L714,836H859L492,-76c0,0,-58,-150,-113,-195c0,0,-55,-46,-148,-46Z" 
id="f0_p"
transform="scale(0.001,-0.001)" />

<path d="M424,-20c0,0,-145,0,-219,88c0,0,-75,89,-75,262V836H267V335c0,0,0,-119,46,-178c0,0,47,-59,139,-59c0,0,112,0,177,71c0,0,64,71,64,193V836H830V0H693V128C693,128,643,52,577,15c0,0,-66,-35,-153,-35Z" 
id="f0_k"
transform="scale(0.001,-0.001)" />

<path d="M283,0L65,836H202L373,184L544,836H706L878,184l171,652h137L967,0H806L626,685L445,0Z" 
id="f0_n"
transform="scale(0.001,-0.001)" />

<path d="M144,0V836H281V0Zm0,987v174H281V987Z" 
id="f0_c"
transform="scale(0.001,-0.001)" />

<path d="M144,0V1161H281V0Z" 
id="f0_o"
transform="scale(0.001,-0.001)" />

<path d="M376,-20c0,0,-67,0,-140,12C236,-8,164,4,83,30V172c0,0,76,-40,150,-59c0,0,74,-20,146,-20c0,0,97,0,150,33c0,0,52,33,52,94c0,0,0,56,-38,85c0,0,-38,30,-165,58l-48,11c0,0,-128,27,-184,83c0,0,-57,55,-57,152c0,0,0,118,83,182c0,0,84,65,238,65c0,0,76,0,143,-12c0,0,67,-11,124,-33V681c0,0,-58,29,-121,44c0,0,-63,15,-130,15c0,0,-102,0,-153,-31c0,0,-51,-31,-51,-94c0,0,0,-48,37,-75c0,0,36,-27,147,-52l46,-10c0,0,147,-32,208,-89c0,0,62,-57,62,-159c0,0,0,-116,-93,-184c0,0,-92,-66,-253,-66Z" 
id="f0_9"
transform="scale(0.001,-0.001)" />

<path d="M408,93c0,0,115,0,184,81c0,0,69,81,69,215v30H524c0,0,-167,0,-231,-38c0,0,-64,-38,-64,-129c0,0,0,-73,48,-116c0,0,48,-43,131,-43ZM372,-20c0,0,-128,0,-204,70c0,0,-76,72,-76,193c0,0,0,141,94,212c0,0,95,72,282,72H661v13c0,0,0,95,-62,147c0,0,-63,52,-175,52c0,0,-72,0,-140,-17c0,0,-68,-17,-130,-51V798c0,0,75,29,146,43c0,0,71,15,138,15c0,0,181,0,270,-95c0,0,90,-94,90,-285V0H661V127C661,127,614,51,544,15c0,0,-70,-35,-172,-35Z" 
id="f0_8"
transform="scale(0.001,-0.001)" />

<path d="M166,0V729H35V836H166v58c0,0,0,139,65,203c0,0,65,64,206,64H567V1046H435c0,0,-74,0,-102,-29c0,0,-29,-30,-29,-107V836H530V729H304V0Z" 
id="f0_h"
transform="scale(0.001,-0.001)" />

<path d="M510,93c0,0,109,0,171,86c0,0,62,86,62,238c0,0,0,151,-62,237c0,0,-62,86,-171,86c0,0,-109,0,-171,-86c0,0,-62,-86,-62,-237c0,0,0,-152,62,-238c0,0,62,-86,171,-86ZM139,-317V836H277V709c0,0,43,74,109,110c0,0,66,37,158,37c0,0,152,0,247,-121c0,0,95,-121,95,-318c0,0,0,-197,-95,-318C791,99,696,-20,544,-20c0,0,-92,0,-158,35c0,0,-66,36,-109,110V-317Z" 
id="f0_s"
transform="scale(0.001,-0.001)" />

<path d="M139,0V836H277V706c0,0,43,76,112,113c0,0,70,37,169,37c0,0,14,0,31,-2c0,0,17,-2,38,-6l1,-141c0,0,-23,14,-51,20c0,0,-27,6,-60,6c0,0,-116,0,-178,-75c0,0,-62,-76,-62,-218V0Z" 
id="f0_g"
transform="scale(0.001,-0.001)" />

<path d="M359,0L46,836H191L453,134L714,836H859L546,0Z" 
id="f0_t"
transform="scale(0.001,-0.001)" />

<path d="M139,0V836H277V706c0,0,49,75,116,112c0,0,67,38,154,38c0,0,144,0,218,-90c0,0,74,-89,74,-262V0H702V500c0,0,0,119,-46,177c0,0,-47,59,-139,59c0,0,-112,0,-176,-71c0,0,-64,-70,-64,-193V0Z" 
id="f0_e"
transform="scale(0.001,-0.001)" />

<path d="M460,115c0,0,111,0,173,82c0,0,61,82,61,230c0,0,0,149,-61,231c0,0,-62,82,-173,82c0,0,-111,0,-173,-82c0,0,-61,-82,-61,-231c0,0,0,-148,61,-230c0,0,62,-82,173,-82ZM446,-317c0,0,-72,0,-137,11c0,0,-64,11,-124,33v134c0,0,60,-33,119,-49c0,0,59,-15,121,-15c0,0,135,0,202,70c0,0,67,71,67,212v68C694,147,652,73,585,36C585,36,519,0,426,0C426,0,272,0,178,117c0,0,-94,117,-94,310c0,0,0,194,94,311c0,0,94,118,248,118c0,0,93,0,159,-37c0,0,67,-36,109,-110V836H831V104c0,0,0,-212,-95,-317c0,0,-94,-104,-290,-104Z" 
id="f0_q"
transform="scale(0.001,-0.001)" />

<path d="M495,-20c0,0,-189,0,-300,117C195,97,84,216,84,417c0,0,0,204,112,321c0,0,113,118,308,118c0,0,64,0,124,-14c0,0,60,-13,117,-39V675c0,0,-58,32,-117,48c0,0,-58,16,-118,16c0,0,-133,0,-207,-84c0,0,-74,-85,-74,-238c0,0,0,-153,74,-238c0,0,74,-84,207,-84c0,0,60,0,118,16c0,0,59,16,117,48V32C745,32,688,5,626,-7c0,0,-61,-13,-131,-13Z" 
id="f0_b"
transform="scale(0.001,-0.001)" />

<path d="M460,93c0,0,109,0,171,86c0,0,63,86,63,238c0,0,0,151,-63,237c0,0,-62,86,-171,86c0,0,-109,0,-172,-86c0,0,-62,-86,-62,-237c0,0,0,-152,62,-238c0,0,63,-86,172,-86ZM426,-20c0,0,-151,0,-247,119c0,0,-95,121,-95,318c0,0,0,197,95,318c0,0,96,121,247,121c0,0,93,0,159,-37c0,0,66,-36,109,-110v452H831V0H694V125C694,125,651,51,585,15c0,0,-66,-35,-159,-35Z" 
id="f0_f"
transform="scale(0.001,-0.001)" />

<path d="M489,572c0,0,105,0,163,54c0,0,57,55,57,155c0,0,0,100,-57,154c0,0,-58,55,-163,55H300V572ZM150,0V1114H489c0,0,188,0,283,-85c0,0,96,-85,96,-248c0,0,0,-165,-96,-249c0,0,-95,-84,-283,-84H300V0Z" 
id="f0_1g"
transform="scale(0.001,-0.001)" />

<path d="M44,0L369,437L71,836H233L455,538L677,836H839L537,429L855,0H693L449,328L206,0Z" 
id="f0_1h"
transform="scale(0.001,-0.001)" />

<path d="M132,763l62,237v114H351V1000L228,763Z" 
id="f0_r"
transform="scale(0.001,-0.001)" />

<path d="M46,0L444,595L97,1114H259L536,700l278,414H976L618,579L999,0H837L524,474L209,0Z" 
id="f0_z"
transform="scale(0.001,-0.001)" />

<path d="M163,0V190H321V0Z" 
id="f0_l"
transform="scale(0.001,-0.001)" />

<path d="M150,0V1114H300V0Z" 
id="f0_19"
transform="scale(0.001,-0.001)" />

<path d="M190,0V127H436V977L168,923v137l267,54H586V127H832V0Z" 
id="f0_v"
transform="scale(0.001,-0.001)" />

<path d="M630,-20c0,0,-253,0,-398,153C232,133,86,288,86,556c0,0,0,269,146,423c0,0,145,155,398,155c0,0,100,0,189,-26c0,0,88,-27,166,-79V869c0,0,-76,71,-163,106c0,0,-86,35,-183,35c0,0,-191,0,-292,-117C347,893,245,777,245,556c0,0,0,-220,102,-337c0,0,101,-116,292,-116c0,0,97,0,183,35c0,0,87,35,163,105V86C985,86,906,32,817,5c0,0,-88,-25,-187,-25Z" 
id="f0_1f"
transform="scale(0.001,-0.001)" />

<path d="M139,0V1161H277V475L686,836H861L418,445L880,0H701L277,408V0Z" 
id="f0_i"
transform="scale(0.001,-0.001)" />

<path d="M530,217c0,0,176,0,269,87c0,0,93,88,93,254c0,0,0,166,-93,252c0,0,-92,87,-269,87H427V217ZM140,0V1114H443c0,0,253,0,378,-36c0,0,124,-37,213,-123c0,0,78,-76,116,-174c0,0,38,-98,38,-223c0,0,0,-126,-38,-225c0,0,-38,-99,-116,-174c0,0,-90,-87,-215,-123C819,36,694,0,443,0Z" 
id="f1_t"
transform="scale(0.001,-0.001)" />

<path d="M526,169c0,0,87,0,133,64c0,0,46,64,46,184c0,0,0,120,-46,184c0,0,-46,64,-133,64c0,0,-89,0,-135,-64c0,0,-47,-64,-47,-184c0,0,0,-120,47,-184c0,0,46,-64,135,-64Zm0,-189c0,0,-217,0,-339,115C187,95,66,211,66,417c0,0,0,206,121,322c0,0,122,117,339,117c0,0,215,0,336,-117c0,0,122,-116,122,-322c0,0,0,-206,-122,-322C862,95,741,-20,526,-20Z" 
id="f1_g"
transform="scale(0.001,-0.001)" />

<path d="M274,0L54,836H313L454,260L594,836H817L958,266l141,570h259L1138,0H847L706,575L565,0Z" 
id="f1_v"
transform="scale(0.001,-0.001)" />

<path d="M128,0V836H395V713c0,0,60,73,128,108c0,0,68,35,150,35c0,0,145,0,220,-89c0,0,75,-89,75,-258V0H699V389c0,0,0,109,-5,150c0,0,-5,41,-16,60c0,0,-16,26,-43,41c0,0,-27,14,-61,14c0,0,-84,0,-131,-64c0,0,-48,-65,-48,-179V0Z" 
id="f1_6"
transform="scale(0.001,-0.001)" />

<path d="M128,0V1161H395V0Z" 
id="f1_r"
transform="scale(0.001,-0.001)" />

<path d="M463,156c0,0,75,0,127,54c0,0,51,54,51,135v30H502c0,0,-83,0,-125,-28c0,0,-43,-28,-43,-83c0,0,0,-50,34,-79c0,0,34,-29,95,-29ZM357,-20c0,0,-130,0,-211,74c0,0,-80,76,-80,197c0,0,0,147,101,215c0,0,101,69,317,69H641v21c0,0,0,63,-50,92c0,0,-49,30,-155,30c0,0,-86,0,-160,-17c0,0,-74,-18,-137,-52V813c0,0,86,21,172,32c0,0,86,11,173,11c0,0,226,0,326,-90c0,0,100,-89,100,-290V0H641V124C641,124,588,48,521,13c0,0,-68,-33,-164,-33Z" 
id="f1_a"
transform="scale(0.001,-0.001)" />

<path d="M520,172c0,0,86,0,131,63c0,0,45,63,45,182c0,0,0,119,-45,182c0,0,-45,63,-131,63c0,0,-85,0,-130,-63c0,0,-45,-63,-45,-182c0,0,0,-119,45,-182c0,0,45,-63,130,-63ZM421,-20c0,0,-154,0,-253,121C168,101,68,224,68,417c0,0,0,193,100,316c0,0,99,123,253,123c0,0,87,0,153,-35c0,0,67,-35,122,-108v448H965V0H696V121C696,121,641,47,575,13c0,0,-67,-33,-154,-33Z" 
id="f1_c"
transform="scale(0.001,-0.001)" />

<path d="M744,410L592,853L439,410ZM8,0L420,1114H763L1175,0H887L816,203H367L297,0Z" 
id="f1_n"
transform="scale(0.001,-0.001)" />

<path d="M179,0V190H336V0Zm0,600V790H336V600Z" 
id="f0_1e"
transform="scale(0.001,-0.001)" />


</defs>
</svg>