<?xml version="1.0" encoding="UTF-8" standalone="no"?>
<!DOCTYPE svg PUBLIC "-//W3C//DTD SVG 1.1//EN"
"http://www.w3.org/Graphics/SVG/1.1/DTD/svg11.dtd">
<svg viewBox="0 0 909 1286" version="1.1" xmlns="http://www.w3.org/2000/svg" xmlns:xlink="http://www.w3.org/1999/xlink">
<defs>
<clipPath id="c0_33"><path d="M0,1286.2V.2H909.3v1286Z" /></clipPath>
</defs>
<g clip-path="url(#c0_33)">
<g fill="#000000" >
<use xlink:href="#f0_m" transform="matrix(12,0,0,12,86.8,340.4)" />
<use xlink:href="#f0_c" transform="matrix(12,0,0,12,100.5,340.4)" />
<use xlink:href="#f0_y" transform="matrix(12,0,0,12,111.7,340.4)" />
<use xlink:href="#f0_19" transform="matrix(12,0,0,12,132.6,340.4)" />
<use xlink:href="#f0_r" transform="matrix(12,0,0,12,137.6,340.4)" />
<use xlink:href="#f0_9" transform="matrix(12,0,0,12,149.2,340.4)" />
<use xlink:href="#f0_a" transform="matrix(12,0,0,12,158.8,340.4)" />
<use xlink:href="#f0_8" transform="matrix(12,0,0,12,171.8,340.4)" />
<use xlink:href="#f0_7" transform="matrix(12,0,0,12,179.3,340.4)" />
<use xlink:href="#f0_f" transform="matrix(12,0,0,12,184.3,340.4)" />
<use xlink:href="#f0_3" transform="matrix(12,0,0,12,196,340.4)" />
<use xlink:href="#f0_a" transform="matrix(12,0,0,12,207.6,340.4)" />
<use xlink:href="#f0_o" transform="matrix(12,0,0,12,220.7,340.4)" />
<use xlink:href="#f0_i" transform="matrix(12,0,0,12,230.7,340.4)" />
<use xlink:href="#f0_7" transform="matrix(12,0,0,12,235.8,340.4)" />
<use xlink:href="#f0_o" transform="matrix(12,0,0,12,240.8,340.4)" />
<use xlink:href="#f0_10" transform="matrix(12,0,0,12,250.9,340.4)" />
<use xlink:href="#f0_c" transform="matrix(12,0,0,12,267.4,340.4)" />
<use xlink:href="#f0_h" transform="matrix(12,0,0,12,278.5,340.4)" />
<use xlink:href="#f0_a" transform="matrix(12,0,0,12,296.1,340.4)" />
<use xlink:href="#f0_3" transform="matrix(12,0,0,12,303.3,340.4)" />
<use xlink:href="#f0_4" transform="matrix(12,0,0,12,314.9,340.4)" />
<use xlink:href="#f0_h" transform="matrix(12,0,0,12,332,340.4)" />
<use xlink:href="#f0_r" transform="matrix(12,0,0,12,343.6,340.4)" />
<use xlink:href="#f0_p" transform="matrix(12,0,0,12,355.2,340.4)" />
<use xlink:href="#f0_n" transform="matrix(12,0,0,12,373.1,340.4)" />
<use xlink:href="#f0_4" transform="matrix(12,0,0,12,384.7,340.4)" />
<use xlink:href="#f0_8" transform="matrix(12,0,0,12,396,340.4)" />
<use xlink:href="#f0_g" transform="matrix(12,0,0,12,409.4,340.4)" />
<use xlink:href="#f0_h" transform="matrix(12,0,0,12,420.5,340.4)" />
<use xlink:href="#f0_j" transform="matrix(12,0,0,12,432.1,340.4)" />
<use xlink:href="#f0_9" transform="matrix(12,0,0,12,449.7,340.4)" />
<use xlink:href="#f0_4" transform="matrix(12,0,0,12,459.2,340.4)" />
<use xlink:href="#f0_i" transform="matrix(12,0,0,12,470.5,340.4)" />
<use xlink:href="#f0_4" transform="matrix(12,0,0,12,475.5,340.4)" />
<use xlink:href="#f0_o" transform="matrix(12,0,0,12,486.8,340.4)" />
<use xlink:href="#f0_a" transform="matrix(12,0,0,12,496.9,340.4)" />
</g>
<g fill="#0000FF" >
<use xlink:href="#f1_h" transform="matrix(12,0,0,12,510.3,340.4)" />
<use xlink:href="#f1_f" transform="matrix(12,0,0,12,523.7,340.4)" />
<use xlink:href="#f1_i" transform="matrix(12,0,0,12,536.2,340.4)" />
<use xlink:href="#f1_p" transform="matrix(12,0,0,12,549.4,340.4)" />
</g>
<g fill="#000000" >
<use xlink:href="#f0_a" transform="matrix(12,0,0,12,567.7,340.4)" />
<use xlink:href="#f0_c" transform="matrix(12,0,0,12,574.9,340.4)" />
<use xlink:href="#f0_o" transform="matrix(12,0,0,12,592,340.4)" />
<use xlink:href="#f0_c" transform="matrix(12,0,0,12,602.1,340.4)" />
<use xlink:href="#f0_b" transform="matrix(12,0,0,12,613.2,340.4)" />
<use xlink:href="#f0_t" transform="matrix(12,0,0,12,624.8,340.4)" />
<use xlink:href="#f0_a" transform="matrix(12,0,0,12,641.6,340.4)" />
<use xlink:href="#f0_3" transform="matrix(12,0,0,12,648.8,340.4)" />
<use xlink:href="#f0_4" transform="matrix(12,0,0,12,660.4,340.4)" />
<use xlink:href="#f0_u" transform="matrix(12,0,0,12,677.5,340.4)" />
<use xlink:href="#f0_15" transform="matrix(12,0,0,12,690.9,340.4)" />
<use xlink:href="#f0_z" transform="matrix(12,0,0,12,705,340.4)" />
<use xlink:href="#f0_15" transform="matrix(12,0,0,12,710.4,340.4)" />
<use xlink:href="#f0_a" transform="matrix(12,0,0,12,730.4,340.4)" />
<use xlink:href="#f0_c" transform="matrix(12,0,0,12,737.5,340.4)" />
<use xlink:href="#f0_t" transform="matrix(12,0,0,12,754.6,340.4)" />
<use xlink:href="#f0_c" transform="matrix(12,0,0,12,765.5,340.4)" />
<use xlink:href="#f0_r" transform="matrix(12,0,0,12,776.6,340.4)" />
<use xlink:href="#f0_8" transform="matrix(12,0,0,12,788.2,340.4)" />
<use xlink:href="#f0_o" transform="matrix(12,0,0,12,86.8,369.1)" />
<use xlink:href="#f0_i" transform="matrix(12,0,0,12,96.8,369.1)" />
<use xlink:href="#f0_7" transform="matrix(12,0,0,12,101.9,369.1)" />
<use xlink:href="#f0_b" transform="matrix(12,0,0,12,107.1,369.1)" />
<use xlink:href="#f0_n" transform="matrix(12,0,0,12,118.7,369.1)" />
<use xlink:href="#f0_c" transform="matrix(12,0,0,12,130.3,369.1)" />
<use xlink:href="#f0_g" transform="matrix(12,0,0,12,141.4,369.1)" />
<use xlink:href="#f0_8" transform="matrix(12,0,0,12,152.7,369.1)" />
<use xlink:href="#f0_j" transform="matrix(12,0,0,12,159.9,369.1)" />
<use xlink:href="#f0_l" transform="matrix(12,0,0,12,171.5,369.1)" />
<use xlink:href="#f0_1r" transform="matrix(12,0,0,12,86.8,397.7)" />
<use xlink:href="#f0_c" transform="matrix(12,0,0,12,101,397.7)" />
<use xlink:href="#f0_n" transform="matrix(12,0,0,12,118.1,397.7)" />
<use xlink:href="#f0_g" transform="matrix(12,0,0,12,129.7,397.7)" />
<use xlink:href="#f0_o" transform="matrix(12,0,0,12,141,397.7)" />
<use xlink:href="#f0_10" transform="matrix(12,0,0,12,150.9,397.7)" />
<use xlink:href="#f0_a" transform="matrix(12,0,0,12,167.4,397.7)" />
<use xlink:href="#f0_c" transform="matrix(12,0,0,12,174.6,397.7)" />
<use xlink:href="#f0_t" transform="matrix(12,0,0,12,191.7,397.7)" />
<use xlink:href="#f0_c" transform="matrix(12,0,0,12,202.5,397.7)" />
<use xlink:href="#f0_r" transform="matrix(12,0,0,12,213.7,397.7)" />
<use xlink:href="#f0_8" transform="matrix(12,0,0,12,225.3,397.7)" />
<use xlink:href="#f0_n" transform="matrix(12,0,0,12,238.7,397.7)" />
<use xlink:href="#f0_8" transform="matrix(12,0,0,12,250.3,397.7)" />
<use xlink:href="#f0_c" transform="matrix(12,0,0,12,257.5,397.7)" />
<use xlink:href="#f0_y" transform="matrix(12,0,0,12,268.6,397.7)" />
<use xlink:href="#f0_9" transform="matrix(12,0,0,12,283.6,397.7)" />
<use xlink:href="#f0_4" transform="matrix(12,0,0,12,293.2,397.7)" />
<use xlink:href="#f0_8" transform="matrix(12,0,0,12,304.5,397.7)" />
<use xlink:href="#f0_q" transform="matrix(12,0,0,12,312,397.7)" />
<use xlink:href="#f0_4" transform="matrix(12,0,0,12,323.6,397.7)" />
<use xlink:href="#f0_h" transform="matrix(12,0,0,12,334.9,397.7)" />
<use xlink:href="#f0_a" transform="matrix(12,0,0,12,346.5,397.7)" />
<use xlink:href="#f0_4" transform="matrix(12,0,0,12,353.7,397.7)" />
<use xlink:href="#f0_8" transform="matrix(12,0,0,12,365,397.7)" />
<use xlink:href="#f0_g" transform="matrix(12,0,0,12,378.4,397.7)" />
<use xlink:href="#f0_j" transform="matrix(12,0,0,12,395.4,397.7)" />
<use xlink:href="#f0_4" transform="matrix(12,0,0,12,407,397.7)" />
<use xlink:href="#f0_k" transform="matrix(12,0,0,12,418.3,397.7)" />
<use xlink:href="#f0_7" transform="matrix(12,0,0,12,429.1,397.7)" />
<use xlink:href="#f0_o" transform="matrix(12,0,0,12,434.2,397.7)" />
<use xlink:href="#f0_4" transform="matrix(12,0,0,12,444.2,397.7)" />
<use xlink:href="#f0_h" transform="matrix(12,0,0,12,461.5,397.7)" />
<use xlink:href="#f0_g" transform="matrix(12,0,0,12,472.9,397.7)" />
<use xlink:href="#f0_p" transform="matrix(12,0,0,12,484.2,397.7)" />
<use xlink:href="#f0_4" transform="matrix(12,0,0,12,502.1,397.7)" />
<use xlink:href="#f0_1d" transform="matrix(12,0,0,12,519.2,397.7)" />
<use xlink:href="#f0_y" transform="matrix(12,0,0,12,526.3,397.7)" />
<use xlink:href="#f0_3" transform="matrix(12,0,0,12,541.3,397.7)" />
<use xlink:href="#f0_7" transform="matrix(12,0,0,12,552.9,397.7)" />
<use xlink:href="#f0_o" transform="matrix(12,0,0,12,558,397.7)" />
<use xlink:href="#f0_3" transform="matrix(12,0,0,12,568,397.7)" />
<use xlink:href="#f0_o" transform="matrix(12,0,0,12,585.6,397.7)" />
<use xlink:href="#f0_g" transform="matrix(12,0,0,12,595.5,397.7)" />
<use xlink:href="#f0_h" transform="matrix(12,0,0,12,606.8,397.7)" />
<use xlink:href="#f0_n" transform="matrix(12,0,0,12,624.4,397.7)" />
<use xlink:href="#f0_4" transform="matrix(12,0,0,12,636,397.7)" />
<use xlink:href="#f0_g" transform="matrix(12,0,0,12,653.1,397.7)" />
<use xlink:href="#f0_h" transform="matrix(12,0,0,12,664.2,397.7)" />
<use xlink:href="#f0_t" transform="matrix(12,0,0,12,675.8,397.7)" />
<use xlink:href="#f0_a" transform="matrix(12,0,0,12,686.7,397.7)" />
<use xlink:href="#f0_3" transform="matrix(12,0,0,12,693.8,397.7)" />
<use xlink:href="#f0_7" transform="matrix(12,0,0,12,705.5,397.7)" />
<use xlink:href="#f0_h" transform="matrix(12,0,0,12,710.5,397.7)" />
<use xlink:href="#f0_f" transform="matrix(12,0,0,12,722.2,397.7)" />
<use xlink:href="#f0_t" transform="matrix(12,0,0,12,739.7,397.7)" />
<use xlink:href="#f0_c" transform="matrix(12,0,0,12,750.5,397.7)" />
<use xlink:href="#f0_r" transform="matrix(12,0,0,12,761.6,397.7)" />
<use xlink:href="#f0_y" transform="matrix(12,0,0,12,86.8,426.4)" />
<use xlink:href="#f0_g" transform="matrix(12,0,0,12,101.8,426.4)" />
<use xlink:href="#f0_h" transform="matrix(12,0,0,12,113,426.4)" />
<use xlink:href="#f0_a" transform="matrix(12,0,0,12,124.7,426.4)" />
<use xlink:href="#f0_1e" transform="matrix(12,0,0,12,131.8,426.4)" />
<use xlink:href="#f0_g" transform="matrix(12,0,0,12,144.8,426.4)" />
<use xlink:href="#f0_h" transform="matrix(12,0,0,12,156.1,426.4)" />
<use xlink:href="#f0_j" transform="matrix(12,0,0,12,167.7,426.4)" />
</g>
<g fill="#0000FF" >
<use xlink:href="#f1_i" transform="matrix(12,0,0,12,185.2,426.4)" />
<use xlink:href="#f1_a" transform="matrix(12,0,0,12,198.3,426.4)" />
<use xlink:href="#f1_v" transform="matrix(12,0,0,12,210.6,426.4)" />
<use xlink:href="#f1_4" transform="matrix(12,0,0,12,221.5,426.4)" />
<use xlink:href="#f1_3" transform="matrix(12,0,0,12,230.3,426.4)" />
<use xlink:href="#f1_4" transform="matrix(12,0,0,12,249.1,426.4)" />
<use xlink:href="#f1_m" transform="matrix(12,0,0,12,257.8,426.4)" />
<use xlink:href="#f1_3" transform="matrix(12,0,0,12,270.9,426.4)" />
<use xlink:href="#f1_1h" transform="matrix(12,0,0,12,289.7,426.4)" />
<use xlink:href="#f1_l" transform="matrix(12,0,0,12,304.5,426.4)" />
<use xlink:href="#f1_k" transform="matrix(12,0,0,12,319.8,426.4)" />
<use xlink:href="#f1_l" transform="matrix(12,0,0,12,326.5,426.4)" />
</g>
<g fill="#000000" >
<use xlink:href="#f0_7" transform="matrix(12,0,0,12,348.3,426.4)" />
<use xlink:href="#f0_h" transform="matrix(12,0,0,12,353.4,426.4)" />
<use xlink:href="#f0_a" transform="matrix(12,0,0,12,365,426.4)" />
<use xlink:href="#f0_c" transform="matrix(12,0,0,12,372.3,426.4)" />
<use xlink:href="#f0_a" transform="matrix(12,0,0,12,389.3,426.4)" />
<use xlink:href="#f0_3" transform="matrix(12,0,0,12,396.4,426.4)" />
<use xlink:href="#f0_4" transform="matrix(12,0,0,12,408,426.4)" />
<use xlink:href="#f0_g" transform="matrix(12,0,0,12,425.3,426.4)" />
<use xlink:href="#f0_b" transform="matrix(12,0,0,12,436.4,426.4)" />
<use xlink:href="#f0_b" transform="matrix(12,0,0,12,448,426.4)" />
<use xlink:href="#f0_8" transform="matrix(12,0,0,12,459.8,426.4)" />
<use xlink:href="#f0_c" transform="matrix(12,0,0,12,466.8,426.4)" />
<use xlink:href="#f0_b" transform="matrix(12,0,0,12,478,426.4)" />
<use xlink:href="#f0_8" transform="matrix(12,0,0,12,489.6,426.4)" />
<use xlink:href="#f0_7" transform="matrix(12,0,0,12,497.2,426.4)" />
<use xlink:href="#f0_g" transform="matrix(12,0,0,12,502.2,426.4)" />
<use xlink:href="#f0_a" transform="matrix(12,0,0,12,513.5,426.4)" />
<use xlink:href="#f0_4" transform="matrix(12,0,0,12,520.7,426.4)" />
<use xlink:href="#f0_6" transform="matrix(12,0,0,12,537.8,426.4)" />
<use xlink:href="#f0_7" transform="matrix(12,0,0,12,544.2,426.4)" />
<use xlink:href="#f0_4" transform="matrix(12,0,0,12,549.3,426.4)" />
<use xlink:href="#f0_i" transform="matrix(12,0,0,12,560.6,426.4)" />
<use xlink:href="#f0_j" transform="matrix(12,0,0,12,565.6,426.4)" />
<use xlink:href="#f0_l" transform="matrix(12,0,0,12,577.2,426.4)" />
<use xlink:href="#f0_1s" transform="matrix(12,0,0,12,589,426.4)" />
<use xlink:href="#f0_3" transform="matrix(12,0,0,12,607.1,426.4)" />
<use xlink:href="#f0_4" transform="matrix(12,0,0,12,618.7,426.4)" />
<use xlink:href="#f0_h" transform="matrix(12,0,0,12,630,426.4)" />
<use xlink:href="#f0_t" transform="matrix(12,0,0,12,647.4,426.4)" />
<use xlink:href="#f0_c" transform="matrix(12,0,0,12,658.3,426.4)" />
<use xlink:href="#f0_r" transform="matrix(12,0,0,12,669.4,426.4)" />
<use xlink:href="#f0_11" transform="matrix(12,0,0,12,681,426.4)" />
<use xlink:href="#f0_8" transform="matrix(12,0,0,12,687,426.4)" />
<use xlink:href="#f0_4" transform="matrix(12,0,0,12,694,426.4)" />
<use xlink:href="#f0_j" transform="matrix(12,0,0,12,711.1,426.4)" />
<use xlink:href="#f0_c" transform="matrix(12,0,0,12,722.7,426.4)" />
<use xlink:href="#f0_h" transform="matrix(12,0,0,12,733.8,426.4)" />
<use xlink:href="#f0_4" transform="matrix(12,0,0,12,745.5,426.4)" />
<use xlink:href="#f0_q" transform="matrix(12,0,0,12,756.7,426.4)" />
<use xlink:href="#f0_o" transform="matrix(12,0,0,12,768.5,426.4)" />
<use xlink:href="#f0_i" transform="matrix(12,0,0,12,778.6,426.4)" />
<use xlink:href="#f0_7" transform="matrix(12,0,0,12,783.6,426.4)" />
<use xlink:href="#f0_o" transform="matrix(12,0,0,12,788.6,426.4)" />
<use xlink:href="#f0_10" transform="matrix(12,0,0,12,798.7,426.4)" />
</g>
<g fill="#0000FF" >
<use xlink:href="#f1_h" transform="matrix(12,0,0,12,86.8,455)" />
<use xlink:href="#f1_f" transform="matrix(12,0,0,12,100.2,455)" />
<use xlink:href="#f1_6" transform="matrix(12,0,0,12,112.9,455)" />
<use xlink:href="#f1_4" transform="matrix(12,0,0,12,125.9,455)" />
<use xlink:href="#f1_5" transform="matrix(12,0,0,12,134.6,455)" />
<use xlink:href="#f1_6" transform="matrix(12,0,0,12,141,455)" />
<use xlink:href="#f1_g" transform="matrix(12,0,0,12,154,455)" />
<use xlink:href="#f1_3" transform="matrix(12,0,0,12,166.9,455)" />
</g>
<g fill="#000000" >
<use xlink:href="#f0_x" transform="matrix(12,0,0,12,86.8,1085.2)" />
<use xlink:href="#f0_c" transform="matrix(12,0,0,12,95.6,1085.2)" />
<use xlink:href="#f0_r" transform="matrix(12,0,0,12,106.8,1085.2)" />
<use xlink:href="#f0_y" transform="matrix(12,0,0,12,124.2,1085.2)" />
<use xlink:href="#f0_7" transform="matrix(12,0,0,12,139.2,1085.2)" />
<use xlink:href="#f0_i" transform="matrix(12,0,0,12,144.3,1085.2)" />
<use xlink:href="#f0_i" transform="matrix(12,0,0,12,149.4,1085.2)" />
<use xlink:href="#f0_h" transform="matrix(12,0,0,12,160.4,1085.2)" />
<use xlink:href="#f0_c" transform="matrix(12,0,0,12,172,1085.2)" />
<use xlink:href="#f0_y" transform="matrix(12,0,0,12,183.1,1085.2)" />
<use xlink:href="#f0_n" transform="matrix(12,0,0,12,204,1085.2)" />
<use xlink:href="#f0_4" transform="matrix(12,0,0,12,215.6,1085.2)" />
<use xlink:href="#f0_b" transform="matrix(12,0,0,12,232.7,1085.2)" />
<use xlink:href="#f0_8" transform="matrix(12,0,0,12,244.4,1085.2)" />
<use xlink:href="#f0_c" transform="matrix(12,0,0,12,251.4,1085.2)" />
<use xlink:href="#f0_p" transform="matrix(12,0,0,12,262.5,1085.2)" />
<use xlink:href="#f0_b" transform="matrix(12,0,0,12,280.5,1085.2)" />
<use xlink:href="#f0_a" transform="matrix(12,0,0,12,292.1,1085.2)" />
<use xlink:href="#f0_4" transform="matrix(12,0,0,12,299.3,1085.2)" />
<use xlink:href="#f0_j" transform="matrix(12,0,0,12,310.6,1085.2)" />
<use xlink:href="#f0_a" transform="matrix(12,0,0,12,328,1085.2)" />
<use xlink:href="#f0_c" transform="matrix(12,0,0,12,335.2,1085.2)" />
<use xlink:href="#f0_o" transform="matrix(12,0,0,12,352.3,1085.2)" />
<use xlink:href="#f0_c" transform="matrix(12,0,0,12,362.4,1085.2)" />
<use xlink:href="#f0_h" transform="matrix(12,0,0,12,373.5,1085.2)" />
<use xlink:href="#f0_6" transform="matrix(12,0,0,12,385.1,1085.2)" />
<use xlink:href="#f0_7" transform="matrix(12,0,0,12,391.7,1085.2)" />
<use xlink:href="#f0_8" transform="matrix(12,0,0,12,396.7,1085.2)" />
<use xlink:href="#f0_p" transform="matrix(12,0,0,12,403.9,1085.2)" />
<use xlink:href="#f0_a" transform="matrix(12,0,0,12,427.6,1085.2)" />
<use xlink:href="#f0_3" transform="matrix(12,0,0,12,434.8,1085.2)" />
<use xlink:href="#f0_4" transform="matrix(12,0,0,12,446.4,1085.2)" />
<use xlink:href="#f0_8" transform="matrix(12,0,0,12,463.6,1085.2)" />
<use xlink:href="#f0_4" transform="matrix(12,0,0,12,470.6,1085.2)" />
<use xlink:href="#f0_f" transform="matrix(12,0,0,12,481.9,1085.2)" />
<use xlink:href="#f0_7" transform="matrix(12,0,0,12,493.5,1085.2)" />
<use xlink:href="#f0_9" transform="matrix(12,0,0,12,498.6,1085.2)" />
<use xlink:href="#f0_a" transform="matrix(12,0,0,12,508.2,1085.2)" />
<use xlink:href="#f0_8" transform="matrix(12,0,0,12,515.4,1085.2)" />
<use xlink:href="#f0_g" transform="matrix(12,0,0,12,522.8,1085.2)" />
<use xlink:href="#f0_a" transform="matrix(12,0,0,12,534.1,1085.2)" />
<use xlink:href="#f0_7" transform="matrix(12,0,0,12,541.3,1085.2)" />
<use xlink:href="#f0_c" transform="matrix(12,0,0,12,546.4,1085.2)" />
<use xlink:href="#f0_h" transform="matrix(12,0,0,12,557.5,1085.2)" />
<use xlink:href="#f0_l" transform="matrix(12,0,0,12,569.3,1085.2)" />
<use xlink:href="#f0_18" transform="matrix(12,0,0,12,580.9,1085.2)" />
<use xlink:href="#f0_i" transform="matrix(12,0,0,12,593.7,1085.2)" />
<use xlink:href="#f0_7" transform="matrix(12,0,0,12,598.7,1085.2)" />
<use xlink:href="#f0_o" transform="matrix(12,0,0,12,603.8,1085.2)" />
<use xlink:href="#f0_10" transform="matrix(12,0,0,12,613.8,1085.2)" />
</g>
<g fill="#0000FF" >
<use xlink:href="#f1_10" transform="matrix(12,0,0,12,630.7,1085.2)" />
<use xlink:href="#f1_3" transform="matrix(12,0,0,12,644.9,1085.2)" />
<use xlink:href="#f1_7" transform="matrix(12,0,0,12,657.2,1085.2)" />
<use xlink:href="#f1_5" transform="matrix(12,0,0,12,670.4,1085.2)" />
<use xlink:href="#f1_v" transform="matrix(12,0,0,12,676.6,1085.2)" />
<use xlink:href="#f1_4" transform="matrix(12,0,0,12,687.5,1085.2)" />
<use xlink:href="#f1_3" transform="matrix(12,0,0,12,696.3,1085.2)" />
<use xlink:href="#f1_b" transform="matrix(12,0,0,12,708.7,1085.2)" />
</g>
<g fill="#000000" >
<use xlink:href="#f0_12" transform="matrix(12,0,0,12,717.9,1085.2)" />
</g>
</g>
<image preserveAspectRatio="none" x="87" y="87" width="736" height="179" xlink:href="img/1.png" />
<image preserveAspectRatio="none" x="193" y="459" width="524" height="573" xlink:href="img/2.png" />
<defs>
<path d="M150,0V1114H353L846,182v932H992V0H789L296,932V0Z" 
id="f0_m"
transform="scale(0.001,-0.001)" />

<path d="M467,95c0,0,110,0,174,86c0,0,64,87,64,236c0,0,0,148,-64,235c0,0,-64,87,-174,87c0,0,-110,0,-174,-86c0,0,-64,-86,-64,-236c0,0,0,-150,64,-236c0,0,63,-86,174,-86Zm0,-115c0,0,-179,0,-281,115C186,95,84,212,84,417c0,0,0,206,102,322c0,0,102,117,281,117c0,0,179,0,282,-117c0,0,102,-116,102,-322c0,0,0,-205,-102,-322C749,95,646,-20,467,-20Z" 
id="f0_c"
transform="scale(0.001,-0.001)" />

<path d="M283,0L65,836H202L373,184L544,836H706L878,184l171,652h137L967,0H806L626,685L445,0Z" 
id="f0_y"
transform="scale(0.001,-0.001)" />

<path d="M-26,-317v117H9c0,0,78,0,106,36c0,0,29,36,29,150V836H281V-14c0,0,0,-160,-61,-231c0,0,-61,-72,-195,-72ZM144,987v174H281V987Z" 
id="f0_19"
transform="scale(0.001,-0.001)" />

<path d="M424,-20c0,0,-145,0,-219,88c0,0,-75,89,-75,262V836H267V335c0,0,0,-119,46,-178c0,0,47,-59,139,-59c0,0,112,0,177,71c0,0,64,71,64,193V836H830V0H693V128C693,128,643,52,577,15c0,0,-66,-35,-153,-35Z" 
id="f0_r"
transform="scale(0.001,-0.001)" />

<path d="M376,-20c0,0,-67,0,-140,12C236,-8,164,4,83,30V172c0,0,76,-40,150,-59c0,0,74,-20,146,-20c0,0,97,0,150,33c0,0,52,33,52,94c0,0,0,56,-38,85c0,0,-38,30,-165,58l-48,11c0,0,-128,27,-184,83c0,0,-57,55,-57,152c0,0,0,118,83,182c0,0,84,65,238,65c0,0,76,0,143,-12c0,0,67,-11,124,-33V681c0,0,-58,29,-121,44c0,0,-63,15,-130,15c0,0,-102,0,-153,-31c0,0,-51,-31,-51,-94c0,0,0,-48,37,-75c0,0,36,-27,147,-52l46,-10c0,0,147,-32,208,-89c0,0,62,-57,62,-159c0,0,0,-116,-93,-184c0,0,-92,-66,-253,-66Z" 
id="f0_9"
transform="scale(0.001,-0.001)" />

<path d="M421,0C421,0,263,0,202,59c0,0,-60,60,-60,217V729H41V836H142v238H280V836H562V729H280V276c0,0,0,-102,28,-132c0,0,28,-29,113,-29H562V0Z" 
id="f0_a"
transform="scale(0.001,-0.001)" />

<path d="M139,0V836H277V706c0,0,43,76,112,113c0,0,70,37,169,37c0,0,14,0,31,-2c0,0,17,-2,38,-6l1,-141c0,0,-23,14,-51,20c0,0,-27,6,-60,6c0,0,-116,0,-178,-75c0,0,-62,-76,-62,-218V0Z" 
id="f0_8"
transform="scale(0.001,-0.001)" />

<path d="M144,0V836H281V0Zm0,987v174H281V987Z" 
id="f0_7"
transform="scale(0.001,-0.001)" />

<path d="M460,115c0,0,111,0,173,82c0,0,61,82,61,230c0,0,0,149,-61,231c0,0,-62,82,-173,82c0,0,-111,0,-173,-82c0,0,-61,-82,-61,-231c0,0,0,-148,61,-230c0,0,62,-82,173,-82ZM446,-317c0,0,-72,0,-137,11c0,0,-64,11,-124,33v134c0,0,60,-33,119,-49c0,0,59,-15,121,-15c0,0,135,0,202,70c0,0,67,71,67,212v68C694,147,652,73,585,36C585,36,519,0,426,0C426,0,272,0,178,117c0,0,-94,117,-94,310c0,0,0,194,94,311c0,0,94,118,248,118c0,0,93,0,159,-37c0,0,67,-36,109,-110V836H831V104c0,0,0,-212,-95,-317c0,0,-94,-104,-290,-104Z" 
id="f0_f"
transform="scale(0.001,-0.001)" />

<path d="M139,0V1161H277V706c0,0,49,75,116,112c0,0,67,38,154,38c0,0,144,0,218,-90c0,0,74,-89,74,-262V0H702V500c0,0,0,119,-46,177c0,0,-47,59,-139,59c0,0,-112,0,-176,-71c0,0,-64,-70,-64,-193V0Z" 
id="f0_3"
transform="scale(0.001,-0.001)" />

<path d="M495,-20c0,0,-189,0,-300,117C195,97,84,216,84,417c0,0,0,204,112,321c0,0,113,118,308,118c0,0,64,0,124,-14c0,0,60,-13,117,-39V675c0,0,-58,32,-117,48c0,0,-58,16,-118,16c0,0,-133,0,-207,-84c0,0,-74,-85,-74,-238c0,0,0,-153,74,-238c0,0,74,-84,207,-84c0,0,60,0,118,16c0,0,59,16,117,48V32C745,32,688,5,626,-7c0,0,-61,-13,-131,-13Z" 
id="f0_o"
transform="scale(0.001,-0.001)" />

<path d="M144,0V1161H281V0Z" 
id="f0_i"
transform="scale(0.001,-0.001)" />

<path d="M139,0V1161H277V475L686,836H861L418,445L880,0H701L277,408V0Z" 
id="f0_10"
transform="scale(0.001,-0.001)" />

<path d="M139,0V836H277V706c0,0,49,75,116,112c0,0,67,38,154,38c0,0,144,0,218,-90c0,0,74,-89,74,-262V0H702V500c0,0,0,119,-46,177c0,0,-47,59,-139,59c0,0,-112,0,-176,-71c0,0,-64,-70,-64,-193V0Z" 
id="f0_h"
transform="scale(0.001,-0.001)" />

<path d="M231,492l491,1c0,0,-2,112,-64,179c0,0,-61,67,-163,67c0,0,-115,0,-184,-65c0,0,-69,-64,-80,-182ZM517,-20c0,0,-199,0,-316,115C201,95,84,211,84,410c0,0,0,205,111,325c0,0,111,121,299,121c0,0,168,0,266,-109c0,0,98,-108,98,-295V385H227c0,0,9,-142,85,-216c0,0,77,-74,213,-74c0,0,80,0,154,19c0,0,74,19,147,58V42C826,42,752,11,675,-4c0,0,-78,-16,-158,-16Z" 
id="f0_4"
transform="scale(0.001,-0.001)" />

<path d="M139,0V836H277V706c0,0,47,77,112,113c0,0,66,37,156,37c0,0,91,0,155,-47c0,0,64,-46,94,-134c0,0,52,93,123,137c0,0,72,44,169,44c0,0,130,0,201,-92c0,0,71,-91,71,-260V0H1220V500c0,0,0,120,-42,178c0,0,-43,58,-130,58c0,0,-107,0,-169,-71c0,0,-62,-70,-62,-193V0H680V500c0,0,0,121,-43,179c0,0,-42,57,-131,57c0,0,-105,0,-167,-71c0,0,-62,-71,-62,-193V0Z" 
id="f0_p"
transform="scale(0.001,-0.001)" />

<path d="M510,93c0,0,109,0,171,86c0,0,62,86,62,238c0,0,0,151,-62,237c0,0,-62,86,-171,86c0,0,-109,0,-171,-86c0,0,-62,-86,-62,-237c0,0,0,-152,62,-238c0,0,62,-86,171,-86ZM544,-20c0,0,-92,0,-158,35c0,0,-66,36,-109,110V0H139V1161H277V709c0,0,43,74,109,110c0,0,66,37,158,37c0,0,152,0,247,-121c0,0,95,-121,95,-318c0,0,0,-197,-95,-318C791,99,696,-20,544,-20Z" 
id="f0_n"
transform="scale(0.001,-0.001)" />

<path d="M408,93c0,0,115,0,184,81c0,0,69,81,69,215v30H524c0,0,-167,0,-231,-38c0,0,-64,-38,-64,-129c0,0,0,-73,48,-116c0,0,48,-43,131,-43ZM372,-20c0,0,-128,0,-204,70c0,0,-76,72,-76,193c0,0,0,141,94,212c0,0,95,72,282,72H661v13c0,0,0,95,-62,147c0,0,-63,52,-175,52c0,0,-72,0,-140,-17c0,0,-68,-17,-130,-51V798c0,0,75,29,146,43c0,0,71,15,138,15c0,0,181,0,270,-95c0,0,90,-94,90,-285V0H661V127C661,127,614,51,544,15c0,0,-70,-35,-172,-35Z" 
id="f0_g"
transform="scale(0.001,-0.001)" />

<path d="M460,93c0,0,109,0,171,86c0,0,63,86,63,238c0,0,0,151,-63,237c0,0,-62,86,-171,86c0,0,-109,0,-172,-86c0,0,-62,-86,-62,-237c0,0,0,-152,62,-238c0,0,63,-86,172,-86ZM426,-20c0,0,-151,0,-247,119c0,0,-95,121,-95,318c0,0,0,197,95,318c0,0,96,121,247,121c0,0,93,0,159,-37c0,0,66,-36,109,-110v452H831V0H694V125C694,125,651,51,585,15c0,0,-66,-35,-159,-35Z" 
id="f0_j"
transform="scale(0.001,-0.001)" />

<path d="M680,-20c0,0,-278,0,-441,154C239,134,76,290,76,556c0,0,0,267,163,423c0,0,163,155,441,155c0,0,93,0,179,-21c0,0,86,-21,165,-62V820c0,0,-80,55,-158,81c0,0,-77,25,-163,25c0,0,-154,0,-241,-98c0,0,-88,-99,-88,-272c0,0,0,-172,87,-271c0,0,88,-98,242,-98c0,0,86,0,163,25c0,0,78,26,158,80V61C1024,61,945,20,859,0c0,0,-86,-20,-179,-20Z" 
id="f1_h"
transform="scale(0.001,-0.001)" />

<path d="M526,169c0,0,87,0,133,64c0,0,46,64,46,184c0,0,0,120,-46,184c0,0,-46,64,-133,64c0,0,-89,0,-135,-64c0,0,-47,-64,-47,-184c0,0,0,-120,47,-184c0,0,46,-64,135,-64Zm0,-189c0,0,-217,0,-339,115C187,95,66,211,66,417c0,0,0,206,121,322c0,0,122,117,339,117c0,0,215,0,336,-117c0,0,122,-116,122,-322c0,0,0,-206,-122,-322C862,95,741,-20,526,-20Z" 
id="f1_f"
transform="scale(0.001,-0.001)" />

<path d="M573,172c0,0,86,0,131,63c0,0,45,63,45,182c0,0,0,119,-45,182c0,0,-45,63,-131,63c0,0,-86,0,-132,-63c0,0,-46,-63,-46,-182c0,0,0,-119,46,-182c0,0,46,-63,132,-63ZM128,-317V836H395V713c0,0,55,73,122,108c0,0,68,35,155,35c0,0,154,0,253,-123c0,0,100,-123,100,-316c0,0,0,-193,-100,-316c0,0,-99,-121,-253,-121c0,0,-87,0,-155,33c0,0,-67,35,-122,108V-317Z" 
id="f1_i"
transform="scale(0.001,-0.001)" />

<path d="M153,-328v175h83c0,0,68,0,99,21c0,0,31,22,48,78l8,23L19,836H286L510,269L701,836H968L617,-78c0,0,-53,-139,-124,-195c0,0,-70,-55,-186,-55Z" 
id="f1_p"
transform="scale(0.001,-0.001)" />

<path d="M510,93c0,0,109,0,171,86c0,0,62,86,62,238c0,0,0,151,-62,237c0,0,-62,86,-171,86c0,0,-109,0,-171,-86c0,0,-62,-86,-62,-237c0,0,0,-152,62,-238c0,0,62,-86,171,-86ZM139,-317V836H277V709c0,0,43,74,109,110c0,0,66,37,158,37c0,0,152,0,247,-121c0,0,95,-121,95,-318c0,0,0,-197,-95,-318C791,99,696,-20,544,-20c0,0,-92,0,-158,35c0,0,-66,36,-109,110V-317Z" 
id="f0_b"
transform="scale(0.001,-0.001)" />

<path d="M121,-317v116h81c0,0,57,0,88,26c0,0,31,27,69,127l25,62L46,836H191L453,182L714,836H859L492,-76c0,0,-58,-150,-113,-195c0,0,-55,-46,-148,-46Z" 
id="f0_t"
transform="scale(0.001,-0.001)" />

<path d="M560,-20c0,0,-211,0,-319,110c0,0,-108,111,-108,328v696H285V437c0,0,0,-179,64,-258c0,0,65,-78,211,-78c0,0,144,0,209,78c0,0,65,79,65,258v677H986V418c0,0,0,-217,-108,-328C878,90,770,-20,560,-20Z" 
id="f0_u"
transform="scale(0.001,-0.001)" />

<path d="M482,124c0,0,231,0,338,105c0,0,107,104,107,329c0,0,0,224,-107,328c0,0,-107,104,-338,104H300V124ZM150,0V1114H459c0,0,324,0,476,-135c0,0,151,-135,151,-421c0,0,0,-288,-152,-423C934,135,782,0,459,0Z" 
id="f0_15"
transform="scale(0.001,-0.001)" />

<path d="M150,0V1114H300V0Z" 
id="f0_z"
transform="scale(0.001,-0.001)" />

<path d="M163,0V190H321V0Z" 
id="f0_l"
transform="scale(0.001,-0.001)" />

<path d="M642,-20c0,0,-261,0,-409,151C233,131,86,284,86,556c0,0,0,273,147,426c0,0,148,152,409,152c0,0,109,0,207,-27c0,0,98,-26,181,-78V868c0,0,-84,71,-178,106c0,0,-94,36,-197,36c0,0,-205,0,-307,-114C348,896,245,782,245,556c0,0,0,-225,103,-339c0,0,102,-114,307,-114c0,0,79,0,142,13c0,0,62,14,112,43V459H663V583h396V104c0,0,-87,-62,-193,-94c0,0,-105,-30,-224,-30Z" 
id="f0_1r"
transform="scale(0.001,-0.001)" />

<path d="M117,-176L179,62V190H336V62L213,-176Z" 
id="f0_q"
transform="scale(0.001,-0.001)" />

<path d="M359,0L46,836H191L453,134L714,836H859L546,0Z" 
id="f0_k"
transform="scale(0.001,-0.001)" />

<path d="M354,-200c0,0,-112,175,-167,343c0,0,-56,170,-56,337c0,0,0,166,55,335c0,0,55,169,168,345H473c0,0,-100,-172,-148,-340c0,0,-48,-168,-48,-340c0,0,0,-173,48,-342c0,0,49,-168,148,-338Z" 
id="f0_1d"
transform="scale(0.001,-0.001)" />

<path d="M122,-200c0,0,99,170,148,338c0,0,49,169,49,342c0,0,0,172,-49,340c0,0,-49,168,-148,340H241c0,0,112,-176,168,-345c0,0,55,-169,55,-335c0,0,0,-167,-55,-337c0,0,-56,-168,-168,-343Z" 
id="f0_1e"
transform="scale(0.001,-0.001)" />

<path d="M463,156c0,0,75,0,127,54c0,0,51,54,51,135v30H502c0,0,-83,0,-125,-28c0,0,-43,-28,-43,-83c0,0,0,-50,34,-79c0,0,34,-29,95,-29ZM357,-20c0,0,-130,0,-211,74c0,0,-80,76,-80,197c0,0,0,147,101,215c0,0,101,69,317,69H641v21c0,0,0,63,-50,92c0,0,-49,30,-155,30c0,0,-86,0,-160,-17c0,0,-74,-18,-137,-52V813c0,0,86,21,172,32c0,0,86,11,173,11c0,0,226,0,326,-90c0,0,100,-89,100,-290V0H641V124C641,124,588,48,521,13c0,0,-68,-33,-164,-33Z" 
id="f1_a"
transform="scale(0.001,-0.001)" />

<path d="M445,-20c0,0,-83,0,-171,12C274,-8,185,4,92,30V234c0,0,80,-39,164,-58c0,0,84,-20,170,-20c0,0,79,0,118,22c0,0,40,22,40,64c0,0,0,36,-28,53c0,0,-27,18,-108,27l-47,6c0,0,-179,23,-250,83c0,0,-72,61,-72,184c0,0,0,132,91,196c0,0,91,65,279,65c0,0,74,0,155,-12c0,0,82,-11,177,-34V606c0,0,-86,36,-165,54c0,0,-80,18,-151,18c0,0,-76,0,-113,-19c0,0,-37,-19,-37,-59c0,0,0,-32,28,-49c0,0,28,-17,100,-25l47,-7c0,0,205,-26,276,-86c0,0,71,-59,71,-187c0,0,0,-133,-98,-200c0,0,-99,-66,-294,-66Z" 
id="f1_v"
transform="scale(0.001,-0.001)" />

<path d="M443,0C443,0,285,0,219,66c0,0,-66,66,-66,224V645H20V836H153v237H419V836H695V645H419V290c0,0,0,-58,24,-79c0,0,23,-20,91,-20H672V0Z" 
id="f1_4"
transform="scale(0.001,-0.001)" />

<path d="M687,509c0,0,0,76,-44,122c0,0,-44,47,-116,47c0,0,-78,0,-126,-44c0,0,-49,-43,-61,-125ZM544,-20c0,0,-227,0,-353,114C191,94,66,209,66,417c0,0,0,204,123,321c0,0,123,118,340,118c0,0,197,0,315,-119c0,0,118,-118,118,-317V344H337c0,0,10,-94,68,-141c0,0,59,-47,163,-47c0,0,85,0,173,25c0,0,89,25,182,76V51C923,51,828,15,733,-2c0,0,-94,-18,-189,-18Z" 
id="f1_3"
transform="scale(0.001,-0.001)" />

<path d="M128,0V1161H395V713c0,0,60,73,128,108c0,0,68,35,150,35c0,0,145,0,220,-89c0,0,75,-89,75,-258V0H699V388c0,0,0,110,-5,151c0,0,-5,41,-16,60c0,0,-16,26,-43,41c0,0,-27,14,-61,14c0,0,-84,0,-131,-64c0,0,-48,-65,-48,-179V0Z" 
id="f1_m"
transform="scale(0.001,-0.001)" />

<path d="M620,-20c0,0,-243,0,-362,114c0,0,-118,116,-118,352v668H427V446c0,0,0,-138,45,-197c0,0,45,-59,148,-59c0,0,102,0,147,59c0,0,46,59,46,197v668h287V446c0,0,0,-236,-119,-352C981,94,863,-20,620,-20Z" 
id="f1_1h"
transform="scale(0.001,-0.001)" />

<path d="M530,217c0,0,176,0,269,87c0,0,93,88,93,254c0,0,0,166,-93,252c0,0,-92,87,-269,87H427V217ZM140,0V1114H443c0,0,253,0,378,-36c0,0,124,-37,213,-123c0,0,78,-76,116,-174c0,0,38,-98,38,-223c0,0,0,-126,-38,-225c0,0,-38,-99,-116,-174c0,0,-90,-87,-215,-123C819,36,694,0,443,0Z" 
id="f1_l"
transform="scale(0.001,-0.001)" />

<path d="M140,0V1114H427V0Z" 
id="f1_k"
transform="scale(0.001,-0.001)" />

<path d="M166,0V729H35V836H166v58c0,0,0,139,65,203c0,0,65,64,206,64H567V1046H435c0,0,-74,0,-102,-29c0,0,-29,-30,-29,-107V836H530V729H304V0Z" 
id="f0_6"
transform="scale(0.001,-0.001)" />

<path d="M330,0L51,1114H203L437,172l234,942H840L1074,172l234,942h153L1181,0H992L757,967L519,0Z" 
id="f0_1s"
transform="scale(0.001,-0.001)" />

<path d="M132,763l62,237v114H351V1000L228,763Z" 
id="f0_11"
transform="scale(0.001,-0.001)" />

<path d="M128,0V836H395V713c0,0,60,73,128,108c0,0,68,35,150,35c0,0,145,0,220,-89c0,0,75,-89,75,-258V0H699V389c0,0,0,109,-5,150c0,0,-5,41,-16,60c0,0,-16,26,-43,41c0,0,-27,14,-61,14c0,0,-84,0,-131,-64c0,0,-48,-65,-48,-179V0Z" 
id="f1_6"
transform="scale(0.001,-0.001)" />

<path d="M128,0V836H395V0Zm0,944v217H395V944Z" 
id="f1_5"
transform="scale(0.001,-0.001)" />

<path d="M415,-20c0,0,-144,0,-220,87c0,0,-76,89,-76,259V836H388V752c0,0,0,-67,-1,-170c0,0,0,-103,0,-137c0,0,0,-101,5,-145c0,0,5,-44,18,-65c0,0,16,-26,43,-40c0,0,26,-14,60,-14c0,0,84,0,132,64c0,0,47,64,47,178V836H959V0H692V121C692,121,632,48,564,13c0,0,-67,-33,-149,-33Z" 
id="f1_g"
transform="scale(0.001,-0.001)" />

<path d="M391,0V530L-2,1114H159L468,656l307,458H937L543,530V0Z" 
id="f0_x"
transform="scale(0.001,-0.001)" />

<path d="M630,-20c0,0,-253,0,-398,153C232,133,86,288,86,556c0,0,0,269,146,423c0,0,145,155,398,155c0,0,100,0,189,-26c0,0,88,-27,166,-79V869c0,0,-76,71,-163,106c0,0,-86,35,-183,35c0,0,-191,0,-292,-117C347,893,245,777,245,556c0,0,0,-220,102,-337c0,0,101,-116,292,-116c0,0,97,0,183,35c0,0,87,35,163,105V86C985,86,906,32,817,5c0,0,-88,-25,-187,-25Z" 
id="f0_18"
transform="scale(0.001,-0.001)" />

<path d="M548,620c0,0,90,0,129,33c0,0,39,34,39,111c0,0,0,76,-39,109c0,0,-39,32,-129,32H427V620ZM140,0V1114H578c0,0,220,0,323,-74c0,0,102,-74,102,-234c0,0,0,-110,-53,-181c0,0,-54,-71,-161,-104c0,0,59,-14,106,-61c0,0,46,-47,94,-144L1145,0H839L703,277c0,0,-41,83,-83,114c0,0,-42,30,-112,30H427V0Z" 
id="f1_10"
transform="scale(0.001,-0.001)" />

<path d="M520,194c0,0,84,0,130,61c0,0,46,61,46,172c0,0,0,112,-46,174c0,0,-46,61,-130,61c0,0,-82,0,-129,-61c0,0,-46,-62,-46,-174c0,0,0,-115,45,-174c0,0,45,-59,130,-59ZM469,-328c0,0,-78,0,-151,12c0,0,-73,12,-147,36V-71c0,0,70,-41,137,-61c0,0,67,-20,135,-20c0,0,131,0,192,58c0,0,61,57,61,178v58C696,142,641,69,575,34C575,34,508,0,421,0C421,0,268,0,168,121C168,121,68,241,68,428c0,0,0,187,100,307c0,0,100,120,253,120c0,0,87,0,154,-35c0,0,66,-34,121,-108V836H965V84c0,0,0,-200,-127,-306c0,0,-127,-106,-369,-106Z" 
id="f1_7"
transform="scale(0.001,-0.001)" />

<path d="M128,0V836H395V698c0,0,52,82,118,120c0,0,67,38,161,38c0,0,13,0,29,-2c0,0,15,-1,45,-4l1,-242c0,0,-35,17,-70,25c0,0,-35,7,-70,7c0,0,-103,0,-158,-66c0,0,-56,-66,-56,-189V0Z" 
id="f1_b"
transform="scale(0.001,-0.001)" />

<path d="M179,0V190H336V0Zm0,600V790H336V600Z" 
id="f0_12"
transform="scale(0.001,-0.001)" />


</defs>
</svg>